<?xml version="1.0" encoding="utf-8"?>
<!-- Generator: Adobe Illustrator 24.1.2, SVG Export Plug-In . SVG Version: 6.00 Build 0)  -->
<svg version="1.1" id="Warstwa_3" xmlns="http://www.w3.org/2000/svg" xmlns:xlink="http://www.w3.org/1999/xlink" x="0px" y="0px"
	 viewBox="0 0 430 430" style="enable-background:new 0 0 430 430;" xml:space="preserve">
<style type="text/css">
	.st0{fill:#121331;}
	.st1{fill:#08a88a;}
	.st2{fill:none;stroke:#08a88a;stroke-width:12.25;stroke-miterlimit:14;}
	.st3{fill-opacity:0;}
	.st4{fill:#131432;}
	.st5{fill:none;}
</style>
<g>
	<g transform="matrix(3.5,0,0,3.5,250,247.375)">
		<g transform="matrix(1,0,0,1,0,0)">
			<path class="st0" d="M15.8,26.13h-56.27c-11.76,0-21.33-9.57-21.33-21.33c0-7.51,3.92-14.39,10.31-18.25
				c-0.05-0.45-0.08-0.89-0.08-1.33c0-6.73,5.48-12.21,12.21-12.21c0.79,0,1.57,0.08,2.35,0.23c6.3-11.05,17.95-17.85,30.73-17.85
				c13.96,0,26.54,8.16,32.26,20.84c4.51,1.92,8.37,5.06,11.19,9.11c3.03,4.36,4.63,9.48,4.63,14.8
				C41.8,14.47,30.14,26.13,15.8,26.13z M-39.35-23.5c-4.8,0-8.71,3.91-8.71,8.71c0,0.61,0.07,1.25,0.21,1.88
				c0.17,0.77-0.2,1.56-0.89,1.92c-5.89,3.1-9.54,9.15-9.54,15.78c0,9.83,8,17.83,17.83,17.83H15.8c12.4,0,22.49-10.09,22.49-22.49
				c0-9.31-5.6-17.53-14.27-20.94c-0.44-0.17-0.79-0.51-0.97-0.94C18.03-33.52,6.52-41.13-6.28-41.13
				c-11.93,0-22.78,6.59-28.29,17.2c-0.39,0.76-1.28,1.12-2.09,0.86C-37.54-23.36-38.44-23.5-39.35-23.5z"/>
		</g>
	</g>
	<g transform="matrix(3.5,0,0,3.5,250,247.375)">
		<g transform="matrix(1,0,0,1,0,0)">
			<path class="st0" d="M26.15,0.41c-0.16,0-0.32-0.02-0.48-0.07c-0.93-0.26-1.47-1.23-1.21-2.16c1.14-4.04,1.15-7.4,1.15-7.43
				c0-4.42-0.89-8.7-2.64-12.72c-0.39-0.89,0.02-1.92,0.91-2.3c0.89-0.39,1.92,0.02,2.3,0.91c1.94,4.46,2.93,9.21,2.93,14.11
				c0,0.15,0,3.84-1.29,8.39C27.61-0.09,26.91,0.41,26.15,0.41z M-29.5-16.57c-0.72,0-1.39-0.44-1.65-1.16
				c-1.25-3.45-4.54-5.77-8.2-5.77c-0.97,0-1.75-0.78-1.75-1.75S-40.31-27-39.35-27c5.13,0,9.75,3.25,11.5,8.09
				c0.33,0.91-0.14,1.91-1.05,2.24C-29.1-16.6-29.3-16.57-29.5-16.57z"/>
		</g>
	</g>
</g>
</svg>
