<?xml version="1.0" encoding="utf-8"?>
<!-- Generator: Adobe Illustrator 24.0.2, SVG Export Plug-In . SVG Version: 6.00 Build 0)  -->
<svg version="1.1" xmlns="http://www.w3.org/2000/svg" xmlns:xlink="http://www.w3.org/1999/xlink" x="0px" y="0px"
	 viewBox="0 0 24 24" style="enable-background:new 0 0 24 24;" xml:space="preserve">
<style type="text/css">
	.st0{fill:none;}
	.st1{fill:#121331;}
</style>
<g id="bounding_area">
	<rect class="st0" width="24" height="24"/>
</g>
<g id="design">
	<g>
		<path class="st1" d="M7.25,21h-3.5C3.33,21,3,20.66,3,20.25v-7.5C3,12.33,3.33,12,3.75,12h3.5C7.66,12,8,12.33,8,12.75v7.5
			C8,20.66,7.66,21,7.25,21z M4.5,19.5h2v-6h-2V19.5z"/>
		<path class="st1" d="M20.25,21h-3.5C16.34,21,16,20.66,16,20.25V8.75C16,8.34,16.34,8,16.75,8h3.5C20.66,8,21,8.34,21,8.75v11.5
			C21,20.66,20.66,21,20.25,21z M17.5,19.5h2v-10h-2V19.5z"/>
		<path class="st1" d="M13.75,21h-3.5c-0.41,0-0.75-0.34-0.75-0.75V4.75C9.5,4.33,9.84,4,10.25,4h3.5c0.41,0,0.75,0.34,0.75,0.75
			v15.5C14.5,20.66,14.16,21,13.75,21z M11,19.5h2v-14h-2V19.5z"/>
	</g>
</g>
</svg>
