<?xml version="1.0" encoding="utf-8"?>
<!-- Generator: Adobe Illustrator 24.1.2, SVG Export Plug-In . SVG Version: 6.00 Build 0)  -->
<svg version="1.1" id="Warstwa_3" xmlns="http://www.w3.org/2000/svg" xmlns:xlink="http://www.w3.org/1999/xlink" x="0px" y="0px"
	 viewBox="0 0 430 430" style="enable-background:new 0 0 430 430;" xml:space="preserve">
<style type="text/css">
	.st0{fill:#08a88a;}
	.st1{fill:#121331;}
	.st2{fill:none;stroke:#08a88a;stroke-width:12;stroke-linecap:round;stroke-linejoin:round;stroke-miterlimit:10;}
	.st3{fill:none;stroke:#121331;stroke-width:12;stroke-linecap:round;stroke-linejoin:round;stroke-miterlimit:10;}
	.st4{fill:#08a88a;}
	.st5{fill:#FFFFFF;stroke:#08a88a;stroke-width:12;stroke-linecap:round;stroke-linejoin:round;stroke-miterlimit:10;}
</style>
<g>
	<path class="st1" d="M351.69,155.16c-1.71-1.11-3.87-1.27-5.72-0.43l-71.65,32.29v-14.51c0-9.92-8.08-18-18-18H127.33V132.7
		c0-15.21,12.37-27.58,27.58-27.58h22.5c3.31,0,6-2.69,6-6s-2.69-6-6-6h-22.5c-21.83,0-39.58,17.76-39.58,39.58v21.81H93.57
		c-9.92,0-18,8.08-18,18v100.33c0,9.92,8.08,18,18,18h60.05v57.22c0,3.31,2.69,6,6,6s6-2.69,6-6v-57.22h18.65v57.22
		c0,3.31,2.69,6,6,6s6-2.69,6-6v-57.22h60.05c9.92,0,18-8.08,18-18v-14.51l71.65,32.29c0.79,0.36,1.63,0.53,2.46,0.53
		c1.14,0,2.27-0.32,3.26-0.96c1.71-1.1,2.74-3,2.74-5.04V160.2C354.43,158.17,353.4,156.27,351.69,155.16z M262.32,272.83
		c0,3.31-2.69,6-6,6h-66.03c-0.01,0-0.01,0-0.02,0s-0.01,0-0.02,0h-30.61c-0.01,0-0.01,0-0.02,0s-0.01,0-0.02,0H93.57
		c-3.31,0-6-2.69-6-6V172.51c0-3.31,2.69-6,6-6h162.75c3.31,0,6,2.69,6,6V272.83z M342.43,275.86l-68.11-30.7v-44.98l68.11-30.7
		V275.86z"/>
	<path class="st0" d="M224.3,260.76h-98.72c-3.31,0-6-2.69-6-6s2.69-6,6-6h98.72c3.31,0,6,2.69,6,6S227.62,260.76,224.3,260.76z"/>
	<path class="st0" d="M251.32,121.95h-61.99c-9.92,0-18-8.08-18-18v-10c0-9.92,8.08-18,18-18h61.99c12.68,0,23,10.32,23,23
		S264,121.95,251.32,121.95z M189.33,87.95c-3.31,0-6,2.69-6,6v10c0,3.31,2.69,6,6,6h61.99c6.07,0,11-4.93,11-11s-4.93-11-11-11
		H189.33z"/>
</g>
</svg>
