<?xml version="1.0" encoding="utf-8"?>
<!-- Generator: Adobe Illustrator 24.1.2, SVG Export Plug-In . SVG Version: 6.00 Build 0)  -->
<svg version="1.1" id="Warstwa_3" xmlns="http://www.w3.org/2000/svg" xmlns:xlink="http://www.w3.org/1999/xlink" x="0px" y="0px"
	 viewBox="0 0 430 430" style="enable-background:new 0 0 430 430;" xml:space="preserve">
<style type="text/css">
	.st0{fill:#08a88a;}
	.st1{fill:#121331;}
	.st2{fill:#08a88a;}
	.st3{clip-path:url(#SVGID_2_);}
	.st4{fill:none;stroke:#08a88a;stroke-width:12;stroke-linecap:round;stroke-linejoin:round;stroke-miterlimit:10;}
	.st5{fill:none;stroke:#121331;stroke-width:12;stroke-linecap:round;stroke-linejoin:round;stroke-miterlimit:10;}
	.st6{fill:none;}
</style>
<g>
	<path class="st0" d="M215,359.03c-23.03,0-46.05-4.7-58.66-14.1c-2.66-1.98-3.21-5.74-1.22-8.4s5.74-3.2,8.4-1.22
		c9.7,7.23,29.43,11.73,51.49,11.73s41.79-4.49,51.49-11.73c2.65-1.98,6.42-1.43,8.4,1.22c1.98,2.66,1.43,6.42-1.22,8.4
		C261.05,354.33,238.03,359.03,215,359.03z"/>
	<path class="st0" d="M310.51,115.95H119.49c-3.31,0-6-2.69-6-6s2.69-6,6-6h191.02c3.31,0,6,2.69,6,6S313.82,115.95,310.51,115.95z"
		/>
	<path class="st1" d="M314.72,78.21c-2.69-3.14-6.33-5.15-10.24-5.76c-2.02-20.69-19.5-36.91-40.71-36.91h-97.54
		c-21.21,0-38.7,16.22-40.71,36.91c-3.9,0.61-7.54,2.62-10.24,5.76c-3.65,4.25-5.23,9.97-4.34,15.69l13.31,86.02
		c4.32,27.91,20.64,50.27,42.15,60.49L149.98,371.2c-0.22,1.72,0.32,3.45,1.48,4.74c12.2,13.66,40.82,18.52,63.54,18.52
		s51.34-4.87,63.54-18.52c1.16-1.29,1.69-3.02,1.48-4.74L263.6,240.41c21.5-10.22,37.83-32.58,42.15-60.49l13.31-86.02
		C319.95,88.18,318.36,82.46,314.72,78.21z M166.23,47.54h97.54c14.51,0,26.56,10.75,28.6,24.7H137.63
		C139.67,58.28,151.72,47.54,166.23,47.54z M221,84.24h49.49c-2.17,24.17-11.18,110.18-32.26,150.18c-0.36,0.01-0.71,0.02-1.07,0.02
		H221V84.24z M209,84.24v150.2h-16.15c-0.36,0-0.72-0.02-1.07-0.02c-21.09-40-30.09-126-32.26-150.18H209z M136.11,178.08
		L122.8,92.06c-0.34-2.22,0.25-4.47,1.6-6.04c0.7-0.81,1.88-1.78,3.58-1.78h3.35h16.13c1.89,21.99,9.94,102.23,29.81,147.63
		c-0.47-0.16-0.94-0.31-1.41-0.48c-0.48-0.27-1-0.48-1.56-0.61C154.96,222.93,139.99,203.15,136.11,178.08z M267.74,369.74
		c-9.02,7.68-29.6,12.72-52.74,12.72s-43.73-5.04-52.74-12.72l15.71-125.16c4.81,1.21,9.79,1.86,14.88,1.86h44.3
		c5.09,0,10.07-0.65,14.88-1.86L267.74,369.74z M307.2,92.06l-13.31,86.02c-3.88,25.07-18.85,44.85-38.18,52.69
		c-0.56,0.13-1.08,0.34-1.56,0.61c-0.47,0.17-0.94,0.33-1.41,0.48c19.87-45.4,27.92-125.63,29.81-147.63h16.13h3.35
		c1.7,0,2.88,0.97,3.58,1.78C306.95,87.59,307.55,89.84,307.2,92.06z"/>
</g>
</svg>
