<?xml version="1.0" encoding="utf-8"?>
<!-- Generator: Adobe Illustrator 24.1.2, SVG Export Plug-In . SVG Version: 6.00 Build 0)  -->
<svg version="1.1" id="Warstwa_3" xmlns="http://www.w3.org/2000/svg" xmlns:xlink="http://www.w3.org/1999/xlink" x="0px" y="0px"
	 viewBox="0 0 430 430" style="enable-background:new 0 0 430 430;" xml:space="preserve">
<style type="text/css">
	.st0{fill:#08a88a;}
	.st1{fill:#121331;}
	.st2{fill:none;stroke:#121331;stroke-width:12;stroke-linecap:round;stroke-linejoin:round;stroke-miterlimit:10;}
	.st3{fill:#08A385;}
</style>
<g>
	<path class="st1" d="M373.06,272.87c-0.66,0-1.33-0.11-1.99-0.34l-60.93-21.42c-3.13-1.1-4.77-4.52-3.67-7.65
		c1.1-3.13,4.52-4.77,7.65-3.67l60.93,21.42c3.13,1.1,4.77,4.52,3.67,7.65C377.85,271.32,375.54,272.87,373.06,272.87z"/>
	<path class="st0" d="M56.93,234.11c-2.92,0-5.47-2.13-5.92-5.1c-0.5-3.28,1.75-6.34,5.03-6.83l14.77-2.24
		c3.28-0.5,6.33,1.75,6.83,5.03c0.5,3.28-1.75,6.34-5.03,6.83l-14.77,2.24C57.53,234.09,57.23,234.11,56.93,234.11z"/>
	<path class="st0" d="M286.3,144.43c-1,0-2.01-0.25-2.95-0.78c-2.88-1.63-3.9-5.29-2.27-8.18l38.52-68.17
		c1.63-2.88,5.29-3.9,8.18-2.27c2.88,1.63,3.9,5.29,2.27,8.18l-38.52,68.17C290.42,143.34,288.39,144.43,286.3,144.43z"/>
	<path class="st1" d="M93.69,137.9c-1.54,0-3.07-0.59-4.24-1.76l-10.57-10.56c-2.34-2.34-2.34-6.14,0-8.49
		c2.34-2.34,6.14-2.34,8.49,0l10.57,10.56c2.34,2.34,2.34,6.14,0,8.49C96.76,137.32,95.22,137.9,93.69,137.9z"/>
	<path class="st1" d="M312.02,336.86L211.84,121.95c-1.4-3-4.97-4.3-7.97-2.9c-3,1.4-4.3,4.97-2.9,7.97l16.78,35.99
		c-12.93,8.04-21.02,22.28-21.02,37.79c0,24.52,19.95,44.47,44.47,44.47c4.78,0,9.42-0.75,13.86-2.21l44.61,95.7
		c-5.37,6.78-14.44,12.77-26.65,17.65c0.22-1.81,0.35-3.64,0.35-5.49c0-24.53-19.95-44.48-44.47-44.48
		c-24.53,0-44.48,19.95-44.48,44.48c0,6.42,1.4,12.73,4.03,18.5c-47.95-0.61-88.73-12.67-103.08-30.67l17.54-37.63
		c7.9,6.56,17.84,10.21,28.36,10.21c24.52,0,44.47-19.95,44.47-44.48c0-21.79-15.75-39.96-36.46-43.74l47.56-102.03
		c1.4-3,0.1-6.57-2.9-7.97c-3-1.4-6.57-0.1-7.97,2.9L73.01,336.86c-0.87,1.86-0.72,4.03,0.38,5.76
		c18.36,28.82,74.22,38.84,119.27,38.84c2.17,0,4.31-0.03,6.42-0.07c0.04,0,0.08,0.01,0.11,0.01c0.03,0,0.07-0.01,0.1-0.01
		c0.01,0,0.02,0,0.03,0c24.66-0.54,47.77-3.94,66.83-9.83c22.35-6.89,37.65-16.63,45.49-28.94
		C312.74,340.89,312.88,338.72,312.02,336.86z M241.19,233.28c-17.9,0-32.47-14.57-32.47-32.47c0-10.83,5.41-20.81,14.14-26.79
		l27.07,58.07C247.12,232.87,244.19,233.28,241.19,233.28z M163.73,266.87c0,17.91-14.57,32.48-32.47,32.48
		c-8.75,0-16.97-3.46-23.05-9.6l25.75-55.24C150.6,235.89,163.73,249.87,163.73,266.87z M259.79,360.93
		c-16.67,4.82-36.48,7.69-57.69,8.37c-3.68-5.38-5.69-11.8-5.69-18.37c0-17.91,14.57-32.48,32.48-32.48
		c17.9,0,32.47,14.57,32.47,32.48C261.36,354.38,260.83,357.73,259.79,360.93z"/>
	<g>
		<path class="st0" d="M201.22,129.19c-3.06,0-6.11-2.66-9.07-5.25c-2.34-2.05-4.77-4.16-7.02-4.77c-2.13-0.57-5.06,0.02-8.16,0.65
			c-4.49,0.91-9.14,1.86-11.83-0.83c-2.69-2.69-1.75-7.34-0.83-11.83c0.63-3.1,1.22-6.02,0.65-8.16c-0.6-2.25-2.72-4.68-4.77-7.02
			c-2.96-3.38-6.01-6.88-5.08-10.39c0.9-3.36,5.19-4.85,9.34-6.28c3.02-1.04,6.14-2.12,7.89-3.87s2.83-4.87,3.87-7.89
			c1.43-4.15,2.92-8.45,6.28-9.34c3.5-0.94,7,2.12,10.39,5.08c2.34,2.05,4.77,4.16,7.02,4.77c2.13,0.57,5.06-0.02,8.16-0.65
			c4.49-0.91,9.14-1.86,11.83,0.83c2.69,2.69,1.75,7.34,0.83,11.83c-0.63,3.1-1.22,6.02-0.65,8.16c0.6,2.25,2.72,4.68,4.77,7.02
			c2.96,3.38,6.01,6.88,5.08,10.39c-0.9,3.36-5.19,4.85-9.34,6.28c-3.02,1.04-6.14,2.12-7.89,3.87s-2.83,4.87-3.87,7.89
			c-1.44,4.15-2.92,8.45-6.28,9.34C202.09,129.13,201.65,129.19,201.22,129.19z M183.13,117.94c0.8,0,1.56,0.08,2.25,0.26
			c2.48,0.66,4.99,2.86,7.42,4.98c3.19,2.78,6.49,5.67,9.47,4.87c2.85-0.76,4.18-4.62,5.59-8.7c1.08-3.13,2.2-6.36,4.11-8.27
			s5.14-3.03,8.27-4.11c4.08-1.41,7.94-2.75,8.7-5.59c0.8-2.99-2.08-6.28-4.87-9.47c-2.12-2.43-4.32-4.94-4.98-7.42
			c-0.63-2.36-0.01-5.4,0.64-8.61c0.86-4.23,1.75-8.61-0.56-10.92c-2.31-2.31-6.69-1.42-10.92-0.56c-3.21,0.65-6.25,1.27-8.61,0.64
			c-2.48-0.66-4.99-2.86-7.42-4.98c-3.19-2.78-6.48-5.66-9.47-4.87c-2.85,0.76-4.18,4.62-5.59,8.7c-1.08,3.13-2.2,6.36-4.11,8.27
			s-5.14,3.03-8.27,4.11c-4.08,1.41-7.94,2.75-8.7,5.59c-0.8,2.99,2.08,6.28,4.87,9.47c2.12,2.43,4.32,4.94,4.98,7.42
			c0.63,2.36,0.01,5.4-0.64,8.61c-0.86,4.23-1.75,8.61,0.56,10.92c2.31,2.31,6.69,1.42,10.92,0.56
			C179.03,118.38,181.21,117.94,183.13,117.94z"/>
		<path class="st0" d="M201.15,134.7c-5.04,0-9.19-3.62-12.63-6.63c-1.51-1.32-3.8-3.32-4.82-3.59c-0.91-0.23-3.87,0.37-5.64,0.73
			c-5.08,1.03-12.04,2.45-16.82-2.33c-4.78-4.78-3.37-11.74-2.33-16.81c0.36-1.77,0.96-4.73,0.73-5.64
			c-0.27-1.02-2.27-3.31-3.59-4.82c-3.54-4.05-7.94-9.09-6.25-15.42c1.65-6.19,7.87-8.33,12.86-10.06c2.09-0.72,4.94-1.71,5.8-2.56
			c0.85-0.85,1.84-3.71,2.56-5.8c1.73-4.99,3.87-11.21,10.06-12.86c6.33-1.69,11.37,2.71,15.42,6.25c1.51,1.32,3.8,3.32,4.82,3.59
			c0.92,0.23,3.87-0.37,5.64-0.73c5.08-1.03,12.04-2.44,16.81,2.33c4.78,4.78,3.37,11.74,2.33,16.81c-0.36,1.77-0.96,4.73-0.73,5.64
			c0.27,1.02,2.27,3.31,3.59,4.82c3.54,4.05,7.94,9.09,6.25,15.42c-1.65,6.19-7.87,8.33-12.86,10.06c-2.09,0.72-4.94,1.71-5.8,2.56
			c-0.85,0.85-1.84,3.71-2.56,5.8c-1.73,4.99-3.87,11.21-10.06,12.86C202.99,134.59,202.05,134.7,201.15,134.7z M183.13,112.44
			c1.24,0,2.46,0.13,3.67,0.45c3.72,0.99,6.72,3.61,9.62,6.15c1.22,1.06,3.12,2.72,4.3,3.39c0.66-1.15,1.44-3.42,1.95-4.88
			c1.22-3.54,2.61-7.55,5.42-10.36c2.81-2.81,6.82-4.2,10.36-5.42c1.46-0.51,3.73-1.29,4.88-1.95c-0.66-1.18-2.32-3.08-3.39-4.3
			c-2.54-2.9-5.16-5.91-6.15-9.62c-0.96-3.61-0.19-7.43,0.56-11.13c0.35-1.73,0.91-4.5,0.81-5.81c-1.31-0.11-4.07,0.45-5.81,0.81
			c-3.7,0.75-7.52,1.53-11.13,0.56c-3.71-0.99-6.72-3.61-9.62-6.15c-1.22-1.06-3.12-2.72-4.3-3.39c-0.66,1.15-1.44,3.42-1.95,4.88
			c-1.22,3.54-2.61,7.56-5.42,10.36c-2.81,2.81-6.82,4.2-10.36,5.42c-1.46,0.51-3.73,1.29-4.88,1.95c0.66,1.18,2.32,3.08,3.38,4.3
			c2.54,2.9,5.16,5.91,6.15,9.62c0.96,3.61,0.19,7.43-0.56,11.13c-0.35,1.73-0.91,4.5-0.81,5.81c1.31,0.11,4.07-0.45,5.81-0.81
			C178.13,112.95,180.66,112.44,183.13,112.44z"/>
	</g>
</g>
</svg>
