<?xml version="1.0" encoding="utf-8"?>
<!-- Generator: Adobe Illustrator 24.1.2, SVG Export Plug-In . SVG Version: 6.00 Build 0)  -->
<svg version="1.1" id="Warstwa_3" xmlns="http://www.w3.org/2000/svg" xmlns:xlink="http://www.w3.org/1999/xlink" x="0px" y="0px"
	 viewBox="0 0 430 430" style="enable-background:new 0 0 430 430;" xml:space="preserve">
<style type="text/css">
	.st0{fill:#08a88a;}
	.st1{fill:#121331;}
	.st2{fill:none;stroke:#121331;stroke-width:12;stroke-linecap:round;stroke-linejoin:round;stroke-miterlimit:10;}
	.st3{fill:#08A385;}
</style>
<g>
	<path class="st0" d="M295.06,384.57c-2.33,0-4.54-1.36-5.52-3.64l-68.65-160c-1.31-3.04,0.1-6.57,3.15-7.88
		c3.05-1.31,6.57,0.1,7.88,3.15l68.65,160c1.31,3.05-0.1,6.57-3.15,7.88C296.66,384.41,295.85,384.57,295.06,384.57z"/>
	<path class="st0" d="M134.94,384.67c-0.79,0-1.59-0.16-2.36-0.49c-3.04-1.31-4.45-4.83-3.15-7.88l68.69-160.08
		c1.31-3.04,4.83-4.46,7.88-3.15c3.04,1.31,4.45,4.83,3.15,7.88l-68.69,160.08C139.48,383.3,137.27,384.67,134.94,384.67z"/>
	<path class="st1" d="M348.43,384.67H81.57c-3.31,0-6-2.69-6-6s2.69-6,6-6h266.87c3.31,0,6,2.69,6,6S351.75,384.67,348.43,384.67z"
		/>
	<g>
		<path class="st1" d="M219.38,319.36c-3.13,0.1-5.66,0.1-8.78,0c-3.29-0.12-6.09,2.49-6.2,5.8c-0.11,3.31,2.49,6.09,5.8,6.19
			c1.7,0.06,3.26,0.08,4.79,0.08s3.09-0.03,4.79-0.08c3.31-0.11,5.91-2.88,5.8-6.19S222.66,319.24,219.38,319.36z"/>
		<path class="st1" d="M166.12,74.01c15.49-6.44,31.93-9.7,48.87-9.7c17.42,0,34.29,3.45,50.15,10.24c0.77,0.33,1.57,0.49,2.36,0.49
			c2.33,0,4.54-1.36,5.52-3.64c1.31-3.05-0.11-6.57-3.15-7.88c-17.36-7.44-35.82-11.22-54.87-11.22c-18.53,0-36.52,3.57-53.47,10.62
			c-3.06,1.27-4.51,4.78-3.24,7.84C159.55,73.83,163.07,75.28,166.12,74.01z"/>
		<path class="st1" d="M190.97,317.18c-8.98-1.71-17.8-4.41-26.21-8.02c-23.91-10.25-43.9-27.33-57.79-49.41
			c-1.77-2.8-5.47-3.65-8.27-1.88c-2.8,1.77-3.65,5.47-1.88,8.27c15.2,24.15,37.06,42.84,63.22,54.05
			c9.2,3.95,18.86,6.91,28.69,8.78c0.38,0.07,0.76,0.11,1.13,0.11c2.82,0,5.34-2,5.89-4.88
			C196.37,320.94,194.23,317.8,190.97,317.18z"/>
		<path class="st1" d="M87.43,191.87c0-31.33,11.46-61.45,32.28-84.81c2.21-2.47,1.99-6.27-0.49-8.47c-2.47-2.2-6.26-1.99-8.47,0.49
			c-22.78,25.56-35.32,58.52-35.32,92.79c0,3.52,0.13,7.09,0.4,10.63c0.23,3.15,2.87,5.56,5.98,5.56c0.15,0,0.3-0.01,0.45-0.02
			c3.3-0.25,5.78-3.12,5.54-6.43C87.55,198.36,87.43,195.08,87.43,191.87z"/>
		<path class="st1" d="M320.34,100.34c-2.17-2.5-5.96-2.76-8.46-0.59c-2.5,2.18-2.76,5.96-0.59,8.46
			c20.16,23.18,31.27,52.88,31.27,83.65c0,3.22-0.12,6.49-0.36,9.73c-0.25,3.3,2.23,6.18,5.54,6.43c0.15,0.01,0.3,0.02,0.45,0.02
			c3.11,0,5.74-2.4,5.98-5.56c0.26-3.54,0.4-7.11,0.4-10.63C354.55,158.2,342.4,125.7,320.34,100.34z"/>
		<path class="st1" d="M321.24,220.08l-71.58-23.26c0.23-1.64,0.37-3.29,0.37-4.95c0-9.15-3.63-17.91-9.9-24.38l38.77-53.35
			c1.95-2.68,1.35-6.43-1.33-8.38c-2.68-1.95-6.43-1.35-8.38,1.33l-38.77,53.36c-4.76-2.35-10-3.59-15.42-3.59
			c-5.43,0-10.66,1.24-15.42,3.59l-38.21-52.57c-1.95-2.68-5.7-3.27-8.38-1.33c-2.68,1.95-3.27,5.7-1.33,8.38l38.21,52.58
			c-6.28,6.47-9.91,15.22-9.91,24.37c0,0.1,0,0.2,0,0.3c0.01,1.56,0.15,3.11,0.37,4.65l-71.57,23.25c-3.15,1.02-4.88,4.41-3.85,7.56
			c0.82,2.54,3.18,4.15,5.71,4.15c0.61,0,1.24-0.1,1.85-0.29l71.56-23.25c3.43,6.5,8.84,11.8,15.52,15.08
			c0.57,0.28,1.14,0.54,1.73,0.79c0.6,0.25,1.2,0.49,1.8,0.71c0.12,0.04,0.25,0.08,0.37,0.13c0.51,0.18,1.02,0.34,1.53,0.5
			c0.09,0.03,0.19,0.05,0.28,0.08c0.56,0.16,1.13,0.31,1.7,0.45c0.04,0.01,0.08,0.02,0.13,0.03c0.63,0.15,1.27,0.27,1.9,0.38v67.14
			c0,3.31,2.69,6,6,6s6-2.69,6-6v-67.14c0.64-0.11,1.28-0.24,1.92-0.39c0.05-0.01,0.09-0.02,0.14-0.03
			c0.57-0.14,1.14-0.28,1.71-0.45c0.1-0.03,0.19-0.05,0.29-0.08c0.52-0.15,1.03-0.32,1.54-0.5c0.12-0.04,0.25-0.08,0.37-0.13
			c0.61-0.22,1.22-0.46,1.82-0.71c7.43-3.19,13.46-8.81,17.18-15.85l71.57,23.26c0.62,0.2,1.24,0.3,1.86,0.3
			c2.53,0,4.88-1.61,5.71-4.15C326.11,224.49,324.39,221.1,321.24,220.08z M236.89,198.98c-2.05,6.32-6.73,11.45-12.84,14.06
			c-2.87,1.23-5.92,1.85-9.06,1.85c-3.13,0-6.16-0.62-9.01-1.83c-0.38-0.16-0.76-0.34-1.13-0.52c-0.12-0.06-0.24-0.13-0.36-0.19
			c-0.25-0.13-0.5-0.25-0.74-0.39c-0.2-0.11-0.39-0.23-0.58-0.34c-0.16-0.1-0.32-0.19-0.48-0.29c-0.27-0.17-0.54-0.35-0.8-0.54
			c-0.07-0.05-0.15-0.1-0.22-0.15c-4.01-2.84-7.03-6.91-8.57-11.66c0-0.01,0-0.02-0.01-0.02c-0.75-2.29-1.12-4.68-1.12-7.11
			c0-0.04,0-0.09,0-0.13c0.04-7.28,3.57-14.17,9.48-18.47c0,0,0.01-0.01,0.02-0.01c0,0,0.01-0.01,0.02-0.01c0,0,0,0,0,0
			c3.93-2.88,8.61-4.39,13.51-4.39c0.61,0,1.22,0.02,1.83,0.07c4.23,0.33,8.24,1.81,11.7,4.34c4.46,3.23,7.57,7.95,8.85,13.21
			c0.43,1.75,0.65,3.56,0.65,5.4C238.02,194.3,237.64,196.69,236.89,198.98z"/>
		<path class="st1" d="M328.1,256.94c-2.19,0-4.1,1.17-5.15,2.92c-13.91,22.02-33.85,39.05-57.68,49.28
			c-8.4,3.61-17.23,6.31-26.24,8.03c-3.25,0.62-5.39,3.76-4.77,7.02c0.55,2.88,3.06,4.88,5.89,4.88c0.37,0,0.75-0.03,1.13-0.11
			c9.87-1.88,19.54-4.83,28.74-8.79c26.11-11.21,47.95-29.89,63.17-54.02c0.6-0.96,0.92-2.07,0.92-3.2v-0.01
			C334.1,259.62,331.42,256.94,328.1,256.94z"/>
	</g>
	<path class="st0" d="M317.22,54c-5.14-5.51-12.41-8.67-19.95-8.67h-8.78c-7.54,0-14.81,3.16-19.95,8.67
		c-5.14,5.51-7.79,12.99-7.26,20.5l1.81,25.99c0.8,11.51,10.47,20.52,22,20.52h15.58c11.54,0,21.2-9.01,22-20.52l1.81-26
		C325.01,66.99,322.36,59.52,317.22,54z M277.31,62.19c2.92-3.13,6.89-4.86,11.17-4.86h8.78c4.28,0,8.25,1.73,11.17,4.86
		c2.92,3.13,4.37,7.21,4.07,11.49l-0.24,3.5h-38.78l-0.24-3.5C272.94,69.4,274.39,65.32,277.31,62.19z M300.67,109.02h-15.58
		c-5.26,0-9.67-4.11-10.03-9.36l-0.73-10.49h37.11l-0.73,10.49C310.33,104.92,305.92,109.02,300.67,109.02z"/>
	<path class="st0" d="M239.34,296.18c-5.14-5.51-12.41-8.67-19.95-8.67h-8.78c-7.54,0-14.81,3.16-19.95,8.67
		c-5.14,5.51-7.79,12.99-7.26,20.51l1.81,25.99c0.8,11.51,10.47,20.52,22,20.52h15.58c11.54,0,21.2-9.01,22-20.52l1.81-25.99
		C247.13,309.17,244.48,301.7,239.34,296.18z M199.43,304.37c2.92-3.13,6.89-4.86,11.17-4.86h8.78c4.28,0,8.25,1.73,11.17,4.86
		s4.37,7.21,4.07,11.49l-0.24,3.5h-38.78l-0.24-3.5C195.07,311.58,196.51,307.5,199.43,304.37z M222.79,351.21h-15.58
		c-5.26,0-9.67-4.11-10.03-9.36l-0.73-10.49h37.11l-0.73,10.49C232.46,347.1,228.05,351.21,222.79,351.21z"/>
	<g>
		<path class="st0" d="M369.28,204.71c-5.14-5.51-12.41-8.67-19.95-8.67h-8.78c-7.54,0-14.81,3.16-19.95,8.67
			c-5.14,5.51-7.79,12.99-7.26,20.51l1.81,25.99c0.8,11.51,10.47,20.52,22,20.52h15.58c11.54,0,21.2-9.01,22-20.52l1.81-25.99
			C377.06,217.7,374.42,210.23,369.28,204.71z M329.37,212.9c2.92-3.13,6.89-4.86,11.17-4.86h8.78c4.28,0,8.25,1.73,11.17,4.86
			c2.92,3.13,4.37,7.21,4.07,11.49l-0.24,3.5h-38.78l-0.24-3.5C325,220.11,326.45,216.03,329.37,212.9z M352.72,259.74h-15.58
			c-5.26,0-9.67-4.11-10.03-9.36l-0.73-10.49h37.11l-0.73,10.49C362.39,255.63,357.98,259.74,352.72,259.74z"/>
		<g>
			<path class="st0" d="M162.89,54c-5.14-5.51-12.41-8.67-19.95-8.67h-8.78c-7.54,0-14.81,3.16-19.95,8.67
				c-5.14,5.51-7.79,12.99-7.26,20.5l1.81,25.99c0.8,11.51,10.47,20.52,22,20.52h15.58c11.54,0,21.2-9.01,22-20.52l1.81-26
				C170.68,66.99,168.03,59.52,162.89,54z M156.37,99.67c-0.37,5.25-4.77,9.36-10.03,9.36h-15.58c-5.26,0-9.67-4.11-10.03-9.36
				L120,89.18h37.11L156.37,99.67z M158.18,73.67l-0.24,3.5h-38.78l-0.24-3.5c-0.3-4.27,1.15-8.35,4.07-11.49s6.89-4.86,11.17-4.86
				h8.78c4.28,0,8.25,1.73,11.17,4.86C157.04,65.32,158.48,69.4,158.18,73.67z"/>
			<path class="st0" d="M89.46,196.04h-8.78c-7.54,0-14.81,3.16-19.95,8.67c-5.14,5.51-7.79,12.99-7.26,20.51l1.81,25.99
				c0.8,11.51,10.47,20.52,22,20.52h15.58c11.54,0,21.2-9.01,22-20.52l1.81-25.99c0.52-7.52-2.12-14.99-7.26-20.51
				C104.26,199.2,96.99,196.04,89.46,196.04z M69.5,212.9c2.92-3.13,6.89-4.86,11.17-4.86h8.78c4.28,0,8.25,1.73,11.17,4.86
				c2.92,3.13,4.37,7.21,4.07,11.49l-0.24,3.5H65.67l-0.24-3.5C65.13,220.11,66.58,216.03,69.5,212.9z M92.85,259.74H77.28
				c-5.26,0-9.67-4.11-10.03-9.36l-0.73-10.49h37.11l-0.73,10.49C102.52,255.63,98.11,259.74,92.85,259.74z"/>
		</g>
	</g>
</g>
</svg>
