<?xml version="1.0" encoding="utf-8"?>
<!-- Generator: Adobe Illustrator 24.1.2, SVG Export Plug-In . SVG Version: 6.00 Build 0)  -->
<svg version="1.1" id="Warstwa_3" xmlns="http://www.w3.org/2000/svg" xmlns:xlink="http://www.w3.org/1999/xlink" x="0px" y="0px"
	 viewBox="0 0 430 430" style="enable-background:new 0 0 430 430;" xml:space="preserve">
<style type="text/css">
	.st0{fill:#08a88a;}
	.st1{fill:#121331;}
	.st2{fill:none;stroke:#121331;stroke-width:12;stroke-linecap:round;stroke-linejoin:round;stroke-miterlimit:10;}
	.st3{fill:#08A385;}
</style>
<g>
	<path class="st0" d="M292.01,85.73c-11.6,0-21-9.4-21-21s9.4-21,21-21h0.01c11.6,0,21,9.4,21,21S303.6,85.73,292.01,85.73z"/>
	<path class="st0" d="M55.47,248.03c-11.6,0-21-9.4-21-21s9.4-21,21-21h0.01c11.6,0,21,9.4,21,21S67.07,248.03,55.47,248.03z"/>
	<path class="st0" d="M314.15,372.51c-11.6,0-21-9.4-21-21s9.4-21,21-21h0.01c11.6,0,21,9.4,21,21S325.75,372.51,314.15,372.51z"/>
	<path class="st1" d="M298.05,136.58c-9.67,0-17.51-7.83-17.51-17.5s7.83-17.5,17.5-17.5h0.01c9.67,0,17.5,7.83,17.5,17.5
		S307.71,136.58,298.05,136.58z"/>
	<path class="st1" d="M292.68,178.79c-8.01,0-14.51-6.49-14.51-14.5s6.49-14.5,14.5-14.5h0.01c8.01,0,14.5,6.49,14.5,14.5
		S300.68,178.79,292.68,178.79z"/>
	<path class="st1" d="M343.34,142.2c-9.67,0-17.5-7.83-17.5-17.5s7.83-17.5,17.5-17.5h0.01c9.67,0,17.5,7.83,17.5,17.5
		S353,142.2,343.34,142.2z"/>
	<path class="st1" d="M99.76,213.67c-9.67,0-17.5-7.83-17.5-17.5s7.83-17.5,17.5-17.5h0.01c9.67,0,17.5,7.83,17.5,17.5
		S109.42,213.67,99.76,213.67z"/>
	<path class="st1" d="M82.55,171.39c-9.67,0-17.5-7.83-17.5-17.5s7.83-17.5,17.5-17.5h0.01c9.67,0,17.5,7.83,17.5,17.5
		S92.22,171.39,82.55,171.39z"/>
	<path class="st1" d="M265.5,346.87c-9.67,0-17.5-7.83-17.5-17.5s7.83-17.5,17.5-17.5h0.01c9.67,0,17.5,7.83,17.5,17.5
		S275.17,346.87,265.5,346.87z"/>
	<path class="st1" d="M238.32,382.77c-9.67,0-17.5-7.83-17.5-17.5s7.83-17.5,17.5-17.5h0.01c9.67,0,17.5,7.83,17.5,17.5
		S247.99,382.77,238.32,382.77z"/>
	<path class="st1" d="M337.97,184.83c-8.01,0-14.5-6.49-14.5-14.5s6.49-14.5,14.5-14.5h0.01c8.01,0,14.5,6.49,14.5,14.5
		S345.98,184.83,337.97,184.83z"/>
	<path class="st1" d="M374.54,198.92c-8.01,0-14.5-6.49-14.5-14.5s6.49-14.5,14.5-14.5h0.01c8.01,0,14.5,6.49,14.5,14.5
		S382.55,198.92,374.54,198.92z"/>
	<path class="st1" d="M141.36,192.55c-8.01,0-14.5-6.49-14.5-14.5s6.49-14.5,14.5-14.5h0.01c8.01,0,14.5,6.49,14.5,14.5
		S149.37,192.55,141.36,192.55z"/>
	<path class="st1" d="M124.92,150.41c-8.01,0-14.5-6.49-14.5-14.5s6.49-14.5,14.5-14.5h0.01c8.01,0,14.5,6.49,14.5,14.5
		S132.93,150.41,124.92,150.41z"/>
	<path class="st1" d="M117.88,112.03c-8.01,0-14.5-6.49-14.5-14.5s6.49-14.5,14.5-14.5h0.01c8.01,0,14.5,6.49,14.5,14.5
		S125.88,112.03,117.88,112.03z"/>
	<path class="st1" d="M229.28,316.02c-8.01,0-14.51-6.49-14.51-14.5s6.49-14.5,14.5-14.5h0.01c8.01,0,14.5,6.49,14.5,14.5
		S237.29,316.02,229.28,316.02z"/>
	<path class="st1" d="M201.08,351.87c-8.01,0-14.5-6.49-14.5-14.5s6.49-14.5,14.49-14.5h0.01c8.01,0,14.5,6.49,14.5,14.5
		S209.09,351.87,201.08,351.87z"/>
	<path class="st1" d="M170.55,376.72c-8.01,0-14.5-6.49-14.5-14.5s6.49-14.5,14.5-14.5h0.01c8.01,0,14.5,6.49,14.5,14.5
		S178.56,376.72,170.55,376.72z"/>
	<path class="st1" d="M145.68,345.39c-7.18,0-13-5.82-13-13s5.81-13,12.99-13h0.01c7.18,0,13,5.82,13,13
		S152.86,345.39,145.68,345.39z"/>
	<path class="st1" d="M324.21,220.24c-7.18,0-13-5.82-13-13s5.82-13,13-13h0.01c7.18,0,13,5.82,13,13S331.39,220.24,324.21,220.24z"
		/>
	<path class="st1" d="M360.79,234.33c-7.18,0-13-5.82-13-13s5.82-13,13-13h0.01c7.18,0,13,5.82,13,13S367.96,234.33,360.79,234.33z"
		/>
	<path class="st1" d="M180.62,184.68c-7.18,0-13-5.82-13-13s5.82-13,13-13h0.01c7.18,0,13,5.82,13,13S187.79,184.68,180.62,184.68z"
		/>
	<path class="st1" d="M162.5,141.73c-7.18,0-13-5.82-13-13s5.82-13,13-13h0.01c7.18,0,13,5.82,13,13S169.68,141.73,162.5,141.73z"/>
	<path class="st1" d="M156.46,103.82c-7.18,0-13-5.82-13-13s5.81-13,12.99-13h0.01c7.18,0,13,5.82,13,13
		S163.64,103.82,156.46,103.82z"/>
	<path class="st1" d="M306.77,245.71c-6.08,0-11-4.92-11-11s4.92-11,11-11h0.01c6.08,0,11,4.92,11,11S312.84,245.71,306.77,245.71z"
		/>
	<path class="st1" d="M343.33,260.18c-6.08,0-11-4.92-11-11s4.92-11,11-11h0.01c6.08,0,11,4.92,11,11S349.41,260.18,343.33,260.18z"
		/>
	<path class="st1" d="M213.5,184.18c-6.08,0-11-4.92-11-11s4.92-11,10.99-11h0.01c6.08,0,11,4.92,11,11S219.57,184.18,213.5,184.18z
		"/>
	<path class="st1" d="M223.56,147.96c-5.25,0-9.51-4.25-9.51-9.5s4.25-9.5,9.5-9.5h0.01c5.25,0,9.5,4.25,9.5,9.5
		S228.81,147.96,223.56,147.96z"/>
	<path class="st1" d="M217.53,109.71c-5.25,0-9.5-4.25-9.5-9.5s4.25-9.5,9.5-9.5h0.01c5.25,0,9.5,4.25,9.5,9.5
		S222.77,109.71,217.53,109.71z"/>
	<path class="st1" d="M286.64,264.27c-5.25,0-9.5-4.25-9.5-9.5s4.25-9.5,9.5-9.5h0.01c5.25,0,9.5,4.25,9.5,9.5
		S291.88,264.27,286.64,264.27z"/>
	<path class="st1" d="M322.29,278.47c-5.25,0-9.5-4.25-9.5-9.5s4.25-9.5,9.5-9.5h0.01c5.25,0,9.5,4.25,9.5,9.5
		S327.53,278.47,322.29,278.47z"/>
	<path class="st1" d="M123.58,284.51c-5.25,0-9.5-4.25-9.5-9.5s4.25-9.5,9.5-9.5h0.01c5.25,0,9.5,4.25,9.5,9.5
		S128.83,284.51,123.58,284.51z"/>
	<path class="st1" d="M153.78,260.69c-5.25,0-9.5-4.25-9.5-9.5s4.25-9.5,9.49-9.5h0.01c5.25,0,9.5,4.25,9.5,9.5
		S159.02,260.69,153.78,260.69z"/>
	<path class="st1" d="M241.34,257.67c-5.25,0-9.5-4.25-9.5-9.5s4.25-9.5,9.49-9.5h0.01c5.25,0,9.5,4.25,9.5,9.5
		S246.59,257.67,241.34,257.67z"/>
	<path class="st1" d="M182.29,223.98c-5.25,0-9.5-4.25-9.5-9.5s4.25-9.5,9.5-9.5h0.01c5.25,0,9.5,4.25,9.5,9.5
		S187.54,223.98,182.29,223.98z"/>
	<path class="st1" d="M240.33,190.57c-5.25,0-9.5-4.25-9.5-9.5s4.25-9.5,9.5-9.5h0.01c5.25,0,9.5,4.25,9.5,9.5
		S245.58,190.57,240.33,190.57z"/>
	<path class="st1" d="M238.32,120.07c-4.42,0-8-3.58-8-8s3.58-8,8-8h0.01c4.42,0,8,3.58,8,8S242.74,120.07,238.32,120.07z"/>
	<path class="st1" d="M244.7,158.35c-4.42,0-8-3.58-8-8s3.58-8,8-8h0.01c4.42,0,8,3.58,8,8S249.12,158.35,244.7,158.35z"/>
	<path class="st1" d="M265.16,274.96c-4.42,0-8-3.58-8-8s3.58-8,8-8h0.01c4.42,0,8,3.58,8,8S269.58,274.96,265.16,274.96z"/>
	<path class="st1" d="M302.41,288.63c-4.42,0-8-3.58-8-8s3.58-8,8-8h0.01c4.42,0,8,3.58,8,8S306.82,288.63,302.41,288.63z"/>
	<path class="st1" d="M153.1,235.03c-4.42,0-8-3.58-8-8s3.58-8,7.99-8h0.01c4.42,0,8,3.58,8,8S157.52,235.03,153.1,235.03z"/>
	<path class="st1" d="M122.91,259.19c-4.42,0-8-3.58-8-8s3.58-8,8-8h0.01c4.42,0,8,3.58,8,8S127.33,259.19,122.91,259.19z"/>
	<path class="st1" d="M253.12,132.71c-3.87,0-7-3.13-7-7s3.13-7,6.99-7h0.01c3.87,0,7,3.13,7,7S256.99,132.71,253.12,132.71z"/>
	<path class="st1" d="M282.61,294.09c-3.87,0-7-3.13-7-7s3.13-7,7-7h0.01c3.87,0,7,3.13,7,7S286.48,294.09,282.61,294.09z"/>
	<path class="st1" d="M127.61,238.4c-3.87,0-7-3.13-7-7s3.13-7,6.99-7h0.01c3.87,0,7,3.13,7,7S131.47,238.4,127.61,238.4z"/>
	<path class="st1" d="M196.38,141.88c-6.08,0-11-4.92-11-11s4.92-11,11-11h0.01c6.08,0,11,4.92,11,11S202.46,141.88,196.38,141.88z"
		/>
	<path class="st1" d="M190.35,103.6c-6.08,0-11-4.92-11-11s4.92-11,10.99-11h0.01c6.08,0,11,4.92,11,11S196.42,103.6,190.35,103.6z"
		/>
	<path class="st1" d="M160.82,289.37c-6.08,0-11.01-4.92-11.01-11s4.92-11,11-11h0.01c6.08,0,11,4.92,11,11
		S166.9,289.37,160.82,289.37z"/>
	<path class="st1" d="M188.99,253.8c-6.08,0-11-4.92-11-11s4.92-11,11-11h0.01c6.08,0,11,4.92,11,11S195.06,253.8,188.99,253.8z"/>
	<path class="st1" d="M261.17,240.05c-6.08,0-11-4.92-11-11s4.92-11,11-11h0.01c6.08,0,11,4.92,11,11S267.25,240.05,261.17,240.05z"
		/>
	<path class="st1" d="M279.26,214.05c-7.18,0-13-5.82-13-13s5.82-13,13-13h0.01c7.18,0,13,5.82,13,13S286.44,214.05,279.26,214.05z"
		/>
	<path class="st1" d="M175.58,320.22c-7.18,0-13.01-5.82-13.01-13s5.82-13,13-13h0.01c7.18,0,13,5.82,13,13
		S182.76,320.22,175.58,320.22z"/>
	<path class="st1" d="M203.43,284.99c-7.18,0-13-5.82-13-13s5.82-13,13-13h0.01c7.18,0,13,5.82,13,13S210.61,284.99,203.43,284.99z"
		/>
	<path class="st1" d="M130.23,313.19c-6.08,0-11-4.92-11-11s4.92-11,11-11h0.01c6.08,0,11,4.92,11,11S136.31,313.19,130.23,313.19z"
		/>
</g>
</svg>
