<?xml version="1.0" encoding="utf-8"?>
<!-- Generator: Adobe Illustrator 24.1.2, SVG Export Plug-In . SVG Version: 6.00 Build 0)  -->
<svg version="1.1" id="Warstwa_3" xmlns="http://www.w3.org/2000/svg" xmlns:xlink="http://www.w3.org/1999/xlink" x="0px" y="0px"
	 viewBox="0 0 430 430" style="enable-background:new 0 0 430 430;" xml:space="preserve">
<style type="text/css">
	.st0{fill:#08a88a;}
	.st1{fill:#121331;}
	.st2{fill:none;stroke:#121331;stroke-width:12;stroke-linecap:round;stroke-linejoin:round;stroke-miterlimit:10;}
	.st3{fill:#08A385;}
</style>
<g>
	<path class="st3" d="M270.81,233.35c-2.7,0-5.16-1.84-5.83-4.58c-0.78-3.22,1.19-6.46,4.41-7.25l56.94-13.85
		c3.22-0.79,6.46,1.19,7.25,4.41c0.78,3.22-1.19,6.46-4.41,7.25l-56.94,13.85C271.76,233.29,271.28,233.35,270.81,233.35z"/>
	<path class="st3" d="M274.73,202.52c-2.74,0-5.21-1.88-5.84-4.66c-0.74-3.23,1.28-6.45,4.51-7.19l53.02-12.14
		c3.23-0.74,6.45,1.28,7.19,4.51c0.74,3.23-1.28,6.45-4.51,7.19l-53.02,12.14C275.63,202.47,275.18,202.52,274.73,202.52z"/>
	<path class="st1" d="M328.75,380.97c-3.31,0-6-2.69-6-6V54.72c0-3.31,2.69-6,6-6s6,2.69,6,6v320.25
		C334.75,378.28,332.07,380.97,328.75,380.97z"/>
	<path class="st1" d="M307.81,372.8l-37.96-83.66c-3.69-22.31-0.94-31.98,2.85-45.3c2.53-8.91,5.69-19.99,7.5-37
		c2.6-24.45-2.98-44.61-16.59-59.91c-17.34-19.49-43.36-26.13-58.89-28.39l57.83-59.63c2.02-2.08,2.26-5.3,0.58-7.66
		c-1.68-2.36-4.81-3.18-7.44-1.94l-67.5,31.72c-21.5-7.71-40.64-7.5-56.92,0.64C104.58,95,95.83,124.74,95.48,126
		c-0.6,2.12,0.01,4.4,1.59,5.94c1.58,1.54,3.88,2.09,5.98,1.43c0.24-0.08,24.52-7.45,33.95,6.45c7.1,10.48,14.69,16.41,20.31,19.69
		c-4.93,6.74-7.86,15.03-7.89,23.99c-2.78,61.95,77.9,176.88,81.34,181.74c1.15,1.62,2.99,2.54,4.9,2.54c0.66,0,1.33-0.11,1.98-0.34
		c2.53-0.88,4.16-3.34,4.01-6.01l-1.78-30.81l8.48,16.95c5.02,10.04,12.71,18.49,22.22,24.43c9.51,5.95,20.47,9.16,31.71,9.28
		c0.02,0,0.04,0,0.06,0c2.03,0,3.92-1.02,5.03-2.72C308.49,376.84,308.66,374.67,307.81,372.8z M161.4,183.92
		c0-0.09,0.01-0.19,0.01-0.28c0-15.97,12.99-28.96,28.96-28.96c15.52,0,28.51,12.65,28.95,28.2c0,0.06,0,0.12,0.01,0.18l9.07,157.1
		C205.7,305.13,159.34,227.87,161.4,183.92z M276.94,361.83c-7.65-4.77-13.82-11.56-17.85-19.62l-20.97-41.89l-6.8-117.86
		c-0.67-21.94-19.02-39.77-40.94-39.77c-9.06,0-17.44,2.96-24.23,7.96c-3.89-1.76-11.65-6.4-19.22-17.56
		c-9.1-13.42-25.03-14.54-35.92-13.41c4.3-8.55,12.37-20.68,25.73-27.33c13.74-6.83,30.42-6.57,49.59,0.77
		c1.52,0.58,3.22,0.52,4.7-0.17l40.06-18.82l-43.71,45.07c-1.67,1.72-2.15,4.27-1.23,6.48c0.92,2.21,3.07,3.67,5.47,3.7
		c0.41,0,41.1,0.81,63.09,25.58c11.24,12.66,15.81,29.69,13.58,50.61c-1.71,15.99-4.58,26.09-7.11,34.99
		c-4.11,14.43-7.35,25.83-3.01,51.36c0.09,0.51,0.24,1,0.45,1.47l33.93,74.78C287.03,366.98,281.75,364.84,276.94,361.83z"/>
</g>
</svg>
