<?xml version="1.0" encoding="utf-8"?>
<!-- Generator: Adobe Illustrator 24.1.2, SVG Export Plug-In . SVG Version: 6.00 Build 0)  -->
<svg version="1.1" id="Warstwa_3" xmlns="http://www.w3.org/2000/svg" xmlns:xlink="http://www.w3.org/1999/xlink" x="0px" y="0px"
	 viewBox="0 0 430 430" style="enable-background:new 0 0 430 430;" xml:space="preserve">
<style type="text/css">
	.st0{fill:#08A385;}
	.st1{fill:#121331;}
	.st2{fill:none;stroke:#08A385;stroke-width:12;stroke-linecap:round;stroke-linejoin:round;stroke-miterlimit:10;}
	.st3{fill:none;stroke:#121331;stroke-width:12;stroke-linecap:round;stroke-linejoin:round;stroke-miterlimit:10;}
</style>
<g>
	<path class="st0" d="M194.75,160.47c-2.5,0-4.83-1.57-5.68-4.06c-1.07-3.14,0.6-6.55,3.74-7.62c17.45-5.96,35.41-17.97,52.78-29.58
		c24.63-16.47,47.89-32.02,70.58-32.02c0,0,0,0,0,0c16.97,0,33.29,16.68,33.98,17.39c2.3,2.38,2.24,6.18-0.14,8.48
		c-2.38,2.3-6.18,2.24-8.48-0.14c-3.71-3.81-15.51-13.73-25.35-13.73c0,0,0,0,0,0c-19.04,0-40.84,14.57-63.91,30
		c-18.01,12.04-36.63,24.49-55.57,30.96C196.05,160.37,195.39,160.47,194.75,160.47z"/>
	<g>
		<g>
			<path class="st0" d="M47.74,264.59c-2.03,0-4.03-0.19-6-0.57c-13.73-2.66-20.59-13.8-20.88-14.28c-1.17-1.93-1.38-4.36-0.18-6.28
				c1.17-1.88,3.06-2.98,5.26-2.83c1.63-0.23,22.23-4.42,29.93-65.21c2.11-16.64,15.99-28.89,32.28-28.46
				c13.22,0.34,24.14,8.01,28.5,20.04c1.13,3.12-0.48,6.56-3.6,7.69c-3.12,1.13-6.56-0.48-7.69-3.6
				c-2.68-7.39-9.23-11.92-17.53-12.13c-9.93-0.26-18.76,7.64-20.07,17.97c-6.13,48.37-20.75,65.87-31.04,72.18
				c1.98,1.37,4.47,2.6,7.44,3.16c7.1,1.32,15.27-1.44,24.26-8.2c11.48-8.62,15.41-19.79,18.89-29.65
				c2.72-7.72,5.29-15.01,11.3-19.05c2.75-1.85,6.48-1.12,8.33,1.63c1.85,2.75,1.12,6.48-1.63,8.33c-2.71,1.82-4.55,7.04-6.68,13.08
				c-3.64,10.32-8.61,24.45-23,35.26C65.96,260.93,56.6,264.59,47.74,264.59z M26.05,240.64C26.05,240.64,26.05,240.64,26.05,240.64
				L26.05,240.64z"/>
		</g>
		<path class="st1" d="M402.16,141.84l-28.48-22.99V92.5c0-1.69-0.71-3.3-1.96-4.44c-1.25-1.14-2.92-1.69-4.61-1.53
			c-8.51,0.81-16.24,5.86-22.96,15.01c-14.73,20.03-93.69,63.39-184.23,42.38c-0.15-0.03-0.29-0.06-0.44-0.09
			c-1.08-0.17-26.59-3.88-45.1,12.26c-12.31,10.73-18.38,27.36-18.04,49.43c0,8.49,2.1,14.51,4.32,20.88
			c2.65,7.6,5.39,15.46,5.39,29.84v80.26c0,3.22,2.55,5.87,5.77,6l25.53,1c0.08,0,0.16,0,0.24,0c1.52,0,2.98-0.58,4.09-1.61
			c1.17-1.09,1.86-2.61,1.9-4.21l1.94-66.57c4.26-5.39,16.8-22.68,20.23-43.6c11.57,6.61,34.02,16.43,65.2,16.43
			c5,0,10.24-0.26,15.68-0.82v93.38c0,3.31,2.69,6,6,6h26.53c3.17,0,5.8-2.47,5.99-5.64l6.1-100.85
			c18.24-10.8,19.72-33.65,19.63-41.95l38.03-35.29l29.12,17.54c9.33,5.62,21.63,3.1,28-5.72
			C412.57,161.51,410.88,148.88,402.16,141.84z M118.04,330.73v-13.45h14.12l-0.41,13.99L118.04,330.73z M258.62,330.5v-14.23h15.74
			l-0.86,14.23H258.62z M396.28,163.58c-2.75,3.81-8.05,4.89-12.08,2.47l-32.99-19.87c-2.29-1.38-5.22-1.08-7.18,0.74l-43.36,40.24
			c-1.36,1.26-2.06,3.08-1.9,4.92c0.02,0.26,2.1,26.47-15.85,34.78c-0.52,0.24-0.98,0.55-1.39,0.9c-0.02,0.02-0.05,0.04-0.07,0.06
			c-0.1,0.09-0.19,0.18-0.29,0.28c-0.04,0.04-0.09,0.09-0.13,0.13c-0.07,0.08-0.14,0.16-0.2,0.24c-0.06,0.07-0.12,0.14-0.18,0.22
			c-0.04,0.06-0.08,0.12-0.13,0.18c-0.07,0.1-0.14,0.2-0.21,0.31c-0.02,0.04-0.04,0.08-0.07,0.12c-0.07,0.13-0.15,0.26-0.21,0.39
			c-0.01,0.02-0.02,0.05-0.03,0.07c-0.07,0.15-0.14,0.31-0.2,0.46c-0.01,0.02-0.01,0.04-0.02,0.06c-0.06,0.16-0.11,0.32-0.15,0.49
			c-0.02,0.07-0.03,0.13-0.04,0.2c-0.03,0.12-0.06,0.24-0.08,0.36c-0.03,0.2-0.05,0.4-0.07,0.6l-4.37,72.33h-16.47v-87.33
			c0-3.31-2.69-6-6-6c-3.31,0-6,2.69-6,6v14.11c-50.94,5.63-81.94-18.47-82.24-18.71c-1.8-1.45-4.27-1.73-6.35-0.74
			c-2.08,1-3.41,3.1-3.41,5.41c0,24.9-19.4,47.74-19.59,47.96c-0.9,1.04-1.42,2.37-1.46,3.75l-1.07,36.56h-14.47v-49.03
			c0-16.42-3.36-26.05-6.06-33.79c-2.04-5.86-3.66-10.49-3.65-16.97c0-0.03,0-0.07,0-0.1c-0.29-18.34,4.37-31.86,13.86-40.18
			c13.56-11.88,33.24-9.78,35.28-9.53c51.59,11.9,96.96,3.33,125.96-5.97c36.33-11.65,61.52-29.02,70.38-41.06
			c2.56-3.48,5.19-6.08,7.87-7.79v20.85c0,1.81,0.82,3.53,2.23,4.67l30.71,24.79C398.38,154.21,399.11,159.66,396.28,163.58z"/>
	</g>
</g>
</svg>
