<?xml version="1.0" encoding="utf-8"?>
<!-- Generator: Adobe Illustrator 24.1.2, SVG Export Plug-In . SVG Version: 6.00 Build 0)  -->
<svg version="1.1" id="Warstwa_3" xmlns="http://www.w3.org/2000/svg" xmlns:xlink="http://www.w3.org/1999/xlink" x="0px" y="0px"
	 viewBox="0 0 430 430" style="enable-background:new 0 0 430 430;" xml:space="preserve">
<style type="text/css">
	.st0{fill:#08A385;}
	.st1{fill:#121331;}
	.st2{fill:none;stroke:#08A385;stroke-width:12;stroke-linecap:round;stroke-linejoin:round;stroke-miterlimit:10;}
	.st3{fill:none;stroke:#121331;stroke-width:12;stroke-linecap:round;stroke-linejoin:round;stroke-miterlimit:10;}
</style>
<g>
	<path class="st0" d="M236.35,372.14c-0.06,0-0.12,0-0.18,0c-3.31-0.1-5.92-2.86-5.83-6.17l1.45-50.58c0-0.09,0.01-0.19,0.01-0.28
		c1.26-16.71-3.4-34.13-13.13-49.05l-29.51-45.25c-7.94-12.34-19.92-21.73-33.76-26.48l-86.42-29.64c-5.85-2-10.57-6.17-13.28-11.72
		c-2.72-5.55-3.1-11.84-1.09-17.69c3.21-9.35,12-15.64,21.88-15.64c1.37,0,2.13,0,40.03,12.66c4.63,1.55,7.46-1.51,8.22-2.49
		s3.02-4.47,0.38-8.58l-13.55-21.07c-2.87-4.46-4.39-9.63-4.39-14.94c0-9.47,4.75-18.18,12.7-23.29c12.82-8.25,29.98-4.53,38.24,8.3
		l11.1,17.27c1.54,2.39,3.95,2.13,4.66,2c0.7-0.13,3.05-0.79,3.6-3.57l1.16-5.86c2.48-12.52,14.69-20.68,27.21-18.2
		c10.8,2.15,18.64,11.69,18.64,22.69c0,0.84,0,1.3-7.39,39.19c-3.69,18.9,0.02,38.23,10.44,54.43l12.41,19.29
		c2.47,3.85,6.65,5.73,11.17,5.04c4.52-0.69,7.94-3.73,9.16-8.14l26.45-96.13c1.64-5.96,5.5-10.93,10.88-13.99
		c5.37-3.05,11.62-3.83,17.58-2.2c10.02,2.75,17.02,11.93,17.02,22.32c0,2.07-0.28,4.14-0.84,6.15l-23.06,83.82
		c-0.96,3.49,1.45,5.43,2.21,5.94c0.76,0.51,3.47,2,6.33-0.21l22.47-17.37c4.89-3.78,10.96-5.43,17.09-4.64
		c6.13,0.79,11.59,3.91,15.37,8.8c3.17,4.1,4.84,8.99,4.84,14.15c0,7.22-3.28,13.9-9,18.33l-41.95,32.41
		c-19.99,15.45-31.76,39.48-31.48,64.28l0.63,50.06c0.04,3.31-2.61,6.03-5.92,6.08c-3.34,0.08-6.03-2.61-6.08-5.92l-0.63-50.06
		c-0.33-28.55,13.19-56.19,36.14-73.92l41.94-32.41c2.76-2.13,4.34-5.35,4.34-8.83c0-2.48-0.81-4.83-2.34-6.81
		c-1.82-2.35-4.45-3.86-7.4-4.24c-2.95-0.38-5.88,0.42-8.23,2.24l-22.47,17.37c-6.03,4.66-14.02,4.93-20.35,0.69
		c-6.33-4.25-9.12-11.74-7.09-19.09l23.06-83.82c0.27-0.97,0.4-1.97,0.4-2.96c0-5-3.37-9.42-8.2-10.74
		c-2.87-0.79-5.88-0.41-8.47,1.06c-2.59,1.47-4.45,3.86-5.24,6.74l-26.45,96.13c-2.47,8.97-9.72,15.42-18.92,16.82
		c-9.2,1.41-18.04-2.58-23.08-10.41l-12.41-19.29c-12.1-18.81-16.41-41.26-12.12-63.22c5.66-28.99,6.91-35.78,7.17-37.28
		c-0.18-5.13-3.9-9.52-8.97-10.53c-6.04-1.2-11.91,2.73-13.11,8.76l-1.16,5.86c-1.32,6.65-6.47,11.76-13.13,13.03
		c-6.66,1.27-13.33-1.6-16.99-7.3l-11.1-17.26c-4.68-7.26-14.4-9.37-21.66-4.7c-4.5,2.89-7.19,7.83-7.19,13.19
		c0,3,0.86,5.93,2.48,8.45l13.55,21.07c4.52,7.03,4.13,15.84-1,22.43c-5.13,6.6-13.57,9.15-21.5,6.5
		c-27.72-9.26-34.97-11.51-36.83-12.03c-4.51,0.24-8.45,3.2-9.93,7.52c-0.97,2.82-0.78,5.84,0.52,8.52s3.58,4.68,6.4,5.64
		l86.42,29.64c16.38,5.62,30.57,16.74,39.93,31.3l29.49,45.22c11.13,17.07,16.48,37.08,15.05,56.37l-1.45,50.45
		C242.25,369.56,239.58,372.14,236.35,372.14z M212.51,84.45c0,0.04,0,0.07,0,0.09C212.51,84.51,212.51,84.48,212.51,84.45z"/>
	<path class="st1" d="M357.6,372.47H90.74c-3.31,0-6-2.69-6-6s2.69-6,6-6H357.6c3.31,0,6,2.69,6,6S360.92,372.47,357.6,372.47z"/>
	<path class="st1" d="M250.17,270.73c-1.58,0-3.13-0.64-4.24-1.76c-1.12-1.12-1.76-2.66-1.76-4.24s0.64-3.13,1.76-4.24
		c1.39-1.4,3.46-2.04,5.41-1.64c0.39,0.07,0.76,0.19,1.12,0.34c0.37,0.15,0.71,0.33,1.04,0.55c0.33,0.22,0.64,0.47,0.91,0.75
		c1.12,1.11,1.76,2.66,1.76,4.24s-0.64,3.12-1.76,4.24c-0.27,0.28-0.58,0.53-0.91,0.75c-0.33,0.21-0.67,0.4-1.04,0.55
		c-0.36,0.15-0.73,0.26-1.12,0.34C250.96,270.69,250.56,270.73,250.17,270.73z"/>
	<path class="st1" d="M267.54,299.83c-0.39,0-0.78-0.04-1.17-0.12c-0.38-0.08-0.76-0.19-1.12-0.34c-0.36-0.15-0.71-0.34-1.04-0.55
		c-0.33-0.22-0.63-0.47-0.91-0.75c-1.12-1.12-1.76-2.66-1.76-4.24c0-0.39,0.04-0.79,0.12-1.17c0.08-0.39,0.19-0.76,0.34-1.13
		c0.15-0.36,0.34-0.71,0.55-1.03c0.22-0.33,0.47-0.64,0.75-0.92c0.28-0.27,0.58-0.52,0.91-0.74s0.68-0.4,1.04-0.55
		c0.36-0.15,0.74-0.27,1.12-0.34c1.95-0.4,4.02,0.24,5.41,1.63c0.28,0.28,0.53,0.59,0.75,0.92c0.22,0.32,0.4,0.67,0.55,1.03
		c0.15,0.37,0.27,0.74,0.34,1.13c0.08,0.38,0.12,0.78,0.12,1.17c0,1.58-0.64,3.12-1.76,4.24
		C270.67,299.19,269.12,299.83,267.54,299.83z"/>
	<path class="st1" d="M263.67,331.76c-0.39,0-0.78-0.04-1.17-0.12c-0.38-0.07-0.76-0.19-1.12-0.34c-0.37-0.15-0.72-0.33-1.04-0.55
		c-0.33-0.22-0.64-0.47-0.91-0.75c-1.12-1.11-1.76-2.66-1.76-4.24s0.64-3.12,1.76-4.24c0.27-0.28,0.58-0.53,0.91-0.75
		c0.32-0.21,0.67-0.4,1.04-0.55c0.36-0.15,0.74-0.26,1.12-0.34c0.77-0.16,1.57-0.16,2.34,0c0.39,0.08,0.76,0.19,1.12,0.34
		c0.37,0.15,0.72,0.34,1.04,0.55c0.33,0.22,0.64,0.47,0.91,0.75c1.12,1.12,1.76,2.66,1.76,4.24s-0.64,3.13-1.76,4.24
		c-0.27,0.28-0.58,0.53-0.91,0.75c-0.32,0.22-0.67,0.4-1.04,0.55c-0.36,0.15-0.73,0.27-1.12,0.34
		C264.46,331.72,264.06,331.76,263.67,331.76z"/>
	<path class="st1" d="M141.11,100.61c-0.39,0-0.79-0.04-1.17-0.12s-0.76-0.19-1.12-0.34c-0.37-0.15-0.72-0.34-1.04-0.55
		c-0.33-0.22-0.64-0.47-0.91-0.75c-1.12-1.12-1.76-2.66-1.76-4.24c0-0.39,0.04-0.79,0.12-1.17c0.07-0.39,0.19-0.76,0.34-1.13
		c0.15-0.36,0.34-0.71,0.55-1.03c0.22-0.33,0.47-0.64,0.75-0.91c0.27-0.28,0.58-0.53,0.91-0.75c0.32-0.22,0.67-0.4,1.04-0.55
		c0.36-0.15,0.74-0.27,1.12-0.34c1.95-0.4,4.02,0.24,5.41,1.64c0.28,0.27,0.53,0.58,0.75,0.91c0.21,0.32,0.4,0.67,0.55,1.03
		c0.15,0.37,0.27,0.74,0.34,1.13c0.08,0.38,0.12,0.78,0.12,1.17s-0.04,0.78-0.12,1.17c-0.07,0.38-0.19,0.76-0.34,1.12
		c-0.15,0.37-0.34,0.71-0.55,1.04c-0.22,0.33-0.47,0.63-0.75,0.91C144.24,99.97,142.69,100.61,141.11,100.61z"/>
	<path class="st1" d="M157.67,125.95c-0.39,0-0.79-0.04-1.17-0.11c-0.39-0.08-0.76-0.2-1.13-0.35c-0.36-0.15-0.71-0.33-1.03-0.55
		c-0.33-0.22-0.64-0.47-0.91-0.74c-1.12-1.12-1.76-2.67-1.76-4.25c0-0.39,0.04-0.78,0.12-1.17c0.07-0.38,0.19-0.76,0.34-1.12
		c0.15-0.36,0.34-0.71,0.55-1.04c0.22-0.33,0.47-0.63,0.75-0.91c0.27-0.28,0.58-0.53,0.91-0.75c0.32-0.21,0.67-0.4,1.03-0.55
		c0.37-0.15,0.74-0.26,1.13-0.34c0.77-0.15,1.57-0.15,2.34,0c0.39,0.08,0.76,0.19,1.12,0.34c0.37,0.15,0.72,0.34,1.04,0.55
		c0.33,0.22,0.64,0.47,0.91,0.75c0.28,0.28,0.53,0.58,0.75,0.91c0.21,0.33,0.4,0.68,0.55,1.04c0.15,0.36,0.27,0.74,0.34,1.12
		c0.08,0.39,0.12,0.78,0.12,1.17c0,1.58-0.64,3.13-1.76,4.25c-0.27,0.27-0.58,0.52-0.91,0.74c-0.32,0.22-0.67,0.4-1.04,0.55
		c-0.36,0.15-0.73,0.27-1.12,0.35C158.46,125.91,158.06,125.95,157.67,125.95z"/>
</g>
</svg>
