<?xml version="1.0" encoding="utf-8"?>
<!-- Generator: Adobe Illustrator 24.1.2, SVG Export Plug-In . SVG Version: 6.00 Build 0)  -->
<svg version="1.1" id="Warstwa_3" xmlns="http://www.w3.org/2000/svg" xmlns:xlink="http://www.w3.org/1999/xlink" x="0px" y="0px"
	 viewBox="0 0 430 430" style="enable-background:new 0 0 430 430;" xml:space="preserve">
<style type="text/css">
	.st0{fill:#08A385;}
	.st1{fill:#121331;}
	.st2{fill:none;stroke:#08A385;stroke-width:12;stroke-linecap:round;stroke-linejoin:round;stroke-miterlimit:10;}
	.st3{fill:none;stroke:#121331;stroke-width:12;stroke-linecap:round;stroke-linejoin:round;stroke-miterlimit:10;}
</style>
<g>
	<path class="st1" d="M120.47,259.2c-3.19,0-5.85-2.51-5.99-5.73c-0.02-0.36-1.57-36.02-0.1-73.54
		c3.07-78.2,16.22-88.38,20.54-91.72c4.2-3.25,9.09-4.15,14.15-2.6c33.46,10.28,70.83,33.33,102.53,63.24
		c33.82,31.91,56.47,67.1,63.78,99.08c0.74,3.23-1.28,6.45-4.51,7.19c-3.22,0.74-6.45-1.28-7.19-4.51
		c-14.76-64.6-95.67-134.33-158.13-153.53c-1.29-0.4-2.18-0.23-3.28,0.62c-3.92,3.03-13.32,17.16-15.89,82.63
		c-1.46,37.02,0.07,72.26,0.09,72.61c0.15,3.31-2.42,6.11-5.73,6.26C120.65,259.2,120.56,259.2,120.47,259.2z"/>
	<path class="st0" d="M406.23,333.03c-1.24-3.07-4.74-4.55-7.81-3.31c-3.55,1.44-7.31,2.17-11.18,2.17
		c-16.43,0-29.79-13.36-29.79-29.79c0-3.31-2.69-6-6-6s-6,2.69-6,6c0,16.43-13.36,29.79-29.79,29.79s-29.79-13.36-29.79-29.79
		c0-3.31-2.69-6-6-6s-6,2.69-6,6c0,16.43-13.36,29.79-29.79,29.79c-16.43,0-29.79-13.36-29.79-29.79c0-3.31-2.69-6-6-6s-6,2.69-6,6
		c0,16.43-13.36,29.79-29.79,29.79s-29.79-13.36-29.79-29.79c0-3.31-2.69-6-6-6s-6,2.69-6,6c0,16.43-13.36,29.79-29.79,29.79
		c-0.94,0-1.87-0.04-2.8-0.13c-0.03,0-0.06,0-0.09-0.01c-0.31-0.03-0.62-0.07-0.93-0.11c-0.19-0.02-0.38-0.04-0.57-0.07
		c-0.22-0.03-0.43-0.07-0.65-0.11c-0.28-0.05-0.56-0.09-0.84-0.15c-0.15-0.03-0.3-0.07-0.45-0.1c-0.34-0.07-0.68-0.15-1.01-0.23
		c-0.1-0.03-0.2-0.06-0.3-0.08c-0.38-0.1-0.76-0.21-1.13-0.32c-0.06-0.02-0.13-0.04-0.19-0.06c-0.41-0.13-0.82-0.27-1.22-0.41
		c-0.03-0.01-0.06-0.02-0.08-0.03c-11.37-4.2-19.5-15.15-19.5-27.96c0-3.31-2.69-6-6-6s-6,2.69-6,6c0,16.43-13.36,29.79-29.79,29.79
		c-3.31,0-6,2.69-6,6s2.69,6,6,6c15.16,0,28.47-8.12,35.79-20.24c4.6,7.6,11.55,13.63,19.83,17.07c0.09,0.04,0.18,0.09,0.27,0.13
		c0.35,0.14,0.71,0.27,1.07,0.4c0.13,0.05,0.26,0.1,0.39,0.15c0.48,0.17,0.96,0.33,1.45,0.49c0.17,0.06,0.35,0.11,0.52,0.17
		c0.45,0.14,0.91,0.27,1.37,0.39c0.21,0.06,0.42,0.12,0.63,0.17c0.42,0.11,0.85,0.2,1.27,0.29c0.25,0.06,0.5,0.11,0.76,0.17
		c0.38,0.07,0.75,0.14,1.13,0.2c0.31,0.05,0.62,0.11,0.93,0.16c0.3,0.04,0.6,0.08,0.9,0.11c0.4,0.05,0.79,0.1,1.19,0.14
		c0.15,0.01,0.3,0.02,0.45,0.03c1.2,0.1,2.41,0.17,3.64,0.17c5.42,0,10.69-1.02,15.68-3.04c0.15-0.06,0.3-0.13,0.44-0.21
		c8.21-3.45,15.09-9.45,19.66-17c7.33,12.12,20.63,20.24,35.79,20.24c15.16,0,28.47-8.12,35.79-20.24
		c7.32,12.12,20.63,20.24,35.79,20.24c15.16,0,28.47-8.12,35.79-20.24c7.33,12.12,20.63,20.24,35.79,20.24
		c15.16,0,28.47-8.12,35.79-20.24c7.32,12.12,20.63,20.24,35.79,20.24c5.42,0,10.69-1.02,15.68-3.04
		C405.99,339.6,407.47,336.1,406.23,333.03z"/>
	<g>
		<path class="st0" d="M393.96,219.66c-3.31,0-6,2.69-6,6c0,16.43-13.36,29.79-29.79,29.79c-16.43,0-29.79-13.36-29.79-29.79
			c0-3.31-2.69-6-6-6s-6,2.69-6,6c0,16.43-13.36,29.79-29.79,29.79s-29.79-13.36-29.79-29.79c0-3.31-2.69-6-6-6s-6,2.69-6,6
			c0,16.43-13.36,29.79-29.79,29.79c-16.43,0-29.79-13.36-29.79-29.79c0-3.31-2.69-6-6-6s-6,2.69-6,6c0,0.02,0,0.04,0,0.06
			c0,0.01,0,0.02,0,0.03c0,16.43-13.36,29.79-29.79,29.79s-29.79-13.36-29.79-29.79c0-3.31-2.69-6-6-6c-1.24,0-2.4,0.38-3.36,1.03
			c-1.6,1.08-2.66,2.91-2.66,4.98c0,16.43-13.36,29.79-29.79,29.79c-16.43,0-29.79-13.36-29.79-29.79c0-3.31-2.69-6-6-6s-6,2.69-6,6
			c0,23.04,18.75,41.79,41.79,41.79c15.17,0,28.48-8.13,35.8-20.25c7.32,12.12,20.63,20.25,35.8,20.25
			c15.18,0,28.5-8.14,35.82-20.28c7.33,12.1,20.62,20.2,35.77,20.2c15.16,0,28.47-8.12,35.79-20.24
			c7.33,12.12,20.63,20.24,35.79,20.24c15.16,0,28.47-8.12,35.79-20.24c7.32,12.12,20.63,20.24,35.79,20.24
			c23.04,0,41.79-18.75,41.79-41.79C399.96,222.35,397.28,219.66,393.96,219.66z"/>
	</g>
</g>
</svg>
