<?xml version="1.0" encoding="utf-8"?>
<!-- Generator: Adobe Illustrator 24.1.2, SVG Export Plug-In . SVG Version: 6.00 Build 0)  -->
<svg version="1.1" id="Warstwa_3" xmlns="http://www.w3.org/2000/svg" xmlns:xlink="http://www.w3.org/1999/xlink" x="0px" y="0px"
	 viewBox="0 0 430 430" style="enable-background:new 0 0 430 430;" xml:space="preserve">
<style type="text/css">
	.st0{fill:#08A385;}
	.st1{fill:#121331;}
	.st2{fill:none;stroke:#08A385;stroke-width:12;stroke-linecap:round;stroke-linejoin:round;stroke-miterlimit:10;}
	.st3{fill:none;stroke:#121331;stroke-width:12;stroke-linecap:round;stroke-linejoin:round;stroke-miterlimit:10;}
</style>
<g>
	<path class="st0" d="M324.42,392.95c-13.9,0-25.2-10.87-25.73-24.74c-0.01-0.36-0.02-0.68-0.02-1.01v-44.32
		c0-1.14-0.63-2.18-1.64-2.71c-0.9-0.48-1.97-0.47-2.85-0.01c-0.8,0.42-1.64,1.35-1.64,2.71v18.26c0,14.2-11.55,25.75-25.75,25.75
		s-25.75-11.55-25.75-25.75v-76.23c0-3.31,2.69-6,6-6s6,2.69,6,6v76.23c0,7.58,6.17,13.75,13.75,13.75s13.75-6.17,13.75-13.75
		v-18.26c0-5.63,3.1-10.74,8.08-13.35c4.29-2.25,9.72-2.24,13.98,0.01c4.96,2.58,8.07,7.7,8.07,13.34v44.32
		c0,0.17,0.01,0.35,0.01,0.52c0.28,7.43,6.31,13.23,13.74,13.23s13.45-5.8,13.73-13.2c0.01-0.19,0.02-0.37,0.02-0.55V207.58
		c0-3.31,2.69-6,6-6s6,2.69,6,6V367.2c0,0.34-0.01,0.68-0.02,1.02C349.62,382.09,338.32,392.95,324.42,392.95z"/>
	<path class="st0" d="M248.14,161.88h-0.02c-3.31,0-6-2.69-6-6s2.69-6,6-6s6.01,2.69,6.01,6S251.45,161.88,248.14,161.88z"/>
	<path class="st1" d="M231.58,244.14h-33.13c-2.14,0-4.12-1.14-5.2-3l-16.56-28.69c-1.07-1.86-1.07-4.14,0-6l16.56-28.69
		c1.07-1.86,3.05-3,5.2-3h33.13c2.14,0,4.12,1.14,5.2,3l16.56,28.69c1.07,1.86,1.07,4.14,0,6l-16.56,28.69
		C235.7,242.99,233.72,244.14,231.58,244.14z M201.92,232.14h26.2l13.1-22.69l-13.1-22.69h-26.2l-13.1,22.69L201.92,232.14z"/>
	<path class="st1" d="M135.49,188.68h-33.13c-2.14,0-4.12-1.14-5.2-3l-16.56-28.69c-1.07-1.86-1.07-4.14,0-6l16.56-28.69
		c1.07-1.86,3.05-3,5.2-3h33.13c2.14,0,4.12,1.14,5.2,3l16.56,28.69c1.07,1.86,1.07,4.14,0,6l-16.56,28.69
		C139.62,187.54,137.64,188.68,135.49,188.68z M105.83,176.68h26.2l13.1-22.69l-13.1-22.69h-26.2l-13.1,22.69L105.83,176.68z"/>
	<path class="st1" d="M380.32,150.98l-32.02-55.47c-1.07-1.86-3.05-3-5.2-3h-60.57l-30.29-52.47c-1.07-1.86-3.05-3-5.2-3h-64.05
		c-2.14,0-4.12,1.14-5.2,3l-30.3,52.48H86.91c-2.14,0-4.12,1.14-5.2,3l-32.02,55.47c-1.07,1.86-1.07,4.14,0,6l30.29,52.46
		l-30.29,52.46c-1.07,1.86-1.07,4.14,0,6l32.02,55.47c1.07,1.86,3.05,3,5.2,3h64.05c2.14,0,4.12-1.14,5.2-3l30.29-52.47h60.6
		c2.14,0,4.12-1.14,5.2-3l30.29-52.47h60.57c2.14,0,4.12-1.14,5.2-3l32.02-55.47C381.39,155.13,381.39,152.84,380.32,150.98z
		 M186.45,49.05h57.12l28.55,49.45l-28.57,49.48h-57.1l-28.56-49.47L186.45,49.05z M90.37,104.52h57.12l28.56,49.47l-28.55,49.46
		H90.36l-28.55-49.46L90.37,104.52z M147.49,314.39H90.37l-28.56-49.47l28.55-49.46h57.13l28.55,49.46L147.49,314.39z
		 M243.57,258.92h-57.12l-28.56-49.47l28.56-49.47h57.1l28.57,49.48L243.57,258.92z M339.63,203.45h-57.1l-28.56-49.47l28.56-49.47
		h57.1l28.56,49.47L339.63,203.45z"/>
</g>
</svg>
