<?xml version="1.0" encoding="utf-8"?>
<!-- Generator: Adobe Illustrator 24.1.2, SVG Export Plug-In . SVG Version: 6.00 Build 0)  -->
<svg version="1.1" id="Warstwa_3" xmlns="http://www.w3.org/2000/svg" xmlns:xlink="http://www.w3.org/1999/xlink" x="0px" y="0px"
	 viewBox="0 0 430 430" style="enable-background:new 0 0 430 430;" xml:space="preserve">
<style type="text/css">
	.st0{fill:#08a88a;}
	.st1{fill:#121331;}
	.st2{fill:none;}
	.st3{fill-opacity:0;}
</style>
<g>
	<path class="st1" d="M328.61,341.84c0,0-0.01,0-0.01,0c-20.23-0.03-295-0.46-295-0.46c-3.57-0.01-6.46-2.9-6.46-6.46L26.68,94.53
		c0-1.72,0.68-3.37,1.9-4.59c1.22-1.22,2.89-1.91,4.59-1.9l79.73,0.12c1.97,0,3.82,0.9,5.05,2.43l22.11,27.67l189.29,0.3
		c3.57,0.01,6.46,2.89,6.46,6.46l0.11,52.88c0.01,3.58-2.88,6.48-6.46,6.49c0,0-0.01,0-0.01,0c-3.57,0-6.47-2.89-6.47-6.46
		l-0.1-46.43l-185.95-0.29c-1.96,0-3.82-0.9-5.05-2.43l-22.11-27.67L39.64,101l0.44,227.44c41.54,0.06,270.16,0.42,288.55,0.45
		c3.58,0.01,6.47,2.91,6.46,6.49C335.08,338.95,332.18,341.84,328.61,341.84z"/>
	<path class="st1" d="M329.32,341.96c-0.87,0-1.74-0.17-2.59-0.54c-3.28-1.43-4.77-5.25-3.34-8.53l63.57-145.57H105.08L39.25,337.16
		c-1.44,3.27-5.26,4.76-8.53,3.32c-3.27-1.44-4.76-5.26-3.32-8.53l67.53-153.71c1.03-2.35,3.36-3.87,5.93-3.87h296
		c2.18,0,4.22,1.1,5.42,2.93c1.2,1.83,1.39,4.14,0.52,6.14l-67.53,154.63C334.2,340.51,331.82,341.96,329.32,341.96z"/>
</g>
</svg>
