<?xml version="1.0" encoding="utf-8"?>
<!-- Generator: Adobe Illustrator 24.1.2, SVG Export Plug-In . SVG Version: 6.00 Build 0)  -->
<svg version="1.1" id="Warstwa_3" xmlns="http://www.w3.org/2000/svg" xmlns:xlink="http://www.w3.org/1999/xlink" x="0px" y="0px"
	 viewBox="0 0 430 430" style="enable-background:new 0 0 430 430;" xml:space="preserve">
<style type="text/css">
	.st0{fill:#121331;}
	.st1{fill:#08A385;}
	.st2{fill:none;stroke:#121331;stroke-width:14;stroke-linecap:round;stroke-linejoin:round;stroke-miterlimit:10;}
	.st3{fill:none;stroke:#08A385;stroke-width:12;stroke-linecap:round;stroke-linejoin:round;stroke-miterlimit:10;}
	.st4{fill:#06A385;}
	.st5{fill:none;stroke:#121331;stroke-width:12;stroke-linecap:round;stroke-linejoin:round;stroke-miterlimit:10;}
</style>
<g>
	<path class="st0" d="M377.06,137.03l-21.92-5.01c-7.41-19.34-25.56-32.71-46.04-33.6c-0.19-0.94-0.42-1.88-0.7-2.82
		c-4.31-14.35-17.82-23.04-30.12-19.35c-10.26,3.08-16.49,13.8-15.79,25.57c-3.75-0.16-7.51-0.48-11.35-0.97
		c-26.54-9.47-58.99-11.61-91.47-6.03C76.37,109.13,34.8,146.23,39.45,202.1c0.06,0.76,12.68,122.69,15.2,147.12
		c0.32,3.06,2.89,5.38,5.97,5.38h61.37c0.81,0,1.59-0.17,2.31-0.48h33.89c2.36,0,4.51-1.39,5.47-3.54c0.97-2.16,0.58-4.68-0.99-6.45
		l-22.51-25.29l3.21-40.34c20.65-3.72,39.44-9.79,49.35-13.3l9.58,83.37c0.35,3.03,2.91,5.31,5.96,5.31h61.38
		c0.96,0,1.88-0.24,2.71-0.66h36.39c2.36,0,4.51-1.39,5.47-3.54c0.97-2.16,0.58-4.68-0.99-6.45l-22.51-25.29l8.96-112.83
		c2.13-2.74,3.95-5.46,5.44-8.17l46.92-10.24l20.87-2.2c7.95-0.84,14.41-6.93,15.71-14.83l2.04-12.44
		C392.18,148.01,386.21,139.12,377.06,137.03z M144.82,342.13h-20.56l-20.21-22.73l4.14-37.73c0.97,0.02,1.94,0.03,2.92,0.03
		c6.59,0,13.36-0.5,20.08-1.33l-3.19,40.09c-0.13,1.63,0.41,3.24,1.5,4.46L144.82,342.13z M295.37,341.24h-23.62l-20.15-22.65
		l5.59-78.79c11.7-7.04,21.49-14.04,29.37-20.97l-8,100.74c-0.13,1.63,0.41,3.24,1.5,4.46L295.37,341.24z M378.82,155.33
		l-2.04,12.44c-0.42,2.57-2.53,4.56-5.12,4.83l-21.2,2.23c-0.22,0.02-0.44,0.06-0.65,0.1l-48.85,10.66l-4.71-0.83
		c-20.92-3.68-36.74-20.2-39.35-41.11c-0.13-1.01-0.17-1.61-0.17-1.7c-0.2-3.3-3.04-5.83-6.33-5.63c-3.31,0.19-5.84,3.03-5.65,6.33
		c0.01,0.1,0.06,0.99,0.25,2.49c3.16,25.26,21.69,45.4,46.5,50.9c-7.97,11.05-22.67,23.02-43.11,35.02c-1.7,1-2.81,2.78-2.95,4.75
		l-5.99,84.45c-0.11,1.61,0.43,3.2,1.5,4.41l15.32,17.22h-42.66l-9.84-85.66c-0.21-1.85-1.28-3.5-2.88-4.46
		c-1.6-0.96-3.56-1.12-5.3-0.43c-0.53,0.21-53.34,20.97-92.32,18.08c-3.23-0.24-6.06,2.12-6.41,5.33l-5.05,45.98
		c-0.19,1.69,0.35,3.37,1.48,4.64l15.32,17.23H66.03c-2.72-26.29-14.47-139.85-14.63-141.51c-2.16-25.97,6.77-46.5,27.29-62.75
		c18.67-14.78,46.6-25.44,83-31.7c30.72-5.28,61.25-3.25,85.98,5.72c0.43,0.16,0.89,0.26,1.34,0.32c7.05,0.92,13.83,1.34,20.77,1.26
		c1.96-0.02,3.79-1,4.89-2.62c1.11-1.62,1.35-3.68,0.65-5.51c-0.02-0.06-0.04-0.13-0.08-0.26c-2.36-7.89,0.6-16.03,6.46-17.79
		c5.86-1.76,12.82,3.42,15.18,11.29c0.54,1.84,0.83,3.71,0.83,5.54c0.01,1.7,0.74,3.32,2.01,4.45c1.27,1.13,2.97,1.67,4.66,1.48
		c1.2-0.13,2.61-0.17,4.18-0.1c16.46,0.72,30.97,12,36.12,28.08l0.15,0.47c0.65,2.02,2.31,3.55,4.38,4.02l25.16,5.75
		C377.37,149.41,379.32,152.31,378.82,155.33z"/>
	<path class="st1" d="M384.9,158.89h-13.05c-3.31,0-6-2.69-6-6s2.69-6,6-6h13.05c3.31,0,6,2.69,6,6S388.22,158.89,384.9,158.89z"/>
	<path class="st0" d="M321.37,138.93c-0.39,0-0.79-0.04-1.18-0.12c-0.38-0.08-0.76-0.19-1.12-0.34s-0.71-0.34-1.03-0.55
		c-0.33-0.22-0.64-0.47-0.92-0.75c-0.27-0.28-0.52-0.58-0.74-0.91c-0.22-0.33-0.4-0.68-0.55-1.04c-0.15-0.36-0.27-0.74-0.35-1.12
		c-0.07-0.39-0.11-0.78-0.11-1.17c0-0.39,0.04-0.79,0.11-1.18c0.08-0.38,0.2-0.76,0.35-1.12c0.15-0.36,0.33-0.71,0.55-1.03
		c0.22-0.33,0.47-0.64,0.74-0.91c0.28-0.28,0.59-0.53,0.92-0.75c0.32-0.22,0.67-0.4,1.03-0.55c0.36-0.15,0.74-0.27,1.12-0.35
		c0.78-0.15,1.57-0.15,2.35,0c0.38,0.08,0.76,0.2,1.12,0.35c0.36,0.15,0.71,0.33,1.04,0.55c0.33,0.22,0.63,0.47,0.91,0.75
		c0.28,0.27,0.53,0.58,0.74,0.91c0.22,0.32,0.41,0.67,0.56,1.03c0.15,0.36,0.26,0.74,0.34,1.12c0.08,0.39,0.12,0.79,0.12,1.18
		c0,0.39-0.04,0.78-0.12,1.17c-0.08,0.38-0.19,0.76-0.34,1.12c-0.15,0.36-0.34,0.71-0.56,1.04c-0.21,0.33-0.46,0.63-0.74,0.91
		c-0.28,0.28-0.58,0.53-0.91,0.75c-0.33,0.21-0.68,0.4-1.04,0.55c-0.36,0.15-0.74,0.26-1.12,0.34
		C322.15,138.89,321.76,138.93,321.37,138.93z"/>
</g>
</svg>
