<?xml version="1.0" encoding="utf-8"?>
<!-- Generator: Adobe Illustrator 24.1.2, SVG Export Plug-In . SVG Version: 6.00 Build 0)  -->
<svg version="1.1" id="Warstwa_3" xmlns="http://www.w3.org/2000/svg" xmlns:xlink="http://www.w3.org/1999/xlink" x="0px" y="0px"
	 viewBox="0 0 430 430" style="enable-background:new 0 0 430 430;" xml:space="preserve">
<style type="text/css">
	.st0{fill:#121331;}
	.st1{fill:#08A385;}
	.st2{fill:none;stroke:#121331;stroke-width:14;stroke-linecap:round;stroke-linejoin:round;stroke-miterlimit:10;}
	.st3{fill:none;stroke:#08A385;stroke-width:12;stroke-linecap:round;stroke-linejoin:round;stroke-miterlimit:10;}
	.st4{fill:#06A385;}
	.st5{fill:none;stroke:#121331;stroke-width:12;stroke-linecap:round;stroke-linejoin:round;stroke-miterlimit:10;}
	.st6{fill:#08a88a;}
	.st7{fill:#08A284;}
	.st8{fill:#08A688;}
	.st9{fill:#08a88a;}
</style>
<g>
	<path class="st7" d="M258.28,243.16c-2.27,0-4.35-1.28-5.37-3.32l-12.76-25.51h-53.7c-2.27,0-4.35-1.28-5.37-3.32l-9.05-18.09
		l-23.46,46.92c-1.02,2.03-3.09,3.32-5.37,3.32s-4.35-1.28-5.37-3.32l-12.76-25.51H81.7c-3.31,0-6-2.69-6-6s2.69-6,6-6h47.09
		c2.27,0,4.35,1.28,5.37,3.32l9.05,18.1l23.45-46.92c1.02-2.03,3.09-3.32,5.37-3.32s4.35,1.28,5.37,3.32l12.76,25.5h53.7
		c2.27,0,4.35,1.28,5.37,3.32l9.05,18.1l23.45-46.92c1.02-2.03,3.09-3.32,5.37-3.32s4.35,1.28,5.37,3.32l12.76,25.5h43.07
		c3.31,0,6,2.69,6,6s-2.69,6-6,6h-46.78c-2.27,0-4.35-1.28-5.37-3.32l-9.05-18.09l-23.45,46.92
		C262.63,241.87,260.55,243.16,258.28,243.16z"/>
	<path class="st0" d="M341.41,99.52c-12.57-12.15-25.59-17.11-27.6-17.83c-19.77-8.37-40.58-8.18-60.21,0.55
		c-15.12,6.73-28.56,18.27-38.61,32.97c-10.05-14.7-23.48-26.24-38.61-32.97c-19.62-8.73-40.44-8.92-60.21-0.55
		c-2.01,0.72-15.04,5.69-27.6,17.83c-12.36,11.95-26.65,33.38-24.48,67.57c1.89,29.74,20.36,67.02,52.01,104.97
		c28.43,34.09,64.33,64.62,96.04,81.67c0.09,0.05,0.19,0.08,0.28,0.13c0.11,0.05,0.21,0.1,0.32,0.15c0.15,0.06,0.31,0.11,0.46,0.16
		c0.09,0.03,0.17,0.06,0.26,0.08c0.19,0.05,0.39,0.09,0.58,0.12c0.06,0.01,0.11,0.02,0.17,0.03c0.25,0.03,0.51,0.05,0.76,0.05
		c0,0,0,0,0,0c0,0,0,0,0,0c0.25,0,0.51-0.02,0.76-0.05c0.06-0.01,0.11-0.02,0.17-0.03c0.2-0.03,0.39-0.07,0.58-0.12
		c0.08-0.02,0.17-0.05,0.25-0.08c0.16-0.05,0.32-0.1,0.47-0.16c0.11-0.04,0.21-0.1,0.32-0.15c0.09-0.04,0.19-0.08,0.28-0.13
		c31.7-17.05,67.6-47.58,96.04-81.67c31.65-37.95,50.13-75.23,52.01-104.97C368.06,132.9,353.78,111.47,341.41,99.52z
		 M353.92,166.34c-1.73,27.22-19.22,62.04-49.25,98.04c-26.65,31.95-59.95,60.59-89.66,77.23c-29.72-16.63-63.01-45.28-89.66-77.23
		c-30.03-36.01-47.53-70.83-49.25-98.04c-3.57-56.25,42.26-72.7,44.2-73.36c0.15-0.05,0.29-0.1,0.43-0.16
		c38.27-16.3,72.98,7.6,89.04,36.71c0.02,0.04,0.05,0.08,0.08,0.13c0.06,0.11,0.13,0.22,0.2,0.32c0.04,0.07,0.09,0.13,0.14,0.19
		c0.07,0.09,0.14,0.19,0.21,0.27c0.06,0.07,0.12,0.14,0.18,0.2c0.07,0.08,0.14,0.15,0.21,0.22c0.07,0.07,0.15,0.14,0.22,0.21
		c0.07,0.06,0.13,0.12,0.2,0.18c0.09,0.07,0.18,0.14,0.28,0.21c0.06,0.05,0.13,0.09,0.19,0.14c0.11,0.07,0.22,0.14,0.33,0.2
		c0.04,0.02,0.08,0.05,0.12,0.08c0.02,0.01,0.04,0.02,0.06,0.03c0.11,0.06,0.22,0.11,0.34,0.16c0.07,0.03,0.14,0.07,0.22,0.1
		c0.1,0.04,0.2,0.07,0.3,0.11c0.09,0.03,0.18,0.07,0.27,0.09c0.08,0.03,0.17,0.04,0.25,0.07c0.11,0.03,0.21,0.05,0.32,0.08
		c0.08,0.02,0.17,0.03,0.25,0.04c0.11,0.02,0.21,0.03,0.32,0.04c0.1,0.01,0.19,0.01,0.29,0.02c0.09,0,0.19,0.01,0.28,0.01
		c0.12,0,0.23-0.01,0.35-0.01c0.07,0,0.15-0.01,0.22-0.01c0.13-0.01,0.26-0.03,0.38-0.05c0.06-0.01,0.13-0.02,0.19-0.03
		c0.12-0.02,0.24-0.05,0.36-0.09c0.07-0.02,0.14-0.03,0.21-0.06c0.1-0.03,0.2-0.07,0.3-0.1c0.09-0.03,0.18-0.06,0.27-0.1
		c0.08-0.03,0.15-0.07,0.23-0.1c0.11-0.05,0.22-0.1,0.33-0.16c0.02-0.01,0.04-0.02,0.06-0.03c0.04-0.02,0.08-0.05,0.12-0.07
		c0.11-0.07,0.23-0.13,0.34-0.21c0.06-0.04,0.12-0.09,0.18-0.13c0.1-0.07,0.19-0.14,0.28-0.22c0.07-0.06,0.13-0.11,0.2-0.17
		c0.08-0.07,0.15-0.14,0.23-0.22c0.07-0.07,0.14-0.15,0.21-0.22c0.06-0.07,0.12-0.14,0.18-0.21c0.07-0.09,0.14-0.18,0.21-0.27
		c0.05-0.06,0.09-0.13,0.14-0.2c0.07-0.1,0.13-0.21,0.2-0.32c0.03-0.04,0.05-0.08,0.08-0.13c16.05-29.11,50.76-53.01,89.04-36.71
		c0.13,0.06,0.28,0.11,0.41,0.16C311.66,93.64,357.49,110.09,353.92,166.34z"/>
</g>
</svg>
