<?xml version="1.0" encoding="utf-8"?>
<!-- Generator: Adobe Illustrator 24.1.2, SVG Export Plug-In . SVG Version: 6.00 Build 0)  -->
<svg version="1.1" id="Warstwa_1" xmlns="http://www.w3.org/2000/svg" xmlns:xlink="http://www.w3.org/1999/xlink" x="0px" y="0px"
	 viewBox="0 0 430 430" style="enable-background:new 0 0 430 430;" xml:space="preserve">
<style type="text/css">
	.st0{fill:#121331;}
	.st1{fill:#08A284;}
	.st2{fill:none;stroke:#08A284;stroke-width:12;stroke-linecap:round;stroke-linejoin:round;stroke-miterlimit:10;}
	.st3{fill:none;stroke:#121331;stroke-width:12;stroke-linecap:round;stroke-linejoin:round;stroke-miterlimit:10;}
	.st4{fill:#08A688;}
	.st5{fill:#08a88a;}
	.st6{fill:#08a88a;}
</style>
<g>
	<g>
		<path class="st1" d="M130.53,256.67c-45.54,0-75.5-31.65-88.34-61.27c-11.35-26.17-10.45-52.86,2.24-66.43
			c4.53-4.84,9.94-7.22,16.52-7.26c0.06,0,0.11,0,0.17,0c24.44,0,54.44,31.02,54.74,31.33c2.29,2.39,6.09,2.48,8.48,0.19
			c2.39-2.29,2.48-6.09,0.19-8.48c-1.37-1.43-33.84-35.04-63.42-35.04c-0.07,0-0.14,0-0.21,0c-9.92,0.05-18.41,3.77-25.23,11.06
			c-16.16,17.27-17.92,48.44-4.49,79.4c14.36,33.11,48.01,68.49,99.35,68.49c3.31,0,6-2.69,6-6S133.85,256.67,130.53,256.67z"/>
		<path class="st1" d="M394.33,120.77c-6.82-7.28-15.3-11-25.23-11.06c-0.07,0-0.14,0-0.21,0c-29.58,0-62.05,33.6-63.42,35.04
			c-2.29,2.39-2.2,6.19,0.19,8.48c2.39,2.29,6.19,2.21,8.48-0.19c0.3-0.31,30.3-31.33,54.74-31.33c0.06,0,0.11,0,0.17,0
			c6.58,0.04,11.98,2.41,16.52,7.26c12.69,13.56,13.59,40.26,2.24,66.43c-12.85,29.62-42.8,61.27-88.34,61.27c-3.31,0-6,2.69-6,6
			s2.69,6,6,6c51.35,0,84.99-35.38,99.35-68.49C412.25,169.21,410.49,138.04,394.33,120.77z"/>
	</g>
	<path class="st0" d="M315.61,219.58V148.9c0-2.75-1.86-5.14-4.52-5.82L227,121.75c-7.92-2.01-16.29-2.01-24.21,0l-84.08,21.33
		c-2.66,0.68-4.52,3.07-4.52,5.82v70.68c0,9.12,1.23,17.95,3.51,26.36c0.04,0.17,0.08,0.34,0.14,0.51
		c11.78,42.53,50.83,73.85,97.07,73.85c46.25,0,85.32-31.34,97.08-73.91c0.04-0.13,0.07-0.26,0.11-0.39
		C314.38,237.57,315.61,228.72,315.61,219.58z M126.19,219.58V207.2l79.56-20.18c5.99-1.52,12.32-1.52,18.3,0l79.56,20.18v12.38
		c0,7.07-0.84,13.95-2.41,20.55c-20.4,7.95-95.72,32.69-172.57,0.14C127.04,233.63,126.19,226.7,126.19,219.58z M205.75,133.38
		c5.99-1.52,12.32-1.52,18.3,0l79.56,20.18v41.26L227,175.39c-7.92-2.01-16.29-2.01-24.21,0l-76.61,19.43v-41.26L205.75,133.38z
		 M214.9,308.29c-36.27,0-67.52-21.89-81.26-53.14c27.12,9.94,53.78,13.45,77.87,13.45c36.82,0,67.62-8.17,84.87-13.97
		C282.77,286.16,251.37,308.29,214.9,308.29z"/>
</g>
</svg>
