<?xml version="1.0" encoding="utf-8"?>
<!-- Generator: Adobe Illustrator 24.1.2, SVG Export Plug-In . SVG Version: 6.00 Build 0)  -->
<svg version="1.1" id="Warstwa_1" xmlns="http://www.w3.org/2000/svg" xmlns:xlink="http://www.w3.org/1999/xlink" x="0px" y="0px"
	 viewBox="0 0 430 430" style="enable-background:new 0 0 430 430;" xml:space="preserve">
<style type="text/css">
	.st0{fill:#121331;}
	.st1{fill:#08A284;}
	.st2{fill:none;stroke:#08A284;stroke-width:12;stroke-linecap:round;stroke-linejoin:round;stroke-miterlimit:10;}
	.st3{fill:none;stroke:#121331;stroke-width:12;stroke-linecap:round;stroke-linejoin:round;stroke-miterlimit:10;}
	.st4{fill:#08A688;}
	.st5{fill:#08a88a;}
	.st6{fill:#08a88a;}
</style>
<g>
	<g>
		<path class="st0" d="M161.58,163.87v-55.95c0-3.31-2.69-6-6-6h-41.14c-3.31,0-6,2.69-6,6v55.95c-27.32,6.15-47.8,30.6-47.8,59.76
			v157.56c0,14.49,11.79,26.28,26.28,26.28h96.18c14.49,0,26.28-11.79,26.28-26.28V223.62C209.38,194.47,188.9,170.02,161.58,163.87
			z M120.44,113.92h29.14v9.93h-3.75c-3.31,0-6,2.69-6,6s2.69,6,6,6h3.75v26.55c-0.49-0.01-0.97-0.04-1.46-0.04H121.9
			c-0.49,0-0.97,0.03-1.46,0.04V113.92z M197.38,381.18c0,7.88-6.41,14.28-14.28,14.28H86.92c-7.88,0-14.28-6.41-14.28-14.28V223.62
			c0-27.17,22.1-49.27,49.26-49.27h26.21c27.16,0,49.26,22.1,49.26,49.27V381.18z"/>
		<path class="st0" d="M221.79,129.84c0-3.31-2.69-6-6-6h-0.5c-3.31,0-6,2.69-6,6s2.69,6,6,6h0.5
			C219.11,135.84,221.79,133.16,221.79,129.84z"/>
		<path class="st0" d="M242.49,123.84h-1.03c-3.31,0-6,2.69-6,6s2.69,6,6,6h1.03c3.31,0,6-2.69,6-6S245.81,123.84,242.49,123.84z"/>
		<path class="st0" d="M275.19,129.84c0-3.31-2.69-6-6-6h-1.03c-3.31,0-6,2.69-6,6s2.69,6,6,6h1.03
			C272.5,135.84,275.19,133.16,275.19,129.84z"/>
		<path class="st0" d="M295.36,123.84h-0.5c-3.31,0-6,2.69-6,6s2.69,6,6,6h0.5c3.31,0,6-2.69,6-6S298.68,123.84,295.36,123.84z"/>
		<path class="st0" d="M190.2,110.31c1.14,0,2.29-0.32,3.32-1l0.42-0.28c2.76-1.83,3.51-5.56,1.68-8.32
			c-1.83-2.76-5.56-3.51-8.32-1.68l-0.42,0.28c-2.76,1.83-3.51,5.56-1.68,8.32C186.36,109.36,188.26,110.31,190.2,110.31z"/>
		<path class="st0" d="M209.11,97.71c1.14,0,2.3-0.33,3.32-1.01l0.74-0.49c2.76-1.84,3.5-5.56,1.67-8.32
			c-1.84-2.76-5.56-3.51-8.32-1.67l-0.74,0.49c-2.76,1.84-3.5,5.56-1.67,8.32C205.27,96.78,207.17,97.71,209.11,97.71z"/>
		<path class="st0" d="M225.76,73.42l-0.74,0.49c-2.76,1.84-3.51,5.56-1.67,8.32c1.16,1.74,3.06,2.68,5,2.68
			c1.14,0,2.3-0.33,3.32-1.01l0.74-0.49c2.76-1.84,3.51-5.56,1.67-8.32C232.24,72.33,228.52,71.58,225.76,73.42z"/>
		<path class="st0" d="M252.99,62.5c-1.84-2.76-5.56-3.51-8.32-1.67l-0.42,0.28c-2.76,1.84-3.51,5.56-1.67,8.32
			c1.16,1.74,3.06,2.68,5,2.68c1.14,0,2.3-0.33,3.32-1.01l0.42-0.28C254.08,68.98,254.83,65.26,252.99,62.5z"/>
		<path class="st0" d="M194.41,148.71c-2.36-2.33-6.16-2.3-8.49,0.05c-2.33,2.36-2.3,6.16,0.05,8.49l0.36,0.35
			c1.17,1.15,2.69,1.73,4.22,1.73c1.55,0,3.1-0.6,4.27-1.78c2.33-2.36,2.3-6.16-0.05-8.49L194.41,148.71z"/>
		<path class="st0" d="M211.31,165.4c-2.36-2.33-6.16-2.31-8.48,0.05c-2.33,2.36-2.31,6.16,0.05,8.48l0.66,0.65
			c1.17,1.16,2.69,1.73,4.22,1.73c1.55,0,3.09-0.6,4.27-1.78c2.33-2.36,2.31-6.16-0.05-8.48L211.31,165.4z"/>
		<path class="st0" d="M228.51,182.4c-2.36-2.33-6.16-2.3-8.49,0.05c-2.33,2.36-2.3,6.16,0.05,8.49l0.66,0.65
			c1.17,1.15,2.69,1.73,4.22,1.73c1.55,0,3.1-0.6,4.27-1.78c2.33-2.36,2.3-6.16-0.05-8.49L228.51,182.4z"/>
		<path class="st0" d="M262.91,216.39c-2.35-2.33-6.15-2.31-8.48,0.05c-2.33,2.36-2.31,6.16,0.05,8.49l0.66,0.65
			c1.17,1.16,2.69,1.73,4.22,1.73c1.55,0,3.09-0.59,4.27-1.78c2.33-2.36,2.31-6.16-0.05-8.49L262.91,216.39z"/>
		<path class="st0" d="M245.71,199.39c-2.35-2.33-6.15-2.31-8.48,0.05c-2.33,2.36-2.31,6.15,0.05,8.48l0.66,0.65
			c1.17,1.16,2.69,1.73,4.22,1.73c1.55,0,3.09-0.59,4.27-1.78c2.33-2.36,2.31-6.15-0.05-8.48L245.71,199.39z"/>
		<path class="st0" d="M280.1,233.38c-2.36-2.33-6.16-2.31-8.49,0.05c-2.33,2.36-2.3,6.16,0.05,8.48l0.36,0.35
			c1.17,1.16,2.69,1.73,4.22,1.73c1.55,0,3.1-0.6,4.27-1.78c2.33-2.36,2.3-6.16-0.05-8.48L280.1,233.38z"/>
	</g>
	<g>
		<path class="st1" d="M171.88,267.13h-19.09v-19.09c0-3.31-2.69-6-6-6h-23.57c-3.31,0-6,2.69-6,6v19.09H98.13c-3.31,0-6,2.69-6,6
			v23.57c0,3.31,2.69,6,6,6h19.09v19.09c0,3.31,2.69,6,6,6h23.57c3.31,0,6-2.69,6-6V302.7h19.09c3.31,0,6-2.69,6-6v-23.57
			C177.88,269.81,175.19,267.13,171.88,267.13z M165.88,290.7h-19.09c-3.31,0-6,2.69-6,6v19.09h-11.57V296.7c0-3.31-2.69-6-6-6
			h-19.09v-11.57h19.09c3.31,0,6-2.69,6-6v-19.09h11.57v19.09c0,3.31,2.69,6,6,6h19.09V290.7z"/>
		<path class="st1" d="M369.07,123.34c-1.02-3.15-4.41-4.87-7.56-3.85l-3.52,1.15c-2.31-3.13-5.55-5.54-9.32-6.79v-3.69
			c0-3.31-2.69-6-6-6s-6,2.69-6,6v3.69c-3.77,1.25-7.01,3.66-9.32,6.79l-3.52-1.15c-3.15-1.03-6.54,0.7-7.56,3.85
			c-1.02,3.15,0.7,6.54,3.85,7.56l3.5,1.14c0.03,4.09,1.36,7.87,3.58,10.97l-2.18,2.99c-1.95,2.68-1.35,6.43,1.33,8.38
			c1.07,0.77,2.3,1.15,3.52,1.15c1.86,0,3.69-0.86,4.86-2.47l2.16-2.98c1.82,0.58,3.76,0.9,5.78,0.9s3.95-0.32,5.78-0.9l2.16,2.98
			c1.17,1.62,3,2.47,4.86,2.47c1.22,0,2.46-0.37,3.52-1.15c2.68-1.95,3.27-5.7,1.33-8.38l-2.18-2.99c2.23-3.1,3.56-6.88,3.58-10.97
			l3.5-1.14C368.37,129.88,370.1,126.49,369.07,123.34z M342.67,138.98c-3.89,0-7.06-3.17-7.06-7.06s3.17-7.06,7.06-7.06
			s7.06,3.17,7.06,7.06S346.56,138.98,342.67,138.98z"/>
		<path class="st1" d="M274.89,72.76c1.07,0.77,2.3,1.15,3.52,1.15c1.86,0,3.69-0.86,4.86-2.47l2.16-2.98
			c1.82,0.58,3.76,0.9,5.78,0.9s3.95-0.32,5.78-0.9l2.16,2.98c1.17,1.62,3,2.47,4.86,2.47c1.22,0,2.46-0.37,3.52-1.15
			c2.68-1.95,3.27-5.7,1.33-8.38l-2.18-2.99c2.23-3.1,3.56-6.88,3.58-10.97l3.5-1.14c3.15-1.02,4.88-4.41,3.85-7.56
			c-1.02-3.15-4.41-4.88-7.56-3.85l-3.52,1.14c-2.31-3.13-5.55-5.53-9.32-6.79v-3.69c0-3.31-2.69-6-6-6s-6,2.69-6,6v3.69
			c-3.77,1.25-7.01,3.66-9.32,6.79l-3.52-1.14c-3.15-1.02-6.54,0.7-7.56,3.85s0.7,6.54,3.85,7.56l3.5,1.14
			c0.03,4.09,1.36,7.87,3.58,10.97l-2.18,2.99C271.61,67.06,272.21,70.82,274.89,72.76z M291.21,43.24c3.89,0,7.06,3.17,7.06,7.06
			s-3.17,7.06-7.06,7.06s-7.06-3.17-7.06-7.06S287.32,43.24,291.21,43.24z"/>
		<path class="st1" d="M319.29,266.99l-3.52,1.14c-2.31-3.13-5.55-5.54-9.32-6.79v-3.69c0-3.31-2.69-6-6-6s-6,2.69-6,6v3.69
			c-3.77,1.25-7.01,3.66-9.32,6.79l-3.52-1.14c-3.15-1.03-6.54,0.7-7.56,3.85c-1.02,3.15,0.7,6.54,3.85,7.56l3.5,1.14
			c0.03,4.09,1.36,7.87,3.58,10.97l-2.18,3c-1.95,2.68-1.35,6.43,1.33,8.38c1.06,0.77,2.3,1.15,3.52,1.15
			c1.86,0,3.69-0.86,4.86-2.47l2.16-2.98c1.82,0.58,3.76,0.9,5.78,0.9c2.01,0,3.95-0.32,5.78-0.9l2.16,2.98
			c1.17,1.62,3,2.47,4.86,2.47c1.22,0,2.46-0.37,3.52-1.15c2.68-1.95,3.27-5.7,1.33-8.38l-2.18-3c2.23-3.1,3.56-6.88,3.58-10.97
			l3.5-1.14c3.15-1.02,4.88-4.41,3.85-7.56C325.83,267.69,322.44,265.97,319.29,266.99z M300.44,286.48c-3.89,0-7.06-3.17-7.06-7.06
			s3.17-7.06,7.06-7.06c3.89,0,7.06,3.17,7.06,7.06S304.34,286.48,300.44,286.48z"/>
	</g>
</g>
</svg>
