<?xml version="1.0" encoding="utf-8"?>
<!-- Generator: Adobe Illustrator 24.1.2, SVG Export Plug-In . SVG Version: 6.00 Build 0)  -->
<svg version="1.1" id="Warstwa_1" xmlns="http://www.w3.org/2000/svg" xmlns:xlink="http://www.w3.org/1999/xlink" x="0px" y="0px"
	 viewBox="0 0 430 430" style="enable-background:new 0 0 430 430;" xml:space="preserve">
<style type="text/css">
	.st0{fill:#121331;}
	.st1{fill:#08A284;}
	.st2{fill:none;stroke:#08A284;stroke-width:12;stroke-linecap:round;stroke-linejoin:round;stroke-miterlimit:10;}
	.st3{fill:none;stroke:#121331;stroke-width:12;stroke-linecap:round;stroke-linejoin:round;stroke-miterlimit:10;}
	.st4{fill:#08A688;}
	.st5{fill:#08a88a;}
	.st6{fill:#08a88a;}
</style>
<g>
	<g>
		<path class="st0" d="M125.36,106.79h-14.97c-16.59,0-30.08,13.5-30.08,30.08v14.97c0,3.31,2.69,6,6,6s6-2.69,6-6v-14.97
			c0-9.97,8.11-18.08,18.08-18.08h14.97c3.31,0,6-2.69,6-6S128.67,106.79,125.36,106.79z"/>
		<path class="st0" d="M322.6,76.78H107.4c-31.48,0-57.1,25.62-57.1,57.1v123.93c0,0.04,0,0.08,0,0.12v38.19
			c0,31.49,25.61,57.1,57.1,57.1h215.19c31.48,0,57.1-25.62,57.1-57.1v-38.17c0-0.05,0-0.09,0-0.13V133.88
			C379.7,102.4,354.08,76.78,322.6,76.78z M367.69,296.12c0,24.87-20.23,45.1-45.1,45.1H107.4c-24.87,0-45.1-20.23-45.1-45.1v-3.35
			c10.46,13.46,26.78,22.14,45.1,22.14h215.2c18.32,0,34.64-8.68,45.1-22.14V296.12z M367.7,257.74c0,0.02,0,0.04,0,0.07v0.14
			c-0.07,24.81-20.27,44.96-45.1,44.96H107.4c-24.83,0-45.03-20.17-45.1-44.98v-0.12c0-0.02,0-0.04,0-0.06V133.88
			c0-24.87,20.23-45.1,45.1-45.1h215.2c24.87,0,45.1,20.23,45.1,45.1V257.74z"/>
	</g>
	<g>
		<path class="st6" d="M117.45,185.08c3.31,0,6-2.69,6-6s-2.69-6-6-6H85.72c-3.31,0-6,2.69-6,6v47.59c0,3.31,2.69,6,6,6h31.73
			c3.31,0,6-2.69,6-6s-2.69-6-6-6H91.72v-11.8h13.38c3.31,0,6-2.69,6-6s-2.69-6-6-6H91.72v-11.79H117.45z"/>
		<path class="st6" d="M289.51,185.08c3.31,0,6-2.69,6-6s-2.69-6-6-6h-31.73c-3.31,0-6,2.69-6,6v47.59c0,3.31,2.69,6,6,6h31.73
			c3.31,0,6-2.69,6-6s-2.69-6-6-6h-25.73v-11.8h13.38c3.31,0,6-2.69,6-6s-2.69-6-6-6h-13.38v-11.79H289.51z"/>
		<path class="st6" d="M171.69,173.03c-3.31,0-6,2.69-6,6v27.43l-19.99-30.71c-1.45-2.22-4.19-3.24-6.74-2.48
			c-2.55,0.76-4.29,3.1-4.29,5.75v47.64c0,3.31,2.69,6,6,6s6-2.69,6-6v-27.43l19.99,30.71c1.13,1.73,3.04,2.73,5.03,2.73
			c0.57,0,1.14-0.08,1.71-0.25c2.55-0.76,4.29-3.1,4.29-5.75v-47.64C177.69,175.71,175,173.03,171.69,173.03z"/>
		<path class="st6" d="M236.14,173.05h-42.47c-3.31,0-6,2.69-6,6s2.69,6,6,6h15.24v41.62c0,3.31,2.69,6,6,6s6-2.69,6-6v-41.62h15.23
			c3.31,0,6-2.69,6-6S239.45,173.05,236.14,173.05z"/>
		<path class="st6" d="M340.12,208.06c1.45-0.78,2.82-1.71,4.05-2.82c3.88-3.52,6.11-8.42,6.11-13.44c0-10.33-9-18.74-20.07-18.74
			H314.1c-3.31,0-6,2.69-6,6v24.69c-0.03,0.26-0.06,0.52-0.06,0.78s0.02,0.53,0.06,0.78v21.38c0,3.31,2.69,6,6,6s6-2.69,6-6v-16.16
			h7.66l10.65,19.06c1.1,1.97,3.14,3.08,5.24,3.08c0.99,0,1.99-0.25,2.92-0.76c2.89-1.62,3.93-5.27,2.31-8.16L340.12,208.06z
			 M336.12,196.34c-1.54,1.39-3.69,2.19-5.91,2.19H320.1v-13.47h10.12c4.37,0,8.07,3.08,8.07,6.74
			C338.28,193.46,337.51,195.07,336.12,196.34z"/>
	</g>
</g>
</svg>
