<?xml version="1.0" encoding="utf-8"?>
<!-- Generator: Adobe Illustrator 24.1.2, SVG Export Plug-In . SVG Version: 6.00 Build 0)  -->
<svg version="1.1" id="Warstwa_1" xmlns="http://www.w3.org/2000/svg" xmlns:xlink="http://www.w3.org/1999/xlink" x="0px" y="0px"
	 viewBox="0 0 430 430" style="enable-background:new 0 0 430 430;" xml:space="preserve">
<style type="text/css">
	.st0{fill:#121331;}
	.st1{fill:#08a88a;}
	.st2{fill:none;stroke:#121331;stroke-width:12;stroke-linecap:round;stroke-linejoin:round;stroke-miterlimit:10;}
	.st3{fill:#00A689;}
</style>
<g>
	<path class="st1" d="M241.69,171.92c-3.31,0-6,2.69-6,6v10.39c0,1.27-0.74,2.44-1.89,2.97L221,197.25v-31.44
		c1.12,1,2.55,1.53,4.01,1.53c1.14,0,2.3-0.33,3.32-1c2.76-1.83,3.51-5.56,1.67-8.32L220,142.98c0,0-0.01-0.01-0.01-0.01
		c-0.13-0.19-0.26-0.37-0.41-0.54c-0.04-0.05-0.09-0.1-0.13-0.15c-0.11-0.12-0.22-0.23-0.33-0.34c-0.06-0.05-0.11-0.1-0.17-0.15
		c-0.12-0.11-0.25-0.21-0.38-0.31c-0.05-0.04-0.09-0.07-0.14-0.11c-0.19-0.13-0.38-0.25-0.58-0.36c0,0-0.01,0-0.01-0.01
		c-0.19-0.1-0.4-0.19-0.6-0.28c-0.05-0.02-0.1-0.04-0.15-0.06c-0.16-0.06-0.33-0.11-0.5-0.16c-0.06-0.02-0.13-0.03-0.19-0.05
		c-0.17-0.04-0.33-0.07-0.51-0.1c-0.06-0.01-0.12-0.02-0.18-0.03c-0.23-0.03-0.46-0.04-0.69-0.04s-0.47,0.02-0.69,0.04
		c-0.06,0.01-0.12,0.02-0.19,0.03c-0.17,0.03-0.34,0.06-0.5,0.09c-0.06,0.02-0.13,0.03-0.19,0.05c-0.17,0.05-0.33,0.1-0.49,0.16
		c-0.05,0.02-0.11,0.04-0.16,0.06c-0.2,0.08-0.4,0.17-0.59,0.27c-0.01,0-0.01,0.01-0.02,0.01c-0.2,0.11-0.39,0.23-0.58,0.36
		c-0.05,0.04-0.1,0.07-0.15,0.11c-0.13,0.1-0.26,0.2-0.38,0.3c-0.06,0.05-0.12,0.1-0.17,0.16c-0.12,0.11-0.23,0.22-0.33,0.34
		c-0.04,0.05-0.09,0.1-0.14,0.15c-0.15,0.17-0.28,0.35-0.41,0.54c0,0-0.01,0.01-0.01,0.01L200,158.02
		c-1.83,2.76-1.09,6.48,1.67,8.32c2.33,1.55,5.34,1.25,7.33-0.54v49.36l-12.79-5.97c-1.15-0.54-1.89-1.7-1.89-2.97v-10.39
		c0-3.31-2.69-6-6-6s-6,2.69-6,6v10.39c0,5.91,3.46,11.35,8.82,13.85l17.87,8.34v6.65c-0.51,0.35-0.99,0.74-1.42,1.18
		c-0.49,0.48-0.93,1.02-1.31,1.59s-0.7,1.18-0.97,1.81c-0.26,0.64-0.46,1.3-0.59,1.97c-0.14,0.68-0.21,1.37-0.21,2.05
		c0,0.68,0.07,1.37,0.21,2.05c0.13,0.67,0.33,1.33,0.59,1.97c0.27,0.63,0.59,1.24,0.97,1.81c0.38,0.57,0.82,1.11,1.31,1.6
		c0.48,0.48,1.02,0.92,1.59,1.3s1.18,0.7,1.81,0.97c0.64,0.26,1.3,0.46,1.97,0.59c0.68,0.14,1.37,0.21,2.05,0.21
		c2.76,0,5.47-1.12,7.42-3.07c0.49-0.49,0.93-1.03,1.31-1.6c0.38-0.57,0.7-1.18,0.96-1.81c0.27-0.64,0.47-1.3,0.6-1.97
		c0.14-0.68,0.21-1.37,0.21-2.05c0-0.68-0.07-1.37-0.21-2.05c-0.13-0.67-0.33-1.33-0.6-1.97c-0.26-0.63-0.58-1.24-0.96-1.81
		s-0.82-1.11-1.31-1.59c-0.43-0.44-0.92-0.81-1.42-1.16V210.5l17.87-8.34c5.36-2.5,8.82-7.94,8.82-13.85v-10.39
		C247.69,174.61,245,171.92,241.69,171.92z"/>
	<g>
		<path class="st0" d="M301.94,122.45c-3.67-4.35-9.04-6.85-14.74-6.85H277V54.88c0-3.31-2.69-6-6-6H159c-3.31,0-6,2.69-6,6v60.72
			h-10.2c-5.69,0-11.06,2.5-14.74,6.85c-3.67,4.35-5.23,10.07-4.27,15.68l18.48,107.92c2.7,15.79,15.88,27.41,31.7,28.27v21.19
			c0,8.53,6.63,15.53,15.01,16.15v63.46c0,3.31,2.69,6,6,6s6-2.69,6-6v-63.4h28.03v63.4c0,3.31,2.69,6,6,6s6-2.69,6-6v-63.46
			c8.38-0.62,15.01-7.62,15.01-16.15v-21.19c15.82-0.86,29-12.48,31.7-28.27l18.48-107.92C307.16,132.51,305.61,126.8,301.94,122.45
			z M165,60.88h100v54.72H165V60.88z M244.03,295.51c0,2.32-1.89,4.21-4.21,4.21h-49.63c-2.32,0-4.21-1.89-4.21-4.21v-21.13h58.05
			V295.51z M294.37,136.1L275.9,244.02c-1.82,10.63-10.97,18.35-21.76,18.35h-78.28c-10.79,0-19.94-7.72-21.76-18.35L135.63,136.1
			c-0.36-2.12,0.22-4.28,1.61-5.92s3.41-2.59,5.56-2.59h144.4c2.15,0,4.18,0.94,5.56,2.59S294.74,133.98,294.37,136.1z"/>
		<path class="st0" d="M199.52,82.24h-13.03c-3.31,0-6,2.69-6,6s2.69,6,6,6h13.03c3.31,0,6-2.69,6-6S202.84,82.24,199.52,82.24z"/>
		<path class="st0" d="M243.51,82.24h-13.03c-3.31,0-6,2.69-6,6s2.69,6,6,6h13.03c3.31,0,6-2.69,6-6S246.82,82.24,243.51,82.24z"/>
	</g>
</g>
</svg>
