<?xml version="1.0" encoding="utf-8"?>
<!-- Generator: Adobe Illustrator 24.1.2, SVG Export Plug-In . SVG Version: 6.00 Build 0)  -->
<svg version="1.1" id="Warstwa_1" xmlns="http://www.w3.org/2000/svg" xmlns:xlink="http://www.w3.org/1999/xlink" x="0px" y="0px"
	 viewBox="0 0 430 430" style="enable-background:new 0 0 430 430;" xml:space="preserve">
<style type="text/css">
	.st0{fill:#121331;}
	.st1{fill:#08a88a;}
	.st2{fill:none;stroke:#121331;stroke-width:12;stroke-linecap:round;stroke-linejoin:round;stroke-miterlimit:10;}
	.st3{fill:#00A689;}
</style>
<g>
	<g>
		<path class="st0" d="M360.24,76.03H69.76c-11.51,0-20.88,9.37-20.88,20.88v66.57c0,11.51,9.37,20.88,20.88,20.88h290.47
			c11.51,0,20.88-9.37,20.88-20.88V96.92C381.12,85.4,371.75,76.03,360.24,76.03z M369.12,163.49c0,4.9-3.98,8.88-8.88,8.88H69.76
			c-4.9,0-8.88-3.98-8.88-8.88V96.92c0-4.9,3.98-8.88,8.88-8.88h290.47c4.9,0,8.88,3.98,8.88,8.88V163.49z"/>
		<path class="st0" d="M172.63,280.3H83.11c-11.51,0-20.88,9.37-20.88,20.88v31.9c0,11.51,9.37,20.88,20.88,20.88h89.52
			c11.51,0,20.88-9.37,20.88-20.88v-31.9C193.51,289.67,184.14,280.3,172.63,280.3z M181.51,333.08c0,4.9-3.98,8.88-8.88,8.88H83.11
			c-4.9,0-8.88-3.98-8.88-8.88v-31.9c0-4.9,3.98-8.88,8.88-8.88h89.52c4.9,0,8.88,3.98,8.88,8.88V333.08z"/>
		<path class="st0" d="M346.89,280.3h-89.03c-11.51,0-20.88,9.37-20.88,20.88v31.9c0,11.51,9.37,20.88,20.88,20.88h89.03
			c11.51,0,20.88-9.37,20.88-20.88v-31.9C367.78,289.67,358.41,280.3,346.89,280.3z M355.78,333.08c0,4.9-3.98,8.88-8.88,8.88
			h-89.03c-4.9,0-8.88-3.98-8.88-8.88v-31.9c0-4.9,3.98-8.88,8.88-8.88h89.03c4.9,0,8.88,3.98,8.88,8.88V333.08z"/>
	</g>
	<g>
		<path class="st1" d="M104.17,106.74c-12.94,0-23.46,10.52-23.46,23.46s10.52,23.46,23.46,23.46s23.46-10.52,23.46-23.46
			S117.11,106.74,104.17,106.74z M104.17,141.66c-6.32,0-11.46-5.14-11.46-11.46s5.14-11.46,11.46-11.46
			c6.32,0,11.46,5.14,11.46,11.46S110.49,141.66,104.17,141.66z"/>
		<path class="st1" d="M339.87,121.85H340c3.31,0,6-2.69,6-6s-2.69-6-6-6h-0.13c-3.31,0-6,2.69-6,6S336.56,121.85,339.87,121.85z"/>
		<path class="st1" d="M230.94,109.85h-0.27c-3.31,0-6,2.69-6,6s2.69,6,6,6h0.27c3.31,0,6-2.69,6-6S234.26,109.85,230.94,109.85z"/>
		<path class="st1" d="M257.97,121.85h0.27c3.31,0,6-2.69,6-6s-2.69-6-6-6h-0.27c-3.31,0-6,2.69-6,6S254.66,121.85,257.97,121.85z"
			/>
		<path class="st1" d="M312.84,109.85h-0.27c-3.31,0-6,2.69-6,6s2.69,6,6,6h0.27c3.31,0,6-2.69,6-6S316.16,109.85,312.84,109.85z"/>
		<path class="st1" d="M285.54,109.85h-0.27c-3.31,0-6,2.69-6,6s2.69,6,6,6h0.27c3.31,0,6-2.69,6-6S288.86,109.85,285.54,109.85z"/>
		<path class="st1" d="M203.64,109.85h-0.13c-3.31,0-6,2.69-6,6s2.69,6,6,6h0.13c3.31,0,6-2.69,6-6S206.96,109.85,203.64,109.85z"/>
		<path class="st1" d="M340,138.55h-0.13c-3.31,0-6,2.69-6,6s2.69,6,6,6H340c3.31,0,6-2.69,6-6S343.31,138.55,340,138.55z"/>
		<path class="st1" d="M257.97,150.55h0.27c3.31,0,6-2.69,6-6s-2.69-6-6-6h-0.27c-3.31,0-6,2.69-6,6S254.66,150.55,257.97,150.55z"
			/>
		<path class="st1" d="M230.94,138.55h-0.27c-3.31,0-6,2.69-6,6s2.69,6,6,6h0.27c3.31,0,6-2.69,6-6S234.26,138.55,230.94,138.55z"/>
		<path class="st1" d="M285.54,138.55h-0.27c-3.31,0-6,2.69-6,6s2.69,6,6,6h0.27c3.31,0,6-2.69,6-6S288.86,138.55,285.54,138.55z"/>
		<path class="st1" d="M312.84,138.55h-0.27c-3.31,0-6,2.69-6,6s2.69,6,6,6h0.27c3.31,0,6-2.69,6-6S316.16,138.55,312.84,138.55z"/>
		<path class="st1" d="M203.64,138.55h-0.13c-3.31,0-6,2.69-6,6s2.69,6,6,6h0.13c3.31,0,6-2.69,6-6S206.96,138.55,203.64,138.55z"/>
		<path class="st1" d="M181.35,202.24c-2.93-1.55-6.56-0.44-8.11,2.48l-28.37,53.37c-1.56,2.93-0.44,6.56,2.48,8.11
			c0.9,0.48,1.86,0.7,2.81,0.7c2.15,0,4.23-1.16,5.3-3.19l28.37-53.37C185.38,207.42,184.27,203.79,181.35,202.24z"/>
		<path class="st1" d="M256.77,204.72c-1.56-2.92-5.19-4.04-8.11-2.48c-2.93,1.56-4.04,5.19-2.48,8.11l28.37,53.37
			c1.08,2.03,3.16,3.19,5.3,3.19c0.95,0,1.91-0.23,2.81-0.7c2.93-1.56,4.04-5.19,2.48-8.11L256.77,204.72z"/>
	</g>
</g>
</svg>
