<?xml version="1.0" encoding="utf-8"?>
<!-- Generator: Adobe Illustrator 24.1.2, SVG Export Plug-In . SVG Version: 6.00 Build 0)  -->
<svg version="1.1" id="Warstwa_1" xmlns="http://www.w3.org/2000/svg" xmlns:xlink="http://www.w3.org/1999/xlink" x="0px" y="0px"
	 viewBox="0 0 430 430" style="enable-background:new 0 0 430 430;" xml:space="preserve">
<style type="text/css">
	.st0{fill:#121331;}
	.st1{fill:#08a88a;}
	.st2{fill:none;stroke:#121331;stroke-width:12;stroke-linecap:round;stroke-linejoin:round;stroke-miterlimit:10;}
	.st3{fill:#00A689;}
</style>
<g>
	<g>
		<path class="st1" d="M159.4,86.89c-3.31,0-6,2.69-6,6v42.05c0,3.31,2.69,6,6,6s6-2.69,6-6V92.89
			C165.4,89.58,162.71,86.89,159.4,86.89z"/>
		<path class="st1" d="M193.51,80.91c-3.31,0-6,2.69-6,6v48.04c0,3.31,2.69,6,6,6s6-2.69,6-6V86.91
			C199.51,83.59,196.82,80.91,193.51,80.91z"/>
		<path class="st1" d="M227.62,86.89c-3.31,0-6,2.69-6,6v42.05c0,3.31,2.69,6,6,6s6-2.69,6-6V92.89
			C233.62,89.58,230.93,86.89,227.62,86.89z"/>
		<path class="st1" d="M261.72,80.91c-3.31,0-6,2.69-6,6v48.04c0,3.31,2.69,6,6,6s6-2.69,6-6V86.91
			C267.72,83.59,265.04,80.91,261.72,80.91z"/>
		<path class="st1" d="M295.83,86.89c-3.31,0-6,2.69-6,6v42.05c0,3.31,2.69,6,6,6s6-2.69,6-6V92.89
			C301.83,89.58,299.15,86.89,295.83,86.89z"/>
	</g>
	<g>
		<path class="st0" d="M314.14,48.88H141.1c-12.99,0-23.56,10.57-23.56,23.56v63.86l-23.9,29.55c-0.86,1.07-1.33,2.4-1.33,3.77
			v45.37c0,3.31,2.69,6,6,6h18.83v35.12l-22.02,13.85c-1.75,1.1-2.81,3.02-2.81,5.08v82.52c0,12.99,10.57,23.56,23.56,23.56h198.27
			c12.99,0,23.56-10.57,23.56-23.56V72.44C337.69,59.45,327.12,48.88,314.14,48.88z M325.69,357.56c0,6.37-5.18,11.56-11.56,11.56
			H115.86c-6.37,0-11.56-5.18-11.56-11.56v-79.21l22.02-13.85c1.75-1.1,2.81-3.02,2.81-5.08v-44.43c0-3.31-2.69-6-6-6h-18.83v-37.25
			l23.9-29.55c0.86-1.07,1.33-2.4,1.33-3.77V72.44c0-6.37,5.18-11.56,11.56-11.56h173.04c6.37,0,11.56,5.18,11.56,11.56V357.56z"/>
		<path class="st0" d="M287.02,207.47h-118.8c-8.17,0-14.82,6.65-14.82,14.82v107.59c0,8.17,6.65,14.82,14.82,14.82h118.8
			c8.17,0,14.82-6.65,14.82-14.82V222.28C301.83,214.11,295.19,207.47,287.02,207.47z M289.83,329.87c0,1.55-1.26,2.82-2.82,2.82
			h-118.8c-1.55,0-2.82-1.26-2.82-2.82V222.28c0-1.55,1.26-2.82,2.82-2.82h118.8c1.55,0,2.82,1.26,2.82,2.82V329.87z"/>
	</g>
</g>
</svg>
