<?xml version="1.0" encoding="utf-8"?>
<!-- Generator: Adobe Illustrator 24.1.2, SVG Export Plug-In . SVG Version: 6.00 Build 0)  -->
<svg version="1.1" id="Warstwa_1" xmlns="http://www.w3.org/2000/svg" xmlns:xlink="http://www.w3.org/1999/xlink" x="0px" y="0px"
	 viewBox="0 0 430 430" style="enable-background:new 0 0 430 430;" xml:space="preserve">
<style type="text/css">
	.st0{fill:#121331;}
	.st1{fill:#08a88a;}
	.st2{fill:none;stroke:#121331;stroke-width:12;stroke-linecap:round;stroke-linejoin:round;stroke-miterlimit:10;}
	.st3{fill:#00A689;}
</style>
<g>
	<path class="st0" d="M317.2,273.05l-8.01-143.31c-2.53-45.34-40.09-80.86-85.5-80.86h-8.59c-0.03,0-0.06,0-0.1,0s-0.06,0-0.1,0
		h-8.59c0,0,0,0,0,0c-45.41,0-82.97,35.52-85.5,80.86l-8.01,143.31c-1.59,28.38,8.3,55.39,27.83,76.04
		c19.53,20.65,45.94,32.03,74.37,32.03s54.84-11.37,74.37-32.03C308.9,328.44,318.78,301.43,317.2,273.05z M206.31,60.89H209v39.58
		c0,3.31,2.69,6,6,6s6-2.69,6-6V60.89h2.69c39.05,0,71.34,30.54,73.52,69.53l2.38,42.64C284.13,186,254.73,194.24,221,195.11v-27.25
		c0-3.31-2.69-6-6-6s-6,2.69-6,6v27.25c-33.73-0.88-63.13-9.12-78.59-22.06l2.38-42.64C134.97,91.42,167.26,60.89,206.31,60.89z
		 M280.65,340.85c-17.24,18.23-40.56,28.27-65.65,28.27s-48.41-10.04-65.65-28.27c-17.24-18.23-25.97-42.07-24.57-67.13l4.83-86.41
		c19.58,12.59,50.37,19.89,85.39,19.89s65.81-7.3,85.39-19.89l4.83,86.41C306.62,298.77,297.89,322.61,280.65,340.85z"/>
	<path class="st1" d="M217.26,173.87h-2.51c-10.93,0-19.83-8.9-19.83-19.83v-39.75c0-10.93,8.89-19.83,19.83-19.83h2.51
		c10.93,0,19.83,8.9,19.83,19.83v39.75C237.08,164.97,228.19,173.87,217.26,173.87z M214.74,106.46c-4.32,0-7.83,3.51-7.83,7.83
		v39.75c0,4.32,3.51,7.83,7.83,7.83h2.51c4.32,0,7.83-3.51,7.83-7.83v-39.75c0-4.32-3.51-7.83-7.83-7.83H214.74z"/>
</g>
</svg>
