<?xml version="1.0" encoding="utf-8"?>
<!-- Generator: Adobe Illustrator 24.1.2, SVG Export Plug-In . SVG Version: 6.00 Build 0)  -->
<svg version="1.1" id="Warstwa_1" xmlns="http://www.w3.org/2000/svg" xmlns:xlink="http://www.w3.org/1999/xlink" x="0px" y="0px"
	 viewBox="0 0 430 430" style="enable-background:new 0 0 430 430;" xml:space="preserve">
<style type="text/css">
	.st0{fill:#121331;}
	.st1{fill:#08a88a;}
	.st2{fill:none;stroke:#121331;stroke-width:12;stroke-linecap:round;stroke-linejoin:round;stroke-miterlimit:10;}
	.st3{fill:#00A689;}
</style>
<g>
	<path class="st0" d="M322.6,334.06H107.4c-31.48,0-57.1-25.61-57.1-57.1V153.04c0-31.48,25.62-57.1,57.1-57.1h215.2
		c31.48,0,57.1,25.61,57.1,57.1v123.93C379.7,308.45,354.08,334.06,322.6,334.06z M107.4,107.94c-24.87,0-45.1,20.23-45.1,45.1
		v123.93c0,24.87,20.23,45.1,45.1,45.1h215.2c24.87,0,45.1-20.23,45.1-45.1V153.04c0-24.87-20.23-45.1-45.1-45.1H107.4z"/>
	<g>
		<path class="st1" d="M172.5,208.52c-12.47-3.45-15.04-5.31-14.5-10.46c0.35-3.31,3.3-6.59,7.02-7.79
			c7.25-2.35,16.23,1.46,20.44,8.68c1.67,2.86,5.35,3.82,8.21,2.15c2.86-1.67,3.82-5.35,2.15-8.21
			c-7.07-12.09-21.9-18.12-34.51-14.03c-8.27,2.68-14.4,9.89-15.25,17.94c-1.74,16.39,13.29,20.55,23.23,23.3
			c12.2,3.37,15.98,5.37,15.83,11.31c-0.05,2.02-1.25,4.24-3.13,5.8c-2.46,2.04-5.62,2.8-7.84,3.08c-7.64,0.97-15.75-2.4-20.66-8.6
			c-2.06-2.6-5.83-3.03-8.43-0.97s-3.03,5.83-0.97,8.43c6.68,8.43,16.88,13.31,27.36,13.31c1.4,0,2.81-0.09,4.22-0.27
			c5.44-0.69,10.27-2.67,13.98-5.74c4.55-3.76,7.35-9.28,7.48-14.75C197.53,215.44,183.07,211.44,172.5,208.52z"/>
		<path class="st1" d="M338.3,180.22c-3.31,0-6,2.69-6,6v40l-28.18-43.28c-1.45-2.23-4.19-3.23-6.74-2.48
			c-2.55,0.76-4.29,3.1-4.29,5.75v60.21c0,3.31,2.69,6,6,6s6-2.69,6-6v-40l28.18,43.28c1.13,1.73,3.04,2.73,5.03,2.73
			c0.57,0,1.14-0.08,1.71-0.25c2.55-0.76,4.29-3.1,4.29-5.75v-60.21C344.3,182.91,341.61,180.22,338.3,180.22z"/>
		<path class="st1" d="M245.05,177.56c-19.85,0-36,16.8-36,37.44s16.15,37.44,36,37.44c19.85,0,36-16.8,36-37.44
			S264.9,177.56,245.05,177.56z M245.05,240.44c-13.23,0-24-11.41-24-25.44s10.77-25.44,24-25.44s24,11.41,24,25.44
			S258.28,240.44,245.05,240.44z"/>
		<path class="st1" d="M123.91,177.74c-3.31,0-6,2.69-6,6v43.1c0,7.5-6.1,13.6-13.6,13.6s-13.6-6.1-13.6-13.6c0-3.31-2.69-6-6-6
			s-6,2.69-6,6c0,14.12,11.49,25.6,25.6,25.6s25.6-11.49,25.6-25.6v-43.1C129.91,180.42,127.22,177.74,123.91,177.74z"/>
	</g>
</g>
</svg>
