<?xml version="1.0" encoding="utf-8"?>
<!-- Generator: Adobe Illustrator 24.1.2, SVG Export Plug-In . SVG Version: 6.00 Build 0)  -->
<svg version="1.1" id="Warstwa_1" xmlns="http://www.w3.org/2000/svg" xmlns:xlink="http://www.w3.org/1999/xlink" x="0px" y="0px"
	 viewBox="0 0 430 430" style="enable-background:new 0 0 430 430;" xml:space="preserve">
<style type="text/css">
	.st0{fill:#121331;}
	.st1{fill:#08a88a;}
	.st2{fill:none;stroke:#121331;stroke-width:12;stroke-linecap:round;stroke-linejoin:round;stroke-miterlimit:10;}
	.st3{fill:#00A689;}
</style>
<g>
	<path class="st0" d="M322.6,334.06H107.4c-31.49,0-57.1-25.61-57.1-57.1V153.04c0-31.48,25.62-57.1,57.1-57.1h215.2
		c31.49,0,57.1,25.61,57.1,57.1v123.93C379.7,308.45,354.08,334.06,322.6,334.06z M107.4,107.94c-24.87,0-45.1,20.23-45.1,45.1
		v123.93c0,24.87,20.23,45.1,45.1,45.1h215.2c24.87,0,45.1-20.23,45.1-45.1V153.04c0-24.87-20.23-45.1-45.1-45.1H107.4z"/>
	<g>
		<path class="st1" d="M127.91,178.33c-3.31,0-6,2.69-6,6v43.1c0,7.5-6.1,13.6-13.6,13.6c-7.5,0-13.6-6.1-13.6-13.6
			c0-3.31-2.69-6-6-6s-6,2.69-6,6c0,14.12,11.49,25.6,25.6,25.6c14.12,0,25.6-11.49,25.6-25.6v-43.1
			C133.91,181.02,131.22,178.33,127.91,178.33z"/>
		<path class="st1" d="M204.04,229.3c-0.01-0.02-0.01-0.03-0.02-0.05l-19.61-47.22c-0.92-2.22-3.07-3.67-5.47-3.7
			c-0.02,0-0.05,0-0.07,0c-2.37,0-4.52,1.4-5.48,3.57l-27.83,62.7c-1.34,3.03,0.02,6.57,3.05,7.92c3.03,1.35,6.57-0.02,7.92-3.05
			l5.27-11.86h32.71l4.87,11.73c0.96,2.31,3.19,3.7,5.54,3.7c0.77,0,1.55-0.15,2.3-0.46c3.06-1.27,4.51-4.78,3.24-7.84L204.04,229.3
			z M167.11,225.61l11.57-26.07l10.83,26.07H167.11z"/>
		<path class="st1" d="M340.88,243.37l-6.41-15.43c-0.01-0.02-0.01-0.03-0.02-0.05l-19.61-47.22c-0.92-2.22-3.07-3.67-5.47-3.7
			c-0.02,0-0.05,0-0.07,0c-2.37,0-4.52,1.4-5.48,3.57l-27.83,62.7c-1.34,3.03,0.02,6.57,3.05,7.92c3.03,1.35,6.57-0.02,7.92-3.05
			l5.27-11.86h32.71l4.87,11.73c0.96,2.31,3.19,3.7,5.54,3.7c0.77,0,1.55-0.15,2.3-0.46C340.7,249.94,342.15,246.43,340.88,243.37z
			 M297.54,224.24l11.57-26.07l10.83,26.07H297.54z"/>
		<path class="st1" d="M271.32,178.79c-3.06-1.27-6.57,0.18-7.84,3.24l-20.68,49.8l-22.16-49.93c-1.34-3.03-4.89-4.39-7.92-3.05
			c-3.03,1.34-4.39,4.89-3.05,7.92l27.83,62.7c0.96,2.17,3.11,3.57,5.48,3.57c0.02,0,0.05,0,0.07,0c2.4-0.03,4.55-1.48,5.47-3.7
			l26.04-62.7C275.83,183.57,274.38,180.06,271.32,178.79z"/>
	</g>
</g>
</svg>
