<?xml version="1.0" encoding="utf-8"?>
<!-- Generator: Adobe Illustrator 25.2.0, SVG Export Plug-In . SVG Version: 6.00 Build 0)  -->
<svg version="1.1" id="Warstwa_1" xmlns="http://www.w3.org/2000/svg" xmlns:xlink="http://www.w3.org/1999/xlink" x="0px" y="0px"
	 viewBox="0 0 430 430" style="enable-background:new 0 0 430 430;" xml:space="preserve">
<style type="text/css">
	.st0{fill:#121331;}
	.st1{fill:#08a88a;}
</style>
<path class="st0" d="M322.6,334.06H107.4c-31.49,0-57.1-25.61-57.1-57.1V153.04c0-31.48,25.62-57.1,57.1-57.1h215.2
	c31.49,0,57.1,25.61,57.1,57.1v123.93C379.7,308.45,354.08,334.06,322.6,334.06z M107.4,107.94c-24.87,0-45.1,20.23-45.1,45.1
	v123.93c0,24.87,20.23,45.1,45.1,45.1h215.2c24.87,0,45.1-20.23,45.1-45.1V153.04c0-24.87-20.23-45.1-45.1-45.1
	C322.6,107.94,107.4,107.94,107.4,107.94z"/>
<path class="st1" d="M155.26,253.03c-20.97,0-38.03-17.06-38.03-38.03c0-20.97,17.06-38.03,38.03-38.03
	c9.07,0,17.85,3.24,24.73,9.14c2.52,2.16,2.81,5.94,0.65,8.46c-2.16,2.52-5.94,2.81-8.46,0.65c-4.71-4.03-10.71-6.25-16.92-6.25
	c-14.36,0-26.03,11.68-26.03,26.03s11.68,26.03,26.03,26.03c6.21,0,12.21-2.22,16.92-6.25c2.52-2.16,6.31-1.86,8.46,0.65
	c2.16,2.52,1.86,6.3-0.65,8.46C173.11,249.79,164.33,253.03,155.26,253.03z"/>
<g>
	<path class="st1" d="M227.94,242.27c-3.31,0-6-2.69-6-6v-41.94c0-3.31,2.69-6,6-6s6,2.69,6,6v41.94
		C233.94,239.58,231.26,242.27,227.94,242.27z"/>
	<path class="st1" d="M248.91,221.3h-41.94c-3.31,0-6-2.69-6-6c0-3.31,2.69-6,6-6h41.94c3.31,0,6,2.69,6,6
		C254.91,218.62,252.23,221.3,248.91,221.3z"/>
</g>
<g>
	<path class="st1" d="M300.77,242.27c-3.31,0-6-2.69-6-6v-41.94c0-3.31,2.69-6,6-6s6,2.69,6,6v41.94
		C306.77,239.58,304.08,242.27,300.77,242.27z"/>
	<path class="st1" d="M321.74,221.3H279.8c-3.31,0-6-2.69-6-6c0-3.31,2.69-6,6-6h41.94c3.31,0,6,2.69,6,6
		C327.74,218.62,325.05,221.3,321.74,221.3z"/>
</g>
</svg>
