<?xml version="1.0" encoding="utf-8"?>
<!-- Generator: Adobe Illustrator 24.1.2, SVG Export Plug-In . SVG Version: 6.00 Build 0)  -->
<svg version="1.1" id="Warstwa_1" xmlns="http://www.w3.org/2000/svg" xmlns:xlink="http://www.w3.org/1999/xlink" x="0px" y="0px"
	 viewBox="0 0 430 430" style="enable-background:new 0 0 430 430;" xml:space="preserve">
<style type="text/css">
	.st0{fill:#121331;}
	.st1{fill:#08a88a;}
	.st2{fill:none;stroke:#121331;stroke-width:12;stroke-linecap:round;stroke-linejoin:round;stroke-miterlimit:10;}
	.st3{fill:#00A689;}
</style>
<g>
	<g>
		<path class="st1" d="M232.58,186.53h-15.35c-0.41,0-0.82,0.04-1.21,0.12c-2.73,0.56-4.79,2.98-4.79,5.88v45.26c0,3.31,2.69,6,6,6
			s6-2.69,6-6v-15h9.35c5.05,0,9.83-1.82,13.49-5.12c3.81-3.46,5.91-8.08,5.91-13.01C251.98,194.67,243.28,186.53,232.58,186.53z
			 M238.01,208.78c-1.41,1.28-3.39,2.01-5.43,2.01h-9.35v-12.26h9.35c4.01,0,7.4,2.81,7.4,6.13
			C239.98,206.17,239.28,207.63,238.01,208.78z"/>
		<path class="st1" d="M199.38,224.25c0-0.01-0.01-0.02-0.01-0.03l-14.25-34.32c-0.92-2.22-3.07-3.67-5.47-3.7
			c-0.02,0-0.05,0-0.07,0c-2.37,0-4.52,1.4-5.48,3.57l-20.23,45.58c-1.34,3.03,0.02,6.57,3.05,7.92c3.03,1.34,6.57-0.02,7.92-3.05
			l3.39-7.65h21.62l3.12,7.52c0.96,2.31,3.19,3.7,5.54,3.7c0.77,0,1.55-0.15,2.3-0.46c3.06-1.27,4.51-4.78,3.24-7.84L199.38,224.25z
			 M173.54,220.57l5.84-13.16l5.47,13.16H173.54z"/>
		<path class="st1" d="M266.66,186.53c-3.31,0-6,2.69-6,6v45.26c0,3.31,2.69,6,6,6s6-2.69,6-6v-45.26
			C272.66,189.22,269.97,186.53,266.66,186.53z"/>
	</g>
	<g>
		<path class="st0" d="M377.05,231.62l-24.27-16.63l24.27-16.63c1.87-1.28,2.86-3.5,2.56-5.74c-2.64-19.76-8.78-38.69-18.24-56.28
			c-1.08-2-3.19-3.21-5.45-3.15l-29.46,0.82l9.87-27.73c0.76-2.14,0.25-4.52-1.32-6.16c-13.79-14.39-29.88-26.09-47.83-34.78
			c-2.04-0.99-4.48-0.74-6.28,0.65l-23.33,17.97l-8.31-28.23c-0.64-2.18-2.46-3.81-4.7-4.21c-19.45-3.49-39.7-3.49-59.15,0
			c-2.24,0.4-4.05,2.03-4.7,4.21l-8.31,28.23l-23.33-17.97c-1.8-1.39-4.23-1.64-6.28-0.65c-17.94,8.69-34.04,20.39-47.83,34.78
			c-1.57,1.64-2.08,4.02-1.32,6.16l9.87,27.73l-29.46-0.82c-2.27-0.06-4.38,1.16-5.45,3.15c-9.46,17.59-15.6,36.52-18.24,56.28
			c-0.3,2.24,0.69,4.46,2.56,5.74l24.27,16.63l-24.27,16.63c-1.87,1.28-2.86,3.5-2.56,5.74c2.64,19.74,8.78,38.68,18.26,56.29
			c1.08,2,3.2,3.2,5.45,3.16l29.44-0.82l-9.86,27.71c-0.76,2.14-0.25,4.52,1.32,6.16c13.78,14.42,29.86,26.12,47.8,34.79
			c2.04,0.99,4.47,0.74,6.27-0.65l23.35-17.97l8.33,28.26c0.64,2.17,2.45,3.8,4.68,4.21c9.62,1.75,19.57,2.63,29.57,2.63
			s19.95-0.89,29.57-2.63c2.23-0.4,4.04-2.03,4.68-4.21l8.33-28.26L280.93,364c1.8,1.38,4.22,1.64,6.27,0.65
			c17.94-8.66,34.02-20.37,47.8-34.79c1.57-1.64,2.08-4.02,1.32-6.16l-9.86-27.71l29.44,0.82c2.24,0.03,4.38-1.16,5.45-3.16
			c9.48-17.61,15.62-36.55,18.26-56.29C379.91,235.12,378.92,232.9,377.05,231.62z M352.49,284.71l-34.45-0.96
			c-1.96-0.04-3.86,0.87-5.02,2.47c-1.16,1.6-1.46,3.67-0.8,5.54l11.54,32.44c-11.33,11.31-24.25,20.71-38.47,28l-27.32-21.02
			c-1.57-1.21-3.63-1.56-5.51-0.95c-1.88,0.61-3.34,2.11-3.9,4.01l-9.75,33.06c-15.57,2.43-32.04,2.43-47.6,0l-9.75-33.06
			c-0.56-1.9-2.02-3.4-3.9-4.01c-1.88-0.61-3.94-0.26-5.51,0.95l-27.32,21.02c-14.23-7.29-27.14-16.69-38.47-28l11.54-32.44
			c0.66-1.87,0.36-3.94-0.8-5.54c-1.16-1.6-3.06-2.52-5.02-2.47l-34.45,0.96c-7.27-14.31-12.2-29.52-14.7-45.31l28.4-19.46
			c1.63-1.12,2.61-2.97,2.61-4.95c0-1.98-0.98-3.83-2.61-4.95l-28.4-19.46c2.5-15.8,7.42-31,14.68-45.29l34.47,0.96
			c2,0.04,3.86-0.87,5.02-2.47c1.16-1.6,1.46-3.67,0.8-5.54l-11.55-32.45c11.34-11.29,24.27-20.69,38.51-28l27.29,21.02
			c1.57,1.21,3.63,1.56,5.51,0.95c1.88-0.61,3.34-2.11,3.9-4.01l9.73-33.03c15.73-2.43,31.91-2.43,47.64,0l9.73,33.03
			c0.56,1.9,2.02,3.4,3.9,4.01c1.88,0.61,3.95,0.26,5.51-0.95l27.29-21.02c14.24,7.31,27.17,16.71,38.51,28l-11.55,32.45
			c-0.66,1.86-0.37,3.94,0.8,5.54c1.16,1.6,3.02,2.51,5.02,2.47l34.47-0.96c7.26,14.29,12.18,29.49,14.68,45.29l-28.4,19.46
			c-1.63,1.12-2.61,2.97-2.61,4.95c0,1.98,0.98,3.83,2.61,4.95l28.4,19.46C364.69,255.19,359.76,270.4,352.49,284.71z"/>
		<path class="st0" d="M215,117.84c-53.58,0-97.16,43.59-97.16,97.16c0,53.58,43.59,97.16,97.16,97.16s97.16-43.59,97.16-97.16
			C312.16,161.42,268.58,117.84,215,117.84z M215,300.16c-46.96,0-85.16-38.2-85.16-85.16s38.2-85.16,85.16-85.16
			s85.16,38.2,85.16,85.16S261.96,300.16,215,300.16z"/>
	</g>
</g>
</svg>
