<?xml version="1.0" encoding="utf-8"?>
<!-- Generator: Adobe Illustrator 24.1.2, SVG Export Plug-In . SVG Version: 6.00 Build 0)  -->
<svg version="1.1" id="Warstwa_1" xmlns="http://www.w3.org/2000/svg" xmlns:xlink="http://www.w3.org/1999/xlink" x="0px" y="0px"
	 viewBox="0 0 430 430" style="enable-background:new 0 0 430 430;" xml:space="preserve">
<style type="text/css">
	.st0{fill:#121331;}
	.st1{fill:#08a88a;}
	.st2{fill:none;stroke:#121331;stroke-width:12;stroke-linecap:round;stroke-linejoin:round;stroke-miterlimit:10;}
	.st3{fill:#00A689;}
</style>
<g>
	<g>
		<path class="st1" d="M89.51,262.86H18.57c-3.31,0-6,2.69-6,6s2.69,6,6,6h70.95c3.31,0,6-2.69,6-6S92.83,262.86,89.51,262.86z"/>
		<path class="st1" d="M87.24,183.86h4.54c3.31,0,6-2.69,6-6s-2.69-6-6-6h-4.54c-3.31,0-6,2.69-6,6S83.93,183.86,87.24,183.86z"/>
		<path class="st1" d="M91.78,200.08h-4.54c-3.31,0-6,2.69-6,6s2.69,6,6,6h4.54c3.31,0,6-2.69,6-6S95.1,200.08,91.78,200.08z"/>
	</g>
	<path class="st0" d="M416.69,231.81c-1.05-1.92-3.07-3.11-5.26-3.11L303,228.69c0,0,0,0,0,0c-1.59,0-3.12,0.63-4.24,1.76
		c-1.13,1.13-1.76,2.65-1.76,4.24v18.36c0,5.41-4.4,9.81-9.81,9.81H176.3c-5.41,0-9.81-4.4-9.81-9.81v-18.36c0-3.31-2.69-6-6-6
		h-36.18v-77.58l25.6-37.77c1.25-1.84,1.38-4.22,0.33-6.18c-1.04-1.96-3.08-3.18-5.3-3.18c0,0-0.01,0-0.01,0l-110.96,0.25
		c-2.22,0-4.26,1.24-5.3,3.21s-0.9,4.35,0.36,6.18l25.67,37.51v77.57H18.57c-3.31,0-6,2.69-6,6v34.1
		c0,31.56,25.68,57.24,57.24,57.24h287.37c2.05,0,3.96-1.05,5.06-2.78l54.26-85.33C417.67,236.07,417.75,233.73,416.69,231.81z
		 M133.62,116l-18.43,27.19L63.9,143.3l-18.55-27.11L133.62,116z M66.71,155.3l45.61-0.1v73.49H66.71V155.3z M353.88,314.03H69.8
		c-24.95,0-45.24-20.29-45.24-45.24v-28.1H154.5v12.36c0,12.03,9.78,21.81,21.81,21.81h110.88c12.03,0,21.81-9.78,21.81-21.81
		v-12.36l91.51,0.01L353.88,314.03z"/>
</g>
</svg>
