<?xml version="1.0" encoding="utf-8"?>
<!-- Generator: Adobe Illustrator 24.1.2, SVG Export Plug-In . SVG Version: 6.00 Build 0)  -->
<svg version="1.1" id="Warstwa_1" xmlns="http://www.w3.org/2000/svg" xmlns:xlink="http://www.w3.org/1999/xlink" x="0px" y="0px"
	 viewBox="0 0 430 430" style="enable-background:new 0 0 430 430;" xml:space="preserve">
<style type="text/css">
	.st0{fill:#121331;}
	.st1{fill:#08a88a;}
	.st2{fill:none;stroke:#121331;stroke-width:12;stroke-linecap:round;stroke-linejoin:round;stroke-miterlimit:10;}
	.st3{fill:#00A689;}
</style>
<g>
	<path class="st0" d="M214.97,381.52c-0.01,0-0.01,0-0.02,0c-23.81-0.01-44.61-13.32-54.58-34.41c-21.97,7.85-46.09,2.54-62.92-14.3
		c-16.83-16.84-22.12-40.96-14.26-62.92c-21.08-9.98-34.38-30.79-34.38-54.6c0.01-23.81,13.32-44.61,34.41-54.58
		c-7.85-21.97-2.54-46.09,14.3-62.92c16.84-16.83,40.96-22.13,62.92-14.26c9.98-21.08,30.78-34.38,54.58-34.38c0.01,0,0.01,0,0.02,0
		c23.81,0.01,44.61,13.32,54.58,34.41c21.96-7.85,46.09-2.54,62.92,14.3s22.13,40.96,14.26,62.93c21.08,9.98,34.38,30.79,34.38,54.6
		c-0.01,23.81-13.32,44.61-34.41,54.58c7.85,21.97,2.54,46.09-14.3,62.92c-16.84,16.83-40.96,22.13-62.92,14.26
		C259.57,368.22,238.77,381.52,214.97,381.52z M163.62,333.27c0.78,0,1.56,0.15,2.3,0.46c1.57,0.65,2.79,1.93,3.36,3.53
		c8.45,23.78,29.13,32.25,45.68,32.26c0,0,0.01,0,0.01,0c16.54,0,37.22-8.47,45.68-32.23c0.57-1.6,1.79-2.88,3.36-3.53
		c1.57-0.65,3.34-0.6,4.87,0.13c22.79,10.84,43.41,2.2,55.11-9.49s20.35-32.31,9.52-55.1c-0.73-1.53-0.77-3.3-0.12-4.87
		c0.65-1.57,1.93-2.79,3.53-3.36c23.78-8.45,32.25-29.13,32.26-45.68c0.01-16.54-8.46-37.24-32.23-45.7
		c-1.6-0.57-2.88-1.79-3.53-3.36c-0.65-1.57-0.6-3.34,0.13-4.87c10.84-22.79,2.21-43.41-9.49-55.11
		c-11.7-11.7-32.31-20.35-55.1-9.52c-1.53,0.73-3.3,0.77-4.87,0.12c-1.57-0.65-2.79-1.93-3.36-3.53
		c-8.45-23.78-29.13-32.25-45.68-32.26c0,0-0.01,0-0.01,0c-16.54,0-37.22,8.47-45.68,32.23c-0.57,1.6-1.79,2.88-3.36,3.53
		c-1.57,0.65-3.34,0.6-4.87-0.13c-22.78-10.84-43.41-2.21-55.11,9.49c-11.7,11.69-20.35,32.31-9.52,55.1
		c0.73,1.53,0.77,3.3,0.12,4.87c-0.65,1.57-1.93,2.79-3.53,3.36c-23.78,8.45-32.25,29.13-32.26,45.68
		c-0.01,16.54,8.46,37.24,32.23,45.7c1.6,0.57,2.88,1.79,3.53,3.36c0.65,1.57,0.6,3.34-0.13,4.87
		c-10.84,22.79-2.21,43.41,9.49,55.11c11.69,11.7,32.31,20.35,55.1,9.52C161.86,333.47,162.74,333.27,163.62,333.27z"/>
	<path class="st0" d="M214.97,380.84c-0.01,0-0.01,0-0.02,0c-23.81-0.01-44.61-13.32-54.58-34.41c-21.96,7.85-46.09,2.54-62.92-14.3
		s-22.13-40.96-14.26-62.93c-21.08-9.98-34.38-30.79-34.38-54.6c0.01-23.81,13.32-44.61,34.41-54.58
		c-7.85-21.97-2.54-46.09,14.3-62.92c16.84-16.83,40.97-22.13,62.92-14.26c9.98-21.08,30.78-34.38,54.58-34.38c0.01,0,0.01,0,0.02,0
		c23.81,0.01,44.61,13.32,54.58,34.41c21.97-7.85,46.09-2.54,62.92,14.3c16.83,16.84,22.12,40.96,14.26,62.92
		c21.08,9.98,34.38,30.79,34.38,54.6c-0.01,23.81-13.32,44.61-34.41,54.58c7.85,21.97,2.54,46.09-14.3,62.92
		c-16.84,16.83-40.96,22.12-62.92,14.26C259.57,367.54,238.77,380.84,214.97,380.84z M163.62,332.59c0.78,0,1.56,0.15,2.3,0.46
		c1.57,0.65,2.79,1.93,3.36,3.53c8.45,23.78,29.13,32.25,45.68,32.26c0,0,0.01,0,0.01,0c16.54,0,37.22-8.47,45.68-32.23
		c0.57-1.6,1.79-2.88,3.36-3.53c1.57-0.65,3.34-0.6,4.87,0.13c22.78,10.84,43.41,2.21,55.11-9.49c11.7-11.69,20.35-32.31,9.52-55.1
		c-0.73-1.53-0.77-3.3-0.12-4.87c0.65-1.57,1.93-2.79,3.53-3.36c23.78-8.45,32.25-29.13,32.26-45.68
		c0.01-16.54-8.46-37.24-32.23-45.7c-1.6-0.57-2.88-1.79-3.53-3.36c-0.65-1.57-0.6-3.34,0.13-4.87
		c10.84-22.79,2.21-43.41-9.49-55.11c-11.69-11.7-32.31-20.35-55.1-9.52c-1.53,0.73-3.3,0.77-4.87,0.12
		c-1.57-0.65-2.79-1.93-3.36-3.53c-8.45-23.78-29.13-32.25-45.68-32.26c0,0-0.01,0-0.01,0c-16.54,0-37.22,8.47-45.68,32.23
		c-0.57,1.6-1.79,2.88-3.36,3.53c-1.57,0.65-3.34,0.6-4.87-0.13c-22.79-10.84-43.41-2.2-55.11,9.49s-20.35,32.31-9.52,55.1
		c0.73,1.53,0.77,3.3,0.12,4.87c-0.65,1.57-1.93,2.79-3.53,3.36c-23.78,8.45-32.25,29.13-32.26,45.68
		c-0.01,16.54,8.46,37.24,32.23,45.7c1.6,0.57,2.88,1.79,3.53,3.36c0.65,1.57,0.6,3.34-0.13,4.87
		c-10.84,22.79-2.21,43.41,9.49,55.11c11.7,11.7,32.31,20.35,55.1,9.52C161.86,332.79,162.74,332.59,163.62,332.59z"/>
	<g>
		<path class="st0" d="M381.18,214.71c0.01-23.81-13.29-44.62-34.38-54.6c7.87-21.96,2.57-46.08-14.26-62.92
			c-16.83-16.84-40.95-22.15-62.92-14.3c-9.97-21.09-30.77-34.4-54.58-34.41c-0.01,0-0.01,0-0.02,0c-23.8,0-44.6,13.3-54.58,34.38
			c-21.96-7.86-46.08-2.57-62.92,14.26c-16.84,16.83-22.15,40.95-14.3,62.92c-21.09,9.97-34.4,30.77-34.41,54.58
			c-0.01,23.81,13.29,44.62,34.38,54.6c-7.87,21.96-2.57,46.09,14.26,62.93s40.95,22.15,62.92,14.3
			c9.97,21.09,30.77,34.4,54.58,34.41c0.01,0,0.01,0,0.02,0c23.8,0,44.6-13.3,54.58-34.38c21.96,7.87,46.08,2.57,62.92-14.26
			c16.84-16.83,22.15-40.95,14.3-62.92C367.86,259.32,381.17,238.52,381.18,214.71z M336.92,260.38c-1.6,0.57-2.88,1.79-3.53,3.36
			c-0.65,1.57-0.61,3.34,0.12,4.87c10.83,22.79,2.18,43.41-9.52,55.1c-11.7,11.7-32.33,20.33-55.11,9.49
			c-1.53-0.73-3.3-0.78-4.87-0.13c-1.57,0.65-2.79,1.93-3.36,3.53c-8.46,23.76-29.14,32.23-45.68,32.23c0,0-0.01,0-0.01,0
			c-16.54,0-37.23-8.48-45.68-32.26c-0.57-1.6-1.79-2.88-3.36-3.53c-0.74-0.3-1.52-0.46-2.3-0.46c-0.88,0-1.76,0.19-2.57,0.58
			c-22.79,10.83-43.41,2.18-55.1-9.52c-11.69-11.7-20.33-32.32-9.49-55.11c0.73-1.53,0.78-3.3,0.13-4.87
			c-0.65-1.57-1.93-2.79-3.53-3.36c-23.77-8.46-32.23-29.15-32.23-45.7c0-16.54,8.48-37.23,32.26-45.68
			c1.6-0.57,2.88-1.79,3.53-3.36c0.65-1.57,0.61-3.34-0.12-4.87c-10.83-22.79-2.18-43.41,9.52-55.1s32.32-20.33,55.11-9.49
			c1.53,0.73,3.3,0.78,4.87,0.13c1.57-0.65,2.79-1.93,3.36-3.53c8.46-23.76,29.14-32.23,45.68-32.23c0,0,0.01,0,0.01,0
			c16.54,0,37.23,8.48,45.68,32.26c0.57,1.6,1.79,2.88,3.36,3.53c1.57,0.65,3.34,0.6,4.87-0.12c22.79-10.82,43.41-2.18,55.1,9.52
			c11.69,11.7,20.33,32.32,9.49,55.11c-0.73,1.53-0.78,3.3-0.13,4.87c0.65,1.57,1.93,2.79,3.53,3.36
			c23.77,8.46,32.23,29.15,32.23,45.7C369.18,231.25,360.7,251.94,336.92,260.38z"/>
		<path class="st0" d="M314.25,156.08c-1.58,0-3.13,0.64-4.25,1.76c-1.11,1.11-1.75,2.66-1.75,4.24c0,0.39,0.04,0.78,0.11,1.17
			c0.08,0.38,0.2,0.76,0.35,1.12c0.15,0.37,0.33,0.71,0.55,1.04s0.47,0.63,0.74,0.91c0.28,0.28,0.59,0.53,0.92,0.75
			c0.32,0.21,0.67,0.4,1.03,0.55c0.36,0.15,0.74,0.26,1.12,0.34c0.39,0.08,0.78,0.12,1.18,0.12c1.58,0,3.12-0.64,4.24-1.76
			c1.12-1.11,1.76-2.66,1.76-4.24s-0.64-3.13-1.76-4.24C317.37,156.72,315.83,156.08,314.25,156.08z"/>
		<path class="st0" d="M290.03,106.25c-4.9,0-9.82,1.16-14.64,3.45c-2.99,1.42-4.27,5-2.85,7.99c1.42,2.99,5,4.27,7.99,2.85
			c3.19-1.52,6.39-2.29,9.49-2.29c7.1,0,14.06,4.04,18.17,10.55c1.7,2.68,3.62,7.03,3.18,12.49c-0.27,3.3,2.19,6.2,5.49,6.47
			c0.17,0.01,0.33,0.02,0.49,0.02c3.09,0,5.72-2.38,5.97-5.51c0.71-8.76-2.32-15.64-4.99-19.87
			C312.05,112.43,301.2,106.25,290.03,106.25z"/>
	</g>
	<g>
		<path class="st1" d="M271.59,159.4c-2.34-2.34-6.14-2.34-8.48,0L160.48,262.03c-2.34,2.34-2.34,6.14,0,8.48
			c1.17,1.17,2.71,1.76,4.24,1.76s3.07-0.59,4.24-1.76l102.63-102.63C273.94,165.54,273.94,161.74,271.59,159.4z"/>
		<path class="st1" d="M255.11,228.55c-14.37,0-26.06,11.69-26.06,26.06s11.69,26.06,26.06,26.06c14.37,0,26.06-11.69,26.06-26.06
			S269.48,228.55,255.11,228.55z M255.11,268.66c-7.75,0-14.06-6.31-14.06-14.06s6.31-14.06,14.06-14.06
			c7.75,0,14.06,6.31,14.06,14.06S262.86,268.66,255.11,268.66z"/>
		<path class="st1" d="M200.94,174.71c0-14.37-11.69-26.06-26.06-26.06c-14.37,0-26.06,11.69-26.06,26.06
			c0,14.37,11.69,26.06,26.06,26.06C189.26,200.77,200.94,189.08,200.94,174.71z M160.83,174.71c0-7.75,6.31-14.06,14.06-14.06
			c7.75,0,14.06,6.31,14.06,14.06c0,7.75-6.31,14.06-14.06,14.06C167.14,188.77,160.83,182.47,160.83,174.71z"/>
	</g>
</g>
</svg>
