<?xml version="1.0" encoding="utf-8"?>
<!-- Generator: Adobe Illustrator 24.1.2, SVG Export Plug-In . SVG Version: 6.00 Build 0)  -->
<svg version="1.1" id="Warstwa_1" xmlns="http://www.w3.org/2000/svg" xmlns:xlink="http://www.w3.org/1999/xlink" x="0px" y="0px"
	 viewBox="0 0 430 430" style="enable-background:new 0 0 430 430;" xml:space="preserve">
<style type="text/css">
	.st0{fill:#121331;}
	.st1{fill:#08a88a;}
	.st2{fill:none;stroke:#121331;stroke-width:12;stroke-linecap:round;stroke-linejoin:round;stroke-miterlimit:10;}
	.st3{fill:#00A689;}
</style>
<g>
	<path class="st1" d="M381.12,215c0-30.32-40.34-55.75-99.32-66.8c-11.05-58.98-36.48-99.32-66.8-99.32s-55.75,40.34-66.8,99.32
		c-58.98,11.05-99.32,36.48-99.32,66.8s40.34,55.75,99.32,66.8c11.05,58.98,36.48,99.32,66.8,99.32s55.75-40.34,66.8-99.32
		C340.78,270.75,381.12,245.32,381.12,215z M173.36,104.09C184.8,76.63,199.98,60.88,215,60.88s30.2,15.75,41.64,43.21
		c5.18,12.43,9.38,26.62,12.5,42.01c-16.9-2.47-35.1-3.81-54.14-3.81s-37.24,1.34-54.14,3.81
		C163.99,130.7,168.18,116.52,173.36,104.09z M275.72,215c0,19.62-1.48,38.67-4.31,56.41c-17.74,2.83-36.79,4.31-56.41,4.31
		s-38.67-1.48-56.41-4.31c-2.83-17.74-4.31-36.79-4.31-56.41s1.48-38.67,4.31-56.41c17.74-2.83,36.79-4.31,56.41-4.31
		s38.67,1.48,56.41,4.31C274.24,176.33,275.72,195.38,275.72,215z M104.09,256.64C76.63,245.2,60.88,230.02,60.88,215
		s15.75-30.2,43.21-41.64c12.43-5.18,26.62-9.38,42.01-12.5c-2.47,16.9-3.81,35.1-3.81,54.14s1.34,37.24,3.81,54.14
		C130.7,266.01,116.52,261.82,104.09,256.64z M256.64,325.91c-11.44,27.46-26.62,43.21-41.64,43.21s-30.2-15.75-41.64-43.21
		c-5.18-12.43-9.38-26.62-12.5-42.01c16.9,2.47,35.1,3.81,54.14,3.81s37.24-1.34,54.14-3.81
		C266.01,299.3,261.82,313.48,256.64,325.91z M325.91,256.64c-12.43,5.18-26.62,9.38-42.01,12.5c2.47-16.9,3.81-35.1,3.81-54.14
		s-1.34-37.24-3.81-54.14c15.39,3.13,29.57,7.32,42.01,12.5c27.46,11.44,43.21,26.62,43.21,41.64S353.37,245.2,325.91,256.64z"/>
	<path class="st0" d="M215,381.12c-91.6,0-166.12-74.52-166.12-166.12S123.4,48.88,215,48.88S381.12,123.4,381.12,215
		S306.6,381.12,215,381.12z M215,60.88c-84.98,0-154.12,69.14-154.12,154.12S130.02,369.12,215,369.12S369.12,299.98,369.12,215
		S299.98,60.88,215,60.88z"/>
</g>
</svg>
