<?xml version="1.0" encoding="utf-8"?>
<!-- Generator: Adobe Illustrator 24.1.2, SVG Export Plug-In . SVG Version: 6.00 Build 0)  -->
<svg version="1.1" id="Warstwa_1" xmlns="http://www.w3.org/2000/svg" xmlns:xlink="http://www.w3.org/1999/xlink" x="0px" y="0px"
	 viewBox="0 0 430 430" style="enable-background:new 0 0 430 430;" xml:space="preserve">
<style type="text/css">
	.st0{fill:#08a88a;}
	.st1{fill:#121331;}
	.st2{fill:none;}
	.st3{fill:#00A689;}
</style>
<g>
	<path class="st1" d="M369.08,354.43H60.92c-2.14,0-4.12-1.14-5.2-3c-1.07-1.86-1.07-4.14,0-6L209.8,78.57c1.07-1.86,3.05-3,5.2-3
		s4.12,1.14,5.2,3l154.08,266.87c1.07,1.86,1.07,4.14,0,6C373.2,353.29,371.22,354.43,369.08,354.43z M71.32,342.43h287.37
		L215,93.57L71.32,342.43z"/>
	<g>
		<path class="st0" d="M75.63,345.5c-0.09-0.47-0.22-0.95-0.36-1.42c-0.14-0.47-0.31-0.93-0.5-1.38c-0.18-0.45-0.39-0.9-0.62-1.33
			c-0.23-0.43-0.48-0.86-0.75-1.26c-0.28-0.41-0.57-0.81-0.88-1.19c-0.31-0.38-0.64-0.75-0.99-1.09c-0.35-0.35-0.72-0.68-1.1-0.99
			c-0.37-0.31-0.77-0.61-1.18-0.88s-0.83-0.52-1.26-0.75c-0.43-0.23-0.88-0.44-1.33-0.63c-0.45-0.18-0.92-0.35-1.38-0.49
			c-0.47-0.15-0.95-0.27-1.43-0.36c-0.48-0.1-0.97-0.17-1.45-0.22c-0.98-0.1-1.97-0.1-2.95,0c-0.49,0.05-0.98,0.12-1.46,0.22
			c-0.48,0.09-0.95,0.21-1.42,0.36c-0.47,0.14-0.93,0.31-1.38,0.49c-0.46,0.19-0.9,0.4-1.33,0.63c-0.43,0.23-0.86,0.48-1.26,0.75
			c-0.41,0.27-0.81,0.57-1.19,0.88s-0.75,0.64-1.09,0.99c-0.35,0.34-0.68,0.71-0.99,1.09c-0.31,0.38-0.61,0.78-0.88,1.19
			c-0.27,0.4-0.52,0.83-0.75,1.26c-0.23,0.43-0.44,0.88-0.63,1.33c-0.18,0.45-0.35,0.91-0.49,1.38c-0.14,0.47-0.27,0.95-0.36,1.42
			c-0.1,0.48-0.17,0.97-0.22,1.46c-0.05,0.49-0.08,0.98-0.08,1.47c0,0.49,0.03,0.99,0.08,1.48c0.05,0.48,0.12,0.97,0.22,1.45
			c0.09,0.48,0.22,0.96,0.36,1.43c0.14,0.46,0.31,0.93,0.49,1.38c0.19,0.45,0.4,0.9,0.63,1.33c0.23,0.43,0.48,0.85,0.75,1.26
			c0.27,0.41,0.57,0.8,0.88,1.18c0.31,0.38,0.64,0.75,0.99,1.1c0.34,0.34,0.71,0.68,1.09,0.99s0.78,0.6,1.19,0.87
			c0.4,0.27,0.83,0.53,1.26,0.76c0.43,0.23,0.87,0.44,1.33,0.62c0.45,0.19,0.91,0.36,1.38,0.5c0.47,0.14,0.94,0.26,1.42,0.36
			c0.48,0.1,0.97,0.17,1.46,0.22c0.49,0.05,0.98,0.07,1.47,0.07s0.99-0.02,1.48-0.07c0.48-0.05,0.97-0.12,1.45-0.22
			c0.48-0.1,0.96-0.22,1.43-0.36c0.46-0.14,0.93-0.31,1.38-0.5c0.45-0.18,0.9-0.39,1.33-0.62c0.43-0.23,0.85-0.49,1.26-0.76
			s0.81-0.56,1.18-0.87c0.38-0.31,0.75-0.65,1.1-0.99c0.35-0.35,0.68-0.72,0.99-1.1c0.31-0.38,0.6-0.77,0.88-1.18
			c0.27-0.41,0.52-0.83,0.75-1.26c0.23-0.43,0.44-0.88,0.62-1.33c0.19-0.45,0.36-0.92,0.5-1.38c0.14-0.47,0.27-0.95,0.36-1.43
			c0.1-0.48,0.17-0.97,0.22-1.45c0.05-0.49,0.08-0.99,0.08-1.48c0-0.49-0.03-0.98-0.08-1.47C75.8,346.47,75.73,345.98,75.63,345.5z"
			/>
		<path class="st0" d="M384,346.96c-0.05-0.49-0.12-0.98-0.22-1.46c-0.09-0.48-0.22-0.95-0.36-1.42c-0.14-0.47-0.31-0.93-0.49-1.38
			c-0.19-0.45-0.4-0.9-0.63-1.33c-0.23-0.43-0.48-0.86-0.75-1.26c-0.28-0.41-0.57-0.81-0.88-1.19c-0.31-0.38-0.64-0.75-0.99-1.09
			c-0.35-0.35-0.71-0.68-1.1-0.99c-0.37-0.31-0.77-0.61-1.18-0.88c-0.41-0.27-0.83-0.52-1.26-0.75s-0.88-0.44-1.33-0.63
			c-0.45-0.18-0.91-0.35-1.38-0.49c-0.47-0.15-0.95-0.27-1.42-0.36c-0.48-0.1-0.97-0.17-1.46-0.22c-0.98-0.1-1.97-0.1-2.95,0
			c-0.49,0.05-0.98,0.12-1.46,0.22c-0.47,0.09-0.95,0.21-1.42,0.36c-0.47,0.14-0.93,0.31-1.38,0.49c-0.45,0.19-0.9,0.4-1.33,0.63
			s-0.86,0.48-1.26,0.75c-0.41,0.27-0.81,0.57-1.19,0.88s-0.75,0.64-1.09,0.99c-0.35,0.34-0.68,0.71-0.99,1.09
			c-0.31,0.38-0.61,0.78-0.88,1.19c-0.27,0.4-0.52,0.83-0.75,1.26c-0.23,0.43-0.44,0.88-0.63,1.33c-0.18,0.45-0.35,0.91-0.49,1.38
			c-0.14,0.47-0.27,0.94-0.36,1.42c-0.1,0.48-0.17,0.97-0.22,1.46c-0.05,0.49-0.08,0.98-0.08,1.47c0,0.49,0.03,0.99,0.08,1.48
			c0.05,0.48,0.12,0.97,0.22,1.45c0.09,0.48,0.22,0.96,0.36,1.43c0.14,0.46,0.31,0.93,0.49,1.38c0.19,0.45,0.4,0.9,0.63,1.33
			c0.23,0.43,0.48,0.85,0.75,1.26c0.27,0.41,0.57,0.81,0.88,1.18c0.31,0.39,0.64,0.75,0.99,1.1c0.34,0.35,0.71,0.68,1.09,0.99
			s0.78,0.6,1.19,0.87c0.4,0.27,0.83,0.53,1.26,0.76s0.88,0.44,1.33,0.62c0.45,0.19,0.91,0.36,1.38,0.5s0.95,0.26,1.42,0.36
			c0.48,0.1,0.97,0.17,1.46,0.22s0.99,0.07,1.48,0.07c0.48,0,0.98-0.02,1.47-0.07s0.98-0.12,1.46-0.22c0.47-0.1,0.95-0.22,1.42-0.36
			s0.93-0.31,1.38-0.5c0.45-0.18,0.9-0.39,1.33-0.62s0.85-0.49,1.26-0.76c0.41-0.27,0.81-0.56,1.18-0.87
			c0.39-0.31,0.75-0.64,1.1-0.99c0.35-0.35,0.68-0.71,0.99-1.1c0.31-0.37,0.6-0.77,0.88-1.18c0.27-0.41,0.52-0.83,0.75-1.26
			c0.23-0.43,0.44-0.88,0.63-1.33c0.18-0.45,0.35-0.92,0.49-1.38c0.14-0.47,0.27-0.95,0.36-1.43c0.1-0.48,0.17-0.97,0.22-1.45
			c0.05-0.49,0.08-0.99,0.08-1.48C384.08,347.94,384.05,347.45,384,346.96z"/>
		<path class="st0" d="M229.71,78.91c-0.1-0.47-0.22-0.95-0.36-1.42c-0.15-0.47-0.31-0.93-0.5-1.38c-0.19-0.45-0.4-0.9-0.63-1.33
			c-0.23-0.43-0.48-0.86-0.75-1.26c-0.27-0.41-0.56-0.81-0.87-1.19c-0.31-0.38-0.65-0.75-0.99-1.09c-0.35-0.35-0.72-0.68-1.1-0.99
			s-0.78-0.61-1.18-0.88c-0.41-0.27-0.83-0.52-1.27-0.75c-0.43-0.23-0.87-0.44-1.32-0.63c-0.45-0.18-0.92-0.35-1.38-0.49
			c-0.47-0.14-0.95-0.27-1.43-0.36c-0.48-0.1-0.97-0.17-1.46-0.22c-0.97-0.1-1.97-0.1-2.95,0c-0.48,0.05-0.97,0.12-1.45,0.22
			c-0.48,0.09-0.96,0.22-1.43,0.36c-0.46,0.14-0.93,0.31-1.38,0.49c-0.45,0.19-0.9,0.4-1.33,0.63s-0.85,0.48-1.26,0.75
			s-0.8,0.57-1.18,0.88c-0.38,0.31-0.75,0.64-1.1,0.99c-0.34,0.34-0.68,0.71-0.99,1.09c-0.31,0.38-0.6,0.78-0.87,1.19
			c-0.27,0.4-0.52,0.83-0.75,1.26c-0.23,0.43-0.44,0.88-0.63,1.33c-0.19,0.45-0.35,0.91-0.5,1.38c-0.14,0.47-0.26,0.95-0.36,1.42
			c-0.09,0.48-0.17,0.97-0.22,1.46c-0.04,0.49-0.07,0.99-0.07,1.48c0,0.48,0.03,0.98,0.07,1.47c0.05,0.49,0.13,0.98,0.22,1.46
			c0.1,0.47,0.22,0.95,0.36,1.42c0.15,0.47,0.31,0.93,0.5,1.38c0.19,0.45,0.4,0.9,0.63,1.33c0.23,0.43,0.48,0.86,0.75,1.26
			c0.27,0.41,0.56,0.81,0.87,1.19c0.31,0.38,0.65,0.75,0.99,1.09c0.35,0.35,0.72,0.68,1.1,0.99c0.38,0.31,0.77,0.6,1.18,0.88
			c0.41,0.27,0.83,0.52,1.26,0.75s0.88,0.44,1.33,0.62c0.45,0.19,0.92,0.36,1.38,0.5c0.47,0.14,0.95,0.26,1.43,0.36
			c0.48,0.1,0.97,0.17,1.45,0.22c0.49,0.05,0.99,0.07,1.48,0.07s0.98-0.02,1.47-0.07c0.49-0.05,0.98-0.12,1.46-0.22
			c0.48-0.1,0.96-0.22,1.43-0.36c0.46-0.14,0.93-0.31,1.38-0.5c0.45-0.18,0.89-0.39,1.32-0.62c0.44-0.23,0.86-0.48,1.27-0.75
			c0.4-0.28,0.8-0.57,1.18-0.88s0.75-0.64,1.1-0.99c0.34-0.34,0.68-0.71,0.99-1.09c0.31-0.38,0.6-0.78,0.87-1.19
			c0.27-0.4,0.52-0.83,0.75-1.26c0.23-0.43,0.44-0.88,0.63-1.33c0.19-0.45,0.35-0.91,0.5-1.38c0.14-0.47,0.26-0.95,0.36-1.42
			c0.09-0.48,0.17-0.97,0.22-1.46c0.05-0.49,0.07-0.99,0.07-1.47c0-0.49-0.02-0.99-0.07-1.48C229.88,79.88,229.8,79.39,229.71,78.91
			z"/>
	</g>
</g>
</svg>
