<?xml version="1.0" encoding="utf-8"?>
<!-- Generator: Adobe Illustrator 24.1.2, SVG Export Plug-In . SVG Version: 6.00 Build 0)  -->
<svg version="1.1" id="Warstwa_1" xmlns="http://www.w3.org/2000/svg" xmlns:xlink="http://www.w3.org/1999/xlink" x="0px" y="0px"
	 viewBox="0 0 430 430" style="enable-background:new 0 0 430 430;" xml:space="preserve">
<style type="text/css">
	.st0{fill:#08a88a;}
	.st1{fill:#121331;}
	.st2{fill:none;}
	.st3{fill:#00A689;}
</style>
<path class="st1" d="M317.23,354.43H112.77c-20.51,0-37.2-16.69-37.2-37.2V112.77c0-20.51,16.69-37.2,37.2-37.2h204.46
	c20.51,0,37.2,16.69,37.2,37.2v204.46C354.43,337.74,337.74,354.43,317.23,354.43z M112.77,87.57c-13.9,0-25.2,11.31-25.2,25.2
	v204.46c0,13.9,11.31,25.2,25.2,25.2h204.46c13.9,0,25.2-11.31,25.2-25.2V112.77c0-13.9-11.31-25.2-25.2-25.2H112.77z"/>
</svg>
