<?xml version="1.0" encoding="utf-8"?>
<!-- Generator: Adobe Illustrator 24.0.2, SVG Export Plug-In . SVG Version: 6.00 Build 0)  -->
<svg version="1.1" xmlns="http://www.w3.org/2000/svg" xmlns:xlink="http://www.w3.org/1999/xlink" x="0px" y="0px"
	 viewBox="0 0 24 24" style="enable-background:new 0 0 24 24;" xml:space="preserve">
<style type="text/css">
	.st0{fill:none;}
	.st1{fill:#121331;}
</style>
<g id="bounding_box">
	<rect class="st0" width="24" height="24"/>
</g>
<g id="design">
	<g>
		<g>
			<g>
				<path class="st1" d="M6,6.75v10.5C6,17.66,5.66,18,5.25,18S4.5,17.66,4.5,17.25v-4.5h-2v4.5C2.5,17.66,2.16,18,1.75,18
					S1,17.66,1,17.25V6.75C1,6.34,1.34,6,1.75,6S2.5,6.34,2.5,6.75v4.5h2v-4.5C4.5,6.34,4.84,6,5.25,6S6,6.34,6,6.75z"/>
			</g>
		</g>
		<g>
			<path class="st1" d="M11.75,6.75c0,0.41-0.34,0.75-0.75,0.75h-1v9.75C10,17.66,9.66,18,9.25,18S8.5,17.66,8.5,17.25V7.5h-1
				c-0.41,0-0.75-0.34-0.75-0.75C6.75,6.34,7.09,6,7.5,6H11C11.41,6,11.75,6.34,11.75,6.75z"/>
		</g>
		<g>
			<path class="st1" d="M18.75,18C18.34,18,18,17.66,18,17.25V6.75C18,6.34,18.34,6,18.75,6h1.46C21.75,6,23,7.23,23,8.75v1.49
				c0,1.52-1.25,2.75-2.79,2.75H19.5v4.26C19.5,17.66,19.16,18,18.75,18z M19.5,11.49h0.71c0.71,0,1.29-0.56,1.29-1.25V8.75
				c0-0.69-0.58-1.25-1.29-1.25H19.5V11.49z"/>
		</g>
		<g>
			<path class="st1" d="M17.25,6.75c0,0.41-0.34,0.75-0.75,0.75h-1v9.75c0,0.41-0.34,0.75-0.75,0.75S14,17.66,14,17.25V7.5h-1
				c-0.41,0-0.75-0.34-0.75-0.75C12.25,6.34,12.59,6,13,6h3.5C16.91,6,17.25,6.34,17.25,6.75z"/>
		</g>
	</g>
</g>
</svg>
