<?xml version="1.0" encoding="utf-8"?>
<!-- Generator: Adobe Illustrator 24.1.2, SVG Export Plug-In . SVG Version: 6.00 Build 0)  -->
<svg version="1.1" id="Warstwa_1" xmlns="http://www.w3.org/2000/svg" xmlns:xlink="http://www.w3.org/1999/xlink" x="0px" y="0px"
	 viewBox="0 0 430 430" style="enable-background:new 0 0 430 430;" xml:space="preserve">
<style type="text/css">
	.st0{fill:#08a88a;}
	.st1{fill:#121331;}
	.st2{fill:none;}
	.st3{fill:#00A689;}
</style>
<g>
	<path class="st1" d="M288.09,381.12H141.91c-1.83,0-3.55-0.83-4.69-2.26L46.07,264.57c-1.14-1.43-1.56-3.3-1.16-5.08l32.53-142.52
		c0.41-1.78,1.6-3.28,3.25-4.07L212.4,49.48c1.65-0.79,3.56-0.79,5.21,0l131.71,63.43c1.64,0.79,2.84,2.29,3.25,4.07l32.53,142.52
		c0.41,1.78-0.02,3.65-1.16,5.08l-91.14,114.29C291.65,380.29,289.92,381.12,288.09,381.12z M144.8,369.12H285.2l87.54-109.77
		L341.5,122.46L215,61.54L88.5,122.46L57.25,259.35L144.8,369.12z"/>
	<g>
		<path class="st0" d="M229.71,51.95c-0.1-0.48-0.22-0.96-0.36-1.42c-0.15-0.47-0.31-0.94-0.5-1.39c-0.19-0.45-0.4-0.89-0.63-1.32
			c-0.23-0.44-0.48-0.86-0.75-1.27c-0.27-0.4-0.57-0.8-0.87-1.18c-0.32-0.38-0.65-0.75-0.99-1.1c-0.35-0.34-0.72-0.68-1.1-0.99
			s-0.78-0.6-1.18-0.87c-0.41-0.27-0.84-0.52-1.27-0.75c-0.43-0.23-0.87-0.44-1.32-0.63c-0.45-0.19-0.92-0.35-1.38-0.5
			c-0.47-0.14-0.95-0.26-1.43-0.36c-0.48-0.09-0.97-0.17-1.45-0.21c-0.98-0.1-1.98-0.1-2.96,0c-0.48,0.04-0.97,0.12-1.45,0.21
			c-0.48,0.1-0.96,0.22-1.43,0.36c-0.46,0.15-0.93,0.31-1.38,0.5s-0.9,0.4-1.32,0.63c-0.44,0.23-0.86,0.48-1.27,0.75
			c-0.4,0.27-0.8,0.56-1.18,0.87c-0.38,0.31-0.75,0.65-1.1,0.99c-0.34,0.35-0.68,0.72-0.99,1.1c-0.31,0.38-0.6,0.78-0.87,1.18
			c-0.27,0.41-0.53,0.83-0.76,1.27c-0.22,0.43-0.43,0.87-0.62,1.32c-0.19,0.45-0.35,0.92-0.5,1.39c-0.14,0.46-0.26,0.94-0.36,1.42
			c-0.09,0.48-0.17,0.97-0.22,1.46c-0.05,0.49-0.07,0.98-0.07,1.47c0,0.49,0.02,0.99,0.07,1.48c0.05,0.48,0.13,0.97,0.22,1.45
			c0.1,0.48,0.22,0.96,0.36,1.43c0.15,0.46,0.31,0.93,0.5,1.38c0.19,0.45,0.4,0.9,0.62,1.33c0.23,0.43,0.49,0.85,0.76,1.26
			c0.27,0.4,0.56,0.8,0.87,1.18c0.31,0.38,0.65,0.75,0.99,1.1c0.35,0.34,0.72,0.68,1.1,0.99c0.38,0.31,0.78,0.6,1.18,0.87
			c0.41,0.27,0.83,0.53,1.27,0.76c0.42,0.22,0.87,0.44,1.32,0.62c0.45,0.19,0.92,0.36,1.38,0.5c0.47,0.14,0.95,0.26,1.43,0.36
			c0.48,0.1,0.97,0.17,1.45,0.22c0.49,0.05,0.99,0.07,1.48,0.07s0.99-0.02,1.48-0.07c0.48-0.05,0.97-0.12,1.45-0.22
			c0.48-0.1,0.96-0.22,1.43-0.36c0.46-0.14,0.93-0.31,1.38-0.5c0.45-0.18,0.89-0.4,1.32-0.62c0.43-0.23,0.86-0.49,1.27-0.76
			c0.4-0.27,0.8-0.56,1.18-0.87s0.75-0.65,1.1-0.99c0.34-0.35,0.67-0.72,0.99-1.1c0.3-0.38,0.6-0.78,0.87-1.18
			c0.27-0.41,0.52-0.83,0.75-1.26c0.23-0.43,0.44-0.88,0.63-1.33c0.19-0.45,0.35-0.92,0.5-1.38c0.14-0.47,0.26-0.95,0.36-1.43
			c0.09-0.48,0.17-0.97,0.22-1.45c0.05-0.49,0.07-0.99,0.07-1.48c0-0.49-0.02-0.98-0.07-1.47C229.88,52.92,229.8,52.43,229.71,51.95
			z"/>
		<path class="st0" d="M361.42,115.38c-0.1-0.48-0.22-0.96-0.36-1.43c-0.15-0.46-0.31-0.93-0.5-1.38c-0.19-0.45-0.4-0.9-0.63-1.33
			c-0.23-0.43-0.48-0.85-0.75-1.26c-0.27-0.41-0.57-0.8-0.87-1.18c-0.32-0.38-0.65-0.75-1-1.1c-0.34-0.34-0.71-0.68-1.09-0.99
			s-0.78-0.6-1.19-0.87c-0.4-0.27-0.83-0.53-1.26-0.76c-0.43-0.22-0.87-0.43-1.33-0.62c-0.45-0.19-0.91-0.36-1.38-0.5
			c-0.46-0.14-0.94-0.26-1.42-0.36c-0.48-0.09-0.97-0.17-1.46-0.22c-0.98-0.1-1.97-0.1-2.95,0c-0.48,0.05-0.97,0.13-1.45,0.22
			c-0.48,0.1-0.96,0.22-1.43,0.36c-0.46,0.14-0.93,0.31-1.38,0.5s-0.9,0.4-1.33,0.62c-0.43,0.23-0.85,0.49-1.26,0.76
			s-0.8,0.56-1.18,0.87c-0.38,0.31-0.75,0.65-1.1,0.99c-0.34,0.35-0.68,0.72-0.99,1.1c-0.31,0.38-0.6,0.77-0.87,1.18
			c-0.27,0.41-0.53,0.83-0.76,1.26c-0.22,0.43-0.44,0.88-0.62,1.33c-0.19,0.45-0.36,0.92-0.5,1.38c-0.14,0.47-0.26,0.95-0.36,1.43
			c-0.09,0.48-0.17,0.97-0.22,1.45c-0.05,0.49-0.07,0.99-0.07,1.48c0,0.49,0.02,0.99,0.07,1.47c0.05,0.49,0.13,0.98,0.22,1.46
			c0.1,0.48,0.22,0.96,0.36,1.42c0.14,0.47,0.31,0.94,0.5,1.39c0.18,0.45,0.4,0.89,0.62,1.32c0.23,0.44,0.49,0.86,0.76,1.27
			c0.27,0.4,0.56,0.8,0.87,1.18c0.31,0.38,0.65,0.75,0.99,1.1c0.35,0.34,0.72,0.68,1.1,0.99c0.38,0.31,0.77,0.6,1.18,0.87
			s0.83,0.52,1.26,0.75s0.88,0.44,1.33,0.63s0.92,0.35,1.38,0.5c0.47,0.14,0.95,0.26,1.43,0.36c0.48,0.09,0.97,0.17,1.45,0.21
			c0.49,0.05,0.99,0.08,1.48,0.08s0.98-0.03,1.47-0.08c0.49-0.04,0.98-0.12,1.46-0.21c0.48-0.1,0.96-0.22,1.42-0.36
			c0.47-0.15,0.93-0.31,1.38-0.5c0.46-0.19,0.9-0.4,1.33-0.63c0.43-0.23,0.86-0.48,1.26-0.75c0.41-0.27,0.81-0.56,1.19-0.87
			s0.75-0.65,1.09-0.99c0.35-0.35,0.68-0.72,1-1.1c0.3-0.38,0.6-0.78,0.87-1.18c0.27-0.41,0.52-0.83,0.75-1.27
			c0.23-0.43,0.44-0.87,0.63-1.32c0.19-0.45,0.35-0.92,0.5-1.39c0.14-0.46,0.26-0.94,0.36-1.42c0.09-0.48,0.17-0.97,0.21-1.46
			c0.05-0.48,0.08-0.98,0.08-1.47c0-0.49-0.03-0.99-0.08-1.48C361.59,116.35,361.51,115.86,361.42,115.38z"/>
		<path class="st0" d="M394.16,259.35c-0.05-0.48-0.12-0.97-0.22-1.45c-0.09-0.48-0.21-0.96-0.36-1.43
			c-0.14-0.46-0.31-0.93-0.49-1.38c-0.19-0.45-0.4-0.9-0.63-1.33c-0.23-0.43-0.48-0.85-0.75-1.26c-0.27-0.41-0.57-0.8-0.88-1.18
			c-0.31-0.38-0.64-0.75-0.99-1.1c-0.34-0.34-0.71-0.68-1.09-0.99s-0.78-0.6-1.19-0.87c-0.4-0.27-0.83-0.52-1.26-0.75
			s-0.88-0.44-1.33-0.63s-0.91-0.35-1.38-0.5c-0.47-0.14-0.94-0.26-1.42-0.36c-0.48-0.09-0.97-0.17-1.46-0.22
			c-0.98-0.09-1.97-0.09-2.95,0c-0.49,0.05-0.97,0.13-1.45,0.22c-0.48,0.1-0.96,0.22-1.43,0.36c-0.47,0.15-0.93,0.31-1.38,0.5
			s-0.9,0.4-1.33,0.63s-0.85,0.48-1.26,0.75c-0.41,0.27-0.81,0.56-1.18,0.87c-0.39,0.31-0.75,0.65-1.1,0.99
			c-0.35,0.35-0.68,0.72-0.99,1.1c-0.31,0.38-0.6,0.77-0.87,1.18c-0.27,0.41-0.53,0.83-0.76,1.26c-0.23,0.43-0.44,0.88-0.62,1.33
			c-0.19,0.45-0.36,0.92-0.5,1.38c-0.14,0.47-0.26,0.95-0.36,1.43c-0.1,0.48-0.17,0.97-0.22,1.45c-0.05,0.49-0.07,0.99-0.07,1.48
			c0,0.49,0.02,0.99,0.07,1.47c0.05,0.49,0.12,0.98,0.22,1.46c0.1,0.48,0.22,0.96,0.36,1.43c0.14,0.46,0.31,0.93,0.5,1.38
			c0.18,0.45,0.39,0.89,0.62,1.32c0.23,0.44,0.49,0.86,0.76,1.27c0.27,0.4,0.56,0.8,0.87,1.18c0.31,0.38,0.64,0.75,0.99,1.1
			c0.35,0.34,0.71,0.68,1.1,0.99c0.37,0.31,0.77,0.6,1.18,0.87c0.41,0.27,0.83,0.53,1.26,0.75c0.43,0.23,0.88,0.44,1.33,0.63
			s0.91,0.35,1.38,0.5c0.47,0.14,0.95,0.26,1.43,0.36c0.48,0.09,0.96,0.17,1.45,0.22c0.49,0.05,0.99,0.07,1.48,0.07
			c0.49,0,0.98-0.02,1.47-0.07c0.49-0.05,0.98-0.13,1.46-0.22c0.48-0.1,0.95-0.22,1.42-0.36c0.47-0.15,0.93-0.31,1.38-0.5
			s0.9-0.4,1.33-0.63c0.43-0.22,0.86-0.48,1.26-0.75c0.41-0.27,0.81-0.56,1.19-0.87s0.75-0.65,1.09-0.99
			c0.35-0.35,0.68-0.72,0.99-1.1c0.31-0.38,0.61-0.78,0.88-1.18c0.27-0.41,0.52-0.83,0.75-1.27c0.23-0.43,0.44-0.87,0.63-1.32
			c0.18-0.45,0.35-0.92,0.49-1.38c0.15-0.47,0.27-0.95,0.36-1.43c0.1-0.48,0.17-0.97,0.22-1.46c0.05-0.48,0.08-0.98,0.08-1.47
			C394.24,260.34,394.21,259.84,394.16,259.35z"/>
		<path class="st0" d="M302.8,372.19c-0.1-0.48-0.22-0.96-0.36-1.43c-0.14-0.46-0.31-0.93-0.5-1.38c-0.18-0.45-0.39-0.9-0.62-1.33
			c-0.23-0.43-0.49-0.85-0.76-1.26c-0.27-0.41-0.56-0.8-0.87-1.18c-0.31-0.38-0.64-0.75-0.99-1.1c-3.14-3.14-7.64-4.76-12.08-4.32
			c-0.49,0.05-0.98,0.13-1.46,0.22c-0.47,0.1-0.95,0.22-1.42,0.36c-0.47,0.14-0.93,0.31-1.38,0.5c-0.45,0.18-0.9,0.4-1.33,0.62
			c-0.43,0.23-0.86,0.49-1.26,0.76c-0.41,0.27-0.81,0.56-1.19,0.87c-0.38,0.31-0.75,0.65-1.09,0.99c-0.35,0.35-0.68,0.72-0.99,1.1
			c-0.31,0.38-0.61,0.77-0.88,1.18c-0.27,0.41-0.52,0.83-0.75,1.26c-0.23,0.43-0.44,0.88-0.63,1.33c-0.18,0.45-0.35,0.92-0.49,1.38
			c-0.14,0.47-0.27,0.95-0.36,1.43c-0.1,0.48-0.17,0.97-0.22,1.45c-0.05,0.49-0.07,0.99-0.07,1.48c0,0.49,0.02,0.98,0.07,1.47
			c0.05,0.49,0.12,0.98,0.22,1.46c0.09,0.48,0.22,0.96,0.36,1.43c0.14,0.46,0.31,0.93,0.49,1.38c0.19,0.45,0.4,0.89,0.63,1.32
			c0.23,0.44,0.48,0.86,0.75,1.27c0.27,0.4,0.57,0.8,0.88,1.18c0.31,0.38,0.64,0.75,0.99,1.1c0.34,0.34,0.71,0.68,1.09,0.99
			s0.78,0.6,1.19,0.87c0.4,0.27,0.83,0.52,1.26,0.75c0.43,0.23,0.88,0.44,1.33,0.63c0.45,0.19,0.91,0.35,1.38,0.5
			c0.47,0.14,0.95,0.26,1.42,0.36c0.48,0.09,0.97,0.17,1.46,0.22c0.49,0.04,0.99,0.07,1.48,0.07c3.95,0,7.81-1.6,10.6-4.39
			c0.35-0.35,0.68-0.72,0.99-1.1c0.31-0.38,0.6-0.78,0.87-1.18c0.27-0.41,0.53-0.83,0.76-1.27c0.23-0.43,0.44-0.87,0.62-1.32
			c0.19-0.45,0.36-0.92,0.5-1.38c0.14-0.47,0.26-0.95,0.36-1.43s0.17-0.97,0.22-1.46c0.05-0.49,0.08-0.98,0.08-1.47
			c0-0.49-0.03-0.99-0.08-1.48C302.97,373.16,302.9,372.67,302.8,372.19z"/>
		<path class="st0" d="M156.59,372.19c-0.1-0.48-0.22-0.96-0.36-1.43c-0.14-0.46-0.31-0.93-0.5-1.38c-0.19-0.45-0.4-0.9-0.62-1.33
			c-0.23-0.43-0.49-0.85-0.76-1.26c-0.27-0.41-0.56-0.8-0.87-1.18c-0.31-0.38-0.65-0.75-0.99-1.1c-0.35-0.34-0.72-0.68-1.1-0.99
			c-0.38-0.31-0.77-0.6-1.18-0.87s-0.83-0.52-1.26-0.75c-0.43-0.23-0.88-0.44-1.33-0.63c-0.45-0.19-0.92-0.35-1.38-0.5
			c-0.47-0.14-0.95-0.26-1.43-0.36c-0.48-0.09-0.97-0.17-1.45-0.22c-0.98-0.09-1.97-0.09-2.95,0c-0.49,0.05-0.98,0.13-1.46,0.22
			c-0.48,0.1-0.96,0.22-1.42,0.36c-0.47,0.15-0.93,0.31-1.39,0.5c-0.45,0.19-0.89,0.4-1.32,0.63c-0.43,0.23-0.86,0.48-1.26,0.75
			c-0.41,0.27-0.81,0.56-1.19,0.87c-0.38,0.31-0.75,0.65-1.09,0.99c-0.35,0.35-0.68,0.72-1,1.1c-0.3,0.38-0.6,0.77-0.87,1.18
			c-0.27,0.41-0.52,0.83-0.75,1.26c-0.23,0.43-0.44,0.88-0.63,1.33c-0.19,0.45-0.35,0.92-0.5,1.38c-0.14,0.47-0.26,0.95-0.36,1.43
			c-0.09,0.48-0.17,0.97-0.21,1.45c-0.05,0.49-0.08,0.99-0.08,1.48c0,0.49,0.03,0.98,0.08,1.47c0.04,0.49,0.12,0.98,0.21,1.46
			c0.1,0.48,0.22,0.96,0.36,1.42c0.15,0.47,0.31,0.94,0.5,1.39c0.19,0.45,0.4,0.89,0.63,1.32c0.23,0.43,0.48,0.86,0.75,1.26
			c0.27,0.41,0.57,0.81,0.87,1.19c0.32,0.38,0.65,0.75,1,1.09c0.34,0.35,0.71,0.68,1.09,1c0.38,0.3,0.78,0.6,1.19,0.87
			c0.4,0.27,0.83,0.52,1.26,0.75c0.43,0.23,0.87,0.44,1.32,0.63c0.46,0.19,0.92,0.35,1.39,0.5c0.46,0.14,0.94,0.26,1.42,0.36
			c0.48,0.09,0.97,0.17,1.46,0.21c0.49,0.05,0.98,0.08,1.47,0.08s0.99-0.03,1.48-0.08c0.48-0.04,0.97-0.12,1.45-0.21
			c0.48-0.1,0.96-0.22,1.43-0.36c0.46-0.15,0.93-0.31,1.38-0.5c0.45-0.19,0.9-0.4,1.33-0.63c0.43-0.23,0.85-0.48,1.26-0.75
			s0.8-0.57,1.18-0.87c0.38-0.32,0.75-0.65,1.1-1c0.34-0.34,0.68-0.71,0.99-1.09c0.31-0.38,0.6-0.78,0.87-1.19
			c0.27-0.4,0.53-0.83,0.76-1.26c0.22-0.43,0.43-0.87,0.62-1.32c0.19-0.45,0.36-0.92,0.5-1.39c0.14-0.46,0.26-0.94,0.36-1.42
			c0.09-0.48,0.17-0.97,0.22-1.46c0.05-0.49,0.07-0.98,0.07-1.47c0-0.49-0.02-0.99-0.07-1.48
			C156.76,373.16,156.68,372.67,156.59,372.19z"/>
		<path class="st0" d="M65.47,257.89c-0.1-0.48-0.22-0.96-0.36-1.43c-0.14-0.46-0.31-0.93-0.5-1.38c-0.18-0.45-0.39-0.9-0.62-1.33
			c-0.23-0.43-0.49-0.85-0.76-1.26c-0.27-0.41-0.56-0.8-0.87-1.18c-0.31-0.38-0.65-0.75-0.99-1.1c-0.35-0.34-0.72-0.68-1.1-0.99
			c-0.37-0.31-0.77-0.6-1.18-0.87s-0.83-0.53-1.26-0.75c-0.43-0.23-0.88-0.44-1.33-0.63s-0.92-0.35-1.38-0.5
			c-0.47-0.14-0.95-0.26-1.43-0.36c-0.48-0.09-0.97-0.17-1.45-0.22c-0.98-0.09-1.97-0.09-2.95,0c-0.49,0.05-0.98,0.13-1.46,0.22
			c-0.48,0.1-0.96,0.22-1.42,0.36c-0.47,0.15-0.93,0.31-1.38,0.5c-0.46,0.19-0.9,0.4-1.33,0.63c-0.43,0.22-0.86,0.48-1.26,0.75
			c-0.41,0.27-0.81,0.56-1.19,0.87s-0.75,0.65-1.09,0.99c-0.35,0.35-0.68,0.72-1,1.1c-0.3,0.38-0.6,0.77-0.87,1.18
			c-0.27,0.41-0.52,0.83-0.75,1.26c-0.23,0.43-0.44,0.88-0.63,1.33c-0.18,0.45-0.35,0.92-0.49,1.38c-0.15,0.47-0.27,0.95-0.36,1.43
			c-0.1,0.48-0.17,0.97-0.22,1.45c-0.05,0.49-0.08,0.99-0.08,1.48s0.03,0.98,0.08,1.47c0.05,0.49,0.12,0.98,0.22,1.46
			c0.09,0.48,0.21,0.96,0.36,1.42c0.14,0.47,0.31,0.94,0.49,1.39c0.19,0.45,0.4,0.89,0.63,1.32c0.23,0.43,0.48,0.86,0.75,1.27
			c0.27,0.4,0.57,0.8,0.87,1.18c0.32,0.38,0.65,0.75,1,1.09c0.34,0.35,0.71,0.68,1.09,1c0.38,0.3,0.78,0.6,1.19,0.87
			c0.4,0.27,0.83,0.52,1.26,0.75c0.43,0.23,0.87,0.44,1.33,0.63c0.45,0.19,0.91,0.35,1.38,0.5c0.46,0.14,0.94,0.26,1.42,0.36
			c0.48,0.09,0.97,0.17,1.46,0.22c0.49,0.04,0.98,0.07,1.47,0.07s0.99-0.03,1.48-0.07c0.48-0.05,0.97-0.13,1.45-0.22
			c0.48-0.1,0.96-0.22,1.43-0.36c0.46-0.15,0.93-0.31,1.38-0.5s0.9-0.4,1.33-0.63c0.43-0.23,0.85-0.48,1.26-0.75
			s0.81-0.57,1.18-0.87c0.38-0.32,0.75-0.65,1.1-1c0.34-0.34,0.68-0.71,0.99-1.09c0.31-0.38,0.6-0.78,0.87-1.18
			c0.27-0.41,0.53-0.84,0.76-1.27c0.23-0.43,0.44-0.87,0.62-1.32c0.19-0.45,0.36-0.92,0.5-1.39c0.14-0.46,0.26-0.94,0.36-1.42
			s0.17-0.97,0.22-1.46c0.05-0.49,0.07-0.98,0.07-1.47s-0.02-0.99-0.07-1.48C65.64,258.86,65.57,258.37,65.47,257.89z"/>
		<path class="st0" d="M97.99,115.38c-0.09-0.48-0.21-0.96-0.36-1.43c-0.14-0.46-0.3-0.93-0.49-1.38c-0.19-0.45-0.4-0.9-0.63-1.33
			c-0.23-0.43-0.48-0.85-0.75-1.26c-0.27-0.4-0.57-0.8-0.87-1.18c-0.32-0.38-0.65-0.75-1-1.1c-0.34-0.34-0.71-0.68-1.09-0.99
			s-0.78-0.6-1.19-0.87c-0.4-0.27-0.83-0.53-1.26-0.75c-0.43-0.23-0.87-0.44-1.33-0.63c-0.45-0.19-0.91-0.36-1.38-0.5
			c-0.46-0.14-0.94-0.26-1.42-0.36c-0.48-0.09-0.97-0.17-1.46-0.22c-0.98-0.1-1.97-0.1-2.95,0c-0.48,0.05-0.97,0.13-1.45,0.22
			c-0.48,0.1-0.96,0.22-1.43,0.36c-0.46,0.14-0.93,0.31-1.38,0.5s-0.9,0.4-1.33,0.63c-0.43,0.22-0.85,0.48-1.26,0.75
			s-0.81,0.56-1.18,0.87c-0.38,0.31-0.75,0.65-1.1,0.99c-0.35,0.35-0.68,0.72-0.99,1.1c-0.31,0.38-0.6,0.78-0.87,1.18
			c-0.27,0.41-0.53,0.83-0.76,1.26c-0.23,0.43-0.44,0.88-0.62,1.33c-0.19,0.45-0.36,0.92-0.5,1.38c-0.14,0.47-0.26,0.95-0.36,1.43
			c-0.09,0.48-0.17,0.97-0.22,1.45c-0.05,0.49-0.07,0.99-0.07,1.48c0,0.49,0.02,0.98,0.07,1.47c0.05,0.49,0.13,0.98,0.22,1.46
			c0.1,0.48,0.22,0.96,0.36,1.42c0.14,0.47,0.31,0.94,0.5,1.39c0.18,0.45,0.39,0.89,0.62,1.32c0.23,0.43,0.49,0.86,0.76,1.26
			c0.27,0.41,0.56,0.81,0.87,1.19c0.31,0.38,0.64,0.75,0.99,1.1c0.35,0.34,0.72,0.67,1.1,0.99c0.37,0.3,0.77,0.6,1.18,0.87
			s0.83,0.52,1.26,0.75s0.88,0.44,1.33,0.63s0.92,0.35,1.38,0.5c0.47,0.14,0.95,0.26,1.43,0.36c0.48,0.09,0.97,0.17,1.45,0.21
			c0.49,0.05,0.99,0.08,1.48,0.08s0.98-0.03,1.47-0.08c0.49-0.04,0.98-0.12,1.46-0.21c0.48-0.1,0.96-0.22,1.42-0.36
			c0.47-0.15,0.93-0.31,1.38-0.5c0.46-0.19,0.9-0.4,1.33-0.63c0.43-0.23,0.86-0.48,1.26-0.75c0.41-0.27,0.81-0.57,1.19-0.87
			c0.38-0.32,0.75-0.65,1.09-0.99c0.35-0.35,0.68-0.72,1-1.1c0.3-0.38,0.6-0.78,0.87-1.19c0.27-0.4,0.52-0.83,0.75-1.26
			c0.23-0.43,0.44-0.87,0.63-1.32c0.19-0.45,0.35-0.92,0.49-1.39c0.15-0.46,0.27-0.94,0.36-1.42c0.1-0.48,0.17-0.97,0.22-1.46
			c0.05-0.49,0.08-0.98,0.08-1.47c0-0.49-0.03-0.99-0.08-1.48C98.16,116.35,98.09,115.86,97.99,115.38z"/>
	</g>
</g>
</svg>
