<?xml version="1.0" encoding="utf-8"?>
<!-- Generator: Adobe Illustrator 24.1.2, SVG Export Plug-In . SVG Version: 6.00 Build 0)  -->
<svg version="1.1" id="Warstwa_1" xmlns="http://www.w3.org/2000/svg" xmlns:xlink="http://www.w3.org/1999/xlink" x="0px" y="0px"
	 viewBox="0 0 430 430" style="enable-background:new 0 0 430 430;" xml:space="preserve">
<style type="text/css">
	.st0{fill:#08a88a;}
	.st1{fill:#121331;}
	.st2{fill:#08a88a;}
	.st3{fill:#00A689;}
	.st4{fill:none;}
	.st5{fill:none;stroke:#121331;stroke-width:12;stroke-linecap:round;stroke-linejoin:round;stroke-miterlimit:10;}
</style>
<g>
	<path class="st1" d="M371.93,208.51c-2.44-43.41-13.46-82.28-20.84-104.09l0.77-0.43c9.39-5.31,13.61-16.55,10.02-26.73
		l-8.59-24.37c-0.59-1.67-1.89-3-3.55-3.62c-1.66-0.62-3.51-0.48-5.06,0.4l-61.81,34.95c-0.07,0.04-0.14,0.09-0.21,0.13
		c-0.1,0.06-0.19,0.12-0.28,0.18c-0.07,0.05-0.14,0.11-0.21,0.16c-0.09,0.07-0.18,0.13-0.26,0.21c-0.07,0.06-0.14,0.13-0.21,0.2
		c-0.07,0.07-0.15,0.13-0.21,0.21c-0.07,0.08-0.14,0.16-0.21,0.24c-0.06,0.07-0.12,0.13-0.18,0.21c-0.07,0.08-0.12,0.17-0.19,0.26
		c-0.05,0.07-0.1,0.14-0.15,0.21c-0.06,0.09-0.1,0.18-0.15,0.27c-0.05,0.08-0.09,0.16-0.13,0.24c-0.04,0.08-0.08,0.17-0.11,0.25
		c-0.04,0.09-0.09,0.19-0.12,0.28c-0.03,0.07-0.05,0.15-0.08,0.22c-0.04,0.11-0.08,0.22-0.11,0.33c-0.02,0.06-0.03,0.12-0.05,0.19
		c-0.03,0.13-0.06,0.25-0.09,0.38c-0.01,0.05-0.01,0.1-0.02,0.16c-0.02,0.14-0.04,0.28-0.05,0.42c0,0.05,0,0.09-0.01,0.14
		c-0.01,0.15-0.02,0.29-0.01,0.44c0,0.05,0.01,0.1,0.01,0.15c0.01,0.14,0.01,0.29,0.03,0.43c0.01,0.06,0.02,0.12,0.03,0.17
		c0.02,0.13,0.04,0.27,0.07,0.4c0.01,0.07,0.04,0.14,0.05,0.2c0.03,0.12,0.06,0.25,0.1,0.37c0.02,0.07,0.05,0.14,0.08,0.21
		c0.04,0.11,0.07,0.22,0.12,0.33c0.48,1.12,47.38,112.76,10.06,169.24c-14.25,21.58-39.62,32.52-75.39,32.52
		c-35.76,0-61.12-10.93-75.38-32.5c-37.29-56.42,9.6-168.14,10.08-169.26c0.03-0.06,0.05-0.13,0.07-0.19
		c0.05-0.12,0.09-0.24,0.13-0.36c0.02-0.07,0.04-0.15,0.06-0.22c0.03-0.12,0.07-0.24,0.09-0.35c0.02-0.09,0.03-0.17,0.04-0.26
		c0.02-0.11,0.04-0.21,0.05-0.32c0.01-0.1,0.01-0.2,0.02-0.3c0.01-0.09,0.01-0.19,0.01-0.28c0-0.11-0.01-0.21-0.01-0.31
		c0-0.09,0-0.18-0.01-0.26c-0.01-0.1-0.03-0.2-0.04-0.31c-0.01-0.09-0.02-0.18-0.04-0.27c-0.02-0.09-0.04-0.19-0.06-0.28
		c-0.02-0.1-0.04-0.19-0.07-0.29c-0.02-0.08-0.05-0.16-0.08-0.24c-0.03-0.1-0.07-0.21-0.11-0.31c-0.03-0.07-0.06-0.13-0.09-0.2
		c-0.05-0.11-0.1-0.22-0.15-0.33c-0.03-0.06-0.06-0.11-0.09-0.17c-0.06-0.11-0.13-0.23-0.2-0.34c-0.03-0.05-0.07-0.1-0.1-0.15
		c-0.07-0.11-0.15-0.22-0.23-0.32c-0.04-0.05-0.08-0.1-0.13-0.15c-0.08-0.1-0.16-0.2-0.25-0.29c-0.05-0.06-0.11-0.11-0.17-0.16
		c-0.08-0.08-0.17-0.17-0.26-0.24c-0.07-0.06-0.14-0.11-0.21-0.17c-0.08-0.07-0.17-0.13-0.26-0.2c-0.08-0.05-0.16-0.1-0.24-0.15
		c-0.08-0.05-0.16-0.11-0.25-0.16L85.31,49.66c-1.55-0.87-3.4-1.02-5.06-0.4c-1.66,0.62-2.96,1.95-3.55,3.62l-8.59,24.37
		c-3.59,10.18,0.63,21.42,10.02,26.73l0.79,0.45c-7.39,21.82-18.41,60.69-20.86,104.09c-2.75,48.82,6.23,88.26,26.71,117.21
		c10.15,14.35,23.03,25.92,38.54,34.72c0.07,0.04,0.14,0.09,0.21,0.13c0.05,0.03,0.1,0.05,0.15,0.07
		c24.15,13.59,54.67,20.45,91.31,20.45c60.41,0,104.22-18.63,130.22-55.38C365.69,296.78,374.68,257.34,371.93,208.51z
		 M350.57,81.24c1.65,4.68-0.29,9.85-4.61,12.3l-5.18,2.93c-0.03,0.02-0.07,0.04-0.1,0.06l-38.41,21.72
		c-3.53-11.52-6.87-20.56-8.9-25.78l51-28.84L350.57,81.24z M79.43,81.25l6.21-17.62l51,28.84c-2.04,5.23-5.37,14.26-8.91,25.78
		L84.04,93.54C79.72,91.1,77.78,85.93,79.43,81.25z M94.58,318.81c-46.25-65.39-16.29-173.94-5-208.35l34.72,19.63
		c-1.99,7.29-3.93,15.22-5.62,23.57c-10.06,49.72-6.39,88.2,10.91,114.39c6.59,9.97,15.09,17.99,25.44,24.04L124.27,347
		C112.47,339.49,102.56,330.1,94.58,318.81z M134.72,352.9l31.08-55.49c13.8,5.68,30.22,8.54,49.18,8.54
		c18.94,0,35.34-2.85,49.13-8.52l31.08,55.5c-21.55,10.76-48.35,16.18-80.2,16.18C183.1,369.12,156.28,363.68,134.72,352.9z
		 M335.41,318.81c-8,11.3-17.94,20.72-29.77,28.23l-30.75-54.91c10.38-6.06,18.9-14.08,25.5-24.07
		c17.3-26.18,20.97-64.67,10.92-114.38c-1.69-8.35-3.62-16.28-5.61-23.57l34.75-19.65C351.73,144.86,381.67,253.41,335.41,318.81z"
		/>
	<g>
		<path class="st0" d="M107.81,279.1h-0.01c-4.14,0-7.49,3.36-7.49,7.5s3.36,7.5,7.51,7.5s7.5-3.36,7.5-7.5
			S111.96,279.1,107.81,279.1z"/>
		<path class="st0" d="M322.18,279.1h-0.01c-4.14,0-7.49,3.36-7.49,7.5s3.36,7.5,7.51,7.5s7.5-3.36,7.5-7.5
			S326.32,279.1,322.18,279.1z"/>
		<path class="st0" d="M93.44,238.7h-0.01c-4.14,0-7.49,3.36-7.49,7.5s3.36,7.5,7.51,7.5s7.5-3.36,7.5-7.5S97.59,238.7,93.44,238.7z
			"/>
		<path class="st0" d="M336.55,238.7h-0.01c-4.14,0-7.49,3.36-7.49,7.5s3.36,7.5,7.51,7.5s7.5-3.36,7.5-7.5
			S340.69,238.7,336.55,238.7z"/>
		<path class="st0" d="M91.83,214c4.14,0,7.5-3.36,7.5-7.5s-3.36-7.5-7.5-7.5h-0.01c-4.14,0-7.49,3.36-7.49,7.5S87.69,214,91.83,214
			z"/>
		<path class="st0" d="M338.16,214c4.14,0,7.5-3.36,7.5-7.5s-3.36-7.5-7.5-7.5h-0.01c-4.14,0-7.49,3.36-7.49,7.5
			S334.02,214,338.16,214z"/>
		<path class="st0" d="M214.99,317.3c-11.58,0-21,9.42-21,21s9.42,20.99,21,20.99s21-9.42,21-20.99S226.57,317.3,214.99,317.3z
			 M214.99,347.29c-4.96,0-9-4.04-9-8.99c0-4.96,4.04-9,9-9s9,4.04,9,9C223.98,343.25,219.95,347.29,214.99,347.29z"/>
	</g>
</g>
</svg>
