<?xml version="1.0" encoding="utf-8"?>
<!-- Generator: Adobe Illustrator 24.1.2, SVG Export Plug-In . SVG Version: 6.00 Build 0)  -->
<svg version="1.1" id="Warstwa_1" xmlns="http://www.w3.org/2000/svg" xmlns:xlink="http://www.w3.org/1999/xlink" x="0px" y="0px"
	 viewBox="0 0 430 430" style="enable-background:new 0 0 430 430;" xml:space="preserve">
<style type="text/css">
	.st0{fill:#08a88a;}
	.st1{fill:#121331;}
	.st2{fill:#08a88a;}
	.st3{fill:#00A689;}
	.st4{fill:none;}
	.st5{fill:none;stroke:#121331;stroke-width:12;stroke-linecap:round;stroke-linejoin:round;stroke-miterlimit:10;}
</style>
<g>
	<g>
		<path class="st0" d="M132.3,291.77c-3.31,0-6-2.69-6-6v-15.59c0-5.29-4.3-9.59-9.59-9.59s-9.59,4.3-9.59,9.59v15.59
			c0,3.31-2.69,6-6,6s-6-2.69-6-6v-15.59c0-11.91,9.69-21.59,21.59-21.59s21.59,9.69,21.59,21.59v15.59
			C138.3,289.08,135.61,291.77,132.3,291.77z"/>
		<path class="st0" d="M328.89,291.77c-3.31,0-6-2.69-6-6v-15.59c0-5.29-4.3-9.59-9.59-9.59s-9.59,4.3-9.59,9.59v15.59
			c0,3.31-2.69,6-6,6s-6-2.69-6-6v-15.59c0-11.91,9.69-21.59,21.59-21.59s21.59,9.69,21.59,21.59v15.59
			C334.89,289.08,332.2,291.77,328.89,291.77z"/>
	</g>
	<path class="st1" d="M349.78,279.77h-79.28v-17.24c0-10.34-8.41-18.75-18.75-18.75h-15.1v-96.02c0-3.31-2.69-6-6-6s-6,2.69-6,6
		v96.02h-19.28v-96.02c0-3.31-2.69-6-6-6s-6,2.69-6,6v96.02h-15.1c-10.34,0-18.75,8.41-18.75,18.75v17.24H80.22
		c-9.93,0-18,8.07-18,18v65.35c0,9.93,8.07,18,18,18h269.55c9.93,0,18-8.07,18-18v-65.35C367.78,287.84,359.7,279.77,349.78,279.77z
		 M171.51,262.53c0-3.72,3.03-6.75,6.75-6.75h73.48c3.72,0,6.75,3.03,6.75,6.75v17.24h-86.98V262.53z M355.78,363.12
		c0,3.31-2.69,6-6,6H80.22c-3.31,0-6-2.69-6-6v-65.35c0-3.31,2.69-6,6-6h269.55c3.31,0,6,2.69,6,6V363.12z"/>
	<path class="st0" d="M215,156.38c-29.64,0-53.75-24.11-53.75-53.75c0-29.64,24.11-53.75,53.75-53.75s53.75,24.11,53.75,53.75
		C268.75,132.27,244.64,156.38,215,156.38z M215,60.88c-23.02,0-41.75,18.73-41.75,41.75s18.73,41.75,41.75,41.75
		s41.75-18.73,41.75-41.75S238.02,60.88,215,60.88z"/>
</g>
</svg>
