<?xml version="1.0" encoding="utf-8"?>
<!-- Generator: Adobe Illustrator 24.1.2, SVG Export Plug-In . SVG Version: 6.00 Build 0)  -->
<svg version="1.1" id="Warstwa_1" xmlns="http://www.w3.org/2000/svg" xmlns:xlink="http://www.w3.org/1999/xlink" x="0px" y="0px"
	 viewBox="0 0 430 430" style="enable-background:new 0 0 430 430;" xml:space="preserve">
<style type="text/css">
	.st0{fill:#08a88a;}
	.st1{fill:#121331;}
	.st2{fill:#08a88a;}
	.st3{fill:#00A689;}
	.st4{fill:none;}
	.st5{fill:none;stroke:#121331;stroke-width:12;stroke-linecap:round;stroke-linejoin:round;stroke-miterlimit:10;}
</style>
<path class="st1" d="M226.39,201.44c-1.55-18.08-3.09-35.61-4.49-51.4c30.33-33.35,35.02-57.8,34.63-70.71
	c-0.33-10.87-4.44-20.06-11.28-25.21c-7.93-5.97-17.04-7-25.01-2.82c-10.38,5.45-16.41,18.77-15.75,34.78
	c0.27,6.48,2.19,28.22,4.86,58.32c0.04,0.46,0.08,0.92,0.12,1.38c-6.28,6.61-13.67,13.62-22.35,21.02
	c-15.72,13.4-27.29,30.49-33.44,49.43c-6.04,18.57-6.16,37.5-0.34,53.31c9.77,26.52,35.02,41.95,69.46,42.52
	c0.78,13.01,1.34,24.59,1.58,33.97c0.23,9.05-2.09,15.47-6.9,19.08c-3.06,2.3-7.04,3.44-11.18,3.88c2.24-3.45,3.55-7.55,3.55-11.96
	c0-12.13-9.87-22-22-22s-22,9.87-22,22c0,10.02,6.73,18.49,15.91,21.13c0.01,0,0.03,0.01,0.04,0.02c0.63,0.21,9.6,3.03,20.13,3.03
	c7.6,0,16.02-1.47,22.71-6.47c8.12-6.07,12.07-15.83,11.73-29.01c-0.24-9.49-0.8-21.18-1.59-34.31c13.1-1.78,24.13-7.17,32.28-15.85
	c8.96-9.54,13.89-22.56,13.89-36.66C280.95,231.72,261.86,202.89,226.39,201.44z M225.82,61.92c1.56-0.82,3.08-1.15,4.53-1.15
	c3.02,0,5.71,1.44,7.69,2.93c3.92,2.95,6.29,8.78,6.5,15.99c0.25,8.15-2.3,26.76-24.12,53.66c-2.12-23.99-3.71-42.31-3.94-47.77
	C216.02,74.42,219.68,65.14,225.82,61.92z M164.6,265.38c-10.34-28.07,2.41-65.69,30.3-89.46c5.84-4.98,11.14-9.81,15.95-14.49
	c1.14,12.94,2.35,26.79,3.57,40.98c-20.75,4.67-37.38,24.68-37.38,47.1c0,3.31,2.69,6,6,6s6-2.69,6-6
	c0-16.34,11.63-30.97,26.41-35.02c2.48,29.44,4.89,59.63,6.59,85.54C192.93,299.3,172.59,287.06,164.6,265.38z M187.86,347.02
	c5.51,0,10,4.49,10,10s-4.48,10-10,10s-10-4.48-10-10S182.35,347.02,187.86,347.02z M258.32,287.34
	c-6.04,6.43-14.33,10.52-24.29,12.04c-1.71-26.04-4.12-56.34-6.61-85.87c27.29,1.88,41.54,23.76,41.54,45.38
	C268.95,269.94,265.18,280.04,258.32,287.34z"/>
</svg>
