<?xml version="1.0" encoding="utf-8"?>
<!-- Generator: Adobe Illustrator 24.1.2, SVG Export Plug-In . SVG Version: 6.00 Build 0)  -->
<svg version="1.1" id="Warstwa_1" xmlns="http://www.w3.org/2000/svg" xmlns:xlink="http://www.w3.org/1999/xlink" x="0px" y="0px"
	 viewBox="0 0 430 430" style="enable-background:new 0 0 430 430;" xml:space="preserve">
<style type="text/css">
	.st0{fill:#121331;}
	.st1{fill:#08a88a;}
	.st2{fill:#08a88a;}
	.st3{fill:none;}
	.st4{fill:none;stroke:#121331;stroke-width:12;stroke-linecap:round;stroke-linejoin:round;stroke-miterlimit:10;}
	.st5{fill:none;stroke:#08a88a;stroke-width:12;stroke-linecap:round;stroke-linejoin:round;stroke-miterlimit:10;}
	.st6{fill:#08A385;}
</style>
<path class="st0" d="M336.91,324.49H93.09c-2.37,0-4.51-1.39-5.48-3.55L22.78,175.82c-0.92-2.05-0.61-4.44,0.79-6.2
	s3.67-2.58,5.87-2.13l118.91,24.09c3.25,0.66,5.35,3.82,4.69,7.07c-0.66,3.25-3.82,5.34-7.07,4.69L38.49,181.57l58.49,130.92h236.04
	l58.49-130.92l-107.49,21.78c-3.25,0.65-6.41-1.44-7.07-4.69c-0.66-3.25,1.44-6.41,4.69-7.07l118.91-24.09
	c2.2-0.44,4.47,0.38,5.87,2.13c1.4,1.75,1.71,4.15,0.79,6.2l-64.83,145.12C341.42,323.1,339.28,324.49,336.91,324.49z"/>
<path class="st1" d="M303.63,229.81c-1.77,0-3.53-0.78-4.71-2.28L215,121.19l-83.91,106.34c-2.05,2.6-5.82,3.05-8.43,0.99
	c-2.6-2.05-3.05-5.83-0.99-8.43l88.62-112.31c1.14-1.44,2.87-2.28,4.71-2.28s3.57,0.84,4.71,2.28l88.62,112.31
	c2.05,2.6,1.61,6.37-0.99,8.43C306.24,229.39,304.93,229.81,303.63,229.81z"/>
<path class="st1" d="M215,275.38c-3.31,0-6-2.69-6-6V111.51c0-3.31,2.69-6,6-6s6,2.69,6,6v157.87
	C221,272.69,218.31,275.38,215,275.38z"/>
<path class="st0" d="M336.91,324.49H93.09c-2.87,0-5.34-2.04-5.89-4.86c-0.55-2.82,0.98-5.63,3.65-6.71l121.91-49.11
	c1.44-0.58,3.05-0.58,4.48,0l121.91,49.11c2.67,1.07,4.19,3.89,3.65,6.71C342.26,322.45,339.79,324.49,336.91,324.49z
	 M124.04,312.49h181.93L215,275.85L124.04,312.49z"/>
<path class="st0" d="M215,275.38c-0.92,0-1.86-0.21-2.74-0.67l-186.74-96c-2.95-1.51-4.11-5.13-2.59-8.08
	c1.52-2.95,5.13-4.11,8.08-2.59l186.74,96c2.95,1.51,4.11,5.13,2.59,8.08C219.27,274.19,217.17,275.38,215,275.38z"/>
<path class="st0" d="M215,275.38c-2.18,0-4.28-1.19-5.34-3.26c-1.52-2.95-0.35-6.56,2.59-8.08l186.74-96
	c2.95-1.51,6.56-0.35,8.08,2.59c1.51,2.95,0.35,6.56-2.59,8.08l-186.74,96C216.87,275.17,215.93,275.38,215,275.38z"/>
</svg>
