<?xml version="1.0" encoding="utf-8"?>
<!-- Generator: Adobe Illustrator 24.1.2, SVG Export Plug-In . SVG Version: 6.00 Build 0)  -->
<svg version="1.1" id="Warstwa_1" xmlns="http://www.w3.org/2000/svg" xmlns:xlink="http://www.w3.org/1999/xlink" x="0px" y="0px"
	 viewBox="0 0 430 430" style="enable-background:new 0 0 430 430;" xml:space="preserve">
<style type="text/css">
	.st0{fill:#121331;}
	.st1{fill:#08a88a;}
	.st2{fill:#08a88a;}
	.st3{fill:none;}
	.st4{fill:none;stroke:#121331;stroke-width:12;stroke-linecap:round;stroke-linejoin:round;stroke-miterlimit:10;}
	.st5{fill:none;stroke:#08a88a;stroke-width:12;stroke-linecap:round;stroke-linejoin:round;stroke-miterlimit:10;}
	.st6{fill:#08A385;}
</style>
<g>
	<path class="st0" d="M234.2,374.21H195.8c-59.98,0-108.77-48.8-108.77-108.77V154.77c0-32.72,12.34-63.85,34.76-87.67
		c7.74-8.22,18.6-12.28,29.81-11.12c11.13,1.15,20.86,7.29,26.7,16.84c8.24,13.47,6.68,30.51-3.88,42.41
		c-8.81,9.92-13.66,22.7-13.66,35.99c0,1.07,0.03,2.15,0.09,3.21c1.66,28.62,25.45,51.04,54.15,51.04s52.49-22.42,54.15-51.04
		c0.06-1.06,0.09-2.13,0.09-3.21c0-13.29-4.85-26.07-13.66-35.99c-10.56-11.9-12.12-28.94-3.88-42.41
		c5.84-9.55,15.57-15.69,26.7-16.84c11.2-1.17,22.07,2.89,29.81,11.12c22.42,23.81,34.76,54.95,34.76,87.67v110.67
		C342.97,325.41,294.17,374.21,234.2,374.21z M147.86,67.79c-6.55,0-12.76,2.67-17.33,7.54c-20.31,21.58-31.5,49.79-31.5,79.44
		v110.67c0,53.36,43.41,96.77,96.77,96.77h38.39c53.36,0,96.77-43.41,96.77-96.77V154.77c0-29.65-11.19-57.86-31.5-79.44
		c-5.16-5.48-12.38-8.18-19.83-7.41c-7.37,0.76-13.82,4.83-17.69,11.16c-5.46,8.93-4.41,20.26,2.62,28.18
		c10.76,12.12,16.68,27.73,16.68,43.95c0,1.3-0.04,2.62-0.11,3.9c-2.03,34.96-31.08,62.35-66.13,62.35s-64.1-27.39-66.13-62.35
		c-0.07-1.29-0.11-2.6-0.11-3.9c0-16.22,5.92-31.83,16.68-43.96c7.03-7.92,8.08-19.25,2.62-28.18c-3.87-6.33-10.32-10.4-17.69-11.16
		C149.53,67.83,148.69,67.79,147.86,67.79z"/>
	<g>
		<path class="st1" d="M215,257.2c3.31,0,6-2.69,6-6v-11.79c0-3.31-2.69-6-6-6s-6,2.69-6,6v11.79C209,254.51,211.69,257.2,215,257.2
			z"/>
		<path class="st1" d="M184.42,266.35c1.17,1.17,2.71,1.76,4.24,1.76c1.54,0,3.07-0.59,4.24-1.76c2.34-2.34,2.34-6.14,0-8.49
			l-14.11-14.11c-2.34-2.34-6.14-2.34-8.49,0c-2.34,2.34-2.34,6.14,0,8.49L184.42,266.35z"/>
		<path class="st1" d="M183.75,288.44c0-3.31-2.69-6-6-6h-11.79c-3.31,0-6,2.69-6,6s2.69,6,6,6h11.79
			C181.06,294.44,183.75,291.76,183.75,288.44z"/>
		<path class="st1" d="M184.42,310.54l-14.11,14.11c-2.34,2.34-2.34,6.14,0,8.48c1.17,1.17,2.71,1.76,4.24,1.76s3.07-0.59,4.24-1.76
			l14.11-14.11c2.34-2.34,2.34-6.14,0-8.48C190.56,308.2,186.76,308.2,184.42,310.54z"/>
		<path class="st1" d="M215,319.69c-3.31,0-6,2.69-6,6v11.79c0,3.31,2.69,6,6,6s6-2.69,6-6v-11.79
			C221,322.38,218.31,319.69,215,319.69z"/>
		<path class="st1" d="M264.04,282.44h-11.79c-3.31,0-6,2.69-6,6s2.69,6,6,6h11.79c3.31,0,6-2.69,6-6S267.35,282.44,264.04,282.44z"
			/>
		<path class="st1" d="M241.34,268.11c1.54,0,3.07-0.59,4.24-1.76l14.11-14.11c2.34-2.34,2.34-6.14,0-8.49
			c-2.34-2.34-6.14-2.34-8.49,0l-14.11,14.11c-2.34,2.34-2.34,6.14,0,8.49C238.27,267.52,239.8,268.11,241.34,268.11z"/>
		<path class="st1" d="M245.57,310.56c-2.34-2.34-6.14-2.34-8.49,0c-2.34,2.34-2.34,6.14,0,8.49l14.11,14.11
			c1.17,1.17,2.71,1.76,4.24,1.76s3.07-0.59,4.24-1.76c2.34-2.34,2.34-6.14,0-8.49L245.57,310.56z"/>
		<path class="st1" d="M214.98,262.86c-14.12,0-25.6,11.48-25.6,25.6s11.48,25.6,25.6,25.6c14.12,0,25.6-11.48,25.6-25.6
			S229.1,262.86,214.98,262.86z M214.98,302.06c-7.5,0-13.6-6.1-13.6-13.6s6.1-13.6,13.6-13.6s13.6,6.1,13.6,13.6
			S222.48,302.06,214.98,302.06z"/>
	</g>
</g>
</svg>
