<?xml version="1.0" encoding="utf-8"?>
<!-- Generator: Adobe Illustrator 24.0.2, SVG Export Plug-In . SVG Version: 6.00 Build 0)  -->
<svg version="1.1" xmlns="http://www.w3.org/2000/svg" xmlns:xlink="http://www.w3.org/1999/xlink" x="0px" y="0px"
	 viewBox="0 0 24 24" style="enable-background:new 0 0 24 24;" xml:space="preserve">
<style type="text/css">
	.st0{fill:none;}
	.st1{fill:#121331;}
</style>
<g id="bounding_box">
	<rect class="st0" width="24" height="24"/>
</g>
<g id="design">
	<g>
		<g>
			<path class="st1" d="M21.25,10.92c-0.41,0-0.75-0.34-0.75-0.75V4.75C20.5,4.34,20.84,4,21.25,4S22,4.34,22,4.75v5.42
				C22,10.58,21.66,10.92,21.25,10.92z"/>
			<path class="st1" d="M16.1,14.44c-1.28,0-2.32-1.04-2.32-2.32v-1.2h-0.94c-0.55,0-1.07-0.24-1.42-0.67s-0.49-0.98-0.38-1.52
				l0.65-3.25C11.86,4.62,12.61,4,13.48,4h4.8c0.41,0,0.75,0.34,0.75,0.75v5.42c0,0.14-0.04,0.28-0.11,0.4l-2.19,3.52
				C16.6,14.31,16.36,14.44,16.1,14.44z M13.48,5.5c-0.16,0-0.3,0.11-0.33,0.27l-0.65,3.25c-0.03,0.13,0.03,0.23,0.07,0.28
				s0.12,0.12,0.26,0.12h1.69c0.41,0,0.75,0.34,0.75,0.75v1.95c0,0.32,0.19,0.6,0.46,0.73l1.8-2.9V5.5H13.48z M18.28,10.17
				L18.28,10.17L18.28,10.17z"/>
		</g>
		<g>
			<path class="st1" d="M2.75,20C2.34,20,2,19.66,2,19.25v-5.42c0-0.41,0.34-0.75,0.75-0.75s0.75,0.34,0.75,0.75v5.42
				C3.5,19.66,3.16,20,2.75,20z"/>
			<path class="st1" d="M10.52,20h-4.8c-0.41,0-0.75-0.34-0.75-0.75v-5.42c0-0.14,0.04-0.28,0.11-0.4l2.19-3.52
				C7.4,9.7,7.64,9.56,7.9,9.56h0c0.62,0,1.2,0.24,1.64,0.68s0.68,1.02,0.68,1.64v1.2h0.94c0.55,0,1.07,0.24,1.42,0.67
				s0.49,0.98,0.38,1.52l-0.65,3.25C12.14,19.38,11.39,20,10.52,20z M6.47,18.5h4.05c0.16,0,0.3-0.11,0.33-0.27l0.65-3.25
				c0.03-0.13-0.03-0.23-0.07-0.28s-0.12-0.12-0.26-0.12H9.47c-0.41,0-0.75-0.34-0.75-0.75v-1.95c0-0.22-0.08-0.42-0.24-0.58
				c-0.06-0.06-0.14-0.12-0.22-0.16l-1.8,2.9V18.5z"/>
		</g>
	</g>
</g>
</svg>
