<?xml version="1.0" encoding="utf-8"?>
<!-- Generator: Adobe Illustrator 24.1.2, SVG Export Plug-In . SVG Version: 6.00 Build 0)  -->
<svg version="1.1" id="Warstwa_1" xmlns="http://www.w3.org/2000/svg" xmlns:xlink="http://www.w3.org/1999/xlink" x="0px" y="0px"
	 viewBox="0 0 430 430" style="enable-background:new 0 0 430 430;" xml:space="preserve">
<style type="text/css">
	.st0{fill:#08a88a;}
	.st1{fill:#121331;}
	.st2{fill:none;stroke:#121331;stroke-width:12;stroke-linecap:round;stroke-linejoin:round;stroke-miterlimit:10;}
	.st3{fill:#08a88a;}
	.st4{fill:#08A284;}
</style>
<g>
	<g>
		<path class="st0" d="M279.54,191.78l-66.83-17.91c-3.2-0.86-6.49,1.04-7.35,4.24s1.04,6.49,4.24,7.35l66.83,17.91
			c0.52,0.14,1.04,0.21,1.56,0.21c2.65,0,5.07-1.77,5.79-4.45C284.64,195.93,282.74,192.64,279.54,191.78z"/>
		<path class="st0" d="M247.73,310.06l-66.83-17.91c-3.2-0.86-6.49,1.04-7.35,4.24c-0.86,3.2,1.04,6.49,4.24,7.35l66.83,17.91
			c0.52,0.14,1.04,0.21,1.56,0.21c2.65,0,5.07-1.77,5.79-4.45C252.83,314.21,250.93,310.92,247.73,310.06z"/>
		<path class="st0" d="M263.63,250.96l-66.81-17.98c-3.2-0.86-6.49,1.03-7.35,4.23c-0.86,3.2,1.04,6.49,4.23,7.35l66.81,17.98
			c0.52,0.14,1.05,0.21,1.56,0.21c2.65,0,5.07-1.76,5.79-4.44C268.73,255.11,266.83,251.82,263.63,250.96z"/>
		<path class="st0" d="M295.44,132.64l-66.83-17.91c-3.2-0.86-6.49,1.04-7.35,4.24c-0.86,3.2,1.04,6.49,4.24,7.35l66.83,17.91
			c0.52,0.14,1.04,0.21,1.56,0.21c2.65,0,5.07-1.77,5.79-4.45C300.54,136.78,298.64,133.49,295.44,132.64z"/>
		<path class="st0" d="M303.39,103.07l-66.83-17.91c-3.2-0.86-6.49,1.04-7.35,4.24s1.04,6.49,4.24,7.35l66.83,17.91
			c0.52,0.14,1.04,0.21,1.56,0.21c2.65,0,5.07-1.77,5.79-4.45C308.49,107.21,306.59,103.92,303.39,103.07z"/>
		<path class="st0" d="M287.54,162.22l-66.83-17.91c-3.2-0.86-6.49,1.04-7.35,4.24s1.04,6.49,4.24,7.35l66.83,17.91
			c0.52,0.14,1.04,0.21,1.56,0.21c2.65,0,5.07-1.77,5.79-4.45C292.64,166.37,290.74,163.08,287.54,162.22z"/>
		<path class="st0" d="M271.69,221.38l-66.83-17.91c-3.2-0.86-6.49,1.04-7.35,4.24s1.04,6.49,4.24,7.35l66.83,17.91
			c0.52,0.14,1.04,0.21,1.56,0.21c2.65,0,5.07-1.77,5.79-4.45C276.79,225.52,274.89,222.23,271.69,221.38z"/>
		<path class="st0" d="M255.84,280.53l-66.83-17.91c-3.2-0.86-6.49,1.04-7.35,4.24s1.04,6.49,4.24,7.35l66.83,17.91
			c0.52,0.14,1.04,0.21,1.56,0.21c2.65,0,5.07-1.77,5.79-4.45C260.94,284.68,259.04,281.39,255.84,280.53z"/>
		<path class="st0" d="M239.75,339.63l-66.83-17.91c-3.2-0.86-6.49,1.04-7.35,4.24c-0.86,3.2,1.04,6.49,4.24,7.35l66.83,17.91
			c0.52,0.14,1.04,0.21,1.56,0.21c2.65,0,5.07-1.77,5.79-4.45C244.85,343.77,242.96,340.48,239.75,339.63z"/>
	</g>
	<path class="st1" d="M311.19,73.45l-66.83-17.91c0,0,0,0,0,0s0,0,0,0l-19.71-5.28c-20.06-5.38-40.75,6.57-46.13,26.63L115.66,311.5
		c-5.38,20.06,6.57,40.75,26.63,46.13l86.54,23.19c0.52,0.14,1.04,0.21,1.56,0.21c2.65,0,5.07-1.77,5.79-4.45
		c0.86-3.2-1.04-6.49-4.24-7.35l-61.03-16.35l76.15-284.19l61.03,16.35c3.2,0.86,6.49-1.04,7.35-4.24
		C316.29,77.6,314.39,74.31,311.19,73.45z M159.31,349.77l-13.92-3.73c-13.67-3.66-21.81-17.76-18.15-31.43L190.11,80
		c3.66-13.67,17.76-21.81,31.43-18.15l13.92,3.73L159.31,349.77z"/>
</g>
</svg>
