<?xml version="1.0" encoding="utf-8"?>
<!-- Generator: Adobe Illustrator 24.0.2, SVG Export Plug-In . SVG Version: 6.00 Build 0)  -->
<svg version="1.1" xmlns="http://www.w3.org/2000/svg" xmlns:xlink="http://www.w3.org/1999/xlink" x="0px" y="0px"
	 viewBox="0 0 24 24" style="enable-background:new 0 0 24 24;" xml:space="preserve">
<style type="text/css">
	.st0{fill:none;}
	.st1{fill:#121331;}
</style>
<g id="bounding_box">
	<rect class="st0" width="24" height="24"/>
</g>
<g id="design">
	<g>
		<g>
			<path class="st1" d="M15.79,11.58l-2.56-0.51V6.95c0-1.08-0.88-1.95-1.95-1.95C10.2,5,9.32,5.87,9.32,6.94v6.87l-1.67-0.44
				c-0.64-0.17-1.31-0.04-1.83,0.36S5,14.74,5,15.4c0,0.24,0.12,0.47,0.33,0.61l3.99,2.74v2.5c0,0.41,0.34,0.75,0.75,0.75h6.65
				c0.41,0,0.75-0.34,0.75-0.75v-2.73l0.51-3.92C18.16,13.18,17.2,11.86,15.79,11.58z M6.6,15.07c0.04-0.07,0.09-0.12,0.13-0.15
				c0.15-0.11,0.35-0.16,0.54-0.1l2.61,0.7c0.22,0.05,0.46,0.01,0.65-0.13c0.18-0.15,0.29-0.37,0.29-0.6V6.94
				c0-0.24,0.21-0.44,0.46-0.44s0.45,0.2,0.45,0.45v4.74c0,0.35,0.25,0.66,0.6,0.73l3.17,0.63c0.64,0.13,1.07,0.72,0.99,1.36
				l-0.4,3.1h-5.93L6.6,15.07z M15.97,20.5h-5.15v-1.49h5.15V20.5z"/>
		</g>
		<g>
			<path class="st1" d="M21,4.75v2.5C21,7.66,20.66,8,20.25,8h-2.5C17.34,8,17,7.66,17,7.25c0-0.41,0.34-0.75,0.75-0.75h0.73
				c-1.6-1.9-3.94-3-6.48-3c-2.55,0-4.89,1.1-6.49,3h0.74C6.66,6.5,7,6.84,7,7.25C7,7.66,6.66,8,6.25,8h-2.5C3.34,8,3,7.66,3,7.25
				v-2.5C3,4.34,3.34,4,3.75,4S4.5,4.34,4.5,4.75V5.4C6.37,3.27,9.11,2,12,2c2.93,0,5.63,1.24,7.5,3.39V4.75
				C19.5,4.34,19.84,4,20.25,4S21,4.34,21,4.75z"/>
		</g>
	</g>
</g>
</svg>
