<?xml version="1.0" encoding="utf-8"?>
<!-- Generator: Adobe Illustrator 24.1.2, SVG Export Plug-In . SVG Version: 6.00 Build 0)  -->
<svg version="1.1" id="Warstwa_1" xmlns="http://www.w3.org/2000/svg" xmlns:xlink="http://www.w3.org/1999/xlink" x="0px" y="0px"
	 viewBox="0 0 430 430" style="enable-background:new 0 0 430 430;" xml:space="preserve">
<style type="text/css">
	.st0{fill:#08a88a;}
	.st1{fill:#121331;}
	.st2{fill:none;stroke:#121331;stroke-width:12;stroke-linecap:round;stroke-linejoin:round;stroke-miterlimit:10;}
	.st3{fill:#08a88a;}
	.st4{fill:#08A284;}
</style>
<g>
	<g>
		<path class="st0" d="M176.16,60.88h4.59v54.72c0,3.31,2.69,6,6,6s6-2.69,6-6V60.88h44.5v54.72c0,3.31,2.69,6,6,6s6-2.69,6-6V60.88
			h4.59c3.31,0,6-2.69,6-6s-2.69-6-6-6h-77.67c-3.31,0-6,2.69-6,6S172.85,60.88,176.16,60.88z"/>
		<path class="st0" d="M215,169.36c-27.92,0-50.64,22.72-50.64,50.64s22.72,50.64,50.64,50.64s50.64-22.72,50.64-50.64
			S242.92,169.36,215,169.36z M215,258.64c-21.31,0-38.64-17.33-38.64-38.64c0-21.31,17.33-38.64,38.64-38.64
			s38.64,17.33,38.64,38.64C253.64,241.31,236.31,258.64,215,258.64z"/>
	</g>
	<g>
		<path class="st1" d="M235.47,108.94h-40.94c-28.93,0-52.47,23.54-52.47,52.47v202.64c0,9.41,7.65,17.06,17.06,17.06h111.77
			c9.41,0,17.06-7.65,17.06-17.06V161.41C287.94,132.48,264.41,108.94,235.47,108.94z M275.94,364.06c0,2.79-2.27,5.06-5.06,5.06
			H159.12c-2.79,0-5.06-2.27-5.06-5.06V161.41c0-22.32,18.16-40.47,40.47-40.47h40.94c22.32,0,40.47,18.16,40.47,40.47V364.06z"/>
		<path class="st1" d="M244.38,287.94h-58.75c-3.31,0-6,2.69-6,6s2.69,6,6,6h58.75c3.31,0,6-2.69,6-6S247.69,287.94,244.38,287.94z"
			/>
		<path class="st1" d="M244.38,314.94h-58.75c-3.31,0-6,2.69-6,6s2.69,6,6,6h58.75c3.31,0,6-2.69,6-6S247.69,314.94,244.38,314.94z"
			/>
	</g>
</g>
</svg>
