<?xml version="1.0" encoding="utf-8"?>
<!-- Generator: Adobe Illustrator 24.1.2, SVG Export Plug-In . SVG Version: 6.00 Build 0)  -->
<svg version="1.1" id="Warstwa_1" xmlns="http://www.w3.org/2000/svg" xmlns:xlink="http://www.w3.org/1999/xlink" x="0px" y="0px"
	 viewBox="0 0 430 430" style="enable-background:new 0 0 430 430;" xml:space="preserve">
<style type="text/css">
	.st0{fill:#08a88a;}
	.st1{fill:#121331;}
	.st2{fill:none;}
	.st3{fill:none;stroke:#121331;stroke-width:12;stroke-linecap:round;stroke-linejoin:round;stroke-miterlimit:10;}
	.st4{fill:#08a88a;}
</style>
<g>
	<g>
		<path class="st0" d="M246.9,79.32c-20.9,0-37.9,17-37.9,37.9v61.31c0,3.31,2.69,6,6,6s6-2.69,6-6v-61.31
			c0-14.28,11.62-25.9,25.9-25.9s25.9,11.62,25.9,25.9v12.78c0,3.31,2.69,6,6,6s6-2.69,6-6v-12.78
			C284.79,96.32,267.79,79.32,246.9,79.32z"/>
		<path class="st0" d="M182.8,139.27c-3.31,0-6,2.69-6,6v33.82c0,3.31,2.69,6,6,6s6-2.69,6-6v-33.82
			C188.8,141.95,186.11,139.27,182.8,139.27z"/>
		<path class="st0" d="M247.2,139.27c-3.31,0-6,2.69-6,6v33.82c0,3.31,2.69,6,6,6s6-2.69,6-6v-33.82
			C253.2,141.95,250.51,139.27,247.2,139.27z"/>
	</g>
	<path class="st1" d="M379.85,175.39c-1.14-1.46-2.88-2.31-4.73-2.31H54.88c-1.85,0-3.6,0.85-4.73,2.31
		c-1.14,1.46-1.54,3.36-1.09,5.15l8.31,33.02c13.27,52.74,56.86,91.28,109.4,98.98v32.14c0,3.31,2.69,6,6,6h84.46c3.31,0,6-2.69,6-6
		v-32.14c52.53-7.69,96.12-46.24,109.4-98.98l8.31-33.02C381.39,178.75,380.99,176.85,379.85,175.39z M251.23,338.68h-72.46v-24.94
		c2.45,0.13,4.91,0.21,7.39,0.21h57.69c2.48,0,4.94-0.08,7.39-0.21V338.68z M360.99,210.64c-13.53,53.77-61.7,91.32-117.15,91.32
		h-57.69c-55.44,0-103.62-37.55-117.15-91.32l-6.43-25.56h304.84L360.99,210.64z"/>
</g>
</svg>
