<?xml version="1.0" encoding="utf-8"?>
<!-- Generator: Adobe Illustrator 24.1.2, SVG Export Plug-In . SVG Version: 6.00 Build 0)  -->
<svg version="1.1" id="Warstwa_1" xmlns="http://www.w3.org/2000/svg" xmlns:xlink="http://www.w3.org/1999/xlink" x="0px" y="0px"
	 viewBox="0 0 430 430" style="enable-background:new 0 0 430 430;" xml:space="preserve">
<style type="text/css">
	.st0{fill:#08a88a;}
	.st1{fill:#121331;}
	.st2{fill:none;}
	.st3{fill:none;stroke:#121331;stroke-width:12;stroke-linecap:round;stroke-linejoin:round;stroke-miterlimit:10;}
	.st4{fill:#08a88a;}
</style>
<path class="st1" d="M68.22,367.78c-3.31,0-6-2.69-6-6v-58.71c0-3.31,2.69-6,6-6h52.71v-52.71c0-3.31,2.69-6,6-6h52.71v-52.71
	c0-3.31,2.69-6,6-6h52.71v-52.71c0-3.31,2.69-6,6-6h52.71V68.22c0-3.31,2.69-6,6-6h58.71c3.31,0,6,2.69,6,6s-2.69,6-6,6h-52.71
	v52.71c0,3.31-2.69,6-6,6h-52.71v52.71c0,3.31-2.69,6-6,6h-52.71v52.71c0,3.31-2.69,6-6,6h-52.71v52.71c0,3.31-2.69,6-6,6H74.22
	v52.71C74.22,365.09,71.54,367.78,68.22,367.78z"/>
</svg>
