<?xml version="1.0" encoding="utf-8"?>
<!-- Generator: Adobe Illustrator 24.1.2, SVG Export Plug-In . SVG Version: 6.00 Build 0)  -->
<svg version="1.1" id="Warstwa_1" xmlns="http://www.w3.org/2000/svg" xmlns:xlink="http://www.w3.org/1999/xlink" x="0px" y="0px"
	 viewBox="0 0 430 430" style="enable-background:new 0 0 430 430;" xml:space="preserve">
<style type="text/css">
	.st0{fill:#08a88a;}
	.st1{fill:#121331;}
	.st2{fill:none;}
	.st3{fill:none;stroke:#121331;stroke-width:12;stroke-linecap:round;stroke-linejoin:round;stroke-miterlimit:10;}
	.st4{fill:#08a88a;}
</style>
<g>
	<path class="st1" d="M345.23,287.58c-3.31,0-6,2.69-6,6v16.28c0,17.64-14.35,31.99-31.98,31.99s-31.98-14.35-31.98-31.99V263.4
		c0-17.16-13.96-31.12-31.12-31.12c-9.06,0-17.37,3.89-23.14,10.31v-114.4h27.36c18.02,0,32.69-14.66,32.69-32.69V82.16
		c0-3.31-2.69-6-6-6H154.96c-3.31,0-6,2.69-6,6V95.5c0,18.02,14.66,32.69,32.69,32.69H209v114.4c-5.77-6.42-14.08-10.31-23.14-10.31
		c-17.16,0-31.12,13.96-31.12,31.12v46.46c0,17.64-14.35,31.99-31.98,31.99s-31.98-14.35-31.98-31.99v-16.28c0-3.31-2.69-6-6-6
		s-6,2.69-6,6v16.28c0,24.25,19.73,43.99,43.98,43.99s43.98-19.73,43.98-43.99V263.4c0-10.54,8.58-19.12,19.12-19.12
		c8.33,0,15.64,5.32,18.2,13.25l2.7,8.35h-13.46c-1.75,0-3.41,0.76-4.55,2.09c-1.14,1.33-1.64,3.09-1.38,4.82l9.21,60.19
		c1.4,9.17,9.15,15.82,18.43,15.82c9.27,0,17.02-6.65,18.43-15.82l9.21-60.19c0.26-1.73-0.24-3.49-1.38-4.82
		c-1.14-1.33-2.8-2.09-4.55-2.09h-13.46l2.7-8.35c2.56-7.92,9.87-13.25,18.2-13.25c10.54,0,19.12,8.58,19.12,19.12v46.46
		c0,24.25,19.73,43.99,43.98,43.99s43.98-19.73,43.98-43.99v-16.28C351.23,290.27,348.55,287.58,345.23,287.58z M160.96,95.5v-7.34
		h108.09v7.34c0,11.41-9.28,20.69-20.69,20.69h-66.72C170.24,116.19,160.96,106.91,160.96,95.5z M221.56,331.15
		c-0.5,3.27-3.26,5.64-6.56,5.64c-3.3,0-6.06-2.37-6.56-5.64l-8.15-53.28h14.63c0.02,0,0.03,0,0.05,0h0.09c0.01,0,0.01,0,0.02,0
		h14.65L221.56,331.15z"/>
	<g>
		<path class="st0" d="M109.83,225.01c-0.47-2.91-2.98-5.04-5.92-5.04H65.63c-2.94,0-5.45,2.13-5.92,5.04l-10.95,67.61
			c-0.28,1.74,0.21,3.51,1.35,4.85c1.14,1.34,2.81,2.11,4.57,2.11h60.17c1.76,0,3.43-0.77,4.57-2.11c1.14-1.34,1.63-3.11,1.35-4.85
			L109.83,225.01z M61.73,287.58l9.01-55.61H98.8l9.01,55.61H61.73z"/>
		<path class="st0" d="M381.24,292.62l-10.95-67.61c-0.47-2.91-2.98-5.04-5.92-5.04H326.1c-2.94,0-5.45,2.13-5.92,5.04l-10.95,67.61
			c-0.28,1.74,0.21,3.51,1.35,4.85c1.14,1.34,2.81,2.11,4.57,2.11h60.17c1.76,0,3.43-0.77,4.57-2.11
			C381.03,296.13,381.52,294.35,381.24,292.62z M322.2,287.58l9.01-55.61h28.06l9.01,55.61H322.2z"/>
	</g>
</g>
</svg>
