<?xml version="1.0" encoding="utf-8"?>
<!-- Generator: Adobe Illustrator 24.1.2, SVG Export Plug-In . SVG Version: 6.00 Build 0)  -->
<svg version="1.1" id="Warstwa_1" xmlns="http://www.w3.org/2000/svg" xmlns:xlink="http://www.w3.org/1999/xlink" x="0px" y="0px"
	 viewBox="0 0 430 430" style="enable-background:new 0 0 430 430;" xml:space="preserve">
<style type="text/css">
	.st0{fill:#121331;}
	.st1{fill:#08a88a;}
	.st2{fill:#08a88a;}
	.st3{fill:none;}
	.st4{fill:#08A385;}
	.st5{fill:none;stroke:#08A385;stroke-width:12;stroke-linecap:round;stroke-linejoin:round;stroke-miterlimit:10;}
	.st6{fill:none;stroke:#121331;stroke-width:12;stroke-linecap:round;stroke-linejoin:round;stroke-miterlimit:10;}
</style>
<g>
	<g>
		<path class="st1" d="M326.43,291.96c-0.52-3.27-3.6-5.5-6.87-4.98l-35.86,5.74c-3.27,0.52-5.5,3.6-4.98,6.87
			c0.47,2.95,3.02,5.05,5.92,5.05c0.31,0,0.63-0.02,0.96-0.08l35.86-5.74C324.73,298.31,326.96,295.23,326.43,291.96z"/>
		<path class="st1" d="M200.78,158.24h-3.79c-14.14,0-25.64,11.5-25.64,25.64v64.5c0,14.14,11.5,25.64,25.64,25.64h3.79
			c14.14,0,25.64-11.5,25.64-25.64v-64.5C226.42,169.74,214.92,158.24,200.78,158.24z M214.42,248.38c0,7.52-6.12,13.64-13.64,13.64
			h-3.79c-7.52,0-13.64-6.12-13.64-13.64v-8.95h9.53c3.31,0,6-2.69,6-6s-2.69-6-6-6h-9.53v-22.59h9.53c3.31,0,6-2.69,6-6
			s-2.69-6-6-6h-9.53v-8.95c0-7.52,6.12-13.64,13.64-13.64h3.79c7.52,0,13.64,6.12,13.64,13.64V248.38z"/>
	</g>
	<path class="st0" d="M279.69,87.75l-12.29,0c-8.59-15.62-25.12-25.53-43.15-25.53h-50.74c-18.03,0-34.56,9.9-43.15,25.53H90.77
		c-2.05,0-3.96,1.05-5.06,2.77s-1.25,3.9-0.38,5.76l27.93,60.06c-10.81,72.96-5.8,149.94-4.64,165.14
		c-11.68,14.71-11.83,39.2-11.83,40.29c0,3.31,2.69,6,6,6h192.2c3.31,0,6-2.69,6-6c0-1.09-0.15-25.58-11.83-40.29
		c0.55-7.26,1.98-28.59,2.15-56.85c14.06-2.51,26.94-9.57,36.71-20.23c11.1-12.11,17.21-27.83,17.21-44.27v-46.86
		C345.23,117.15,315.83,87.75,279.69,87.75z M138.36,99.75H259.4c25.47,77.22,19.73,191.51,17.99,217.74H120.38
		C118.64,291.26,112.89,177,138.36,99.75z M279.04,126.38c15.58,1.89,27.69,15.18,27.69,31.26v38.14c0,11.61-6.36,22.05-16.15,27.52
		C289.28,192.3,286.02,158.02,279.04,126.38z M173.51,74.22h50.74c11.25,0,21.74,5.1,28.71,13.53H144.8
		C151.77,79.32,162.26,74.22,173.51,74.22z M100.18,99.75h25.58c-3.57,11.4-6.52,23.44-8.94,35.79L100.18,99.75z M109.15,355.78
		c0.69-7.04,2.69-18.7,8.43-26.29h162.61c5.74,7.59,7.73,19.25,8.43,26.29H109.15z M333.23,200.14c0,25.57-17.62,46.97-41.93,52.27
		c-0.04-5.2-0.13-10.58-0.27-16.1c16.53-6.43,27.71-22.46,27.71-40.53v-38.14c0-23.69-19.04-43-42.61-43.47
		c-1.27-4.9-2.64-9.72-4.11-14.42l7.69,0c29.52,0,53.53,24.02,53.53,53.53V200.14z"/>
</g>
</svg>
