<?xml version="1.0" encoding="utf-8"?>
<!-- Generator: Adobe Illustrator 24.1.2, SVG Export Plug-In . SVG Version: 6.00 Build 0)  -->
<svg version="1.1" id="Warstwa_1" xmlns="http://www.w3.org/2000/svg" xmlns:xlink="http://www.w3.org/1999/xlink" x="0px" y="0px"
	 viewBox="0 0 430 430" style="enable-background:new 0 0 430 430;" xml:space="preserve">
<style type="text/css">
	.st0{fill:#121331;}
	.st1{fill:#08a88a;}
	.st2{fill:#08a88a;}
	.st3{fill:none;}
	.st4{fill:#08A385;}
	.st5{fill:none;stroke:#08A385;stroke-width:12;stroke-linecap:round;stroke-linejoin:round;stroke-miterlimit:10;}
	.st6{fill:none;stroke:#121331;stroke-width:12;stroke-linecap:round;stroke-linejoin:round;stroke-miterlimit:10;}
</style>
<path class="st0" d="M91.97,380.38h-28.5c-3.31,0-6-2.69-6-6s2.69-6,6-6h28.5c3.31,0,6,2.69,6,6S95.28,380.38,91.97,380.38z"/>
<g>
	<g>
		<path class="st0" d="M372.27,372.63L283.29,80.61c-0.01-0.04-0.03-0.07-0.04-0.11c-0.07-0.24-0.15-0.48-0.25-0.72
			c-0.04-0.09-0.08-0.17-0.12-0.26c-0.1-0.2-0.2-0.39-0.32-0.57c-0.05-0.08-0.1-0.15-0.15-0.23c-0.13-0.19-0.27-0.37-0.43-0.54
			c-0.05-0.06-0.11-0.12-0.16-0.18c-0.18-0.19-0.37-0.36-0.58-0.53c-0.06-0.05-0.12-0.09-0.18-0.14c-0.19-0.14-0.39-0.28-0.6-0.4
			c-0.06-0.03-0.12-0.07-0.18-0.1c-0.21-0.11-0.44-0.21-0.66-0.3c-0.09-0.03-0.18-0.07-0.27-0.1c-0.04-0.01-0.08-0.03-0.12-0.04
			c-0.22-0.07-0.43-0.12-0.65-0.16c-0.07-0.01-0.14-0.02-0.22-0.03c-0.27-0.04-0.53-0.06-0.8-0.07c-0.03,0-0.05-0.01-0.08-0.01
			c-0.01,0-0.02,0-0.04,0c-0.01,0-0.03,0-0.04,0c-1.18,0.01-2.27,0.37-3.19,0.97c-0.02,0.01-0.04,0.02-0.05,0.03
			c-0.1,0.07-0.2,0.14-0.29,0.22c-0.06,0.05-0.12,0.09-0.18,0.14c-0.05,0.04-0.1,0.09-0.16,0.14c-0.1,0.08-0.19,0.17-0.28,0.26
			c-0.01,0.01-0.03,0.03-0.04,0.05c-0.51,0.52-0.94,1.14-1.24,1.84c0,0.01-0.01,0.02-0.01,0.02c-0.02,0.05-0.04,0.11-0.06,0.16
			c-0.05,0.14-0.1,0.27-0.15,0.41c0,0.01,0,0.01-0.01,0.01l-39.12,128.42c-0.02,0.05-0.03,0.11-0.05,0.16l-9.06,29.74
			c-0.01,0.02-0.01,0.04-0.02,0.06l-39.49,129.6h-15.95l86.68-284.49c0.97-3.17-0.82-6.52-3.99-7.49c-3.17-0.96-6.52,0.82-7.49,3.99
			l-18.44,60.53h-55.45l17.38-57.03c0.97-3.17-0.82-6.52-3.99-7.49c-3.17-0.96-6.52,0.82-7.49,3.99l-18.44,60.53h-0.65
			c-3.31,0-6,2.69-6,6c0,2.3,1.3,4.3,3.21,5.31l-15.97,52.43h-0.58c-3.31,0-6,2.69-6,6c0,2.28,1.27,4.26,3.14,5.28l-15.98,52.46
			h-0.92c-3.31,0-6,2.69-6,6c0,2.4,1.41,4.46,3.44,5.42l-15.94,52.32h-1.02c-3.31,0-6,2.69-6,6c0,2.43,1.45,4.52,3.53,5.46
			l-8.85,29.04c-0.97,3.17,0.82,6.52,3.99,7.49c0.58,0.18,1.17,0.26,1.75,0.26c2.57,0,4.95-1.67,5.74-4.25l9.75-32h55.45
			l-8.66,28.43c-0.01,0.02-0.01,0.04-0.02,0.06v0c0,0,0,0,0,0c-0.06,0.19-0.11,0.38-0.14,0.58c-0.02,0.09-0.03,0.18-0.04,0.26
			c-0.02,0.11-0.04,0.21-0.05,0.32c-0.02,0.18-0.03,0.36-0.03,0.54c0,0.02,0,0.03,0,0.05c0,0,0,0,0,0c0,0.41,0.04,0.81,0.12,1.2
			c0.03,0.15,0.07,0.29,0.11,0.43c0.01,0.04,0.02,0.09,0.03,0.13c0.05,0.16,0.11,0.32,0.17,0.48c0.01,0.02,0.01,0.04,0.02,0.06
			c0.06,0.14,0.13,0.28,0.2,0.42c0.02,0.04,0.03,0.07,0.05,0.11c0.06,0.11,0.13,0.22,0.19,0.33c0.04,0.06,0.07,0.12,0.11,0.18
			c0.05,0.08,0.11,0.15,0.17,0.23c0.06,0.08,0.12,0.16,0.18,0.24c0.04,0.05,0.08,0.09,0.13,0.14c0.09,0.1,0.17,0.2,0.27,0.29
			c0.02,0.02,0.05,0.05,0.07,0.07c0.11,0.11,0.23,0.22,0.35,0.32c0.01,0.01,0.03,0.02,0.04,0.03c0.14,0.11,0.28,0.22,0.42,0.32
			c0.04,0.03,0.09,0.05,0.14,0.08c0.12,0.07,0.23,0.15,0.36,0.22c0.35,0.19,0.73,0.35,1.12,0.47l0,0c0,0,0,0,0,0
			c0.25,0.08,0.51,0.13,0.77,0.17c0.07,0.01,0.14,0.02,0.2,0.03c0.23,0.03,0.46,0.05,0.7,0.05c0.03,0,0.05,0.01,0.08,0.01
			c0.01,0,0.02,0,0.02,0h28.45c0.01,0,0.02,0,0.03,0c0.02,0,0.05-0.01,0.07-0.01c0.26,0,0.52-0.03,0.77-0.06
			c0.07-0.01,0.14-0.02,0.21-0.03c0.27-0.05,0.54-0.11,0.8-0.2c0.03-0.01,0.06-0.02,0.09-0.03c0.25-0.09,0.5-0.19,0.73-0.31
			c0.04-0.02,0.07-0.03,0.11-0.05c0.24-0.13,0.48-0.27,0.7-0.43c0.05-0.03,0.09-0.07,0.14-0.11c0.22-0.17,0.43-0.34,0.62-0.53
			c0.02-0.02,0.04-0.04,0.06-0.06c0.18-0.18,0.34-0.38,0.5-0.59c0.04-0.05,0.08-0.1,0.11-0.15c0.16-0.23,0.3-0.46,0.43-0.71
			c0.02-0.05,0.04-0.09,0.07-0.14c0.13-0.27,0.25-0.55,0.34-0.84l0,0l20.8-68.27l20.8,68.28c0.77,2.53,3.1,4.25,5.74,4.25h28.5
			c1.9,0,3.69-0.9,4.82-2.43s1.47-3.5,0.92-5.32l-8.69-28.51h55.45l9.75,32c0.77,2.53,3.1,4.25,5.74,4.25h28.5
			c1.9,0,3.69-0.9,4.82-2.43S372.82,374.45,372.27,372.63z M235.51,240.51l7.26-23.84h40.93l15.76,51.73h-55.46L235.51,240.51z
			 M246.43,204.67l16.81-55.17l16.81,55.17H246.43z M165.71,152.93h55.45l-15.76,51.74h-55.45L165.71,152.93z M146.29,216.67h55.45
			l-15.76,51.74h-55.45L146.29,216.67z M111.11,332.14l15.76-51.74h55.45l-15.76,51.74H111.11z M245.97,368.39l-24.71-81.12
			l7.98-26.18l4.59,15.07c0,0.01,0.01,0.03,0.01,0.04l19.39,63.65c0.01,0.04,0.02,0.08,0.04,0.12l8.66,28.42H245.97z M263.43,332.13
			l-15.76-51.73h55.46l15.76,51.73H263.43z M342.47,368.38l-48.55-159.35c-0.03-0.09-0.05-0.18-0.08-0.27l-24.33-79.86l7.97-26.18
			l80.94,265.65H342.47z"/>
		<path class="st0" d="M154.25,76.41c-3.17-0.96-6.52,0.82-7.49,3.99L57.73,372.64c-0.97,3.17,0.82,6.52,3.99,7.49
			c0.58,0.18,1.17,0.26,1.75,0.26c2.57,0,4.95-1.67,5.74-4.25l89.04-292.24C159.21,80.72,157.42,77.37,154.25,76.41z"/>
	</g>
	<path class="st1" d="M285.24,88.14h-139.5c-3.31,0-6-2.69-6-6V55.61c0-3.31,2.69-6,6-6h139.5c3.31,0,6,2.69,6,6v26.53
		C291.24,85.45,288.56,88.14,285.24,88.14z M151.74,76.14h127.5V61.61h-127.5V76.14z"/>
</g>
</svg>
