<?xml version="1.0" encoding="utf-8"?>
<!-- Generator: Adobe Illustrator 24.1.2, SVG Export Plug-In . SVG Version: 6.00 Build 0)  -->
<svg version="1.1" id="Warstwa_1" xmlns="http://www.w3.org/2000/svg" xmlns:xlink="http://www.w3.org/1999/xlink" x="0px" y="0px"
	 viewBox="0 0 430 430" style="enable-background:new 0 0 430 430;" xml:space="preserve">
<style type="text/css">
	.st0{fill:#121331;}
	.st1{fill:#08a88a;}
	.st2{fill:#08a88a;}
	.st3{fill:none;}
	.st4{fill:#08A385;}
	.st5{fill:none;stroke:#08A385;stroke-width:12;stroke-linecap:round;stroke-linejoin:round;stroke-miterlimit:10;}
	.st6{fill:none;stroke:#121331;stroke-width:12;stroke-linecap:round;stroke-linejoin:round;stroke-miterlimit:10;}
</style>
<g>
	<path class="st1" d="M134.94,176.97H81.57c-3.31,0-6-2.69-6-6v-40.03c0-3.31,2.69-6,6-6h53.37c3.31,0,6,2.69,6,6v40.03
		C140.94,174.28,138.25,176.97,134.94,176.97z M87.57,164.97h41.37v-28.03H87.57V164.97z"/>
	<path class="st1" d="M134.94,243.69H81.57c-3.31,0-6-2.69-6-6v-40.03c0-3.31,2.69-6,6-6h53.37c3.31,0,6,2.69,6,6v40.03
		C140.94,241,138.25,243.69,134.94,243.69z M87.57,231.69h41.37v-28.03H87.57V231.69z"/>
	<path class="st0" d="M348.43,243.69H161.63c-3.31,0-6-2.69-6-6V130.94c0-3.31,2.69-6,6-6h186.81c3.31,0,6,2.69,6,6v106.75
		C354.43,241,351.75,243.69,348.43,243.69z M167.63,231.69h174.81v-94.75H167.63V231.69z"/>
	<path class="st1" d="M97.61,272.39H81.57c-3.31,0-6-2.69-6-6s2.69-6,6-6h16.04c3.31,0,6,2.69,6,6S100.92,272.39,97.61,272.39z"/>
	<path class="st1" d="M134.94,272.39H118.9c-3.31,0-6-2.69-6-6s2.69-6,6-6h16.04c3.31,0,6,2.69,6,6S138.25,272.39,134.94,272.39z"/>
	<path class="st1" d="M348.3,272.39H161.98c-3.31,0-6-2.69-6-6s2.69-6,6-6H348.3c3.31,0,6,2.69,6,6S351.62,272.39,348.3,272.39z"/>
	<path class="st1" d="M232.61,212.63c-1.11,0-2.21-0.31-3.18-0.91c-1.76-1.1-2.82-3.02-2.82-5.09V162c0-2.08,1.08-4.02,2.86-5.11
		c1.78-1.09,3.99-1.18,5.85-0.24l44.83,22.7c2.03,1.03,3.31,3.12,3.29,5.39s-1.32,4.35-3.36,5.35l-44.83,21.93
		C234.41,212.42,233.51,212.63,232.61,212.63z M238.61,171.76v25.25l25.37-12.41L238.61,171.76z"/>
	<path class="st0" d="M375.12,102.25H54.88c-3.31,0-6,2.69-6,6v186.81c0,3.31,2.69,6,6,6h60.19l-23.49,15.7
		c-2.75,1.84-3.5,5.57-1.65,8.32c1.16,1.73,3.06,2.67,4.99,2.67c1.15,0,2.3-0.33,3.33-1.01l38.42-25.67h33.68v1.8c0,3.31,2.69,6,6,6
		h78.69c3.31,0,6-2.69,6-6v-1.8h32.31l38.42,25.67c1.02,0.68,2.18,1.01,3.33,1.01c1.94,0,3.84-0.94,4.99-2.67
		c1.84-2.75,1.1-6.48-1.65-8.32l-23.49-15.7h60.19c3.31,0,6-2.69,6-6V108.25C381.12,104.94,378.43,102.25,375.12,102.25z
		 M369.12,289.06H134.88c-0.01,0-0.02,0-0.03,0H60.88V114.25h308.24V289.06z"/>
</g>
</svg>
