<?xml version="1.0" encoding="utf-8"?>
<!-- Generator: Adobe Illustrator 24.1.2, SVG Export Plug-In . SVG Version: 6.00 Build 0)  -->
<svg version="1.1" id="Warstwa_1" xmlns="http://www.w3.org/2000/svg" xmlns:xlink="http://www.w3.org/1999/xlink" x="0px" y="0px"
	 viewBox="0 0 430 430" style="enable-background:new 0 0 430 430;" xml:space="preserve">
<style type="text/css">
	.st0{fill:#121331;}
	.st1{fill:#08a88a;}
	.st2{fill:#08a88a;}
	.st3{fill:none;}
	.st4{fill:#08A385;}
	.st5{fill:none;stroke:#08A385;stroke-width:12;stroke-linecap:round;stroke-linejoin:round;stroke-miterlimit:10;}
	.st6{fill:none;stroke:#121331;stroke-width:12;stroke-linecap:round;stroke-linejoin:round;stroke-miterlimit:10;}
</style>
<g>
	<path class="st0" d="M215,381.12c-91.6,0-166.12-74.52-166.12-166.12S123.4,48.88,215,48.88S381.12,123.4,381.12,215
		S306.6,381.12,215,381.12z M215,60.88c-84.98,0-154.12,69.14-154.12,154.12S130.02,369.12,215,369.12S369.12,299.98,369.12,215
		S299.98,60.88,215,60.88z"/>
	<path class="st1" d="M310.44,254.36H119.56c-9.54,0-17.3-7.76-17.3-17.3v-44.11c0-9.54,7.76-17.3,17.3-17.3h190.89
		c9.54,0,17.3,7.76,17.3,17.3v44.11C327.75,246.6,319.98,254.36,310.44,254.36z M119.56,187.64c-2.92,0-5.3,2.38-5.3,5.3v44.11
		c0,2.92,2.38,5.3,5.3,5.3h190.89c2.92,0,5.3-2.38,5.3-5.3v-44.11c0-2.92-2.38-5.3-5.3-5.3H119.56z"/>
</g>
</svg>
