<?xml version="1.0" encoding="utf-8"?>
<!-- Generator: Adobe Illustrator 24.1.2, SVG Export Plug-In . SVG Version: 6.00 Build 0)  -->
<svg version="1.1" id="Warstwa_1" xmlns="http://www.w3.org/2000/svg" xmlns:xlink="http://www.w3.org/1999/xlink" x="0px" y="0px"
	 viewBox="0 0 430 430" style="enable-background:new 0 0 430 430;" xml:space="preserve">
<style type="text/css">
	.st0{fill:#121331;}
	.st1{fill:#08a88a;}
	.st2{fill:#08a88a;}
	.st3{fill:none;}
	.st4{fill:#08A385;}
	.st5{fill:none;stroke:#08A385;stroke-width:12;stroke-linecap:round;stroke-linejoin:round;stroke-miterlimit:10;}
	.st6{fill:none;stroke:#121331;stroke-width:12;stroke-linecap:round;stroke-linejoin:round;stroke-miterlimit:10;}
</style>
<g>
	<path class="st1" d="M285.84,102.4H144.16c-3.31,0-6,2.69-6,6V321.6c0,3.31,2.69,6,6,6h141.67c3.31,0,6-2.69,6-6V108.4
		C291.84,105.09,289.15,102.4,285.84,102.4z M150.16,185.24H209v58.84h-58.84V185.24z M221,185.24h58.84v58.84H221V185.24z
		 M279.84,173.24H221V114.4h58.84V173.24z M209,114.4v58.84h-58.84V114.4H209z M150.16,256.08H209v59.52h-58.84V256.08z M221,315.6
		v-59.52h58.84v59.52H221z"/>
	<path class="st0" d="M390.86,75.75h-49.94V54.79c0-3.31-2.69-6-6-6H95.08c-3.31,0-6,2.69-6,6v20.96H39.14c-3.31,0-6,2.69-6,6
		v266.49c0,3.31,2.69,6,6,6h49.94v20.96c0,3.31,2.69,6,6,6h239.84c3.31,0,6-2.69,6-6v-20.96h49.94c3.31,0,6-2.69,6-6V81.75
		C396.86,78.44,394.18,75.75,390.86,75.75z M101.08,60.79h227.84v14.96h-17.5H118.58h-17.5V60.79z M305.42,342.25H124.58V87.75
		h180.84V342.25z M45.14,87.75h49.94h17.5v254.49h-17.5H45.14V87.75z M328.92,369.21H101.08v-14.96h17.5h192.84h17.5V369.21z
		 M384.86,342.25h-49.94h-17.5V87.75h17.5h49.94V342.25z"/>
	<g>
		<path class="st1" d="M92.83,145.73H64.89c-3.31,0-6-2.69-6-6s2.69-6,6-6h27.94c3.31,0,6,2.69,6,6S96.14,145.73,92.83,145.73z"/>
		<path class="st1" d="M92.83,183.37H64.89c-3.31,0-6-2.69-6-6s2.69-6,6-6h27.94c3.31,0,6,2.69,6,6S96.14,183.37,92.83,183.37z"/>
		<path class="st1" d="M92.83,221H64.89c-3.31,0-6-2.69-6-6s2.69-6,6-6h27.94c3.31,0,6,2.69,6,6S96.14,221,92.83,221z"/>
		<path class="st1" d="M92.83,258.63H64.89c-3.31,0-6-2.69-6-6s2.69-6,6-6h27.94c3.31,0,6,2.69,6,6S96.14,258.63,92.83,258.63z"/>
		<path class="st1" d="M92.83,296.27H64.89c-3.31,0-6-2.69-6-6s2.69-6,6-6h27.94c3.31,0,6,2.69,6,6S96.14,296.27,92.83,296.27z"/>
	</g>
	<g>
		<path class="st1" d="M365.11,145.73h-27.94c-3.31,0-6-2.69-6-6s2.69-6,6-6h27.94c3.31,0,6,2.69,6,6S368.43,145.73,365.11,145.73z"
			/>
		<path class="st1" d="M365.11,183.37h-27.94c-3.31,0-6-2.69-6-6s2.69-6,6-6h27.94c3.31,0,6,2.69,6,6S368.43,183.37,365.11,183.37z"
			/>
		<path class="st1" d="M365.11,221h-27.94c-3.31,0-6-2.69-6-6s2.69-6,6-6h27.94c3.31,0,6,2.69,6,6S368.43,221,365.11,221z"/>
		<path class="st1" d="M365.11,258.63h-27.94c-3.31,0-6-2.69-6-6s2.69-6,6-6h27.94c3.31,0,6,2.69,6,6S368.43,258.63,365.11,258.63z"
			/>
		<path class="st1" d="M365.11,296.27h-27.94c-3.31,0-6-2.69-6-6s2.69-6,6-6h27.94c3.31,0,6,2.69,6,6S368.43,296.27,365.11,296.27z"
			/>
	</g>
</g>
</svg>
