<?xml version="1.0" encoding="utf-8"?>
<!-- Generator: Adobe Illustrator 26.2.1, SVG Export Plug-In . SVG Version: 6.00 Build 0)  -->
<svg version="1.1" id="outline" xmlns="http://www.w3.org/2000/svg" xmlns:xlink="http://www.w3.org/1999/xlink" x="0px" y="0px"
	 viewBox="0 0 500 500" style="enable-background:new 0 0 500 500;" xml:space="preserve">
<style type="text/css">
	.st0{fill:#121331;}
	.st1{fill:none;stroke:#121331;stroke-width:12;stroke-linecap:round;stroke-linejoin:round;stroke-miterlimit:10;}
	.st2{fill:#08a88a;}
	.st3{fill:none;stroke:#08a88a;stroke-width:12;stroke-linecap:round;stroke-linejoin:round;stroke-miterlimit:10;}
	.st4{fill:#FFFFFF;}
	.st5{fill:#08a88a;}
</style>
<path class="st0" d="M314.6,250c-3.1,0-5.8-2.4-6-5.6c-0.2-3.3,2.3-6.2,5.6-6.4c19.1-1.3,36.2-3.1,50.7-5.5
	c27.9-4.5,36.3-9.3,38.6-11.1c-2.5-2-12.2-7.5-46.2-12.2c-29.3-4.1-67.4-6.4-107.3-6.4s-78,2.3-107.3,6.4
	c-33.9,4.8-43.6,10.2-46.2,12.2c2.3,1.8,10.7,6.6,38.6,11.1c14.5,2.3,31.6,4.2,50.7,5.5c3.3,0.2,5.8,3.1,5.6,6.4
	c-0.2,3.3-3.1,5.8-6.4,5.6c-19.5-1.3-36.9-3.2-51.8-5.6c-43.7-7.1-49.3-16-49.3-23c0-7.2,5.9-16.3,52-23.4
	c30.5-4.7,71.1-7.3,114.1-7.3s83.6,2.6,114.1,7.3c46.1,7.1,52,16.2,52,23.4c0,7-5.6,15.9-49.3,23c-14.9,2.4-32.3,4.3-51.8,5.6
	C314.9,250,314.7,250,314.6,250z"/>
<path class="st0" d="M185.4,309.3c-0.1,0-0.3,0-0.4,0c-19.6-1.3-37-3.2-51.8-5.6c-43.7-7.1-49.3-16-49.3-23v-59.3c0-3.3,2.7-6,6-6
	s6,2.7,6,6v58.7c1,1.1,7.6,6.6,39.2,11.7c14.4,2.3,31.5,4.2,50.7,5.5c3.3,0.2,5.8,3.1,5.6,6.4C191.2,306.9,188.5,309.3,185.4,309.3z
	"/>
<path class="st0" d="M314.6,309.3c-3.1,0-5.8-2.4-6-5.6c-0.2-3.3,2.3-6.2,5.6-6.4c19.2-1.3,36.2-3.1,50.7-5.5
	c31.7-5.1,38.2-10.6,39.2-11.7v-58.7c0-3.3,2.7-6,6-6s6,2.7,6,6v59.3c0,7-5.6,15.9-49.3,23c-14.8,2.4-32.2,4.3-51.8,5.6
	C314.9,309.3,314.7,309.3,314.6,309.3z"/>
<path class="st2" d="M302.6,325.8H197.4c-9.9,0-18-8.1-18-18v-66.8c0-9.9,8.1-18,18-18h105.2c9.9,0,18,8.1,18,18v66.8
	C320.6,317.7,312.5,325.8,302.6,325.8z M197.4,234.9c-3.3,0-6,2.7-6,6v66.8c0,3.3,2.7,6,6,6h105.2c3.3,0,6-2.7,6-6v-66.8
	c0-3.3-2.7-6-6-6H197.4z"/>
<g>
	<circle class="st2" cx="250" cy="274.4" r="10.4"/>
	<path class="st2" d="M250,290.8c-9.1,0-16.4-7.4-16.4-16.4c0-9.1,7.4-16.4,16.4-16.4s16.4,7.4,16.4,16.4
		C266.4,283.4,259.1,290.8,250,290.8z M250,269.9c-2.4,0-4.4,2-4.4,4.4c0,2.4,2,4.4,4.4,4.4s4.4-2,4.4-4.4
		C254.4,271.9,252.4,269.9,250,269.9z"/>
</g>
<path class="st2" d="M250,325.8c-28.4,0-51.4-23.1-51.4-51.4c0-28.4,23.1-51.4,51.4-51.4s51.4,23.1,51.4,51.4
	C301.4,302.7,278.4,325.8,250,325.8z M250,234.9c-21.7,0-39.4,17.7-39.4,39.4s17.7,39.4,39.4,39.4s39.4-17.7,39.4-39.4
	S271.7,234.9,250,234.9z"/>
<g>
	<path class="st0" d="M134.2,303.8c-3.3,0-6-2.7-6-6v-59.3c0-3.3,2.7-6,6-6s6,2.7,6,6v59.3C140.2,301.1,137.5,303.8,134.2,303.8z"/>
	<path class="st0" d="M365.8,303.8c-3.3,0-6-2.7-6-6v-59.3c0-3.3,2.7-6,6-6s6,2.7,6,6v59.3C371.8,301.1,369.1,303.8,365.8,303.8z"/>
</g>
<path class="st2" d="M325.1,283.4h-10.5c-3.3,0-6-2.7-6-6s2.7-6,6-6h10.5c3.3,0,6,2.7,6,6S328.4,283.4,325.1,283.4z"/>
</svg>
