<?xml version="1.0" encoding="utf-8"?>
<!-- Generator: Adobe Illustrator 24.1.2, SVG Export Plug-In . SVG Version: 6.00 Build 0)  -->
<svg version="1.1" id="Warstwa_1" xmlns="http://www.w3.org/2000/svg" xmlns:xlink="http://www.w3.org/1999/xlink" x="0px" y="0px"
	 viewBox="0 0 430 430" style="enable-background:new 0 0 430 430;" xml:space="preserve">
<style type="text/css">
	.st0{fill:#121331;}
	.st1{fill:#08a88a;}
	.st2{fill:#08a88a;}
	.st3{fill:#08A688;}
	.st4{fill:#08A284;}
	.st5{fill:none;stroke:#121331;stroke-width:12;stroke-linecap:round;stroke-linejoin:round;stroke-miterlimit:10;}
	.st6{fill:none;stroke:#08a88a;stroke-width:12;stroke-linecap:round;stroke-linejoin:round;stroke-miterlimit:10;}
	.st7{fill:none;}
	.st8{fill:none;stroke:#08A385;stroke-width:12;stroke-linecap:round;stroke-linejoin:round;stroke-miterlimit:10;}
	.st9{fill:#08A385;}
	.st10{fill:none;stroke:#08a88a;stroke-width:12;stroke-linecap:round;stroke-linejoin:round;stroke-miterlimit:10;}
</style>
<g>
	<path class="st1" d="M283.05,235.26c-0.22,0-0.45-0.01-0.68-0.04c-3.29-0.37-5.66-3.34-5.29-6.63
		c4.79-42.67-0.68-89.61-14.26-122.52c-1.26-3.06,0.19-6.57,3.26-7.83c3.06-1.27,6.57,0.19,7.83,3.26
		C288.22,136.16,294,185.37,289,229.92C288.66,232.99,286.06,235.26,283.05,235.26z"/>
	<path class="st1" d="M147.63,235.26c-3.01,0-5.61-2.27-5.96-5.33c-5-44.56,0.78-93.77,15.09-128.43c1.26-3.06,4.77-4.52,7.83-3.26
		c3.06,1.26,4.52,4.77,3.26,7.83c-13.58,32.91-19.04,79.85-14.26,122.52c0.37,3.29-2,6.26-5.29,6.63
		C148.08,235.24,147.85,235.26,147.63,235.26z"/>
	<path class="st0" d="M348.43,258.8c-1.07,0-2.14-0.29-3.09-0.86c-30.89-18.54-78.4-29.17-130.35-29.17s-99.45,10.63-130.35,29.17
		c-1.85,1.11-4.16,1.14-6.04,0.08c-1.88-1.07-3.04-3.06-3.04-5.22v-26.69c0-76.88,62.55-139.43,139.43-139.43
		s139.43,62.55,139.43,139.43v26.69c0,2.16-1.16,4.16-3.04,5.22C350.47,258.54,349.45,258.8,348.43,258.8z M215,216.78
		c49.26,0,94.96,9.35,127.43,25.86v-16.52c0-70.27-57.17-127.43-127.43-127.43S87.57,155.85,87.57,226.12v16.52
		C120.04,226.13,165.74,216.78,215,216.78z"/>
	<path class="st1" d="M348.43,307.18h-15.96c-7.27-15.67-41.97-24.14-60.78-24.14c-20.79,0-37.8,9.34-42.7,22.35
		c-3.84-1.17-8.6-1.8-14.18-1.8c-5.57,0-10.33,0.63-14.18,1.8c-4.91-13.01-21.91-22.36-42.71-22.36c-18.81,0-53.51,8.47-60.78,24.14
		H81.57c-3.31,0-6,2.69-6,6s2.69,6,6,6h15.58c7.27,15.67,41.97,24.14,60.78,24.14c21.79,0,39.42-10.27,43.33-24.26
		c0.16-0.37,0.29-0.76,0.36-1.17c4.18-3,22.21-3,26.38,0c0.08,0.41,0.21,0.79,0.36,1.16c3.9,13.99,21.53,24.26,43.33,24.26
		c18.81,0,53.51-8.47,60.78-24.14h15.96c3.31,0,6-2.69,6-6S351.75,307.18,348.43,307.18z M157.92,331.31
		c-9.97,0-23.24-2.62-33.82-6.67c-11.97-4.59-16.32-9.37-16.32-11.46s4.35-6.88,16.32-11.46c10.58-4.05,23.86-6.67,33.82-6.67
		c17.42,0,32.14,8.31,32.14,18.14c0,0.59-0.06,1.17-0.16,1.75c-0.02,0.12-0.06,0.23-0.08,0.35
		C187.91,324.16,174.09,331.31,157.92,331.31z M305.51,324.64c-10.58,4.05-23.86,6.67-33.82,6.67c-16.16,0-29.99-7.15-31.9-16.03
		c-0.02-0.13-0.05-0.24-0.08-0.37c-0.1-0.57-0.16-1.15-0.16-1.74c0-9.83,14.72-18.14,32.14-18.14c9.97,0,23.24,2.62,33.82,6.67
		c11.97,4.59,16.32,9.37,16.32,11.46S317.48,320.06,305.51,324.64z"/>
</g>
</svg>
