<?xml version="1.0" encoding="utf-8"?>
<!-- Generator: Adobe Illustrator 24.1.2, SVG Export Plug-In . SVG Version: 6.00 Build 0)  -->
<svg version="1.1" id="Warstwa_1" xmlns="http://www.w3.org/2000/svg" xmlns:xlink="http://www.w3.org/1999/xlink" x="0px" y="0px"
	 viewBox="0 0 430 430" style="enable-background:new 0 0 430 430;" xml:space="preserve">
<style type="text/css">
	.st0{fill:#08a88a;}
	.st1{fill:#121331;}
	.st2{fill:#08a88a;}
	.st3{fill:none;}
	.st4{fill:#08A385;}
	.st5{fill:none;stroke:#121331;stroke-width:12;stroke-linecap:round;stroke-linejoin:round;stroke-miterlimit:10;}
</style>
<g>
	<path class="st0" d="M271.03,357.08H162.46c-3.31,0-6-2.69-6-6s2.69-6,6-6h102.57v-23.45H162.46c-3.31,0-6-2.69-6-6s2.69-6,6-6
		h108.57c3.31,0,6,2.69,6,6v35.45C277.03,354.39,274.34,357.08,271.03,357.08z"/>
	<path class="st0" d="M239.04,234.94c-34.04,0-60.71-16.41-60.71-37.35s26.67-37.35,60.71-37.35s60.71,16.41,60.71,37.35
		S273.08,234.94,239.04,234.94z M239.04,172.24c-26.4,0-48.71,11.61-48.71,25.35s22.3,25.35,48.71,25.35s48.71-11.61,48.71-25.35
		S265.44,172.24,239.04,172.24z"/>
	<path class="st1" d="M344.1,112.04c-3.8-36.01-33.96-63.17-70.15-63.17h-69.81c-36.19,0-66.35,27.16-70.15,63.17
		c-0.45,4.3-0.88,8.72-1.26,13.21c-4.6-2.5-10.58-4.69-17.3-4.52c-8.84,0.22-16.89,4.32-23.92,12.2
		c-7.2,8.06-10.35,23.07-8.65,41.19c1.25,13.33,5.71,34.42,19.84,59.21c12.96,22.76,31.05,43.32,53.76,61.15v80.64
		c0,3.31,2.69,6,6,6h153.17c3.31,0,6-2.69,6-6v-81.69C351.31,249.14,350.27,170.53,344.1,112.04z M204.14,60.87h69.81
		c30.03,0,55.06,22.54,58.21,52.43c0.39,3.65,0.73,7.25,1.05,10.82c-7.55-3.59-18.75-7.26-32.59-6.9c-3.31,0.09-5.93,2.84-5.84,6.16
		c0.09,3.31,2.87,5.94,6.16,5.84c16.64-0.45,28.81,6.25,33.4,9.26c0.59,8.82,0.97,17.38,1.14,25.66
		c-4.33-2.47-10.05-4.49-17.47-4.92c-3.31-0.18-6.14,2.34-6.34,5.64c-0.19,3.31,2.34,6.15,5.64,6.34
		c11.21,0.65,16.45,6.11,18.22,8.51c-0.6,46.66-8.45,83.15-23.1,105.89H165.67c-14.65-22.72-22.49-59.18-23.1-105.79
		c1.65-2.26,6.89-7.95,18.3-8.61c3.31-0.19,5.83-3.03,5.64-6.34c-0.19-3.31-3-5.82-6.34-5.64c-7.47,0.43-13.22,2.47-17.56,4.97
		c0.16-8.25,0.55-16.8,1.13-25.59c4.45-2.94,16.71-9.82,33.56-9.37c0.05,0,0.11,0,0.16,0c3.24,0,5.91-2.58,6-5.84
		c0.09-3.31-2.53-6.07-5.84-6.16c-13.94-0.35-25.21,3.37-32.76,6.99c0.32-3.6,0.67-7.23,1.05-10.91
		C149.08,83.41,174.1,60.87,204.14,60.87z M94.8,173c-1.62-17.18,1.86-27.83,5.65-32.07c4.72-5.28,9.84-8.04,15.2-8.2
		c6.94-0.21,13.05,3.8,16.04,6.15c-2.79,42.76-1.49,91.06,11.77,128.09C103.05,226.37,96.01,185.85,94.8,173z M168.46,369.13v-71.54
		h141.17v71.54H168.46z"/>
</g>
</svg>
