<?xml version="1.0" encoding="utf-8"?>
<!-- Generator: Adobe Illustrator 24.1.2, SVG Export Plug-In . SVG Version: 6.00 Build 0)  -->
<svg version="1.1" id="Warstwa_1" xmlns="http://www.w3.org/2000/svg" xmlns:xlink="http://www.w3.org/1999/xlink" x="0px" y="0px"
	 viewBox="0 0 430 430" style="enable-background:new 0 0 430 430;" xml:space="preserve">
<style type="text/css">
	.st0{fill:#08a88a;}
	.st1{fill:#121331;}
	.st2{fill:#08a88a;}
	.st3{fill:none;}
	.st4{fill:#08A385;}
	.st5{fill:none;stroke:#121331;stroke-width:12;stroke-linecap:round;stroke-linejoin:round;stroke-miterlimit:10;}
</style>
<g>
	<path class="st1" d="M279.23,94.36c-1.6,0-3.22-0.32-4.78-0.99l-16.35-7.02c-6.5-2.79-11.53-7.96-14.16-14.56
		c-2.64-6.6-2.55-13.82,0.24-20.31l5.89-13.71c2.79-6.5,7.96-11.52,14.56-14.16c6.6-2.64,13.81-2.55,20.31,0.24l3.12,1.34
		c13.45,5.78,19.7,21.42,13.92,34.88l-11.57,26.94C288.43,91.61,283.94,94.36,279.23,94.36z M274.51,33.7
		c-1.83,0-3.67,0.35-5.44,1.05c-3.63,1.45-6.46,4.2-7.99,7.75l-5.89,13.71c-1.52,3.55-1.57,7.5-0.12,11.13
		c1.45,3.63,4.2,6.46,7.75,7.99l0,0l16.35,7.02c0.07,0.03,0.17-0.02,0.19-0.08l11.57-26.94c3.17-7.37-0.26-15.95-7.63-19.11
		l-3.12-1.34C278.38,34.1,276.45,33.7,274.51,33.7z"/>
	<g>
		<path class="st0" d="M209.54,408.29c-10.73,0-19.46-8.73-19.46-19.46s8.73-19.46,19.46-19.46S229,378.11,229,388.83
			S220.27,408.29,209.54,408.29z M209.54,381.38c-4.11,0-7.46,3.35-7.46,7.46s3.35,7.46,7.46,7.46s7.46-3.35,7.46-7.46
			S213.65,381.38,209.54,381.38z"/>
		<path class="st0" d="M300.77,408.29c-10.73,0-19.46-8.73-19.46-19.46s8.73-19.46,19.46-19.46c10.73,0,19.46,8.73,19.46,19.46
			S311.5,408.29,300.77,408.29z M300.77,381.38c-4.11,0-7.46,3.35-7.46,7.46s3.35,7.46,7.46,7.46s7.46-3.35,7.46-7.46
			S304.88,381.38,300.77,381.38z"/>
	</g>
	<path class="st1" d="M353.48,350.42c-2.06-2.6-5.83-3.03-8.43-0.97l-13.86,11c-7.15,5.68-17.14,8.93-27.39,8.93h-15.43
		c-0.04-1.57-0.29-3.15-0.79-4.72c-2.76-8.78-12.05-15.32-17.34-18.44l3.55-61.85c0.05-0.84-0.08-1.69-0.38-2.48l-29.43-77.25
		c-0.13-0.33-0.28-0.64-0.46-0.94c-0.01-0.02-0.02-0.03-0.03-0.05c-0.08-0.14-0.17-0.27-0.26-0.39c-0.03-0.04-0.06-0.08-0.09-0.13
		c-0.08-0.11-0.17-0.21-0.26-0.31c-0.05-0.06-0.1-0.12-0.16-0.17c-0.04-0.04-0.07-0.08-0.1-0.11c-0.05-0.05-0.11-0.1-0.16-0.15
		c-0.05-0.05-0.11-0.1-0.16-0.15c-0.1-0.09-0.2-0.17-0.3-0.24c-0.04-0.03-0.07-0.06-0.11-0.09c-0.02-0.01-0.04-0.03-0.06-0.04
		c-0.11-0.07-0.21-0.14-0.32-0.21c-0.06-0.04-0.12-0.08-0.19-0.11c-0.1-0.06-0.21-0.11-0.31-0.16c-0.08-0.04-0.15-0.08-0.23-0.11
		c-0.09-0.04-0.18-0.07-0.28-0.11c-0.09-0.04-0.19-0.07-0.29-0.1c-0.08-0.02-0.16-0.04-0.23-0.07c-0.12-0.03-0.23-0.06-0.35-0.09
		c-0.06-0.01-0.13-0.02-0.19-0.04c-0.14-0.02-0.27-0.05-0.41-0.06c-0.05-0.01-0.11-0.01-0.17-0.01c-0.15-0.01-0.3-0.02-0.44-0.02
		c-0.02,0-0.04,0-0.06,0c-0.03,0-0.07,0-0.1,0.01c-0.15,0-0.29,0.01-0.43,0.02c-0.06,0.01-0.12,0.01-0.18,0.02
		c-0.14,0.02-0.27,0.04-0.4,0.06c-0.06,0.01-0.12,0.02-0.19,0.04c-0.13,0.03-0.26,0.06-0.39,0.1c-0.05,0.02-0.11,0.03-0.16,0.05
		c-0.14,0.05-0.28,0.1-0.41,0.15c-0.04,0.02-0.08,0.03-0.11,0.05c-0.15,0.06-0.3,0.14-0.44,0.21c-0.02,0.01-0.04,0.02-0.06,0.03
		c-0.16,0.09-0.31,0.18-0.46,0.28c0,0-0.01,0.01-0.01,0.01c-0.31,0.21-0.61,0.45-0.88,0.73c0,0,0,0-0.01,0.01
		c-0.13,0.13-0.25,0.27-0.37,0.41c-0.01,0.01-0.02,0.02-0.02,0.03c-0.07,0.09-0.14,0.17-0.21,0.26L176.21,282l-57.89,30.99
		c-2.17,1.16-3.41,3.54-3.13,5.98c0.42,3.65,0.73,15.81-3.57,20.22c-5.63-8.86-16.63-26.27-22.09-34.91l67-41.47
		c1.11-0.68,1.96-1.71,2.43-2.92L188.2,185c1.21-3.09-0.32-6.57-3.41-7.77c-3.09-1.21-6.57,0.32-7.77,3.41l-28.52,73.04l-70.45,43.6
		c-1.36,0.84-2.33,2.19-2.69,3.75s-0.08,3.2,0.77,4.55c0.24,0.37,23.59,37.33,28.1,44.39c1.11,1.74,3.02,2.77,5.05,2.77
		c0.25,0,0.5-0.02,0.75-0.05c14.73-1.85,17.89-18.77,17.39-30.96l55.64-29.79c0.8-0.43,1.49-1.03,2.02-1.76l23.26-31.97l14.61,34.13
		l0.86,77.04h-17.31c-10.26,0-20.24-3.25-27.39-8.93l-13.86-11c-2.59-2.06-6.37-1.63-8.43,0.97c-2.06,2.6-1.63,6.37,0.97,8.43
		l13.86,11c9.37,7.44,21.75,11.53,34.85,11.53h23.33c0.02,0,0.03,0,0.05,0h50.99c0.01,0,0.02,0,0.04,0h22.88
		c13.11,0,25.48-4.1,34.85-11.53l13.86-11C355.11,356.79,355.54,353.01,353.48,350.42z M234.95,291.01
		c-0.01-0.79-0.17-1.57-0.48-2.29l-17.89-41.8l20.14-27.68l25.04,65.72l-3.7,64.37c-0.14,2.42,1.2,4.69,3.38,5.75
		c4.06,1.96,13,7.76,14.7,13.18c0.12,0.38,0.2,0.76,0.24,1.12h-40.55L234.95,291.01z"/>
	<path class="st2" d="M320.54,200.03l-49.18-29.14l-5.89-11.94l6.77-15.78c1.96-4.56,2.96-9.38,2.96-14.33
		c0-14.56-8.64-27.68-22.01-33.42c-5.33-2.29-11.19-3.28-16.93-2.86c-0.04,0-0.07,0.01-0.11,0.01c-0.01,0-0.03,0-0.04,0
		c-0.38,0.03-0.76,0.06-1.14,0.1l-78.69,7.02c-1.09,0.1-2.13,0.49-3.01,1.13l-42.21,30.9c-0.57,0.41-1.05,0.92-1.44,1.5
		c-4.68,6.99-6.28,14.05-4.75,20.99c2.46,11.17,12.1,17.33,13.19,17.99c0.96,0.59,2.04,0.88,3.12,0.88c1.25,0,2.5-0.39,3.55-1.16
		l46.09-33.83l25.07-1.39l-18.79,43.76c-1.31,3.04,0.1,6.57,3.14,7.88l55.75,23.95c0.12,0.05,0.24,0.1,0.37,0.14
		c0.65,0.23,1.33,0.35,2.03,0.35c0.35,0,0.71-0.03,1.06-0.09c1.98-0.36,3.66-1.69,4.45-3.54l2.57-5.99l42.45,25.2
		c0.6,0.36,1.26,0.61,1.95,0.74c2.27,0.43,4.45,0.64,6.54,0.64c5.53,0,10.43-1.5,14.63-4.49c9.31-6.64,11.2-17.93,11.38-19.19
		C323.77,203.65,322.63,201.27,320.54,200.03z M168.38,126.2c-1.16,0.06-2.28,0.46-3.22,1.15l-43.83,32.16
		c-1.86-1.81-4.04-4.56-4.77-7.97c-0.73-3.4,0.08-6.94,2.47-10.81l39.97-29.26l50.82-4.53c-1.74,2.3-3.22,4.81-4.39,7.52l-2.59,6.02
		c-0.3,0.49-0.52,1.01-0.67,1.56l-1.01,2.34L168.38,126.2z M235.25,198.9l-44.75-19.23l18.11-42.18l29.42,54.92L235.25,198.9z
		 M305.07,215.48c-2.85,2.03-6.44,2.69-10.97,2l-42.58-25.28l-1.48-2.77c-0.02-0.04-0.05-0.09-0.07-0.13l-35.3-65.9l1.8-4.2
		c3.46-8.05,11.02-13.65,19.76-14.61c0.28-0.03,0.57-0.05,0.88-0.08c3.89-0.29,7.71,0.36,11.34,1.92
		c8.96,3.85,14.75,12.64,14.75,22.4c0,3.31-0.67,6.54-1.98,9.59l-2.73,6.37l-11.77-23.86c-1.47-2.97-5.06-4.19-8.04-2.73
		c-2.97,1.47-4.19,5.06-2.73,8.04l17.56,35.6c0.01,0.02,0.02,0.04,0.03,0.05l7.85,15.91c0.51,1.04,1.32,1.91,2.32,2.51L310.46,208
		C309.52,210.42,307.86,213.48,305.07,215.48z"/>
</g>
</svg>
