<?xml version="1.0" encoding="utf-8"?>
<!-- Generator: Adobe Illustrator 24.1.2, SVG Export Plug-In . SVG Version: 6.00 Build 0)  -->
<svg version="1.1" id="Warstwa_1" xmlns="http://www.w3.org/2000/svg" xmlns:xlink="http://www.w3.org/1999/xlink" x="0px" y="0px"
	 viewBox="0 0 430 430" style="enable-background:new 0 0 430 430;" xml:space="preserve">
<style type="text/css">
	.st0{fill:#08a88a;}
	.st1{fill:#121331;}
	.st2{fill:#08a88a;}
	.st3{fill:none;}
	.st4{fill:#08A385;}
	.st5{fill:none;stroke:#121331;stroke-width:12;stroke-linecap:round;stroke-linejoin:round;stroke-miterlimit:10;}
</style>
<g>
	<path class="st0" d="M357.66,67.69c-0.64-2.24-2.53-3.91-4.83-4.27c-28.51-4.51-63.04,10.79-87.97,38.98
		c-24.02,27.16-35.07,61.71-28.72,89.01c-15.19,18.99-20.11,26.42-24.35,36.48c-1.58,3.75-2.97,7.59-4.16,11.49
		c-4.43-12.49-10.51-23.5-17.22-32.97c2.16-20.84-9.13-45.36-29.31-63.2c-20.99-18.56-47.98-26.7-68.75-20.74
		c-2.24,0.64-3.91,2.53-4.27,4.83c-3.38,21.35,8,47.14,28.99,65.7c16.42,14.52,36.51,22.67,54.43,22.67c3.49,0,6.89-0.32,10.17-0.95
		c8.68,12.65,16.07,28.23,19.44,46.58c0.56,3.03,0.98,6.1,1.28,9.19c-0.2,5.3-0.07,10.62,0.42,15.92c0.28,3.1,2.88,5.45,5.97,5.45
		c0.05,0,0.1,0,0.15,0c3.16-0.08,5.71-2.59,5.85-5.75c0.22-5.32,0.1-10.63-0.36-15.89c0.49-10.92,2.67-23.98,8.43-37.67
		c3.7-8.8,8.26-15.64,22.43-33.36c2.18,0.22,4.4,0.34,6.64,0.34c26.25,0,55.78-14.85,77.82-39.76
		C354.66,131.58,365.63,95.44,357.66,67.69z M125.02,184.01c-16.66-14.73-26.33-34.27-25.49-50.89
		c16.39-2.86,36.97,4.35,53.63,19.08c0,0,0,0,0,0c12.62,11.16,21.23,25.09,24.3,38.42c-10.52-11.12-21.09-18.79-28.53-22.76
		c-2.92-1.56-6.56-0.46-8.12,2.47c-1.56,2.92-0.46,6.56,2.47,8.12c7.7,4.11,19.11,12.62,29.91,25.22
		C157.84,204.29,139.87,197.14,125.02,184.01z M320.74,151.82c-19.01,21.5-43.84,34.67-65.97,35.66
		c12.39-15.11,25.35-30.19,38.64-44.93c2.22-2.46,2.02-6.26-0.44-8.47c-2.46-2.22-6.26-2.02-8.47,0.44
		c-13.08,14.51-25.85,29.35-38.07,44.22c-1.19-21.78,8.82-47.36,27.42-68.39c21.12-23.88,49.42-37.5,73.22-35.54
		C351.92,98.2,341.86,127.94,320.74,151.82z"/>
	<path class="st1" d="M339.46,367.37H75.76c-3.31,0-6-2.69-6-6c0-28.35,23.07-51.42,51.43-51.42c7.24,0,14.38,1.53,20.94,4.46
		c14.7-21.44,39.29-34.55,65.48-34.55s50.78,13.1,65.48,34.55c6.56-2.93,13.7-4.46,20.94-4.46c28.36,0,51.43,23.07,51.43,51.42
		C345.46,364.68,342.77,367.37,339.46,367.37z M82.22,355.37H333c-2.9-18.9-19.27-33.42-38.97-33.42c-7.05,0-13.97,1.89-20.02,5.46
		c-1.38,0.81-3.02,1.04-4.56,0.64c-1.55-0.4-2.87-1.4-3.67-2.78c-12.03-20.61-34.32-33.42-58.17-33.42
		c-23.85,0-46.13,12.8-58.17,33.42c-0.81,1.38-2.13,2.38-3.67,2.78c-1.55,0.4-3.19,0.17-4.56-0.64c-6.04-3.57-12.96-5.46-20.02-5.46
		C101.49,321.95,85.12,336.47,82.22,355.37z"/>
</g>
</svg>
