<?xml version="1.0" encoding="utf-8"?>
<!-- Generator: Adobe Illustrator 24.1.2, SVG Export Plug-In . SVG Version: 6.00 Build 0)  -->
<svg version="1.1" id="Warstwa_1" xmlns="http://www.w3.org/2000/svg" xmlns:xlink="http://www.w3.org/1999/xlink" x="0px" y="0px"
	 viewBox="0 0 430 430" style="enable-background:new 0 0 430 430;" xml:space="preserve">
<style type="text/css">
	.st0{fill:#08a88a;}
	.st1{fill:#121331;}
	.st2{fill:#08a88a;}
	.st3{fill:none;}
	.st4{fill:#08A385;}
	.st5{fill:none;stroke:#121331;stroke-width:12;stroke-linecap:round;stroke-linejoin:round;stroke-miterlimit:10;}
</style>
<g>
	<path class="st0" d="M295.6,203.81c-0.74-2.21-2.69-3.8-5-4.07c-16.77-1.94-36.46,7.71-50.17,24.58
		c-12.85,15.81-18.41,35.46-14.67,51.05c-6.9,9.44-9.94,14.28-12.19,20.26c-2.04-3.98-4.44-7.74-7.14-11.24
		c0.3-12.17-6.82-25.83-18.7-35.49c-12.74-10.35-28.85-14.41-41.06-10.35c-2.21,0.74-3.8,2.69-4.07,5
		c-1.48,12.78,5.79,27.72,18.53,38.07c9.46,7.68,20.77,11.9,30.97,11.9c1.99,0,3.94-0.18,5.83-0.51c4.9,6.73,8.46,14.6,10.36,22.97
		c0.35,1.53,0.63,3.09,0.85,4.66c0.02,2.99,0.22,5.98,0.62,8.96c0.4,3,2.96,5.21,5.94,5.21c0.13,0,0.27,0,0.4-0.01
		c3.15-0.21,5.6-2.83,5.6-5.99c0-3-0.19-5.99-0.57-8.95c0.03-5.75,0.91-12.64,3.63-19.94c1.68-4.49,3.87-8.15,10.46-17.19
		c0.25,0,0.49,0.02,0.74,0.02c15.74,0,33.29-9.39,45.83-24.82C295.52,241.07,300.93,219.82,295.6,203.81z M168.71,272.32
		c-8.02-6.52-13.34-15.39-14.18-23.22c7.83-0.79,17.61,2.6,25.63,9.12c8.02,6.52,13.33,15.39,14.17,23.22
		C186.49,282.22,176.73,278.84,168.71,272.32z M272.5,250.37c-10.04,12.35-23.54,20.01-35.45,20.38
		c-2.07-11.73,2.66-26.52,12.7-38.87c10.04-12.35,23.54-20.01,35.45-20.38C287.27,223.24,282.53,238.02,272.5,250.37z"/>
	<path class="st1" d="M353.19,177.12c0-0.01-0.01-0.01-0.01-0.02c-0.08-0.17-0.16-0.34-0.25-0.51c-0.03-0.05-0.06-0.09-0.09-0.14
		c-0.07-0.12-0.14-0.24-0.22-0.36c-0.05-0.07-0.1-0.13-0.15-0.2c-0.07-0.09-0.13-0.18-0.21-0.27c-0.06-0.07-0.13-0.14-0.19-0.21
		c-0.07-0.07-0.14-0.15-0.21-0.22c-0.02-0.02-0.05-0.05-0.07-0.07L219.17,50.35c-2.31-2.17-5.91-2.17-8.22,0l-44.41,41.77
		c0,0-0.01,0.01-0.01,0.01l-88.16,82.91c-1.21,1.06-1.98,2.58-2.04,4.3c0,0.02,0,0.04,0,0.06c0,0.05-0.01,0.1-0.01,0.15v195.73
		c0,3.31,2.69,6,6,6h265.38c3.31,0,6-2.69,6-6V179.5C353.69,178.66,353.51,177.85,353.19,177.12z M332.6,173.55h-67.38v-63.39
		L332.6,173.55z M215.05,62.96l38.17,35.91v74.68h-76.46V98.97L215.05,62.96z M97.46,173.55l67.3-63.3v63.3H97.46z M140.74,369.28
		c2.62-9.19,11.09-15.95,21.11-15.95c3.93,0,7.78,1.05,11.14,3.04c1.38,0.81,3.02,1.04,4.56,0.64s2.87-1.4,3.67-2.78
		c6.99-11.98,19.94-19.42,33.8-19.42s26.81,7.44,33.8,19.42c0.81,1.38,2.13,2.38,3.67,2.78c1.54,0.4,3.19,0.17,4.56-0.64
		c3.36-1.99,7.21-3.04,11.14-3.04c10.02,0,18.49,6.75,21.11,15.95H140.74z M301.61,369.28c-2.84-15.87-16.74-27.95-33.41-27.95
		c-4.14,0-8.23,0.76-12.07,2.22c-9.57-12.91-24.86-20.73-41.1-20.73s-31.53,7.82-41.1,20.73c-3.84-1.46-7.93-2.22-12.07-2.22
		c-16.67,0-30.57,12.08-33.41,27.95H88.31V185.55h82.43c0.01,0,0.01,0,0.02,0s0.01,0,0.02,0h88.42c0.01,0,0.01,0,0.02,0
		s0.01,0,0.02,0h82.44v183.73H301.61z"/>
</g>
</svg>
