<?xml version="1.0" encoding="utf-8"?>
<!-- Generator: Adobe Illustrator 24.1.2, SVG Export Plug-In . SVG Version: 6.00 Build 0)  -->
<svg version="1.1" id="Warstwa_1" xmlns="http://www.w3.org/2000/svg" xmlns:xlink="http://www.w3.org/1999/xlink" x="0px" y="0px"
	 viewBox="0 0 430 430" style="enable-background:new 0 0 430 430;" xml:space="preserve">
<style type="text/css">
	.st0{fill:#08a88a;}
	.st1{fill:#121331;}
	.st2{fill:#08a88a;}
	.st3{fill:none;}
	.st4{fill:#08A385;}
	.st5{fill:none;stroke:#121331;stroke-width:12;stroke-linecap:round;stroke-linejoin:round;stroke-miterlimit:10;}
</style>
<g>
	<path class="st0" d="M213.24,381.84c-3,0-5.59-2.25-5.95-5.3c-1.49-12.73-3.94-19.73-6.3-26.49c-2.98-8.51-5.79-16.54-6.27-33.19
		c-0.47-16.2,2.97-24.37,6.3-32.27c2.93-6.95,5.69-13.51,5.69-26.71c0-13.48-2.7-20.06-5.55-27.04c-3.17-7.74-6.45-15.75-6.45-31.59
		c0-15.84,3.28-23.84,6.45-31.59c2.86-6.97,5.55-13.56,5.55-27.04c0-11.21-1.79-23.66-5.33-37.03c-1.73-6.51-0.36-13.3,3.75-18.62
		c4.08-5.29,10.26-8.32,16.94-8.32c0.02,0,0.05,0,0.07,0c10.07,0.03,18.64,6.94,20.84,16.8c1.28,5.71,2.8,9.9,4.27,13.95
		c3,8.26,5.83,16.06,5.83,33.22c0,15.84-3.28,23.84-6.45,31.59c-2.86,6.98-5.55,13.56-5.55,27.04c0,13.48,2.7,20.06,5.55,27.04
		c3.17,7.74,6.45,15.75,6.45,31.59c0,15.84-3.28,23.84-6.45,31.59c-2.86,6.97-5.55,13.56-5.55,27.04c0,12.54,2.99,19.07,6.15,25.99
		c3.82,8.36,7.77,17,5.77,34.03c-0.39,3.29-3.36,5.65-6.66,5.26c-3.29-0.39-5.65-3.37-5.26-6.66c1.61-13.7-1.21-19.85-4.77-27.65
		c-3.39-7.42-7.23-15.83-7.23-30.98c0-15.84,3.28-23.84,6.45-31.59c2.86-6.98,5.55-13.56,5.55-27.04s-2.7-20.06-5.55-27.04
		c-3.17-7.74-6.45-15.75-6.45-31.59c0-15.84,3.28-23.84,6.45-31.59c2.86-6.98,5.55-13.56,5.55-27.04c0-15.05-2.26-21.26-5.11-29.13
		c-1.52-4.2-3.25-8.96-4.7-15.42c-0.98-4.36-4.75-7.41-9.17-7.43c-0.01,0-0.02,0-0.03,0c-2.94,0-5.65,1.33-7.44,3.65
		c-1.81,2.35-2.41,5.34-1.65,8.21c3.81,14.37,5.74,27.86,5.74,40.1c0,15.84-3.28,23.84-6.45,31.59c-2.86,6.98-5.55,13.56-5.55,27.04
		s2.7,20.06,5.55,27.04c3.17,7.74,6.45,15.75,6.45,31.59c0,15.63-3.52,23.99-6.64,31.37c-3.09,7.33-5.76,13.67-5.36,27.26
		c0.43,14.79,2.83,21.64,5.6,29.58c2.46,7.03,5.25,15.01,6.9,29.06c0.39,3.29-1.97,6.27-5.26,6.66
		C213.71,381.83,213.47,381.84,213.24,381.84z"/>
	<path class="st0" d="M324.04,381.98c-2.31,0-4.52-1.35-5.5-3.6c-2.97-6.81-5.72-14.87-5.72-27.63c0-15.84,3.28-23.84,6.45-31.58
		c2.86-6.97,5.55-13.56,5.55-27.04c0-13.48-2.7-20.07-5.55-27.05c-3.17-7.74-6.45-15.75-6.45-31.58c0-15.84,3.28-23.85,6.45-31.59
		c2.85-6.98,5.55-13.56,5.55-27.04c0-15.06-2.26-21.28-5.12-29.14c-1.52-4.2-3.25-8.95-4.7-15.41c-0.97-4.36-4.75-7.41-9.18-7.43
		c-2.96,0-5.68,1.34-7.47,3.67c-1.81,2.35-2.4,5.34-1.64,8.2c3.8,14.34,5.73,27.83,5.73,40.1c0,15.83-3.28,23.84-6.45,31.58
		c-2.86,6.98-5.55,13.57-5.55,27.05c0,13.47,2.7,20.06,5.55,27.04c3.17,7.74,6.45,15.75,6.45,31.59c0,15.62-3.52,23.98-6.63,31.36
		c-3.09,7.33-5.76,13.67-5.36,27.26c0.33,11.58,1.88,18.06,3.5,23.33c0.97,3.17-0.8,6.52-3.97,7.5c-3.17,0.98-6.52-0.8-7.5-3.97
		c-1.78-5.79-3.65-13.47-4.02-26.51c-0.48-16.19,2.97-24.37,6.3-32.27c2.93-6.95,5.69-13.51,5.69-26.7c0-13.48-2.7-20.07-5.55-27.05
		c-3.17-7.74-6.45-15.75-6.45-31.58c0-15.84,3.28-23.85,6.45-31.59c2.85-6.98,5.55-13.56,5.55-27.04c0-11.07-1.84-23.88-5.33-37.02
		c-1.72-6.5-0.36-13.27,3.73-18.6c4.08-5.31,10.26-8.35,16.96-8.35c10.15,0.04,18.72,6.96,20.92,16.82
		c1.28,5.69,2.8,9.88,4.27,13.92c3,8.26,5.84,16.07,5.84,33.24c0,15.83-3.28,23.84-6.45,31.58c-2.86,6.98-5.55,13.57-5.55,27.05
		c0,13.47,2.7,20.06,5.55,27.04c3.17,7.74,6.45,15.75,6.45,31.59c0,15.83-3.28,23.84-6.45,31.58c-2.86,6.97-5.55,13.56-5.55,27.04
		c0,11.09,2.44,17.6,4.72,22.83c1.33,3.04-0.06,6.57-3.1,7.9C325.66,381.82,324.84,381.98,324.04,381.98z"/>
	<path class="st0" d="M155.02,381.84c-0.32,0-0.63-0.03-0.96-0.08c-3.27-0.52-5.5-3.6-4.98-6.87c1.22-7.65,3.37-12.9,5.45-17.98
		c2.8-6.85,5.45-13.31,5.54-26.26c0-0.06,0-0.14,0-0.2c0.01-0.18,0.01-0.37,0.01-0.56c0-13.48-2.7-20.07-5.55-27.05
		c-3.17-7.74-6.45-15.75-6.45-31.58c0-15.84,3.28-23.85,6.45-31.59c2.85-6.98,5.55-13.56,5.55-27.04c0-15.05-2.26-21.26-5.11-29.13
		c-1.53-4.2-3.26-8.96-4.7-15.43c-0.98-4.36-4.75-7.41-9.18-7.43c-2.96,0-5.68,1.34-7.47,3.67c-1.8,2.35-2.4,5.34-1.64,8.2
		c3.8,14.34,5.73,27.83,5.73,40.1c0,14.14-5.83,27.46-6.07,28.02c-0.96,2.16-3.1,3.56-5.46,3.57c-0.01,0-0.01,0-0.02,0
		c-2.36,0-4.5-1.38-5.47-3.53c-6.2-13.72-10.81-18.46-16.65-24.45c-3.12-3.2-6.65-6.82-10.62-12.11c-2.68-3.58-7.37-4.81-11.41-3
		c-3.44,1.54-5.57,4.84-5.57,8.62c0,2.17,0.74,4.23,2.14,5.96c9.38,11.52,16.69,23.02,21.73,34.18c6.51,14.43,6.82,23.07,7.12,31.43
		c0.27,7.53,0.52,14.65,6.07,26.94c5.54,12.27,10.71,17.16,16.18,22.34c1.88,1.78,3.82,3.61,5.8,5.75c1.21,1.31,1.78,3.1,1.54,4.87
		c-1.17,8.76-3.7,14.79-5.94,20.11c-1.98,4.71-3.85,9.17-4.77,15.4c-0.49,3.28-3.54,5.55-6.82,5.05c-3.28-0.49-5.54-3.54-5.05-6.82
		c1.15-7.73,3.4-13.1,5.58-18.29c1.84-4.39,3.6-8.57,4.66-14.25c-1.06-1.05-2.13-2.07-3.24-3.12c-6.08-5.75-12.36-11.7-18.87-26.12
		c-6.52-14.44-6.83-23.09-7.13-31.45c-0.27-7.53-0.52-14.64-6.06-26.92c-4.61-10.22-11.38-20.83-20.1-31.55
		c-3.12-3.84-4.83-8.64-4.83-13.53c0-8.45,4.97-16.13,12.67-19.58c9.2-4.12,19.85-1.34,25.92,6.75c3.51,4.66,6.61,7.85,9.62,10.94
		c4.01,4.11,7.87,8.08,12.04,14.69c0.62-3.11,1.05-6.51,1.05-9.92c0-11.08-1.84-23.88-5.33-37.02c-1.72-6.5-0.36-13.27,3.73-18.6
		c4.08-5.31,10.26-8.35,16.96-8.35c10.14,0.04,18.71,6.95,20.91,16.81c1.28,5.71,2.8,9.9,4.27,13.95c3,8.26,5.83,16.06,5.83,33.22
		c0,15.83-3.28,23.84-6.45,31.58c-2.86,6.98-5.55,13.57-5.55,27.05c0,13.47,2.7,20.06,5.55,27.04c3.17,7.74,6.45,15.75,6.45,31.59
		c0,0.32,0,0.63-0.01,0.94c-0.13,15.23-3.33,23.07-6.43,30.64c-1.9,4.65-3.7,9.05-4.71,15.33
		C160.47,379.74,157.92,381.84,155.02,381.84z"/>
	<path class="st1" d="M359.57,381.84H87.64c-3.31,0-6-2.69-6-6s2.69-6,6-6h271.93c3.31,0,6,2.69,6,6S362.89,381.84,359.57,381.84z"
		/>
	<path class="st1" d="M145.59,107.04c-16.27,0-29.51-13.24-29.51-29.51s13.24-29.51,29.51-29.51s29.51,13.24,29.51,29.51
		S161.86,107.04,145.59,107.04z M145.59,60.02c-9.65,0-17.51,7.85-17.51,17.51s7.85,17.51,17.51,17.51s17.51-7.85,17.51-17.51
		S155.24,60.02,145.59,60.02z"/>
	<path class="st1" d="M91.95,153.85c-11.17,0-20.25-9.09-20.25-20.25s9.09-20.25,20.25-20.25s20.25,9.09,20.25,20.25
		S103.12,153.85,91.95,153.85z M91.95,125.34c-4.55,0-8.25,3.7-8.25,8.25s3.7,8.25,8.25,8.25s8.25-3.7,8.25-8.25
		S96.51,125.34,91.95,125.34z"/>
</g>
</svg>
