<?xml version="1.0" encoding="utf-8"?>
<!-- Generator: Adobe Illustrator 24.1.2, SVG Export Plug-In . SVG Version: 6.00 Build 0)  -->
<svg version="1.1" id="Warstwa_1" xmlns="http://www.w3.org/2000/svg" xmlns:xlink="http://www.w3.org/1999/xlink" x="0px" y="0px"
	 viewBox="0 0 430 430" style="enable-background:new 0 0 430 430;" xml:space="preserve">
<style type="text/css">
	.st0{fill:#121331;}
	.st1{fill:#08a88a;}
	.st2{fill:#08a88a;}
	.st3{fill:none;stroke:#121331;stroke-width:12;stroke-linecap:round;stroke-linejoin:round;stroke-miterlimit:10;}
	.st4{fill:#08A183;}
</style>
<g>
	<path class="st0" d="M276.92,276.71c-0.02-0.08-0.05-0.15-0.08-0.23c-2.67-8.13-5.42-16.21-8.16-24.24
		c-12.4-36.39-25.22-74.01-28.31-110.63c-0.28-3.3-3.17-5.75-6.48-5.47c-3.3,0.28-5.75,3.18-5.47,6.48
		c0.92,10.94,2.66,21.89,4.96,32.84H208.8c-1.28-9.5-2.14-18.98-2.38-28.39c-0.08-3.31-2.83-5.93-6.15-5.85
		c-3.31,0.08-5.93,2.83-5.85,6.15c0.29,11.54,1.44,23.11,3.18,34.66c0.02,0.25,0.06,0.49,0.11,0.73
		c3.73,24.57,10.05,49.04,16.24,72.96c10.16,39.29,20.67,79.91,19.05,119.42c-0.07,1.63,0.54,3.22,1.67,4.4
		c1.13,1.18,2.7,1.85,4.33,1.85h53.19c1.63,0,3.2-0.67,4.33-1.85c1.13-1.18,1.73-2.77,1.67-4.4
		C296.84,342.19,287.56,309.12,276.92,276.71z M210.63,187.46h25.5c3,12.21,6.6,24.39,10.46,36.48h-10c-3.31,0-6,2.69-6,6
		s2.69,6,6,6h13.92c2.25,6.76,4.54,13.49,6.82,20.18c1.84,5.41,3.69,10.85,5.52,16.3h-32.23c-1.65-6.6-3.35-13.18-5.05-19.72
		C220.02,231.24,214.36,209.32,210.63,187.46z M245.16,369.37c0.14-12.16-0.75-24.33-2.32-36.48h14.32c3.31,0,6-2.69,6-6
		s-2.69-6-6-6h-16.1c-2.02-12.21-4.63-24.38-7.5-36.47h33.26c9.14,28.23,16.99,56.84,19.03,84.95H245.16z"/>
	<path class="st1" d="M186.13,221.49c-0.55,0-1.11-0.08-1.66-0.23c-21.03-6.05-34.89-19.04-39.03-36.58
		c-3.98-16.83,1.75-35.38,15.42-50.99c-19.92-6.58-41.44-1.61-54.54,13.28c-1.75,1.99-4.59,2.59-6.99,1.5
		c-2.41-1.1-3.81-3.64-3.46-6.26c2.46-18.23,12.4-34.47,27.27-44.55c9.12-6.18,19.4-9.71,30.07-10.48
		c-10.49-5.78-22.72-7.6-34.15-4.6c-2.56,0.67-5.25-0.41-6.64-2.67c-1.38-2.26-1.13-5.15,0.63-7.13
		c17.87-20.07,43.44-28.49,66.72-21.97c15.6,4.37,27.97,14.73,35.21,28.91c7.24-14.19,19.61-24.55,35.21-28.92
		c23.28-6.52,48.85,1.9,66.72,21.97c1.76,1.98,2.02,4.87,0.63,7.13c-1.38,2.25-4.08,3.34-6.64,2.67c-11.43-3-23.66-1.18-34.15,4.6
		c10.67,0.76,20.96,4.3,30.07,10.48c14.87,10.08,24.81,26.31,27.27,44.55c0.35,2.62-1.05,5.16-3.46,6.26
		c-2.41,1.1-5.25,0.49-6.99-1.5c-9.48-10.78-23.52-16.52-38.46-16.12c7.9,9.41,12.23,20.51,12.15,31.72
		c-0.1,15.42-8.42,30.24-23.42,41.75c-2.1,1.61-5,1.66-7.15,0.11c-2.15-1.54-3.03-4.31-2.18-6.81c7.56-22.12-3.56-38.99-33.05-50.16
		c-6.15-2.33-13.19-4.16-15.18-3.93c-0.2,0.05-0.4,0.08-0.61,0.11c-0.61,0.12-3.34,1.09-11.64,8.3
		c-16.82,14.61-32.81,36.82-13.43,59.67c1.71,2.02,1.9,4.92,0.46,7.14C190.05,220.48,188.13,221.49,186.13,221.49z M143.35,118.84
		c10.28,0,20.8,2.39,30.67,7.33c1.76,0.88,2.98,2.57,3.26,4.53c0.28,1.95-0.43,3.92-1.88,5.25c-14.99,13.8-21.82,30.99-18.28,45.97
		c1.96,8.29,7.03,15.29,14.7,20.52c-6.26-19.22,2.1-40.15,24.45-59.56c6.05-5.25,12.35-10.21,17.58-11.08
		c5.7-1.2,16.17,2.25,21.96,4.44c27.22,10.31,41.97,26.25,43.09,45.93c4.21-6.19,6.41-12.82,6.46-19.67
		c0.08-11.48-5.92-22.56-16.89-31.21c-1.8-1.42-2.64-3.75-2.15-5.99c0.49-2.24,2.22-4.01,4.45-4.55c16.13-3.9,32.47-1.73,45.93,5.58
		c-3.9-7.51-9.57-13.97-16.59-18.73c-11.9-8.06-26.3-10.54-40.54-6.97c-2.53,0.64-5.18-0.44-6.56-2.65
		c-1.38-2.22-1.16-5.07,0.53-7.05c10.7-12.56,25.68-20.16,41.16-21.54c-12.75-8.16-27.55-10.85-41.26-7.02
		c-16.99,4.76-29.15,18.64-32.55,37.15c-0.52,2.85-3,4.92-5.9,4.92s-5.38-2.07-5.9-4.92c-3.39-18.5-15.56-32.39-32.54-37.15
		c-13.71-3.84-28.52-1.15-41.26,7.01c15.48,1.38,30.46,8.97,41.15,21.53c1.69,1.99,1.91,4.84,0.53,7.06
		c-1.38,2.22-4.03,3.29-6.56,2.65c-14.24-3.57-28.63-1.1-40.54,6.96c-7.02,4.76-12.69,11.23-16.59,18.74
		C122.38,121.39,132.74,118.84,143.35,118.84z"/>
</g>
</svg>
