<?xml version="1.0" encoding="utf-8"?>
<!-- Generator: Adobe Illustrator 24.1.2, SVG Export Plug-In . SVG Version: 6.00 Build 0)  -->
<svg version="1.1" id="Warstwa_3" xmlns="http://www.w3.org/2000/svg" xmlns:xlink="http://www.w3.org/1999/xlink" x="0px" y="0px"
	 viewBox="0 0 430 430" style="enable-background:new 0 0 430 430;" xml:space="preserve">
<style type="text/css">
	.st0{fill:#121331;}
	.st1{fill:#08a88a;}
	.st2{fill:none;stroke:#08a88a;stroke-width:12.95;stroke-linecap:round;stroke-linejoin:round;stroke-miterlimit:14.8;}
	.st3{fill:none;}
</style>
<g>
	<path class="st0" d="M215.25,382.37c-3.44,0-6.23-2.79-6.23-6.23v-50c-2.43,0.29-4.59,0.44-6.41,0.44
		c-17.15,0-31.11-13.96-31.11-31.11s13.95-31.11,31.11-31.11c1.99,0,4.21,0.18,6.41,0.45v-49.2c0-3.44,2.79-6.23,6.23-6.23
		s6.23,2.79,6.23,6.23v56.49c0,1.86-0.83,3.62-2.26,4.8c-1.43,1.18-3.32,1.67-5.14,1.32c-4.65-0.89-8.83-1.4-11.47-1.4
		c-10.28,0-18.65,8.36-18.65,18.65s8.36,18.65,18.65,18.65c2.65,0,6.83-0.51,11.47-1.4c1.82-0.35,3.71,0.13,5.14,1.32
		c1.43,1.18,2.26,2.94,2.26,4.8v50.94c81.71-3.28,147.91-70.72,148.85-153.15c0.04-3.44,2.85-6.17,6.3-6.16
		c3.44,0.04,6.2,2.86,6.16,6.3c-0.51,44.35-18.17,85.96-49.72,117.17C301.49,365.17,259.65,382.37,215.25,382.37z"/>
	<path class="st0" d="M214.59,383.29C214.58,383.29,214.58,383.29,214.59,383.29c-92.33-0.06-167.44-75.22-167.44-167.55
		c0-3.44,2.79-6.23,6.23-6.23h50c-0.29-2.43-0.44-4.59-0.44-6.41c0-17.15,13.95-31.11,31.11-31.11s31.11,13.95,31.11,31.11
		c0,1.99-0.18,4.21-0.45,6.41h49.88c3.44,0,6.23,2.79,6.23,6.23v57.29c0,1.86-0.83,3.62-2.26,4.8c-1.43,1.18-3.31,1.67-5.14,1.32
		c-4.64-0.89-8.82-1.39-11.47-1.39c-10.28,0-18.65,8.36-18.65,18.65s8.36,18.65,18.65,18.65c2.64,0,6.82-0.51,11.47-1.4
		c1.82-0.35,3.71,0.13,5.14,1.32c1.43,1.18,2.26,2.94,2.26,4.8v57.29c0,1.65-0.66,3.24-1.83,4.41
		C217.82,382.63,216.24,383.29,214.59,383.29z M59.74,221.97c3.2,80.52,68.11,145.48,148.62,148.73v-43.64
		c-2.19,0.27-4.42,0.45-6.41,0.45c-17.15,0-31.11-13.96-31.11-31.11s13.95-31.11,31.11-31.11c1.82,0,3.98,0.15,6.41,0.44v-43.77
		h-50.94c-1.86,0-3.62-0.83-4.8-2.26c-1.18-1.43-1.67-3.32-1.32-5.14c0.89-4.65,1.4-8.83,1.4-11.47c0-10.28-8.36-18.65-18.65-18.65
		s-18.65,8.36-18.65,18.65c0,2.65,0.51,6.83,1.4,11.47c0.35,1.82-0.13,3.71-1.32,5.14c-1.18,1.43-2.94,2.26-4.8,2.26H59.74z"/>
	<path class="st0" d="M214.75,221.3h-57.29c-1.86,0-3.62-0.83-4.8-2.26s-1.67-3.32-1.32-5.14c0.89-4.64,1.39-8.82,1.39-11.47
		c0-10.28-8.36-18.65-18.65-18.65s-18.65,8.37-18.65,18.65c0,2.64,0.51,6.82,1.4,11.47c0.35,1.82-0.13,3.71-1.32,5.14
		s-2.94,2.26-4.8,2.26H53.43c-1.65,0-3.24-0.66-4.41-1.83s-1.82-2.75-1.82-4.41c0.03-43.87,16.9-85.34,47.51-116.76
		c30.54-31.36,71.41-49.32,115.08-50.6c3.43-0.06,6.31,2.61,6.41,6.05c0.1,3.44-2.61,6.31-6.05,6.41
		C127.9,62.56,62.99,127.33,59.78,208.84h43.64c-0.27-2.19-0.45-4.42-0.45-6.41c0-17.15,13.96-31.11,31.11-31.11
		s31.11,13.96,31.11,31.11c0,1.82-0.15,3.98-0.44,6.41H210c1.14-1.35,2.85-2.2,4.75-2.2c3.44,0,6.23,2.79,6.23,6.23v2.2
		C220.98,218.51,218.19,221.3,214.75,221.3z"/>
	<path class="st1" d="M295.96,258.01c-17.15,0-31.11-13.95-31.11-31.11c0-1.99,0.18-4.21,0.45-6.41h-49.88
		c-3.44,0-6.23-2.79-6.23-6.23v-57.29c0-1.86,0.83-3.62,2.26-4.8c1.43-1.18,3.32-1.67,5.14-1.32c4.64,0.89,8.82,1.39,11.47,1.39
		c10.28,0,18.65-8.36,18.65-18.65s-8.36-18.65-18.65-18.65c-2.64,0-6.82,0.51-11.47,1.4c-1.83,0.35-3.71-0.13-5.14-1.32
		c-1.43-1.18-2.26-2.94-2.26-4.8V52.94c0-1.65,0.66-3.24,1.83-4.41c1.17-1.17,2.75-1.82,4.4-1.82c0,0,0,0,0,0
		c92.32,0.06,167.43,75.22,167.43,167.55c0,3.44-2.79,6.23-6.23,6.23h-50c0.29,2.43,0.44,4.59,0.44,6.41
		C327.06,244.06,313.11,258.01,295.96,258.01z M221.64,208.03h50.94c1.86,0,3.62,0.83,4.8,2.26c1.18,1.43,1.67,3.32,1.32,5.14
		c-0.89,4.65-1.4,8.83-1.4,11.47c0,10.28,8.36,18.65,18.65,18.65s18.65-8.36,18.65-18.65c0-2.65-0.51-6.83-1.4-11.47
		c-0.35-1.82,0.13-3.71,1.32-5.14c1.18-1.43,2.94-2.26,4.8-2.26h50.94c-3.2-80.52-68.11-145.48-148.62-148.73v43.64
		c2.19-0.27,4.42-0.45,6.41-0.45c17.15,0,31.11,13.96,31.11,31.11s-13.95,31.11-31.11,31.11c-1.82,0-3.98-0.15-6.41-0.44V208.03z"/>
</g>
</svg>
