<?xml version="1.0" encoding="utf-8"?>
<!-- Generator: Adobe Illustrator 26.0.1, SVG Export Plug-In . SVG Version: 6.00 Build 0)  -->
<svg version="1.1" id="Warstwa_1" xmlns="http://www.w3.org/2000/svg" xmlns:xlink="http://www.w3.org/1999/xlink" x="0px" y="0px"
	 viewBox="0 0 500 500" style="enable-background:new 0 0 500 500;" xml:space="preserve">
<style type="text/css">
	.st0{fill:#FFFFFF;}
	.st1{fill:#121331;}
	.st2{fill:none;stroke:#08a88a;stroke-width:12;stroke-linecap:round;stroke-linejoin:round;stroke-miterlimit:10;}
	.st3{fill:#08a88a;}
</style>
<g>
	<path class="st0" d="M116.57,213.75c30.45-27.64,74.69-110.31,104.95-104.28c27.47,5.47,28.49-39.6,61.03-8.19
		c20.13,19.44,70,84.73,100.89,112.47"/>
	<path class="st1" d="M383.43,219.75c-1.43,0-2.86-0.51-4.01-1.54c-18.41-16.53-42.97-45.62-64.64-71.28
		c-14.55-17.23-28.29-33.51-36.41-41.34c-14.91-14.39-19.3-10.25-28.05-2c-6.56,6.18-15.54,14.64-29.98,11.76
		c-16.17-3.22-42.58,31.74-63.82,59.83c-12.88,17.04-25.04,33.13-35.93,43.01c-2.45,2.23-6.25,2.04-8.48-0.41
		c-2.23-2.45-2.04-6.25,0.41-8.48c10.05-9.13,21.89-24.79,34.42-41.36c25.66-33.95,52.2-69.05,75.73-64.36
		c7.97,1.58,12.57-2.28,19.41-8.73c9.06-8.54,21.48-20.23,44.62,2.11c8.55,8.26,21.85,24,37.24,42.23
		c21.42,25.36,45.69,54.11,63.49,70.09c2.47,2.21,2.67,6.01,0.46,8.47C386.71,219.08,385.07,219.75,383.43,219.75z"/>
</g>
<g>
	<path class="st0" d="M383.43,213.73c-30.45,43.89-52.37,111.06-84.1,111.06c-32.68,0-30.89,85.33-65.33,85.33
		c-24.03,0-8.67-39.12-50.67-71.86c-40.9-31.88-49.9-100.49-66.76-124.53"/>
	<path class="st1" d="M234,416.12c-15.59,0-19.4-12.16-23.43-25.03c-4.43-14.14-9.95-31.75-30.93-48.1
		c-28.13-21.93-41.59-59.48-52.4-89.66c-5.48-15.29-10.21-28.5-15.58-36.16c-1.9-2.71-1.25-6.46,1.47-8.36
		c2.71-1.9,6.46-1.25,8.36,1.47c6.29,8.98,11.28,22.89,17.05,39c10.29,28.72,23.1,64.46,48.48,84.24
		c23.94,18.66,30.34,39.08,35.01,53.98c4.22,13.47,5.83,16.61,11.98,16.61c13.28,0,20.77-20.13,28.02-39.6
		c8.37-22.48,17.02-45.73,37.31-45.73c18.2,0,35.43-31.77,52.1-62.5c8.52-15.7,17.32-31.93,27.07-45.98
		c1.89-2.72,5.63-3.4,8.35-1.51c2.72,1.89,3.4,5.63,1.51,8.35c-9.37,13.51-18.02,29.45-26.38,44.86
		c-19.19,35.37-37.31,68.78-62.65,68.78c-11.95,0-19.13,19.27-26.07,37.92C264.59,392.02,255.62,416.12,234,416.12z"/>
</g>
<g>
	<path class="st2" d="M278.88,229.4"/>
	<path class="st3" d="M154.01,234.29c-4.93,0-9.74-0.93-14.28-2.77c-3.07-1.24-4.55-4.74-3.31-7.81c1.24-3.07,4.74-4.55,7.81-3.31
		c3.1,1.26,6.39,1.89,9.77,1.89c14.36,0,26.05-11.69,26.05-26.05c0-3.31,2.69-6,6-6s6,2.69,6,6
		C192.06,217.22,174.99,234.29,154.01,234.29z"/>
	<path class="st3" d="M218.11,234.29c-20.98,0-38.05-17.07-38.05-38.05c0-3.31,2.69-6,6-6s6,2.69,6,6
		c0,14.36,11.68,26.05,26.05,26.05s26.05-11.69,26.05-26.05c0-3.31,2.69-6,6-6s6,2.69,6,6
		C256.15,217.22,239.09,234.29,218.11,234.29z"/>
	<path class="st3" d="M282.2,234.29c-20.98,0-38.05-17.07-38.05-38.05c0-3.31,2.69-6,6-6s6,2.69,6,6
		c0,14.36,11.68,26.05,26.05,26.05s26.05-11.69,26.05-26.05c0-3.31,2.69-6,6-6s6,2.69,6,6C320.25,217.22,303.18,234.29,282.2,234.29
		z"/>
	<path class="st3" d="M346.3,234.29c-20.98,0-38.05-17.07-38.05-38.05c0-3.31,2.69-6,6-6s6,2.69,6,6
		c0,14.36,11.69,26.05,26.05,26.05s26.05-11.69,26.05-26.05c0-3.31,2.69-6,6-6s6,2.69,6,6C384.35,217.22,367.28,234.29,346.3,234.29
		z"/>
	<path class="st3" d="M410.08,234.29c-20.98,0-38.05-17.07-38.05-38.05c0-3.31,2.69-6,6-6s6,2.69,6,6
		c0,14.36,11.69,26.05,26.05,26.05c3.31,0,6,2.69,6,6S413.39,234.29,410.08,234.29z"/>
	<g>
		<path class="st3" d="M154.02,234.29c-20.98,0-38.05-17.07-38.05-38.05c0-3.31,2.69-6,6-6s6,2.69,6,6
			c0,14.36,11.69,26.05,26.05,26.05c3.38,0,6.67-0.64,9.77-1.89c3.07-1.24,6.57,0.24,7.81,3.31c1.24,3.07-0.24,6.57-3.31,7.81
			C163.75,233.36,158.95,234.29,154.02,234.29z"/>
		<path class="st3" d="M89.92,234.29c-3.31,0-6-2.69-6-6s2.69-6,6-6c14.36,0,26.05-11.68,26.05-26.05c0-3.31,2.69-6,6-6s6,2.69,6,6
			C127.97,217.23,110.9,234.29,89.92,234.29z"/>
	</g>
</g>
<path class="st1" d="M279.57,345.12c-1.19,0-2.39-0.35-3.44-1.08c-2.71-1.9-3.38-5.64-1.48-8.36c0.25-0.36,24.97-35.91,28.23-58.83
	c0.47-3.28,3.51-5.56,6.78-5.1c3.28,0.47,5.56,3.5,5.1,6.78c-3.66,25.77-29.19,62.48-30.28,64.03
	C283.33,344.23,281.47,345.12,279.57,345.12z"/>
<path class="st1" d="M213.02,385.73c-0.46,0-0.92-0.05-1.39-0.16c-3.22-0.76-5.22-4-4.45-7.22c7.41-31.27,0.4-47.48-7.03-64.64
	c-6.41-14.81-13.04-30.13-10.49-54.43c0.35-3.3,3.3-5.68,6.59-5.34c3.3,0.35,5.69,3.3,5.34,6.59c-2.22,21.18,3.51,34.41,9.57,48.42
	c7.88,18.2,16.02,37.02,7.69,72.17C218.2,383.87,215.74,385.73,213.02,385.73z"/>
</svg>
