<?xml version="1.0" encoding="utf-8"?>
<!-- Generator: Adobe Illustrator 24.1.2, SVG Export Plug-In . SVG Version: 6.00 Build 0)  -->
<svg version="1.1" id="Warstwa_1" xmlns="http://www.w3.org/2000/svg" xmlns:xlink="http://www.w3.org/1999/xlink" x="0px" y="0px"
	 viewBox="0 0 430 430" style="enable-background:new 0 0 430 430;" xml:space="preserve">
<style type="text/css">
	.st0{fill:#08a88a;}
	.st1{fill:#121331;}
	.st2{fill:#08a88a;}
	.st3{fill:#08A385;}
	.st4{fill:none;}
	.st5{fill:#08A284;}
	.st6{fill:#08A688;}
</style>
<g>
	<g>
		<path class="st1" d="M183.19,157.72h104.79v16h-88.79l12,12h64.61l-4.73,59.88l11.16,11.16l5.61-71.03h6.15c3.31,0,6-2.69,6-6v-28
			c0-3.31-2.69-6-6-6h-70.81l9-71.2l41.43-13.6c3.15-1.03,4.86-4.42,3.83-7.57c-1.03-3.15-4.42-4.86-7.57-3.83L224.82,64.3
			c-2.2,0.72-3.79,2.65-4.08,4.95l-9.66,76.47h-39.88L183.19,157.72z"/>
		<path class="st1" d="M269.83,261.33l-8.49,107.51h-93.57l-14.46-183.12h40.92l-12-12h-41.1v-16h25.1l-12-12h-19.1
			c-3.31,0-6,2.69-6,6v28c0,3.31,2.69,6,6,6h6.15l14.97,189.59c0.25,3.12,2.85,5.53,5.98,5.53h104.66c3.13,0,5.74-2.41,5.98-5.53
			l8.12-102.83L269.83,261.33z"/>
	</g>
	<path class="st0" d="M375.36,381.36c-1.54,0-3.07-0.59-4.24-1.76L50.4,58.88c-2.34-2.34-2.34-6.14,0-8.49
		c2.34-2.34,6.14-2.34,8.48,0L379.6,371.12c2.34,2.34,2.34,6.14,0,8.49C378.43,380.78,376.9,381.36,375.36,381.36z"/>
</g>
</svg>
