<?xml version="1.0" encoding="utf-8"?>
<!-- Generator: Adobe Illustrator 24.1.2, SVG Export Plug-In . SVG Version: 6.00 Build 0)  -->
<svg version="1.1" id="Warstwa_1" xmlns="http://www.w3.org/2000/svg" xmlns:xlink="http://www.w3.org/1999/xlink" x="0px" y="0px"
	 viewBox="0 0 430 430" style="enable-background:new 0 0 430 430;" xml:space="preserve">
<style type="text/css">
	.st0{fill:#08a88a;}
	.st1{fill:#121331;}
	.st2{fill:#08a88a;}
	.st3{fill:#08A385;}
	.st4{fill:none;}
	.st5{fill:#08A284;}
	.st6{fill:#08A688;}
</style>
<g>
	<g>
		<path class="st1" d="M156.22,130.75l11.31-56.8h94.05l16.55,83.15c1.2,6,1.53,12.06,1.04,18h-78.61l12,12h64.45
			c-2.38,8.58-6.53,16.68-12.35,23.78c-4.33,5.28-9.4,9.75-14.98,13.35l8.65,8.65c5.77-4.01,11.03-8.82,15.6-14.39
			c8.67-10.56,14.24-23.01,16.42-36.11c0.05-0.23,0.09-0.47,0.11-0.72c1.38-8.81,1.22-17.9-0.57-26.91l-17.51-87.98
			c-0.56-2.81-3.02-4.83-5.88-4.83H162.6c-2.86,0-5.33,2.02-5.88,4.83l-10.7,53.77L156.22,130.75z"/>
		<path class="st1" d="M252.12,368.84h-31.56v-122.5c9.49-0.73,18.63-3.22,27.05-7.23L238.5,230c-7.52,2.98-15.62,4.57-23.95,4.57
			c-19.49,0-37.75-8.64-50.11-23.7c-5.82-7.09-9.96-15.2-12.35-23.78h43.5l-12-12h-33.66c-0.49-5.95-0.15-12,1.04-18l2.43-12.19
			l-10.2-10.2l-3.99,20.05c-1.79,9-1.95,18.09-0.57,26.91c0.02,0.24,0.06,0.48,0.11,0.72c2.17,13.1,7.75,25.54,16.42,36.11
			c13.37,16.3,32.58,26.25,53.39,27.86v122.5h-31.56c-3.31,0-6,2.69-6,6s2.69,6,6,6h75.13c3.31,0,6-2.69,6-6
			S255.43,368.84,252.12,368.84z"/>
	</g>
	<path class="st0" d="M375.36,381.36c-1.54,0-3.07-0.59-4.24-1.76L50.4,58.88c-2.34-2.34-2.34-6.14,0-8.49
		c2.34-2.34,6.14-2.34,8.48,0L379.6,371.12c2.34,2.34,2.34,6.14,0,8.49C378.43,380.78,376.9,381.36,375.36,381.36z"/>
</g>
</svg>
