<?xml version="1.0" encoding="utf-8"?>
<!-- Generator: Adobe Illustrator 24.1.2, SVG Export Plug-In . SVG Version: 6.00 Build 0)  -->
<svg version="1.1" id="Warstwa_1" xmlns="http://www.w3.org/2000/svg" xmlns:xlink="http://www.w3.org/1999/xlink" x="0px" y="0px"
	 viewBox="0 0 430 430" style="enable-background:new 0 0 430 430;" xml:space="preserve">
<style type="text/css">
	.st0{fill:#08a88a;}
	.st1{fill:#121331;}
	.st2{fill:#08a88a;}
	.st3{fill:#08A385;}
	.st4{fill:none;}
	.st5{fill:#08A284;}
	.st6{fill:#08A688;}
</style>
<g>
	<path class="st0" d="M235.02,381.12c-3.31,0-6-2.69-6-6v-60.04c0-7.73-6.29-14.02-14.02-14.02s-14.02,6.29-14.02,14.02v60.04
		c0,3.31-2.69,6-6,6s-6-2.69-6-6v-60.04c0-14.34,11.67-26.02,26.02-26.02s26.02,11.67,26.02,26.02v60.04
		C241.02,378.43,238.33,381.12,235.02,381.12z"/>
	<path class="st1" d="M354.41,227.84c0-0.04,0-0.08-0.01-0.13c-0.01-0.13-0.04-0.25-0.06-0.38c-0.01-0.07-0.02-0.15-0.04-0.22
		c-0.02-0.07-0.04-0.14-0.06-0.22c-0.03-0.13-0.06-0.25-0.1-0.38c-0.01-0.04-0.03-0.07-0.04-0.11c-0.05-0.15-0.11-0.31-0.17-0.46
		c0-0.01,0-0.01-0.01-0.02l-23.43-53.37c-0.96-2.18-3.11-3.59-5.49-3.59h-56.57v-10.11v-0.26v-6.2c0-27.4-20.74-50.04-47.34-53.07
		l0.18-11.76h47.1c3.31,0,6-2.69,6-6V54.88c0-3.31-2.69-6-6-6h-52.6c-0.11,0-0.21,0.01-0.32,0.02c-0.08,0-0.15,0-0.23,0.01
		c-0.17,0.02-0.33,0.04-0.49,0.07c-0.03,0.01-0.06,0.01-0.09,0.01c-1.17,0.22-2.22,0.79-3.04,1.58c0,0,0,0,0,0
		c-0.13,0.12-0.24,0.25-0.36,0.38c-0.01,0.02-0.03,0.03-0.04,0.05c-0.1,0.12-0.2,0.24-0.29,0.37c-0.02,0.03-0.05,0.06-0.07,0.09
		c-0.08,0.11-0.15,0.23-0.22,0.35c-0.03,0.05-0.06,0.1-0.09,0.15c-0.06,0.11-0.11,0.22-0.17,0.33c-0.03,0.07-0.07,0.13-0.09,0.2
		c-0.04,0.1-0.08,0.21-0.12,0.32c-0.03,0.08-0.06,0.16-0.09,0.24c-0.03,0.1-0.06,0.2-0.08,0.31c-0.02,0.09-0.05,0.18-0.07,0.27
		c-0.02,0.1-0.03,0.2-0.05,0.3c-0.02,0.1-0.03,0.19-0.04,0.29c-0.01,0.1-0.01,0.2-0.02,0.3c-0.01,0.09-0.02,0.18-0.02,0.27
		l-0.68,44.52c-26.69,2.95-47.51,25.63-47.51,53.09v6.2v0.26v10.11H105c-2.38,0-4.54,1.41-5.49,3.59l-23.43,53.37
		c0,0.01,0,0.01-0.01,0.02c-0.06,0.15-0.12,0.3-0.17,0.46c-0.01,0.04-0.03,0.07-0.04,0.11c-0.04,0.12-0.07,0.25-0.1,0.38
		c-0.02,0.07-0.04,0.14-0.06,0.22c-0.02,0.07-0.02,0.15-0.04,0.22c-0.02,0.13-0.04,0.25-0.06,0.38c0,0.04,0,0.08-0.01,0.13
		c-0.01,0.16-0.02,0.32-0.02,0.48c0,0.01,0,0.02,0,0.02v146.78c0,3.31,2.69,6,6,6h266.87c3.31,0,6-2.69,6-6V228.34
		c0-0.01,0-0.02,0-0.02C354.43,228.16,354.42,228,354.41,227.84z M87.57,234.34h74.01v41.37H87.57V234.34z M256.43,222.34h-82.85
		V164.6h82.85V222.34z M161.57,287.72v81.4h-31v-81.4H161.57z M173.57,234.34h82.85v134.78h-82.85V234.34z M268.43,287.72h31.32
		v81.4h-31.32V287.72z M268.43,275.72v-41.37h74.01v41.37H268.43z M321.08,180.97l18.16,41.37h-70.82v-41.37H321.08z M221.77,60.88
		h40.6v14.69h-40.6V60.88z M215,110.97c22.84,0,41.43,18.58,41.43,41.43v0.2h-82.85v-0.2C173.57,129.55,192.16,110.97,215,110.97z
		 M108.92,180.97h52.65v41.37H90.75L108.92,180.97z M87.57,287.72h31v81.4h-31V287.72z M311.74,369.12v-81.4h30.69v81.4H311.74z"/>
	<path class="st0" d="M215,216.72c-12.89,0-23.38-10.49-23.38-23.38s10.49-23.38,23.38-23.38s23.38,10.49,23.38,23.38
		S227.89,216.72,215,216.72z M215,181.97c-6.27,0-11.38,5.1-11.38,11.38s5.1,11.38,11.38,11.38s11.38-5.1,11.38-11.38
		S221.27,181.97,215,181.97z"/>
	<path class="st0" d="M135.44,261.03H113.7c-3.31,0-6-2.69-6-6s2.69-6,6-6h21.75c3.31,0,6,2.69,6,6S138.76,261.03,135.44,261.03z"/>
	<path class="st0" d="M225.87,261.03h-21.75c-3.31,0-6-2.69-6-6s2.69-6,6-6h21.75c3.31,0,6,2.69,6,6S229.19,261.03,225.87,261.03z"
		/>
	<path class="st0" d="M316.62,261.03h-21.75c-3.31,0-6-2.69-6-6s2.69-6,6-6h21.75c3.31,0,6,2.69,6,6S319.93,261.03,316.62,261.03z"
		/>
</g>
</svg>
