<?xml version="1.0" encoding="utf-8"?>
<!-- Generator: Adobe Illustrator 24.1.2, SVG Export Plug-In . SVG Version: 6.00 Build 0)  -->
<svg version="1.1" id="Warstwa_1" xmlns="http://www.w3.org/2000/svg" xmlns:xlink="http://www.w3.org/1999/xlink" x="0px" y="0px"
	 viewBox="0 0 430 430" style="enable-background:new 0 0 430 430;" xml:space="preserve">
<style type="text/css">
	.st0{fill:#08a88a;}
	.st1{fill:#121331;}
	.st2{fill:#08a88a;}
	.st3{fill:#08A385;}
	.st4{fill:none;}
	.st5{fill:#08A284;}
	.st6{fill:#08A688;}
</style>
<g>
	<g>
		<path class="st0" d="M183.75,346c-3.31,0-6-2.69-6-6v-50c0-3.31,2.69-6,6-6s6,2.69,6,6v50C189.75,343.31,187.06,346,183.75,346z"
			/>
		<path class="st0" d="M246.25,346c-3.31,0-6-2.69-6-6v-50c0-3.31,2.69-6,6-6s6,2.69,6,6v50C252.25,343.31,249.56,346,246.25,346z"
			/>
		<path class="st0" d="M215,346c-3.31,0-6-2.69-6-6v-31.6c0-3.31,2.69-6,6-6s6,2.69,6,6V340C221,343.31,218.31,346,215,346z"/>
	</g>
	<path class="st0" d="M122.7,244.34H99.58c-3.31,0-6-2.69-6-6v-23.01c0-3.31,2.69-6,6-6h23.12c3.31,0,6,2.69,6,6s-2.69,6-6,6h-17.12
		v11.01h17.12c3.31,0,6,2.69,6,6S126.02,244.34,122.7,244.34z"/>
	<path class="st0" d="M330.42,244.02H307.3c-3.31,0-6-2.69-6-6s2.69-6,6-6h17.12v-11.01H307.3c-3.31,0-6-2.69-6-6s2.69-6,6-6h23.12
		c3.31,0,6,2.69,6,6v23.01C336.42,241.33,333.73,244.02,330.42,244.02z"/>
	<path class="st0" d="M226.5,88.88c-3.31,0-6-2.69-6-6v-22h-11v22c0,3.31-2.69,6-6,6s-6-2.69-6-6v-28c0-3.31,2.69-6,6-6h23
		c3.31,0,6,2.69,6,6v28C232.5,86.19,229.81,88.88,226.5,88.88z"/>
	<path class="st1" d="M286.67,334.05h-3.71V270.5l26.43-9.85c2.35-0.88,3.91-3.12,3.91-5.62V198c0-2.51-1.56-4.75-3.91-5.62
		l-26.43-9.85v-13.59H307c3.31,0,6-2.69,6-6v-5.25c0-15.49-12.32-28.15-27.67-28.72c-2.99-29.22-27.74-52.08-57.74-52.08h-25.18
		c-29.99,0-54.74,22.87-57.74,52.08C129.32,129.54,117,142.2,117,157.69v5.25c0,3.31,2.69,6,6,6h24.04v13.91l-26.43,9.85
		c-2.35,0.88-3.91,3.12-3.91,5.62v57.03c0,2.51,1.56,4.75,3.91,5.62l26.43,9.85v63.23h-3.71c-22.65,0-41.07,18.42-41.07,41.07
		c0,3.31,2.69,6,6,6h213.49c3.31,0,6-2.69,6-6C327.75,352.47,309.32,334.05,286.67,334.05z M301.3,202.17v48.7l-18.33,6.83v-62.36
		L301.3,202.17z M202.41,88.88h25.18c23.35,0,42.69,17.48,45.64,40.06H156.77C159.71,106.37,179.05,88.88,202.41,88.88z
		 M145.75,140.94h138.5c8.99,0,16.34,7.11,16.73,16H129.02C129.41,148.05,136.77,140.94,145.75,140.94z M128.7,251.18v-48.7
		l18.33-6.83v62.36L128.7,251.18z M159.04,168.94h111.93v165.1H159.04V168.94z M114.88,369.12c2.77-13.16,14.48-23.07,28.45-23.07
		h143.35c13.97,0,25.68,9.91,28.45,23.07H114.88z"/>
	<path class="st1" d="M215,272.33c-25.09,0-45.5-20.41-45.5-45.5s20.41-45.5,45.5-45.5s45.5,20.41,45.5,45.5
		S240.09,272.33,215,272.33z M215,193.33c-18.47,0-33.5,15.03-33.5,33.5s15.03,33.5,33.5,33.5s33.5-15.03,33.5-33.5
		S233.47,193.33,215,193.33z"/>
	<path class="st0" d="M215,247.57c-11.43,0-20.74-9.3-20.74-20.74c0-11.43,9.3-20.74,20.74-20.74s20.74,9.3,20.74,20.74
		C235.74,238.27,226.43,247.57,215,247.57z M215,218.1c-4.82,0-8.74,3.92-8.74,8.74s3.92,8.74,8.74,8.74s8.74-3.92,8.74-8.74
		S219.82,218.1,215,218.1z"/>
</g>
</svg>
