<?xml version="1.0" encoding="utf-8"?>
<!-- Generator: Adobe Illustrator 24.1.2, SVG Export Plug-In . SVG Version: 6.00 Build 0)  -->
<svg version="1.1" id="Warstwa_1" xmlns="http://www.w3.org/2000/svg" xmlns:xlink="http://www.w3.org/1999/xlink" x="0px" y="0px"
	 viewBox="0 0 430 430" style="enable-background:new 0 0 430 430;" xml:space="preserve">
<style type="text/css">
	.st0{fill:#08a88a;}
	.st1{fill:#121331;}
	.st2{fill:#08a88a;}
	.st3{fill:#08A385;}
	.st4{fill:none;}
	.st5{fill:#08A284;}
	.st6{fill:#08A688;}
</style>
<g>
	<path class="st1" d="M348.43,315.75h-18.26V178.01c0-12.34-10.04-22.38-22.38-22.38c-5.72,0-10.38-4.65-10.38-10.38V131.3
		c0-22.01-8.57-42.71-24.14-58.28c-15.6-15.59-36.26-24.14-58.27-24.14c-0.33,0-0.65,0-0.97,0.01
		c-44.92,0.51-81.46,37.92-81.46,83.39v12.98c0,5.72-4.65,10.38-10.38,10.38c-12.34,0-22.38,10.04-22.38,22.38v137.74H81.57
		c-3.31,0-6,2.69-6,6v53.37c0,3.31,2.69,6,6,6h266.87c3.31,0,6-2.69,6-6v-53.37C354.43,318.43,351.75,315.75,348.43,315.75z
		 M111.83,178.01c0-5.72,4.65-10.38,10.38-10.38c12.34,0,22.38-10.04,22.38-22.38v-12.98c0-38.93,31.22-70.96,69.59-71.39
		c19.17-0.22,37.1,7.1,50.62,20.62c13.3,13.31,20.62,31,20.62,49.8v13.96c0,12.34,10.04,22.38,22.38,22.38
		c5.72,0,10.38,4.65,10.38,10.38v137.74H111.83V178.01z M342.43,369.12H87.57v-41.37h18.19c0.03,0,0.05,0,0.08,0s0.05,0,0.08,0
		h218.19c0.03,0,0.05,0,0.08,0s0.05,0,0.08,0h18.19V369.12z"/>
	<path class="st1" d="M268.37,298.06H161.63c-3.31,0-6-2.69-6-6V168c0-3.31,2.69-6,6-6h106.75c3.31,0,6,2.69,6,6v124.06
		C274.37,295.37,271.69,298.06,268.37,298.06z M167.63,286.06h94.75V174h-94.75V286.06z"/>
	<g>
		<path class="st0" d="M243.18,209.7h-56.35c-3.31,0-6-2.69-6-6s2.69-6,6-6h56.35c3.31,0,6,2.69,6,6S246.49,209.7,243.18,209.7z"/>
		<path class="st0" d="M243.18,262.36h-56.35c-3.31,0-6-2.69-6-6s2.69-6,6-6h56.35c3.31,0,6,2.69,6,6S246.49,262.36,243.18,262.36z"
			/>
		<path class="st0" d="M209.84,236.03h-23.02c-3.31,0-6-2.69-6-6s2.69-6,6-6h23.02c3.31,0,6,2.69,6,6S213.16,236.03,209.84,236.03z"
			/>
		<path class="st0" d="M243.18,236.03h-10.33c-3.31,0-6-2.69-6-6s2.69-6,6-6h10.33c3.31,0,6,2.69,6,6S246.49,236.03,243.18,236.03z"
			/>
	</g>
</g>
</svg>
