<?xml version="1.0" encoding="utf-8"?>
<!-- Generator: Adobe Illustrator 24.1.2, SVG Export Plug-In . SVG Version: 6.00 Build 0)  -->
<svg version="1.1" id="Warstwa_1" xmlns="http://www.w3.org/2000/svg" xmlns:xlink="http://www.w3.org/1999/xlink" x="0px" y="0px"
	 viewBox="0 0 430 430" style="enable-background:new 0 0 430 430;" xml:space="preserve">
<style type="text/css">
	.st0{fill:#08a88a;}
	.st1{fill:#121331;}
	.st2{fill:#08a88a;}
	.st3{fill:#08A385;}
	.st4{fill:none;}
	.st5{fill:#08A284;}
	.st6{fill:#08A688;}
</style>
<g>
	<g>
		<path class="st0" d="M67.33,381.12c-3.31,0-6-2.69-6-6v-40.03c0-3.31,2.69-6,6-6s6,2.69,6,6v40.03
			C73.33,378.43,70.64,381.12,67.33,381.12z"/>
		<path class="st0" d="M93.78,381.12c-3.31,0-6-2.69-6-6v-40.03c0-3.31,2.69-6,6-6s6,2.69,6,6v40.03
			C99.78,378.43,97.09,381.12,93.78,381.12z"/>
		<path class="st0" d="M120.23,381.12c-3.31,0-6-2.69-6-6v-40.03c0-3.31,2.69-6,6-6s6,2.69,6,6v40.03
			C126.23,378.43,123.54,381.12,120.23,381.12z"/>
	</g>
	<g>
		<path class="st0" d="M309.77,380.91c-3.31,0-6-2.69-6-6v-40.03c0-3.31,2.69-6,6-6s6,2.69,6,6v40.03
			C315.77,378.22,313.08,380.91,309.77,380.91z"/>
		<path class="st0" d="M336.22,380.91c-3.31,0-6-2.69-6-6v-40.03c0-3.31,2.69-6,6-6s6,2.69,6,6v40.03
			C342.22,378.22,339.53,380.91,336.22,380.91z"/>
		<path class="st0" d="M362.67,380.91c-3.31,0-6-2.69-6-6v-40.03c0-3.31,2.69-6,6-6s6,2.69,6,6v40.03
			C368.67,378.22,365.98,380.91,362.67,380.91z"/>
	</g>
	<path class="st1" d="M110.67,301.06H76.89c-3.31,0-6-2.69-6-6s2.69-6,6-6h33.78c3.31,0,6,2.69,6,6S113.98,301.06,110.67,301.06z"/>
	<path class="st1" d="M353.11,301.06h-33.78c-3.31,0-6-2.69-6-6s2.69-6,6-6h33.78c3.31,0,6,2.69,6,6S356.42,301.06,353.11,301.06z"
		/>
	<path class="st1" d="M388.46,289.06h-29.35v-52.27h1.36c3.31,0,6-2.69,6-6s-2.69-6-6-6h-1.36v-52.27h1.36c3.31,0,6-2.69,6-6
		s-2.69-6-6-6h-1.36v-58.27c0-3.31-2.69-6-6-6s-6,2.69-6,6v58.27h-21.78v-58.27c0-3.31-2.69-6-6-6s-6,2.69-6,6v58.27h-1.36
		c-3.31,0-6,2.69-6,6s2.69,6,6,6h1.36v52.27h-1.36c-3.31,0-6,2.69-6,6s2.69,6,6,6h1.36v52.27h-23.35v-19.97c0-3.31-2.69-6-6-6
		s-6,2.69-6,6v100.03h-31.53v-19.29c0-17.51-6.26-34.49-17.63-47.82l-9.25-10.85c-1.14-1.34-2.81-2.11-4.56-2.11
		s-3.42,0.77-4.56,2.11l-9.25,10.85c-11.37,13.32-17.63,30.3-17.63,47.82v19.29h-31.53V269.09c0-3.31-2.69-6-6-6s-6,2.69-6,6v19.97
		h-23.35v-52.27h1.36c3.31,0,6-2.69,6-6s-2.69-6-6-6h-1.36v-52.27h1.36c3.31,0,6-2.69,6-6s-2.69-6-6-6h-1.36v-58.27
		c0-3.31-2.69-6-6-6s-6,2.69-6,6v58.27H82.89v-58.27c0-3.31-2.69-6-6-6s-6,2.69-6,6v58.27h-1.36c-3.31,0-6,2.69-6,6s2.69,6,6,6h1.36
		v52.27h-1.36c-3.31,0-6,2.69-6,6s2.69,6,6,6h1.36v52.27H41.54c-3.31,0-6,2.69-6,6v80.06c0,3.31,2.69,6,6,6h104.49h137.96h104.49
		c3.31,0,6-2.69,6-6v-80.06C394.46,291.75,391.78,289.06,388.46,289.06z M82.89,172.52h21.78v52.27H82.89V172.52z M82.89,236.79
		h21.78v52.27H82.89V236.79z M47.54,301.06h92.49v68.06H47.54V301.06z M325.33,172.52h21.78v52.27h-21.78V172.52z M325.33,236.79
		h21.78v52.27h-21.78V236.79z M195.55,349.83c0-14.66,5.24-28.87,14.76-40.03l4.69-5.5l4.69,5.5c9.52,11.15,14.76,25.37,14.76,40.03
		v19.29h-38.89V349.83z M382.46,369.12h-92.49v-68.06h29.28c0.03,0,0.05,0,0.08,0s0.05,0,0.08,0h33.62c0.03,0,0.05,0,0.08,0
		s0.05,0,0.08,0h29.28V369.12z"/>
	<path class="st0" d="M221,154.25v-19.4c0-3.31-2.69-6-6-6s-6,2.69-6,6v19.4c-39.41,3.86-70.53,45.41-70.53,95.93
		c0,6.73,0.55,13.43,1.64,19.91c0.48,2.89,2.99,5.01,5.92,5.01h137.96c2.93,0,5.43-2.12,5.92-5.01c1.09-6.48,1.64-13.18,1.64-19.91
		C291.53,199.65,260.41,158.11,221,154.25z M278.78,263.09H151.22c-0.5-4.24-0.76-8.57-0.76-12.92c0-46.44,28.95-84.22,64.53-84.22
		s64.53,37.78,64.53,84.22C279.53,254.52,279.28,258.85,278.78,263.09z"/>
	<path class="st0" d="M357.99,108.25h-43.53c-1.89,0-3.67-0.89-4.8-2.41c-5.06-6.76-2.65-17.69,7.58-34.4
		c6.57-10.73,14.01-19.95,14.32-20.34c1.14-1.41,2.85-2.23,4.66-2.23s3.52,0.82,4.66,2.23c0.31,0.39,7.75,9.61,14.32,20.34
		c10.23,16.71,12.64,27.64,7.59,34.4C361.66,107.36,359.88,108.25,357.99,108.25z M319.17,96.25h34.1
		c-0.44-3.05-2.43-9.02-8.54-18.94c-2.91-4.72-6.03-9.17-8.51-12.54c-2.47,3.37-5.6,7.82-8.51,12.54
		C321.6,87.23,319.61,93.2,319.17,96.25z"/>
	<path class="st0" d="M115.55,108.25H72.01c-1.89,0-3.67-0.89-4.8-2.41c-5.06-6.76-2.65-17.69,7.58-34.4
		c6.57-10.73,14.01-19.95,14.32-20.34c1.14-1.41,2.85-2.23,4.66-2.23l0,0c1.81,0,3.52,0.82,4.66,2.23
		c0.31,0.39,7.75,9.61,14.32,20.34c10.23,16.71,12.64,27.64,7.58,34.4C119.22,107.36,117.44,108.25,115.55,108.25z M76.73,96.25
		h34.1c-0.44-3.06-2.44-9.05-8.6-19.02c-2.9-4.7-6-9.11-8.45-12.46c-2.48,3.37-5.6,7.83-8.51,12.54
		C79.16,87.23,77.17,93.2,76.73,96.25z"/>
</g>
</svg>
