<?xml version="1.0" encoding="utf-8"?>
<!-- Generator: Adobe Illustrator 26.0.1, SVG Export Plug-In . SVG Version: 6.00 Build 0)  -->
<svg version="1.1" id="Warstwa_1" xmlns="http://www.w3.org/2000/svg" xmlns:xlink="http://www.w3.org/1999/xlink" x="0px" y="0px"
	 viewBox="0 0 500 500" style="enable-background:new 0 0 500 500;" xml:space="preserve">
<style type="text/css">
	.st0{fill:#121331;}
	.st1{fill:#08a88a;}
	.st2{fill:#1D1D1B;}
	.st3{fill:#08a88a;}
	.st4{fill:none;stroke:#08a88a;stroke-width:12;stroke-linecap:round;stroke-linejoin:round;stroke-miterlimit:10;}
</style>
<g>
	<path class="st1" d="M222.87,175.03c-25.21,0-45.73-20.51-45.73-45.73s20.51-45.73,45.73-45.73s45.73,20.51,45.73,45.73
		S248.09,175.03,222.87,175.03z M222.87,95.58c-18.6,0-33.73,15.13-33.73,33.73s15.13,33.73,33.73,33.73s33.73-15.13,33.73-33.73
		S241.47,95.58,222.87,95.58z"/>
	<path class="st0" d="M410.11,416.12H89.88c-3.31,0-6-2.69-6-6v-40.03c0-3.31,2.69-6,6-6c66.45,0,111.59-12.5,148.68-24.22
		c3.16-1,6.53,0.75,7.53,3.91c1,3.16-0.75,6.53-3.91,7.53c-36.83,11.63-81.41,24.02-146.3,24.75v28.06h308.23v-86.36
		c-21.75,0.29-42.26,2.2-62.52,5.79c-3.26,0.58-6.38-1.6-6.96-4.86c-0.58-3.26,1.6-6.38,4.86-6.96c22.81-4.04,45.91-6.01,70.62-6.01
		c3.31,0,6,2.69,6,6v98.4C416.11,413.43,413.43,416.12,410.11,416.12z"/>
	<g>
		<path class="st1" d="M320.17,416.12c-3.31,0-6-2.69-6-6v-111c0-8.93-7.27-16.2-16.2-16.2s-16.2,7.27-16.2,16.2v111
			c0,3.31-2.69,6-6,6s-6-2.69-6-6v-111c0-15.55,12.65-28.2,28.2-28.2s28.2,12.65,28.2,28.2v111
			C326.17,413.43,323.48,416.12,320.17,416.12z"/>
		<path class="st1" d="M275.77,342.12h-7.9c-15.44,0-28-12.56-28-28V291.8c0-3.31,2.69-6,6-6s6,2.69,6,6v22.32c0,8.82,7.18,16,16,16
			h7.9c3.31,0,6,2.69,6,6S279.08,342.12,275.77,342.12z"/>
		<path class="st1" d="M328.25,386.52h-7.9c-3.31,0-6-2.69-6-6s2.69-6,6-6h7.9c8.82,0,16-7.18,16-16V345.2c0-3.31,2.69-6,6-6
			s6,2.69,6,6v13.32C356.25,373.96,343.69,386.52,328.25,386.52z"/>
	</g>
	<g>
		<path class="st0" d="M90.03,229.59c-2.62,0-5.03-1.73-5.77-4.38c-0.89-3.19,0.97-6.5,4.16-7.4c0.86-0.24,86.37-24.23,97.55-27.29
			c13.9-3.8,26.37,3.09,38.43,9.75c10.62,5.86,20.65,11.41,31.48,10.29c12.8-1.31,27.43-9.71,41.57-17.83
			c12.73-7.31,24.76-14.22,35.27-15.71c12.45-1.77,26.49,8.88,41.37,20.15c12.26,9.29,26.15,19.82,35.88,19.82c3.31,0,6,2.69,6,6
			c0,3.31-2.69,6-6,6c-13.77,0-28.7-11.31-43.13-22.26c-11.69-8.86-24.94-18.91-32.43-17.83c-8.22,1.17-19.28,7.52-30.98,14.24
			c-15.23,8.74-30.98,17.79-46.32,19.36c-14.57,1.5-27.29-5.53-38.51-11.72c-10.88-6.01-20.27-11.2-29.46-8.68
			c-11.14,3.05-96.61,27.02-97.48,27.26C91.12,229.52,90.57,229.59,90.03,229.59z"/>
		<path class="st0" d="M90.88,268.92c-3.23,0-5.89-2.56-5.99-5.81c-0.1-3.31,2.5-6.08,5.81-6.18
			c95.72-2.98,182.18-51.11,183.04-51.6c2.89-1.62,6.54-0.61,8.17,2.28c1.63,2.89,0.61,6.54-2.28,8.17
			c-3.62,2.04-89.81,50.07-188.57,53.14C91,268.92,90.94,268.92,90.88,268.92z"/>
	</g>
	<path class="st0" d="M90.04,381.54c-3.31,0-6-2.69-6-6V223.59c0-3.31,2.69-6,6-6s6,2.69,6,6v151.95
		C96.04,378.86,93.35,381.54,90.04,381.54z"/>
	<path class="st0" d="M409.96,322.73c-3.31,0-6-2.69-6-6V223c0-3.31,2.69-6,6-6s6,2.69,6,6v93.73
		C415.96,320.04,413.28,322.73,409.96,322.73z"/>
	<path class="st0" d="M356.75,416.12h-93.4c-3.31,0-6-2.69-6-6s2.69-6,6-6h93.4c3.31,0,6,2.69,6,6S360.06,416.12,356.75,416.12z"/>
</g>
</svg>
