<?xml version="1.0" encoding="utf-8"?>
<!-- Generator: Adobe Illustrator 24.1.2, SVG Export Plug-In . SVG Version: 6.00 Build 0)  -->
<svg version="1.1" id="Warstwa_1" xmlns="http://www.w3.org/2000/svg" xmlns:xlink="http://www.w3.org/1999/xlink" x="0px" y="0px"
	 viewBox="0 0 430 430" style="enable-background:new 0 0 430 430;" xml:space="preserve">
<style type="text/css">
	.st0{fill:#08a88a;}
	.st1{fill:#121331;}
	.st2{fill:#08a88a;}
	.st3{fill:#08A385;}
	.st4{fill:none;}
	.st5{fill:#08A284;}
	.st6{fill:#08A688;}
</style>
<g>
	<path class="st1" d="M360.81,309.6c0-0.09-0.01-0.18-0.01-0.27c-0.01-0.15-0.03-0.29-0.05-0.43c-0.01-0.08-0.02-0.16-0.04-0.24
		c-0.03-0.18-0.07-0.36-0.12-0.53c-0.01-0.04-0.02-0.09-0.03-0.13c-0.07-0.22-0.15-0.43-0.24-0.64c-0.01-0.01-0.01-0.03-0.02-0.04
		l-41.94-94.64c-0.96-2.17-3.11-3.57-5.49-3.57h-37.42c-3.31,0-6,2.69-6,6s2.69,6,6,6h33.52l36.62,82.64H84.41l36.62-82.64h33.52
		c3.31,0,6-2.69,6-6s-2.69-6-6-6h-37.42c-2.37,0-4.52,1.4-5.49,3.57l-40.66,91.75c-1.11,1.09-1.8,2.6-1.8,4.28v59.15
		c0,3.31,2.69,6,6,6s6-2.69,6-6v-52.11h267.63v53.16c0,3.31,2.69,6,6,6s6-2.69,6-6v-59.15C360.81,309.69,360.81,309.65,360.81,309.6
		z"/>
	<path class="st0" d="M275.46,271.79c-3.31,0-6-2.69-6-6V191.3c0-3.31,2.69-6,6-6s6,2.69,6,6v74.49
		C281.46,269.1,278.77,271.79,275.46,271.79z"/>
	<g>
		<path class="st1" d="M263.2,134.37l-32.25,11.39c-3.12,1.1-4.76,4.53-3.66,7.66c0.87,2.46,3.19,4,5.66,4c0.66,0,1.34-0.11,2-0.34
			l32.25-11.39c3.12-1.1,4.76-4.53,3.66-7.66C269.75,134.9,266.32,133.27,263.2,134.37z"/>
		<path class="st1" d="M338.98,88.58l-45.53-32.36c-2.69-1.91-6.41-1.3-8.34,1.38l-15.45,21.36c-21.01,3.45-48.31,26.42-49.52,27.44
			c-0.11,0.1-0.22,0.2-0.32,0.3c-0.02,0.01-0.03,0.02-0.05,0.04l-18.87,18.93c-0.47,0.47-0.86,1.02-1.15,1.63l-10.4,21.52
			c-1.44,2.98-0.19,6.57,2.79,8.01c0.84,0.41,1.73,0.6,2.61,0.6c2.23,0,4.37-1.25,5.41-3.39l9.96-20.61l17.97-18.03
			c7.93-6.68,30.97-23.72,45.36-24.82c1.76-0.13,3.37-1.04,4.4-2.47l13.49-18.66l36.03,25.61l-13.75,21.6
			c-1.78,2.8-0.96,6.5,1.84,8.28c1,0.64,2.11,0.94,3.22,0.94c1.98,0,3.92-0.98,5.07-2.78l16.81-26.41
			C342.28,93.99,341.58,90.43,338.98,88.58z"/>
	</g>
	<path class="st0" d="M154.54,271.79c-3.31,0-6-2.69-6-6V151.42c0-3.31,2.69-6,6-6h120.91c3.31,0,6,2.69,6,6v4.56c0,3.31-2.69,6-6,6
		c-2.82,0-5.18-1.94-5.83-4.56H160.54v108.37C160.54,269.1,157.86,271.79,154.54,271.79z"/>
	<path class="st1" d="M324.81,119.45c-0.67-2.56-1.59-5-2.73-7.24c-1.5-2.95-5.11-4.13-8.07-2.63c-2.95,1.5-4.13,5.11-2.63,8.07
		c0.75,1.48,1.37,3.11,1.83,4.87c2.47,9.31-0.19,18.83-0.21,18.91c-0.02,0.08-0.04,0.16-0.06,0.24
		c-3.2,12.93-11.02,24.2-22.02,31.74l-25.43,17.45c-0.46,0.32-1.09,0.21-1.42-0.22c-1.48-1.94-2.2-3.9-2.2-5.98
		c0-3.39,1.92-7.38,5.56-11.53l18.11-19.03c0.14-0.15,0.25-0.32,0.37-0.48c0.12-0.15,0.25-0.3,0.35-0.46
		c0.13-0.2,0.22-0.42,0.32-0.63c0.07-0.14,0.15-0.27,0.21-0.42c0.1-0.25,0.15-0.51,0.21-0.76c0.03-0.12,0.07-0.23,0.09-0.35
		c0.05-0.29,0.06-0.58,0.07-0.87c0-0.09,0.02-0.18,0.02-0.28c-0.01-0.31-0.05-0.62-0.1-0.93c-0.01-0.07-0.01-0.14-0.03-0.21
		c-0.07-0.32-0.17-0.63-0.29-0.94c-0.02-0.05-0.03-0.11-0.05-0.16c-0.13-0.32-0.31-0.62-0.5-0.91c-0.03-0.04-0.04-0.08-0.07-0.12
		c-0.2-0.29-0.43-0.56-0.69-0.82c-0.03-0.03-0.05-0.07-0.09-0.11c0,0-0.01-0.01-0.01-0.01c-0.01-0.01-0.02-0.02-0.03-0.04
		c-0.01-0.01-0.03-0.02-0.04-0.03c-10.28-9.94-17.92-11.32-19.35-11.5c-3.29-0.4-6.28,1.93-6.69,5.22c-0.4,3.29,1.93,6.28,5.22,6.69
		c0.04,0,3.17,0.71,8.04,4.4l-13.85,14.56c-0.05,0.06-0.1,0.11-0.16,0.17c-5.72,6.5-8.63,13.08-8.63,19.55
		c0,4.74,1.56,9.19,4.66,13.26c2.57,3.35,6.45,5.12,10.38,5.12c2.55,0,5.13-0.75,7.38-2.3l25.42-17.45
		c13.39-9.19,22.93-22.92,26.85-38.66C324.97,143.14,328,131.48,324.81,119.45z"/>
	<path class="st1" d="M287.69,271.78H142.31c-3.31,0-6-2.69-6-6s2.69-6,6-6h145.39c3.31,0,6,2.69,6,6S291.01,271.78,287.69,271.78z"
		/>
</g>
</svg>
