<?xml version="1.0" encoding="utf-8"?>
<!-- Generator: Adobe Illustrator 24.1.2, SVG Export Plug-In . SVG Version: 6.00 Build 0)  -->
<svg version="1.1" id="Warstwa_1" xmlns="http://www.w3.org/2000/svg" xmlns:xlink="http://www.w3.org/1999/xlink" x="0px" y="0px"
	 viewBox="0 0 430 430" style="enable-background:new 0 0 430 430;" xml:space="preserve">
<style type="text/css">
	.st0{fill:#08a88a;}
	.st1{fill:#121331;}
	.st2{fill:#08a88a;}
	.st3{fill:#08A385;}
	.st4{fill:none;}
	.st5{fill:#08A284;}
	.st6{fill:#08A688;}
</style>
<g>
	<path class="st0" d="M148.28,290.06H81.57c-3.31,0-6-2.69-6-6s2.69-6,6-6h66.72c3.31,0,6,2.69,6,6S151.6,290.06,148.28,290.06z"/>
	<path class="st0" d="M148.28,317.07H81.57c-3.31,0-6-2.69-6-6s2.69-6,6-6h66.72c3.31,0,6,2.69,6,6S151.6,317.07,148.28,317.07z"/>
	<path class="st0" d="M348.43,317.07h-66.72c-3.31,0-6-2.69-6-6s2.69-6,6-6h66.72c3.31,0,6,2.69,6,6S351.75,317.07,348.43,317.07z"
		/>
	<path class="st0" d="M348.43,290.06h-66.72c-3.31,0-6-2.69-6-6s2.69-6,6-6h66.72c3.31,0,6,2.69,6,6S351.75,290.06,348.43,290.06z"
		/>
	<g>
		<path class="st1" d="M348.43,142.28c-3.31,0-6,2.69-6,6v234.18h-54.72V241.69v-93.4c0-3.31-2.69-6-6-6s-6,2.69-6,6v20.69H154.28
			v-20.69c0-3.31-2.69-6-6-6s-6,2.69-6,6v93.4v140.78H87.57V148.28c0-3.31-2.69-6-6-6s-6,2.69-6,6v240.18c0,3.31,2.69,6,6,6h66.72
			h34.09h65.25h34.09h66.72c3.31,0,6-2.69,6-6V148.28C354.43,144.97,351.75,142.28,348.43,142.28z M275.72,180.97v54.72H154.28
			v-54.72H275.72z M154.28,247.69h121.43v134.78h-22.09v-40.69c0-27.59-13.07-54.08-34.98-70.87c-0.02-0.02-0.05-0.03-0.08-0.05
			c-0.24-0.18-0.49-0.34-0.75-0.48c-0.02-0.01-0.04-0.02-0.07-0.03c-0.25-0.13-0.51-0.24-0.78-0.33c-0.04-0.01-0.07-0.03-0.11-0.04
			c-0.27-0.09-0.54-0.15-0.83-0.2c-0.06-0.01-0.12-0.02-0.18-0.03c-0.28-0.04-0.56-0.07-0.84-0.07c-0.01,0-0.02,0-0.03,0
			c-0.29,0-0.57,0.03-0.84,0.07c-0.06,0.01-0.12,0.02-0.18,0.03c-0.28,0.05-0.56,0.12-0.83,0.2c-0.04,0.01-0.07,0.03-0.11,0.04
			c-0.27,0.09-0.53,0.2-0.78,0.33c-0.02,0.01-0.04,0.02-0.07,0.03c-0.26,0.14-0.51,0.31-0.75,0.48c-0.02,0.02-0.05,0.03-0.08,0.05
			c-21.9,16.78-34.98,43.28-34.98,70.87v40.69h-22.09V247.69z M188.38,341.77c0-19.5,7.54-38.36,20.63-52.53v93.23h-20.63V341.77z
			 M221,382.46v-93.23c13.08,14.17,20.63,33.04,20.63,52.53v40.69H221z"/>
		<path class="st1" d="M103.38,262.24c3.31,0,6-2.69,6-6v-80.36c0-3.31-2.69-6-6-6s-6,2.69-6,6v80.36
			C97.38,259.55,100.06,262.24,103.38,262.24z"/>
		<path class="st1" d="M126.47,262.24c3.31,0,6-2.69,6-6v-80.36c0-3.31-2.69-6-6-6s-6,2.69-6,6v80.36
			C120.47,259.55,123.16,262.24,126.47,262.24z"/>
		<path class="st1" d="M303.53,262.24c3.31,0,6-2.69,6-6v-80.36c0-3.31-2.69-6-6-6s-6,2.69-6,6v80.36
			C297.53,259.55,300.21,262.24,303.53,262.24z"/>
		<path class="st1" d="M326.62,262.24c3.31,0,6-2.69,6-6v-80.36c0-3.31-2.69-6-6-6s-6,2.69-6,6v80.36
			C320.62,259.55,323.31,262.24,326.62,262.24z"/>
	</g>
	<path class="st0" d="M215,229.99c-11.68,0-21.18-9.5-21.18-21.18s9.5-21.18,21.18-21.18s21.18,9.5,21.18,21.18
		S226.68,229.99,215,229.99z M215,199.64c-5.06,0-9.18,4.12-9.18,9.18s4.12,9.18,9.18,9.18s9.18-4.12,9.18-9.18
		S220.06,199.64,215,199.64z"/>
	<path class="st0" d="M148.28,154.28H81.57c-1.91,0-3.7-0.91-4.84-2.45c-1.13-1.54-1.46-3.52-0.89-5.35L109.2,39.98
		c0.78-2.5,3.1-4.21,5.73-4.21s4.94,1.7,5.73,4.21l33.36,106.51c0.57,1.82,0.24,3.81-0.89,5.35
		C151.99,153.37,150.19,154.28,148.28,154.28z M89.73,142.28h50.38l-25.19-80.44L89.73,142.28z"/>
	<path class="st0" d="M348.43,154.05h-66.72c-1.91,0-3.7-0.91-4.84-2.45c-1.13-1.54-1.46-3.52-0.89-5.35l33.36-106.51
		c0.78-2.5,3.1-4.21,5.73-4.21s4.94,1.7,5.73,4.21l33.36,106.51c0.57,1.82,0.24,3.81-0.89,5.35
		C352.14,153.14,350.34,154.05,348.43,154.05z M289.88,142.05h50.38l-25.19-80.44L289.88,142.05z"/>
</g>
</svg>
