<?xml version="1.0" encoding="utf-8"?>
<!-- Generator: Adobe Illustrator 24.1.2, SVG Export Plug-In . SVG Version: 6.00 Build 0)  -->
<svg version="1.1" id="Warstwa_1" xmlns="http://www.w3.org/2000/svg" xmlns:xlink="http://www.w3.org/1999/xlink" x="0px" y="0px"
	 viewBox="0 0 430 430" style="enable-background:new 0 0 430 430;" xml:space="preserve">
<style type="text/css">
	.st0{fill:#08a88a;}
	.st1{fill:#121331;}
	.st2{fill:#08a88a;}
	.st3{fill:#08A385;}
	.st4{fill:none;}
	.st5{fill:#08A284;}
	.st6{fill:#08A688;}
</style>
<g>
	<path class="st0" d="M355.2,62.22c-27.08,0-49.12,22.03-49.12,49.12v47.59c-8.07-3.05-16.7-4.64-25.39-4.64
		c-14.97,0-29.36,4.61-41.39,13.14c-6.7-18.4-24.45-31.33-44.71-31.33c-22.73,0-41.79,16.03-46.47,37.38
		c-5.84-3.2-12.43-4.9-19.27-4.9c-3.81,0-7.53,0.52-11.12,1.55c-10.11-21.02-31.62-34.78-55.28-34.78
		c-12.22,0-24.01,3.58-34.12,10.37c-2.75,1.85-3.48,5.57-1.64,8.33c1.85,2.75,5.58,3.49,8.33,1.64c8.12-5.45,17.6-8.33,27.43-8.33
		c20.66,0,39.28,13.04,46.35,32.45c0.58,1.58,1.79,2.85,3.34,3.49c1.55,0.64,3.31,0.61,4.83-0.1c3.72-1.73,7.72-2.61,11.88-2.61
		c7.53,0,14.61,2.93,19.94,8.26c1.15,1.15,2.68,1.76,4.24,1.76c0.81,0,1.62-0.16,2.39-0.5c2.26-0.98,3.69-3.25,3.6-5.72
		c-0.01-0.24-0.01-0.48-0.01-0.72c0-19.61,15.95-35.56,35.56-35.56c17.72,0,32.87,13.22,35.24,30.74c0.3,2.23,1.82,4.1,3.94,4.85
		c2.12,0.75,4.48,0.26,6.12-1.28c11.09-10.4,25.58-16.13,40.81-16.13c8.79,0,17.5,1.95,25.39,5.65v82.35
		c0,27.08,22.03,49.12,49.12,49.12c27.08,0,49.12-22.03,49.12-49.12V111.34C404.31,84.26,382.28,62.22,355.2,62.22z M392.31,254.29
		c0,20.47-16.65,37.12-37.12,37.12c-20.47,0-37.12-16.65-37.12-37.12v-85.97c0-0.04,0-0.07,0-0.11v-56.87
		c0-20.47,16.65-37.12,37.12-37.12h0c20.47,0,37.12,16.65,37.12,37.12V254.29z"/>
	<path class="st1" d="M366.84,355.78h-5.76v-95.33c0-1.59-0.63-3.12-1.76-4.24l-17.36-17.36c-2.34-2.34-6.14-2.34-8.49,0
		c-2.34,2.34-2.34,6.14,0,8.49l15.61,15.61v92.84h-8.15c-3.31,0-6,2.69-6,6s2.69,6,6,6h25.91c3.31,0,6-2.69,6-6
		S370.15,355.78,366.84,355.78z"/>
	<path class="st1" d="M275.54,259.99v-43.85c0-3.31-2.69-6-6-6H65.44c-3.31,0-6,2.69-6,6v43.85c-12.11,2.74-21.19,13.58-21.19,26.51
		v40.08v0.05v34.46c0,3.31,2.69,6,6,6s6-2.69,6-6v-28.51h234.47v28.51c0,3.31,2.69,6,6,6s6-2.69,6-6v-34.46v-0.05V286.5
		C296.73,273.57,287.65,262.73,275.54,259.99z M284.73,286.5v19.91l-9.19-14.08v-19.78C280.94,274.88,284.73,280.26,284.73,286.5z
		 M71.44,288.11l0-16.8h192.1v16.8H71.44z M71.44,222.14h192.09v37.18H71.44V222.14z M59.44,272.55v19.78l-9.19,14.08V286.5
		C50.25,280.26,54.04,274.88,59.44,272.55z M55.33,320.59l13.36-20.48h197.6l13.36,20.48H55.33z"/>
</g>
</svg>
