<?xml version="1.0" encoding="utf-8"?>
<!-- Generator: Adobe Illustrator 24.1.2, SVG Export Plug-In . SVG Version: 6.00 Build 0)  -->
<svg version="1.1" id="Warstwa_1" xmlns="http://www.w3.org/2000/svg" xmlns:xlink="http://www.w3.org/1999/xlink" x="0px" y="0px"
	 viewBox="0 0 430 430" style="enable-background:new 0 0 430 430;" xml:space="preserve">
<style type="text/css">
	.st0{fill:#08a88a;}
	.st1{fill:#121331;}
	.st2{fill:#08a88a;}
	.st3{fill:#08A385;}
	.st4{fill:none;}
	.st5{fill:#08A284;}
	.st6{fill:#08A688;}
</style>
<g>
	<path class="st0" d="M215,83.57c-3.31,0-6-2.69-6-6V48.21c0-3.31,2.69-6,6-6s6,2.69,6,6v29.36C221,80.88,218.31,83.57,215,83.57z"
		/>
	<path class="st0" d="M252.26,387.79c-3.31,0-6-2.69-6-6v-30.54h-62.53v30.54c0,3.31-2.69,6-6,6s-6-2.69-6-6v-36.54
		c0-3.31,2.69-6,6-6h74.53c3.31,0,6,2.69,6,6v36.54C258.26,385.1,255.58,387.79,252.26,387.79z"/>
	<path class="st1" d="M363.13,314.23c-47.69-11.03-48.71-42.25-48.72-43.53c0-3.31-2.69-6-6-6h-7.34v-36.53h47.37
		c3.03,0,5.58-2.25,5.95-5.25s-1.54-5.81-4.47-6.56c-43.1-10.97-43.98-42.27-44-43.56c0-3.31-2.69-6-6-6h-12.2v-36.52h34.03
		c3.12,0,5.72-2.4,5.98-5.51c0.26-3.11-1.92-5.9-5-6.41c-63.86-10.54-103.09-47.33-103.58-47.79c-2.32-2.22-5.98-2.22-8.3,0
		c-0.39,0.37-39.43,37.2-103.57,47.79c-3.08,0.51-5.26,3.3-5,6.41c0.25,3.11,2.86,5.51,5.98,5.51h34.03v36.52h-12.2
		c-3.31,0-6,2.69-6,6c0,0.32-0.5,32.49-44,43.56c-2.93,0.75-4.85,3.56-4.47,6.56s2.93,5.25,5.95,5.25h47.37v36.53h-7.34
		c-3.28,0-5.95,2.68-6,5.96c-0.02,1.32-1.04,32.54-48.72,43.57c-2.97,0.69-4.96,3.5-4.61,6.53c0.35,3.03,2.91,5.32,5.96,5.32h34.03
		v55.72c0,3.31,2.69,6,6,6h213.49c3.31,0,6-2.69,6-6v-55.72h34.03c3.05,0,5.62-2.29,5.96-5.32
		C368.08,317.72,366.1,314.91,363.13,314.23z M154.28,130.27h121.43v36.52H154.28V130.27z M215,82.9
		c8.55,7.18,29.88,23.3,61.63,35.38H153.37C185.12,106.19,206.45,90.08,215,82.9z M110.22,216.17c9.62-6.54,15.49-14.06,19.04-20.38
		c3.7-6.59,5.39-12.72,6.17-17h159.14c0.78,4.28,2.48,10.41,6.17,17c3.55,6.32,9.42,13.84,19.04,20.38H110.22z M289.06,228.17v36.53
		H140.94v-36.53H289.06z M315.75,375.79H114.25v-49.72h201.49V375.79z M99.4,314.07c10.4-6.48,16.76-13.91,20.63-20.16
		c4.12-6.67,5.99-12.89,6.85-17.21h176.24c0.86,4.32,2.73,10.55,6.85,17.21c3.86,6.26,10.23,13.68,20.63,20.16H99.4z"/>
	<g>
		<path class="st0" d="M184.05,154.53c-3.31,0-6.03-2.69-6.03-6s2.66-6,5.98-6h0.05c3.31,0,6,2.69,6,6S187.36,154.53,184.05,154.53z
			"/>
		<path class="st0" d="M215.05,154.53h-0.1c-3.31,0-6-2.69-6-6s2.69-6,6-6h0.1c3.31,0,6,2.69,6,6S218.36,154.53,215.05,154.53z"/>
		<path class="st0" d="M246,154.53c-3.31,0-6.02-2.69-6.02-6s2.66-6,5.97-6H246c3.31,0,6,2.69,6,6S249.31,154.53,246,154.53z"/>
	</g>
	<g>
		<path class="st0" d="M174.3,252.43c-3.31,0-6.03-2.69-6.03-6s2.66-6,5.98-6h0.05c3.31,0,6,2.69,6,6S177.61,252.43,174.3,252.43z"
			/>
		<path class="st0" d="M228.63,252.43c-3.31,0-6.05-2.69-6.05-6s2.64-6,5.96-6h0.09c3.31,0,6,2.69,6,6S231.94,252.43,228.63,252.43z
			 M201.46,252.43c-3.31,0-6.04-2.69-6.04-6s2.64-6,5.96-6h0.09c3.31,0,6,2.69,6,6S204.78,252.43,201.46,252.43z"/>
		<path class="st0" d="M255.75,252.43c-3.31,0-6.02-2.69-6.02-6s2.66-6,5.97-6h0.05c3.31,0,6,2.69,6,6S259.06,252.43,255.75,252.43z
			"/>
	</g>
</g>
</svg>
