<?xml version="1.0" encoding="utf-8"?>
<!-- Generator: Adobe Illustrator 24.1.2, SVG Export Plug-In . SVG Version: 6.00 Build 0)  -->
<svg version="1.1" id="Warstwa_1" xmlns="http://www.w3.org/2000/svg" xmlns:xlink="http://www.w3.org/1999/xlink" x="0px" y="0px"
	 viewBox="0 0 430 430" style="enable-background:new 0 0 430 430;" xml:space="preserve">
<style type="text/css">
	.st0{fill:#08a88a;}
	.st1{fill:#121331;}
	.st2{fill:#08a88a;}
	.st3{fill:#08A385;}
	.st4{fill:none;}
	.st5{fill:#08A284;}
	.st6{fill:#08A688;}
</style>
<g>
	<path class="st1" d="M236.18,62.54H221v-6.49h5.42c3.31,0,6-2.69,6-6s-2.69-6-6-6H221v-6.74c0-3.31-2.69-6-6-6s-6,2.69-6,6v6.74
		h-5.42c-3.31,0-6,2.69-6,6s2.69,6,6,6H209v6.49h-15.18c-3.31,0-6,2.69-6,6s2.69,6,6,6H209v20.78c0,3.31,2.69,6,6,6s6-2.69,6-6
		V74.54h15.18c3.31,0,6-2.69,6-6S239.49,62.54,236.18,62.54z"/>
	<path class="st1" d="M177.48,303.57H96.4c-3.31,0-6-2.69-6-6s2.69-6,6-6h81.08c3.31,0,6,2.69,6,6S180.79,303.57,177.48,303.57z"/>
	<path class="st1" d="M333.6,303.44h-80.99c-3.31,0-6-2.69-6-6s2.69-6,6-6h80.99c3.31,0,6,2.69,6,6S336.91,303.44,333.6,303.44z"/>
	<path class="st1" d="M191.15,274.78H173c-3.31,0-6-2.69-6-6s2.69-6,6-6h18.16c3.31,0,6,2.69,6,6S194.47,274.78,191.15,274.78z"/>
	<path class="st1" d="M257,274.78h-18.2c-3.31,0-6-2.69-6-6s2.69-6,6-6H257c3.31,0,6,2.69,6,6S260.31,274.78,257,274.78z"/>
	<g>
		<path class="st0" d="M96.4,398.69c-3.31,0-6-2.69-6-6v-123.9c0-3.31,2.69-6,6-6s6,2.69,6,6v123.9
			C102.4,396,99.71,398.69,96.4,398.69z"/>
		<path class="st0" d="M333.6,398.69c-3.31,0-6-2.69-6-6v-123.9c0-3.31,2.69-6,6-6s6,2.69,6,6v123.9
			C339.6,396,336.92,398.69,333.6,398.69z"/>
	</g>
	<path class="st1" d="M112.35,251.7c-3.31,0-6-2.69-6-6v-33.38c0-3.31,2.69-6,6-6s6,2.69,6,6v33.38
		C118.35,249.01,115.66,251.7,112.35,251.7z"/>
	<g>
		<path class="st1" d="M200,228c-3.31,0-6-2.69-6-6v-23.46c0-3.31,2.69-6,6-6s6,2.69,6,6V222C206,225.32,203.31,228,200,228z"/>
		<path class="st1" d="M230,228c-3.31,0-6-2.69-6-6v-23.46c0-3.31,2.69-6,6-6s6,2.69,6,6V222C236,225.32,233.31,228,230,228z"/>
	</g>
	<path class="st1" d="M317.27,251.7c-3.31,0-6-2.69-6-6v-33.38c0-3.31,2.69-6,6-6s6,2.69,6,6v33.38
		C323.27,249.01,320.58,251.7,317.27,251.7z"/>
	<path class="st1" d="M375.12,262.79h-23.44v-76.14c0-3.31-2.69-6-6-6s-6,2.69-6,6v76.14h-44.83v-76.14c0-3.31-2.69-6-6-6
		s-6,2.69-6,6v76.14H263v-88.88c0-3.31-2.69-6-6-6s-6,2.69-6,6v88.88h-9.12c-3.83-5.22-8.13-10.11-12.88-14.6l-9.93-9.38
		c-2.32-2.19-5.94-2.19-8.25,0l-9.92,9.4c-4.73,4.49-9.02,9.37-12.84,14.58H179v-88.88c0-3.31-2.69-6-6-6s-6,2.69-6,6v88.88h-20.24
		v-76.14c0-3.31-2.69-6-6-6s-6,2.69-6,6v76.14H89.94v-76.14c0-3.31-2.69-6-6-6s-6,2.69-6,6v76.14H54.88c-3.31,0-6,2.69-6,6v123.9
		c0,3.31,2.69,6,6,6h320.23c3.31,0,6-2.69,6-6v-123.9C381.12,265.48,378.43,262.79,375.12,262.79z M209.16,256.92l5.79-5.49
		l5.8,5.48c14.19,13.41,23.9,30.86,28.02,49.72h-33.7c-0.03,0-0.05,0-0.08,0s-0.05,0-0.08,0h-33.71
		C185.31,287.78,195,270.33,209.16,256.92z M179,327.04c0-2.81,0.13-5.62,0.38-8.41H209v68.06h-30V327.04z M221,318.63h29.61
		c0.25,2.81,0.39,5.64,0.39,8.48v59.58h-30V318.63z M60.88,274.79h119.56c-6.21,11.33-10.39,23.72-12.28,36.56
		c-0.06,0.27-0.1,0.55-0.12,0.83c-0.68,4.9-1.04,9.87-1.04,14.86v59.65H60.88V274.79z M369.12,386.69H263v-59.58
		c0-5.05-0.37-10.08-1.07-15.04c-0.02-0.19-0.04-0.37-0.08-0.55c-1.89-12.9-6.09-25.36-12.34-36.73h119.6V386.69z"/>
	<path class="st0" d="M253.85,180.28h-77.69c-10.81,0-19.61-8.79-19.61-19.61v-0.25c0-9.18,5.12-17.4,13.37-21.44
		c7.25-3.55,13.99-8.96,20.04-16.06c18.35-21.53,19.01-27.33,19.03-27.64c0.02-3.3,2.7-5.96,6-5.96c0.01,0,0.02,0,0.03,0
		c3.31,0.02,5.99,2.71,5.97,6.03c0.03,0.55,0.84,6.19,19.04,27.57c6.05,7.11,12.79,12.51,20.04,16.07
		c8.25,4.04,13.37,12.26,13.37,21.44v0.25C273.45,171.48,264.66,180.28,253.85,180.28z M215.01,110
		c-3.28,5.09-8.29,11.76-15.91,20.71c-7.13,8.36-15.16,14.77-23.89,19.05c-4.11,2.01-6.66,6.1-6.66,10.67v0.25
		c0,4.19,3.41,7.61,7.61,7.61h77.69c4.19,0,7.61-3.41,7.61-7.61v-0.25c0-4.57-2.55-8.65-6.65-10.67
		c-8.73-4.28-16.77-10.7-23.89-19.06C223.3,121.76,218.29,115.09,215.01,110z"/>
	<path class="st0" d="M344.11,192.78h-53.69c-8.49,0-15.4-6.91-15.4-15.4v-0.17c0-7.06,3.94-13.37,10.28-16.48
		c4.78-2.34,9.24-5.92,13.26-10.64c11.31-13.27,12.62-17.54,12.75-18.08c0.11-3.22,2.76-5.79,6-5.79c0.01,0,0.02,0,0.03,0
		c3.25,0.02,5.88,2.61,5.97,5.84c0.13,0.55,1.44,4.82,12.68,18.03c4.02,4.72,8.48,8.3,13.26,10.64c6.34,3.11,10.28,9.43,10.28,16.48
		v0.17C359.51,185.87,352.6,192.78,344.11,192.78z M317.28,145.68c-2.27,3.25-5.37,7.24-9.59,12.19
		c-5.09,5.97-10.85,10.55-17.11,13.63c-2.2,1.08-3.56,3.26-3.56,5.71v0.17c0,1.88,1.53,3.4,3.4,3.4h53.69c1.88,0,3.4-1.53,3.4-3.4
		v-0.17c0-2.44-1.37-4.63-3.56-5.71c-6.26-3.07-12.02-7.66-17.11-13.63C322.63,152.92,319.54,148.93,317.28,145.68z M323.3,132.24
		C323.3,132.24,323.3,132.24,323.3,132.24C323.3,132.24,323.3,132.24,323.3,132.24z M311.3,132.12c0,0.02,0,0.05,0,0.07
		C311.3,132.16,311.3,132.14,311.3,132.12z"/>
	<path class="st0" d="M139.2,192.78H85.5c-8.49,0-15.4-6.91-15.4-15.4v-0.17c0-7.06,3.94-13.37,10.28-16.48
		c4.78-2.34,9.24-5.92,13.26-10.64c11.31-13.27,12.62-17.54,12.75-18.08c0.11-3.22,2.76-5.79,6-5.79c0.01,0,0.02,0,0.03,0
		c3.25,0.01,5.89,2.61,5.97,5.84c0.13,0.55,1.44,4.83,12.68,18.03c4.02,4.72,8.48,8.3,13.26,10.64c6.34,3.11,10.28,9.43,10.28,16.48
		v0.17C154.6,185.87,147.69,192.78,139.2,192.78z M112.36,145.68c-2.27,3.25-5.37,7.24-9.59,12.19
		c-5.09,5.97-10.85,10.55-17.11,13.63c-2.2,1.08-3.56,3.26-3.56,5.71v0.17c0,1.88,1.53,3.4,3.4,3.4h53.69c1.88,0,3.4-1.53,3.4-3.4
		v-0.17c0-2.44-1.37-4.63-3.56-5.71c-6.26-3.07-12.02-7.66-17.11-13.63C117.72,152.92,114.63,148.93,112.36,145.68z M118.38,132.24
		C118.38,132.24,118.38,132.24,118.38,132.24C118.38,132.24,118.38,132.24,118.38,132.24z M106.38,132.12c0,0.02,0,0.04,0,0.07
		C106.38,132.16,106.38,132.14,106.38,132.12z M118.37,131.99L118.37,131.99L118.37,131.99z"/>
	<path class="st1" d="M227.39,103.84c-0.76,0-1.52-0.14-2.27-0.45l-24.78-10.12c-3.07-1.25-4.54-4.75-3.29-7.82
		c1.25-3.07,4.76-4.54,7.82-3.29l24.78,10.12c3.07,1.25,4.54,4.75,3.29,7.82C232,102.43,229.75,103.84,227.39,103.84z"/>
</g>
</svg>
