<?xml version="1.0" encoding="utf-8"?>
<!-- Generator: Adobe Illustrator 24.1.2, SVG Export Plug-In . SVG Version: 6.00 Build 0)  -->
<svg version="1.1" id="Warstwa_1" xmlns="http://www.w3.org/2000/svg" xmlns:xlink="http://www.w3.org/1999/xlink" x="0px" y="0px"
	 viewBox="0 0 430 430" style="enable-background:new 0 0 430 430;" xml:space="preserve">
<style type="text/css">
	.st0{fill:#08a88a;}
	.st1{fill:#121331;}
	.st2{fill:#08a88a;}
	.st3{fill:#08A385;}
	.st4{fill:none;}
	.st5{fill:#08A284;}
	.st6{fill:#08A688;}
</style>
<g>
	<path class="st0" d="M239,158.03c-3.31,0-6-2.69-6-6v-29.49h-36v29.49c0,3.31-2.69,6-6,6s-6-2.69-6-6v-35.49c0-3.31,2.69-6,6-6h48
		c3.31,0,6,2.69,6,6v35.49C245,155.34,242.31,158.03,239,158.03z"/>
	<path class="st0" d="M273.1,75.05h-8.54h-12.04V55.4c0-3.31-2.69-6-6-6h-63.05c-3.31,0-6,2.69-6,6v19.65h-12.04h-8.54
		c-3.31,0-6,2.69-6,6s2.69,6,6,6h2.54v64.98c0,3.31,2.69,6,6,6s6-2.69,6-6V87.05h87.12v64.98c0,3.31,2.69,6,6,6s6-2.69,6-6V87.05
		h2.54c3.31,0,6-2.69,6-6S276.41,75.05,273.1,75.05z M189.48,61.4h51.05v13.65h-51.05V61.4z"/>
	<path class="st1" d="M394.42,373.93l-5-44.47c-0.34-3.04-2.91-5.33-5.96-5.33h-14.42l-4.4-39.14c-0.34-3.04-2.91-5.33-5.96-5.33
		h-14.42l-4.4-39.15c-0.34-3.04-2.91-5.33-5.96-5.33h-14.41l-4.41-39.24c-0.34-3.04-2.91-5.33-5.96-5.33h-14.41l-4.41-39.25
		c-0.34-3.04-2.9-5.33-5.96-5.33h-45.06h-0.49h-47.56h-0.5h-45.07c-3.05,0-5.62,2.29-5.96,5.33l-4.41,39.25h-14.41
		c-3.05,0-5.62,2.29-5.96,5.33l-4.41,39.24H96.1c-3.06,0-5.62,2.29-5.96,5.33l-4.4,39.15H71.32c-3.05,0-5.62,2.29-5.96,5.33
		l-4.4,39.14H46.54c-3.05,0-5.62,2.29-5.96,5.33l-5,44.47c-0.19,1.7,0.35,3.4,1.49,4.67c1.14,1.27,2.77,2,4.47,2H156.7
		c0.01,0,0.03,0,0.04,0c0.01,0,0.02,0,0.04,0h116.44c0.01,0,0.02,0,0.04,0c0.01,0,0.03,0,0.04,0h115.16c1.71,0,3.33-0.73,4.47-2
		C394.07,377.32,394.61,375.62,394.42,373.93z M356.97,324.13h-85.4c-0.01-0.07-0.02-0.14-0.03-0.2l-3.71-24.13
		c-0.02-0.16-0.04-0.31-0.07-0.46c-0.01-0.06-0.02-0.11-0.03-0.16c0-0.03-0.01-0.05-0.02-0.08l-1.13-7.44h86.74L356.97,324.13z
		 M233.87,158.03l1.96,12.72h-41.65l1.96-12.72H233.87z M169.5,331.14h91l1.96,12.73h-94.92L169.5,331.14z M241.48,207.48
		l1.96,12.74h-56.87l1.96-12.74H241.48z M190.37,195.48l1.96-12.73h45.35l1.95,12.73H190.37z M245.29,232.22l1.95,12.73h-64.48
		l0.39-2.56l0.09-0.6l1.48-9.57H245.29z M180.91,256.95h68.18l1.96,12.73h-72.09L180.91,256.95z M252.9,281.68l0.71,4.59l0.09,0.6
		l1.15,7.54h-79.7l1.16-7.54l0.09-0.6l0.71-4.59H252.9z M173.3,306.41h83.4l1.96,12.73h-87.32L173.3,306.41z M164.65,362.62
		l1.04-6.75h98.62l0.84,5.47l1.12,7.26H163.73L164.65,362.62z M332.19,279.66h-67.46l-0.71-4.59c-0.02-0.21-0.05-0.41-0.09-0.6
		l-3.71-24.12c-0.02-0.23-0.06-0.44-0.1-0.66l-0.39-2.51l0,0h68.81L332.19,279.66z M307.42,235.18h-49.53l-1.48-9.57
		c-0.02-0.21-0.05-0.41-0.09-0.6l-3.45-22.4l0,0h50.89L307.42,235.18z M278.98,158.03l3.66,32.58h-31.61l-2.23-14.47
		c-0.02-0.21-0.05-0.41-0.09-0.61l-2.7-17.5H278.98z M151.02,158.03H184l-2.7,17.5c-0.04,0.2-0.07,0.4-0.09,0.61l-2.23,14.47h-31.62
		L151.02,158.03z M126.24,202.61h50.9l0,0l-3.45,22.4c-0.04,0.19-0.07,0.39-0.09,0.6l-1.48,9.57h-49.54L126.24,202.61z
		 M101.46,247.18h68.82l-0.39,2.56c-0.04,0.2-0.07,0.4-0.09,0.6l-3.72,24.13c-0.04,0.19-0.07,0.39-0.09,0.6l-0.71,4.59H97.81
		L101.46,247.18z M76.68,291.66h86.75l-4.96,32.27c-0.01,0.06-0.02,0.13-0.03,0.2H73.03L76.68,291.66z M51.9,336.13h14.38
		c0.02,0,0.03,0,0.05,0c0.01,0,0.02,0,0.03,0h90.23l0,0l-5,32.47H48.25L51.9,336.13z M278.42,368.6l-2.98-19.34
		c-0.02-0.21-0.05-0.41-0.09-0.61l-1.93-12.52l0,0h90.22c0.01,0,0.02,0,0.03,0c0.02,0,0.03,0,0.05,0h14.38l3.65,32.47H278.42z"/>
</g>
</svg>
