<?xml version="1.0" encoding="utf-8"?>
<!-- Generator: Adobe Illustrator 24.1.2, SVG Export Plug-In . SVG Version: 6.00 Build 0)  -->
<svg version="1.1" id="Warstwa_1" xmlns="http://www.w3.org/2000/svg" xmlns:xlink="http://www.w3.org/1999/xlink" x="0px" y="0px"
	 viewBox="0 0 430 430" style="enable-background:new 0 0 430 430;" xml:space="preserve">
<style type="text/css">
	.st0{fill:#08a88a;}
	.st1{fill:#121331;}
	.st2{fill:#08a88a;}
	.st3{fill:#08A385;}
	.st4{fill:none;}
	.st5{fill:#08A284;}
	.st6{fill:#08A688;}
</style>
<g>
	<g>
		<path class="st0" d="M194.03,150.36c-3.31,0-6-2.68-6-6v-0.01c0-0.9,0.2-1.79,0.59-2.6l20.97-43.51c1-2.08,3.1-3.4,5.41-3.4
			s4.4,1.32,5.41,3.4l20.97,43.51c1.44,2.99,0.18,6.57-2.8,8.01c-2.98,1.44-6.57,0.19-8.01-2.8L215,114.67l-15.5,32.16
			C198.56,148.91,196.46,150.36,194.03,150.36z"/>
		<path class="st0" d="M215,335.15c-2.3,0-4.4-1.32-5.41-3.4l-20.97-43.51c-1.44-2.99-0.18-6.57,2.8-8.01
			c2.98-1.44,6.57-0.19,8.01,2.8l15.56,32.3l15.5-32.16c0.94-2.08,3.04-3.53,5.47-3.53c3.31,0,6,2.68,6,6v0.01
			c0,0.9-0.2,1.79-0.59,2.6l-20.97,43.51C219.41,333.83,217.3,335.15,215,335.15z"/>
	</g>
	<g>
		<path class="st0" d="M144.45,242.26c-0.87,0-1.76-0.19-2.6-0.6L97.74,220.4c-2.08-1-3.39-3.1-3.39-5.4s1.32-4.4,3.39-5.4
			l44.11-21.26c2.98-1.44,6.57-0.19,8.01,2.8c1.44,2.98,0.18,6.57-2.8,8.01L114.16,215l32.9,15.86c2.98,1.44,4.24,5.02,2.8,8.01
			C148.82,241.01,146.68,242.26,144.45,242.26z"/>
		<path class="st0" d="M285.55,242.26c-2.23,0-4.38-1.25-5.41-3.4c-1.44-2.98-0.18-6.57,2.8-8.01l32.9-15.86l-32.9-15.85
			c-2.98-1.44-4.24-5.02-2.8-8.01c1.44-2.99,5.02-4.24,8.01-2.8l44.11,21.26c2.08,1,3.39,3.1,3.39,5.4s-1.32,4.4-3.39,5.4
			l-44.11,21.26C287.32,242.07,286.43,242.26,285.55,242.26z"/>
	</g>
	<path class="st1" d="M293.97,204.45c-0.68-5.18-1.87-10.2-3.5-15.01c-7.99-23.51-26.67-42.12-50.21-50.01
		c-4.81-1.61-9.81-2.77-14.98-3.44c-3.36-0.44-6.8-0.66-10.28-0.66s-6.92,0.22-10.28,0.66c-5.16,0.67-10.17,1.83-14.97,3.44
		c-23.55,7.89-42.23,26.5-50.22,50.02c-1.63,4.81-2.82,9.83-3.5,15.01c-0.46,3.45-0.7,6.97-0.7,10.54c0,3.57,0.24,7.09,0.7,10.53
		v0.01c0.68,5.18,1.87,10.19,3.5,15c7.98,23.51,26.67,42.13,50.22,50.02c4.8,1.61,9.81,2.77,14.97,3.44
		c3.36,0.44,6.8,0.66,10.28,0.66s6.92-0.22,10.28-0.66c5.17-0.67,10.17-1.83,14.98-3.44c23.55-7.89,42.22-26.51,50.21-50.01
		c1.63-4.81,2.82-9.83,3.5-15.01c0.46-3.45,0.7-6.97,0.7-10.54C294.67,211.42,294.43,207.9,293.97,204.45z M215,282.66
		c-37.31,0-67.67-30.35-67.67-67.66c0-37.32,30.36-67.67,67.67-67.67s67.67,30.35,67.67,67.67
		C282.67,252.31,252.31,282.66,215,282.66z"/>
	<path class="st0" d="M192.05,77.72c0.02,0.15,0.04,0.3,0.07,0.44v-2.28C192,76.47,191.98,77.09,192.05,77.72z M266.27,79.32
		l-0.07-0.03c-3.1-1.17-6.56,0.39-7.74,3.49c-1.17,3.1,0.39,6.56,3.49,7.74l0.11,0.04c0.69,0.26,1.41,0.38,2.11,0.38
		c2.43,0,4.71-1.48,5.62-3.89C270.95,83.95,269.38,80.49,266.27,79.32z M171.23,82.98c-1.14-3.11-4.58-4.72-7.69-3.58l-0.23,0.08
		c-3.09,1.21-4.63,4.69-3.42,7.78c0.92,2.37,3.18,3.83,5.57,3.83c0.73,0,1.46-0.14,2.18-0.42C170.75,89.54,172.36,86.1,171.23,82.98
		z M297.33,95.62l-0.22-0.15c-2.75-1.85-6.51-1.14-8.36,1.61c-1.85,2.75-1.14,6.46,1.61,8.31c1.05,0.75,2.27,1.11,3.48,1.11
		c1.87,0,3.71-0.87,4.89-2.51C300.65,101.3,300.03,97.55,297.33,95.62z M140.9,97.23c-1.88-2.72-5.62-3.41-8.35-1.53l-0.1,0.07
		c-2.72,1.9-3.36,5.62-1.47,8.34c1.17,1.67,3.03,2.55,4.93,2.55c1.2,0,2.41-0.35,3.46-1.08C142.09,103.7,142.78,99.96,140.9,97.23z
		 M323.4,118.68l-4.53,3.95l4.5-3.98c-2.2-2.48-5.99-2.71-8.47-0.52c-2.49,2.2-2.72,5.99-0.52,8.47l0.1,0.12
		c1.19,1.31,2.82,1.98,4.45,1.98c1.43,0,2.87-0.51,4.02-1.54C325.41,124.94,325.61,121.15,323.4,118.68z M114.88,118.39
		c-2.48-2.2-6.27-1.97-8.47,0.51l-0.07,0.08c-2.19,2.48-1.96,6.27,0.52,8.47c1.14,1.01,2.56,1.51,3.98,1.51
		c1.65,0,3.31-0.69,4.49-2.03l0.07-0.07C117.59,124.37,117.36,120.58,114.88,118.39z M343.33,147.44l-0.04-0.09
		c-1.54-2.93-5.17-4.06-8.1-2.52c-2.94,1.54-4.07,5.16-2.53,8.1l0.05,0.09c1.07,2.04,3.16,3.21,5.32,3.21
		c0.94,0,1.89-0.22,2.78-0.69C343.74,154,344.87,150.38,343.33,147.44z M94.61,145.15c-2.94-1.52-6.57-0.36-8.09,2.58
		c-0.01,0-0.03,0.05-0.04,0.06c-1.52,2.94-0.36,6.56,2.58,8.08c0.88,0.46,1.82,0.67,2.75,0.67c2.18,0,4.27-1.18,5.34-3.25l0.05-0.09
		C98.71,150.26,97.55,146.67,94.61,145.15z M355.76,180.06l-5.84,1.38l5.84-1.4c-0.77-3.22-4-5.21-7.23-4.44
		c-3.22,0.77-5.21,4.01-4.44,7.23l0.06,0.24c0.71,2.7,3.15,4.5,5.82,4.5c0.5,0,1.01-0.07,1.52-0.2
		C354.69,186.52,356.61,183.26,355.76,180.06z M81.53,175.99c-3.2-0.85-6.49,1.06-7.34,4.26l-0.06,0.24
		c-0.77,3.23,1.22,6.49,4.44,7.25c0.47,0.12,0.94,0.17,1.41,0.17c2.71,0,5.16-1.83,5.81-4.59
		C86.64,180.12,84.73,176.84,81.53,175.99z M354,208.69c-3.31,0-6,2.68-6,6v0.41c0,3.31,2.69,6,6,6s6-2.69,6-6v-0.41
		C360,211.37,357.31,208.69,354,208.69z M76,209.05c-3.31,0-6,2.68-6,6v0.1c0,3.31,2.69,6,6,6s6-2.69,6-6v-0.1
		C82,211.73,79.31,209.05,76,209.05z M351.4,242.4c-3.23-0.78-6.46,1.2-7.23,4.42c-0.85,3.2,1.06,6.48,4.27,7.33
		c0.51,0.14,1.03,0.2,1.54,0.2c2.65,0,5.08-1.77,5.79-4.46l0.06-0.24C356.6,246.42,354.62,243.17,351.4,242.4z M85.88,247.01
		l-0.06-0.24c-0.85-3.2-4.13-5.14-7.35-4.29c-3.2,0.84-5.12,4.1-4.27,7.3l5.84-1.37l-5.83,1.39c0.65,2.75,3.11,4.61,5.83,4.61
		c0.46,0,0.93-0.06,1.4-0.17C84.66,253.47,86.65,250.23,85.88,247.01z M340.9,274.27c-2.93-1.53-6.56-0.4-8.1,2.53l-0.06,0.13
		c-1.52,2.94-0.37,6.56,2.58,8.08c0.88,0.45,1.82,0.67,2.74,0.67c2.18,0,4.27-1.19,5.34-3.25l0.03-0.06
		C344.97,279.44,343.84,275.81,340.9,274.27z M97.27,276.93l-0.05-0.09c-1.54-2.94-5.17-4.07-8.1-2.53s-4.06,5.17-2.53,8.1
		l0.05,0.09c1.07,2.05,3.16,3.22,5.32,3.22c0.94,0,1.89-0.22,2.78-0.69C97.68,283.49,98.81,279.86,97.27,276.93z M323.04,302.66
		c-2.48-2.2-6.28-1.97-8.47,0.52l-0.07,0.07c-2.19,2.48-1.96,6.28,0.52,8.47c1.14,1.01,2.56,1.51,3.97,1.51
		c1.66,0,3.31-0.69,4.5-2.03l0.07-0.07C325.75,308.64,325.52,304.85,323.04,302.66z M115.52,303.28l-0.11-0.12
		c-2.21-2.46-6-2.65-8.46-0.44s-2.66,6.01-0.45,8.47l4.53-3.94l-4.5,3.98c1.19,1.34,2.84,2.02,4.5,2.02c1.41,0,2.83-0.5,3.97-1.51
		C117.48,309.55,117.72,305.76,115.52,303.28z M298.89,325.97c-1.89-2.72-5.66-3.36-8.38-1.47c-2.73,1.88-3.41,5.62-1.53,8.34
		c1.16,1.69,3.03,2.6,4.94,2.6c1.18,0,2.36-0.35,3.4-1.06l0.11-0.08C300.15,332.41,300.79,328.69,298.89,325.97z M139.52,324.52
		c-2.7-1.93-6.44-1.3-8.37,1.39c-1.93,2.7-1.3,6.45,1.39,8.37l0.23,0.16c1.03,0.69,2.2,1.03,3.37,1.03c1.93,0,3.83-0.93,4.98-2.64
		C142.97,330.08,142.27,326.37,139.52,324.52z M269.97,342.79c-1.2-3.09-4.67-4.62-7.75-3.42c-3.12,1.14-4.72,4.58-3.59,7.69
		c0.89,2.44,3.19,3.95,5.64,3.95c0.68,0,1.37-0.11,2.05-0.36l0.23-0.09C269.63,349.36,271.18,345.87,269.97,342.79z M167.91,339.42
		l-0.11-0.04c-3.1-1.17-6.56,0.41-7.73,3.51c-1.16,3.1,0.41,6.56,3.51,7.72l0.08,0.03c0.7,0.27,1.42,0.39,2.13,0.39
		c2.42,0,4.7-1.47,5.61-3.87C172.57,344.06,171.01,340.6,167.91,339.42z"/>
	<path class="st0" d="M215,162.96c-28.69,0-52.03,23.34-52.03,52.04c0,28.69,23.34,52.03,52.03,52.03s52.04-23.34,52.04-52.03
		C267.04,186.3,243.69,162.96,215,162.96z M215,255.03c-22.07,0-40.03-17.96-40.03-40.03c0-22.08,17.96-40.04,40.03-40.04
		c22.08,0,40.04,17.96,40.04,40.04C255.04,237.07,237.08,255.03,215,255.03z"/>
	<g>
		<path class="st1" d="M284,152c-1.54,0-3.07-0.59-4.24-1.76c-2.34-2.34-2.34-6.14,0-8.49l11.06-11.06c2.34-2.34,6.14-2.34,8.48,0
			c2.34,2.34,2.34,6.14,0,8.49l-11.06,11.06C287.07,151.41,285.54,152,284,152z"/>
		<path class="st1" d="M146,152c-1.54,0-3.07-0.59-4.24-1.76l-11.06-11.06c-2.34-2.34-2.34-6.14,0-8.49c2.34-2.34,6.14-2.34,8.48,0
			l11.06,11.06c2.34,2.34,2.34,6.14,0,8.49C149.07,151.41,147.54,152,146,152z"/>
	</g>
	<g>
		<path class="st1" d="M134.94,300.43c-1.54,0-3.07-0.59-4.24-1.76c-2.34-2.34-2.34-6.14,0-8.49l11.06-11.06
			c2.34-2.34,6.14-2.34,8.48,0c2.34,2.34,2.34,6.14,0,8.49l-11.06,11.06C138.01,299.84,136.48,300.43,134.94,300.43z"/>
		<path class="st1" d="M295.06,300.43c-1.54,0-3.07-0.59-4.24-1.76l-11.06-11.06c-2.34-2.34-2.34-6.14,0-8.49
			c2.34-2.34,6.14-2.34,8.48,0l11.06,11.06c2.34,2.34,2.34,6.14,0,8.49C298.13,299.84,296.6,300.43,295.06,300.43z"/>
	</g>
	<path class="st4" d="M192.12,68.22v7.66v2.28v8.69c0,0.93,0.16,1.82,0.45,2.65 M237.43,89.5c0.29-0.83,0.45-1.72,0.45-2.65V68.22"
		/>
	<path class="st4" d="M192.12,364.63v-21.27 M237.88,364.63v-21.27"/>
	<path class="st1" d="M245.4,51.68c-0.04-0.02-0.08-0.03-0.13-0.03c-0.09-0.02-0.18-0.04-0.27-0.06c-0.1-0.02-0.2-0.04-0.3-0.05
		c-9.64-1.75-19.57-2.66-29.7-2.66s-20.06,0.91-29.7,2.66c-0.1,0.01-0.2,0.03-0.3,0.05c-0.09,0.02-0.18,0.04-0.27,0.06
		c-0.05,0-0.09,0.01-0.13,0.03C107.46,65.99,48.88,133.77,48.88,215c0,81.22,58.58,149.01,135.72,163.32
		c0.04,0.02,0.08,0.03,0.13,0.03c0.09,0.02,0.18,0.04,0.27,0.06c0.1,0.02,0.2,0.04,0.3,0.05c9.64,1.75,19.57,2.66,29.7,2.66
		s20.06-0.91,29.7-2.66c0.1-0.01,0.2-0.03,0.3-0.05c0.09-0.02,0.18-0.04,0.27-0.06c0.05,0,0.09-0.01,0.13-0.03
		c77.14-14.31,135.72-82.1,135.72-163.32C381.12,133.77,322.54,65.99,245.4,51.68z M237.88,62.58v24.27c0,0.93-0.16,1.82-0.45,2.65
		c-1.1,3.11-4.07,5.35-7.55,5.35h-29.76c-3.48,0-6.45-2.24-7.55-5.35c-0.29-0.83-0.45-1.72-0.45-2.65V62.58
		c7.47-1.12,15.11-1.7,22.88-1.7S230.41,61.46,237.88,62.58z M192.12,367.42v-24.27c0-4.42,3.59-8,8-8h29.76c4.41,0,8,3.58,8,8
		v24.27c-7.47,1.12-15.11,1.7-22.88,1.7S199.59,368.54,192.12,367.42z M249.88,365.14v-21.99c0-11.03-8.97-20-20-20h-29.76
		c-11.03,0-20,8.97-20,20v21.99C111.88,349.29,60.88,287.99,60.88,215c0-73,51-134.29,119.24-150.14v21.99c0,11.02,8.97,20,20,20
		h29.76c11.03,0,20-8.98,20-20V64.86C318.12,80.71,369.12,142,369.12,215C369.12,287.99,318.12,349.29,249.88,365.14z"/>
	<g>
		<path class="st1" d="M223.25,208.99h-16.5c-3.31,0-6-2.69-6-6s2.69-6,6-6h16.5c3.31,0,6,2.69,6,6S226.56,208.99,223.25,208.99z"/>
		<path class="st1" d="M223.25,233h-16.5c-3.31,0-6-2.69-6-6s2.69-6,6-6h16.5c3.31,0,6,2.69,6,6S226.56,233,223.25,233z"/>
	</g>
</g>
</svg>
