<?xml version="1.0" encoding="utf-8"?>
<!-- Generator: Adobe Illustrator 24.1.2, SVG Export Plug-In . SVG Version: 6.00 Build 0)  -->
<svg version="1.1" id="Warstwa_1" xmlns="http://www.w3.org/2000/svg" xmlns:xlink="http://www.w3.org/1999/xlink" x="0px" y="0px"
	 viewBox="0 0 430 430" style="enable-background:new 0 0 430 430;" xml:space="preserve">
<style type="text/css">
	.st0{fill:#121331;}
	.st1{fill:#08a88a;}
	.st2{fill:#08a88a;}
	.st3{fill:none;}
	.st4{fill:none;stroke:#121331;stroke-width:12;stroke-linecap:round;stroke-linejoin:round;stroke-miterlimit:10;}
	.st5{fill:#08A385;}
	.st6{fill:none;stroke:#08a88a;stroke-width:12;stroke-linecap:round;stroke-linejoin:round;stroke-miterlimit:10;}
</style>
<g>
	<g>
		<path class="st1" d="M153.81,305.39c-1.51,0-3.01-0.56-4.17-1.69c-2.38-2.31-2.45-6.09-0.14-8.47l0.03-0.04
			c2.31-2.38,6.11-2.43,8.48-0.12c2.38,2.31,2.43,6.11,0.12,8.48C156.96,304.78,155.38,305.39,153.81,305.39z"/>
		<path class="st1" d="M167.72,291.2c-1.51,0-3.02-0.56-4.19-1.7c-2.37-2.32-2.43-6.09-0.11-8.46l0.05-0.05
			c2.32-2.37,6.12-2.41,8.48-0.09s2.41,6.12,0.09,8.48C170.86,290.59,169.29,291.2,167.72,291.2z"/>
		<path class="st1" d="M181.64,277.01c-1.51,0-3.01-0.56-4.17-1.69c-2.38-2.31-2.45-6.09-0.14-8.47l0.03-0.04
			c2.31-2.38,6.11-2.43,8.48-0.12c2.38,2.31,2.43,6.11,0.12,8.48C184.79,276.4,183.21,277.01,181.64,277.01z"/>
	</g>
	<g>
		<path class="st1" d="M275.94,305.4c-1.55,0-3.1-0.6-4.28-1.81l-0.03-0.04c-2.31-2.38-2.26-6.17,0.12-8.48
			c2.38-2.31,6.17-2.26,8.48,0.12s2.27,6.19-0.1,8.5C278.96,304.84,277.45,305.4,275.94,305.4z"/>
		<path class="st1" d="M262.02,291.22c-1.54,0-3.08-0.6-4.25-1.79l-0.05-0.05c-2.32-2.37-2.28-6.17,0.09-8.48
			c2.37-2.32,6.17-2.28,8.48,0.09c2.32,2.37,2.3,6.19-0.07,8.51C265.06,290.64,263.54,291.22,262.02,291.22z"/>
		<path class="st1" d="M248.11,277.03c-1.54,0-3.08-0.59-4.25-1.78l-0.04-0.04c-2.33-2.36-2.3-6.16,0.06-8.49s6.16-2.3,8.49,0.06
			c2.33,2.36,2.32,6.18-0.04,8.5C251.15,276.45,249.63,277.03,248.11,277.03z"/>
	</g>
	<g>
		<path class="st1" d="M244.89,207.65c-8.54,0-16.96-2.58-24.14-7.55c-2.41-1.67-3.26-4.84-2.01-7.5
			c5.34-11.29,15.33-19.63,27.39-22.86c12.07-3.23,24.88-1.01,35.15,6.1c2.41,1.67,3.26,4.84,2.01,7.5
			c-5.34,11.29-15.33,19.63-27.39,22.86C252.27,207.17,248.57,207.65,244.89,207.65z M232.4,192.96c6.35,2.87,13.54,3.48,20.4,1.65
			c6.85-1.84,12.77-5.97,16.84-11.63c-6.35-2.87-13.54-3.48-20.4-1.65C242.39,183.17,236.47,187.3,232.4,192.96z"/>
		<path class="st1" d="M185.11,207.65c-3.68,0-7.38-0.48-11.01-1.45c-12.07-3.23-22.05-11.57-27.39-22.86
			c-1.26-2.65-0.41-5.83,2.01-7.5c10.27-7.11,23.08-9.33,35.15-6.1c12.07,3.23,22.05,11.57,27.39,22.86
			c1.26,2.65,0.41,5.83-2.01,7.5C202.07,205.07,193.65,207.65,185.11,207.65z M160.36,182.98c4.07,5.66,9.99,9.79,16.84,11.63
			c6.86,1.84,14.04,1.22,20.4-1.65c-4.07-5.66-9.99-9.79-16.84-11.63C173.9,179.5,166.71,180.12,160.36,182.98z"/>
	</g>
	<path class="st0" d="M230.67,294h-31.33c-1.81,0-3.53-0.82-4.67-2.23c-1.14-1.41-1.58-3.26-1.2-5.03l15.67-73
		c0.59-2.77,3.04-4.74,5.87-4.74s5.27,1.98,5.87,4.74l15.67,73c0.38,1.77-0.06,3.62-1.2,5.03C234.19,293.18,232.48,294,230.67,294z
		 M206.76,282h16.49L215,243.59L206.76,282z"/>
	<path class="st1" d="M215,348.87c-1.29,0-2.57-0.41-3.65-1.24l-23.49-17.98c-1.48-1.14-2.35-2.9-2.35-4.76s0.87-3.63,2.35-4.76
		l23.49-17.98c2.15-1.65,5.14-1.65,7.29,0l23.49,17.98c1.48,1.14,2.35,2.9,2.35,4.76s-0.87,3.63-2.35,4.76l-23.49,17.98
		C217.57,348.46,216.29,348.87,215,348.87z M201.38,324.89L215,335.32l13.62-10.42L215,314.47L201.38,324.89z"/>
	<g>
		<path class="st1" d="M215,129.57c-3.31,0-6-2.66-6-5.98v-0.05c0-3.31,2.69-6,6-6s6,2.69,6,6S218.31,129.57,215,129.57z"/>
		<path class="st1" d="M215,107.8c-3.31,0-6-2.65-6-5.96v-0.07c0-3.31,2.69-6,6-6s6,2.69,6,6S218.31,107.8,215,107.8z"/>
		<path class="st1" d="M215,86.03c-3.31,0-6-2.66-6-5.98V80c0-3.31,2.69-6,6-6s6,2.69,6,6S218.31,86.03,215,86.03z"/>
	</g>
	<path class="st0" d="M307.99,134.93c0.38-29.86-15.66-57.97-41.93-72.71c-7.02-3.94-14.41-6.99-22.02-9.17
		c-0.49-0.21-1-0.35-1.54-0.42c-17.98-4.86-37.05-4.86-55.03,0c-0.51,0.07-1,0.21-1.47,0.4c-7.62,2.18-15.04,5.24-22.07,9.18
		c-26.21,14.7-42.24,42.72-41.94,72.5c0,0.07-0.01,0.15-0.01,0.22c0,0.21,0.01,0.42,0.03,0.62c0.03,1.6,0.1,3.2,0.23,4.81
		l6.26,78.49c4.31,54.1,24.23,105.33,57.59,148.14c6.99,8.97,17.53,14.12,28.91,14.12s21.91-5.15,28.91-14.12c0,0,0,0,0,0
		c33.36-42.81,53.28-94.04,57.59-148.14l6.26-78.49c0.14-1.8,0.22-3.6,0.24-5.4c0-0.01,0-0.02,0-0.03
		C308,134.94,307.99,134.93,307.99,134.93z M295.84,129.05c-6.74,0.19-18.23,0.74-30.62,2.25l-15.13-63.48
		c3.45,1.41,6.83,3.02,10.11,4.86C280.94,84.32,294.21,105.73,295.84,129.05z M215,60.96c7.3,0,14.59,0.86,21.72,2.57l16.57,69.52
		c-18.77,3.26-31.47,8.19-38.3,14.89c-6.82-6.7-19.52-11.62-38.26-14.88l16.58-69.53C200.42,61.83,207.71,60.96,215,60.96z
		 M169.81,72.69c3.29-1.85,6.68-3.46,10.13-4.87l-15.14,63.49c-12.4-1.52-23.9-2.06-30.64-2.26
		C135.79,105.73,149.06,84.32,169.81,72.69z M234.44,359.62L234.44,359.62c-4.7,6.03-11.79,9.5-19.44,9.5s-14.74-3.46-19.44-9.5
		c-19.46-24.97-34.12-52.93-43.55-82.68l40.73-44.55c2.24-2.45,2.07-6.24-0.38-8.48c-2.44-2.24-6.24-2.07-8.48,0.38l-35.77,39.12
		c-3.84-14.83-6.42-30.05-7.65-45.52l-6.12-76.83c7.56,0.24,20.86,0.91,34.3,2.85c0.02,0,0.05,0.01,0.07,0.01
		c0.66,0.1,1.32,0.19,1.98,0.29c23.98,3.69,38.29,10.2,38.29,17.4c0,3.31,2.68,6,6,6c0,0,0,0,0,0c3.31,0,6-2.68,6-6
		c0-7.21,14.33-13.71,38.31-17.41c0.65-0.1,1.3-0.2,1.96-0.29c0.08-0.01,0.17-0.02,0.25-0.04c13.4-1.92,26.63-2.59,34.16-2.83
		l-6.12,76.83c-1.24,15.56-3.84,30.88-7.72,45.8l-36.03-39.41c-2.24-2.45-6.03-2.62-8.48-0.38c-2.45,2.24-2.62,6.03-0.38,8.48
		l40.98,44.82C268.47,306.86,253.84,334.73,234.44,359.62z"/>
</g>
</svg>
