<?xml version="1.0" encoding="utf-8"?>
<!-- Generator: Adobe Illustrator 24.1.2, SVG Export Plug-In . SVG Version: 6.00 Build 0)  -->
<svg version="1.1" id="Warstwa_1" xmlns="http://www.w3.org/2000/svg" xmlns:xlink="http://www.w3.org/1999/xlink" x="0px" y="0px"
	 viewBox="0 0 430 430" style="enable-background:new 0 0 430 430;" xml:space="preserve">
<style type="text/css">
	.st0{fill:#121331;}
	.st1{fill:#08a88a;}
	.st2{fill:#08a88a;}
	.st3{fill:none;}
	.st4{fill:none;stroke:#121331;stroke-width:12;stroke-linecap:round;stroke-linejoin:round;stroke-miterlimit:10;}
	.st5{fill:#08A385;}
	.st6{fill:none;stroke:#08a88a;stroke-width:12;stroke-linecap:round;stroke-linejoin:round;stroke-miterlimit:10;}
</style>
<g>
	<path class="st1" d="M242.4,368.8c-3.31,0-6-2.69-6-6v-27.24c0-15.9-5.68-31.31-16-43.41l-5.4-6.33l-5.4,6.33
		c-10.32,12.09-16,27.51-16,43.41v27.24c0,3.31-2.69,6-6,6s-6-2.69-6-6v-27.24c0-18.75,6.7-36.93,18.87-51.2l9.97-11.68
		c1.14-1.34,2.81-2.11,4.56-2.11s3.42,0.77,4.56,2.11l9.97,11.68c12.17,14.26,18.87,32.45,18.87,51.2v27.24
		C248.4,366.12,245.72,368.8,242.4,368.8z"/>
	<g>
		<path class="st0" d="M375.12,233.63h-15.45v-22.79c0-3.31-2.69-6-6-6s-6,2.69-6,6v22.79h-41.54v-22.79c0-3.31-2.69-6-6-6
			s-6,2.69-6,6v22.79h-9.45v-8.4c0-3.31-2.69-6-6-6h-1.56v-18.63c0-3.31-2.69-6-6-6s-6,2.69-6,6v18.63H164.89v-18.63
			c0-3.31-2.69-6-6-6s-6,2.69-6,6v18.63h-1.56c-3.31,0-6,2.69-6,6v8.4h-9.45v-22.79c0-3.31-2.69-6-6-6s-6,2.69-6,6v22.79H82.33
			v-22.79c0-3.31-2.69-6-6-6s-6,2.69-6,6v22.79H54.88c-3.31,0-6,2.69-6,6V362.8c0,3.31,2.69,6,6,6h35.43h25.59h35.43h127.34h35.43
			h25.59h35.43c3.31,0,6-2.69,6-6V239.63C381.12,236.32,378.43,233.63,375.12,233.63z M60.88,245.63h84.45V356.8H121.9v-6.71
			c0-9.51-3.4-18.74-9.58-25.98l-4.65-5.45c-1.14-1.34-2.81-2.11-4.56-2.11s-3.42,0.77-4.56,2.11l-4.65,5.45
			c-6.17,7.24-9.58,16.46-9.58,25.98v6.71H60.88V245.63z M96.31,356.8v-6.71c0-6.66,2.38-13.12,6.7-18.19l0.09-0.1l0.09,0.1
			c4.32,5.07,6.7,11.53,6.7,18.19v6.71H96.31z M157.33,231.24h115.34V356.8H157.33V231.24z M320.1,356.8v-6.71
			c0-6.66,2.38-13.12,6.71-18.19l0.09-0.1l0.09,0.1c4.32,5.07,6.7,11.53,6.7,18.19v6.71H320.1z M369.12,356.8h-23.43v-6.71
			c0-9.51-3.4-18.74-9.58-25.98l-4.65-5.45c-1.14-1.34-2.81-2.11-4.56-2.11s-3.42,0.77-4.56,2.11l-4.65,5.45
			c-6.18,7.24-9.58,16.46-9.58,25.98v6.71h-23.43V245.63h84.45V356.8z"/>
		<path class="st0" d="M331.46,254.49c-1.14-1.34-2.81-2.11-4.56-2.11s-3.42,0.77-4.56,2.11l-4.65,5.45
			c-6.18,7.24-9.58,16.46-9.58,25.98v12.71c0,3.31,2.69,6,6,6h25.59c3.31,0,6-2.69,6-6v-12.71c0-9.51-3.4-18.74-9.58-25.98
			L331.46,254.49z M333.69,292.63H320.1v-6.71c0-6.66,2.38-13.12,6.71-18.19l0.09-0.1l0.09,0.1c4.32,5.07,6.7,11.53,6.7,18.19
			V292.63z"/>
		<path class="st0" d="M90.31,304.63h25.59c3.31,0,6-2.69,6-6v-12.71c0-9.51-3.4-18.74-9.58-25.98l-4.65-5.45
			c-1.14-1.34-2.81-2.11-4.56-2.11s-3.42,0.77-4.56,2.11l-4.65,5.45c-6.17,7.24-9.58,16.46-9.58,25.98v12.71
			C84.31,301.95,87,304.63,90.31,304.63z M96.31,285.92c0-6.66,2.38-13.12,6.7-18.19l0.09-0.1l0.09,0.1
			c4.32,5.07,6.7,11.53,6.7,18.19v6.71H96.31V285.92z"/>
	</g>
	<g>
		<path class="st1" d="M109.1,155.96v-7.45c0-3.31-2.69-6-6-6s-6,2.69-6,6v7.45c-14.82,6.24-32.75,23.01-32.75,46.1
			c0,3.3,0.27,6.59,0.8,9.78c0.49,2.89,2.99,5.01,5.92,5.01h64.05c2.93,0,5.43-2.12,5.92-5.01c0.53-3.18,0.8-6.47,0.8-9.78
			C141.85,178.97,123.93,162.2,109.1,155.96z M129.77,204.84H76.44c-0.05-0.92-0.08-1.85-0.08-2.78c0-19.58,17.29-31.99,26.75-35.56
			c9.46,3.57,26.75,15.98,26.75,35.56C129.85,202.99,129.83,203.92,129.77,204.84z"/>
		<path class="st1" d="M332.9,155.96v-7.45c0-3.31-2.69-6-6-6s-6,2.69-6,6v7.45c-14.82,6.23-32.75,23.01-32.75,46.1
			c0,3.3,0.27,6.59,0.8,9.78c0.49,2.89,2.99,5.01,5.92,5.01h64.05c2.93,0,5.43-2.12,5.92-5.01c0.53-3.18,0.8-6.47,0.8-9.78
			C365.64,178.97,347.72,162.2,332.9,155.96z M353.56,204.84h-53.33c-0.05-0.92-0.08-1.85-0.08-2.78
			c0-19.58,17.29-31.99,26.75-35.56c9.46,3.57,26.75,15.98,26.75,35.56C353.64,202.99,353.62,203.92,353.56,204.84z"/>
		<path class="st1" d="M259.82,121.14C247.87,108.71,233.61,99.8,221,95.22V67.2c0-3.31-2.69-6-6-6s-6,2.69-6,6v28.03
			c-12.61,4.58-26.87,13.48-38.82,25.92c-0.03,0.03-0.05,0.06-0.08,0.09c-14.91,15.55-26.21,36.6-26.21,61.61
			c0,6.24,0.51,12.45,1.52,18.46c0.49,2.89,2.99,5.01,5.92,5.01h127.34c2.93,0,5.43-2.12,5.92-5.01c1.01-6,1.52-12.21,1.52-18.46
			c0-25.01-11.3-46.06-26.21-61.61C259.87,121.2,259.85,121.17,259.82,121.14z M215,105.85c6.91,2.29,15.93,6.84,24.83,13.56h-49.67
			C199.07,112.69,208.09,108.14,215,105.85z M273.46,194.31H156.54c-0.43-3.77-0.65-7.61-0.65-11.46c0-21.4,9.21-38.62,21.01-51.44
			h76.19c11.8,12.82,21.01,30.04,21.01,51.44C274.11,186.7,273.89,190.54,273.46,194.31z"/>
	</g>
</g>
</svg>
