<?xml version="1.0" encoding="utf-8"?>
<!-- Generator: Adobe Illustrator 24.0.2, SVG Export Plug-In . SVG Version: 6.00 Build 0)  -->
<svg version="1.1" xmlns="http://www.w3.org/2000/svg" xmlns:xlink="http://www.w3.org/1999/xlink" x="0px" y="0px"
	 viewBox="0 0 24 24" style="enable-background:new 0 0 24 24;" xml:space="preserve">
<style type="text/css">
	.st0{fill:none;}
	.st1{fill:#121331;}
</style>
<g id="bounding_box">
	<rect y="0" class="st0" width="24" height="24"/>
</g>
<g id="design">
	<g>
		<g>
			<path class="st1" d="M17.34,17.5h-3.5c-0.41,0-0.75-0.34-0.75-0.75S13.42,16,13.84,16h3.5c0.41,0,0.75,0.34,0.75,0.75
				S17.75,17.5,17.34,17.5z"/>
			<path class="st1" d="M17.34,15h-3.5c-0.41,0-0.75-0.34-0.75-0.75s0.34-0.75,0.75-0.75h3.5c0.41,0,0.75,0.34,0.75,0.75
				S17.75,15,17.34,15z"/>
			<path class="st1" d="M10.2,9H6.7C6.29,9,5.95,8.66,5.95,8.25S6.29,7.5,6.7,7.5h3.5c0.41,0,0.75,0.34,0.75,0.75S10.62,9,10.2,9z"
				/>
		</g>
		<path class="st1" d="M19.25,3H4.75C3.79,3,3,3.79,3,4.75v14.5C3,20.21,3.79,21,4.75,21h14.5c0.96,0,1.75-0.79,1.75-1.75V4.75
			C21,3.79,20.21,3,19.25,3z M19.5,19.25c0,0.14-0.11,0.25-0.25,0.25H4.75c-0.14,0-0.25-0.11-0.25-0.25V4.75
			c0-0.14,0.11-0.25,0.25-0.25h14.5c0.14,0,0.25,0.11,0.25,0.25V19.25z"/>
		<path class="st1" d="M10.78,16.72c0.29,0.29,0.29,0.77,0,1.06C10.63,17.93,10.44,18,10.25,18s-0.38-0.07-0.53-0.22l-1.09-1.09
			l-1.1,1.09C7.38,17.93,7.19,18,7,18s-0.38-0.07-0.53-0.22c-0.29-0.29-0.29-0.77,0-1.06l1.1-1.09l-1.1-1.1
			c-0.29-0.29-0.29-0.77,0-1.06c0.29-0.29,0.77-0.29,1.06,0l1.1,1.1l1.09-1.1c0.29-0.29,0.77-0.29,1.06,0
			c0.29,0.29,0.29,0.77,0,1.06l-1.09,1.1L10.78,16.72z"/>
		<path class="st1" d="M18.34,8.25C18.34,8.66,18,9,17.59,9h-1.25v1.25c0,0.41-0.34,0.75-0.75,0.75c-0.42,0-0.75-0.34-0.75-0.75V9
			h-1.25c-0.42,0-0.75-0.34-0.75-0.75c0-0.41,0.33-0.75,0.75-0.75h1.25V6.25c0-0.41,0.33-0.75,0.75-0.75c0.41,0,0.75,0.34,0.75,0.75
			V7.5h1.25C18,7.5,18.34,7.84,18.34,8.25z"/>
	</g>
</g>
</svg>
