<?xml version="1.0" encoding="utf-8"?>
<!-- Generator: Adobe Illustrator 24.1.2, SVG Export Plug-In . SVG Version: 6.00 Build 0)  -->
<svg version="1.1" id="Warstwa_1" xmlns="http://www.w3.org/2000/svg" xmlns:xlink="http://www.w3.org/1999/xlink" x="0px" y="0px"
	 viewBox="0 0 430 430" style="enable-background:new 0 0 430 430;" xml:space="preserve">
<style type="text/css">
	.st0{fill:#121331;}
	.st1{fill:#08a88a;}
	.st2{fill:#08a88a;}
	.st3{fill:none;}
	.st4{fill:none;stroke:#121331;stroke-width:12;stroke-linecap:round;stroke-linejoin:round;stroke-miterlimit:10;}
	.st5{fill:#08A385;}
	.st6{fill:none;stroke:#08a88a;stroke-width:12;stroke-linecap:round;stroke-linejoin:round;stroke-miterlimit:10;}
</style>
<g>
	<path class="st1" d="M215.5,79.57c-6.6,0-12.93,1.96-18.36,5.66c-0.02,0.01-0.04,0.03-0.06,0.04c-0.1,0.07-0.21,0.13-0.32,0.21
		c-0.2,0.14-0.39,0.3-0.57,0.46c-0.02,0.01-0.03,0.02-0.05,0.04c-0.02,0.02-0.04,0.05-0.06,0.07c-0.26,0.25-0.5,0.51-0.7,0.79
		c-0.03,0.04-0.06,0.09-0.09,0.14c-0.19,0.27-0.36,0.56-0.5,0.86c-0.03,0.06-0.05,0.12-0.08,0.18c-0.13,0.29-0.23,0.59-0.31,0.9
		c-0.02,0.07-0.03,0.13-0.05,0.2c-0.07,0.31-0.11,0.62-0.13,0.94c0,0.07,0,0.13-0.01,0.2c-0.01,0.32,0.01,0.63,0.05,0.95
		c0.01,0.07,0.02,0.13,0.03,0.2c0.05,0.31,0.13,0.62,0.23,0.93c0.02,0.07,0.05,0.14,0.08,0.21c0.11,0.29,0.25,0.58,0.41,0.86
		c0.04,0.07,0.08,0.13,0.13,0.2c0.05,0.08,0.1,0.17,0.16,0.25c0.14,0.2,0.29,0.38,0.44,0.55c0.02,0.02,0.03,0.04,0.05,0.06
		l9.84,10.72l-15.73,19.99c-0.03,0.04-0.06,0.09-0.1,0.14c-0.07,0.1-0.14,0.19-0.21,0.29c-0.05,0.07-0.09,0.15-0.14,0.23
		c-0.05,0.09-0.11,0.18-0.15,0.27c-0.05,0.09-0.09,0.19-0.14,0.28c-0.04,0.08-0.07,0.15-0.1,0.23c-0.05,0.11-0.09,0.22-0.12,0.34
		c-0.02,0.07-0.04,0.13-0.06,0.2c-0.04,0.12-0.07,0.25-0.1,0.38c-0.01,0.06-0.03,0.12-0.04,0.18c-0.03,0.13-0.05,0.26-0.06,0.39
		c-0.01,0.06-0.02,0.12-0.02,0.18c-0.01,0.13-0.02,0.26-0.03,0.39c0,0.07,0,0.13,0,0.2c0,0.12,0,0.25,0.01,0.37
		c0,0.07,0.01,0.14,0.02,0.22c0.01,0.12,0.03,0.23,0.04,0.35c0.01,0.07,0.02,0.15,0.04,0.22c0.02,0.12,0.05,0.23,0.08,0.35
		c0.02,0.07,0.04,0.14,0.06,0.21c0.04,0.12,0.08,0.24,0.12,0.36c0.02,0.06,0.04,0.12,0.07,0.18c0.05,0.13,0.11,0.26,0.17,0.39
		c0.02,0.04,0.04,0.09,0.07,0.13c0.07,0.14,0.15,0.28,0.24,0.42c0.02,0.03,0.03,0.06,0.05,0.09c0.1,0.15,0.2,0.29,0.31,0.43
		c0.01,0.01,0.02,0.03,0.03,0.04c0.01,0.01,0.02,0.02,0.02,0.03c0.06,0.07,0.11,0.14,0.17,0.21c6.23,7.7,15.46,12.11,25.38,12.11
		c18.03,0,32.69-14.66,32.69-32.68C248.19,94.23,233.53,79.57,215.5,79.57z M215.5,132.94c-4.76,0-9.28-1.61-12.9-4.52l15.62-19.85
		c1.82-2.31,1.69-5.6-0.3-7.77l-7.82-8.51c1.74-0.47,3.55-0.73,5.4-0.73c11.41,0,20.69,9.28,20.69,20.69
		C236.19,123.66,226.91,132.94,215.5,132.94z"/>
	<path class="st0" d="M370.16,167.25c2.85,0,5.31-2,5.88-4.8l5.45-26.66c0.06-0.3,0.09-0.6,0.11-0.91c0-0.07,0.01-0.13,0.01-0.2
		c0-0.04,0.01-0.08,0.01-0.12c0-0.24-0.02-0.48-0.05-0.71c-0.01-0.07-0.02-0.13-0.03-0.2c-0.04-0.26-0.09-0.51-0.16-0.76
		c-0.01-0.03-0.02-0.06-0.02-0.1c-0.08-0.27-0.19-0.52-0.3-0.77c-0.03-0.06-0.06-0.13-0.09-0.19c-0.12-0.24-0.26-0.46-0.41-0.68
		c-0.04-0.06-0.09-0.12-0.14-0.18c-0.14-0.18-0.28-0.36-0.44-0.52c-0.06-0.06-0.11-0.12-0.17-0.18c-0.17-0.17-0.36-0.33-0.55-0.47
		c-0.07-0.05-0.14-0.1-0.21-0.15c-0.22-0.15-0.45-0.29-0.68-0.41c-0.03-0.02-0.06-0.04-0.09-0.06l-161.12-79.3
		c-1.68-0.82-3.64-0.82-5.31,0.01l-60.51,29.97c0,0,0,0-0.01,0l-0.04,0.02c-0.06,0.03-0.11,0.06-0.16,0.09
		c-0.11,0.06-0.23,0.12-0.34,0.19c-0.09,0.06-0.17,0.12-0.26,0.18c-0.07,0.05-0.15,0.1-0.22,0.15c-0.09,0.07-0.18,0.15-0.27,0.23
		c-0.06,0.05-0.12,0.1-0.17,0.15c-0.09,0.08-0.17,0.16-0.25,0.25c-0.05,0.06-0.11,0.11-0.16,0.17c-0.07,0.08-0.14,0.16-0.2,0.25
		c-0.06,0.07-0.11,0.14-0.17,0.22c-0.05,0.08-0.1,0.15-0.15,0.23c-0.06,0.09-0.12,0.17-0.17,0.27c-0.04,0.07-0.08,0.14-0.11,0.21
		c-0.05,0.1-0.11,0.2-0.16,0.31c-0.03,0.07-0.06,0.15-0.09,0.22c-0.04,0.11-0.09,0.21-0.12,0.32c-0.03,0.09-0.06,0.19-0.08,0.28
		c-0.03,0.09-0.06,0.18-0.08,0.28c-0.03,0.14-0.06,0.29-0.08,0.44c-0.01,0.04-0.02,0.08-0.02,0.13l0,0.03c0,0.01,0,0.02,0,0.03
		l-2.77,19.56c-0.26,1.8,0.32,3.62,1.56,4.95l7.89,8.42l-18.59,3.59c-1.18,0.23-2.26,0.8-3.11,1.65l-8.11,8.12l-13.2-11.42
		c-1.98-1.72-4.85-1.94-7.08-0.56l-22.48,13.91l-26.84-4.05c-0.07-0.01-0.14-0.01-0.21-0.02c-0.11-0.01-0.23-0.03-0.34-0.03
		c-0.13-0.01-0.25-0.01-0.38-0.01c-0.07,0-0.13,0-0.2,0c-0.18,0.01-0.35,0.02-0.52,0.04c-0.02,0-0.04,0-0.06,0.01
		c-1.21,0.16-2.32,0.69-3.2,1.49c0,0,0,0-0.01,0.01c-0.69,0.62-1.23,1.41-1.58,2.31c-0.01,0.02-0.02,0.04-0.02,0.05
		c-0.02,0.07-0.04,0.14-0.07,0.2c-0.04,0.12-0.08,0.25-0.12,0.37c-0.01,0.03-0.01,0.07-0.02,0.1c-0.04,0.16-0.07,0.33-0.1,0.49
		c0,0.01,0,0.01,0,0.02c-0.01,0.03-0.01,0.07-0.01,0.1c-0.02,0.16-0.04,0.32-0.05,0.48c0,0.07,0,0.14,0,0.22
		c0,0.12-0.01,0.24,0,0.37c0,0.11,0.02,0.22,0.03,0.34c0.01,0.08,0.01,0.16,0.03,0.24c0.02,0.15,0.05,0.3,0.08,0.45
		c0.01,0.04,0.01,0.08,0.02,0.12l0.01,0.05c0,0.01,0.01,0.03,0.01,0.04l6.44,26.6c0.65,2.69,3.06,4.59,5.83,4.59H77.4v27.12
		c0,0.05,0.01,0.1,0.01,0.15c0,0.13,0.01,0.26,0.02,0.39c0.01,0.08,0.02,0.15,0.03,0.23c0.01,0.11,0.03,0.23,0.05,0.34
		c0.02,0.09,0.04,0.19,0.06,0.28c0.02,0.09,0.05,0.19,0.07,0.28c0.03,0.11,0.07,0.22,0.11,0.33c0.03,0.08,0.05,0.15,0.08,0.22
		c0.05,0.12,0.1,0.24,0.16,0.36c0.02,0.05,0.04,0.09,0.06,0.14c0.01,0.01,0.02,0.03,0.02,0.04c0.12,0.23,0.25,0.45,0.39,0.66
		c0.03,0.05,0.07,0.09,0.1,0.14c0.11,0.16,0.24,0.31,0.37,0.45c0.05,0.06,0.1,0.11,0.15,0.17c0.16,0.17,0.33,0.33,0.51,0.47
		c0.04,0.04,0.09,0.07,0.14,0.1c0.15,0.12,0.31,0.23,0.47,0.33c0.06,0.04,0.12,0.07,0.18,0.11c0.2,0.12,0.4,0.22,0.62,0.32
		c0.01,0,0.02,0.01,0.02,0.01c0.23,0.1,0.46,0.18,0.7,0.25c0.05,0.02,0.11,0.03,0.16,0.04c0.19,0.05,0.37,0.09,0.57,0.12
		c0.07,0.01,0.14,0.02,0.21,0.03c0.22,0.03,0.44,0.04,0.66,0.05c0.02,0,0.05,0,0.07,0c0.01,0,0.02,0,0.03,0h95.77l8.81,20.65v91.69
		l-8.81,20.65h-27.15l-8.81-20.66V219.8c0-0.02,0-0.04,0-0.07c0-0.05-0.01-0.1-0.01-0.15c-0.01-0.35-0.05-0.69-0.12-1.02
		c-0.01-0.03-0.02-0.07-0.03-0.1c-0.08-0.34-0.18-0.68-0.32-1c-0.02-0.04-0.04-0.08-0.05-0.11c-0.14-0.32-0.31-0.63-0.5-0.91
		c-0.03-0.04-0.06-0.08-0.1-0.13c-0.2-0.28-0.42-0.55-0.67-0.79c-0.02-0.02-0.03-0.04-0.04-0.05c-0.03-0.03-0.07-0.05-0.1-0.08
		c-0.24-0.22-0.5-0.43-0.78-0.61c-0.07-0.04-0.14-0.08-0.2-0.12c-0.27-0.16-0.54-0.3-0.83-0.42c-0.08-0.03-0.15-0.06-0.23-0.08
		c-0.29-0.1-0.58-0.19-0.89-0.25c-0.08-0.02-0.16-0.02-0.24-0.04c-0.29-0.04-0.59-0.07-0.89-0.07c-0.01,0-0.02,0-0.03,0
		c-0.07,0-0.15,0.01-0.22,0.01c-0.33,0.01-0.65,0.05-0.96,0.11c-0.05,0.01-0.09,0.03-0.14,0.04c-0.33,0.08-0.64,0.17-0.95,0.3
		c-0.05,0.02-0.09,0.04-0.14,0.06c-0.32,0.14-0.63,0.31-0.92,0.5c-0.04,0.02-0.07,0.05-0.11,0.08c-0.29,0.21-0.57,0.44-0.82,0.69
		c-0.01,0.01-0.03,0.02-0.04,0.03l-16.78,17.4c-0.98,1.02-1.57,2.35-1.67,3.76l-1.24,18.34l-3.55,8.46l-11.12-11.23
		c-1.09-1.13-2.62-1.84-4.31-1.84c-0.78,0-1.52,0.15-2.21,0.42c-0.01,0-0.02,0.01-0.04,0.01c-0.35,0.14-0.69,0.32-1,0.52
		c-0.02,0.01-0.03,0.02-0.05,0.03c-0.33,0.22-0.64,0.47-0.92,0.74c0,0-0.01,0-0.01,0.01c0,0,0,0,0,0c-0.28,0.28-0.54,0.59-0.76,0.92
		c-0.01,0.02-0.02,0.04-0.04,0.06c-0.2,0.31-0.37,0.63-0.52,0.97c-0.01,0.03-0.02,0.06-0.03,0.09c-0.13,0.33-0.24,0.67-0.31,1.02
		c-0.01,0.03-0.01,0.06-0.01,0.09c-0.06,0.32-0.09,0.66-0.1,1c0,0.04-0.01,0.08-0.01,0.11v56.17l-8.82,20.66h-8.04
		c-2.36,0-4.49,1.38-5.47,3.53l-16.01,35.38c-0.84,1.86-0.68,4.01,0.42,5.73s3,2.75,5.04,2.75h320.24c2.04,0,3.94-1.04,5.04-2.75
		s1.26-3.87,0.42-5.73l-16.01-35.38c-0.97-2.15-3.11-3.53-5.47-3.53h-8.03l-8.81-20.65v-91.69l10.36-24.29
		c0.16-0.37,0.28-0.76,0.37-1.17c0.08-0.4,0.12-0.81,0.12-1.21v-27.1H370.16z M251.81,333.37l-8.81-20.65v-91.69l8.81-20.65h27.16
		l8.81,20.65v91.69l-8.81,20.65H251.81z M200.01,235.69l9.89,11.23l3.24,17.79l-13.13,6.78V235.69z M200.01,292.26l11.77,7.48
		c1,0.63,2.11,0.94,3.21,0.94c1.98,0,3.93-0.98,5.07-2.78c1.78-2.8,0.95-6.5-1.84-8.28l-12.18-7.74l16.55-8.55
		c2.34-1.21,3.62-3.81,3.15-6.41l-4.33-23.8c-0.2-1.07-0.68-2.07-1.4-2.89l-12.72-14.44h23.71v82.14h-30.98V292.26z M299.78,225.79
		h30.98v82.14h-30.98V225.79z M332.8,213.79h-35.06l-5.73-13.43h46.52L332.8,213.79z M341.61,188.37h-58.68c-0.02,0-0.04,0-0.05,0
		h-35c-0.01,0-0.02,0-0.03,0h-64.68c-0.02,0-0.04,0-0.05,0h-74.72l7.5-3.82c1.74-0.89,2.94-2.56,3.22-4.49l1.42-9.91l27.75,13.09
		c0.83,0.39,1.7,0.58,2.56,0.58c2.25,0,4.41-1.27,5.43-3.44c1.41-3,0.13-6.57-2.87-7.99l-10.88-5.13h199.09V188.37z M89.4,184.57
		v-17.32h19.42l-1.15,8.02L89.4,184.57z M140.17,132.41l22.14-4.27l3.77,12.53c0.78,2.6,3.16,4.27,5.74,4.27
		c0.57,0,1.16-0.08,1.73-0.26c3.17-0.96,4.97-4.3,4.02-7.47l-5.33-17.72c-0.02-0.07-0.05-0.14-0.08-0.22
		c-0.02-0.07-0.05-0.14-0.08-0.21c-0.08-0.2-0.16-0.39-0.25-0.57c-0.01-0.03-0.02-0.05-0.04-0.08c-0.12-0.22-0.25-0.43-0.39-0.63
		c-0.03-0.04-0.05-0.07-0.08-0.1c-0.12-0.17-0.26-0.33-0.39-0.48c-0.02-0.02-0.04-0.05-0.06-0.08l-13.36-14.25l1.93-13.64
		l55.06-27.27l135.34,66.61H289.4c-3.31,0-6,2.69-6,6s2.69,6,6,6h78.87l-3,14.69H124.79l5.45-12.9L140.17,132.41z M62.31,141.82
		l20.19,3.05c1.41,0.21,2.84-0.08,4.05-0.83l20.6-12.75l10.79,9.33l-6.18,14.63h-46.2L62.31,141.82z M238.76,200.37l-5.73,13.43
		h-35.06l-5.73-13.43H238.76z M197.97,319.94h35.06l5.73,13.43h-46.52L197.97,319.94z M125.13,256.94l1.16-17.15l4.94-5.12v73.27
		h-30.98v-36.81l6.3,6.36l3.91,10.76c0.89,2.44,3.19,3.95,5.64,3.95c0.68,0,1.37-0.12,2.05-0.36c3.11-1.13,4.72-4.57,3.59-7.69
		l-3.56-9.8l6.5-15.5C124.93,258.24,125.08,257.6,125.13,256.94z M98.21,319.94h35.06l5.73,13.43H92.48L98.21,319.94z M75.26,345.37
		h5.18l12.32,16.03c1.14,1.48,2.89,2.34,4.76,2.34c0.01,0,0.02,0,0.03,0l41.82-0.2l4.33,5.2H64.68L75.26,345.37z M366.32,368.74
		H159.31l-12.53-15.05c-1.14-1.37-2.83-2.16-4.61-2.16c-0.01,0-0.02,0-0.03,0l-41.67,0.2l-4.89-6.36h52.48c0.01,0,0.02,0,0.03,0
		c0.01,0,0.03,0,0.04,0h34.96c0.04,0,0.08,0,0.12,0h64.62c0.01,0,0.02,0,0.03,0c0.01,0,0.03,0,0.04,0h34.97c0.04,0,0.08,0,0.12,0
		h64.62c0.01,0,0.02,0,0.03,0c0.01,0,0.03,0,0.04,0h8.09L366.32,368.74z M292.01,333.37l5.73-13.43h35.06l5.73,13.43H292.01z"/>
</g>
</svg>
