<?xml version="1.0" encoding="utf-8"?>
<!-- Generator: Adobe Illustrator 24.1.2, SVG Export Plug-In . SVG Version: 6.00 Build 0)  -->
<svg version="1.1" id="Warstwa_1" xmlns="http://www.w3.org/2000/svg" xmlns:xlink="http://www.w3.org/1999/xlink" x="0px" y="0px"
	 viewBox="0 0 430 430" style="enable-background:new 0 0 430 430;" xml:space="preserve">
<style type="text/css">
	.st0{fill:#121331;}
	.st1{fill:#08a88a;}
	.st2{fill:#08a88a;}
	.st3{fill:none;}
	.st4{fill:none;stroke:#121331;stroke-width:12;stroke-linecap:round;stroke-linejoin:round;stroke-miterlimit:10;}
	.st5{fill:#08A385;}
	.st6{fill:none;stroke:#08a88a;stroke-width:12;stroke-linecap:round;stroke-linejoin:round;stroke-miterlimit:10;}
</style>
<g>
	<path class="st0" d="M280.45,353.02c-18.8,0-34.1-15.3-34.1-34.1v-84.31c0-12.19-9.92-22.1-22.11-22.1h-11.29l-17.43,20.36
		c-2.15,2.52-5.94,2.81-8.46,0.66c-2.52-2.16-2.81-5.94-0.66-8.46l19.23-22.46c1.14-1.33,2.8-2.1,4.56-2.1h14.05
		c18.81,0,34.11,15.3,34.11,34.1v84.31c0,12.19,9.91,22.1,22.1,22.1c5.9,0,11.45-2.3,15.63-6.47c4.17-4.17,6.47-9.72,6.47-15.63
		V159.06c0-3.31,2.69-6,6-6s6,2.69,6,6v159.86c0,9.11-3.55,17.67-9.99,24.11C298.12,349.47,289.56,353.02,280.45,353.02z"/>
	<path class="st1" d="M228.96,330H107.12c-3.31,0-6-2.69-6-6s2.69-6,6-6h121.84c3.31,0,6,2.69,6,6S232.27,330,228.96,330z"/>
	<path class="st0" d="M168.04,381.12c-17.81,0-34.63-4.79-47.37-13.5c-13.43-9.18-20.83-21.61-20.83-35.01
		c0-13.79,8.17-26.93,22.41-36.06c11.61-7.44,18.54-19.99,18.54-33.57c0-3.31,2.69-6,6-6s6,2.69,6,6c0,17.68-8.99,34.01-24.06,43.67
		c-10.89,6.98-16.88,16.2-16.88,25.96c0,20.13,25.21,36.51,56.2,36.51c30.99,0,56.2-16.38,56.2-36.51c0-9.76-6-18.98-16.88-25.96
		c-15.06-9.66-24.06-25.99-24.06-43.67c0-3.31,2.69-6,6-6s6,2.69,6,6c0,13.58,6.93,26.13,18.54,33.57
		c14.24,9.13,22.41,22.28,22.41,36.06c0,13.4-7.4,25.83-20.83,35.01C202.67,376.32,185.85,381.12,168.04,381.12z"/>
	<path class="st1" d="M185.08,215.52v-50.24l4.66-20.54c0.2-0.87,0.2-1.78,0-2.65l-4.81-21.21c-0.73-3.23-3.94-5.26-7.18-4.52
		c-3.23,0.73-5.26,3.95-4.52,7.18l4.51,19.88l-4.51,19.87c-0.1,0.44-0.15,0.88-0.15,1.33v46.99c-1.21-0.14-2.43-0.22-3.67-0.22
		h-2.74c-1.24,0-2.46,0.08-3.67,0.22v-46.99c0-0.45-0.05-0.89-0.15-1.33l-4.51-19.87l4.51-19.88c0.73-3.23-1.29-6.45-4.52-7.18
		c-3.23-0.73-6.45,1.29-7.18,4.52l-4.81,21.21c-0.2,0.87-0.2,1.78,0,2.65l4.66,20.54v50.24c-9.64,5.48-16.16,15.83-16.16,27.69
		v19.77c0,3.31,2.69,6,6,6h54.4c3.31,0,6-2.69,6-6v-19.77C201.24,231.35,194.72,221,185.08,215.52z M189.24,256.98h-42.4v-13.77
		c0-10.93,8.89-19.83,19.83-19.83h2.74c10.93,0,19.83,8.89,19.83,19.83V256.98z"/>
	<path class="st0" d="M206.06,116.2h-19.2V93.71c9.87-5.44,17.25-15.03,19.56-26.65l2.18-11.01c0.35-1.76-0.11-3.59-1.25-4.98
		c-1.14-1.39-2.84-2.19-4.64-2.19h-69.35c-1.8,0-3.5,0.8-4.64,2.19c-1.14,1.39-1.6,3.21-1.25,4.98l2.18,11.01
		c2.31,11.63,9.69,21.22,19.56,26.66v22.48h-19.2c-3.31,0-6,2.69-6,6s2.69,6,6,6h76.03c3.31,0,6-2.69,6-6S209.37,116.2,206.06,116.2
		z M141.43,64.72l-0.76-3.84h54.74l-0.76,3.84c-2.51,12.66-13.7,21.85-26.61,21.85S143.95,77.38,141.43,64.72z M161.22,97.97
		c2.22,0.39,4.5,0.6,6.82,0.6c2.32,0,4.6-0.21,6.82-0.6v18.23h-13.63V97.97z"/>
	<path class="st1" d="M320.96,165.06h-23.97c-3.06,0-5.64-2.31-5.96-5.35l-3.19-29.49c-0.06-0.55-0.04-1.1,0.05-1.65l3.19-18.91
		c0.49-2.89,2.99-5,5.92-5h23.97c2.93,0,5.43,2.11,5.92,5l3.19,18.91c0.09,0.54,0.11,1.1,0.05,1.65l-3.19,29.49
		C326.6,162.75,324.03,165.06,320.96,165.06z M302.37,153.06h13.2l2.52-23.31l-2.21-13.09h-13.83l-2.21,13.09L302.37,153.06z"/>
</g>
</svg>
