<?xml version="1.0" encoding="utf-8"?>
<!-- Generator: Adobe Illustrator 24.1.2, SVG Export Plug-In . SVG Version: 6.00 Build 0)  -->
<svg version="1.1" id="Warstwa_1" xmlns="http://www.w3.org/2000/svg" xmlns:xlink="http://www.w3.org/1999/xlink" x="0px" y="0px"
	 viewBox="0 0 430 430" style="enable-background:new 0 0 430 430;" xml:space="preserve">
<style type="text/css">
	.st0{fill:#121331;}
	.st1{fill:#08a88a;}
	.st2{fill:#08a88a;}
	.st3{fill:none;}
	.st4{fill:none;stroke:#121331;stroke-width:12;stroke-linecap:round;stroke-linejoin:round;stroke-miterlimit:10;}
	.st5{fill:#08A385;}
	.st6{fill:none;stroke:#08a88a;stroke-width:12;stroke-linecap:round;stroke-linejoin:round;stroke-miterlimit:10;}
</style>
<g>
	<path class="st1" d="M290.76,204.9H139.24c-3.31,0-6-2.69-6-6s2.69-6,6-6h151.51c3.31,0,6,2.69,6,6S294.07,204.9,290.76,204.9z"/>
	<path class="st1" d="M291.95,173.74h-153.9c-3.31,0-6-2.69-6-6s2.69-6,6-6h153.9c3.31,0,6,2.69,6,6S295.26,173.74,291.95,173.74z"
		/>
	<path class="st1" d="M371.7,204.9h-41.78c-3.31,0-6-2.69-6-6s2.69-6,6-6h35.78v-19.16h-36.96c-3.31,0-6-2.69-6-6s2.69-6,6-6h42.96
		c3.31,0,6,2.69,6,6v31.16C377.7,202.21,375.01,204.9,371.7,204.9z"/>
	<path class="st1" d="M100.08,204.9H58.3c-3.31,0-6-2.69-6-6v-31.16c0-3.31,2.69-6,6-6h42.96c3.31,0,6,2.69,6,6s-2.69,6-6,6H64.3
		v19.16h35.78c3.31,0,6,2.69,6,6S103.39,204.9,100.08,204.9z"/>
	<path class="st0" d="M145.95,381.12h-52.6c-3.31,0-6-2.69-6-6s2.69-6,6-6h52.6c3.31,0,6,2.69,6,6S149.27,381.12,145.95,381.12z"/>
	<path class="st0" d="M336.64,381.12h-52.6c-3.31,0-6-2.69-6-6s2.69-6,6-6h52.6c3.31,0,6,2.69,6,6S339.96,381.12,336.64,381.12z"/>
	<path class="st0" d="M385.95,48.88c-6.13,0-12.08,1.84-17.12,5.1c-0.09,0.05-0.18,0.09-0.26,0.14
		c-32.55,19.92-57.41,30.02-73.9,30.02H135.33c-16.49,0-41.36-10.1-73.91-30.02c-0.09-0.05-0.17-0.09-0.26-0.14
		c-5.04-3.27-10.98-5.1-17.12-5.1c-3.31,0-6,2.69-6,6s2.69,6,6,6c6.72,0,13.07,3.56,16.58,9.28l8.86,14.45
		c7.27,11.85,16.79,21.92,27.8,29.69l-8.19,214.94c-0.13,3.31,2.46,6.1,5.77,6.22c0.08,0,0.16,0,0.23,0c3.21,0,5.87-2.54,5.99-5.77
		l7.94-208.29c6.83,3.51,14.06,6.2,21.55,7.97l7.63,200.31c0.12,3.23,2.78,5.77,5.99,5.77c0.08,0,0.15,0,0.23,0
		c3.31-0.13,5.89-2.91,5.77-6.22l-7.53-197.78c3.83,0.43,7.67,0.65,11.52,0.65h121.61c3.84,0,7.69-0.22,11.52-0.65l-7.53,197.78
		c-0.13,3.31,2.46,6.1,5.77,6.22c0.08,0,0.16,0,0.23,0c3.21,0,5.87-2.54,5.99-5.77l7.63-200.31c7.49-1.77,14.72-4.47,21.55-7.97
		l7.94,208.29c0.12,3.23,2.78,5.77,5.99,5.77c0.08,0,0.15,0,0.23,0c3.31-0.13,5.89-2.91,5.77-6.22l-8.19-214.94
		c11.01-7.77,20.54-17.85,27.8-29.69l8.87-14.45c3.51-5.72,9.86-9.28,16.58-9.28c3.31,0,6-2.69,6-6S389.26,48.88,385.95,48.88z
		 M294.3,118.23c-0.53,0.11-1.05,0.2-1.58,0.3c-0.19,0.03-0.38,0.06-0.56,0.11c-5.39,0.97-10.88,1.47-16.36,1.47H154.19
		c-6.2,0-12.43-0.63-18.5-1.88c-22.91-4.7-43.31-19.24-55.97-39.89l-0.01-0.01c23.03,11.96,41.36,17.82,55.61,17.82h159.33
		c14.26,0,32.59-5.86,55.62-17.82l-0.01,0.01C337.61,98.99,317.21,113.53,294.3,118.23z"/>
	<path class="st1" d="M152.53,381.12H86.78c-3.31,0-6-2.69-6-6v-45.65c0-3.31,2.69-6,6-6h65.75c3.31,0,6,2.69,6,6v45.65
		C158.53,378.43,155.84,381.12,152.53,381.12z M92.78,369.12h53.75v-33.65H92.78V369.12z"/>
	<path class="st1" d="M343.22,381.12h-65.75c-3.31,0-6-2.69-6-6v-45.65c0-3.31,2.69-6,6-6h65.75c3.31,0,6,2.69,6,6v45.65
		C349.22,378.43,346.53,381.12,343.22,381.12z M283.47,369.12h53.75v-33.65h-53.75V369.12z"/>
</g>
</svg>
