<?xml version="1.0" encoding="utf-8"?>
<!-- Generator: Adobe Illustrator 24.0.2, SVG Export Plug-In . SVG Version: 6.00 Build 0)  -->
<svg version="1.1" xmlns="http://www.w3.org/2000/svg" xmlns:xlink="http://www.w3.org/1999/xlink" x="0px" y="0px"
	 viewBox="0 0 24 24" style="enable-background:new 0 0 24 24;" xml:space="preserve">
<style type="text/css">
	.st0{fill:none;}
	.st1{fill:#121331;}
</style>
<g id="bounding_area">
	<rect class="st0" width="24" height="24"/>
</g>
<g id="design">
	<g>
		<path class="st1" d="M12,2c-0.88,0-1.6,0.72-1.6,1.6v0.8C10.4,5.28,11.12,6,12,6h0.8c0.44,0,0.8-0.36,0.8-0.8V3.6
			C13.6,2.72,12.88,2,12,2L12,2z"/>
		<path class="st1" d="M21,7.87L21,7.87c0,0.48-0.39,0.88-0.88,0.88h-4.38c-0.55,0-1,0.45-1,1v11.37c0,0.49-0.39,0.88-0.88,0.88
			C13.39,22,13,21.61,13,21.12V15c0-0.55-0.45-1-1-1s-1,0.45-1,1v6.12c0,0.49-0.39,0.88-0.88,0.88c-0.48,0-0.87-0.39-0.87-0.88V9.75
			c0-0.55-0.45-1-1-1H3.87C3.39,8.75,3,8.36,3,7.88v0C3,7.39,3.39,7,3.87,7h16.25C20.61,7,21,7.39,21,7.87z"/>
	</g>
</g>
</svg>
