<?xml version="1.0" encoding="utf-8"?>
<!-- Generator: Adobe Illustrator 24.1.2, SVG Export Plug-In . SVG Version: 6.00 Build 0)  -->
<svg version="1.1" id="Warstwa_1" xmlns="http://www.w3.org/2000/svg" xmlns:xlink="http://www.w3.org/1999/xlink" x="0px" y="0px"
	 viewBox="0 0 430 430" style="enable-background:new 0 0 430 430;" xml:space="preserve">
<style type="text/css">
	.st0{fill:#08a88a;}
	.st1{fill:#121331;}
	.st2{fill:none;}
	.st3{fill:none;stroke:#08a88a;stroke-width:12;stroke-linecap:round;stroke-linejoin:round;stroke-miterlimit:10;}
	.st4{fill:#08a88a;}
	.st5{fill:none;stroke:#121331;stroke-width:12;stroke-linecap:round;stroke-linejoin:round;stroke-miterlimit:10;}
</style>
<g>
	<g>
		<g>
			<path class="st0" d="M188.06,295.54c-3.31,0-6-2.69-6-6v-14.69c0-3.31,2.69-6,6-6s6,2.69,6,6v14.69
				C194.06,292.85,191.37,295.54,188.06,295.54z"/>
		</g>
		<g>
			<path class="st0" d="M162.64,295.54c-3.31,0-6-2.69-6-6v-14.69c0-3.31,2.69-6,6-6s6,2.69,6,6v14.69
				C168.64,292.85,165.95,295.54,162.64,295.54z"/>
		</g>
	</g>
	<path class="st0" d="M137.85,376.92c-3.31,0-6-2.69-6-6v-29.77c0-4.31-2.34-8.62-6.67-12.41c-4.33,3.79-6.67,8.1-6.67,12.41v29.77
		c0,3.31-2.69,6-6,6s-6-2.69-6-6v-29.77c0-9.44,5.44-18.29,15.32-24.93c2.02-1.36,4.67-1.36,6.69,0
		c9.88,6.64,15.32,15.5,15.32,24.93v29.77C143.85,374.23,141.16,376.92,137.85,376.92z"/>
	<g>
		<path class="st0" d="M250.24,295.54c-3.31,0-6-2.69-6-6v-14.69c0-3.31,2.69-6,6-6s6,2.69,6,6v14.69
			C256.24,292.85,253.56,295.54,250.24,295.54z"/>
	</g>
	<g>
		<g>
			<path class="st0" d="M188.06,339.6c-3.31,0-6-2.69-6-6v-14.69c0-3.31,2.69-6,6-6s6,2.69,6,6v14.69
				C194.06,336.91,191.37,339.6,188.06,339.6z"/>
		</g>
		<g>
			<path class="st0" d="M162.64,339.6c-3.31,0-6-2.69-6-6v-14.69c0-3.31,2.69-6,6-6s6,2.69,6,6v14.69
				C168.64,336.91,165.95,339.6,162.64,339.6z"/>
		</g>
	</g>
	<path class="st1" d="M281.27,231.27v-19.96c0-3.31-2.69-6-6-6h-6.67v-13.99c0-3.31-2.69-6-6-6h-6.36v-12.1c0-3.31-2.69-6-6-6
		s-6,2.69-6,6v12.1h-6.35c-3.31,0-6,2.69-6,6v13.99h-6.67c-2.99,0-5.46,2.19-5.92,5.05l-15.21-24.33v-27.85c0-3.31-2.69-6-6-6
		s-6,2.69-6,6v8.65l-10.75-17.2v-18.26c0-3.31-2.69-6-6-6s-6,2.69-6,6v18.27l-10.84,17.35v-8.81c0-3.31-2.69-6-6-6s-6,2.69-6,6
		v28.01l-15.19,24.3c-0.4-2.92-2.9-5.17-5.94-5.17h-6.67v-13.99c0-3.31-2.69-6-6-6h-6.36v-12.1c0-3.31-2.69-6-6-6s-6,2.69-6,6v12.1
		H88c-0.87,0-1.69,0.19-2.44,0.52l-6.09-22.36v-31.21c0-3.31-2.69-6-6-6s-6,2.69-6,6v31.99l-17.82,65.45
		c-0.01,0.04-0.02,0.08-0.02,0.12c-0.04,0.15-0.07,0.3-0.09,0.45c-0.01,0.08-0.02,0.15-0.03,0.23c-0.02,0.14-0.03,0.27-0.04,0.41
		c-0.01,0.09-0.01,0.17-0.01,0.26c0,0.04-0.01,0.08-0.01,0.11v139.89c0,3.31,2.69,6,6,6h36.18c0.03,0,0.07,0.01,0.1,0.01h140.82
		c-0.81-1.83-1.13-3.9-1.13-6.01l-0.11-5.87V237.3h37.96v58.79c4.11-1.33,8.11-2.55,12-3.67V231.3
		C281.27,231.29,281.27,231.28,281.27,231.27z M237.89,217.31c3.31,0,6-2.69,6-6v-13.99h12.71v13.99c0,3.31,2.69,6,6,6h6.67v7.98
		h-38.05v-7.98H237.89z M167.62,231.32c0-0.01,0-0.02,0-0.03s0-0.02,0-0.03v-12.45h15.46v26.05h-15.46V231.32z M161.62,206.81
		c-3.31,0-6,2.69-6,6v12.48h-19.4L153,198.44h44.71l16.78,26.85h-19.41v-12.48c0-3.31-2.69-6-6-6H161.62z M175.35,162.68
		l14.85,23.77H160.5L175.35,162.68z M94,197.33h12.71v13.99c0,3.31,2.69,6,6,6h6.67v7.98H96.31l-3.03-11.13
		c0.46-0.85,0.72-1.82,0.72-2.86V197.33z M85.73,277.56H61.45v-10.29h24.28V277.56z M85.73,255.27H61.45v-17.98h24.28V255.27z
		 M61.45,289.56h24.28V318H61.45V289.56z M73.59,187.51l6.93,25.45c0.01,0.05,0.03,0.11,0.04,0.16l3.32,12.18H63.3L73.59,187.51z
		 M61.45,365.18V330h24.28v35.18H61.45z M97.73,237.3h27.65c0,0,0,0,0,0c0,0,0,0,0,0c0,0,0,0,0,0h30.23v13.56c0,3.31,2.69,6,6,6
		h27.46c3.31,0,6-2.69,6-6V237.3h24.23v127.89H97.73V237.3z"/>
	<g>
		<g>
			<path class="st1" d="M275.33,358.93h-3.67c-3.31,0-6-2.69-6-6s2.69-6,6-6h3.67c3.31,0,6,2.69,6,6S278.64,358.93,275.33,358.93z"
				/>
			<path class="st1" d="M275.33,339.74h-3.67c-3.31,0-6-2.69-6-6s2.69-6,6-6h3.67c3.31,0,6,2.69,6,6S278.64,339.74,275.33,339.74z"
				/>
		</g>
		<g>
			<path class="st0" d="M302.29,358.93h-3.67c-3.31,0-6-2.69-6-6s2.69-6,6-6h3.67c3.31,0,6,2.69,6,6S305.61,358.93,302.29,358.93z"
				/>
			<path class="st1" d="M302.29,339.74h-3.67c-3.31,0-6-2.69-6-6s2.69-6,6-6h3.67c3.31,0,6,2.69,6,6S305.61,339.74,302.29,339.74z"
				/>
		</g>
		<g>
			<path class="st1" d="M329.27,358.93h-3.67c-3.31,0-6-2.69-6-6s2.69-6,6-6h3.67c3.31,0,6,2.69,6,6S332.58,358.93,329.27,358.93z"
				/>
			<path class="st0" d="M329.27,339.74h-3.67c-3.31,0-6-2.69-6-6s2.69-6,6-6h3.67c3.31,0,6,2.69,6,6S332.58,339.74,329.27,339.74z"
				/>
		</g>
	</g>
	<path class="st1" d="M378.46,75.1c-1.33-1.14-3.09-1.64-4.83-1.37c-0.74,0.12-9.9,1.61-23.32,6.06v-7.2c0-3.31-2.69-6-6-6
		s-6,2.69-6,6V84.2c-11.09,4.46-23.77,10.68-36.52,19.25c-1.66,1.11-2.65,2.98-2.65,4.98v191.61c-15.08,3.7-32.7,9.06-51.87,16.8
		c-2.27,0.92-3.75,3.12-3.75,5.56v48.77c0,3.31,2.69,6,6,6h97.22h4.69h23.14c3.31,0,6-2.69,6-6V79.66
		C380.55,77.9,379.79,76.24,378.46,75.1z M255.51,326.48c42.08-16.46,76.41-21.04,89.91-22.28v60.98h-89.91V326.48z M368.55,365.18
		h-11.14v-67.41c0-1.62-0.66-3.17-1.82-4.3c-1.16-1.13-2.75-1.74-4.35-1.69c-1.07,0.03-16.23,0.55-40.11,5.54V111.66
		c23.24-15,46.27-21.9,57.42-24.6V365.18z"/>
	<g>
		<path class="st0" d="M352.41,197.42c-3.31,0-6-2.69-6-6V121.1c0-3.31,2.69-6,6-6s6,2.69,6,6v70.33
			C358.41,194.74,355.73,197.42,352.41,197.42z"/>
		<path class="st0" d="M328.4,198.65h-3.67c-3.31,0-6-2.69-6-6s2.69-6,6-6h3.67c3.31,0,6,2.69,6,6S331.71,198.65,328.4,198.65z"/>
		<path class="st1" d="M328.4,175.08h-3.67c-3.31,0-6-2.69-6-6s2.69-6,6-6h3.67c3.31,0,6,2.69,6,6S331.71,175.08,328.4,175.08z"/>
		<path class="st0" d="M328.4,151.52h-3.67c-3.31,0-6-2.69-6-6s2.69-6,6-6h3.67c3.31,0,6,2.69,6,6S331.71,151.52,328.4,151.52z"/>
		<path class="st1" d="M328.4,127.96h-3.67c-3.31,0-6-2.69-6-6s2.69-6,6-6h3.67c3.31,0,6,2.69,6,6S331.71,127.96,328.4,127.96z"/>
		<g>
			<g>
				<path class="st0" d="M328.4,245.77h-3.67c-3.31,0-6-2.69-6-6s2.69-6,6-6h3.67c3.31,0,6,2.69,6,6S331.71,245.77,328.4,245.77z"/>
				<path class="st1" d="M328.4,222.21h-3.67c-3.31,0-6-2.69-6-6s2.69-6,6-6h3.67c3.31,0,6,2.69,6,6S331.71,222.21,328.4,222.21z"/>
			</g>
			<g>
				<path class="st0" d="M354.25,245.77h-3.67c-3.31,0-6-2.69-6-6s2.69-6,6-6h3.67c3.31,0,6,2.69,6,6S357.56,245.77,354.25,245.77z"
					/>
				<path class="st1" d="M354.25,222.21h-3.67c-3.31,0-6-2.69-6-6s2.69-6,6-6h3.67c3.31,0,6,2.69,6,6S357.56,222.21,354.25,222.21z"
					/>
			</g>
		</g>
		<path class="st0" d="M328.4,269.21h-3.67c-3.31,0-6-2.69-6-6s2.69-6,6-6h3.67c3.31,0,6,2.69,6,6S331.71,269.21,328.4,269.21z"/>
		<path class="st1" d="M354.25,269.21h-3.67c-3.31,0-6-2.69-6-6s2.69-6,6-6h3.67c3.31,0,6,2.69,6,6S357.56,269.21,354.25,269.21z"/>
	</g>
	<path class="st0" d="M91.32,157.58c1.97-1.12,4.16-1.89,6.5-2.2c9.88-11.45,21.04-25.93,29.27-41v10.88c0,0.01,0,0.01,0,0.02v55.46
		c1.75,2.39,2.92,5.24,3.31,8.32l3.95-6.32v-24.57c0-4.69,1.81-8.94,4.74-12.15v-18.95c15.07-22.18,24.81-26.78,37.07-32.56
		c5.57-2.63,11.78-5.56,18.96-10.36c7.18,4.8,13.39,7.73,18.96,10.36c12.26,5.78,22,10.39,37.07,32.56v28.2
		c4.72,0.28,8.95,2.36,12,5.59v-35.59c0-0.01,0-0.01,0-0.02v-10.88c6.78,12.43,15.57,24.46,23.98,34.72v-19.54
		c-12.75-17.32-23.98-37.29-23.98-53.94c0-0.03,0-0.05,0-0.08c0-0.13-0.01-0.26-0.02-0.39c-0.01-0.07-0.01-0.15-0.02-0.22
		c-0.01-0.11-0.03-0.23-0.05-0.34c-0.02-0.09-0.03-0.18-0.05-0.27c-0.01-0.07-0.03-0.13-0.05-0.2c-0.01-0.05-0.02-0.09-0.04-0.14
		c-0.02-0.08-0.05-0.17-0.08-0.25c-0.02-0.07-0.05-0.14-0.08-0.22c-0.02-0.06-0.04-0.11-0.06-0.17c0-0.01-0.01-0.02-0.01-0.03
		c-0.02-0.05-0.05-0.1-0.07-0.15c-0.01-0.02-0.02-0.05-0.03-0.07c-0.02-0.04-0.05-0.08-0.07-0.13c-0.05-0.1-0.1-0.2-0.15-0.29
		c-0.01-0.02-0.03-0.05-0.04-0.07c-0.04-0.06-0.08-0.12-0.11-0.18c-0.05-0.09-0.11-0.17-0.17-0.26c-0.04-0.05-0.07-0.11-0.11-0.16
		c-0.02-0.03-0.04-0.05-0.06-0.08c0-0.01-0.01-0.01-0.01-0.02c-0.05-0.07-0.11-0.13-0.16-0.2c-0.07-0.09-0.15-0.17-0.23-0.25
		c0,0,0,0,0,0c-0.02-0.02-0.04-0.05-0.06-0.07c-0.03-0.03-0.07-0.06-0.1-0.09c-0.08-0.08-0.17-0.16-0.25-0.23
		c-0.06-0.05-0.11-0.1-0.17-0.14c-0.03-0.02-0.05-0.04-0.08-0.07c-0.06-0.05-0.13-0.09-0.19-0.14c-0.08-0.05-0.15-0.11-0.23-0.16
		c-0.06-0.04-0.12-0.08-0.18-0.11c-0.01-0.01-0.02-0.01-0.02-0.02c-0.04-0.03-0.09-0.05-0.13-0.07c-0.02-0.01-0.04-0.02-0.05-0.03
		c-19.82-11.54-42.01-17.37-64.22-17.48c-0.21-0.02-0.43-0.04-0.65-0.04s-0.44,0.01-0.65,0.04c-22.21,0.11-44.39,5.93-64.22,17.48
		c-0.02,0.01-0.04,0.02-0.05,0.03c-0.04,0.03-0.09,0.05-0.13,0.07c-0.01,0.01-0.02,0.01-0.03,0.02c-0.06,0.03-0.11,0.07-0.17,0.11
		c-0.08,0.05-0.16,0.11-0.24,0.16c-0.06,0.04-0.13,0.09-0.19,0.14c-0.03,0.02-0.06,0.04-0.08,0.07c-0.06,0.05-0.12,0.09-0.17,0.14
		c-0.09,0.07-0.17,0.15-0.25,0.23c-0.03,0.03-0.07,0.06-0.1,0.09c-0.02,0.02-0.04,0.05-0.07,0.07c0,0,0,0,0,0
		c-0.08,0.08-0.15,0.16-0.23,0.25c-0.06,0.06-0.11,0.13-0.16,0.2c0,0.01-0.01,0.01-0.01,0.02c-0.02,0.03-0.04,0.05-0.06,0.08
		c-0.04,0.05-0.07,0.1-0.11,0.16c-0.06,0.08-0.11,0.17-0.17,0.25c-0.04,0.06-0.08,0.12-0.12,0.19c-0.01,0.02-0.03,0.05-0.04,0.07
		c-0.05,0.1-0.1,0.19-0.15,0.29c-0.02,0.04-0.05,0.08-0.07,0.13c-0.01,0.02-0.02,0.05-0.03,0.07c-0.02,0.05-0.05,0.1-0.07,0.15
		c0,0.01-0.01,0.02-0.01,0.03c-0.02,0.06-0.04,0.11-0.06,0.17c-0.03,0.07-0.05,0.14-0.08,0.22c-0.03,0.08-0.05,0.17-0.08,0.25
		c-0.01,0.05-0.03,0.09-0.04,0.14c-0.02,0.07-0.03,0.13-0.05,0.2c-0.02,0.09-0.03,0.18-0.05,0.27c-0.02,0.11-0.04,0.23-0.05,0.34
		c-0.01,0.07-0.01,0.15-0.02,0.22c-0.01,0.13-0.02,0.26-0.02,0.39c0,0.03,0,0.05,0,0.08c0,21.72-19.1,49.09-35.77,68.85V157.58z
		 M251.15,107.18c-5.75-6.74-10.97-11.32-15.96-14.78l15.96-7.4V107.18z M201.12,65c14.51,0.74,28.91,4.18,42.4,10.31l-21.2,9.82
		c-1.04-0.5-2.08-0.99-3.13-1.48c-5.6-2.64-11.37-5.37-18.08-9.93V65z M189.12,65v8.72c-6.7,4.56-12.48,7.29-18.08,9.93
		c-1.05,0.49-2.09,0.99-3.13,1.48l-21.2-9.82C160.22,69.18,174.61,65.75,189.12,65z M139.09,85.01l15.96,7.4
		c-4.99,3.46-10.22,8.03-15.96,14.78V85.01z"/>
</g>
</svg>
