<?xml version="1.0" encoding="utf-8"?>
<!-- Generator: Adobe Illustrator 24.1.2, SVG Export Plug-In . SVG Version: 6.00 Build 0)  -->
<svg version="1.1" id="Warstwa_1" xmlns="http://www.w3.org/2000/svg" xmlns:xlink="http://www.w3.org/1999/xlink" x="0px" y="0px"
	 viewBox="0 0 430 430" style="enable-background:new 0 0 430 430;" xml:space="preserve">
<style type="text/css">
	.st0{fill:#08a88a;}
	.st1{fill:#121331;}
	.st2{fill:none;}
	.st3{fill:none;stroke:#08a88a;stroke-width:12;stroke-linecap:round;stroke-linejoin:round;stroke-miterlimit:10;}
	.st4{fill:#08a88a;}
	.st5{fill:none;stroke:#121331;stroke-width:12;stroke-linecap:round;stroke-linejoin:round;stroke-miterlimit:10;}
</style>
<g>
	<g>
		<path class="st0" d="M200.53,293.97h-30.42c-3.31,0-6-2.69-6-6v-30.42c0-3.31,2.69-6,6-6h30.42c3.31,0,6,2.69,6,6v30.42
			C206.53,291.28,203.84,293.97,200.53,293.97z M176.11,281.97h18.42v-18.42h-18.42V281.97z"/>
		<path class="st0" d="M251.82,293.97h-30.42c-3.31,0-6-2.69-6-6v-30.42c0-3.31,2.69-6,6-6h30.42c3.31,0,6,2.69,6,6v30.42
			C257.82,291.28,255.13,293.97,251.82,293.97z M227.41,281.97h18.42v-18.42h-18.42V281.97z"/>
	</g>
	<g>
		<path class="st0" d="M327.34,305.33h-22.71c-3.31,0-6-2.69-6-6v-30.42c0-3.31,2.69-6,6-6h22.71c3.31,0,6,2.69,6,6v30.42
			C333.34,302.64,330.66,305.33,327.34,305.33z M310.64,293.33h10.71v-18.42h-10.71V293.33z"/>
		<path class="st0" d="M372.14,305.33h-22.71c-3.31,0-6-2.69-6-6v-30.42c0-3.31,2.69-6,6-6h22.71c3.31,0,6,2.69,6,6v30.42
			C378.14,302.64,375.45,305.33,372.14,305.33z M355.43,293.33h10.71v-18.42h-10.71V293.33z"/>
	</g>
	<path class="st1" d="M401.6,191.55H281.17v-32.51c0-3.31-2.69-6-6-6H157.49c0.7,4.02,0.75,8.06,0.19,12h111.49v32.46
		c0,0.01,0,0.03,0,0.04s0,0.03,0,0.04v18.4H162.14l-3.88,8.78v3.22h110.92v12.24c0,0.01,0,0.03,0,0.04s0,0.03,0,0.04v130.94h-9.97
		v-35.38c0-11.94-9.72-21.66-21.66-21.66s-21.66,9.72-21.66,21.66v35.38h-8.89v-35.38c0-11.94-9.72-21.66-21.66-21.66
		c-11.94,0-21.66,9.72-21.66,21.66v35.38h-5.4v6c0,2.11-0.38,4.12-1.05,6h117.96c0,0,0.01,0,0.01,0H401.6c3.31,0,6-2.69,6-6V240.27
		v-42.72C407.6,194.24,404.92,191.55,401.6,191.55z M395.6,203.55v30.72H281.17v-12.13v-0.15v-18.44H395.6z M227.88,335.88
		c0-5.33,4.33-9.66,9.66-9.66s9.66,4.33,9.66,9.66v35.38h-19.32V335.88z M175.66,335.88c0-5.33,4.33-9.66,9.66-9.66
		s9.66,4.33,9.66,9.66v35.38h-19.33V335.88z M321.94,371.25h-19.32v-35.38c0-5.33,4.33-9.66,9.66-9.66s9.66,4.33,9.66,9.66V371.25z
		 M374.16,371.25h-19.32v-35.38c0-5.33,4.33-9.66,9.66-9.66s9.66,4.33,9.66,9.66V371.25z M395.6,371.25h-9.45v-35.38
		c0-11.94-9.72-21.66-21.66-21.66s-21.66,9.72-21.66,21.66v35.38h-8.9v-35.38c0-11.94-9.72-21.66-21.66-21.66
		s-21.66,9.72-21.66,21.66v35.38h-9.44V246.27H395.6V371.25z"/>
	<path class="st0" d="M89.41,270.45c-9.92,0-17.99-8.07-17.99-17.99c0-9.92,8.07-17.99,17.99-17.99s17.99,8.07,17.99,17.99
		C107.4,262.38,99.33,270.45,89.41,270.45z M89.41,246.47c-3.3,0-5.99,2.69-5.99,5.99c0,3.3,2.69,5.99,5.99,5.99
		s5.99-2.69,5.99-5.99C95.4,249.16,92.71,246.47,89.41,246.47z"/>
	<path class="st0" d="M99.66,344.37h-20.5c-3.31,0-6-2.69-6-6v-27.76c0-3.31,2.69-6,6-6h20.5c3.31,0,6,2.69,6,6v27.76
		C105.66,341.68,102.97,344.37,99.66,344.37z M85.16,332.37h8.5v-15.76h-8.5V332.37z"/>
	<path class="st1" d="M152.85,192.49c-3.03-1.34-6.57,0.03-7.91,3.06l-8.59,19.42H42.47l-8.59-19.42c-1.34-3.03-4.88-4.4-7.91-3.06
		c-3.03,1.34-4.4,4.88-3.06,7.91l9.66,21.84v155.01c0,3.31,2.69,6,6,6h101.69c3.31,0,6-2.69,6-6V222.24l9.66-21.84
		C157.25,197.38,155.88,193.83,152.85,192.49z M55.82,282.01c-0.5-0.14-1.03-0.22-1.58-0.22h-9.68v-10.64h8.8c3.31,0,6-2.69,6-6
		s-2.69-6-6-6h-8.8v-10.64h12.31c3.31,0,6-2.69,6-6s-2.69-6-6-6H44.56v-9.53h89.69v9.53h-12.31c-3.31,0-6,2.69-6,6s2.69,6,6,6h12.31
		v10.64h-8.8c-3.31,0-6,2.69-6,6s2.69,6,6,6h8.8v10.64h-9.68c-0.55,0-1.08,0.08-1.58,0.22H55.82z M44.56,371.25v-9.53h12.31
		c3.31,0,6-2.69,6-6s-2.69-6-6-6H44.56v-10.64h8.8c3.31,0,6-2.69,6-6s-2.69-6-6-6h-8.8v-10.64h12.31c3.31,0,6-2.69,6-6s-2.69-6-6-6
		H44.56v-10.42h89.69v10.42h-12.31c-3.31,0-6,2.69-6,6s2.69,6,6,6h12.31v10.64h-8.8c-3.31,0-6,2.69-6,6s2.69,6,6,6h8.8v10.64h-12.31
		c-3.31,0-6,2.69-6,6s2.69,6,6,6h12.31v9.53H44.56z"/>
	<path class="st0" d="M153.53,192.85l-18.81-11.38c1.95-1.37,3.73-3.01,5.28-4.9c5.08-6.18,7.11-14.24,5.57-22.09
		c-2-10.18-10.99-17.57-21.37-17.57c-5.4,0-9.8-4.4-9.8-9.8v-2.23v-19.94h8.39c3.31,0,6-2.69,6-6s-2.69-6-6-6h-3.29
		c0.6-2.3,0.69-4.74,0.22-7.14c-1.26-6.39-6.9-11.02-13.41-11.02c-0.92,0-1.67-0.75-1.67-1.67v-5.9c0-3.31-2.69-6-6-6h-3.23V46.75
		c0-3.31-2.69-6-6-6s-6,2.69-6,6V61.2h-3.23c-3.31,0-6,2.69-6,6v5.9c0,0.92-0.75,1.67-1.67,1.67c-6.51,0-12.15,4.64-13.41,11.02
		c-0.47,2.4-0.38,4.84,0.22,7.14h-3.29c-3.31,0-6,2.69-6,6s2.69,6,6,6h8.39v19.94v2.23c0,5.4-4.39,9.8-9.8,9.8
		c-10.38,0-19.36,7.39-21.37,17.57c-1.55,7.85,0.48,15.91,5.57,22.09c1.63,1.98,3.51,3.69,5.58,5.1L25.37,192.8
		c-2.34,1.37-3.47,4.13-2.76,6.75c0.71,2.62,3.08,4.43,5.79,4.43h122.03c2.69,0,5.06-1.79,5.78-4.39
		C156.93,197,155.83,194.24,153.53,192.85z M70.88,88.11c0.15-0.78,0.84-1.34,1.63-1.34c7.51,0,13.62-6.08,13.67-13.57h6.45
		c0.06,7.49,6.17,13.57,13.67,13.57c0.79,0,1.48,0.56,1.63,1.34c0.32,1.63-0.39,2.8-0.84,3.35c-0.45,0.55-1.46,1.47-3.12,1.47H74.84
		c-1.66,0-2.67-0.92-3.12-1.47C71.27,90.91,70.55,89.74,70.88,88.11z M102.4,104.93v13.94h-6.99v-13.94H102.4z M83.41,104.93v13.94
		h-6.99v-13.94H83.41z M50.54,191.98l9.71-5.68h59.27l9.39,5.68H50.54z M130.73,168.95c-2.8,3.4-6.93,5.35-11.33,5.35H95.54
		c-0.02,0-0.04,0-0.07,0s-0.04,0-0.07,0H59.42c-4.4,0-8.53-1.95-11.33-5.35c-2.8-3.4-3.91-7.83-3.06-12.15
		c0.9-4.57,4.93-7.89,9.59-7.89c10.73,0,19.68-7.8,21.47-18.03h26.64c1.79,10.23,10.74,18.03,21.47,18.03
		c4.66,0,8.69,3.32,9.59,7.89C134.64,161.12,133.53,165.54,130.73,168.95z"/>
</g>
</svg>
