<?xml version="1.0" encoding="utf-8"?>
<!-- Generator: Adobe Illustrator 24.1.2, SVG Export Plug-In . SVG Version: 6.00 Build 0)  -->
<svg version="1.1" id="Warstwa_1" xmlns="http://www.w3.org/2000/svg" xmlns:xlink="http://www.w3.org/1999/xlink" x="0px" y="0px"
	 viewBox="0 0 430 430" style="enable-background:new 0 0 430 430;" xml:space="preserve">
<style type="text/css">
	.st0{fill:#08a88a;}
	.st1{fill:#121331;}
	.st2{fill:none;}
	.st3{fill:none;stroke:#08a88a;stroke-width:12;stroke-linecap:round;stroke-linejoin:round;stroke-miterlimit:10;}
	.st4{fill:#08a88a;}
	.st5{fill:none;stroke:#121331;stroke-width:12;stroke-linecap:round;stroke-linejoin:round;stroke-miterlimit:10;}
</style>
<g>
	<path class="st0" d="M210.27,304.84c-1.01-0.77-2.27-1.24-3.64-1.24h-11.52v-51.47c3.21-3.06,6.48-5.22,9.79-6.48
		c-0.08-4.18-0.09-8.34-0.04-12.49c-3.32,0.78-6.59,2.11-9.76,3.98v-13.08h9.98c0.14-4.02,0.34-8.02,0.61-12h-14.15l-30.98-27.51
		c-2.27-2.02-5.7-2.02-7.97,0l-30.98,27.51H96.12l46.14-34.4h28.65l35.42,26.4c0.76-8.58,1.82-17.05,3.17-25.41h-17.18l-13.41-10
		v-19.25h3.8c2.05,0,3.96-1.04,5.06-2.77c1.1-1.73,1.25-3.9,0.38-5.75l-7.99-17.21c-0.89-1.91-2.71-3.2-4.77-3.44
		c0.37-1.51,0.56-3.08,0.56-4.68c0-8.6-8.75-44.92-13.71-58.85c-0.85-2.39-3.11-3.98-5.64-3.99c0,0-0.01,0-0.01,0
		c-2.53,0-4.79,1.59-5.65,3.97c-4.97,13.79-13.71,50.1-13.71,58.87c0,1.6,0.19,3.17,0.56,4.68c-2.07,0.23-3.89,1.52-4.78,3.44
		l-7.98,17.21c-0.86,1.86-0.72,4.03,0.39,5.75c1.1,1.73,3.01,2.77,5.06,2.77h3.8v19.25l-13.41,10H84.37c-2.88,0-5.36,2.05-5.89,4.88
		l-6.32,33.28c-0.01,0.03-0.01,0.07-0.02,0.1l0,0.02c0,0.02,0,0.04-0.01,0.05c0,0.03-0.01,0.05-0.01,0.08
		c-0.01,0.06-0.02,0.12-0.03,0.17c-0.01,0.09-0.03,0.18-0.03,0.28c-0.01,0.06-0.01,0.11-0.01,0.17c-0.01,0.12-0.02,0.24-0.02,0.37
		v0.02c0,0,0,0,0,0.01v120.83c0,3.31,2.69,6,6,6s6-2.69,6-6v-86.64c5.47-5.27,11.13-7.94,16.86-7.94c5.84,0,11.61,2.77,17.17,8.24
		v51.04h-11.52c-3.31,0-6,2.69-6,6v29.31c0,3.31,2.69,6,6,6h100.09c3.31,0,6-2.69,6-6v-20.7
		C211.81,313.91,211.01,309.46,210.27,304.84z M166.9,165.65h-20.63v-16.26h20.63V165.65z M142.28,132.18h6.22
		c2.58,0,4.86-1.64,5.69-4.08c0.82-2.44,0-5.13-2.06-6.69c-1.85-1.41-2.91-3.54-2.91-5.87c0-4.18,3.5-20.8,7.35-35.62
		c3.86,14.88,7.37,31.52,7.37,35.62c0,2.32-1.06,4.46-2.91,5.87c-2.05,1.56-2.88,4.25-2.06,6.69c0.82,2.44,3.11,4.08,5.69,4.08h6.22
		l2.42,5.21h-33.43L142.28,132.18z M156.59,197.05l16.89,15H139.7L156.59,197.05z M130.06,224.05h53.06V239
		c-8.43-5.98-17.43-9.1-26.53-9.1c-9.09,0-18.1,3.12-26.53,9.1V224.05z M130.06,254.66c8.51-8.47,17.42-12.76,26.53-12.76
		c9.11,0,18.02,4.29,26.53,12.76v48.95h-53.06V254.66z M89.34,190.64h15.42L86.8,204.03L89.34,190.64z M100.89,232.33
		c-5.76,0-11.45,1.68-16.86,4.89v-13.17h34.03v13.35C112.56,234.06,106.76,232.33,100.89,232.33z M200.63,332.91h-88.09V315.6h88.09
		V332.91z"/>
	<path class="st1" d="M276.61,383.3h-28.84c-2.42,0-4.61-1.46-5.54-3.7c-0.75-1.81-18.44-44.93-23.86-106.86
		c-3.19-36.4-1.41-71.7,5.28-104.91c8.38-41.61,24.54-80.02,48.02-114.17c1.49-2.17,4.21-3.11,6.72-2.33
		c2.51,0.78,4.22,3.1,4.22,5.73v61.7c0,3.31-2.69,6-6,6s-6-2.69-6-6V77.64c-40.8,69.37-44.74,142.68-40.32,193.67
		c4.34,50.07,17.28,88.32,21.6,99.99h18.72v-81.92c0-3.31,2.69-6,6-6s6,2.69,6,6v87.92C282.61,380.61,279.93,383.3,276.61,383.3z"/>
	<path class="st1" d="M276.61,231.91c-3.31,0-6-2.69-6-6v-67.64c0-3.31,2.69-6,6-6s6,2.69,6,6v67.64
		C282.61,229.22,279.93,231.91,276.61,231.91z"/>
	<path class="st1" d="M304.19,227.21c-3.31,0-6-2.69-6-6v-61.39c0-3.31,2.69-6,6-6s6,2.69,6,6v61.39
		C310.19,224.52,307.51,227.21,304.19,227.21z"/>
	<path class="st1" d="M333.03,383.3h-28.84c-3.31,0-6-2.69-6-6v-82.37c0-3.31,2.69-6,6-6s6,2.69,6,6v76.37h18.72
		c3.34-9.01,11.84-33.87,17.49-67.68c2.98-17.73,4.78-35.61,5.36-53.17c2.13-64.49-11.84-122.54-41.57-172.85v41.16
		c0,3.31-2.69,6-6,6s-6-2.69-6-6v-61.7c0-2.63,1.71-4.95,4.22-5.73c2.51-0.78,5.24,0.17,6.72,2.33
		c38.71,56.28,57.09,122.62,54.62,197.19c-0.6,18.09-2.46,36.51-5.52,54.75c-7.38,44.14-19.17,72.8-19.67,74
		C337.64,381.84,335.46,383.3,333.03,383.3z"/>
	<path class="st0" d="M291.41,169.8c-15.73,0-28.53-12.8-28.53-28.53v-22.53c0-3.31,2.69-6,6-6h45.05c3.31,0,6,2.69,6,6v22.53
		C319.93,157.01,307.13,169.8,291.41,169.8z M274.88,124.75v16.53c0,9.11,7.41,16.53,16.53,16.53s16.53-7.41,16.53-16.53v-16.53
		H274.88z"/>
	<path class="st0" d="M352.33,310.61c-0.39,0-0.79-0.04-1.18-0.12l-102.95-20.72c-2.8-0.56-4.82-3.02-4.82-5.88v-40.03
		c0-1.96,0.96-3.8,2.57-4.92l25.24-17.61c0.73-0.51,1.55-0.84,2.42-0.99l44.58-7.61c2.14-0.37,4.33,0.46,5.69,2.16
		c1.36,1.7,1.7,4.01,0.87,6.03l-9.47,23.14l42.57,0.59c1.61,0.02,3.15,0.69,4.26,1.86c1.11,1.17,1.71,2.73,1.66,4.34
		c-0.6,18.07-2.46,36.5-5.52,54.76c-0.27,1.6-1.18,3.03-2.51,3.95C354.72,310.25,353.53,310.61,352.33,310.61z M255.38,278.98
		l92.01,18.52c2.08-13.67,3.47-27.39,4.13-40.94l-45.22-0.63c-1.98-0.03-3.83-1.03-4.92-2.69s-1.3-3.75-0.55-5.58l8.71-21.28
		l-32.6,5.56l-21.57,15.05V278.98z"/>
</g>
</svg>
