<?xml version="1.0" encoding="utf-8"?>
<!-- Generator: Adobe Illustrator 24.1.2, SVG Export Plug-In . SVG Version: 6.00 Build 0)  -->
<svg version="1.1" id="Warstwa_1" xmlns="http://www.w3.org/2000/svg" xmlns:xlink="http://www.w3.org/1999/xlink" x="0px" y="0px"
	 viewBox="0 0 430 430" style="enable-background:new 0 0 430 430;" xml:space="preserve">
<style type="text/css">
	.st0{fill:#08a88a;}
	.st1{fill:#121331;}
	.st2{fill:none;}
	.st3{fill:none;stroke:#08a88a;stroke-width:12;stroke-linecap:round;stroke-linejoin:round;stroke-miterlimit:10;}
	.st4{fill:#08a88a;}
	.st5{fill:none;stroke:#121331;stroke-width:12;stroke-linecap:round;stroke-linejoin:round;stroke-miterlimit:10;}
</style>
<g>
	<path class="st0" d="M185.96,36.41c-2.96-2.38-6.84-3.31-10.64-2.57c-3.35,0.66-6.24,2.56-8.04,5.28c-1.8-2.72-4.69-4.62-8.04-5.28
		c-3.8-0.74-7.68,0.19-10.64,2.57c-9.61,7.72-19.99,29.67-19.99,51.68c0,2.19,1.19,4.2,3.1,5.25c0.9,0.5,1.9,0.75,2.9,0.75
		c1.11,0,2.22-0.31,3.2-0.92l14.09-8.88c0.03,3.29,2.7,5.95,6,5.95h3.39v15.13c0,3.31,2.69,6,6,6s6-2.69,6-6V90.24h3.39
		c3.3,0,5.97-2.66,6-5.95l14.08,8.88c1.85,1.17,4.19,1.23,6.1,0.18c1.91-1.06,3.1-3.07,3.1-5.25
		C205.96,66.08,195.58,44.13,185.96,36.41z M179.87,68.33c-1.85-1.17-4.19-1.23-6.1-0.18c-1.91,1.06-3.1,3.07-3.1,5.25v4.83h-6.79
		v-4.83c0-2.19-1.19-4.2-3.1-5.25c-1.91-1.06-4.25-0.99-6.1,0.18l-13.06,8.24c2.73-15.47,10.25-27.4,14.48-30.8
		c0.37-0.3,1.04-0.15,1.17-0.02l0.31,0.56c1.91,3.43,5.62,5.55,9.69,5.55c0,0,0,0,0,0c4.07,0,7.79-2.13,9.7-5.56l0.29-0.53
		c0.14-0.15,0.82-0.29,1.18,0c4.23,3.4,11.76,15.33,14.48,30.8L179.87,68.33z"/>
	<path class="st1" d="M262.83,350.47h-32.7v-50.05c0-3.31-2.69-6-6-6h-21.01V105.37c0-3.31-2.69-6-6-6h-59.69c-3.31,0-6,2.69-6,6
		v189.05h-21.01c-3.31,0-6,2.69-6,6v50.05h-32.7c-3.31,0-6,2.69-6,6v27.64c0,3.31,2.69,6,6,6h191.11c3.31,0,6-2.69,6-6v-27.64
		C268.83,353.16,266.15,350.47,262.83,350.47z M191.12,196.9h-47.69v-36.76h47.69V196.9z M143.43,208.9h47.69v36.76h-47.69V208.9z
		 M191.12,111.37v36.76h-47.69v-36.76H191.12z M143.43,257.66h47.69v36.76h-47.69V257.66z M116.42,306.42h101.71v44.05h-18.27
		v-29.09c0-3.31-2.69-6-6-6H140.7c-3.31,0-6,2.69-6,6v29.09h-18.27V306.42z M187.86,350.47H146.7v-23.09h41.16V350.47z
		 M256.83,378.12H77.72v-15.64h62.98h53.16h62.97V378.12z"/>
	<g>
		<path class="st0" d="M358.28,154.18c3.31,0,6-2.69,6-6s-2.69-6-6-6h-6.45l-15.44-41.37c0.28-0.46,0.54-0.94,0.75-1.44
			c0.25-0.6,0.44-1.23,0.57-1.87c0.13-0.64,0.19-1.3,0.19-1.95s-0.06-1.31-0.19-1.95c-0.13-0.64-0.32-1.27-0.57-1.87
			c-0.25-0.61-0.56-1.19-0.92-1.73c-0.37-0.55-0.79-1.06-1.25-1.52c-0.33-0.33-0.69-0.63-1.07-0.91V51.34c0-3.31-2.69-6-6-6
			s-6,2.69-6,6v36.23c-0.38,0.28-0.74,0.58-1.07,0.91c-0.46,0.46-0.88,0.97-1.24,1.52c-0.36,0.54-0.67,1.12-0.92,1.73
			c-0.25,0.6-0.44,1.23-0.57,1.87c-0.13,0.64-0.2,1.3-0.2,1.95s0.07,1.31,0.2,1.95c0.13,0.64,0.32,1.27,0.57,1.87
			c0.21,0.5,0.46,0.98,0.75,1.44l-15.45,41.38h-4.45c-3.31,0-6,2.69-6,6s2.69,6,6,6h2.62v32.7h-3.84c-3.31,0-6,2.69-6,6v66.78
			h-77.15v12h77.15v22.46h-51.31c0.74,1.97,1.16,4.09,1.16,6.31v5.69h50.15v72.29h-11.45v5.71c0,2.21-0.42,4.33-1.15,6.29h18.59
			c0,0,0,0,0.01,0h58.12c3.31,0,6-2.69,6-6V192.88c0-3.31-2.69-6-6-6h-2.74v-32.7H358.28z M327.89,112.38l11.13,29.8h-22.25
			L327.89,112.38z M350.4,378.4h-46.12v-78.28c0,0,0,0,0,0c0,0,0,0,0,0v-34.45c0,0,0,0,0,0c0,0,0,0,0,0v-66.77h46.12V378.4z
			 M333.89,186.88v-16.35c0-3.31-2.69-6-6-6s-6,2.69-6,6v16.35h-7.77v-32.7h27.54v32.7H333.89z"/>
		<path class="st0" d="M317.89,286.21c-3.31,0-6,2.69-6,6v33.17c0,3.31,2.69,6,6,6s6-2.69,6-6v-33.17
			C323.89,288.89,321.21,286.21,317.89,286.21z"/>
		<path class="st0" d="M336.79,286.21c-3.31,0-6,2.69-6,6v33.17c0,3.31,2.69,6,6,6s6-2.69,6-6v-33.17
			C342.79,288.89,340.1,286.21,336.79,286.21z"/>
		<path class="st0" d="M333.34,233.38v-17.58c0-3.31-2.69-6-6-6s-6,2.69-6,6v17.58c0,3.31,2.69,6,6,6S333.34,236.69,333.34,233.38z"
			/>
		<path class="st0" d="M256.78,315.38c-3.31,0-6,2.69-6,6v17.1h12v-17.1C262.78,318.07,260.09,315.38,256.78,315.38z"/>
	</g>
</g>
</svg>
