<?xml version="1.0" encoding="utf-8"?>
<!-- Generator: Adobe Illustrator 24.1.2, SVG Export Plug-In . SVG Version: 6.00 Build 0)  -->
<svg version="1.1" id="Warstwa_1" xmlns="http://www.w3.org/2000/svg" xmlns:xlink="http://www.w3.org/1999/xlink" x="0px" y="0px"
	 viewBox="0 0 430 430" style="enable-background:new 0 0 430 430;" xml:space="preserve">
<style type="text/css">
	.st0{fill:#08a88a;}
	.st1{fill:#121331;}
	.st2{fill:none;}
	.st3{fill:none;stroke:#08a88a;stroke-width:12;stroke-linecap:round;stroke-linejoin:round;stroke-miterlimit:10;}
	.st4{fill:#08a88a;}
	.st5{fill:none;stroke:#121331;stroke-width:12;stroke-linecap:round;stroke-linejoin:round;stroke-miterlimit:10;}
</style>
<g>
	<path class="st0" d="M343.73,87.9c-8.12-15.63-24.4-25.61-42.13-25.61c-15.67,0-30.38,7.89-39.29,20.8
		c-4.38,0.08-8.66,1.76-12.01,4.84c-0.19,0.18-0.37,0.37-0.55,0.56c2.79,3.24,5.13,6.88,6.92,10.82c0.37-0.94,0.96-1.81,1.74-2.53
		c1.58-1.44,3.61-2,5.59-1.53c2.01,0.48,3.84,1.81,4.9,3.56c0.62,1.03,1.25,2.66,0.73,4.62c-0.84,3.21,1.08,6.48,4.29,7.32
		c3.21,0.84,6.48-1.08,7.32-4.29c1.22-4.68,0.49-9.59-2.06-13.83c-1.28-2.13-2.96-3.97-4.91-5.46c6.76-8.05,16.76-12.88,27.33-12.88
		c13.85,0,26.52,8.15,32.27,20.75c2.96,6.49,3.9,13.95,2.63,21.03c-0.59,3.26,1.58,6.38,4.85,6.97c0.36,0.06,0.71,0.1,1.07,0.1
		c2.85,0,5.38-2.04,5.9-4.94c0.56-3.13,0.79-6.32,0.72-9.5c1.66,3.15,2.6,6.7,2.6,10.38c0,12.33-10.03,22.37-22.36,22.37h-67.5
		c-1.53,0-3.03-0.22-4.48-0.6v12.24c1.47,0.23,2.96,0.36,4.48,0.36h67.5c18.95,0,34.36-15.42,34.36-34.37
		C363.62,105.71,355.72,93.49,343.73,87.9z"/>
	<path class="st0" d="M215.17,72.72c-3.31,0-6-2.69-6-6V40.45c0-3.31,2.69-6,6-6s6,2.69,6,6v26.28
		C221.17,70.04,218.48,72.72,215.17,72.72z"/>
	<path class="st0" d="M227.92,354.97c-3.31,0-6-2.69-6-6v-29.6h-13.51v29.6c0,3.31-2.69,6-6,6s-6-2.69-6-6v-35.6c0-3.31,2.69-6,6-6
		h25.51c3.31,0,6,2.69,6,6v35.6C233.92,352.28,231.24,354.97,227.92,354.97z"/>
	<g>
		<path class="st0" d="M167.15,238.87c-3.31,0-6-2.69-6-6v-7.71c0-3.31,2.69-6,6-6s6,2.69,6,6v7.71
			C173.15,236.19,170.46,238.87,167.15,238.87z"/>
		<path class="st0" d="M263.19,238.87c-3.31,0-6-2.69-6-6v-7.71c0-3.31,2.69-6,6-6s6,2.69,6,6v7.71
			C269.19,236.19,266.5,238.87,263.19,238.87z"/>
	</g>
	<path class="st0" d="M215.17,228.5c-3.31,0-6-2.69-6-6v-15.78c0-3.31,2.69-6,6-6s6,2.69,6,6v15.78
		C221.17,225.81,218.48,228.5,215.17,228.5z"/>
	<path class="st0" d="M215.17,166.33c-3.31,0-6-2.69-6-6v-15.78c0-3.31,2.69-6,6-6s6,2.69,6,6v15.78
		C221.17,163.64,218.48,166.33,215.17,166.33z"/>
	<path class="st1" d="M379.94,386.26l-15.84-24.1c-7.78-11.84-23.15-19.19-40.1-19.19h-0.88v-94.88c0-0.04-0.01-0.08-0.01-0.12
		c0-0.12-0.01-0.25-0.02-0.37c-0.01-0.08-0.01-0.16-0.02-0.24c-0.01-0.11-0.03-0.22-0.05-0.33c-0.02-0.1-0.04-0.19-0.06-0.28
		c-0.02-0.09-0.04-0.18-0.07-0.27c-0.03-0.11-0.06-0.22-0.1-0.32c-0.03-0.07-0.05-0.15-0.08-0.22c-0.05-0.12-0.09-0.23-0.15-0.35
		c-0.02-0.04-0.03-0.07-0.05-0.11l-14.49-29.97c-1-2.07-3.1-3.39-5.4-3.39c-0.42,0-0.83,0.06-1.24,0.14
		c-0.44-1.99-2.66-9.88-11.15-15.03c-3.19-1.95-6.89-3.25-10.95-3.86c-2.08-0.33-4.32-0.48-6.63-0.44c-0.23,0-0.49-0.05-0.8-0.15
		c-0.52-0.18-1.11-0.52-1.66-0.94c-0.29-0.23-0.58-0.47-0.86-0.72v0l-0.3-0.27c-1.26-1.22-2.57-2.87-3.88-4.9
		c-2.1-3.25-4.76-6.06-7.9-8.32l0,0c-0.03-0.02-0.06-0.05-0.1-0.07c-0.67-0.49-1.39-0.96-2.28-1.49c-2.75-1.63-5.71-2.82-8.82-3.52
		c-0.05-0.01-0.1-0.02-0.16-0.03l-0.18-0.04c-0.14-0.03-0.27-0.06-0.41-0.08v-39.32h0.28c2.24,0,4.29-1.25,5.32-3.23
		c1.03-1.99,0.87-4.38-0.42-6.22c-0.55-0.79-1.53-2.82-1.81-7.56c-0.7-11.85-7.56-21.96-17.37-27.34V76.88
		c0-4.3-1.68-8.35-4.73-11.42c-3.05-3.05-7.11-4.74-11.43-4.74c-8.91,0-16.16,7.25-16.16,16.16v11.85
		c-9.8,5.38-16.67,15.5-17.37,27.34c-0.28,4.74-1.25,6.77-1.81,7.56c-1.29,1.83-1.45,4.23-0.42,6.22c1.03,1.99,3.08,3.23,5.32,3.23
		h0.28v39.32c-8.06,1.61-15.22,6.42-19.84,13.55c-3.34,5.16-6.11,6.99-7.47,6.99c-0.01,0-0.01,0-0.02,0
		c-19.59-0.27-27.33,12.38-28.76,19.39c-0.5-0.13-1.01-0.21-1.54-0.21c-2.3,0-4.4,1.32-5.4,3.39l-14.49,29.97
		c-0.02,0.04-0.04,0.09-0.06,0.13c-0.05,0.1-0.09,0.2-0.13,0.3c-0.03,0.09-0.07,0.17-0.1,0.26c-0.03,0.1-0.06,0.19-0.09,0.29
		c-0.03,0.1-0.05,0.2-0.08,0.3c-0.02,0.09-0.04,0.17-0.05,0.26c-0.02,0.11-0.04,0.23-0.05,0.34c-0.01,0.08-0.02,0.15-0.02,0.23
		c-0.01,0.12-0.02,0.25-0.02,0.37c0,0.04-0.01,0.08-0.01,0.12v94.87H106c-16.95,0-32.31,7.35-40.1,19.19l-15.84,24.1
		c-1.82,2.77-1.05,6.49,1.72,8.31c1.02,0.67,2.16,0.99,3.29,0.99c1.95,0,3.87-0.95,5.02-2.71l15.84-24.1
		c5.51-8.37,17.31-13.78,30.07-13.78h3.02c0.68,0,1.33-0.12,1.94-0.33c0.61,0.21,1.26,0.33,1.94,0.33h26.21h2.78h33.57
		c0.25,0,0.49-0.02,0.72-0.05c0.24,0.03,0.48,0.05,0.72,0.05h76.53c0.25,0,0.49-0.02,0.73-0.05c0.24,0.03,0.48,0.05,0.73,0.05h33.24
		h2.78h26.21c0.68,0,1.32-0.12,1.93-0.32c0.61,0.21,1.25,0.32,1.93,0.32H324c12.76,0,24.56,5.41,30.07,13.78l15.84,24.1
		c1.15,1.75,3.07,2.71,5.02,2.71c1.13,0,2.27-0.32,3.29-0.99C381,392.75,381.76,389.03,379.94,386.26z M211.01,76.88
		c0-2.29,1.86-4.16,4.16-4.16c1.11,0,2.16,0.43,2.93,1.21c0.79,0.79,1.22,1.84,1.22,2.94v7.97c-1.36-0.17-2.75-0.27-4.16-0.27
		c-1.41,0-2.79,0.1-4.16,0.27V76.88z M193.63,116.78c0.67-11.32,10.13-20.19,21.54-20.19s20.88,8.87,21.54,20.19
		c0.09,1.53,0.24,2.96,0.46,4.3h-44C193.38,119.74,193.54,118.31,193.63,116.78z M197.02,171.8v-38.72h36.29v38.72H197.02z
		 M233.31,183.8v56.51h-36.29V183.8H233.31z M127.39,231.9l1.82,3.76c0.1,0.24,0.21,0.48,0.34,0.7l2.77,5.73h-9.86L127.39,231.9z
		 M135.89,342.97H118.9v-88.87h16.99V342.97z M289.56,231.35l-6.84,14.13c-0.02,0.04-0.03,0.07-0.05,0.11
		c-0.05,0.11-0.1,0.23-0.15,0.35c-0.03,0.07-0.06,0.15-0.08,0.22c-0.04,0.11-0.07,0.21-0.1,0.32c-0.03,0.09-0.05,0.18-0.07,0.27
		c-0.02,0.09-0.04,0.19-0.06,0.28c-0.02,0.11-0.04,0.22-0.05,0.33c-0.01,0.08-0.02,0.16-0.02,0.24c-0.01,0.12-0.02,0.24-0.02,0.37
		c0,0.04-0.01,0.08-0.01,0.12v94.88h-22.7v-48.92c0-3.31-2.69-6-6-6s-6,2.69-6,6v48.92H182.9v-48.92c0-3.31-2.69-6-6-6s-6,2.69-6,6
		v48.92h-23.01v-94.87c0-0.03,0-0.06,0-0.09c0-0.14-0.01-0.29-0.02-0.43c-0.01-0.06-0.01-0.12-0.02-0.18
		c-0.02-0.13-0.04-0.26-0.06-0.4c-0.01-0.07-0.03-0.14-0.04-0.21c-0.03-0.12-0.06-0.23-0.09-0.35c-0.02-0.08-0.05-0.16-0.08-0.25
		c-0.03-0.1-0.07-0.2-0.11-0.3c-0.04-0.09-0.07-0.18-0.11-0.27c-0.02-0.05-0.04-0.1-0.06-0.15l-6.52-13.47v-17.59
		c0.53-1.83,3.52-9.66,16.75-9.48c0.07,0,0.13,0,0.2,0c6.28,0,12.17-4.19,17.53-12.47c2.37-3.66,5.82-6.31,9.76-7.67v103.12
		c0,3.31,2.69,6,6,6s6-2.69,6-6v-35.62h36.29v35.62c0,3.31,2.69,6,6,6s6-2.69,6-6V184.81c1.19,0.41,2.34,0.93,3.42,1.57
		c0.58,0.35,1.04,0.65,1.43,0.94c0.06,0.05,0.12,0.09,0.19,0.13c1.88,1.38,3.47,3.07,4.74,5.04c1.84,2.84,3.76,5.22,5.69,7.08
		c0.03,0.03,0.06,0.05,0.08,0.08l0.4,0.36c0.03,0.03,0.06,0.06,0.09,0.08c0.46,0.41,0.93,0.81,1.46,1.22
		c1.65,1.27,3.38,2.22,5.12,2.82c1.6,0.56,3.22,0.83,4.88,0.81c1.65-0.03,3.21,0.08,4.66,0.3c2.51,0.38,4.7,1.13,6.53,2.25
		c3.91,2.37,5.23,5.85,5.57,6.96V231.35z M302.62,231.91l4.93,10.19h-9.85L302.62,231.91z M311.12,342.97h-16.99v-88.88h16.99
		V342.97z"/>
	<g>
		<path class="st0" d="M152,394.66h-31.03c-3.31,0-6-2.69-6-6s2.69-6,6-6H152c3.31,0,6,2.69,6,6S155.32,394.66,152,394.66z"/>
		<path class="st0" d="M309.4,394.66h-31.03c-3.31,0-6-2.69-6-6s2.69-6,6-6h31.03c3.31,0,6,2.69,6,6S312.72,394.66,309.4,394.66z"/>
	</g>
	<path class="st0" d="M246.59,382.58h-62.8c-3.31,0-6-2.69-6-6s2.69-6,6-6h62.8c3.31,0,6,2.69,6,6S249.9,382.58,246.59,382.58z"/>
	<path class="st0" d="M265.76,313.72c-2.48,0-4.81-1.55-5.67-4.03c-3.22-9.25-20.06-19.09-44.92-19.09
		c-24.86,0-41.7,9.84-44.92,19.09c-1.09,3.13-4.5,4.78-7.64,3.7c-3.13-1.09-4.78-4.51-3.7-7.64c5.56-15.99,28.69-27.15,56.25-27.15
		c27.56,0,50.7,11.16,56.26,27.15c1.09,3.13-0.57,6.55-3.7,7.64C267.08,313.62,266.41,313.72,265.76,313.72z"/>
</g>
</svg>
