<?xml version="1.0" encoding="utf-8"?>
<!-- Generator: Adobe Illustrator 25.0.1, SVG Export Plug-In . SVG Version: 6.00 Build 0)  -->
<svg version="1.1" id="Layer_1" xmlns="http://www.w3.org/2000/svg" xmlns:xlink="http://www.w3.org/1999/xlink" x="0px" y="0px"
	 viewBox="0 0 430 430" style="enable-background:new 0 0 430 430;" xml:space="preserve">
<style type="text/css">
	.st0{fill:#121331;}
	.st1{fill:#08a88a;}
</style>
<g>
	<path class="st0" d="M198.9,376.9c-0.4,0-0.9,0-1.3-0.1c-3.1-0.7-76.7-17.6-116.8-81.3c-25.3-40.1-31.4-89.6-18-147
		c0.7-3.2,4-5.2,7.2-4.5c3.2,0.7,5.2,4,4.5,7.2c-12.6,54.1-7,100.5,16.4,137.8c37.4,59.4,108.6,75.9,109.3,76
		c3.2,0.7,5.3,3.9,4.6,7.2C204.1,375,201.7,376.9,198.9,376.9z"/>
	<g>
		<path class="st0" d="M29.7,160.2c-2.1,0-4.1-1.1-5.2-3c-1.6-2.9-0.6-6.5,2.3-8.2l45.1-25.6c2.9-1.6,6.5-0.6,8.2,2.3
			c1.6,2.9,0.6,6.5-2.3,8.2l-45.1,25.6C31.7,160,30.7,160.2,29.7,160.2z"/>
		<path class="st0" d="M100.4,179.7c-2.1,0-4.1-1.1-5.2-3l-25.6-45.1c-1.6-2.9-0.6-6.5,2.3-8.2c2.9-1.6,6.5-0.6,8.2,2.3l25.6,45.1
			c1.6,2.9,0.6,6.5-2.3,8.2C102.4,179.5,101.4,179.7,100.4,179.7z"/>
	</g>
</g>
<g>
	<path class="st0" d="M270.9,373.6c-2.5,0-4.8-1.6-5.7-4.1c-1.1-3.1,0.6-6.5,3.8-7.6c52.7-17.8,89.3-47,108.9-86.7
		c31.2-63.2,8.2-132.4,8-133.1c-1.1-3.1,0.6-6.5,3.7-7.6c3.1-1.1,6.5,0.6,7.6,3.7c1,3,24.8,74.4-8.5,142.1
		c-21,42.7-60,74-115.9,92.9C272.2,373.5,271.5,373.6,270.9,373.6z"/>
	<g>
		<path class="st0" d="M291.7,404.9c-1.1,0-2.1-0.3-3.1-0.9l-44.4-26.7c-2.8-1.7-3.8-5.4-2.1-8.2c1.7-2.8,5.4-3.8,8.2-2.1l44.4,26.7
			c2.8,1.7,3.8,5.4,2.1,8.2C295.8,403.9,293.8,404.9,291.7,404.9z"/>
		<path class="st0" d="M247.3,378.2c-1.1,0-2.1-0.3-3.1-0.9c-2.8-1.7-3.8-5.4-2.1-8.2l26.7-44.4c1.7-2.8,5.4-3.8,8.2-2.1
			c2.8,1.7,3.8,5.4,2.1,8.2l-26.7,44.4C251.3,377.2,249.3,378.2,247.3,378.2z"/>
	</g>
</g>
<path class="st1" d="M98.8,99c-1.4,0-2.8-0.5-3.9-1.5c-2.5-2.2-2.8-6-0.6-8.5c2.1-2.4,51.8-58.9,126.6-63.7
	c47.2-3,93.5,15.4,137.5,54.7c2.5,2.2,2.7,6,0.5,8.5c-2.2,2.5-6,2.7-8.5,0.5C308.9,52,265.6,34.6,221.8,37.4
	c-69.8,4.4-117.9,59-118.4,59.6C102.2,98.3,100.5,99,98.8,99z"/>
<g>
	<path class="st1" d="M370.6,109.4c-3.3,0-6-2.7-6-6l-0.3-51.8c0-3.3,2.7-6,6-6c0,0,0,0,0,0c3.3,0,6,2.7,6,6l0.3,51.8
		C376.6,106.6,373.9,109.3,370.6,109.4C370.6,109.4,370.6,109.4,370.6,109.4z"/>
	<path class="st1" d="M318.8,109.7c-3.3,0-6-2.7-6-6c0-3.3,2.7-6,6-6l51.8-0.3c0,0,0,0,0,0c3.3,0,6,2.7,6,6c0,3.3-2.7,6-6,6
		L318.8,109.7C318.8,109.7,318.8,109.7,318.8,109.7z"/>
</g>
</svg>
