<?xml version="1.0" encoding="utf-8"?>
<!-- Generator: Adobe Illustrator 25.0.1, SVG Export Plug-In . SVG Version: 6.00 Build 0)  -->
<svg version="1.1" id="Layer_1" xmlns="http://www.w3.org/2000/svg" xmlns:xlink="http://www.w3.org/1999/xlink" x="0px" y="0px"
	 viewBox="0 0 430 430" style="enable-background:new 0 0 430 430;" xml:space="preserve">
<style type="text/css">
	.st0{fill:#121331;}
</style>
<path class="st0" d="M400.9,390.6c-3.3,0-6-2.7-6-6V208c0-86.3-70.2-156.5-156.5-156.5h-11.9c-86.3,0-156.5,70.2-156.5,156.5v112.7
	c0,3.3-2.7,6-6,6s-6-2.7-6-6V208c0-92.9,75.6-168.5,168.5-168.5h11.9c92.9,0,168.5,75.6,168.5,168.5v176.6
	C406.9,387.9,404.2,390.6,400.9,390.6z"/>
<path class="st0" d="M63.9,326.7c-1.6,0-3.3-0.7-4.5-2l-34.8-38.5c-2.2-2.5-2-6.3,0.4-8.5s6.2-2,8.5,0.4l34.8,38.5
	c2.2,2.5,2,6.3-0.4,8.5C66.8,326.1,65.4,326.7,63.9,326.7z"/>
<path class="st0" d="M63.9,326.7c-1.4,0-2.9-0.5-4-1.6c-2.5-2.2-2.6-6-0.4-8.5l34.8-38.5c2.2-2.5,6-2.6,8.5-0.4
	c2.5,2.2,2.6,6,0.4,8.5l-34.8,38.5C67.2,326,65.6,326.7,63.9,326.7z"/>
</svg>
