<?xml version="1.0" encoding="utf-8"?>
<!-- Generator: Adobe Illustrator 25.0.1, SVG Export Plug-In . SVG Version: 6.00 Build 0)  -->
<svg version="1.1" id="Layer_1" xmlns="http://www.w3.org/2000/svg" xmlns:xlink="http://www.w3.org/1999/xlink" x="0px" y="0px"
	 viewBox="0 0 430 430" style="enable-background:new 0 0 430 430;" xml:space="preserve">
<style type="text/css">
	.st0{fill:#121331;}
</style>
<path class="st0" d="M222,372.1H109.3c-3.3,0-6-2.7-6-6s2.7-6,6-6H222c86.3,0,156.5-70.2,156.5-156.5v-11.9
	c0-86.3-70.2-156.5-156.5-156.5H45.4c-3.3,0-6-2.7-6-6s2.7-6,6-6H222c92.9,0,168.5,75.6,168.5,168.5v11.9
	C390.6,296.5,315,372.1,222,372.1z"/>
<path class="st0" d="M147.8,406.9c-1.4,0-2.9-0.5-4-1.6l-38.5-34.8c-2.5-2.2-2.6-6-0.4-8.5c2.2-2.5,6-2.6,8.5-0.4l38.5,34.8
	c2.5,2.2,2.6,6,0.4,8.5C151.1,406.2,149.4,406.9,147.8,406.9z"/>
<path class="st0" d="M109.3,372.1c-1.6,0-3.3-0.7-4.4-2c-2.2-2.5-2-6.3,0.4-8.5l38.5-34.8c2.5-2.2,6.3-2,8.5,0.4
	c2.2,2.5,2,6.3-0.4,8.5l-38.5,34.8C112.2,371.6,110.8,372.1,109.3,372.1z"/>
</svg>
