<?xml version="1.0" encoding="utf-8"?>
<!-- Generator: Adobe Illustrator 25.0.1, SVG Export Plug-In . SVG Version: 6.00 Build 0)  -->
<svg version="1.1" id="Layer_1" xmlns="http://www.w3.org/2000/svg" xmlns:xlink="http://www.w3.org/1999/xlink" x="0px" y="0px"
	 viewBox="0 0 430 430" style="enable-background:new 0 0 430 430;" xml:space="preserve">
<style type="text/css">
	.st0{fill:#121331;}
</style>
<path class="st0" d="M191,343.2c-80.3,0-145.6-65.3-145.6-145.6S110.7,52,191,52s145.6,65.3,145.6,145.6c0,9.6-0.9,19.1-2.8,28.4
	c-0.6,3.2-3.8,5.4-7.1,4.7c-3.2-0.6-5.4-3.8-4.7-7.1c1.7-8.5,2.6-17.3,2.6-26.1C324.6,123.9,264.7,64,191,64
	c-73.7,0-133.6,59.9-133.6,133.6c0,73.7,59.9,133.6,133.6,133.6c0.6,0,1.2,0,1.7,0l185.9,0c3.3,0,6,2.7,6,6s-2.7,6-6,6H192.8
	C192.3,343.2,191.7,343.2,191,343.2z"/>
<g>
	<path class="st0" d="M378.6,343.2c-1.4,0-2.9-0.5-4-1.6l-38.5-34.8c-2.5-2.2-2.6-6-0.4-8.5c2.2-2.5,6-2.6,8.5-0.4l38.5,34.8
		c2.5,2.2,2.6,6,0.4,8.5C381.8,342.5,380.2,343.2,378.6,343.2z"/>
	<path class="st0" d="M340.1,378c-1.6,0-3.3-0.7-4.5-2c-2.2-2.5-2-6.3,0.4-8.5l38.5-34.8c2.5-2.2,6.3-2,8.5,0.4
		c2.2,2.5,2,6.3-0.4,8.5l-38.5,34.8C343,377.5,341.5,378,340.1,378z"/>
</g>
</svg>
