<?xml version="1.0" encoding="utf-8"?>
<!-- Generator: Adobe Illustrator 25.0.1, SVG Export Plug-In . SVG Version: 6.00 Build 0)  -->
<svg version="1.1" id="Layer_1" xmlns="http://www.w3.org/2000/svg" xmlns:xlink="http://www.w3.org/1999/xlink" x="0px" y="0px"
	 viewBox="0 0 430 430" style="enable-background:new 0 0 430 430;" xml:space="preserve">
<style type="text/css">
	.st0{fill:#08a88a;}
	.st1{fill:#121331;}
</style>
<g>
	<path class="st0" d="M132.6,393.1c-3.3,0-6-2.7-6-6V42.9c0-3.3,2.7-6,6-6s6,2.7,6,6v344.2C138.6,390.4,135.9,393.1,132.6,393.1z"/>
	<path class="st0" d="M79.2,102.3c-1.5,0-3.1-0.6-4.2-1.8c-2.3-2.3-2.3-6.1,0-8.5l53.4-53.4c2.3-2.3,6.1-2.3,8.5,0s2.3,6.1,0,8.5
		l-53.4,53.4C82.2,101.7,80.7,102.3,79.2,102.3z"/>
	<path class="st0" d="M186,102.3c-1.5,0-3.1-0.6-4.2-1.8l-53.4-53.4c-2.3-2.3-2.3-6.1,0-8.5c2.3-2.3,6.1-2.3,8.5,0l53.4,53.4
		c2.3,2.3,2.3,6.1,0,8.5C189,101.7,187.5,102.3,186,102.3z"/>
</g>
<g>
	<path class="st1" d="M297.4,393.1c-3.3,0-6-2.7-6-6V42.9c0-3.3,2.7-6,6-6s6,2.7,6,6v344.2C303.4,390.4,300.8,393.1,297.4,393.1z"/>
	<path class="st1" d="M297.4,393.1c-1.5,0-3.1-0.6-4.2-1.8l-53.4-53.4c-2.3-2.3-2.3-6.1,0-8.5c2.3-2.3,6.1-2.3,8.5,0l53.4,53.4
		c2.3,2.3,2.3,6.1,0,8.5C300.5,392.5,299,393.1,297.4,393.1z"/>
	<path class="st1" d="M297.4,393.1c-1.5,0-3.1-0.6-4.2-1.8c-2.3-2.3-2.3-6.1,0-8.5l53.4-53.4c2.3-2.3,6.1-2.3,8.5,0
		c2.3,2.3,2.3,6.1,0,8.5l-53.4,53.4C300.5,392.5,299,393.1,297.4,393.1z"/>
</g>
</svg>
