<?xml version="1.0" encoding="utf-8"?>
<!-- Generator: Adobe Illustrator 26.0.1, SVG Export Plug-In . SVG Version: 6.00 Build 0)  -->
<svg version="1.1" id="Warstwa_1" xmlns="http://www.w3.org/2000/svg" xmlns:xlink="http://www.w3.org/1999/xlink" x="0px" y="0px"
	 viewBox="0 0 500 500" style="enable-background:new 0 0 500 500;" xml:space="preserve">
<style type="text/css">
	.st0{fill:#08a88a;}
	.st1{fill:#121331;}
	.st2{fill:none;}
	.st3{fill:none;stroke:#08a88a;stroke-width:12;stroke-linecap:round;stroke-linejoin:round;stroke-miterlimit:10;}
</style>
<g>
	<g>
		<path class="st0" d="M184.76,276.66c-2.65,0-5.07-1.77-5.79-4.45c-0.86-3.2,1.04-6.49,4.24-7.35l137.34-36.79
			c3.2-0.86,6.49,1.04,7.35,4.24c0.86,3.2-1.04,6.49-4.24,7.35l-137.34,36.79C185.8,276.59,185.28,276.66,184.76,276.66z"/>
		<g>
			<path class="st0" d="M177.46,345.59c-2.65,0-5.07-1.77-5.79-4.45c-0.86-3.2,1.04-6.49,4.24-7.35l98.9-26.5
				c3.2-0.86,6.49,1.04,7.35,4.24c0.86,3.2-1.04,6.49-4.24,7.35l-98.9,26.5C178.5,345.52,177.98,345.59,177.46,345.59z"/>
			<path class="st0" d="M225.71,205.73c-2.65,0-5.07-1.77-5.79-4.45c-0.86-3.2,1.04-6.49,4.24-7.35l98.66-26.44
				c3.2-0.86,6.49,1.04,7.35,4.24c0.86,3.2-1.04,6.49-4.24,7.35l-98.66,26.44C226.75,205.67,226.22,205.73,225.71,205.73z"/>
		</g>
	</g>
	<path class="st1" d="M363.41,201.84c-1.03,0-2.07-0.27-3-0.8L244.31,134c-2-1.15-3.16-3.35-2.98-5.65c0.17-2.3,1.65-4.3,3.8-5.14
		l99.91-38.98c1.7-0.66,3.6-0.52,5.18,0.39s2.66,2.49,2.93,4.29l16.19,106.01c0.35,2.28-0.64,4.56-2.55,5.86
		C365.78,201.49,364.6,201.84,363.41,201.84z M261.13,129.86l94.46,54.54l-13.18-86.26L261.13,129.86z"/>
	<path class="st1" d="M240.16,381.79c-1.02,0-2.05-0.26-2.99-0.8l-87.07-50.27c-2.87-1.66-3.85-5.33-2.2-8.2l108.73-188.33
		c1.66-2.87,5.33-3.85,8.2-2.2c2.87,1.66,3.85,5.33,2.2,8.2L161.29,323.32l76.68,44.27L343.7,184.46c1.66-2.87,5.33-3.85,8.2-2.2
		c2.87,1.66,3.85,5.33,2.2,8.2L245.36,378.79C244.25,380.71,242.24,381.79,240.16,381.79z"/>
	<path class="st1" d="M142.35,441.86c-1.02,0-2.05-0.26-2.99-0.8c-2.87-1.66-3.85-5.33-2.2-8.2c4.95-8.57,9.87-11.69,14.21-14.45
		c3.79-2.4,6.77-4.3,10.25-10.32c3.47-6.01,3.62-9.55,3.81-14.03c0.22-5.14,0.46-10.96,5.41-19.53c4.95-8.56,9.87-11.69,14.21-14.44
		c3.78-2.4,6.77-4.3,10.25-10.31c1.66-2.87,5.33-3.85,8.2-2.2c2.87,1.66,3.85,5.33,2.2,8.2c-4.94,8.56-9.87,11.69-14.21,14.44
		c-3.78,2.4-6.77,4.3-10.25,10.31c-3.47,6.01-3.62,9.55-3.81,14.03c-0.22,5.14-0.46,10.96-5.41,19.53
		c-4.95,8.57-9.87,11.69-14.21,14.45c-3.79,2.4-6.77,4.3-10.25,10.32C146.44,440.78,144.43,441.86,142.35,441.86z"/>
</g>
</svg>
