<?xml version="1.0" encoding="utf-8"?>
<!-- Generator: Adobe Illustrator 26.0.1, SVG Export Plug-In . SVG Version: 6.00 Build 0)  -->
<svg version="1.1" id="Warstwa_1" xmlns="http://www.w3.org/2000/svg" xmlns:xlink="http://www.w3.org/1999/xlink" x="0px" y="0px"
	 viewBox="0 0 500 500" style="enable-background:new 0 0 500 500;" xml:space="preserve">
<style type="text/css">
	.st0{fill:#08a88a;}
	.st1{fill:#121331;}
	.st2{fill:none;}
	.st3{fill:none;stroke:#08a88a;stroke-width:12;stroke-linecap:round;stroke-linejoin:round;stroke-miterlimit:10;}
</style>
<g>
	<path class="st1" d="M365.69,150.64h-204c-18.4,0-33.38-14.97-33.38-33.38s14.97-33.38,33.38-33.38h204c3.31,0,6,2.69,6,6v54.75
		C371.69,147.95,369,150.64,365.69,150.64z M161.69,95.88c-11.79,0-21.38,9.59-21.38,21.38c0,11.79,9.59,21.38,21.38,21.38h198
		V95.88H161.69z"/>
	<path class="st1" d="M365.69,416.12H161.68c-8.91,0-17.3-3.47-23.6-9.78c-6.3-6.3-9.77-14.68-9.77-23.59c0-0.05,0-0.1,0-0.15
		V117.26c0-3.31,2.69-6,6-6s6,2.69,6,6v265.49c0,0.04,0,0.09,0,0.14c0.04,5.66,2.25,10.97,6.25,14.97
		c4.04,4.04,9.41,6.27,15.12,6.27h198.01l0-259.48c0-3.31,2.69-6,6-6s6,2.69,6,6l0,265.48c0,1.59-0.63,3.12-1.76,4.24
		C368.81,415.49,367.28,416.12,365.69,416.12z"/>
</g>
<path class="st0" d="M265.59,376.09h-31.18c-3.31,0-6-2.69-6-6V251.32h-25.2c-3.31,0-6-2.69-6-6v-31.19c0-3.31,2.69-6,6-6h25.2
	v-25.18c0-3.31,2.69-6,6-6h31.18c3.31,0,6,2.69,6,6v25.18h25.2c3.31,0,6,2.69,6,6v31.19c0,3.31-2.69,6-6,6h-25.2v118.77
	C271.59,373.4,268.9,376.09,265.59,376.09z M240.41,364.09h19.18V245.32c0-3.31,2.69-6,6-6h25.2v-19.19h-25.2c-3.31,0-6-2.69-6-6
	v-25.18h-19.18v25.18c0,3.31-2.69,6-6,6h-25.2v19.19h25.2c3.31,0,6,2.69,6,6V364.09z"/>
</svg>
