<?xml version="1.0" encoding="utf-8"?>
<!-- Generator: Adobe Illustrator 25.0.1, SVG Export Plug-In . SVG Version: 6.00 Build 0)  -->
<svg version="1.1" id="Layer_1" xmlns="http://www.w3.org/2000/svg" xmlns:xlink="http://www.w3.org/1999/xlink" x="0px" y="0px"
	 viewBox="0 0 430 430" style="enable-background:new 0 0 430 430;" xml:space="preserve">
<style type="text/css">
	.st0{fill:#121331;}
	.st1{fill:#08a88a;}
</style>
<path class="st0" d="M215,395.96c-99.78,0-180.96-81.18-180.96-180.96c0-99.78,81.18-180.96,180.96-180.96
	c99.78,0,180.96,81.18,180.96,180.96C395.96,314.78,314.78,395.96,215,395.96z M215,46.04c-93.17,0-168.96,75.79-168.96,168.96
	S121.83,383.96,215,383.96S383.96,308.17,383.96,215S308.17,46.04,215,46.04z"/>
<path class="st1" d="M114.44,158.76c-1.48,0-2.96-0.54-4.12-1.64c-2.41-2.28-2.51-6.08-0.23-8.48c1.11-1.17,27.6-28.66,60.68-22.37
	c3.26,0.62,5.39,3.76,4.77,7.02c-0.62,3.26-3.77,5.39-7.02,4.77c-26.71-5.09-49.49,18.59-49.72,18.83
	C117.62,158.13,116.03,158.76,114.44,158.76z"/>
<path class="st1" d="M319.08,158.76c-1.59,0-3.17-0.63-4.35-1.87c-0.38-0.4-23.26-23.88-49.72-18.84c-3.26,0.62-6.4-1.52-7.02-4.77
	s1.52-6.4,4.77-7.02c33.08-6.3,59.57,21.19,60.68,22.37c2.28,2.41,2.17,6.2-0.23,8.48C322.04,158.21,320.56,158.76,319.08,158.76z"
	/>
<g>
	<ellipse class="st0" cx="152.1" cy="189.6" rx="17.54" ry="24.4"/>
</g>
<g>
	<ellipse class="st0" cx="281.42" cy="189.6" rx="17.54" ry="24.4"/>
</g>
<ellipse class="st0" cx="215.92" cy="304.44" rx="30.96" ry="50.4"/>
</svg>
