<?xml version="1.0" encoding="utf-8"?>
<!-- Generator: Adobe Illustrator 25.0.1, SVG Export Plug-In . SVG Version: 6.00 Build 0)  -->
<svg version="1.1" id="Layer_1" xmlns="http://www.w3.org/2000/svg" xmlns:xlink="http://www.w3.org/1999/xlink" x="0px" y="0px"
	 viewBox="0 0 430 430" style="enable-background:new 0 0 430 430;" xml:space="preserve">
<style type="text/css">
	.st0{fill:#121331;}
	.st1{fill:#08a88a;}
</style>
<path class="st0" d="M215,381.12c-91.6,0-166.12-74.52-166.12-166.12S123.4,48.88,215,48.88S381.12,123.4,381.12,215
	S306.6,381.12,215,381.12z M215,60.88c-84.98,0-154.12,69.14-154.12,154.12S130.02,369.12,215,369.12S369.12,299.98,369.12,215
	S299.98,60.88,215,60.88z"/>
<path class="st1" d="M215,341.09c-69.53,0-126.09-56.56-126.09-126.09c0-69.53,56.56-126.09,126.09-126.09
	c69.53,0,126.09,56.56,126.09,126.09C341.09,284.53,284.53,341.09,215,341.09z M215,100.91c-62.91,0-114.09,51.18-114.09,114.09
	S152.09,329.09,215,329.09S329.09,277.91,329.09,215S277.91,100.91,215,100.91z"/>
</svg>
