<?xml version="1.0" encoding="utf-8"?>
<!-- Generator: Adobe Illustrator 24.0.2, SVG Export Plug-In . SVG Version: 6.00 Build 0)  -->
<svg version="1.1" xmlns="http://www.w3.org/2000/svg" xmlns:xlink="http://www.w3.org/1999/xlink" x="0px" y="0px"
	 viewBox="0 0 24 24" style="enable-background:new 0 0 24 24;" xml:space="preserve">
<style type="text/css">
	.st0{fill:none;}
	.st1{fill:#121331;}
</style>
<g id="bounding_area">
	<rect class="st0" width="24" height="24"/>
</g>
<g id="design">
	<g>
		<path class="st1" d="M21.67,7.13c-0.21-0.14-0.47-0.17-0.7-0.08L17,8.66V7.75C17,6.23,15.76,5,14.25,5h-9.5C3.23,5,2,6.23,2,7.75
			v8.5C2,17.77,3.23,19,4.75,19h9.5c1.51,0,2.75-1.23,2.75-2.75v-0.91l3.97,1.61c0.09,0.03,0.19,0.05,0.28,0.05
			c0.15,0,0.29-0.04,0.42-0.13C21.88,16.73,22,16.5,22,16.25v-8.5C22,7.5,21.88,7.27,21.67,7.13z M15.5,16.25
			c0,0.69-0.57,1.25-1.25,1.25h-9.5c-0.69,0-1.25-0.56-1.25-1.25v-8.5c0-0.69,0.56-1.25,1.25-1.25h9.5c0.68,0,1.25,0.56,1.25,1.25
			V16.25z M20.5,15.14L17,13.72v-3.44l3.5-1.42V15.14z"/>
	</g>
</g>
</svg>
