<?xml version="1.0" encoding="utf-8"?>
<!-- Generator: Adobe Illustrator 25.0.1, SVG Export Plug-In . SVG Version: 6.00 Build 0)  -->
<svg version="1.1" id="Layer_1" xmlns="http://www.w3.org/2000/svg" xmlns:xlink="http://www.w3.org/1999/xlink" x="0px" y="0px"
	 viewBox="0 0 430 430" style="enable-background:new 0 0 430 430;" xml:space="preserve">
<style type="text/css">
	.st0{fill:#121331;}
</style>
<path class="st0" d="M279.2,269.24c-3.31,0-6-2.69-6-6v-96.48c0-3.31,2.69-6,6-6s6,2.69,6,6v96.48
	C285.2,266.55,282.51,269.24,279.2,269.24z"/>
<path class="st0" d="M150.8,269.24c-3.31,0-6-2.69-6-6v-96.48c0-3.31,2.69-6,6-6s6,2.69,6,6v96.48
	C156.8,266.55,154.11,269.24,150.8,269.24z"/>
<path class="st0" d="M311.3,254.84c-3.31,0-6-2.69-6-6V180.2c0-3.31,2.69-6,6-6s6,2.69,6,6v68.64
	C317.3,252.15,314.61,254.84,311.3,254.84z"/>
<path class="st0" d="M247.1,254.84c-3.31,0-6-2.69-6-6V180.2c0-3.31,2.69-6,6-6s6,2.69,6,6v68.64
	C253.1,252.15,250.41,254.84,247.1,254.84z"/>
<path class="st0" d="M182.9,254.84c-3.31,0-6-2.69-6-6V180.2c0-3.31,2.69-6,6-6s6,2.69,6,6v68.64
	C188.9,252.15,186.21,254.84,182.9,254.84z"/>
<path class="st0" d="M215,234.2c-3.31,0-6-2.69-6-6v-25.88c0-3.31,2.69-6,6-6s6,2.69,6,6v25.88C221,231.51,218.31,234.2,215,234.2z"
	/>
<path class="st0" d="M118.7,254.84c-3.31,0-6-2.69-6-6V180.2c0-3.31,2.69-6,6-6s6,2.69,6,6v68.64
	C124.7,252.15,122.01,254.84,118.7,254.84z"/>
<path class="st0" d="M343.4,229.44c-3.31,0-6-2.69-6-6v-17.28c0-3.31,2.69-6,6-6s6,2.69,6,6v17.28
	C349.4,226.75,346.71,229.44,343.4,229.44z"/>
<path class="st0" d="M86.6,229.44c-3.31,0-6-2.69-6-6v-17.28c0-3.31,2.69-6,6-6s6,2.69,6,6v17.28
	C92.6,226.75,89.91,229.44,86.6,229.44z"/>
</svg>
