<?xml version="1.0" encoding="utf-8"?>
<!-- Generator: Adobe Illustrator 25.0.1, SVG Export Plug-In . SVG Version: 6.00 Build 0)  -->
<svg version="1.1" id="Layer_1" xmlns="http://www.w3.org/2000/svg" xmlns:xlink="http://www.w3.org/1999/xlink" x="0px" y="0px"
	 viewBox="0 0 430 430" style="enable-background:new 0 0 430 430;" xml:space="preserve">
<style type="text/css">
	.st0{fill:#121331;}
	.st1{fill:#08a88a;}
</style>
<g>
	<path class="st0" d="M215.9,415c-110.3,0-200-89.7-200-200c0-110.3,89.7-200,200-200c110.3,0,200,89.7,200,200
		C415.9,325.3,326.2,415,215.9,415z M215.9,51.1c-90.4,0-164,73.6-164,164c0,90.4,73.6,164,164,164c90.4,0,164-73.6,164-164
		C379.9,124.6,306.3,51.1,215.9,51.1z"/>
	<path class="st1" d="M63.4,59.7l-3.2,3.2c-5.8,5.8-15.1,5.8-20.9,0L15.6,39.2c-5.8-5.8-5.8-15.1,0-20.9l3.2-3.2
		c5.8-5.8,15.1-5.8,20.9,0l23.7,23.7C69.1,44.6,69.1,53.9,63.4,59.7z"/>
	<path class="st1" d="M415.3,411.7l-3.2,3.2c-5.8,5.8-15.1,5.8-20.9,0l-23.7-23.7c-5.8-5.8-5.8-15.1,0-20.9l3.2-3.2
		c5.8-5.8,15.1-5.8,20.9,0l23.7,23.7C421,396.6,421,405.9,415.3,411.7z"/>
	<path class="st1" d="M411.4,15.8l3.2,3.2c5.8,5.8,5.8,15.1,0,20.9l-23.7,23.7c-5.8,5.8-15.1,5.8-20.9,0l-3.2-3.2
		c-5.8-5.8-5.8-15.1,0-20.9l23.7-23.7C396.3,10,405.6,10,411.4,15.8z"/>
	<path class="st1" d="M59.3,367.1l3.2,3.2c5.8,5.8,5.8,15.1,0,20.9l-23.7,23.7c-5.8,5.8-15.1,5.8-20.9,0l-3.2-3.2
		c-5.8-5.8-5.8-15.1,0-20.9l23.7-23.7C44.2,361.4,53.5,361.4,59.3,367.1z"/>
</g>
</svg>
