<?xml version="1.0" encoding="utf-8"?>
<!-- Generator: Adobe Illustrator 25.0.1, SVG Export Plug-In . SVG Version: 6.00 Build 0)  -->
<svg version="1.1" id="Layer_1" xmlns="http://www.w3.org/2000/svg" xmlns:xlink="http://www.w3.org/1999/xlink" x="0px" y="0px"
	 viewBox="0 0 430 430" style="enable-background:new 0 0 430 430;" xml:space="preserve">
<style type="text/css">
	.st0{fill:#121331;}
</style>
<g>
	<path class="st0" d="M209.5,406.7c-0.2,0-0.5,0-0.7,0c-45.4-5.3-83.3-19.3-112.7-41.8c-23.7-18.1-41.9-41.5-54-69.7
		c-20.7-47.8-16.9-92.1-16.8-93.9c0.3-3.3,3.2-5.7,6.5-5.4c3.3,0.3,5.7,3.2,5.4,6.5l0,0c0,0.4-3.6,43.5,16,88.5
		c26.1,59.9,78.9,94.8,157,103.9c3.3,0.4,5.7,3.4,5.3,6.7C215.1,404.5,212.5,406.7,209.5,406.7z"/>
	<path class="st0" d="M398.8,234.2c-0.2,0-0.4,0-0.5,0c-3.3-0.3-5.7-3.2-5.4-6.5h0c0-0.4,3.6-43.5-16-88.5
		c-26.1-59.9-78.9-94.8-157-103.9c-3.3-0.4-5.7-3.4-5.3-6.7c0.4-3.3,3.4-5.7,6.7-5.3c45.4,5.3,83.3,19.3,112.7,41.8
		c23.7,18.1,41.9,41.5,54,69.7c20.7,47.8,16.9,92.1,16.8,93.9C404.4,231.9,401.8,234.2,398.8,234.2z"/>
</g>
</svg>
