<?xml version="1.0" encoding="utf-8"?>
<!-- Generator: Adobe Illustrator 25.0.1, SVG Export Plug-In . SVG Version: 6.00 Build 0)  -->
<svg version="1.1" id="Layer_1" xmlns="http://www.w3.org/2000/svg" xmlns:xlink="http://www.w3.org/1999/xlink" x="0px" y="0px"
	 viewBox="0 0 430 430" style="enable-background:new 0 0 430 430;" xml:space="preserve">
<style type="text/css">
	.st0{fill:#08a88a;}
	.st1{fill:#121331;}
</style>
<g>
	<path class="st0" d="M199.3,405.4c-98.5,0-178.7-80.1-178.7-178.7c0-98.5,80.1-178.7,178.7-178.7c98.5,0,178.7,80.1,178.7,178.7
		C378,325.3,297.8,405.4,199.3,405.4z M199.3,68.1c-87.5,0-158.7,71.2-158.7,158.7c0,87.5,71.2,158.7,158.7,158.7
		S358,314.2,358,226.8C358,139.3,286.8,68.1,199.3,68.1z"/>
	<path class="st1" d="M230.7,381.9C132.2,381.9,52,301.8,52,203.2c0-98.5,80.1-178.7,178.7-178.7s178.7,80.1,178.7,178.7
		C409.3,301.8,329.2,381.9,230.7,381.9z M230.7,44.6C143.2,44.6,72,115.8,72,203.2c0,87.5,71.2,158.7,158.7,158.7
		s158.7-71.2,158.7-158.7C389.3,115.8,318.1,44.6,230.7,44.6z"/>
</g>
</svg>
