<?xml version="1.0" encoding="utf-8"?>
<!-- Generator: Adobe Illustrator 25.0.1, SVG Export Plug-In . SVG Version: 6.00 Build 0)  -->
<svg version="1.1" id="Layer_1" xmlns="http://www.w3.org/2000/svg" xmlns:xlink="http://www.w3.org/1999/xlink" x="0px" y="0px"
	 viewBox="0 0 430 430" style="enable-background:new 0 0 430 430;" xml:space="preserve">
<style type="text/css">
	.st0{fill:#08a88a;}
	.st1{fill:#121331;}
</style>
<g>
	<path class="st0" d="M367.4,401.5H30c-3.3,0-6-2.7-6-6V57.2c0-3.3,2.7-6,6-6h337.4c3.3,0,6,2.7,6,6v338.3
		C373.4,398.8,370.7,401.5,367.4,401.5z M36,389.5h325.4V63.2H36V389.5z"/>
	<path class="st1" d="M400,378.8H62.6c-3.3,0-6-2.7-6-6V34.5c0-3.3,2.7-6,6-6H400c3.3,0,6,2.7,6,6v338.3
		C406,376.1,403.4,378.8,400,378.8z M68.6,366.8H394V40.5H68.6V366.8z"/>
</g>
</svg>
