<?xml version="1.0" encoding="utf-8"?>
<!-- Generator: Adobe Illustrator 25.0.1, SVG Export Plug-In . SVG Version: 6.00 Build 0)  -->
<svg version="1.1" id="Layer_1" xmlns="http://www.w3.org/2000/svg" xmlns:xlink="http://www.w3.org/1999/xlink" x="0px" y="0px"
	 viewBox="0 0 430 430" style="enable-background:new 0 0 430 430;" xml:space="preserve">
<style type="text/css">
	.st0{fill:#08a88a;}
	.st1{fill:#121331;}
</style>
<path class="st0" d="M308.7,400.9c-1,0-1.9-0.2-2.8-0.7l-106.5-56L93,400.2c-2,1.1-4.5,0.9-6.3-0.5c-1.8-1.3-2.8-3.6-2.4-5.9
	l20.3-118.6l-86.2-84c-1.6-1.6-2.2-4-1.5-6.2c0.7-2.2,2.6-3.8,4.8-4.1l119.1-17.3l53.2-107.9c1-2,3.1-3.3,5.4-3.3s4.4,1.3,5.4,3.3
	l53.2,107.9l119.1,17.3c2.3,0.3,4.1,1.9,4.8,4.1c0.7,2.2,0.1,4.6-1.5,6.2l-86.2,84l20.3,118.6c0.4,2.3-0.5,4.5-2.4,5.9
	C311.2,400.5,310,400.9,308.7,400.9z M199.4,331.5c1,0,1.9,0.2,2.8,0.7l98.5,51.8l-18.8-109.7c-0.3-1.9,0.3-3.9,1.7-5.3l79.7-77.7
	l-110.1-16c-2-0.3-3.6-1.5-4.5-3.3l-49.3-99.8L150.2,172c-0.9,1.8-2.6,3-4.5,3.3l-110.1,16l79.7,77.7c1.4,1.4,2.1,3.4,1.7,5.3
	L98.1,384l98.5-51.8C197.5,331.7,198.5,331.5,199.4,331.5z"/>
<path class="st1" d="M339.8,377.4c-1,0-1.9-0.2-2.8-0.7l-106.5-56l-106.5,56c-2,1.1-4.5,0.9-6.3-0.5c-1.8-1.3-2.8-3.6-2.4-5.9
	l20.3-118.6l-86.2-84c-1.6-1.6-2.2-4-1.5-6.2c0.7-2.2,2.6-3.8,4.8-4.1l119.1-17.3l53.2-107.9c1-2,3.1-3.3,5.4-3.3s4.4,1.3,5.4,3.3
	l53.2,107.9l119.1,17.3c2.3,0.3,4.1,1.9,4.8,4.1c0.7,2.2,0.1,4.6-1.5,6.2l-86.2,84l20.3,118.6c0.4,2.3-0.5,4.5-2.4,5.9
	C342.3,377,341.1,377.4,339.8,377.4z M230.6,308c1,0,1.9,0.2,2.8,0.7l98.5,51.8L313,250.7c-0.3-1.9,0.3-3.9,1.7-5.3l79.7-77.7
	l-110.1-16c-2-0.3-3.6-1.5-4.5-3.3l-49.3-99.8l-49.3,99.8c-0.9,1.8-2.6,3-4.5,3.3l-110.1,16l79.7,77.7c1.4,1.4,2.1,3.4,1.7,5.3
	l-18.8,109.7l98.5-51.8C228.6,308.2,229.6,308,230.6,308z"/>
</svg>
