<?xml version="1.0" encoding="utf-8"?>
<!-- Generator: Adobe Illustrator 25.0.1, SVG Export Plug-In . SVG Version: 6.00 Build 0)  -->
<svg version="1.1" id="Layer_1" xmlns="http://www.w3.org/2000/svg" xmlns:xlink="http://www.w3.org/1999/xlink" x="0px" y="0px"
	 viewBox="0 0 430 430" style="enable-background:new 0 0 430 430;" xml:space="preserve">
<style type="text/css">
	.st0{fill:#08a88a;}
	.st1{fill:#121331;}
</style>
<g>
	<path class="st0" d="M297,378.9H105c-2.6,0-4.9-1.7-5.7-4.1L40,192.2c-0.8-2.5,0.1-5.2,2.2-6.7L197.4,72.6c2.1-1.5,5-1.5,7.1,0
		l155.3,112.8c2.1,1.5,3,4.2,2.2,6.7l-59.3,182.6C301.9,377.2,299.6,378.9,297,378.9z M109.3,366.9h183.3l56.6-174.3L201,84.9
		L52.7,192.6L109.3,366.9z"/>
	<path class="st1" d="M325,358.5H133c-2.6,0-4.9-1.7-5.7-4.1L68,171.8c-0.8-2.5,0.1-5.2,2.2-6.7L225.5,52.2c2.1-1.5,5-1.5,7.1,0
		l155.3,112.8c2.1,1.5,3,4.2,2.2,6.7l-59.3,182.6C329.9,356.8,327.6,358.5,325,358.5z M137.4,346.5h183.3l56.6-174.3L229,64.5
		L80.8,172.2L137.4,346.5z"/>
</g>
</svg>
