<?xml version="1.0" encoding="utf-8"?>
<!-- Generator: Adobe Illustrator 25.0.1, SVG Export Plug-In . SVG Version: 6.00 Build 0)  -->
<svg version="1.1" id="Layer_1" xmlns="http://www.w3.org/2000/svg" xmlns:xlink="http://www.w3.org/1999/xlink" x="0px" y="0px"
	 viewBox="0 0 430 430" style="enable-background:new 0 0 430 430;" xml:space="preserve">
<style type="text/css">
	.st0{fill:#08a88a;}
	.st1{fill:#121331;}
</style>
<path class="st0" d="M368.7,382.1H26.1c-2.1,0-4.1-1.1-5.2-3s-1.1-4.1,0-6L192.2,76.4c1.1-1.9,3.1-3,5.2-3s4.1,1.1,5.2,3
	l171.3,296.7c1.1,1.9,1.1,4.1,0,6C372.8,380.9,370.8,382.1,368.7,382.1z M36.5,370.1h321.8L197.4,91.4L36.5,370.1z"/>
<path class="st1" d="M403.9,356.6H61.3c-2.1,0-4.1-1.1-5.2-3s-1.1-4.1,0-6L227.4,50.9c1.1-1.9,3.1-3,5.2-3s4.1,1.1,5.2,3
	l171.3,296.7c1.1,1.9,1.1,4.1,0,6C408,355.5,406,356.6,403.9,356.6z M71.7,344.6h321.8L232.6,65.9L71.7,344.6z"/>
</svg>
