<?xml version="1.0" encoding="utf-8"?>
<!-- Generator: Adobe Illustrator 25.0.1, SVG Export Plug-In . SVG Version: 6.00 Build 0)  -->
<svg version="1.1" id="Layer_1" xmlns="http://www.w3.org/2000/svg" xmlns:xlink="http://www.w3.org/1999/xlink" x="0px" y="0px"
	 viewBox="0 0 430 430" style="enable-background:new 0 0 430 430;" xml:space="preserve">
<style type="text/css">
	.st0{fill:#121331;}
</style>
<path class="st0" d="M174.9,405.7c-0.4,0-0.9,0-1.3-0.2c-1.9-0.4-3.4-1.7-4.2-3.5l-18.3-42.6l-45,14.5c-1.8,0.6-3.8,0.3-5.3-0.8
	c-1.5-1.1-2.5-2.9-2.5-4.8l-0.8-48.5l-45.4-3.1c-1.9-0.1-3.6-1.2-4.7-2.8c-1-1.6-1.2-3.6-0.5-5.4l17.5-45.5l-36.1-22
	c-1.5-0.9-2.6-2.5-2.8-4.3c-0.2-1.8,0.3-3.6,1.6-4.9l31.2-33.5L31.9,164c-1.1-1.5-1.5-3.4-1-5.2c0.5-1.8,1.8-3.3,3.5-4L77.7,137
	l-7.4-44.5c-0.3-1.8,0.2-3.6,1.5-5c1.2-1.4,3-2.1,4.8-2l46.1,2.8l10.8-43.7c0.4-1.8,1.7-3.3,3.4-4.1c1.7-0.8,3.7-0.7,5.3,0.2
	l39.7,21.5L209,26.6c1.1-1.5,2.8-2.3,4.7-2.4c1.9,0,3.6,0.8,4.7,2.2L247,61.3l40.5-20c1.6-0.8,3.5-0.8,5.2-0.1
	c1.6,0.8,2.9,2.2,3.3,4l10.8,43.1l44.9-2.8c1.8-0.1,3.6,0.6,4.8,1.9c1.2,1.3,1.8,3.2,1.5,5l-6.8,44.5l41.6,16.5
	c1.7,0.7,3,2.1,3.5,3.8s0.3,3.6-0.7,5.1l-23.9,35.9l31.5,35c1.2,1.4,1.8,3.2,1.4,5c-0.3,1.8-1.4,3.4-3.1,4.3l-36.5,19.7l15.4,46.7
	c0.6,1.7,0.3,3.6-0.7,5.2c-1,1.5-2.6,2.5-4.4,2.7l-42.9,4.2l-3.5,47.7c-0.1,1.9-1.2,3.6-2.7,4.6c-1.6,1-3.6,1.2-5.3,0.6l-42.1-15.6
	l-21,44c-0.8,1.7-2.4,3-4.3,3.3c-1.9,0.4-3.8-0.2-5.2-1.5l-33.2-31.3l-36.1,31.4C177.8,405.2,176.3,405.7,174.9,405.7z M154.5,346.1
	c2.3,0,4.5,1.4,5.5,3.6l17.2,40.1l33.9-29.6c2.3-2,5.8-2,8.1,0.2l31.2,29.4l19.9-41.5c1.3-2.8,4.6-4.1,7.5-3l39.8,14.7l3.3-44.8
	c0.2-2.9,2.5-5.2,5.4-5.5l40.4-4L352,261.2c-0.9-2.8,0.3-5.8,2.8-7.2l34.2-18.5l-29.5-32.8c-1.8-2-2-5.1-0.5-7.3l22.4-33.6
	l-39.2-15.6c-2.6-1-4.1-3.7-3.7-6.5l6.4-41.8l-42.4,2.7c-2.9,0.2-5.5-1.7-6.2-4.5l-10.2-40.7L248,74.1c-2.5,1.2-5.5,0.6-7.3-1.6
	L214,39.9l-25.7,33.7c-1.8,2.4-5,3-7.6,1.6L143.3,55l-10.1,41c-0.7,2.8-3.3,4.7-6.2,4.6l-43.6-2.7l7,41.8c0.5,2.8-1,5.5-3.6,6.5
	l-40.5,16.6l24.7,32.2c1.8,2.3,1.6,5.6-0.4,7.7l-29.7,31.8L75,255.5c2.5,1.5,3.5,4.6,2.5,7.3L61,305.4l42.8,2.9
	c3.1,0.2,5.5,2.8,5.6,5.9l0.7,45.9l42.5-13.7C153.3,346.2,153.9,346.1,154.5,346.1z"/>
</svg>
