<?xml version="1.0" encoding="utf-8"?>
<!-- Generator: Adobe Illustrator 25.0.1, SVG Export Plug-In . SVG Version: 6.00 Build 0)  -->
<svg version="1.1" id="Layer_1" xmlns="http://www.w3.org/2000/svg" xmlns:xlink="http://www.w3.org/1999/xlink" x="0px" y="0px"
	 viewBox="0 0 430 430" style="enable-background:new 0 0 430 430;" xml:space="preserve">
<style type="text/css">
	.st0{fill:#121331;}
</style>
<g>
	<path class="st0" d="M216.4,92.2L216.4,92.2c-8.2,0-14.8-6.6-14.8-14.8V42.9c0-8.2,6.6-14.8,14.8-14.8h0c8.2,0,14.8,6.6,14.8,14.8
		v34.6C231.2,85.6,224.6,92.2,216.4,92.2z"/>
	<path class="st0" d="M216.4,401.8L216.4,401.8c-8.2,0-14.8-6.6-14.8-14.8v-34.6c0-8.2,6.6-14.8,14.8-14.8h0
		c8.2,0,14.8,6.6,14.8,14.8v34.6C231.2,395.2,224.6,401.8,216.4,401.8z"/>
	<path class="st0" d="M28.5,214L28.5,214c0-8.2,6.6-14.8,14.8-14.8h34.6c8.2,0,14.8,6.6,14.8,14.8v0c0,8.2-6.6,14.8-14.8,14.8H43.3
		C35.1,228.8,28.5,222.2,28.5,214z"/>
	<path class="st0" d="M337.4,214L337.4,214c0-8.2,6.6-14.8,14.8-14.8h34.6c8.2,0,14.8,6.6,14.8,14.8v0c0,8.2-6.6,14.8-14.8,14.8
		h-34.6C344,228.8,337.4,222.2,337.4,214z"/>
	<path class="st0" d="M130,128.9L130,128.9c-5.8,5.8-15.1,5.8-20.9,0l-24.4-24.4c-5.8-5.8-5.8-15.1,0-20.9l0,0
		c5.8-5.8,15.1-5.8,20.9,0l24.4,24.4C135.8,113.8,135.8,123.2,130,128.9z"/>
	<path class="st0" d="M348.2,347.1L348.2,347.1c-5.8,5.8-15.1,5.8-20.9,0l-24.4-24.4c-5.8-5.8-5.8-15.1,0-20.9h0
		c5.8-5.8,15.1-5.8,20.9,0l24.4,24.4C353.9,332,353.9,341.3,348.2,347.1z"/>
	<path class="st0" d="M302.1,128.2L302.1,128.2c5.8,5.8,15.1,5.8,20.9,0l24.4-24.4c5.8-5.8,5.8-15.1,0-20.9l0,0
		c-5.8-5.8-15.1-5.8-20.9,0l-24.4,24.4C296.4,113.1,296.4,122.5,302.1,128.2z"/>
	<path class="st0" d="M83.3,347.1L83.3,347.1c5.8,5.8,15.1,5.8,20.9,0l24.4-24.4c5.8-5.8,5.8-15.1,0-20.9h0
		c-5.8-5.8-15.1-5.8-20.9,0l-24.4,24.4C77.5,332,77.5,341.3,83.3,347.1z"/>
	<path class="st0" d="M146.1,42.9L146.1,42.9c-7.5,3.1-11.1,11.8-7.9,19.3l13.3,31.9c3.1,7.5,11.8,11.1,19.3,7.9l0,0
		c7.5-3.1,11.1-11.8,7.9-19.3l-13.3-31.9C162.3,43.3,153.7,39.7,146.1,42.9z"/>
	<path class="st0" d="M261.7,329.1L261.7,329.1c-7.5,3.1-11.1,11.8-7.9,19.3l13.3,31.9c3.1,7.5,11.8,11.1,19.3,7.9h0
		c7.5-3.1,11.1-11.8,7.9-19.3L281,337C277.9,329.5,269.2,325.9,261.7,329.1z"/>
	<path class="st0" d="M329.3,263.3L329.3,263.3c-3.3,7.5,0.1,16.2,7.6,19.5l31.6,13.9c7.5,3.3,16.2-0.1,19.5-7.6v0
		c3.3-7.5-0.1-16.2-7.6-19.5l-31.6-13.9C341.3,252.4,332.6,255.8,329.3,263.3z"/>
	<path class="st0" d="M44.9,140.9L44.9,140.9c-3.3,7.5,0.1,16.2,7.6,19.5l31.6,13.9c7.5,3.3,16.2-0.1,19.5-7.6l0,0
		c3.3-7.5-0.1-16.2-7.6-19.5l-31.6-13.9C56.9,130,48.2,133.4,44.9,140.9z"/>
	<path class="st0" d="M329.3,168.5L329.3,168.5c2.8,7.6,11.3,11.6,19,8.7l32.4-11.9c7.6-2.8,11.6-11.3,8.7-19v0
		c-2.8-7.6-11.3-11.6-19-8.7L338,149.5C330.4,152.3,326.5,160.8,329.3,168.5z"/>
	<path class="st0" d="M42,284.4L42,284.4c2.8,7.6,11.3,11.6,19,8.7l32.4-11.9c7.6-2.8,11.6-11.3,8.7-19l0,0
		c-2.8-7.6-11.3-11.6-19-8.7l-32.4,11.9C43.1,268.3,39.2,276.7,42,284.4z"/>
	<path class="st0" d="M264.2,101.7L264.2,101.7c7.4,3.3,16.2,0,19.5-7.4l14.2-31.5c3.3-7.4,0-16.2-7.4-19.5l0,0
		c-7.4-3.3-16.2,0-19.5,7.4l-14.2,31.5C253.4,89.6,256.7,98.3,264.2,101.7z"/>
	<path class="st0" d="M141.8,386.8L141.8,386.8c7.4,3.3,16.2,0,19.5-7.4l14.2-31.5c3.3-7.4,0-16.2-7.4-19.5h0
		c-7.4-3.3-16.2,0-19.5,7.4l-14.2,31.5C131,374.7,134.3,383.5,141.8,386.8z"/>
</g>
</svg>
