<?xml version="1.0" encoding="utf-8"?>
<!-- Generator: Adobe Illustrator 25.0.1, SVG Export Plug-In . SVG Version: 6.00 Build 0)  -->
<svg version="1.1" id="Layer_1" xmlns="http://www.w3.org/2000/svg" xmlns:xlink="http://www.w3.org/1999/xlink" x="0px" y="0px"
	 viewBox="0 0 430 430" style="enable-background:new 0 0 430 430;" xml:space="preserve">
<style type="text/css">
	.st0{fill:#121331;}
</style>
<g>
	<path class="st0" d="M215.4,93L215.4,93c-8.4,0-15.1-6.8-15.1-15.1V42.6c0-8.4,6.8-15.1,15.1-15.1h0c8.4,0,15.1,6.8,15.1,15.1v35.3
		C230.5,86.2,223.7,93,215.4,93z"/>
	<path class="st0" d="M215.4,402.6L215.4,402.6c-8.4,0-15.1-6.8-15.1-15.1v-35.3c0-8.4,6.8-15.1,15.1-15.1h0
		c8.4,0,15.1,6.8,15.1,15.1v35.3C230.5,395.8,223.7,402.6,215.4,402.6z"/>
	<path class="st0" d="M337.4,214.3L337.4,214.3c0-8.4,6.8-15.1,15.1-15.1h35.3c8.4,0,15.1,6.8,15.1,15.1v0c0,8.4-6.8,15.1-15.1,15.1
		h-35.3C344.2,229.4,337.4,222.6,337.4,214.3z"/>
	<path class="st0" d="M27.1,214.3L27.1,214.3c0-8.4,6.8-15.1,15.1-15.1h35.3c8.4,0,15.1,6.8,15.1,15.1v0c0,8.4-6.8,15.1-15.1,15.1
		H42.2C33.8,229.4,27.1,222.6,27.1,214.3z"/>
	<path class="st0" d="M262.8,166.9L262.8,166.9c-5.9-5.9-5.9-15.5,0-21.4l47.3-47.3c5.9-5.9,15.5-5.9,21.4,0l0,0
		c5.9,5.9,5.9,15.5,0,21.4l-47.3,47.3C278.2,172.8,268.7,172.8,262.8,166.9z"/>
	<path class="st0" d="M99,330.7L99,330.7c-5.9-5.9-5.9-15.5,0-21.4l47.3-47.3c5.9-5.9,15.5-5.9,21.4,0l0,0c5.9,5.9,5.9,15.5,0,21.4
		l-47.3,47.3C114.4,336.6,104.9,336.6,99,330.7z"/>
	<path class="st0" d="M262.2,262.5L262.2,262.5c5.9-5.9,15.5-5.9,21.4,0l47.3,47.3c5.9,5.9,5.9,15.5,0,21.4h0
		c-5.9,5.9-15.5,5.9-21.4,0l-47.3-47.3C256.3,278,256.3,268.5,262.2,262.5z"/>
	<path class="st0" d="M98.4,98.7L98.4,98.7c5.9-5.9,15.5-5.9,21.4,0l47.3,47.3c5.9,5.9,5.9,15.5,0,21.4l0,0
		c-5.9,5.9-15.5,5.9-21.4,0l-47.3-47.3C92.5,114.2,92.5,104.7,98.4,98.7z"/>
</g>
</svg>
