<?xml version="1.0" encoding="utf-8"?>
<!-- Generator: Adobe Illustrator 25.0.1, SVG Export Plug-In . SVG Version: 6.00 Build 0)  -->
<svg version="1.1" id="Layer_1" xmlns="http://www.w3.org/2000/svg" xmlns:xlink="http://www.w3.org/1999/xlink" x="0px" y="0px"
	 viewBox="0 0 430 430" style="enable-background:new 0 0 430 430;" xml:space="preserve">
<style type="text/css">
	.st0{fill:#121331;}
</style>
<path class="st0" d="M217,414.2c-53,0-103-20.9-140.9-58.8c-37.9-37.9-58.8-87.9-58.8-140.9c0-34.6,9-68.7,26.1-98.7
	c1.6-2.9,5.3-3.9,8.2-2.2c2.9,1.6,3.9,5.3,2.2,8.2c-16.1,28.2-24.5,60.3-24.5,92.8c0,103.5,84.2,187.7,187.7,187.7
	c37.5,0,73.8-11.1,104.9-32.1c2.7-1.9,6.5-1.1,8.3,1.6c1.9,2.7,1.1,6.5-1.6,8.3C295.5,402.4,256.9,414.2,217,414.2z"/>
</svg>
