<?xml version="1.0" encoding="utf-8"?>
<!-- Generator: Adobe Illustrator 25.0.1, SVG Export Plug-In . SVG Version: 6.00 Build 0)  -->
<svg version="1.1" id="Layer_1" xmlns="http://www.w3.org/2000/svg" xmlns:xlink="http://www.w3.org/1999/xlink" x="0px" y="0px"
	 viewBox="0 0 430 430" style="enable-background:new 0 0 430 430;" xml:space="preserve">
<style type="text/css">
	.st0{fill:#121331;}
</style>
<path class="st0" d="M369.1,371.2c-0.9,0-1.9-0.2-2.8-0.7l-123-64.3l-120.1,62.4c-2,1-4.5,0.9-6.3-0.5c-1.8-1.3-2.8-3.6-2.4-5.8
	l22.3-132.5l-80.1-80.1c-2.3-2.3-2.3-6.1,0-8.5c2.3-2.3,6.1-2.3,8.5,0l82.3,82.3c1.4,1.4,2,3.3,1.7,5.2l-20.8,123.7l112.2-58.3
	c1.7-0.9,3.8-0.9,5.5,0l114.9,60l-9.8-52.7c-0.6-3.3,1.5-6.4,4.8-7c3.3-0.6,6.4,1.5,7,4.8l12,64.8c0.4,2.3-0.5,4.6-2.3,5.9
	C371.6,370.8,370.4,371.2,369.1,371.2z"/>
</svg>
