<?xml version="1.0" encoding="utf-8"?>
<!-- Generator: Adobe Illustrator 25.0.1, SVG Export Plug-In . SVG Version: 6.00 Build 0)  -->
<svg version="1.1" id="Layer_1" xmlns="http://www.w3.org/2000/svg" xmlns:xlink="http://www.w3.org/1999/xlink" x="0px" y="0px"
	 viewBox="0 0 430 430" style="enable-background:new 0 0 430 430;" xml:space="preserve">
<style type="text/css">
	.st0{fill:#121331;}
</style>
<path class="st0" d="M400.4,360.3H29.6c-2.1,0-4.1-1.1-5.2-3s-1.1-4.2,0-6l46.4-79.9c1.7-2.9,5.3-3.8,8.2-2.2
	c2.9,1.7,3.8,5.3,2.2,8.2L40,348.3h350L349.4,278c-1.7-2.9-0.7-6.5,2.2-8.2c2.9-1.7,6.5-0.7,8.2,2.2l45.8,79.3c1.1,1.9,1.1,4.1,0,6
	C404.5,359.2,402.5,360.3,400.4,360.3z"/>
</svg>
