<?xml version="1.0" encoding="utf-8"?>
<!-- Generator: Adobe Illustrator 25.0.1, SVG Export Plug-In . SVG Version: 6.00 Build 0)  -->
<svg version="1.1" id="Layer_1" xmlns="http://www.w3.org/2000/svg" xmlns:xlink="http://www.w3.org/1999/xlink" x="0px" y="0px"
	 viewBox="0 0 430 430" style="enable-background:new 0 0 430 430;" xml:space="preserve">
<style type="text/css">
	.st0{fill:#121331;}
</style>
<g>
	<path class="st0" d="M46.6,151.7c-0.6,0-1.2-0.1-1.8-0.3c-3.2-1-4.9-4.4-3.9-7.5c0.2-0.7,5.5-17.1,20.3-37.7
		c13.6-18.9,38-45.1,77.7-62.5c3-1.3,6.6,0.1,7.9,3.1c1.3,3-0.1,6.6-3.1,7.9c-37,16.2-59.8,40.5-72.5,58.1
		c-13.8,19.1-18.8,34.6-18.9,34.8C51.5,150.1,49.1,151.7,46.6,151.7z"/>
	<path class="st0" d="M288.7,386.8c-2.3,0-4.5-1.3-5.5-3.6c-1.3-3,0.1-6.6,3.1-7.9c37-16.2,59.8-40.5,72.5-58.1
		c13.8-19.1,18.8-34.6,18.9-34.8c1-3.2,4.4-4.9,7.5-3.9c3.2,1,4.9,4.4,3.9,7.5c-0.2,0.7-5.5,17.1-20.3,37.7
		c-13.6,18.9-38,45.1-77.7,62.5C290.3,386.7,289.5,386.8,288.7,386.8z"/>
</g>
</svg>
