<?xml version="1.0" encoding="utf-8"?>
<!-- Generator: Adobe Illustrator 25.0.1, SVG Export Plug-In . SVG Version: 6.00 Build 0)  -->
<svg version="1.1" id="Layer_1" xmlns="http://www.w3.org/2000/svg" xmlns:xlink="http://www.w3.org/1999/xlink" x="0px" y="0px"
	 viewBox="0 0 430 430" style="enable-background:new 0 0 430 430;" xml:space="preserve">
<style type="text/css">
	.st0{fill:#121331;}
</style>
<g>
	<path class="st0" d="M211.4,410H26.7c-3.3,0-6-2.7-6-6v-60.3c0-3.3,2.7-6,6-6s6,2.7,6,6V398h178.7c3.3,0,6,2.7,6,6
		S214.7,410,211.4,410z"/>
	<path class="st0" d="M403.3,92.3c-3.3,0-6-2.7-6-6V32H218.6c-3.3,0-6-2.7-6-6s2.7-6,6-6h184.7c3.3,0,6,2.7,6,6v60.3
		C409.3,89.6,406.6,92.3,403.3,92.3z"/>
</g>
</svg>
