<?xml version="1.0" encoding="utf-8"?>
<!-- Generator: Adobe Illustrator 25.0.1, SVG Export Plug-In . SVG Version: 6.00 Build 0)  -->
<svg version="1.1" id="Layer_1" xmlns="http://www.w3.org/2000/svg" xmlns:xlink="http://www.w3.org/1999/xlink" x="0px" y="0px"
	 viewBox="0 0 430 430" style="enable-background:new 0 0 430 430;" xml:space="preserve">
<style type="text/css">
	.st0{fill:#08a88a;}
</style>
<path class="st0" d="M215,387.7c-95.2,0-172.7-77.5-172.7-172.7c0-95.2,77.5-172.7,172.7-172.7c95.2,0,172.7,77.5,172.7,172.7
	C387.7,310.2,310.2,387.7,215,387.7z M215,54.3c-88.6,0-160.7,72.1-160.7,160.7c0,88.6,72.1,160.7,160.7,160.7
	c88.6,0,160.7-72.1,160.7-160.7C375.7,126.4,303.6,54.3,215,54.3z"/>
<path class="st0" d="M215,343.8C144,343.8,86.2,286,86.2,215S144,86.2,215,86.2S343.8,144,343.8,215S286,343.8,215,343.8z
	 M215,141.2c-40.7,0-73.8,33.1-73.8,73.8s33.1,73.8,73.8,73.8s73.8-33.1,73.8-73.8S255.7,141.2,215,141.2z"/>
</svg>
