<?xml version="1.0" encoding="utf-8"?>
<!-- Generator: Adobe Illustrator 24.0.2, SVG Export Plug-In . SVG Version: 6.00 Build 0)  -->
<svg version="1.1" xmlns="http://www.w3.org/2000/svg" xmlns:xlink="http://www.w3.org/1999/xlink" x="0px" y="0px"
	 viewBox="0 0 24 24" style="enable-background:new 0 0 24 24;" xml:space="preserve">
<style type="text/css">
	.st0{fill:none;}
	.st1{fill:#121331;}
</style>
<g id="bounding_area">
	<rect class="st0" width="24" height="24"/>
</g>
<g id="design">
	<g>
		<path class="st1" d="M20.43,5.02l-8.25-2c-0.12-0.03-0.24-0.03-0.36,0l-8.25,2C3.24,5.1,3,5.4,3,5.75v2.5C3,8.66,3.34,9,3.75,9H6
			v7H4.75C4.34,16,4,16.34,4,16.75c0,0.41,0.34,0.75,0.75,0.75h14.5c0.42,0,0.75-0.34,0.75-0.75c0-0.41-0.33-0.75-0.75-0.75H18V9
			h2.25C20.66,9,21,8.66,21,8.25v-2.5C21,5.4,20.76,5.1,20.43,5.02z M7.5,16V9h3.75v7H7.5z M16.5,16h-3.75V9h3.75V16z M19.5,7.5h-15
			V6.34L12,4.52l7.5,1.82V7.5z"/>
		<path class="st1" d="M20.25,21H3.75C3.33,21,3,20.67,3,20.25s0.34-0.75,0.75-0.75h16.5c0.41,0,0.75,0.34,0.75,0.75
			S20.67,21,20.25,21z"/>
	</g>
</g>
</svg>
