<?xml version="1.0" encoding="utf-8"?>
<!-- Generator: Adobe Illustrator 24.1.2, SVG Export Plug-In . SVG Version: 6.00 Build 0)  -->
<svg version="1.1" id="Warstwa_3" xmlns="http://www.w3.org/2000/svg" xmlns:xlink="http://www.w3.org/1999/xlink" x="0px" y="0px"
	 viewBox="0 0 430 430" style="enable-background:new 0 0 430 430;" xml:space="preserve">
<style type="text/css">
	.st0{fill:#08a88a;}
	.st1{fill:#121331;}
	.st2{fill:#08a88a;fill-opacity:0;}
	.st3{fill:none;}
</style>
<g>
	<path class="st0" d="M277.57,369.71c-0.04,0-0.07,0-0.11,0c-1.67-0.03-3.26-0.72-4.42-1.92l-1.29-1.34
		c-11.59-12-12.24-30.6-2.17-43.34l-26.06-26.99c-2.42-2.5-2.35-6.49,0.16-8.91c2.5-2.42,6.49-2.35,8.91,0.16l25.85,26.77l32-30.9
		l-25.86-26.77c-2.42-2.5-2.35-6.49,0.16-8.91s6.49-2.35,8.91,0.16l26.06,26.99c5.79-4.26,12.78-6.5,20.09-6.38
		c8.81,0.15,17.03,3.73,23.15,10.07l1.29,1.33c1.16,1.2,1.8,2.82,1.77,4.49c-0.03,1.67-0.72,3.26-1.92,4.42l-82.13,79.31
		C280.77,369.08,279.2,369.71,277.57,369.71z M282.64,327.6l-1.32,1.27l0,0c-6.99,6.75-8.11,17.33-3.24,25.29l72.37-69.89
		c-3.2-2.12-6.94-3.29-10.88-3.36c-5.42-0.08-10.6,1.94-14.52,5.72l-1.29,1.25c-0.01,0.01-0.03,0.03-0.04,0.04
		c-0.01,0.01-0.03,0.03-0.04,0.04l-41,39.6c-0.01,0.01-0.01,0.01-0.02,0.02C282.65,327.59,282.64,327.59,282.64,327.6z
		 M119.16,164.58c-1.65,0-3.3-0.64-4.53-1.92l-8.65-8.96c-4.15-4.3-6.39-9.97-6.28-15.95c0.1-5.98,2.53-11.56,6.83-15.72l4.43-4.27
		l-45.19-46.8c-2.42-2.5-2.35-6.49,0.16-8.91c2.5-2.42,6.49-2.35,8.91,0.16l45.19,46.8l4.43-4.27c4.3-4.15,9.96-6.38,15.95-6.28
		c5.98,0.1,11.56,2.53,15.72,6.83l8.65,8.96c2.42,2.5,2.35,6.49-0.16,8.91c-2.5,2.42-6.49,2.35-8.91-0.16l-8.65-8.96
		c-1.82-1.88-4.26-2.94-6.87-2.99c-2.62-0.05-5.09,0.93-6.97,2.75l-17.92,17.3c-1.88,1.82-2.94,4.26-2.99,6.87
		c-0.05,2.62,0.93,5.09,2.75,6.97l8.65,8.96c2.42,2.5,2.35,6.49-0.16,8.91C122.32,163.99,120.74,164.58,119.16,164.58z"/>
	<path class="st1" d="M237.78,307.96c-1.65,0-3.3-0.64-4.53-1.92L104.36,172.57c-1.16-1.2-1.8-2.82-1.77-4.49
		c0.03-1.67,0.72-3.26,1.92-4.42l61.6-59.48c2.5-2.42,6.49-2.35,8.91,0.16l21.42,22.18c0.02,0.02,0.04,0.04,0.06,0.06
		c0.02,0.02,0.04,0.04,0.06,0.06l21.37,22.13c0.02,0.02,0.04,0.04,0.05,0.05c0.02,0.02,0.04,0.04,0.05,0.06l42.87,44.39
		c0.01,0.01,0.03,0.03,0.04,0.04c0.01,0.01,0.02,0.03,0.04,0.04l21.41,22.17c0.01,0.01,0.02,0.02,0.03,0.03
		c0.01,0.01,0.02,0.02,0.03,0.03l21.45,22.21c1.16,1.2,1.8,2.82,1.77,4.49c-0.03,1.67-0.72,3.26-1.92,4.42l-61.6,59.49
		C240.93,307.37,239.36,307.96,237.78,307.96z M117.8,168.35l120.13,124.4l52.54-50.73l-12.73-13.18l-16,15.45
		c-2.5,2.42-6.49,2.35-8.91-0.16c-2.42-2.5-2.35-6.49,0.16-8.91l16-15.45l-12.73-13.18l-16,15.45c-2.5,2.42-6.49,2.35-8.91-0.16
		c-2.42-2.5-2.35-6.49,0.16-8.91l16-15.45l-12.73-13.18l-16,15.45c-2.5,2.42-6.49,2.35-8.91-0.16c-2.42-2.5-2.35-6.49,0.16-8.91
		l16-15.45l-12.73-13.18l-16,15.45c-2.5,2.42-6.49,2.35-8.91-0.16s-2.35-6.49,0.16-8.91l16-15.45l-12.73-13.18l-16,15.45
		c-2.5,2.42-6.49,2.35-8.91-0.16c-2.42-2.5-2.35-6.49,0.16-8.91l16-15.45l-12.73-13.18L117.8,168.35z"/>
</g>
</svg>
