<?xml version="1.0" encoding="utf-8"?>
<!-- Generator: Adobe Illustrator 24.1.2, SVG Export Plug-In . SVG Version: 6.00 Build 0)  -->
<svg version="1.1" id="Warstwa_3" xmlns="http://www.w3.org/2000/svg" xmlns:xlink="http://www.w3.org/1999/xlink" x="0px" y="0px"
	 viewBox="0 0 430 430" style="enable-background:new 0 0 430 430;" xml:space="preserve">
<style type="text/css">
	.st0{fill:#08a88a;}
	.st1{fill:#121331;}
	.st2{fill:#08a88a;fill-opacity:0;}
	.st3{fill:none;}
</style>
<g>
	<path class="st0" d="M273.92,242.7c-3.48,0-6.3-2.82-6.3-6.3v-19.6h-18.11v19.6c0,3.48-2.82,6.3-6.3,6.3s-6.3-2.82-6.3-6.3v-19.6
		h-18.11v19.6c0,3.48-2.82,6.3-6.3,6.3s-6.3-2.82-6.3-6.3v-19.6H188.1v19.6c0,3.48-2.82,6.3-6.3,6.3s-6.3-2.82-6.3-6.3v-19.6H157.4
		v19.6c0,3.48-2.82,6.3-6.3,6.3s-6.3-2.82-6.3-6.3v-19.6h-12.86c-3.48,0-6.3-2.82-6.3-6.3s2.82-6.3,6.3-6.3h12.86v-15.37
		c0-3.48,2.82-6.3,6.3-6.3s6.3,2.82,6.3,6.3v15.37h18.11v-15.37c0-3.48,2.82-6.3,6.3-6.3s6.3,2.82,6.3,6.3v15.37h18.11v-15.37
		c0-3.48,2.82-6.3,6.3-6.3s6.3,2.82,6.3,6.3v15.37h18.11v-15.37c0-3.48,2.82-6.3,6.3-6.3s6.3,2.82,6.3,6.3v15.37h18.11v-15.37
		c0-3.48,2.82-6.3,6.3-6.3s6.3,2.82,6.3,6.3v15.37h17.84c3.48,0,6.3,2.82,6.3,6.3s-2.82,6.3-6.3,6.3h-17.84v19.6
		C280.22,239.88,277.4,242.7,273.92,242.7z"/>
	<path class="st0" d="M215,334.25c-39.97,0-78.91-11.17-112.61-32.31c-32.77-20.55-59.33-49.63-76.83-84.09
		c-0.91-1.79-0.91-3.91,0-5.7c17.49-34.46,44.06-63.54,76.83-84.09c33.7-21.14,72.64-32.31,112.61-32.31s78.91,11.17,112.61,32.31
		c32.77,20.55,59.33,49.63,76.83,84.09c0.91,1.79,0.91,3.91,0,5.7c-17.49,34.46-44.06,63.54-76.83,84.09
		C293.91,323.08,254.97,334.25,215,334.25z M105.05,288.83c31.96,21.07,69.92,32.82,109.94,32.82c39.96,0,77.86-11.71,109.79-32.72
		V141.06c-31.93-21.01-69.83-32.72-109.79-32.72c-40.02,0-77.99,11.75-109.94,32.82V288.83z M337.39,150.08v129.84
		c5.4-4.2,10.6-8.68,15.57-13.44V163.52C347.99,158.76,342.79,154.28,337.39,150.08z M76.89,266.33
		c4.97,4.77,10.16,9.26,15.57,13.46V150.2c-5.41,4.21-10.6,8.7-15.57,13.46V266.33z M365.55,176.74v76.52
		c10.02-11.53,18.83-24.34,26.17-38.26C384.38,201.08,375.58,188.27,365.55,176.74z M38.27,215c7.3,13.85,16.05,26.59,26.01,38.08
		v-76.15C54.33,188.41,45.58,201.15,38.27,215z"/>
	<path class="st0" d="M98.83,298.32c-3.48,0-6.3-2.82-6.3-6.3V137.98c0-3.48,2.82-6.3,6.3-6.3s6.3,2.82,6.3,6.3v154.04
		C105.13,295.5,102.31,298.32,98.83,298.32z M331.17,298.27c-3.48,0-6.3-2.82-6.3-6.3V137.93c0-3.48,2.82-6.3,6.3-6.3
		s6.3,2.82,6.3,6.3v154.04C337.46,295.45,334.64,298.27,331.17,298.27z"/>
	<path class="st1" d="M70.67,275.09c-3.48,0-6.3-2.82-6.3-6.3V161.21c0-3.48,2.82-6.3,6.3-6.3s6.3,2.82,6.3,6.3v107.57
		C76.96,272.27,74.14,275.09,70.67,275.09z M359.33,275.04c-3.48,0-6.3-2.82-6.3-6.3V161.17c0-3.48,2.82-6.3,6.3-6.3
		s6.3,2.82,6.3,6.3v107.57C365.63,272.22,362.81,275.04,359.33,275.04z"/>
	<path class="st1" d="M215,334.25c-39.97,0-78.91-11.17-112.61-32.31c-32.77-20.55-59.33-49.63-76.83-84.09
		c-0.91-1.79-0.91-3.91,0-5.7c17.49-34.46,44.06-63.54,76.83-84.09c33.7-21.14,72.64-32.31,112.61-32.31s78.91,11.17,112.61,32.31
		c32.77,20.55,59.33,49.63,76.83,84.09c0.91,1.79,0.91,3.91,0,5.7c-17.49,34.46-44.06,63.54-76.83,84.09
		C293.91,323.08,254.97,334.25,215,334.25z M38.27,215C73.02,280.87,140.44,321.65,215,321.65c74.56,0,141.98-40.78,176.73-106.65
		C356.98,149.13,289.56,108.35,215,108.35C140.44,108.35,73.02,149.13,38.27,215z"/>
</g>
</svg>
