<?xml version="1.0" encoding="utf-8"?>
<!-- Generator: Adobe Illustrator 24.1.2, SVG Export Plug-In . SVG Version: 6.00 Build 0)  -->
<svg version="1.1" id="Warstwa_3" xmlns="http://www.w3.org/2000/svg" xmlns:xlink="http://www.w3.org/1999/xlink" x="0px" y="0px"
	 viewBox="0 0 430 430" style="enable-background:new 0 0 430 430;" xml:space="preserve">
<style type="text/css">
	.st0{fill:#08a88a;}
	.st1{fill:#121331;}
	.st2{fill:#08a88a;fill-opacity:0;}
	.st3{fill:none;}
</style>
<g>
	<rect x="87.66" y="281.89" class="st0" width="254.7" height="11.18"/>
	<path class="st1" d="M215.02,388.45c-75.5,0-137.84-60.98-139.27-136.58c-1.07-56.74,31.86-107.97,83.9-130.54
		c3.95-1.71,6.49-5.59,6.49-9.89V74.39h-1.06c-9.05,0-16.42-7.37-16.42-16.42s7.37-16.42,16.42-16.42h99.82
		c9.05,0,16.42,7.37,16.42,16.42s-7.37,16.42-16.42,16.42h-1.06v37.05c0,4.3,2.58,8.19,6.59,9.93
		c50.93,22.12,83.84,72.28,83.84,127.8c0,36.96-14.33,71.77-40.34,98.03c-26,26.24-60.64,40.88-97.55,41.24
		C215.94,388.45,215.47,388.45,215.02,388.45z M178.75,74.39v37.05c0,9.32-5.53,17.74-14.08,21.45
		c-47.34,20.52-77.29,67.13-76.32,118.74c1.3,68.75,58.01,124.21,126.67,124.22c0.42,0,0.83,0,1.25-0.01
		c69.15-0.68,125.41-57.5,125.41-126.67c0-50.49-29.93-96.12-76.26-116.24c-8.61-3.74-14.17-12.17-14.17-21.49V74.39H178.75z
		 M165.09,54.15c-2.11,0-3.82,1.71-3.82,3.82s1.71,3.82,3.82,3.82h99.82c2.11,0,3.82-1.71,3.82-3.82s-1.71-3.82-3.82-3.82H165.09z"
		/>
	<path class="st1" d="M312.78,254.36c-3.48,0-6.3-2.82-6.3-6.3c0-5.69-0.53-11.39-1.56-16.92c-0.64-3.42,1.62-6.71,5.04-7.35
		c3.42-0.64,6.71,1.62,7.35,5.04c1.18,6.3,1.77,12.77,1.78,19.24C319.08,251.54,316.26,254.36,312.78,254.36L312.78,254.36z
		 M299.72,205.49c-2.18,0-4.29-1.13-5.46-3.15c-6.37-11.02-15.18-20.8-25.49-28.3c-2.81-2.05-3.43-5.99-1.39-8.8
		c2.05-2.81,5.99-3.43,8.8-1.39c11.72,8.53,21.74,19.66,28.98,32.18c1.74,3.01,0.71,6.87-2.3,8.61
		C301.87,205.22,300.79,205.49,299.72,205.49z"/>
</g>
</svg>
