<?xml version="1.0" encoding="utf-8"?>
<!-- Generator: Adobe Illustrator 24.1.2, SVG Export Plug-In . SVG Version: 6.00 Build 0)  -->
<svg version="1.1" id="Warstwa_3" xmlns="http://www.w3.org/2000/svg" xmlns:xlink="http://www.w3.org/1999/xlink" x="0px" y="0px"
	 viewBox="0 0 430 430" style="enable-background:new 0 0 430 430;" xml:space="preserve">
<style type="text/css">
	.st0{fill:#08a88a;}
	.st1{fill:#121331;}
	.st2{fill:#08a88a;fill-opacity:0;}
	.st3{fill:none;}
</style>
<g>
	<path class="st1" d="M215,379.24c-56.76,0-102.94-46.18-102.94-102.94c0-55.91,90.64-214.87,98.24-223.42
		c1.15-1.3,2.79-2.06,4.52-2.11c1.76-0.06,3.41,0.62,4.64,1.84c8.32,8.31,98.49,168.14,98.49,223.69
		C317.95,333.06,271.76,379.24,215,379.24z M215.08,68.31c-19.81,32.49-90.43,162.41-90.43,207.99c0,49.82,40.53,90.34,90.34,90.34
		c49.82,0,90.35-40.53,90.35-90.34c0-21.05-15.76-64.75-44.38-123.04C242.28,115.2,223.74,82.3,215.08,68.31z"/>
	<path class="st0" d="M216.62,352.35c-3.48,0-6.3-2.82-6.3-6.3s2.82-6.3,6.3-6.3c34.59,0,62.73-28.14,62.73-62.73
		c0-3.48,2.82-6.3,6.3-6.3s6.3,2.82,6.3,6.3C291.94,318.56,258.15,352.35,216.62,352.35z"/>
</g>
</svg>
