<?xml version="1.0" encoding="utf-8"?>
<!-- Generator: Adobe Illustrator 24.0.2, SVG Export Plug-In . SVG Version: 6.00 Build 0)  -->
<svg version="1.1" xmlns="http://www.w3.org/2000/svg" xmlns:xlink="http://www.w3.org/1999/xlink" x="0px" y="0px"
	 viewBox="0 0 24 24" style="enable-background:new 0 0 24 24;" xml:space="preserve">
<style type="text/css">
	.st0{fill:none;}
	.st1{display:none;}
	.st2{display:inline;}
	.st3{fill:none;stroke:#CECECE;stroke-width:0.1;stroke-miterlimit:10;}
	.st4{fill:#121331;}
</style>
<g id="bounding_box">
	<rect x="0" y="0" class="st0" width="24" height="24"/>
</g>
<g id="design">
	<g>
		<path class="st4" d="M19.92,16.92l-1.79-3.58C18.05,13.16,18,12.97,18,12.78V10c0-3.06-2.29-5.58-5.25-5.95v-1.3
			C12.75,2.34,12.41,2,12,2s-0.75,0.34-0.75,0.75v1.3C8.29,4.42,6,6.94,6,10v2.78c0,0.19-0.05,0.38-0.13,0.56l-1.79,3.58
			c-0.12,0.23-0.1,0.5,0.03,0.72C4.25,17.87,4.49,18,4.75,18H9v1c0,1.65,1.35,3,3,3s3-1.35,3-3v-1h4.25c0.26,0,0.5-0.13,0.64-0.36
			C20.02,17.42,20.04,17.15,19.92,16.92z M13.5,19c0,0.83-0.67,1.5-1.5,1.5s-1.5-0.67-1.5-1.5v-1h3V19z M5.96,16.5l1.25-2.49
			C7.4,13.63,7.5,13.2,7.5,12.78V10c0-2.48,2.02-4.5,4.5-4.5s4.5,2.02,4.5,4.5v2.78c0,0.42,0.1,0.85,0.29,1.23l1.25,2.49H5.96z"/>
	</g>
</g>
</svg>
