<?xml version="1.0" encoding="utf-8"?>
<!-- Generator: Adobe Illustrator 24.1.2, SVG Export Plug-In . SVG Version: 6.00 Build 0)  -->
<svg version="1.1" id="Warstwa_3" xmlns="http://www.w3.org/2000/svg" xmlns:xlink="http://www.w3.org/1999/xlink" x="0px" y="0px"
	 viewBox="0 0 430 430" style="enable-background:new 0 0 430 430;" xml:space="preserve">
<style type="text/css">
	.st0{fill:#08a88a;}
	.st1{fill:#121331;}
	.st2{fill:none;}
	.st3{fill:#08a88a;fill-opacity:0;}
</style>
<g>
	<path class="st1" d="M215,369.59c-46.57,0-84.45-37.88-84.45-84.45V144.86c0-46.57,37.88-84.45,84.45-84.45
		s84.45,37.88,84.45,84.45v140.28C299.45,331.71,261.57,369.59,215,369.59z M215,73.01c-39.62,0-71.85,32.23-71.85,71.85v140.28
		c0,39.62,32.23,71.85,71.85,71.85s71.85-32.23,71.85-71.85V144.86C286.85,105.24,254.62,73.01,215,73.01z M207.29,320.48
		c-0.81,0-1.63-0.16-2.41-0.48c-2.35-0.98-3.89-3.27-3.89-5.82V230.7l-23.68,23.7c-2.46,2.46-6.45,2.46-8.91,0
		c-2.46-2.46-2.46-6.45,0-8.91L198.86,215l-30.46-30.49c-2.46-2.46-2.46-6.45,0-8.91c2.46-2.46,6.45-2.46,8.91,0l23.68,23.7v-83.49
		c0-2.55,1.53-4.84,3.89-5.82c2.35-0.98,5.06-0.44,6.86,1.36l49.85,49.77c1.18,1.18,1.85,2.78,1.85,4.45s-0.66,3.27-1.84,4.46
		L216.67,215l44.92,44.96c1.18,1.18,1.84,2.79,1.84,4.46s-0.67,3.27-1.85,4.45l-49.85,49.77
		C210.54,319.84,208.93,320.48,207.29,320.48z M213.59,229.74v69.25l34.64-34.58L213.59,229.74z M213.59,131.01v69.25l34.64-34.67
		L213.59,131.01z"/>
	<path class="st0" d="M324.25,282.99c-1.61,0-3.22-0.61-4.46-1.85c-2.46-2.46-2.46-6.45,0-8.91c15.29-15.29,23.71-35.61,23.71-57.23
		s-8.42-41.95-23.71-57.23c-2.46-2.46-2.46-6.45,0-8.91c2.46-2.46,6.45-2.46,8.91,0c17.67,17.67,27.4,41.16,27.4,66.14
		s-9.73,48.48-27.4,66.14C327.48,282.37,325.87,282.99,324.25,282.99z"/>
	<path class="st0" d="M344.77,303.51c-1.61,0-3.22-0.61-4.46-1.85c-2.46-2.46-2.46-6.45,0-8.91c42.87-42.87,42.87-112.63,0-155.5
		c-2.46-2.46-2.46-6.45,0-8.91c2.46-2.46,6.45-2.46,8.91,0c47.78,47.78,47.78,125.54,0,173.32
		C348,302.89,346.39,303.51,344.77,303.51z"/>
	<path class="st0" d="M365,323.73c-1.61,0-3.22-0.61-4.46-1.85c-2.46-2.46-2.46-6.45,0-8.91c54.02-54.02,54.02-141.93,0-195.95
		c-2.46-2.46-2.46-6.45,0-8.91c2.46-2.46,6.45-2.46,8.91,0c58.94,58.94,58.94,154.83,0,213.77
		C368.22,323.12,366.61,323.73,365,323.73z"/>
	<path class="st0" d="M105.75,282.99c-1.61,0-3.22-0.61-4.46-1.85c-17.67-17.67-27.4-41.16-27.4-66.14s9.73-48.48,27.4-66.14
		c2.46-2.46,6.45-2.46,8.91,0c2.46,2.46,2.46,6.45,0,8.91C94.91,173.05,86.49,193.38,86.49,215s8.42,41.95,23.71,57.23
		c2.46,2.46,2.46,6.45,0,8.91C108.97,282.37,107.36,282.99,105.75,282.99z"/>
	<path class="st0" d="M85.23,303.51c-1.61,0-3.22-0.61-4.46-1.85c-47.78-47.78-47.78-125.54,0-173.32c2.46-2.46,6.45-2.46,8.91,0
		c2.46,2.46,2.46,6.45,0,8.91c-42.87,42.87-42.87,112.63,0,155.5c2.46,2.46,2.46,6.45,0,8.91
		C88.45,302.89,86.84,303.51,85.23,303.51z"/>
	<path class="st0" d="M65,323.73c-1.61,0-3.22-0.61-4.46-1.85c-58.94-58.94-58.94-154.83,0-213.77c2.46-2.46,6.45-2.46,8.91,0
		c2.46,2.46,2.46,6.45,0,8.91c-54.02,54.02-54.02,141.93,0,195.95c2.46,2.46,2.46,6.45,0,8.91C68.23,323.12,66.62,323.73,65,323.73z
		"/>
</g>
</svg>
