<?xml version="1.0" encoding="utf-8"?>
<!-- Generator: Adobe Illustrator 24.1.2, SVG Export Plug-In . SVG Version: 6.00 Build 0)  -->
<svg version="1.1" id="Warstwa_3" xmlns="http://www.w3.org/2000/svg" xmlns:xlink="http://www.w3.org/1999/xlink" x="0px" y="0px"
	 viewBox="0 0 430 430" style="enable-background:new 0 0 430 430;" xml:space="preserve">
<style type="text/css">
	.st0{fill:#08a88a;}
	.st1{fill:#121331;}
	.st2{fill:none;}
	.st3{fill:#08a88a;fill-opacity:0;}
</style>
<g>
	<path class="st1" d="M372.42,394.76h-77.68c-3.48,0-6.3-2.82-6.3-6.3s2.82-6.3,6.3-6.3h71.38v-99.01l-74.68-45.84
		c-2.96-1.82-3.89-5.7-2.07-8.67c1.82-2.97,5.7-3.89,8.67-2.07l77.68,47.68c1.87,1.15,3,3.18,3,5.37v108.83
		C378.72,391.94,375.9,394.76,372.42,394.76z"/>
	<path class="st1" d="M135.26,394.76H57.58c-3.48,0-6.3-2.82-6.3-6.3V279.63c0-2.19,1.14-4.22,3-5.37l77.68-47.68
		c2.97-1.82,6.84-0.89,8.67,2.07s0.89,6.84-2.07,8.67l-74.68,45.84v99.01h71.38c3.48,0,6.3,2.82,6.3,6.3
		S138.74,394.76,135.26,394.76z"/>
	<path class="st0" d="M215.32,113.6c-3.48,0-6.3-2.82-6.3-6.3V41.54c0-3.48,2.82-6.3,6.3-6.3s6.3,2.82,6.3,6.3v65.76
		C221.62,110.77,218.8,113.6,215.32,113.6z"/>
	<path class="st0" d="M242.01,74.52h-53.37c-3.48,0-6.3-2.82-6.3-6.3s2.82-6.3,6.3-6.3h53.37c3.48,0,6.3,2.82,6.3,6.3
		S245.49,74.52,242.01,74.52z"/>
	<path class="st0" d="M255.35,394.76h-80.7c-3.48,0-6.3-2.82-6.3-6.3v-79.74c0-25.72,20.93-46.65,46.65-46.65
		s46.65,20.93,46.65,46.65v79.74C261.65,391.94,258.83,394.76,255.35,394.76z M180.95,382.16h68.1v-73.44
		c0-18.78-15.27-34.05-34.05-34.05s-34.05,15.27-34.05,34.05V382.16z"/>
	<path class="st0" d="M215,238.56c-20.19,0-36.61-16.42-36.61-36.61c0-20.19,16.42-36.61,36.61-36.61s36.61,16.42,36.61,36.61
		C251.61,222.13,235.19,238.56,215,238.56z M215,177.94c-13.24,0-24.01,10.77-24.01,24.01c0,13.24,10.77,24.01,24.01,24.01
		s24.01-10.77,24.01-24.01C239.01,188.71,228.24,177.94,215,177.94z"/>
	<path class="st1" d="M294.74,394.76H135.26c-3.48,0-6.3-2.82-6.3-6.3V186.08c0-1.69,0.68-3.31,1.88-4.49l80.06-78.78
		c2.47-2.43,6.43-2.41,8.87,0.04l79.42,79.42c1.18,1.18,1.84,2.78,1.84,4.45v201.75C301.04,391.94,298.22,394.76,294.74,394.76z
		 M141.56,382.16h146.88V189.33l-73.16-73.16l-73.72,72.55V382.16z"/>
</g>
</svg>
