<?xml version="1.0" encoding="utf-8"?>
<!-- Generator: Adobe Illustrator 24.1.2, SVG Export Plug-In . SVG Version: 6.00 Build 0)  -->
<svg version="1.1" id="Warstwa_3" xmlns="http://www.w3.org/2000/svg" xmlns:xlink="http://www.w3.org/1999/xlink" x="0px" y="0px"
	 viewBox="0 0 430 430" style="enable-background:new 0 0 430 430;" xml:space="preserve">
<style type="text/css">
	.st0{fill:#08a88a;}
	.st1{fill:#121331;}
	.st2{fill:none;}
	.st3{fill:#08a88a;fill-opacity:0;}
</style>
<g>
	<path class="st0" d="M304.91,325.7c-0.02,0-0.04,0-0.05,0l-23.19-0.2c-3.46-0.03-6.25-2.84-6.25-6.3V119.06
		c0-3.48,2.82-6.3,6.3-6.3h66.38c2.25,0,4.34,1.21,5.46,3.16l53.71,93.4c0.55,0.96,0.84,2.04,0.84,3.14V319.2
		c0,3.46-2.79,6.27-6.24,6.3l-22.18,0.2c-0.02,0-0.04,0-0.06,0c-3.45,0-6.27-2.78-6.3-6.24c-0.03-3.48,2.76-6.33,6.24-6.36
		l15.94-0.14v-98.81l-51.05-88.78h-56.44v187.59l16.94,0.15c3.48,0.03,6.28,2.88,6.25,6.35C311.17,322.91,308.36,325.7,304.91,325.7
		z"/>
	<path class="st0" d="M401.81,217.48h-87.4c-3.48,0-6.3-2.82-6.3-6.3V144.6c0-3.48,2.82-6.3,6.3-6.3h48.38c3.48,0,6.3,2.82,6.3,6.3
		s-2.82,6.3-6.3,6.3H320.7v53.98h81.1c3.48,0,6.3,2.82,6.3,6.3S405.29,217.48,401.81,217.48z"/>
	<path class="st0" d="M401.81,271.13H281.71c-3.48,0-6.3-2.82-6.3-6.3s2.82-6.3,6.3-6.3h120.09c3.48,0,6.3,2.82,6.3,6.3
		S405.29,271.13,401.81,271.13z"/>
	<path class="st1" d="M125.59,325.7c-3.48,0-6.3-2.81-6.3-6.29c0-3.48,2.81-6.3,6.29-6.31l149.83-0.19V85.33H34.49v227.63
		l14.45,0.14c3.48,0.03,6.27,2.88,6.24,6.36c-0.03,3.46-2.85,6.24-6.3,6.24c-0.02,0-0.04,0-0.06,0l-20.69-0.2
		c-3.46-0.03-6.24-2.84-6.24-6.3V79.03c0-3.48,2.82-6.3,6.3-6.3h253.52c3.48,0,6.3,2.82,6.3,6.3V319.2c0,3.48-2.82,6.3-6.29,6.3
		L125.59,325.7C125.6,325.7,125.6,325.7,125.59,325.7z"/>
	<path class="st1" d="M277.66,125.35h-246c-3.48,0-6.3-2.82-6.3-6.3s2.82-6.3,6.3-6.3h246c3.48,0,6.3,2.82,6.3,6.3
		S281.14,125.35,277.66,125.35z"/>
	<path class="st1" d="M277.66,271.13h-246c-3.48,0-6.3-2.82-6.3-6.3s2.82-6.3,6.3-6.3h246c3.48,0,6.3,2.82,6.3,6.3
		S281.14,271.13,277.66,271.13z"/>
	<path class="st0" d="M349.93,319.11c0,4.51-3.66,8.17-8.17,8.17c-4.51,0-8.17-3.66-8.17-8.17s3.66-8.17,8.17-8.17
		C346.27,310.94,349.93,314.6,349.93,319.11z"/>
	<path class="st0" d="M341.76,357.27c-21.04,0-38.16-17.12-38.16-38.16c0-21.04,17.12-38.16,38.16-38.16
		c21.04,0,38.16,17.12,38.16,38.16C379.92,340.15,362.8,357.27,341.76,357.27z M341.76,293.55c-14.09,0-25.56,11.47-25.56,25.56
		s11.46,25.56,25.56,25.56s25.56-11.46,25.56-25.56S355.85,293.55,341.76,293.55z"/>
	<path class="st0" d="M86.74,357.27c-21.04,0-38.16-17.12-38.16-38.16c0-21.04,17.12-38.16,38.16-38.16
		c21.04,0,38.16,17.12,38.16,38.16C124.9,340.15,107.78,357.27,86.74,357.27z M86.74,293.55c-14.09,0-25.56,11.47-25.56,25.56
		s11.47,25.56,25.56,25.56s25.56-11.46,25.56-25.56S100.83,293.55,86.74,293.55z"/>
	<path class="st0" d="M94.91,319.11c0,4.51-3.66,8.17-8.17,8.17s-8.17-3.66-8.17-8.17s3.66-8.17,8.17-8.17S94.91,314.6,94.91,319.11
		z"/>
</g>
</svg>
