<?xml version="1.0" encoding="utf-8"?>
<!-- Generator: Adobe Illustrator 24.1.2, SVG Export Plug-In . SVG Version: 6.00 Build 0)  -->
<svg version="1.1" id="Warstwa_3" xmlns="http://www.w3.org/2000/svg" xmlns:xlink="http://www.w3.org/1999/xlink" x="0px" y="0px"
	 viewBox="0 0 430 430" style="enable-background:new 0 0 430 430;" xml:space="preserve">
<style type="text/css">
	.st0{fill:#08a88a;}
	.st1{fill:#121331;}
	.st2{fill:none;}
	.st3{fill:#08a88a;fill-opacity:0;}
</style>
<g>
	<path class="st0" d="M281.5,97.69c-4.85,0-8.8-3.68-8.8-8.21s3.95-8.21,8.8-8.21s8.8,3.68,8.8,8.21S286.35,97.69,281.5,97.69z
		 M281.5,85.09c-2.06,0-3.8,2.01-3.8,4.39c0,2.38,1.74,4.39,3.8,4.39s3.8-2.01,3.8-4.39C285.3,87.1,283.56,85.09,281.5,85.09z"/>
	<path class="st1" d="M372.31,208.83H255.53c-3.48,0-6.3-2.82-6.3-6.3v-66.58c0-3.48,2.82-6.3,6.3-6.3h80.75
		c3.48,0,6.3,2.82,6.3,6.3s-2.82,6.3-6.3,6.3h-74.45v53.98h110.48c3.48,0,6.3,2.82,6.3,6.3S375.79,208.83,372.31,208.83z"/>
	<path class="st1" d="M351.63,316.9c-3.47,0-6.29-2.81-6.3-6.29c-0.01-3.48,2.81-6.31,6.29-6.31l17.39-0.04V205.5l-51.05-88.78H61
		v187.52l15.37-0.04c0.01,0,0.01,0,0.02,0c3.47,0,6.29,2.81,6.3,6.28c0.01,3.48-2.8,6.31-6.28,6.32l-21.69,0.06
		c-0.01,0-0.01,0-0.02,0c-1.67,0-3.27-0.66-4.45-1.84c-1.18-1.18-1.85-2.79-1.85-4.46V110.41c0-3.48,2.82-6.3,6.3-6.3h266.9
		c2.25,0,4.34,1.21,5.46,3.16l53.71,93.4c0.55,0.96,0.84,2.04,0.84,3.14v106.74c0,3.47-2.81,6.29-6.29,6.3l-23.68,0.05
		C351.63,316.9,351.63,316.9,351.63,316.9z"/>
	<path class="st1" d="M148.59,316.89c-3.48,0-6.3-2.82-6.3-6.3c0-3.48,2.82-6.3,6.3-6.3l106.62-0.04l23.68-0.05c0,0,0.01,0,0.01,0
		c3.47,0,6.29,2.81,6.3,6.29c0.01,3.48-2.81,6.31-6.29,6.31l-23.69,0.05L148.59,316.89C148.6,316.89,148.6,316.89,148.59,316.89z"/>
	<path class="st1" d="M370.3,280.57h-4.87c-11.24,0-20.39-9.15-20.39-20.39c0-11.24,9.15-20.39,20.39-20.39h4.87
		c3.48,0,6.3,2.82,6.3,6.3s-2.82,6.3-6.3,6.3h-4.87c-4.3,0-7.79,3.5-7.79,7.79c0,4.3,3.5,7.79,7.79,7.79h4.87
		c3.48,0,6.3,2.82,6.3,6.3S373.78,280.57,370.3,280.57z"/>
	<path class="st1" d="M78.71,266.03H55.38c-3.48,0-6.3-2.82-6.3-6.3s2.82-6.3,6.3-6.3h23.33c3.48,0,6.3,2.82,6.3,6.3
		S82.19,266.03,78.71,266.03z"/>
	<path class="st0" d="M323.15,310.57c0,4.51-3.66,8.17-8.17,8.17s-8.17-3.66-8.17-8.17s3.66-8.17,8.17-8.17
		S323.15,306.05,323.15,310.57z"/>
	<path class="st0" d="M314.98,348.72c-21.04,0-38.16-17.12-38.16-38.16c0-21.04,17.12-38.16,38.16-38.16
		c21.04,0,38.16,17.12,38.16,38.16C353.14,331.61,336.02,348.72,314.98,348.72z M314.98,285.01c-14.09,0-25.56,11.47-25.56,25.56
		s11.46,25.56,25.56,25.56s25.56-11.46,25.56-25.56S329.07,285.01,314.98,285.01z"/>
	<path class="st0" d="M112.96,348.72c-21.04,0-38.16-17.12-38.16-38.16c0-21.04,17.12-38.16,38.16-38.16s38.16,17.12,38.16,38.16
		C151.11,331.61,134,348.72,112.96,348.72z M112.96,285.01c-14.09,0-25.56,11.47-25.56,25.56s11.47,25.56,25.56,25.56
		s25.56-11.46,25.56-25.56S127.05,285.01,112.96,285.01z"/>
	<path class="st0" d="M121.13,310.57c0,4.51-3.66,8.17-8.17,8.17s-8.17-3.66-8.17-8.17s3.66-8.17,8.17-8.17
		S121.13,306.05,121.13,310.57z"/>
	<path class="st0" d="M295.28,95.51h-26.69c-3.48,0-6.3-2.82-6.3-6.3s2.82-6.3,6.3-6.3h26.69c3.48,0,6.3,2.82,6.3,6.3
		S298.76,95.51,295.28,95.51z"/>
	<path class="st0" d="M135.16,207c-3.48,0-6.3-2.82-6.3-6.3v-64.65c0-3.48,2.82-6.3,6.3-6.3s6.3,2.82,6.3,6.3v64.65
		C141.46,204.18,138.64,207,135.16,207z"/>
	<path class="st0" d="M167.48,174.68h-64.65c-3.48,0-6.3-2.82-6.3-6.3s2.82-6.3,6.3-6.3h64.65c3.48,0,6.3,2.82,6.3,6.3
		S170.96,174.68,167.48,174.68z"/>
</g>
</svg>
