<?xml version="1.0" encoding="utf-8"?>
<!-- Generator: Adobe Illustrator 24.1.2, SVG Export Plug-In . SVG Version: 6.00 Build 0)  -->
<svg version="1.1" id="Warstwa_3" xmlns="http://www.w3.org/2000/svg" xmlns:xlink="http://www.w3.org/1999/xlink" x="0px" y="0px"
	 viewBox="0 0 430 430" style="enable-background:new 0 0 430 430;" xml:space="preserve">
<style type="text/css">
	.st0{fill:#121331;}
	.st1{fill:#08a88a;}
	.st2{fill:none;stroke:#08a88a;stroke-width:12.25;stroke-miterlimit:14;}
	.st3{fill-opacity:0;}
	.st4{fill:#131432;}
	.st5{fill:none;}
</style>
<g>
	<path class="st0" d="M215,390.67c-96.86,0-175.67-78.8-175.67-175.67c0-31.95,8.67-63.24,25.07-90.48l0,0
		c15.35-25.5,37.08-46.84,62.85-61.73c26.56-15.35,56.91-23.46,87.76-23.46c96.86,0,175.67,78.8,175.67,175.67
		S311.86,390.67,215,390.67z M78.1,132.77c-14.9,24.75-22.77,53.18-22.77,82.23c0,88.04,71.63,159.67,159.67,159.67
		S374.67,303.04,374.67,215S303.04,55.33,215,55.33C158.47,55.33,107.3,84.28,78.1,132.77L78.1,132.77z"/>
	<path class="st1" d="M115.2,220.9c-0.62,0-1.23-0.01-1.85-0.03c-3.25-0.08-5.83-2.78-5.75-6.03c0.08-3.25,2.78-5.79,6.03-5.75
		c0.52,0.01,1.04,0.02,1.56,0.02l200.24,0c0.31,0,0.63,0,0.95-0.01c3.25-0.09,5.94,2.52,6,5.78c0.06,3.25-2.52,5.94-5.78,6
		c-0.39,0.01-0.79,0.01-1.18,0.01L115.2,220.9z"/>
</g>
</svg>
