<?xml version="1.0" encoding="utf-8"?>
<!-- Generator: Adobe Illustrator 25.0.1, SVG Export Plug-In . SVG Version: 6.00 Build 0)  -->
<svg version="1.1" id="Layer_1" xmlns="http://www.w3.org/2000/svg" xmlns:xlink="http://www.w3.org/1999/xlink" x="0px" y="0px"
	 viewBox="0 0 430 430" style="enable-background:new 0 0 430 430;" xml:space="preserve">
<style type="text/css">
	.st0{fill:#08a88a;}
	.st1{fill:#121331;}
</style>
<path class="st0" d="M133.9,257.3c-3.3,0-6-2.7-6-6v-69.1c0-3.3,2.7-6,6-6h24.5c3.3,0,6,2.7,6,6s-2.7,6-6,6h-18.5v63.1
	C139.9,254.6,137.2,257.3,133.9,257.3z"/>
<path class="st0" d="M179,257.3c-3.3,0-6-2.7-6-6v-69.1c0-2.8,1.9-5.2,4.6-5.8c1.5-0.4,15.2-3.3,24.4,4c3.4,2.7,7.4,7.9,7.4,17.2
	c0,9.5-1.9,15.8-6.1,19.9c-5.2,5.1-12.2,5-18.4,4.9v29C185,254.6,182.3,257.3,179,257.3z M185,210.3
	C185,210.3,185.1,210.3,185,210.3c4.5,0.1,8.3,0.2,10-1.5c0.9-0.9,2.5-3.6,2.5-11.3c0-5.5-2.2-7.2-2.9-7.8c-2.4-1.9-6.4-2.3-9.6-2.2
	V210.3z"/>
<path class="st0" d="M249.1,257.3h-24.5c-3.3,0-6-2.7-6-6v-69.1c0-3.3,2.7-6,6-6h24.5c3.3,0,6,2.7,6,6s-2.7,6-6,6h-18.5v57.1h18.5
	c3.3,0,6,2.7,6,6S252.4,257.3,249.1,257.3z"/>
<path class="st0" d="M153.3,222h-19.4c-3.3,0-6-2.7-6-6s2.7-6,6-6h19.4c3.3,0,6,2.7,6,6S156.6,222,153.3,222z"/>
<path class="st0" d="M203.5,257.3c-2.6,0-4.9-1.7-5.7-4.2l-10.8-35.2c-1-3.2,0.8-6.5,4-7.5c3.2-1,6.5,0.8,7.5,4l10.8,35.2
	c1,3.2-0.8,6.5-4,7.5C204.7,257.2,204.1,257.3,203.5,257.3z"/>
<path class="st0" d="M243.8,222.3h-17.8c-3.3,0-6-2.7-6-6s2.7-6,6-6h17.8c3.3,0,6,2.7,6,6S247.1,222.3,243.8,222.3z"/>
<path class="st0" d="M295.2,257.3h-24.5c-3.3,0-6-2.7-6-6v-69.1c0-3.3,2.7-6,6-6h24.5c3.3,0,6,2.7,6,6s-2.7,6-6,6h-18.5v57.1h18.5
	c3.3,0,6,2.7,6,6S298.5,257.3,295.2,257.3z"/>
<path class="st0" d="M289.9,222.3h-17.8c-3.3,0-6-2.7-6-6s2.7-6,6-6h17.8c3.3,0,6,2.7,6,6S293.2,222.3,289.9,222.3z"/>
<path class="st1" d="M329.7,147.9c-2.4,0-4.7-1.5-5.6-3.9c-15.6-41.1-55.7-44.3-57.4-44.4c-3.3-0.2-5.8-3.1-5.6-6.4s3.1-5.8,6.4-5.6
	c2,0.1,49.4,3.7,67.9,52.1c1.2,3.1-0.4,6.6-3.5,7.7C331.2,147.7,330.4,147.9,329.7,147.9z"/>
<circle class="st1" cx="335.9" cy="166" r="6.1"/>
<path class="st1" d="M213.9,390.5c-17.9,0-39.3-5.8-62.3-24c-5.6-0.8-22.8-3.9-40.6-13.7c-27.9-15.4-43.9-40.2-46.3-71.7
	c-3.9-4.7-14.7-18.8-20.6-38.8c-6.6-22.2-8.1-55.9,21.2-91.1c0.2-6,1.7-22.5,10.2-39.4c9.7-19.1,30.4-42.1,74.4-44.8
	c4.5-4.6,17.1-16.1,35.5-22.6c20.9-7.5,53.5-9.8,90.3,21c6.1-0.1,22.4,0.7,39.5,8.9c19.5,9.4,43.8,30.5,49.7,77.9
	c4.1,4.3,14.8,17,20.8,35.6c6.7,20.8,8.4,53.1-20.6,89.5c-0.3,6.1-1.9,23.8-11.1,42c-10.3,20.1-32.4,44.4-78.7,46.7
	c-4.5,4.1-17,14.5-35.2,20.4C232.7,388.7,223.9,390.5,213.9,390.5z M212.8,51.4c-7.8,0-15.6,1.4-23.3,4.1c-20,7.1-32.2,21-32.3,21.1
	c-1.1,1.2-2.6,2-4.3,2.1c-32,1.4-54.4,14.3-66.6,38.4c-9.2,18.2-9,36-9,36.1c0,1.5-0.5,2.9-1.4,4C54,182.7,47.2,210,55.5,238.5
	c6.3,21.6,19.3,36,19.5,36.1c0.9,1,1.5,2.3,1.6,3.7c1.7,28.6,15.2,50.1,40.3,63.9c19,10.5,37.6,12.5,37.8,12.5
	c1.2,0.1,2.3,0.6,3.2,1.3c25.6,20.9,51.9,27.3,78.1,19c19.9-6.3,32.4-19.1,32.5-19.2c1.1-1.1,2.6-1.8,4.1-1.8
	c33.6-1.1,57.3-14.5,70.5-39.9c10.1-19.3,10.1-38.8,10.1-39c0-1.4,0.5-2.8,1.4-3.8c21.5-26.2,28.2-52.9,19.9-79.4
	c-6.3-20-19.2-32.6-19.4-32.7c-1-1-1.7-2.3-1.8-3.7c-3.9-34.6-18.3-58.3-42.8-70.3c-18.5-9.1-36.3-7.9-36.5-7.9
	c-1.6,0.1-3.2-0.4-4.4-1.4C250.8,59.6,231.7,51.4,212.8,51.4z"/>
</svg>
