<?xml version="1.0" encoding="utf-8"?>
<!-- Generator: Adobe Illustrator 25.0.1, SVG Export Plug-In . SVG Version: 6.00 Build 0)  -->
<svg version="1.1" id="Layer_1" xmlns="http://www.w3.org/2000/svg" xmlns:xlink="http://www.w3.org/1999/xlink" x="0px" y="0px"
	 viewBox="0 0 430 430" style="enable-background:new 0 0 430 430;" xml:space="preserve">
<style type="text/css">
	.st0{fill:#121331;}
	.st1{fill:#08a88a;}
</style>
<path class="st0" d="M119.8,346.6c-3.3,0-6-2.7-6-6V173.1H41c-3.3,0-6-2.7-6-6c0-3.3,2.7-6,6-6h78.8c3.3,0,6,2.7,6,6v173.5
	C125.8,343.9,123.1,346.6,119.8,346.6z"/>
<path class="st0" d="M119.8,312.3c-1.5,0-2.9-0.5-4.1-1.6c-2.4-2.2-2.6-6-0.4-8.5l54.4-59.1c6.9-7.5,10.7-17.3,10.7-27.6v-81.9
	c0-22.4-18.3-40.7-40.7-40.7s-40.7,18.3-40.7,40.7v33.4c0,3.3-2.7,6-6,6s-6-2.7-6-6v-33.4c0-29.1,23.6-52.7,52.7-52.7
	s52.7,23.6,52.7,52.7v81.9c0,13.3-4.9,25.9-13.9,35.7l-54.4,59.1C123,311.7,121.4,312.3,119.8,312.3z"/>
<g>
	<path class="st1" d="M242.3,242.2c-19.4,0-35.1-15.7-35.1-35.1c0-3.3,2.7-6,6-6s6,2.7,6,6c0,12.7,10.4,23.1,23.1,23.1
		s23.1-10.4,23.1-23.1c0-3.3,2.7-6,6-6s6,2.7,6,6C277.4,226.5,261.6,242.2,242.3,242.2z"/>
	<path class="st1" d="M300.5,242.2c-19.4,0-35.1-15.7-35.1-35.1c0-3.3,2.7-6,6-6s6,2.7,6,6c0,12.7,10.4,23.1,23.1,23.1
		c12.7,0,23.1-10.4,23.1-23.1c0-3.3,2.7-6,6-6s6,2.7,6,6C335.5,226.5,319.8,242.2,300.5,242.2z"/>
	<path class="st1" d="M359.9,242.2c-19.4,0-35.1-15.7-35.1-35.1c0-3.3,2.7-6,6-6s6,2.7,6,6c0,12.7,10.4,23.1,23.1,23.1
		c12.7,0,23.1-10.4,23.1-23.1c0-3.3,2.7-6,6-6s6,2.7,6,6C395,226.5,379.3,242.2,359.9,242.2z"/>
</g>
<g>
	<path class="st1" d="M242.3,349c-19.4,0-35.1-15.7-35.1-35.1c0-3.3,2.7-6,6-6s6,2.7,6,6c0,12.7,10.4,23.1,23.1,23.1
		s23.1-10.4,23.1-23.1c0-3.3,2.7-6,6-6s6,2.7,6,6C277.4,333.2,261.6,349,242.3,349z"/>
	<path class="st1" d="M300.5,349c-19.4,0-35.1-15.7-35.1-35.1c0-3.3,2.7-6,6-6s6,2.7,6,6c0,12.7,10.4,23.1,23.1,23.1
		c12.7,0,23.1-10.4,23.1-23.1c0-3.3,2.7-6,6-6s6,2.7,6,6C335.5,333.2,319.8,349,300.5,349z"/>
	<path class="st1" d="M359.9,349c-19.4,0-35.1-15.7-35.1-35.1c0-3.3,2.7-6,6-6s6,2.7,6,6c0,12.7,10.4,23.1,23.1,23.1
		c12.7,0,23.1-10.4,23.1-23.1c0-3.3,2.7-6,6-6s6,2.7,6,6C395,333.2,379.3,349,359.9,349z"/>
</g>
<g>
	<path class="st1" d="M183.4,295.6c-4.6,0-9-0.9-13.2-2.6c-3.1-1.2-4.6-4.7-3.3-7.8c1.2-3.1,4.7-4.6,7.8-3.3
		c2.7,1.1,5.7,1.7,8.7,1.7c12.7,0,23.1-10.4,23.1-23.1c0-3.3,2.7-6,6-6s6,2.7,6,6C218.5,279.8,202.8,295.6,183.4,295.6z"/>
	<path class="st1" d="M241.6,295.6c-19.4,0-35.1-15.7-35.1-35.1c0-3.3,2.7-6,6-6s6,2.7,6,6c0,12.7,10.4,23.1,23.1,23.1
		c12.7,0,23.1-10.4,23.1-23.1c0-3.3,2.7-6,6-6s6,2.7,6,6C276.7,279.8,261,295.6,241.6,295.6z"/>
	<path class="st1" d="M301.1,295.6c-19.4,0-35.1-15.7-35.1-35.1c0-3.3,2.7-6,6-6s6,2.7,6,6c0,12.7,10.4,23.1,23.1,23.1
		s23.1-10.4,23.1-23.1c0-3.3,2.7-6,6-6s6,2.7,6,6C336.2,279.8,320.4,295.6,301.1,295.6z"/>
	<path class="st1" d="M359.9,295.6c-19.4,0-35.1-15.7-35.1-35.1c0-3.3,2.7-6,6-6s6,2.7,6,6c0,12.7,10.4,23.1,23.1,23.1
		c12.7,0,23.1-10.4,23.1-23.1c0-3.3,2.7-6,6-6s6,2.7,6,6C395,279.8,379.3,295.6,359.9,295.6z"/>
</g>
</svg>
