<?xml version="1.0" encoding="utf-8"?>
<!-- Generator: Adobe Illustrator 25.0.1, SVG Export Plug-In . SVG Version: 6.00 Build 0)  -->
<svg version="1.1" id="Layer_1" xmlns="http://www.w3.org/2000/svg" xmlns:xlink="http://www.w3.org/1999/xlink" x="0px" y="0px"
	 viewBox="0 0 430 430" style="enable-background:new 0 0 430 430;" xml:space="preserve">
<style type="text/css">
	.st0{fill:#121331;}
	.st1{fill:#08a88a;}
	.st2{fill:none;stroke:#121331;stroke-width:12;stroke-linecap:round;stroke-linejoin:round;stroke-miterlimit:10;}
</style>
<g>
	<g>
		<path class="st0" d="M350,256.3c-2.2,0-4.3-1.2-5.4-3.3c-1.5-3-0.3-6.6,2.7-8.1l29.7-14.9l-53.6-106.7L288.2,141
			c-1.8,0.9-4,0.8-5.7-0.2c-22.6-13.1-49.1-17.5-74.7-12.3l-56.3,11.4c-3.3,0.7-5.7,3.6-5.7,7c0,0.4,0,0.7,0.1,1.1
			c0.7,4.4,2.4,8.6,5,12.1c2,2.7,1.4,6.4-1.2,8.4c-2.7,2-6.4,1.4-8.4-1.2c-3.8-5.1-6.3-11.1-7.2-17.4c-0.1-0.9-0.2-1.9-0.2-2.9
			c0-9.1,6.5-17,15.4-18.8l56.3-11.4c27.4-5.6,55.8-1.3,80.3,12.1l37.6-18.9c3-1.5,6.6-0.3,8.1,2.7l59,117.4c1.5,3,0.3,6.6-2.7,8.1
			l-35,17.6C351.8,256.1,350.9,256.3,350,256.3z"/>
		<path class="st0" d="M125.4,257.6c-2.2,0-4.4-1.2-5.4-3.4c-1.5-3-0.2-6.6,2.8-8l0,0c0,0,0.1,0,0.1-0.1l41.8-21
			c0.1,0,0.1-0.1,0.2-0.1l2.9-1.5c3-1.5,6.6-0.3,8.1,2.7c1.5,3,0.3,6.6-2.7,8.1l-3.1,1.6c-0.1,0-0.1,0.1-0.2,0.1l-41.8,21
			c-0.5,0.3-1.1,0.4-1.6,0.5C126.1,257.5,125.7,257.6,125.4,257.6z"/>
		<path class="st0" d="M73,262.4c-2.1,0-4.2-1.1-5.3-3.1c-0.1-0.1-0.1-0.2-0.2-0.4c0,0-0.1-0.1-0.1-0.2
			c-5.8-11.6-1.1-25.7,10.4-31.5l53.7-27c3-1.5,6.6-0.3,8.1,2.7c1.5,3,0.3,6.6-2.7,8.1l-53.7,27c-5.6,2.8-7.9,9.7-5.1,15.3
			c0,0.1,0.1,0.2,0.1,0.2c1.6,2.9,0.5,6.6-2.4,8.1C75,262.2,74,262.4,73,262.4z"/>
		<path class="st0" d="M125.4,257.6c-2.2,0-4.4-1.2-5.4-3.4c-1.5-3-0.2-6.6,2.8-8l0,0c0,0,0.1,0,0.1-0.1l41.8-21
			c0.1,0,0.1-0.1,0.2-0.1l2.9-1.5c3-1.5,6.6-0.3,8.1,2.7c1.5,3,0.3,6.6-2.7,8.1l-3.1,1.6c-0.1,0-0.1,0.1-0.2,0.1l-41.8,21
			c-0.5,0.3-1.1,0.4-1.6,0.5C126.1,257.5,125.7,257.6,125.4,257.6z"/>
	</g>
	<path class="st1" d="M110.1,140.8c-17.8,0-32.2-14.5-32.2-32.2c0-15.8,22.9-45.8,27.5-51.7c1.1-1.5,2.9-2.3,4.7-2.3l0,0
		c1.8,0,3.6,0.8,4.7,2.3c4.6,5.9,27.5,35.9,27.5,51.7C142.4,126.3,127.9,140.8,110.1,140.8z M110.1,70.6
		c-9.2,12.7-20.2,30.3-20.2,38c0,11.2,9.1,20.2,20.2,20.2c11.2,0,20.2-9.1,20.2-20.2C130.4,100.9,119.4,83.3,110.1,70.6z"/>
	<path class="st1" d="M207.1,98c-15.5,0-28.2-12.6-28.2-28.2c0-13.6,19.5-39.3,23.5-44.3c1.1-1.5,2.9-2.3,4.7-2.3s3.6,0.8,4.7,2.3
		c3.9,5,23.5,30.6,23.5,44.3C235.3,85.3,222.6,98,207.1,98z M207.1,39.2c-7.8,10.9-16.2,24.8-16.2,30.6c0,8.9,7.3,16.2,16.2,16.2
		s16.2-7.3,16.2-16.2C223.3,64,214.9,50.1,207.1,39.2z"/>
	<path class="st1" d="M167.6,236.5h-0.2c-17.8-0.1-33.8-12.1-38.8-29.1c-1.1-3.8-1.7-7.7-1.7-11.6c0-8.1,4.6-19.6,13.9-35.2
		c9.9-16.5,21.6-31.4,22.1-32.1c1.1-1.5,2.9-2.3,4.7-2.3s3.6,0.8,4.7,2.3c0.7,0.9,17.4,22.3,27.8,42.1c0.1,0.1,0.1,0.2,0.2,0.3
		l0.2,0.4c0.1,0.2,0.2,0.5,0.4,0.7c4.7,9.2,7.1,16.4,7.5,22.1c0.2,3.3-2.3,6.2-5.6,6.4c-3.3,0.2-6.2-2.3-6.4-5.6
		c-0.2-2.8-1.4-8-6.1-17.4c-0.1-0.2-0.2-0.5-0.4-0.8l0-0.1c0-0.1-0.1-0.2-0.1-0.3c-6.6-12.7-16.3-26.5-22-34.3
		c-4.3,5.8-10.8,15-16.5,24.6c-10.6,17.7-12.2,25.7-12.2,29c0,2.8,0.4,5.5,1.2,8.2c3.6,12,14.8,20.5,27.3,20.5h0.2
		c1.1,0,2.3-0.1,3.4-0.2c3.3-0.4,6.3,2,6.7,5.2s-2,6.3-5.2,6.7C170.8,236.4,169.2,236.5,167.6,236.5z"/>
	<g>
		<path class="st0" d="M183.1,401.5c-3.1,0-5.7-2.4-6-5.5c-0.3-3.3,2.2-6.2,5.5-6.5l70.1-5.7c35.5-2.9,58.7-15.5,59-15.6
			c0.7-0.4,1.6-0.7,2.4-0.7l39.2-3.2l-9.7-119l-39.2,3.2c-2,0.2-4-0.7-5.2-2.3c-4.4-5.7-9.5-11-15-15.7c-0.1-0.1-0.1-0.1-0.2-0.2
			c-14.1-12-31.3-20.2-49.5-23.6l-1.7-0.3L178,196.1c-0.5-0.1-0.9-0.1-1.3-0.1c-3.3,0-6.2,2.3-6.9,5.5c-2,8.3,0,16.9,5.4,23.6
			c0.3,0.3,0.6,0.7,0.9,1.1c3.9,4.2,8.8,7.1,14.3,8.2l0.1,0c0.2,0,0.3,0.1,0.5,0.1l20.3,4.3c2.9,0.6,4.9,3.3,4.7,6.3
			c-0.2,3-2.5,5.4-5.5,5.6l-39,3.2c-3.3,0.3-6.2-2.2-6.5-5.5c-0.3-3.3,2.2-6.2,5.5-6.5l5.4-0.4c-3.2-1.9-6.2-4.3-8.7-7.2
			c-0.4-0.5-0.9-1-1.4-1.6c-7.9-9.6-10.7-22-7.8-34c2.1-8.6,9.7-14.7,18.6-14.7c1.1,0,2.3,0.1,3.5,0.3l56.5,10.6
			c20.2,3.8,39.2,12.8,54.9,26.1c0.1,0.1,0.1,0.1,0.2,0.2c5.4,4.6,10.3,9.6,14.8,15.1l42-3.4c1.6-0.1,3.2,0.4,4.4,1.4
			c1.2,1,2,2.5,2.1,4.1l10.6,131c0.3,3.3-2.2,6.2-5.5,6.5l-43.9,3.6c-5.5,2.8-28.6,13.7-62.6,16.5l-70.1,5.7
			C183.4,401.5,183.2,401.5,183.1,401.5z"/>
		<path class="st0" d="M81.1,298.2c-5,0-9.8-1.4-14-4.2c-6.7-4.3-10.9-11.4-11.5-19.3c-0.9-10.5,5.5-20.4,15.4-23.9
			c2-0.7,4-1.2,6.1-1.3l47.5-3.9c0.1,0,0.2,0,0.3,0l63.3-5.1c3.3-0.3,6.2,2.2,6.5,5.5c0.3,3.3-2.2,6.2-5.5,6.5l-63,5.1
			c-0.1,0-0.2,0-0.3,0l-47.8,3.9c-1,0.1-2,0.3-3,0.6c-4.8,1.8-7.9,6.6-7.5,11.7c0.3,4.2,2.6,8,6.1,10.3c2.5,1.7,5.5,2.4,8.6,2.2
			l52.5-4.3c0.1,0,0.2,0,0.3,0l56.1-4.5c3.3-0.3,6.2,2.2,6.5,5.5c0.3,3.3-2.2,6.2-5.5,6.5l-55.8,4.5c-0.1,0-0.3,0-0.4,0l-52.7,4.3
			C82.3,298.2,81.7,298.2,81.1,298.2z"/>
		<path class="st0" d="M83.9,372.3c-6.1,0-11.9-2.1-16.5-6.1c-5.2-4.4-8.4-10.6-8.9-17.4c-1-12.9,8.6-24.2,21.5-25.3l114.2-9.3
			c3.3-0.3,6.2,2.2,6.5,5.5c0.3,3.3-2.2,6.2-5.5,6.5l-114.2,9.3c-6.3,0.5-11,6.1-10.5,12.3c0.3,3.6,2,6.9,4.7,9.2s6.3,3.5,9.9,3.2
			l112.1-9.1c3.3-0.3,6.2,2.2,6.5,5.5c0.3,3.3-2.2,6.2-5.5,6.5L86,372.3C85.3,372.3,84.6,372.3,83.9,372.3z"/>
		<path class="st0" d="M117.2,406.8c-12.7,0-23.4-9.9-24.4-22.5c-1.1-13.5,9-25.3,22.5-26.4l81.9-6.7c3.3-0.3,6.2,2.2,6.5,5.5
			c0.3,3.3-2.2,6.2-5.5,6.5l-81.9,6.7c-6.9,0.6-12,6.6-11.5,13.5c0.6,6.8,6.6,12,13.5,11.5l81.9-6.7c3.3-0.3,6.2,2.2,6.5,5.5
			c0.3,3.3-2.2,6.2-5.5,6.5l-81.9,6.7C118.5,406.8,117.9,406.8,117.2,406.8z"/>
		<path class="st0" d="M63.5,336.8c-5.8,0-11.4-2-15.8-5.8c-5-4.2-8-10.2-8.6-16.7c-1.1-13.5,9-25.3,22.5-26.4l129.7-10.5
			c3.3-0.3,6.2,2.2,6.5,5.5c0.3,3.3-2.2,6.2-5.5,6.5L62.5,299.8c-6.9,0.6-12,6.6-11.5,13.5c0.3,3.3,1.8,6.4,4.4,8.5
			c2.5,2.2,5.8,3.2,9.1,2.9l129.7-10.5c3.3-0.3,6.2,2.2,6.5,5.5c0.3,3.3-2.2,6.2-5.5,6.5L65.5,336.8
			C64.8,336.8,64.1,336.8,63.5,336.8z"/>
		<path class="st2" d="M224,240.9"/>
	</g>
</g>
</svg>
