<?xml version="1.0" encoding="utf-8"?>
<!-- Generator: Adobe Illustrator 25.0.1, SVG Export Plug-In . SVG Version: 6.00 Build 0)  -->
<svg version="1.1" id="Layer_1" xmlns="http://www.w3.org/2000/svg" xmlns:xlink="http://www.w3.org/1999/xlink" x="0px" y="0px"
	 viewBox="0 0 430 430" style="enable-background:new 0 0 430 430;" xml:space="preserve">
<style type="text/css">
	.st0{fill:#08a88a;}
	.st1{fill:#121331;}
</style>
<path class="st0" d="M197.3,86.9c-2.9,0-5.5-2.2-5.9-5.2l-0.1-0.5c-1.9-11.6-12.9-19.5-24.5-17.5c-4.7,0.8-8.8,3-12,6.4
	c-2.3,2.4-6.1,2.5-8.5,0.3c-2.4-2.3-2.5-6.1-0.3-8.5c5-5.4,11.6-8.8,18.8-10.1c18.1-3,35.3,9.3,38.3,27.4c0,0.2,0.1,0.4,0.1,0.7
	l0,0.2c0.5,3.3-1.8,6.3-5.1,6.8C197.8,86.9,197.6,86.9,197.3,86.9z"/>
<path class="st0" d="M375.3,122.7c-0.5,0-1.1-0.1-1.6-0.2c-3.2-0.9-5.1-4.2-4.2-7.4c3.1-11.2,0.9-22.9-6.2-32.1
	c-5.9-7.8-14.5-12.7-24.2-14c-9.7-1.3-19.3,1.3-27,7.2c-0.5,0.4-0.9,0.7-1.4,1.1c-1.6,1.3-3.8,1.8-5.7,1.1c-2-0.6-3.5-2.3-4-4.3
	c-0.6-2.5-1.7-4.7-3.2-6.7c-6-7.9-17.4-9.4-25.3-3.3c-5.9,4.6-8.5,12.4-6.3,19.6c1,3.2-0.8,6.5-4,7.5c-3.2,1-6.5-0.8-7.5-4
	c-3.7-11.9,0.5-25.1,10.4-32.7c13.1-10.1,32-7.6,42.1,5.6c0.8,1.1,1.5,2.2,2.2,3.3c9.3-5.6,20.2-7.8,31.2-6.4
	c12.9,1.7,24.3,8.3,32.2,18.6c9.4,12.2,12.4,27.7,8.2,42.6C380.3,121,377.9,122.7,375.3,122.7z"/>
<path class="st0" d="M162.8,381.6c-2.8,0-5.6-0.3-8.3-0.8c-15.6-2.9-28.4-13.8-34-28.3c-5.8,2.7-12.4,3.5-18.9,2.3
	c-8.3-1.5-15.5-6.2-20.3-13.2s-6.6-15.3-5-23.6c0.2-0.9,0.4-1.8,0.7-2.8c0.9-3.2,4.2-5,7.4-4.2c3.2,0.9,5,4.2,4.2,7.4
	c-0.2,0.7-0.3,1.2-0.4,1.8c-1,5.1,0.2,10.3,3.1,14.6c3,4.3,7.4,7.2,12.6,8.2c5.9,1.1,11.8-0.5,16.4-4.5c1.6-1.4,3.9-1.8,5.9-1.1
	c2,0.7,3.5,2.5,3.9,4.6c2.4,13.6,13.1,24.4,26.6,26.9c8.7,1.6,17.5-0.3,24.8-5.3c7.3-5,12.2-12.5,13.8-21.2l0-0.6
	c0.1-2.7,1.9-5,4.5-5.7c2.6-0.7,5.3,0.5,6.7,2.8c3.4,6,11.6,12.1,20.5,12.3c7.2,0.2,13.1-3.4,17.8-10.7c1.8-2.8,5.5-3.6,8.3-1.8
	c2.8,1.8,3.6,5.5,1.8,8.3c-6.9,10.7-17,16.4-28.2,16.1c-8-0.2-16.2-3.6-22.6-9c-3.3,7.7-8.8,14.3-15.8,19.2
	C180.7,378.9,171.8,381.6,162.8,381.6z"/>
<path class="st0" d="M315.1,352.2c-14.5,0-26.3-11.8-26.3-26.3s11.8-26.3,26.3-26.3s26.3,11.8,26.3,26.3S329.6,352.2,315.1,352.2z
	 M315.1,311.6c-7.9,0-14.3,6.4-14.3,14.3s6.4,14.3,14.3,14.3s14.3-6.4,14.3-14.3S323,311.6,315.1,311.6z"/>
<path class="st0" d="M249.4,200L249.4,200c-3.3,0-6-2.7-6-6s2.7-6,6-6s6,2.7,6,6S252.8,200,249.4,200z"/>
<path class="st0" d="M363.6,165.6c-0.4,0-0.8,0-1.2-0.1c-3.2-0.7-5.3-3.8-4.7-7.1c1.2-5.9,0.2-12-3-17.2c-0.7-1.2-2-1.9-3.4-1.9
	c-0.7,0-1.4,0.2-2.1,0.6l-0.9,0.5c-2.8,1.7-6.5,0.8-8.2-2c-1.7-2.8-0.8-6.5,2-8.2l0.8-0.5c2.5-1.5,5.4-2.4,8.4-2.4
	c5.6,0,10.7,2.9,13.7,7.6c4.8,7.8,6.4,17,4.6,25.9C368.8,163.6,366.3,165.6,363.6,165.6z"/>
<path class="st0" d="M302.9,213.8c-2,0-4-1-5.1-2.9c-1.7-2.8-0.8-6.5,2-8.3l6-3.7c2.8-1.7,6.5-0.8,8.3,2c1.7,2.8,0.8,6.5-2,8.3
	l-6,3.7C305,213.5,304,213.8,302.9,213.8z"/>
<path class="st1" d="M374.8,182.9c-2.5,0-4.8-1.6-5.7-4.1c-0.3-0.8-0.6-1.5-1.1-2.2l-24.4-35.5l-0.9-0.4l-47-21.2l-62.6-7.4
	c-3.3-0.4-5.6-3.4-5.3-6.7c0.4-3.3,3.4-5.6,6.7-5.3l63.5,7.5c0.6,0.1,1.2,0.2,1.8,0.5l50.3,22.7c1,0.5,1.8,1.2,2.5,2.1l25.4,36.9
	c1.1,1.6,2,3.4,2.6,5.2c1.1,3.1-0.6,6.5-3.8,7.6C376.1,182.8,375.5,182.9,374.8,182.9z"/>
<path class="st1" d="M286.5,158.3c-0.3,0-0.7,0-1-0.1l-48.2-5.9c-3.3-0.4-5.6-3.4-5.2-6.7c0.4-3.3,3.4-5.6,6.7-5.2l48.5,5.9
	c0.7,0.1,1.3,0.3,2,0.6c3,1.5,4.2,5.1,2.7,8.1C290.8,157.1,288.7,158.3,286.5,158.3z"/>
<path class="st0" d="M351.2,228.9L351.2,228.9c-3.3,0-6-2.7-6-6s2.7-6,6-6s6,2.7,6,6S354.6,228.9,351.2,228.9z"/>
<path class="st0" d="M370.6,224.6c-2.8,0-5.2-1.9-5.9-4.7c-0.7-3.2,1.3-6.4,4.6-7.2l6.8-1.5c12.8-2.8,20.9-15.5,18-28.3
	c-0.4-1.8-2-3.1-3.9-3.1c-0.3,0-0.6,0-0.9,0.1l-40.3,8.9c-3.2,0.7-6.4-1.3-7.2-4.6c-0.7-3.2,1.3-6.4,4.6-7.2l40.3-8.9
	c1.2-0.3,2.3-0.4,3.5-0.4c7.4,0,14,5.3,15.6,12.5c4.3,19.2-7.9,38.4-27.2,42.6l-6.8,1.5C371.4,224.5,371,224.6,370.6,224.6z"/>
<path class="st0" d="M290.2,201.7L290.2,201.7c-3.3,0-6-2.7-6-6s2.7-6,6-6s6,2.7,6,6S293.6,201.7,290.2,201.7z"/>
<path class="st0" d="M269,206.4L269,206.4c-3.3,0-6-2.7-6-6s2.7-6,6-6s6,2.7,6,6S272.4,206.4,269,206.4z"/>
<path class="st1" d="M368.9,234.4c-1,0-2-0.2-2.9-0.7c-2.9-1.6-4-5.3-2.4-8.2c0.7-1.3,1.1-2.8,1.1-4.3c0-0.5,0-1-0.1-1.5
	c-0.2-1.3-0.7-2.5-1.4-3.6l-24.4-35.5l-48-21.7l-53.6-6.5c-3.3-0.4-5.6-3.4-5.2-6.7c0.4-3.3,3.4-5.6,6.7-5.2l54.5,6.6
	c0.6,0.1,1.2,0.2,1.7,0.5l50.3,22.7c1,0.5,1.9,1.2,2.5,2.1l25.4,36.9c1.7,2.5,2.8,5.3,3.4,8.2c0.2,1.1,0.3,2.4,0.3,3.6
	c0,3.5-0.9,7-2.6,10.1C373.1,233.3,371.1,234.4,368.9,234.4z"/>
<path class="st1" d="M320.3,219.2c-2,0-3.8-1-5-2.6l-3-4.4l-24.4-11c-0.1,0-0.1-0.1-0.2-0.1l-7.8-3.5l-65.7-8.9
	c-3.3-0.4-5.6-3.5-5.1-6.7s3.5-5.6,6.7-5.1l66.6,9c0.6,0.1,1.1,0.2,1.7,0.5l8.4,3.8c0.1,0,0.1,0.1,0.2,0.1l26.1,11.8
	c1,0.5,1.9,1.2,2.5,2.1l3.9,5.6c0.7,1,1.2,2.2,1.2,3.6C326.3,216.5,323.6,219.2,320.3,219.2z"/>
<g>
	<path class="st1" d="M116.7,303.7c-1.5,0-3.1-0.6-4.2-1.7c-0.2-0.2-0.4-0.4-0.9-1c-6.5-7.4-11-16.3-12.9-25.9
		c-0.7-3.2,1.4-6.4,4.7-7.1c3.2-0.7,6.4,1.4,7.1,4.7c1.5,7.6,5.1,14.6,10.2,20.5c0,0,0.1,0.1,0.1,0.1c0.1,0.2,0.2,0.3,0.3,0.4
		c2.2,2.3,2.2,6-0.1,8.3C119.7,303.1,118.2,303.7,116.7,303.7z M120.9,293.5c0,0,0.1,0.1,0.1,0.1C121,293.5,120.9,293.5,120.9,293.5
		z"/>
	<path class="st0" d="M364.2,273.4c-3.6,0-7.2-0.5-10.7-1.6L293.3,254c-3.2-0.9-5-4.3-4-7.5c0.9-3.2,4.3-5,7.5-4l60.1,17.8
		c2.4,0.7,4.9,1.1,7.3,1.1c11.4,0,21.6-7.6,24.8-18.5c0.3-1-0.3-2-1.3-2.3l-38.1-11.9c-0.1,0-0.1,0-0.2-0.1l-30.8-9.6
		c-0.1,0-0.1,0-0.2-0.1l-27.6-8.6c-5.7-1.8-11.5-2.6-17.4-2.6h-1.4c-3.3,0-6-2.7-6-6s2.7-6,6-6h1.4c7.1,0,14.1,1.1,21,3.2l27.4,8.5
		c0.1,0,0.1,0,0.2,0.1l30.8,9.6c0.1,0,0.1,0,0.2,0.1l38.2,11.9c7.2,2.2,11.4,9.9,9.3,17.2C395.8,262.2,380.9,273.4,364.2,273.4z"/>
	<path class="st0" d="M240.3,320.4h-86c-15.1,0-29.6-6-40.2-16.7H29.3c-3.3,0-6-2.7-6-6v-96c0-3.3,2.7-6,6-6H92c3.3,0,6,2.7,6,6
		s-2.7,6-6,6H35.3v84h81.4c1.7,0,3.3,0.7,4.4,2c8.5,9.4,20.6,14.7,33.2,14.7h86c0.9,0,1.8-0.4,2.4-1s1-1.5,1-2.4
		c0-6.5-2.5-12.6-7.1-17.2c-4.6-4.6-10.7-7.1-17.2-7.1h-34.1c-8.9,0-16.1-7.2-16.1-16.1c0-7.8,3-15.1,8.5-20.6
		c5.5-5.5,12.8-8.5,20.6-8.5h50.1c3.3,0,6,2.7,6,6s-2.7,6-6,6h-50.1c-4.6,0-8.9,1.8-12.1,5c-3.2,3.2-5,7.5-5,12.1
		c0,2.2,1.8,4.1,4.1,4.1h34.1c9.7,0,18.8,3.8,25.7,10.6c6.8,6.9,10.6,16,10.6,25.6c0,4.1-1.6,8-4.5,10.9
		C248.3,318.8,244.5,320.4,240.3,320.4z"/>
	<path class="st0" d="M116.7,303.7c-1.6,0-3.3-0.7-4.5-2c-0.4-0.4-8.8-9.9-13.4-26.2c-0.9-3.2,0.9-6.5,4.1-7.4
		c3.2-0.9,6.5,0.9,7.4,4.1c3.9,13.5,10.8,21.4,10.9,21.5c2.2,2.5,2,6.3-0.5,8.5C119.5,303.2,118.1,303.7,116.7,303.7z"/>
</g>
<path class="st1" d="M166,235.4c-0.7,0-1.4,0-2.1,0c-24.1-0.4-59.1-8.2-89.8-42.9L28,163.7c-2.5-1.6-3.5-4.7-2.4-7.4l37.1-87.5
	c1.2-2.7,4.2-4.2,7-3.5l116.8,30.6l47.8,4.3c3.3,0.3,5.7,3.2,5.4,6.5c-0.3,3.3-3.2,5.7-6.5,5.4l-48.3-4.4c-0.3,0-0.7-0.1-1-0.2
	L71.7,78.2l-33,78l42.5,26.5c0.5,0.3,1,0.7,1.3,1.1c22.3,25.5,49.6,38.8,81.1,39.5c23.8,0.5,41.2-6.7,41.4-6.8
	c3.1-1.3,6.6,0.1,7.9,3.2c1.3,3-0.1,6.6-3.2,7.9C208.9,227.9,191.1,235.4,166,235.4z"/>
<path class="st1" d="M279.6,294c-0.1,0-0.3,0-0.4,0c-8.2-0.2-15.9-3.5-21.6-9.4c-5.7-5.9-8.7-13.7-8.6-21.9l0.1-7.4l-8.8-16.1
	l-34.2-11.5c-3.1-1.1-4.8-4.5-3.8-7.6c1.1-3.1,4.5-4.8,7.6-3.8l36.4,12.2c1.4,0.5,2.6,1.5,3.4,2.8l10.7,19.6c0.5,0.9,0.8,1.9,0.7,3
	l-0.2,9c-0.1,5,1.8,9.8,5.2,13.4c3.5,3.6,8.1,5.7,13.2,5.8c2.4,0,4.7-0.8,6.4-2.5c1.7-1.7,2.7-3.9,2.8-6.3l0.5-27.8l-21.4-39.2
	l-54.5-17.8c-3.2-1-4.9-4.4-3.8-7.6c1-3.2,4.4-4.9,7.6-3.8l56.8,18.5c1.5,0.5,2.7,1.5,3.4,2.8l23.3,42.6c0.5,0.9,0.8,1.9,0.7,3
	l-0.5,29.4c-0.1,5.6-2.4,10.8-6.4,14.7C290.2,292,285.1,294,279.6,294z"/>
</svg>
