<?xml version="1.0" encoding="utf-8"?>
<!-- Generator: Adobe Illustrator 25.0.1, SVG Export Plug-In . SVG Version: 6.00 Build 0)  -->
<svg version="1.1" id="Layer_1" xmlns="http://www.w3.org/2000/svg" xmlns:xlink="http://www.w3.org/1999/xlink" x="0px" y="0px"
	 viewBox="0 0 430 430" style="enable-background:new 0 0 430 430;" xml:space="preserve">
<style type="text/css">
	.st0{fill:#121331;}
	.st1{fill:none;stroke:#121331;stroke-width:12;stroke-linecap:round;stroke-linejoin:round;stroke-miterlimit:10;}
	.st2{fill:#08a88a;}
</style>
<g>
	<g>
		<path class="st0" d="M76.7,281.1c-0.7,0-1.4-0.1-2.1-0.4L43.8,269c-3.1-1.2-4.7-4.6-3.5-7.7L87,138.4c0.6-1.5,1.7-2.7,3.2-3.3
			c1.5-0.7,3.1-0.7,4.6-0.1l39.3,15c23-15.8,50.8-22.9,78.6-20.2l57.2,5.6c9.9,1,17.3,9.2,17.3,19.1c0,0.3,0,0.6,0,0.9
			c-0.8,18-13.8,33-31.4,36.5c-3.2,0.6-6.4-1.5-7.1-4.7c-0.6-3.2,1.5-6.4,4.7-7.1c12.2-2.4,21.2-12.9,21.8-25.4c0-0.1,0-0.2,0-0.4
			c0-3.7-2.8-6.7-6.5-7.1l-57.2-5.6c-26-2.5-52,4.5-73.1,19.9c-1.6,1.2-3.8,1.5-5.7,0.8l-36.7-14L53.7,259.9l25.2,9.6
			c3.1,1.2,4.7,4.6,3.5,7.7C81.4,279.6,79.1,281.1,76.7,281.1z"/>
		<path class="st0" d="M202.5,200.8c-0.7,0-1.3-0.1-2-0.3c-3.1-1.1-4.8-4.5-3.7-7.6c2.2-6.2,3.1-10.5,3.1-10.5
			c0.6-2.9,3.3-5,6.3-4.8l18.6,1.4c0,0,0.1,0,0.1,0l21.2,1.6c0.3,0,0.6,0,0.8,0c3.3,0.1,5.9,2.9,5.8,6.2c-0.1,3.3-2.8,5.9-6.2,5.8
			c-0.5,0-0.9,0-1.4-0.1l-21.1-1.5c0,0-0.1,0-0.1,0l-13.7-1c-0.5,1.9-1.3,4.2-2.2,6.9C207.3,199.2,205,200.8,202.5,200.8z"/>
		<path class="st0" d="M244.4,248.4c-0.7,0-1.4-0.1-2.1-0.4c-3.1-1.2-4.7-4.6-3.5-7.7l3.6-9.5c1.2-3.1,4.7-4.6,7.8-3.4
			c3.1,1.2,4.6,4.7,3.4,7.8l-0.1,0.4l-3.4,8.9C249.1,247,246.9,248.4,244.4,248.4z"/>
		<path class="st0" d="M234.7,194.8c-0.7,0-1.4-0.1-2.1-0.4l-10.1-3.8c-2.3-0.8-4-3-4-5.7c0-3.3,2.7-6,6-6h0c0.7,0,1.5,0.1,2.1,0.4
			l10.2,3.9c3.1,1.2,4.7,4.6,3.5,7.7C239.4,193.3,237.1,194.8,234.7,194.8z"/>
		<path class="st0" d="M247.9,239.4c-0.7,0-1.5-0.1-2.2-0.4l-0.3-0.1c-3.1-1.2-4.6-4.7-3.4-7.8c1.2-3.1,4.7-4.6,7.8-3.4l0.3,0.1
			c3.1,1.2,4.6,4.7,3.4,7.8C252.5,238,250.3,239.4,247.9,239.4z"/>
		<path class="st0" d="M279,251.2c-0.6,0-1.3-0.1-1.9-0.3c-0.1,0-0.2-0.1-0.3-0.1l-1.9-0.7c-3.1-1.2-4.7-4.6-3.5-7.7
			c1.2-3.1,4.6-4.7,7.7-3.5l1.8,0.7c2.4,0.8,4.1,3,4.1,5.7C285,248.6,282.4,251.2,279,251.2z"/>
		<path class="st0" d="M359.2,259.6c-0.6,0-1.2-0.1-1.8-0.3c-3.2-1-4.9-4.4-3.9-7.5c1.8-5.8-1.2-12-6.9-14.1l-82.7-31.4
			c-3.1-1.2-4.7-4.6-3.5-7.7c1.2-3.1,4.6-4.7,7.7-3.5l82.7,31.4c11.6,4.4,17.8,17.1,14.1,28.9C364.1,258,361.7,259.6,359.2,259.6z"
			/>
		<path class="st0" d="M270.8,287.7L270.8,287.7c-3.3,0-6-2.7-6-6s2.7-6,6-6s6,2.7,6,6S274.1,287.7,270.8,287.7z"/>
		<path class="st0" d="M262.5,324.2c-3.3,0-6-2.7-6-6v0c0-3.3,2.7-6,6-6s6,2.7,6,6S265.8,324.2,262.5,324.2z"/>
		<path class="st0" d="M262.5,324.2c-3.3,0-6-2.7-6-6v0c0-3.3,2.7-6,6-6s6,2.7,6,6S265.8,324.2,262.5,324.2z"/>
		<path class="st0" d="M279,251.2L279,251.2c-0.6,0-1.3-0.1-1.9-0.3c-0.1,0-0.2-0.1-0.3-0.1l-1.9-0.7c-3.1-1.2-4.7-4.6-3.5-7.7
			c1.2-3.1,4.6-4.7,7.7-3.5l1.8,0.7c2.4,0.8,4.1,3,4.1,5.7C285,248.6,282.4,251.2,279,251.2z"/>
		<path class="st0" d="M270.8,287.7L270.8,287.7c-3.3,0-6-2.7-6-6s2.7-6,6-6s6,2.7,6,6S274.1,287.7,270.8,287.7z"/>
		<path class="st0" d="M247.9,239.4c-0.7,0-1.5-0.1-2.2-0.4l-0.3-0.1c-3.1-1.2-4.6-4.7-3.4-7.8c1.2-3.1,4.7-4.6,7.8-3.4l0.3,0.1
			c3.1,1.2,4.6,4.7,3.4,7.8C252.5,238,250.3,239.4,247.9,239.4z"/>
		<path class="st1" d="M212.1,177.4"/>
	</g>
	<path class="st2" d="M301,123.7H252c-3.3,0-6-2.7-6-6V93.6c0-36.4,29.6-66,66-66h60c3.3,0,6,2.7,6,6s-2.7,6-6,6h-60
		c-29.8,0-54,24.2-54,54v18.1H295V96.7c0-9.4,7.6-17,17-17h60c3.3,0,6,2.7,6,6s-2.7,6-6,6h-60c-2.8,0-5,2.2-5,5v20.9
		C307,121,304.4,123.7,301,123.7z"/>
	<path class="st2" d="M252,192.3c-3.3,0-6-2.7-6-6v-48.8c0-3.3,2.7-6,6-6s6,2.7,6,6v48.8C258,189.6,255.3,192.3,252,192.3z"/>
	<path class="st2" d="M302.2,253.1c-3.3,0-6-2.7-6-6V146.1c0-3.3,2.7-6,6-6s6,2.7,6,6v101.1C308.2,250.4,305.5,253.1,302.2,253.1z"
		/>
	<path class="st2" d="M277.1,251.1c-3.3,0-6-2.7-6-6v-2.8c0-3.3,2.7-6,6-6s6,2.7,6,6v2.8C283.1,248.4,280.4,251.1,277.1,251.1z"/>
	<path class="st2" d="M277.1,220.9c-3.3,0-6-2.7-6-6v-12c0-3.3,2.7-6,6-6s6,2.7,6,6v12C283.1,218.2,280.4,220.9,277.1,220.9z"/>
	<path class="st2" d="M277.1,188.7c-3.3,0-6-2.7-6-6V172c0-3.3,2.7-6,6-6s6,2.7,6,6v10.8C283.1,186.1,280.4,188.7,277.1,188.7z"/>
	<g>
		<path class="st0" d="M311.9,402.5c-0.7,0-1.3,0-2-0.1l-82-6.7c-8-0.7-18.3-1.5-29.7-2.4l-22.8-1.9c-34-2.8-57.1-13.7-62.6-16.5
			l-43.9-3.6c-1.6-0.1-3.1-0.9-4.1-2.1c-1-1.2-1.5-2.8-1.4-4.4L74,234c0.1-1.6,0.9-3.1,2.1-4.1c1.2-1,2.8-1.5,4.4-1.4l41.9,3.4
			c17.7-21.6,42.4-36.2,69.9-41.3l41.2-7.7c0,0,0.1,0,0.1,0l12-2.2c0.4-0.1,0.9-0.1,1.4-0.1c1.4,0.1,2.8,0,4.2-0.2
			c0.7-0.1,1.4-0.2,2.1-0.3c0.7-0.2,1.5-0.2,2.3,0c7.5,1.3,13.6,7,15.4,14.4c0.5,1.9,0.8,3.9,0.9,5.8c1.4,15.6-7,30.9-20.9,38.1
			c-0.2,0.1-0.3,0.2-0.5,0.2l-0.1,0c-0.1,0.1-0.3,0.1-0.4,0.2c-0.2,0.1-0.5,0.2-0.7,0.3c0.8,1.1,1.1,2.5,1,3.9
			c-0.3,3.3-3.2,5.7-6.5,5.5l-25.4-2.1c-3-0.2-5.3-2.6-5.5-5.6c-0.2-3,1.8-5.6,4.7-6.3l20.8-4.4c2.2-0.5,4.3-1.2,6.3-2.2
			c0.1,0,0.2-0.1,0.3-0.1c0,0,0.1-0.1,0.1-0.1c9.8-5,15.7-15.6,14.7-26.5c-0.1-1.3-0.3-2.7-0.7-4c-0.6-2.5-2.5-4.4-4.9-5.2
			c-0.6,0.1-1.2,0.2-1.9,0.3c-1.8,0.2-3.6,0.3-5.3,0.2l-11.5,2.2c0,0-0.1,0-0.1,0l-41.1,7.7c-25.7,4.8-48.6,18.8-64.7,39.4
			c-1.2,1.6-3.2,2.5-5.2,2.3l-39.1-3.2L75.8,360l39.2,3.2c0.9,0.1,1.7,0.3,2.4,0.7c0.2,0.1,23.4,12.7,58.9,15.6l22.8,1.9
			c11.4,0.9,21.7,1.8,29.7,2.4l81.9,6.7c0.3,0,0.7,0,1,0c6.5,0,11.9-5.1,12.5-11.5c0.6-6.9-4.6-12.9-11.5-13.5
			c-3.3-0.3-5.8-3.2-5.5-6.5c0.3-3.3,3.2-5.8,6.5-5.5h0L344,356c0.3,0,0.7,0.1,1.1,0.1c7,0,12.9-5.5,13.5-12.5
			c0.5-6.3-4.2-11.8-10.5-12.3l-86-7c0,0-0.1,0-0.1,0l-10.5-0.9c-3.3-0.3-5.8-3.2-5.5-6.5c0.3-3.3,3.2-5.8,6.5-5.5l10.4,0.8
			c0,0,0.1,0,0.1,0l86.1,7c12.9,1,22.5,12.4,21.5,25.3c-1.1,13.2-12.3,23.5-25.5,23.5c-0.6,0-1.2,0-2.1-0.1l-9.2-0.7
			c1.9,3.8,2.8,8.2,2.4,12.8C335.2,392.6,324.5,402.5,311.9,402.5z M254.3,360.7c-0.2,0-0.3,0-0.5,0l-5.3-0.4
			c-3.3-0.3-5.8-3.2-5.5-6.5c0.3-3.3,3.2-5.8,6.5-5.5l5.3,0.4c3.3,0.3,5.8,3.2,5.5,6.5C260,358.3,257.4,360.7,254.3,360.7z"/>
		<path class="st0" d="M258,249.5c-0.2,0-0.3,0-0.5,0l-13.6-1.1c-3.3-0.3-5.8-3.2-5.5-6.5c0.3-3.3,3.2-5.8,6.5-5.5l13.6,1.1
			c3.3,0.3,5.8,3.2,5.5,6.5C263.7,247.2,261.1,249.5,258,249.5z"/>
		<path class="st0" d="M246.9,192.5c-2.8,0-5.4-2-5.9-4.9c-0.6-3.3,1.5-6.4,4.8-7l3.1-0.6c0.9-0.2,1.9-0.3,2.8-0.3
			c1.4-0.1,2.7,0,4,0.3c3.3,0.6,5.4,3.7,4.8,7c-0.6,3.3-3.7,5.4-7,4.8c-0.3-0.1-0.7-0.1-1.1-0.1l-0.1,0c-0.1,0-0.1,0-0.2,0
			c-0.4,0-0.7,0.1-1.1,0.1l-3.1,0.6C247.6,192.5,247.2,192.5,246.9,192.5z"/>
		<path class="st0" d="M348,293.9c-0.6,0-1.2,0-1.8-0.1c0,0-0.1,0-0.1,0l-75.7-6.2c0,0-0.1,0-0.1,0l-33.3-2.7
			c-3.3-0.3-5.8-3.2-5.5-6.5c0.3-3.3,3.2-5.8,6.5-5.5l33.2,2.7c0,0,0.1,0,0.1,0l75.7,6.2c0.3,0,0.7,0,1,0c3.8,0,7.5-1.6,10.1-4.5
			c2-2.2,3.2-5,3.5-8c0.4-4.3-1.7-8.4-5.5-10.7c-1.5-0.9-3.2-1.5-5-1.6l-72.4-5.9c-0.1,0-0.2,0-0.3,0l-34.3-2.8
			c-3.3-0.3-5.8-3.2-5.5-6.5c0.3-3.3,3.2-5.8,6.5-5.5l34.5,2.8c0.1,0,0.2,0,0.3,0l72.2,5.9c3.7,0.3,7.2,1.4,10.3,3.4
			c7.6,4.6,11.9,13,11.1,21.9c-0.5,5.7-2.7,10.9-6.5,15.1C362.1,290.9,355.2,293.9,348,293.9z"/>
		<path class="st0" d="M249,360.3c-0.2,0-0.3,0-0.5,0l-17.6-1.4c-3.3-0.3-5.8-3.2-5.5-6.5c0.3-3.3,3.2-5.8,6.5-5.5l17.6,1.4
			c3.3,0.3,5.8,3.2,5.5,6.5C254.7,357.9,252.1,360.3,249,360.3z"/>
		<path class="st0" d="M313.3,365.5c-0.2,0-0.3,0-0.5,0l-59-4.8c-3.3-0.3-5.8-3.2-5.5-6.5c0.3-3.3,3.2-5.8,6.5-5.5l59,4.8
			c3.3,0.3,5.8,3.2,5.5,6.5C319.1,363.1,316.4,365.5,313.3,365.5z"/>
		<path class="st0" d="M252,323.4c-0.2,0-0.3,0-0.5,0l-17.6-1.4c-3.3-0.3-5.8-3.2-5.5-6.5c0.3-3.3,3.2-5.8,6.5-5.5l17.6,1.4
			c3.3,0.3,5.8,3.2,5.5,6.5C257.7,321,255.1,323.4,252,323.4z"/>
		<path class="st0" d="M313.3,365.5c-0.2,0-0.3,0-0.5,0l-59-4.8c-3.3-0.3-5.8-3.2-5.5-6.5c0.3-3.3,3.2-5.8,6.5-5.5l59,4.8
			c3.3,0.3,5.8,3.2,5.5,6.5C319.1,363.1,316.4,365.5,313.3,365.5z"/>
		<path class="st0" d="M249,360.3c-0.2,0-0.3,0-0.5,0l-17.6-1.4c-3.3-0.3-5.8-3.2-5.5-6.5c0.3-3.3,3.2-5.8,6.5-5.5l17.6,1.4
			c3.3,0.3,5.8,3.2,5.5,6.5C254.7,357.9,252.1,360.3,249,360.3z"/>
		<path class="st0" d="M365.6,332.5c-0.7,0-1.3,0-2-0.1l-15.4-1.3c-3.3-0.3-5.8-3.2-5.5-6.5c0.3-3.3,3.2-5.8,6.5-5.5l15.4,1.2
			c0.3,0,0.7,0,1,0c6.5,0,11.9-5.1,12.5-11.5c0.3-3.3-0.8-6.6-2.9-9.1c-2.2-2.5-5.2-4.1-8.5-4.4l-20.5-1.7l-75.7-6.2
			c0,0-0.1,0-0.1,0l-33.3-2.7c-3.3-0.3-5.8-3.2-5.5-6.5c0.3-3.3,3.2-5.8,6.5-5.5l33.2,2.7c0,0,0.1,0,0.1,0l96.3,7.8
			c6.5,0.5,12.5,3.6,16.7,8.6c4.2,5,6.3,11.3,5.8,17.9C389,322.6,378.3,332.5,365.6,332.5z"/>
		<path class="st0" d="M262.5,324.2c-0.2,0-0.5,0-0.7,0l-9.2-0.7c-3.3-0.3-5.8-3.2-5.5-6.5c0.3-3.3,3.2-5.8,6.5-5.5l9.4,0.8
			c3.1,0.3,5.5,2.9,5.5,6C268.5,321.5,265.8,324.2,262.5,324.2z"/>
		<path class="st0" d="M252,323.4c-0.2,0-0.3,0-0.5,0l-17.6-1.4c-3.3-0.3-5.8-3.2-5.5-6.5c0.3-3.3,3.2-5.8,6.5-5.5l17.6,1.4
			c3.3,0.3,5.8,3.2,5.5,6.5C257.7,321,255.1,323.4,252,323.4z"/>
		<path class="st1" d="M205.1,236.6"/>
	</g>
</g>
</svg>
