<?xml version="1.0" encoding="utf-8"?>
<!-- Generator: Adobe Illustrator 25.0.1, SVG Export Plug-In . SVG Version: 6.00 Build 0)  -->
<svg version="1.1" id="Layer_1" xmlns="http://www.w3.org/2000/svg" xmlns:xlink="http://www.w3.org/1999/xlink" x="0px" y="0px"
	 viewBox="0 0 430 430" style="enable-background:new 0 0 430 430;" xml:space="preserve">
<style type="text/css">
	.st0{fill:#121331;}
	.st1{fill:#08a88a;}
</style>
<g>
	<path class="st0" d="M85.9,386.3c-3.3,0-6-2.7-6-6V268.4c0-3.3,2.7-6,6-6s6,2.7,6,6v111.9C91.9,383.6,89.2,386.3,85.9,386.3z"/>
	<path class="st0" d="M282.7,386.3h-44c-3.3,0-6-2.7-6-6v-20.8c0-6-4.9-11-11-11h-25.7c-7.6,10.1-19.4,16-32.1,16
		c-12.8,0-24.5-5.9-32.1-16h-46c-3.3,0-6-2.7-6-6v-37.7c0-3.3,2.7-6,6-6h11.5c3.3,0,6,2.7,6,6s-2.7,6-6,6h-5.5v25.7H135
		c2.1,0,4,1.1,5.1,2.8c5.2,8.3,14.1,13.2,23.9,13.2c9.8,0,18.7-4.9,23.9-13.2c1.1-1.7,3-2.8,5.1-2.8h28.8c12.7,0,23,10.3,23,23v14.8
		h32v-18.6c0-23.4-17.5-42.6-40.8-44.7c-3.3-0.3-5.7-3.2-5.4-6.5c0.3-3.3,3.2-5.7,6.5-5.4c14.1,1.3,27.1,7.7,36.7,18.1
		c9.7,10.5,15,24.2,15,38.5v24.6C288.7,383.6,286,386.3,282.7,386.3z"/>
	<g>
		<path class="st1" d="M210.1,251.3c-2.4,0-4.7-1.5-5.6-3.8c-0.8-2-1.4-3.8-2-5.4c-0.4-1.2-0.8-2.3-1.2-3.2l-0.1-0.1
			c-4.7-12.3-9.2-23.9-28.8-24.1c-3.8,0-7.4,0.8-10.5,2.5c-2.9,1.6-6.6,0.4-8.1-2.5c-1.6-2.9-0.4-6.6,2.5-8.1
			c5-2.6,10.4-3.9,16.3-3.9c27.8,0.3,35.1,19.2,39.9,31.8l0.1,0.1c0.4,1,0.8,2.1,1.2,3.3c0.6,1.6,1.2,3.3,2,5.3
			c1.2,3.1-0.4,6.6-3.4,7.8C211.5,251.2,210.8,251.3,210.1,251.3z"/>
		<path class="st1" d="M167.5,334.2c-12.1,0-23.2-4.4-32.8-13c-7.9,1.4-27.8,2.9-41.7-12.3c-2.6-2.8-4.8-6.1-6.7-9.8
			c-0.8-1.6-0.9-3.5-0.1-5.2c0.7-1.7,2.2-2.9,4-3.3c0.8-0.2,21.4-6.1,35.6-33.1c1.5-2.9,5.2-4.1,8.1-2.5c2.9,1.5,4.1,5.2,2.5,8.1
			c-11.5,21.7-26.8,31.9-35.8,36.2c0.4,0.5,0.8,1,1.3,1.5c12.5,13.7,32.9,8.2,33.1,8.1c2.1-0.6,4.3,0,5.8,1.5
			c10.9,10.9,24.1,14.2,39.1,9.9c11.7-3.4,20.1-10.2,20.1-10.3c1.1-0.9,2.4-1.4,3.8-1.4c10.4,0,20.3-2.9,29.4-8.7
			c3.4-2.1,6.2-4.4,8.4-6.4c-8.4-3.1-15.9-9.1-22.5-18.1c-2-2.7-1.4-6.4,1.3-8.4c2.7-2,6.4-1.4,8.4,1.3c7.4,10,15.5,15,24.8,15.5
			c2.2,0.1,4.1,1.4,5.1,3.4c1,2,0.7,4.3-0.5,6.1c-0.3,0.4-6.7,9.2-18.5,16.7c-10.5,6.6-21.8,10.2-33.7,10.5
			c-3.5,2.5-11.8,8-22.6,11.2C177.8,333.5,172.6,334.2,167.5,334.2z"/>
		<path class="st1" d="M199.7,299.7c-2.1,0-4.1-1.1-5.2-3.1c-14.5-26-16-59.2-16.1-60.6c-0.1-3.3,2.4-6.1,5.7-6.2
			c3.3-0.1,6.1,2.4,6.2,5.7c0,0.4,1.5,31.8,14.6,55.2c1.6,2.9,0.6,6.5-2.3,8.2C201.7,299.5,200.7,299.7,199.7,299.7z"/>
	</g>
	<g>
		<g>
			<path class="st0" d="M332.8,164.1c-1.4,0-2.9-0.5-4-1.5c-2.5-2.2-2.7-6-0.4-8.5l1.1-1.2l32-36.1l-59.8-58.6L271,89
				c-1.2,1.3-3,1.9-4.7,1.7c-35.3-2.9-56-0.8-73.2,1.9c-3.3,0.5-6.3-1.7-6.9-5c-0.5-3.3,1.7-6.3,5-6.9c17.4-2.7,38.4-4.9,73.3-2.3
				l32.9-33.1c2.3-2.3,6.1-2.4,8.5-0.1l68.1,66.7c2.3,2.2,2.4,5.9,0.3,8.3l-36.9,41.7C336.1,163.4,334.5,164.1,332.8,164.1z"/>
			<path class="st0" d="M257,205.8c-1,0-2-0.2-2.9-0.8c-21.4-12-52-11.2-60.9-10.6c0,0-0.1,0-0.1,0c-1.7,0.1-2.6,0.2-2.7,0.2
				c-3.3,0.3-6.2-2.1-6.6-5.4c-0.3-3.3,2.1-6.2,5.4-6.6c0,0,1.2-0.1,3.2-0.2c0,0,0.1,0,0.1,0c12.5-0.8,44-1.1,67.5,12.2
				c2.9,1.6,3.9,5.3,2.3,8.2C261.1,204.7,259.1,205.8,257,205.8z"/>
		</g>
		<path class="st0" d="M112.9,105.3c-1.9,0-3.8-0.9-5-2.7c-4.1-6.2-5.6-13.5-4-20.8l1.1-5.1c0.9-4.1,3.3-7.6,6.8-9.9
			c3.5-2.3,7.7-3.1,11.8-2.2c0,0,0.1,0,0.1,0l15.1,3.5l22.5,4.8l32.4,6.8c3.2,0.7,5.3,3.9,4.6,7.1c-0.7,3.2-3.9,5.3-7.1,4.6
			l-32.4-6.8l-22.6-4.9L121,76.3c-1-0.2-1.9,0-2.8,0.5c-0.8,0.5-1.4,1.4-1.6,2.4l-1.1,5.1c-0.9,4.1-0.1,8.2,2.3,11.6
			c1.8,2.8,1.1,6.5-1.6,8.3C115.2,105,114,105.3,112.9,105.3z"/>
		<path class="st0" d="M109.9,141.4c-0.2,0-0.4,0-0.6,0l-19.7-1.9c-16.4-1.6-28.4-16.2-26.9-32.6l0.1-1.4
			c0.9-9.3,9.2-16.1,18.5-15.3l102.4,9.8c3.3,0.3,5.7,3.2,5.4,6.5c-0.3,3.3-3.2,5.7-6.5,5.4l-102.4-9.8c-2.7-0.2-5.1,1.7-5.4,4.4
			l-0.1,1.4c-0.9,9.8,6.3,18.5,16.1,19.5l19.6,1.9c3.3,0.3,5.7,3.2,5.4,6.5C115.6,139.1,113,141.4,109.9,141.4z"/>
		<path class="st0" d="M82.8,192.1c-9.9,0-19.7-4.8-25.6-13.6c-1.9-2.9-3-6.2-3-9.7c0-5.8,2.9-11.2,7.7-14.4L93,133.4
			c0.6-0.4,1.3-0.7,2-0.9l47.7-10.6c0.5-0.1,1-0.2,1.5-0.1l42.4,1.1c3.3,0.1,5.9,2.8,5.8,6.2c-0.1,3.3-2.8,6-6.2,5.8l-41.6-1.1
			L98.8,144l-30.1,20.3c-1.5,1-2.4,2.7-2.4,4.5c0,1.1,0.3,2.1,0.9,3c5.8,8.6,17.5,10.9,26.1,5.1l14.2-9.6c0.6-0.4,1.3-0.7,2-0.9
			l36.7-8.1c0.5-0.1,1-0.2,1.5-0.1l15.8,0.4c3.2,0.1,5.9,2.7,5.9,6c0,3.4-2.8,6.1-6.2,6l-15.1-0.4l-34.8,7.7l-13.3,9
			C94.7,190.4,88.7,192.1,82.8,192.1z"/>
		<path class="st0" d="M117,270.7c-2.3,0-4.6-0.3-6.9-0.8c-7.9-1.8-13.5-8.8-13.5-16.9c0-1.3,0.2-2.6,0.4-3.9l7.8-34.1
			c0.2-0.7,0.5-1.4,0.9-2.1l27.7-40c0.6-0.9,1.4-1.6,2.4-2l44.5-21c3-1.4,6.6-0.1,8,2.9c1.4,3,0.1,6.6-2.9,8l-43,20.3l-26.1,37.7
			l-7.6,33c-0.1,0.4-0.1,0.8-0.1,1.2c0,2.5,1.8,4.7,4.2,5.2c5.1,1.2,10.5,0.1,14.9-2.8c3.9-2.7,6.6-6.7,7.7-11.3l3.1-13.7
			c0.2-0.8,0.5-1.6,1-2.2l20.2-27.4c0.5-0.7,1.1-1.3,1.9-1.7l28.2-15.9c0.9-0.5,1.9-0.8,2.9-0.8c3.3,0,6,2.7,6,6
			c0,2.3-1.3,4.4-3.3,5.4l-26.8,15.1l-18.7,25.4l-2.9,12.4c-1.7,7.6-6.2,14.1-12.6,18.5C129.3,268.8,123.2,270.7,117,270.7z"/>
		<path class="st0" d="M223.1,278c-6.5,0-12.7-3.6-15.8-9.5c-2.8-5.2-4.3-10.6-4.3-16c0-3,0.4-6,1.3-8.9c2.4-8.4,8.3-16.5,17.4-24
			c0,0,0.1-0.1,0.2-0.1l32.1-24.9c2.6-2,6.4-1.5,8.4,1.1c2,2.6,1.5,6.4-1.1,8.4l-0.6,0.5l-31.4,24.3c-7.2,6-11.7,12-13.4,18.1
			c-0.5,1.9-0.8,3.7-0.8,5.6c0,3.4,0.9,6.9,2.8,10.3c1.1,2.1,3.4,3.3,5.7,3.2c0.8,0,1.5-0.2,2.2-0.6l47.5-22.6
			c21.5-10.2,38.4-27.9,47.7-49.8c0-0.1,0.1-0.2,0.1-0.2c0.1-0.2,7.6-16.5,5.8-34.1c-0.3-3.3-1-6.6-2-9.6c-1-3.2,0.7-6.5,3.9-7.6
			c3.2-1,6.5,0.7,7.6,3.9c1.2,3.8,2.1,7.8,2.5,12c2.1,20.4-6,38.5-6.8,40.3c-10.4,24.6-29.4,44.4-53.5,55.9l-47.5,22.6
			c-2.1,1-4.3,1.6-6.6,1.7C223.9,278,223.5,278,223.1,278z"/>
	</g>
</g>
</svg>
