<?xml version="1.0" encoding="utf-8"?>
<!-- Generator: Adobe Illustrator 25.0.1, SVG Export Plug-In . SVG Version: 6.00 Build 0)  -->
<svg version="1.1" id="Layer_1" xmlns="http://www.w3.org/2000/svg" xmlns:xlink="http://www.w3.org/1999/xlink" x="0px" y="0px"
	 viewBox="0 0 430 430" style="enable-background:new 0 0 430 430;" xml:space="preserve">
<style type="text/css">
	.st0{fill:#121331;}
	.st1{fill:#08a88a;}
</style>
<g>
	<g>
		<g>
			<path class="st0" d="M215,234.8c-22.8,0-41.3-18.5-41.3-41.2v-44.9c0-3.3,2.7-6,6-6s6,2.7,6,6v44.9c0,16.1,13.1,29.2,29.2,29.2
				c16.1,0,29.3-13.1,29.3-29.2v-44.9c0-3.3,2.7-6,6-6s6,2.7,6,6v44.9C256.3,216.3,237.8,234.8,215,234.8z"/>
			<path class="st0" d="M215,275.9c-3.3,0-6-2.7-6-6V148.7c0-3.3,2.7-6,6-6s6,2.7,6,6v121.3C221,273.3,218.3,275.9,215,275.9z"/>
		</g>
		<path class="st1" d="M234.3,348.1h-38.5c-3.3,0-6-2.7-6-6v-72.1c0-3.3,2.7-6,6-6h38.5c3.3,0,6,2.7,6,6v72.1
			C240.3,345.4,237.6,348.1,234.3,348.1z M201.7,336.1h26.5v-60.1h-26.5V336.1z"/>
	</g>
	<g>
		<path class="st0" d="M346.5,226.6C346.5,226.6,346.5,226.6,346.5,226.6c-1.8,0-3.5-0.8-4.7-2.2l-23.7-29.1
			c-2.1-2.6-1.7-6.3,0.9-8.4c2.6-2.1,6.3-1.7,8.4,0.9l19.1,23.5l17.7-21.2l-25.4-14c-2.9-1.6-4-5.2-2.4-8.1c1.6-2.9,5.2-4,8.1-2.4
			l31.8,17.5c1.6,0.9,2.7,2.4,3,4.1c0.3,1.8-0.1,3.6-1.3,5l-27,32.4C350,225.8,348.3,226.6,346.5,226.6z"/>
		<path class="st0" d="M83.5,226.6c-1.8,0-3.5-0.8-4.6-2.2l-27-32.4c-1.1-1.4-1.6-3.2-1.3-5c0.3-1.8,1.4-3.3,3-4.1l31.4-17.2
			c2.9-1.6,6.6-0.5,8.1,2.4c1.6,2.9,0.5,6.6-2.4,8.1L65.8,190l17.7,21.2l19.1-23.5c2.1-2.6,5.9-3,8.4-0.9c2.6,2.1,3,5.9,0.9,8.4
			l-23.7,29.1C87,225.8,85.3,226.6,83.5,226.6C83.5,226.6,83.5,226.6,83.5,226.6z"/>
		<path class="st0" d="M321.7,197.5c-16.9,0-34.5-12-44.7-20.4c0,0-0.1-0.1-0.1-0.1c-35.4-30.7-88.7-30.7-124.1,0
			c0,0-0.1,0.1-0.1,0.1c-12.6,10.3-36.8,26.4-56.9,18c-6.9-2.8-11.8-9.7-13.3-18.9c-2.5-14.8,3.7-37.3,23-54
			c30-26,68.8-40.3,109.3-40.3s79.4,14.3,109.3,40.3c19.3,16.7,25.5,39.1,23,54c-1.5,9.2-6.4,16.2-13.4,19
			C329.9,196.8,325.8,197.5,321.7,197.5z M284.7,168c17.6,14.4,34.3,20.5,44.6,16.1c3.1-1.2,5.3-4.8,6.1-9.8
			c1.9-11.2-3.3-29.3-19-42.9c-57.9-50.2-145.1-50.2-203,0c-15.7,13.6-20.9,31.8-19,42.9c0.8,5,3,8.6,6,9.8
			c10.4,4.4,27-1.7,44.6-16.1c19.2-16.6,44-25.7,69.8-25.7C240.7,142.2,265.5,151.4,284.7,168z M148.9,172.6L148.9,172.6
			L148.9,172.6z"/>
		<path class="st0" d="M218.7,122.7c-3.3,0-6-2.7-6-6V88c0-3.3,2.7-6,6-6s6,2.7,6,6v28.8C224.7,120.1,222,122.7,218.7,122.7z"/>
		<path class="st0" d="M283,139c-1,0-2-0.2-2.9-0.7c-2.9-1.6-4-5.2-2.4-8.1l12.9-23.6c1.6-2.9,5.2-4,8.1-2.4c2.9,1.6,4,5.2,2.4,8.1
			l-12.9,23.6C287.1,137.9,285.1,139,283,139z"/>
		<path class="st0" d="M151.1,137.1c-2.1,0-4.2-1.1-5.3-3.1L133,110.4c-1.6-2.9-0.5-6.6,2.4-8.1c2.9-1.6,6.6-0.5,8.1,2.4l12.9,23.6
			c1.6,2.9,0.5,6.6-2.4,8.1C153.1,136.9,152.1,137.1,151.1,137.1z"/>
	</g>
</g>
</svg>
