<?xml version="1.0" encoding="utf-8"?>
<!-- Generator: Adobe Illustrator 25.0.1, SVG Export Plug-In . SVG Version: 6.00 Build 0)  -->
<svg version="1.1" id="Layer_1" xmlns="http://www.w3.org/2000/svg" xmlns:xlink="http://www.w3.org/1999/xlink" x="0px" y="0px"
	 viewBox="0 0 430 430" style="enable-background:new 0 0 430 430;" xml:space="preserve">
<style type="text/css">
	.st0{fill:#08a88a;}
	.st1{fill:#121331;}
</style>
<g>
	<g>
		<path class="st0" d="M221.5,225.5c-3.3,0-6-2.7-6-6v-38.3c0-3.3,2.7-6,6-6s6,2.7,6,6v38.3C227.5,222.8,224.8,225.5,221.5,225.5z"
			/>
		<path class="st0" d="M246.9,285.9h-50.7c-3.3,0-6-2.7-6-6v-37.5c0-0.7,0.1-1.5,0.4-2.2l8.9-22.9c0.9-2.3,3.1-3.8,5.6-3.8H238
			c2.5,0,4.7,1.5,5.6,3.8l8.9,22.9c0.3,0.7,0.4,1.4,0.4,2.2v37.5C252.9,283.2,250.2,285.9,246.9,285.9z M202.1,273.9h38.7v-30.4
			l-7-18h-24.7l-7,18V273.9z"/>
	</g>
	<g>
		<path class="st1" d="M248.7,367.2h-98.8c-26.4,0-47.8-20.8-47.8-46.3V180.9c0-3.3,2.7-6,6-6h182.4c3.3,0,6,2.7,6,6v140.1
			C296.5,346.5,275,367.2,248.7,367.2z M114.1,186.9v134.1c0,18.9,16.1,34.3,35.8,34.3h98.8c19.7,0,35.8-15.4,35.8-34.3V186.9H114.1
			z"/>
		<path class="st1" d="M319.6,277.1h-29.1c-3.3,0-6-2.7-6-6s2.7-6,6-6h29.1c18.8,0,34-14.6,34-32.6v-13c0-18-15.3-32.6-34-32.6
			h-29.1c-3.3,0-6-2.7-6-6s2.7-6,6-6h29.1c25.4,0,46,20,46,44.6v13C365.6,257,345,277.1,319.6,277.1z"/>
	</g>
	<path class="st1" d="M337.3,367H70.4c-3.3,0-6-2.7-6-6s2.7-6,6-6h266.9c3.3,0,6,2.7,6,6S340.6,367,337.3,367z"/>
	<path class="st0" d="M158.2,139.4c-3.3,0-6-2.7-6-6c0-6.9,2.1-10.7,3.8-13.7c1.4-2.4,2.2-4,2.2-7.9s-0.9-5.4-2.2-7.9
		c-1.7-3-3.8-6.8-3.8-13.7c0-6.9,2.1-10.7,3.8-13.7c1.4-2.4,2.2-4,2.2-7.9c0-3.3,2.7-6,6-6s6,2.7,6,6c0,6.9-2.1,10.7-3.8,13.7
		c-1.4,2.4-2.2,4-2.2,7.9c0,3.8,0.9,5.4,2.2,7.9c1.7,3,3.8,6.8,3.8,13.7s-2.1,10.7-3.8,13.7c-1.4,2.4-2.2,4-2.2,7.9
		C164.2,136.7,161.5,139.4,158.2,139.4z"/>
	<path class="st0" d="M201.8,139.4c-3.3,0-6-2.7-6-6c0-6.9,2.1-10.7,3.8-13.7c1.4-2.4,2.2-4,2.2-7.9s-0.9-5.4-2.2-7.9
		c-1.7-3-3.8-6.8-3.8-13.7c0-6.9,2.1-10.7,3.8-13.7c1.4-2.4,2.2-4,2.2-7.9c0-3.3,2.7-6,6-6s6,2.7,6,6c0,6.9-2.1,10.7-3.8,13.7
		c-1.4,2.4-2.2,4-2.2,7.9c0,3.8,0.9,5.4,2.2,7.9c1.7,3,3.8,6.8,3.8,13.7s-2.1,10.7-3.8,13.7c-1.4,2.4-2.2,4-2.2,7.9
		C207.8,136.7,205.1,139.4,201.8,139.4z"/>
	<path class="st0" d="M245.4,139.4c-3.3,0-6-2.7-6-6c0-6.9,2.1-10.7,3.8-13.7c1.3-2.4,2.2-4,2.2-7.9s-0.9-5.4-2.2-7.9
		c-1.7-3-3.8-6.8-3.8-13.7c0-6.9,2.1-10.7,3.8-13.7c1.4-2.4,2.2-4,2.2-7.9c0-3.3,2.7-6,6-6s6,2.7,6,6c0,6.9-2.1,10.7-3.8,13.7
		c-1.4,2.4-2.2,4-2.2,7.9c0,3.8,0.9,5.4,2.2,7.9c1.7,3,3.8,6.8,3.8,13.7s-2.1,10.7-3.8,13.7c-1.3,2.4-2.2,4-2.2,7.9
		C251.4,136.7,248.8,139.4,245.4,139.4z"/>
</g>
</svg>
