<?xml version="1.0" encoding="utf-8"?>
<!-- Generator: Adobe Illustrator 24.0.2, SVG Export Plug-In . SVG Version: 6.00 Build 0)  -->
<svg version="1.1" xmlns="http://www.w3.org/2000/svg" xmlns:xlink="http://www.w3.org/1999/xlink" x="0px" y="0px"
	 viewBox="0 0 24 24" style="enable-background:new 0 0 24 24;" xml:space="preserve">
<style type="text/css">
	.st0{fill:none;}
	.st1{display:none;}
	.st2{display:inline;}
	.st3{fill:none;stroke:#CECECE;stroke-width:0.1;stroke-miterlimit:10;}
	.st4{fill:#121331;}
</style>
<g id="bounding_box">
	<rect x="0" y="0" class="st0" width="24" height="24"/>
</g>
<g id="design">
	<path class="st4" d="M18.22,21c-0.13,0-0.26-0.01-0.38-0.03C10.18,19.91,4.09,13.82,3.03,6.16c-0.11-0.8,0.13-1.6,0.66-2.21
		C4.21,3.35,4.97,3,5.77,3h3.3c0.86,0,1.58,0.61,1.73,1.45l0.39,2.19c0.19,1.05-0.26,2.12-1.12,2.74L9.74,9.61
		c1.21,1.84,2.8,3.42,4.66,4.63l0.21-0.29c0.61-0.87,1.69-1.31,2.74-1.13l2.19,0.39c0.84,0.15,1.45,0.88,1.45,1.73v3.3
		c0,0.8-0.35,1.56-0.95,2.09C19.54,20.76,18.89,21,18.22,21z M5.77,4.5c-0.37,0-0.71,0.15-0.96,0.44c-0.24,0.28-0.35,0.65-0.3,1.02
		c0.97,6.99,6.54,12.56,13.53,13.53c0.37,0.05,0.74-0.06,1.02-0.3c0.28-0.25,0.44-0.58,0.44-0.96v-3.3c0-0.13-0.09-0.23-0.21-0.25
		l-2.19-0.39c-0.49-0.08-0.97,0.12-1.25,0.52l-0.62,0.87C15,16,14.57,16.09,14.23,15.89c-2.53-1.49-4.66-3.6-6.14-6.1
		C7.89,9.45,7.98,9.02,8.3,8.8l0.89-0.63c0.4-0.28,0.6-0.77,0.52-1.25L9.32,4.71C9.3,4.59,9.19,4.5,9.07,4.5H5.77z"/>
</g>
</svg>
