<?xml version="1.0" encoding="utf-8"?>
<!-- Generator: Adobe Illustrator 24.0.2, SVG Export Plug-In . SVG Version: 6.00 Build 0)  -->
<svg version="1.1" xmlns="http://www.w3.org/2000/svg" xmlns:xlink="http://www.w3.org/1999/xlink" x="0px" y="0px"
	 viewBox="0 0 24 24" style="enable-background:new 0 0 24 24;" xml:space="preserve">
<style type="text/css">
	.st0{fill:none;}
	.st1{fill:#121331;}
</style>
<g id="bounding_area">
	<rect class="st0" width="24" height="24"/>
</g>
<g id="design">
	<g>
		<path class="st1" d="M20.85,7.3C20.71,7.11,20.49,7,20.25,7L7.92,7.01L7.77,6.24c-0.24-1.29-1.38-2.23-2.7-2.23H2.75
			C2.34,4.01,2,4.34,2,4.76c0,0.41,0.34,0.75,0.75,0.75h2.32c0.6,0,1.12,0.42,1.23,1.01l0.26,1.36l0.01,0.04l1.16,6.96
			c0.06,0.36,0.38,0.63,0.74,0.63h8.27c1.22,0,2.31-0.82,2.65-2l1.58-5.55C21.04,7.73,20.99,7.49,20.85,7.3z M17.94,13.1
			c-0.15,0.54-0.64,0.91-1.2,0.91H9.11l-0.92-5.5L19.26,8.5L17.94,13.1z"/>
		<g>
			<circle class="st1" cx="10" cy="19" r="2"/>
		</g>
		<g>
			<circle class="st1" cx="16.5" cy="19.01" r="2"/>
		</g>
	</g>
</g>
</svg>
