<?xml version="1.0" encoding="utf-8"?>
<!-- Generator: Adobe Illustrator 24.0.2, SVG Export Plug-In . SVG Version: 6.00 Build 0)  -->
<svg version="1.1" xmlns="http://www.w3.org/2000/svg" xmlns:xlink="http://www.w3.org/1999/xlink" x="0px" y="0px"
	 viewBox="0 0 24 24" style="enable-background:new 0 0 24 24;" xml:space="preserve">
<style type="text/css">
	.st0{fill:none;}
	.st1{display:none;}
	.st2{display:inline;}
	.st3{fill:none;stroke:#CECECE;stroke-width:0.1;stroke-miterlimit:10;}
	.st4{fill:#121331;}
</style>
<g id="bounding_box">
	<rect x="0" y="0" class="st0" width="24" height="24"/>
</g>
<g id="design">
	<path class="st4" d="M21.25,8.5h-2.19C18.53,7.67,17.83,6.98,17,6.47V3.25c0-0.41-0.34-0.75-0.75-0.75c-1.85,0-3.43,1.28-3.88,3.01
		h-1.94c-3.2,0-5.85,2.33-6.34,5.39C3.76,10.55,3.5,10,3.5,9.5V8.25c0-0.41-0.34-0.75-0.75-0.75S2,7.84,2,8.25V9.5
		c0,1.25,0.84,2.68,2.02,3.11c0.15,1.8,1.05,3.44,2.48,4.53v2.61c0,0.41,0.34,0.75,0.75,0.75h3c0.41,0,0.75-0.34,0.75-0.75V18.5h2
		v1.25c0,0.41,0.34,0.75,0.75,0.75h3c0.41,0,0.75-0.34,0.75-0.75V17.2c1.08-0.8,1.86-1.91,2.27-3.2h1.48c0.41,0,0.75-0.34,0.75-0.75
		v-4C22,8.84,21.66,8.5,21.25,8.5z M20.5,12.5h-1.31c-0.35,0-0.66,0.25-0.73,0.59c-0.28,1.29-1.03,2.38-2.12,3.09
		C16.13,16.32,16,16.56,16,16.81V19h-1.5v-1.25c0-0.41-0.34-0.75-0.75-0.75h-3.5c-0.41,0-0.75,0.34-0.75,0.75V19H8v-2.25
		c0-0.25-0.13-0.49-0.34-0.63c-1.35-0.89-2.16-2.41-2.16-4.05v-0.13c0-2.72,2.21-4.93,4.93-4.93h2.58c0.39,0,0.72-0.3,0.75-0.7
		c0.07-1.04,0.79-1.89,1.74-2.19v2.79c0,0.28,0.16,0.54,0.41,0.67c0.87,0.45,1.59,1.15,2.06,2.03C18.1,9.85,18.35,10,18.63,10h1.87
		V12.5z"/>
</g>
</svg>
