<?xml version="1.0" encoding="utf-8"?>
<!-- Generator: Adobe Illustrator 25.0.1, SVG Export Plug-In . SVG Version: 6.00 Build 0)  -->
<svg version="1.1" id="Layer_1" xmlns="http://www.w3.org/2000/svg" xmlns:xlink="http://www.w3.org/1999/xlink" x="0px" y="0px"
	 viewBox="0 0 430 430" style="enable-background:new 0 0 430 430;" xml:space="preserve">
<style type="text/css">
	.st0{fill:#121331;}
	.st1{fill:#08a88a;}
</style>
<path class="st0" d="M215,217.5c-30.2,0-54.7-24.6-54.7-54.7S184.8,108,215,108s54.7,24.6,54.7,54.7S245.2,217.5,215,217.5z
	 M215,120c-23.6,0-42.7,19.2-42.7,42.7s19.2,42.7,42.7,42.7s42.7-19.2,42.7-42.7S238.6,120,215,120z"/>
<path class="st0" d="M215,380c-3.3,0-6-2.7-6-6V211.5c0-3.3,2.7-6,6-6s6,2.7,6,6V374C221,377.3,218.3,380,215,380z"/>
<path class="st1" d="M148.4,239.9c-1.5,0-2.9-0.5-4.1-1.6c-20.8-19.5-32.8-47-32.8-75.5c0-28.5,11.9-56,32.8-75.5
	c2.4-2.3,6.2-2.1,8.5,0.3c2.3,2.4,2.1,6.2-0.3,8.5c-18.4,17.2-29,41.6-29,66.7s10.6,49.5,29,66.7c2.4,2.3,2.5,6.1,0.3,8.5
	C151.6,239.2,150,239.9,148.4,239.9z"/>
<path class="st1" d="M281.6,239.9c-1.6,0-3.2-0.6-4.4-1.9c-2.3-2.4-2.1-6.2,0.3-8.5c18.4-17.2,29-41.6,29-66.8
	c0-25.2-10.6-49.5-29-66.7c-2.4-2.3-2.5-6.1-0.3-8.5c2.3-2.4,6.1-2.5,8.5-0.3c20.8,19.5,32.8,47,32.8,75.5s-11.9,56-32.8,75.5
	C284.5,239.3,283,239.9,281.6,239.9z"/>
<path class="st1" d="M314.8,275.4c-1.6,0-3.2-0.6-4.4-1.9c-2.3-2.4-2.1-6.2,0.3-8.5c28.2-26.4,44.4-63.7,44.4-102.3
	s-16.2-75.9-44.4-102.3c-2.4-2.3-2.5-6.1-0.3-8.5c2.3-2.4,6.1-2.5,8.5-0.3c30.6,28.6,48.2,69.1,48.2,111.1s-17.6,82.4-48.2,111.1
	C317.8,274.9,316.3,275.4,314.8,275.4z"/>
<path class="st1" d="M115.2,275.4c-1.5,0-2.9-0.5-4.1-1.6c-30.6-28.6-48.2-69.1-48.2-111.1s17.6-82.4,48.2-111.1
	c2.4-2.3,6.2-2.1,8.5,0.3c2.3,2.4,2.1,6.2-0.3,8.5c-28.2,26.4-44.4,63.7-44.4,102.3c0,38.6,16.2,75.9,44.4,102.3
	c2.4,2.3,2.5,6.1,0.3,8.5C118.4,274.8,116.8,275.4,115.2,275.4z"/>
</svg>
