<?xml version="1.0" encoding="utf-8"?>
<!-- Generator: Adobe Illustrator 25.0.1, SVG Export Plug-In . SVG Version: 6.00 Build 0)  -->
<svg version="1.1" id="Layer_1" xmlns="http://www.w3.org/2000/svg" xmlns:xlink="http://www.w3.org/1999/xlink" x="0px" y="0px"
	 viewBox="0 0 430 430" style="enable-background:new 0 0 430 430;" xml:space="preserve">
<style type="text/css">
	.st0{fill:#08a88a;}
	.st1{fill:#121331;}
</style>
<g>
	<path class="st0" d="M292.9,173.8c-1,0-2-0.3-3-0.8l-75-42.5c-1.4-0.8-2.4-2.1-2.8-3.6c-0.4-1.5-0.2-3.2,0.6-4.6l40-70.6
		c1.6-2.9,5.3-3.9,8.2-2.3l75,42.5c2.9,1.6,3.9,5.3,2.3,8.2l-40,70.6c-0.8,1.4-2.1,2.4-3.6,2.8C294,173.8,293.4,173.8,292.9,173.8z
		 M226.1,123.1l64.5,36.5l34.1-60.1L260.2,63L226.1,123.1z"/>
	<path class="st1" d="M163.6,381.2c-12,0-24.1-3-35.3-9.3l0,0l-0.8-0.4C93.1,351.9,81,308,100.5,273.6l88.4-156
		c1.8-3.1,4.7-5.4,8.2-6.4c3.5-1,7.1-0.5,10.3,1.3l102.1,57.8c3.1,1.8,5.4,4.7,6.4,8.2c1,3.5,0.5,7.1-1.3,10.3l-88.4,156
		C213,368.1,188.6,381.2,163.6,381.2z M134.2,361.4c13.9,7.9,30,9.9,45.4,5.6c15.4-4.3,28.2-14.3,36.1-28.2l88.4-156
		c0.3-0.5,0.2-0.9,0.1-1.2c-0.1-0.3-0.3-0.7-0.7-0.9l-102.1-57.8c-0.5-0.3-0.9-0.2-1.2-0.1c-0.3,0.1-0.7,0.3-0.9,0.7l-88.4,156
		c-16.2,28.7-6.1,65.2,22.6,81.5L134.2,361.4z"/>
	<path class="st0" d="M278.1,112.5c-1,0-2-0.3-3-0.8c-2.9-1.6-3.9-5.3-2.3-8.2l17.3-30.5c1.6-2.9,5.3-3.9,8.2-2.3
		c2.9,1.6,3.9,5.3,2.3,8.2l-17.3,30.5C282.2,111.5,280.2,112.5,278.1,112.5z"/>
	<path class="st0" d="M160.6,342c-4.8,0-9.5-1.2-13.8-3.7c-13.5-7.6-18.2-24.8-10.6-38.3l0,0c7.6-13.5,24.8-18.2,38.3-10.6
		c13.5,7.6,18.2,24.8,10.6,38.3c-3.7,6.5-9.7,11.2-17,13.2C165.7,341.7,163.1,342,160.6,342z M160.7,297.8c-5.6,0-11.1,2.9-14,8.2
		l0,0c-4.4,7.7-1.7,17.6,6.1,22c3.7,2.1,8.1,2.7,12.2,1.5c4.1-1.1,7.6-3.8,9.7-7.6c4.4-7.7,1.7-17.6-6.1-22
		C166.1,298.4,163.4,297.8,160.7,297.8z M141.4,303L141.4,303L141.4,303z"/>
</g>
</svg>
