<?xml version="1.0" encoding="utf-8"?>
<!-- Generator: Adobe Illustrator 24.0.2, SVG Export Plug-In . SVG Version: 6.00 Build 0)  -->
<svg version="1.1" xmlns="http://www.w3.org/2000/svg" xmlns:xlink="http://www.w3.org/1999/xlink" x="0px" y="0px"
	 viewBox="0 0 24 24" style="enable-background:new 0 0 24 24;" xml:space="preserve">
<style type="text/css">
	.st0{fill:none;}
	.st1{display:none;}
	.st2{display:inline;}
	.st3{fill:none;stroke:#CECECE;stroke-width:0.1;stroke-miterlimit:10;}
	.st4{fill:#121331;}
</style>
<g id="bounding_box">
	<rect x="0" y="0" class="st0" width="24" height="24"/>
</g>
<g id="design">
	<path class="st4" d="M20.25,9H16V3.75C16,3.34,15.66,3,15.25,3H3.75C3.34,3,3,3.34,3,3.75v14C3,19.54,4.46,21,6.25,21h11.5
		c1.79,0,3.25-1.46,3.25-3.25v-8C21,9.34,20.66,9,20.25,9z M6.25,19.5c-0.96,0-1.75-0.79-1.75-1.75V4.5h10v13.25
		c0,0.64,0.19,1.24,0.51,1.75H6.25z M19.5,17.75c0,0.76-0.5,1.41-1.18,1.64c-0.18,0.08-0.37,0.11-0.57,0.11
		c-0.38,0-0.74-0.13-1.03-0.35c-0.44-0.31-0.72-0.82-0.72-1.4V10.5h3.5V17.75z"/>
	<path class="st4" d="M12.25,6h-5.5C6.34,6,6,6.34,6,6.75v3.5C6,10.66,6.34,11,6.75,11h5.5c0.41,0,0.75-0.34,0.75-0.75v-3.5
		C13,6.34,12.66,6,12.25,6z M11.5,9.5h-4v-2h4V9.5z"/>
	<path class="st4" d="M12.25,14h-5.5C6.34,14,6,13.66,6,13.25s0.34-0.75,0.75-0.75h5.5c0.41,0,0.75,0.34,0.75,0.75
		S12.66,14,12.25,14z"/>
	<path class="st4" d="M12.25,17.06h-5.5C6.34,17.06,6,16.73,6,16.31s0.34-0.75,0.75-0.75h5.5c0.41,0,0.75,0.34,0.75,0.75
		S12.66,17.06,12.25,17.06z"/>
</g>
</svg>
