<?xml version="1.0" encoding="utf-8"?>
<!-- Generator: Adobe Illustrator 24.1.2, SVG Export Plug-In . SVG Version: 6.00 Build 0)  -->
<svg version="1.1" id="Warstwa_3" xmlns="http://www.w3.org/2000/svg" xmlns:xlink="http://www.w3.org/1999/xlink" x="0px" y="0px"
	 viewBox="0 0 430 430" style="enable-background:new 0 0 430 430;" xml:space="preserve">
<style type="text/css">
	.st0{fill:#121331;}
	.st1{fill:#08a88a;}
	.st2{fill:none;stroke:#121331;stroke-width:12;stroke-linecap:round;stroke-linejoin:round;stroke-miterlimit:10;}
	.st3{fill:none;stroke:#08a88a;stroke-width:12;stroke-linecap:round;stroke-linejoin:round;stroke-miterlimit:10;}
	.st4{fill:#08a88a;}
</style>
<g>
	<path class="st1" d="M301.54,288.35h-30.26c-3.31,0-6-2.69-6-6v-45.38c0-3.31,2.69-6,6-6h30.26c3.31,0,6,2.69,6,6s-2.69,6-6,6
		h-24.26v10.69h12.48c3.31,0,6,2.69,6,6s-2.69,6-6,6h-12.48v10.69h24.26c3.31,0,6,2.69,6,6S304.86,288.35,301.54,288.35z
		 M250.79,288.34h-30.26c-3.31,0-6-2.69-6-6v-45.38c0-3.31,2.69-6,6-6h30.26c3.31,0,6,2.69,6,6s-2.69,6-6,6h-24.26v10.69h12.48
		c3.31,0,6,2.69,6,6s-2.69,6-6,6h-12.48v10.69h24.26c3.31,0,6,2.69,6,6S254.1,288.34,250.79,288.34z M170.29,288.34
		c-3.31,0-6-2.69-6-6v-45.38c0-3.31,2.69-6,6-6c0.51,0,1.01,0.06,1.48,0.18h13.98c10.7,0,19.41,8.13,19.41,18.13
		c0,4.87-2.16,9.61-5.91,13.01c-1.12,1.01-2.35,1.89-3.66,2.61l8.09,14.49c1.62,2.89,0.58,6.55-2.31,8.16
		c-2.89,1.62-6.55,0.58-8.16-2.31l-9.96-17.83h-6.95v14.93C176.29,285.66,173.6,288.34,170.29,288.34z M176.29,255.41h8.89
		c0.71-0.18,1.45-0.23,2.16-0.15c1.46-0.27,2.81-0.92,3.86-1.87c1.27-1.15,1.97-2.61,1.97-4.12c0-3.33-3.39-6.13-7.41-6.13h-9.46
		V255.41z M122.25,288.34c-3.31,0-6-2.69-6-6v-45.38c0-3.31,2.69-6,6-6h30.26c3.31,0,6,2.69,6,6s-2.69,6-6,6h-24.26v10.69h12.47
		c3.31,0,6,2.69,6,6s-2.69,6-6,6h-12.47v16.69C128.25,285.66,125.56,288.34,122.25,288.34z M211.19,211.56c-3.31,0-6-2.69-6-6
		v-50.09l-10.13,10.13c-2.34,2.34-6.14,2.34-8.49,0c-2.34-2.34-2.34-6.14,0-8.49l20.38-20.38c1.72-1.72,4.3-2.23,6.54-1.3
		c2.24,0.93,3.7,3.12,3.7,5.54v64.57C217.19,208.88,214.5,211.56,211.19,211.56z"/>
	<path class="st0" d="M215,400.48c-24.74,0-48.05-9.31-65.93-26.28c-24.64-0.64-47.71-10.54-65.22-28.05
		c-17.5-17.5-27.4-40.57-28.05-65.22c-16.96-17.89-26.27-41.2-26.27-65.93c0-24.73,9.31-48.04,26.27-65.92
		c0.65-24.65,10.55-47.72,28.05-65.22c17.51-17.51,40.58-27.41,65.22-28.05c17.88-16.96,41.2-26.28,65.93-26.28
		c24.75,0,48.06,9.31,65.95,26.28c24.65,0.65,47.72,10.55,65.21,28.05c17.5,17.5,27.4,40.57,28.05,65.22
		c16.96,17.89,26.27,41.2,26.27,65.92c0,24.73-9.31,48.04-26.27,65.93c-0.65,24.65-10.55,47.72-28.05,65.22
		c-17.5,17.5-40.57,27.4-65.21,28.05C263.06,391.17,239.74,400.48,215,400.48z M151.66,361.64c1.67,0,3.27,0.66,4.46,1.84
		c15.73,15.73,36.64,24.4,58.88,24.4c22.25,0,43.16-8.66,58.9-24.4c1.18-1.18,2.78-1.84,4.46-1.84c22.25,0,43.16-8.66,58.89-24.4
		c15.73-15.73,24.4-36.65,24.4-58.9c0-1.67,0.66-3.27,1.84-4.45c15.73-15.74,24.39-36.65,24.39-58.89
		c0-22.23-8.66-43.14-24.39-58.88c-1.18-1.18-1.84-2.78-1.84-4.45c0-22.25-8.67-43.17-24.4-58.9c-15.72-15.73-36.64-24.4-58.89-24.4
		c-1.67,0-3.27-0.66-4.46-1.84c-15.73-15.73-36.65-24.4-58.9-24.4c-22.24,0-43.15,8.66-58.88,24.4c-1.18,1.18-2.78,1.84-4.46,1.84
		c-0.01,0-0.03,0-0.04,0c-22.23,0-43.13,8.66-58.87,24.4c-15.73,15.73-24.4,36.65-24.4,58.9c0,1.67-0.66,3.27-1.84,4.45
		C50.79,171.86,42.13,192.76,42.13,215c0,22.24,8.66,43.15,24.39,58.89c1.18,1.18,1.84,2.78,1.84,4.45c0,22.25,8.66,43.17,24.4,58.9
		c15.73,15.73,36.64,24.4,58.87,24.4C151.63,361.64,151.65,361.64,151.66,361.64z"/>
	<path class="st0" d="M337.34,140.26c-2.49,0-4.85-1.49-5.84-3.94c-3.45-8.52-8.52-16.17-15.08-22.74
		c-11.95-11.96-27.83-19.05-44.7-19.98c-3.47-0.19-6.14-3.16-5.95-6.63c0.19-3.48,3.16-6.12,6.63-5.95
		c19.98,1.09,38.77,9.49,52.93,23.65c7.76,7.76,13.77,16.82,17.85,26.92c1.31,3.23-0.25,6.9-3.48,8.2
		C338.93,140.11,338.13,140.26,337.34,140.26z"/>
	<path class="st0" d="M342.8,168.38c-3.48,0-6.3-2.82-6.3-6.3c0-0.32,0-0.64-0.01-0.96c-0.06-3.48,2.72-6.35,6.19-6.4
		c0.04,0,0.07,0,0.11,0c3.43,0,6.24,2.75,6.3,6.2c0.01,0.39,0.01,0.78,0.01,1.17C349.1,165.56,346.28,168.38,342.8,168.38z"/>
</g>
</svg>
