<?xml version="1.0" encoding="utf-8"?>
<!-- Generator: Adobe Illustrator 24.1.2, SVG Export Plug-In . SVG Version: 6.00 Build 0)  -->
<svg version="1.1" id="Warstwa_3" xmlns="http://www.w3.org/2000/svg" xmlns:xlink="http://www.w3.org/1999/xlink" x="0px" y="0px"
	 viewBox="0 0 430 430" style="enable-background:new 0 0 430 430;" xml:space="preserve">
<style type="text/css">
	.st0{fill:#08a88a;}
	.st1{fill:#121331;}
	.st2{fill:#08a88a;}
	.st3{fill:none;}
	.st4{fill:none;stroke:#121331;stroke-width:12;stroke-linecap:round;stroke-linejoin:round;stroke-miterlimit:10;}
	.st5{fill:none;stroke:#08a88a;stroke-width:12;stroke-linecap:round;stroke-linejoin:round;stroke-miterlimit:10;}
	.st6{fill:none;stroke:#121331;stroke-width:16;stroke-linecap:round;stroke-linejoin:round;stroke-miterlimit:10;}
</style>
<g>
	<path class="st0" d="M385.95,88.85l-12.32-0.01c0,0,0,0,0,0l-8.44-0.01l0.01-21.08c0-3.31-2.68-6-6-6c0,0,0,0,0,0
		c-3.31,0-6,2.68-6,6l-0.01,21.08l-14.23-0.01l-13.17-0.01l0.01-21.08c0-3.31-2.68-6-6-6c0,0,0,0,0,0c-3.31,0-6,2.68-6,6
		l-0.01,21.08l-20.76-0.01c0,0,0,0,0,0c-3.31,0-6,2.68-6,6c0,3.31,2.68,6,6,6l6.32,0l-0.02,25.52c-0.01,20.1,14.82,36.8,34.12,39.71
		l-0.02,31.01c0,3.31,2.68,6,6,6c0,0,0,0,0,0c3.31,0,6-2.68,6-6l0.02-31.01c19.3-2.89,34.15-19.58,34.17-39.67l0.02-25.52l6.32,0
		c0,0,0,0,0,0c3.31,0,6-2.68,6-6C391.95,91.54,389.27,88.85,385.95,88.85z M367.63,100.84l-0.02,25.52
		c-0.01,15.51-12.63,28.13-28.14,28.13c0,0-0.01,0-0.02,0c-15.52-0.01-28.13-12.64-28.13-28.16l0.02-25.52l28.17,0.02L367.63,100.84
		z"/>
	<path class="st0" d="M396.66,300.6h-32.21c-12.64,0-22.92-10.28-22.92-22.92c0-6.13,2.38-11.89,6.71-16.21
		c4.33-4.33,10.09-6.72,16.21-6.72h14.85c3.31,0,6,2.69,6,6s-2.69,6-6,6h-14.85c-2.92,0-5.66,1.14-7.73,3.21
		c-2.06,2.06-3.19,4.8-3.19,7.73c0,6.02,4.9,10.92,10.92,10.92h32.21c3.31,0,6,2.69,6,6S399.98,300.6,396.66,300.6z"/>
	<path class="st0" d="M58.11,298.66H31.53c-3.31,0-6-2.69-6-6s2.69-6,6-6h26.57c3.31,0,6,2.69,6,6S61.42,298.66,58.11,298.66z"/>
	<path class="st1" d="M323.71,229.96h-8.28l-53.69-77c-3.99-5.96-11.26-9.91-19.45-10.74c-0.1-0.01-0.2-0.02-0.31-0.03
		c-0.97-0.09-1.95-0.14-2.94-0.14H124.52c-1.33,0-2.63,0.09-3.91,0.25c-0.37,0.02-0.73,0.06-1.08,0.15
		c-10.07,1.56-18.09,7.78-20.31,16.22l-21.85,71.68c-29.12,3.28-51.84,28.05-51.84,58.03v41.95c0,3.31,2.69,6,6,6h48.73
		c2.88,18.08,18.59,31.95,37.47,31.95c18.88,0,34.58-13.86,37.47-31.94h118.13c2.89,18.08,18.59,31.94,37.47,31.94
		c18.88,0,34.58-13.87,37.47-31.95h50.2c3.31,0,6-2.69,6-6v-19.61C404.47,266.18,368.24,229.96,323.71,229.96z M251.78,159.66
		c0.02,0.04,0.05,0.07,0.07,0.11l48.94,70.18h-53.22v-73.91C249.35,156.98,250.81,158.21,251.78,159.66z M126.89,154.05h108.68v75.9
		H126.89V154.05z M110.73,162.04c0.03-0.09,0.05-0.18,0.08-0.27c0.51-1.99,1.99-3.75,4.08-5.09v73.27H90.03L110.73,162.04z
		 M143.68,330.57c-0.14,14.19-11.72,25.7-25.94,25.7c-14.27,0-25.88-11.58-25.94-25.83c0-0.04,0.01-0.08,0.01-0.12
		c0-0.04-0.01-0.08-0.01-0.12c0.06-14.25,11.68-25.83,25.94-25.83c14.23,0,25.81,11.51,25.94,25.71c0,0.08-0.01,0.16-0.01,0.25
		C143.67,330.41,143.67,330.49,143.68,330.57z M310.8,356.27c-14.29,0-25.91-11.61-25.95-25.89c0-0.02,0-0.03,0-0.05
		c0-0.02,0-0.04,0-0.05c0.02-14.29,11.65-25.9,25.95-25.9c14.3,0,25.94,11.64,25.95,25.94c0,0,0,0,0,0.01c0,0,0,0,0,0.01
		C336.75,344.63,325.11,356.27,310.8,356.27z M392.47,324.32h-44.2c-2.89-18.08-18.59-31.95-37.47-31.95
		c-18.89,0-34.59,13.87-37.47,31.96H155.21c-2.88-18.09-18.58-31.96-37.47-31.96c-18.88,0-34.58,13.86-37.47,31.95H37.53v-35.95
		c0-25.59,20.82-46.41,46.41-46.41h239.76c37.92,0,68.76,30.84,68.76,68.75V324.32z"/>
	<path class="st1" d="M219.56,279.83h-22.45c-3.31,0-6-2.69-6-6s2.69-6,6-6h22.45c3.31,0,6,2.69,6,6S222.87,279.83,219.56,279.83z"
		/>
	<path class="st1" d="M117.74,336.32h-0.01c-3.31,0-6-2.69-6-6s2.69-6,6-6s6.01,2.69,6.01,6S121.06,336.32,117.74,336.32z"/>
	<path class="st1" d="M310.81,336.32h-0.01c-3.31,0-6-2.69-6-6s2.69-6,6-6s6.01,2.69,6.01,6S314.12,336.32,310.81,336.32z"/>
</g>
</svg>
