<?xml version="1.0" encoding="utf-8"?>
<!-- Generator: Adobe Illustrator 24.1.2, SVG Export Plug-In . SVG Version: 6.00 Build 0)  -->
<svg version="1.1" id="Warstwa_3" xmlns="http://www.w3.org/2000/svg" xmlns:xlink="http://www.w3.org/1999/xlink" x="0px" y="0px"
	 viewBox="0 0 430 430" style="enable-background:new 0 0 430 430;" xml:space="preserve">
<style type="text/css">
	.st0{fill:#08a88a;}
	.st1{fill:#121331;}
	.st2{fill:#08a88a;}
	.st3{fill:none;}
	.st4{fill:none;stroke:#121331;stroke-width:12;stroke-linecap:round;stroke-linejoin:round;stroke-miterlimit:10;}
	.st5{fill:none;stroke:#08a88a;stroke-width:12;stroke-linecap:round;stroke-linejoin:round;stroke-miterlimit:10;}
	.st6{fill:none;stroke:#121331;stroke-width:16;stroke-linecap:round;stroke-linejoin:round;stroke-miterlimit:10;}
</style>
<g>
	<path class="st1" d="M336.05,294.34c-1.62,0-3.22,0.1-4.79,0.28l-41.76-190.09c-0.62-2.84,0.06-5.77,1.89-8.04
		c1.82-2.27,4.54-3.57,7.44-3.57h27.92c3.31,0,6-2.69,6-6s-2.69-6-6-6h-27.92c-6.56,0-12.68,2.93-16.8,8.05
		c-4.11,5.11-5.66,11.72-4.25,18.13l31.68,144.19l-38.76,61.71H128.66c-7.46-11.24-20.23-18.67-34.71-18.67
		c-22.96,0-41.63,18.68-41.63,41.63S71,377.61,93.95,377.61c14.85,0,27.91-7.83,35.28-19.57h115.36c9.39,0,17.99-5.13,22.42-13.4
		l12.16-22.58l33.95-54.05l6.52,29.7c-14.82,6.38-25.23,21.13-25.23,38.26c0,22.96,18.68,41.63,41.63,41.63s41.63-18.68,41.63-41.63
		S359,294.34,336.05,294.34z M93.95,365.61c-16.34,0-29.63-13.29-29.63-29.63s13.29-29.63,29.63-29.63
		c14.28,0,26.24,10.16,29.02,23.63H93.95c-3.31,0-6,2.69-6,6s2.69,6,6,6h29.02C120.2,355.45,108.24,365.61,93.95,365.61z
		 M256.44,338.96c-2.35,4.37-6.89,7.08-11.85,7.08H134.35c0.8-3.23,1.24-6.6,1.24-10.07c0-3.79-0.52-7.47-1.47-10.96h129.84
		L256.44,338.96z M336.05,365.61c-16.34,0-29.63-13.29-29.63-29.63c0-11.38,6.45-21.27,15.88-26.23l6.05,27.52
		c0.62,2.8,3.1,4.71,5.85,4.71c0.43,0,0.86-0.05,1.29-0.14c3.24-0.71,5.28-3.91,4.57-7.15l-6.21-28.26c0.73-0.05,1.46-0.09,2.2-0.09
		c16.34,0,29.63,13.29,29.63,29.63S352.39,365.61,336.05,365.61z"/>
	<g>
		<path class="st0" d="M110.64,154.49c-1.78,0-3.55-0.79-4.73-2.3c-2.04-2.61-1.58-6.38,1.03-8.42c8.29-6.48,18.25-9.91,28.8-9.91
			c10.55,0,20.51,3.43,28.8,9.91c2.61,2.04,3.07,5.81,1.03,8.42s-5.81,3.07-8.42,1.03c-6.16-4.82-13.56-7.36-21.4-7.36
			s-15.25,2.54-21.41,7.36C113.23,154.08,111.93,154.49,110.64,154.49z"/>
		<path class="st0" d="M85.57,122.4c-1.78,0-3.55-0.79-4.73-2.3c-2.04-2.61-1.58-6.38,1.03-8.42c15.5-12.13,34.13-18.55,53.87-18.55
			c19.74,0,38.37,6.41,53.87,18.55c2.61,2.04,3.07,5.81,1.03,8.42s-5.81,3.07-8.42,1.03c-13.37-10.47-29.44-16-46.48-16
			c-17.03,0-33.1,5.53-46.48,16C88.16,121.99,86.86,122.4,85.57,122.4z"/>
		<path class="st0" d="M210.99,90.29c-1.29,0-2.6-0.42-3.69-1.27c-20.59-16.11-45.34-24.62-71.56-24.62
			c-26.22,0-50.97,8.51-71.56,24.62c-2.61,2.04-6.38,1.58-8.42-1.03c-2.04-2.61-1.58-6.38,1.03-8.42
			c22.72-17.78,50.02-27.17,78.95-27.17c28.93,0,56.23,9.4,78.95,27.17c2.61,2.04,3.07,5.81,1.03,8.42
			C214.54,89.5,212.77,90.29,210.99,90.29z"/>
		<path class="st0" d="M135.89,186.89h-0.3c-3.31,0-6-2.69-6-6s2.69-6,6-6h0.3c3.31,0,6,2.69,6,6S139.2,186.89,135.89,186.89z"/>
	</g>
</g>
</svg>
