<?xml version="1.0" encoding="utf-8"?>
<!-- Generator: Adobe Illustrator 24.1.2, SVG Export Plug-In . SVG Version: 6.00 Build 0)  -->
<svg version="1.1" id="Warstwa_3" xmlns="http://www.w3.org/2000/svg" xmlns:xlink="http://www.w3.org/1999/xlink" x="0px" y="0px"
	 viewBox="0 0 430 430" style="enable-background:new 0 0 430 430;" xml:space="preserve">
<style type="text/css">
	.st0{fill:#121331;}
	.st1{fill:#08a88a;}
	.st2{fill:none;stroke:#121331;stroke-width:12;stroke-linecap:round;stroke-linejoin:round;stroke-miterlimit:10;}
	.st3{fill:#08a88a;}
</style>
<g>
	<path class="st1" d="M131.16,183.99c-1.04,0-2.09-0.27-3.05-0.84l-76.34-45.26c-2.85-1.69-3.79-5.37-2.1-8.22
		c1.69-2.85,5.37-3.79,8.22-2.1l76.34,45.26c2.85,1.69,3.79,5.37,2.1,8.22C135.2,182.94,133.21,183.99,131.16,183.99z"/>
	<path class="st0" d="M147.37,121.62c-12.99,0-24.48-9.4-26.67-22.62l-2.94-17.72c-1.18-7.1,0.49-14.26,4.71-20.15
		c4.21-5.89,10.45-9.78,17.55-10.96l5.52-0.92c14.71-2.44,28.67,7.54,31.12,22.26l5.36,32.27c1.11,6.69-3.43,13.03-10.12,14.14
		l-20.08,3.33C150.32,121.5,148.83,121.62,147.37,121.62z M149.98,60.88c-0.82,0-1.64,0.07-2.47,0.2L141.98,62
		c-3.94,0.65-7.41,2.82-9.76,6.11s-3.28,7.26-2.63,11.21l2.94,17.72c1.36,8.19,9.13,13.74,17.31,12.38l0,0l20.08-3.33
		c0.15-0.02,0.27-0.19,0.24-0.34l-5.36-32.27C163.6,66.11,157.2,60.88,149.98,60.88z"/>
	<path class="st0" d="M279.81,381.15c-2.64,0-5.02-1.74-5.76-4.35l-26.33-92.2l-69.14,11.68c-8.79,1.49-17.63-0.55-24.89-5.72
		c-7.26-5.18-12.06-12.87-13.52-21.66l-14.88-89.65l0,0c-3.48-20.95,10.74-40.83,31.69-44.31c10.15-1.68,20.35,0.68,28.72,6.67
		c8.37,5.99,13.9,14.87,15.59,25.02l11.62,70l46.75-7.54c14.94-2.4,29.26,7.25,32.64,21.99l22.9,88.52
		c11.25,3.71,25.92,12.78,22.9,28.02c-0.49,2.45-2.44,4.34-4.9,4.75l-52.39,8.7C280.47,381.13,280.14,381.15,279.81,381.15z
		 M252.01,271.79c2.64,0,5.02,1.74,5.76,4.35l26.34,92.21l41.88-6.95c-2.79-7.31-17.05-11.14-17.22-11.18
		c-2.12-0.54-3.8-2.19-4.35-4.32L280.65,254c-0.02-0.06-0.03-0.12-0.04-0.18c-1.95-8.62-10.32-14.28-19.05-12.88l-52.57,8.48
		c-0.02,0-0.11,0.02-0.13,0.02c-3.24,0.49-6.27-1.72-6.81-4.95l-12.6-75.89c-1.16-6.99-4.97-13.1-10.73-17.23
		c-5.76-4.12-12.78-5.75-19.77-4.59c-14.42,2.39-24.21,16.08-21.82,30.5l14.88,89.65c0.93,5.63,4,10.55,8.65,13.86
		c4.64,3.31,10.3,4.61,15.92,3.66l74.43-12.58C251.35,271.82,251.68,271.79,252.01,271.79z"/>
	<path class="st1" d="M54.83,354.19c-1.92,0-3.8-0.91-4.96-2.62c-1.87-2.74-1.17-6.47,1.57-8.34l167.92-114.76
		c2.74-1.87,6.47-1.17,8.34,1.57s1.17,6.47-1.57,8.34L58.21,353.14C57.18,353.85,56,354.19,54.83,354.19z"/>
	<path class="st1" d="M308.86,193.48c-39.88,0-72.32-32.44-72.32-72.32c0-39.88,32.44-72.32,72.32-72.32s72.32,32.44,72.32,72.32
		C381.17,161.04,348.73,193.48,308.86,193.48z M308.86,60.85c-33.26,0-60.32,27.06-60.32,60.32c0,33.26,27.06,60.32,60.32,60.32
		s60.32-27.06,60.32-60.32C369.17,87.91,342.12,60.85,308.86,60.85z"/>
</g>
</svg>
