<?xml version="1.0" encoding="utf-8"?>
<!-- Generator: Adobe Illustrator 24.1.2, SVG Export Plug-In . SVG Version: 6.00 Build 0)  -->
<svg version="1.1" id="Warstwa_3" xmlns="http://www.w3.org/2000/svg" xmlns:xlink="http://www.w3.org/1999/xlink" x="0px" y="0px"
	 viewBox="0 0 430 430" style="enable-background:new 0 0 430 430;" xml:space="preserve">
<style type="text/css">
	.st0{fill:#121331;}
	.st1{fill:#08a88a;}
	.st2{fill:none;stroke:#121331;stroke-width:12;stroke-linecap:round;stroke-linejoin:round;stroke-miterlimit:10;}
	.st3{fill:#08a88a;}
</style>
<g>
	<g>
		<path class="st1" d="M136.29,199.47c-1.54,0-3.07-0.59-4.24-1.76l-72.88-72.88c-2.34-2.34-2.34-6.14,0-8.49
			c2.34-2.34,6.14-2.34,8.49,0l72.88,72.88c2.34,2.34,2.34,6.14,0,8.49C139.36,198.88,137.83,199.47,136.29,199.47z"/>
		<path class="st1" d="M210.62,199.47c-1.54,0-3.07-0.59-4.24-1.76l-72.88-72.88c-2.34-2.34-2.34-6.14,0-8.49
			c2.34-2.34,6.14-2.34,8.49,0l72.88,72.88c2.34,2.34,2.34,6.14,0,8.49C213.69,198.88,212.16,199.47,210.62,199.47z"/>
		<path class="st1" d="M284.94,199.47c-1.54,0-3.07-0.59-4.24-1.76l-72.88-72.88c-2.34-2.34-2.34-6.14,0-8.49
			c2.34-2.34,6.14-2.34,8.49,0l72.88,72.88c2.34,2.34,2.34,6.14,0,8.49C288.01,198.88,286.48,199.47,284.94,199.47z"/>
		<path class="st1" d="M359.27,199.47c-1.54,0-3.07-0.59-4.24-1.76l-72.88-72.88c-2.34-2.34-2.34-6.14,0-8.49
			c2.34-2.34,6.14-2.34,8.49,0l72.88,72.88c2.34,2.34,2.34,6.14,0,8.49C362.34,198.88,360.81,199.47,359.27,199.47z"/>
	</g>
	<path class="st0" d="M375.12,114.6h-51.87v-29c0-3.31-2.69-6-6-6s-6,2.69-6,6v29h-192.5v-29c0-3.31-2.69-6-6-6s-6,2.69-6,6v29
		H54.88c-3.31,0-6,2.69-6,6v72.88c0,3.31,2.69,6,6,6h45.21l-13.27,77.01c0,0,0,0,0,0l-10.67,61.92H57.22c-3.31,0-6,2.69-6,6
		s2.69,6,6,6H81.2c0,0,0.01,0,0.01,0c0,0,0.01,0,0.01,0h24.69c3.31,0,6-2.69,6-6s-2.69-6-6-6H88.33l9.43-54.72h234.49l9.43,54.72
		h-17.59c-3.31,0-6,2.69-6,6s2.69,6,6,6h24.69c0,0,0.01,0,0.01,0c0,0,0.01,0,0.01,0h23.99c3.31,0,6-2.69,6-6s-2.69-6-6-6h-18.94
		l-10.67-61.92c0,0,0,0,0,0l-13.27-77.01h45.21c3.31,0,6-2.69,6-6V120.6C381.12,117.28,378.43,114.6,375.12,114.6z M330.18,271.69
		H99.82l12.44-72.22h205.47L330.18,271.69z M369.12,187.47H60.88V126.6h51.8c0.02,0,0.04,0,0.07,0s0.04,0,0.07,0h256.3V187.47z"/>
</g>
</svg>
