<?xml version="1.0" encoding="utf-8"?>
<!-- Generator: Adobe Illustrator 24.1.2, SVG Export Plug-In . SVG Version: 6.00 Build 0)  -->
<svg version="1.1" id="Warstwa_3" xmlns="http://www.w3.org/2000/svg" xmlns:xlink="http://www.w3.org/1999/xlink" x="0px" y="0px"
	 viewBox="0 0 430 430" style="enable-background:new 0 0 430 430;" xml:space="preserve">
<style type="text/css">
	.st0{fill:#121331;}
	.st1{fill:#08a88a;}
	.st2{fill:none;stroke:#121331;stroke-width:12;stroke-linecap:round;stroke-linejoin:round;stroke-miterlimit:10;}
	.st3{fill:#08a88a;}
</style>
<g>
	<path class="st1" d="M153.46,183.32h-9.94c-17.45,0-31.65-14.2-31.65-31.65v-41.33c0-17.45,14.2-31.65,31.65-31.65h12.66
		c3.31,0,6,2.69,6,6s-2.69,6-6,6h-12.66c-10.83,0-19.65,8.82-19.65,19.65v41.33c0,10.83,8.81,19.65,19.65,19.65h9.94
		c3.31,0,6,2.69,6,6S156.77,183.32,153.46,183.32z"/>
	<path class="st1" d="M261.69,183.32h-0.24c-3.31,0-6-2.69-6-6s2.69-6,6-6h0.24c10.83,0,19.65-8.82,19.65-19.65v-41.33
		c0-5.53-2.38-10.86-6.54-14.6c-2.46-2.22-2.66-6.01-0.44-8.47c2.22-2.46,6.01-2.66,8.47-0.44c6.67,6.02,10.5,14.59,10.5,23.51
		v41.33C293.34,169.12,279.14,183.32,261.69,183.32z"/>
	<path class="st1" d="M107.11,228.4c-1.59,0-3.19-0.63-4.37-1.88c-2.27-2.41-2.16-6.21,0.25-8.48c9.92-9.35,23.73-14.5,38.91-14.5
		h21.59c3.31,0,6,2.69,6,6s-2.69,6-6,6H141.9c-12.27,0-22.88,3.88-30.67,11.23C110.07,227.85,108.59,228.4,107.11,228.4z"/>
	<path class="st1" d="M92,381.84c-3.31,0-6-2.69-6-6V261.45c0-3.4,0.21-6.72,0.63-9.89c0.35-2.98,2.88-5.3,5.96-5.3
		c3.31,0,6,2.68,6,6v0.01c0,0.27-0.02,0.53-0.05,0.79c-0.36,2.67-0.54,5.49-0.54,8.39v114.39C98,379.15,95.31,381.84,92,381.84z"/>
	<path class="st1" d="M313.22,383.45c-3.31,0-6-2.69-6-6v-13.46c0-3.31,2.69-6,6-6s6,2.69,6,6v13.46
		C319.22,380.76,316.53,383.45,313.22,383.45z"/>
	<path class="st1" d="M313.22,336.57c-3.31,0-6-2.69-6-6v-69.12c0-27.9-17.23-45.92-43.9-45.92h-13.95c-3.31,0-6-2.69-6-6
		s2.69-6,6-6h13.95c33.44,0,55.9,23.28,55.9,57.92v69.12C319.22,333.88,316.53,336.57,313.22,336.57z"/>
	<path class="st0" d="M313.22,383.47c-3.31,0-6-2.67-6-5.98v-13.5c0-3.31,2.69-6,6-6s6,2.69,6,6v13.46
		C319.22,380.76,316.53,383.47,313.22,383.47z"/>
	<path class="st0" d="M250.77,347.67h-0.01c-3.31,0-6-2.69-6-6s2.69-6,6-6s6,2.69,6,6S254.08,347.67,250.77,347.67z"/>
	<path class="st0" d="M363.82,337.33c-0.18-0.03-17.61-3.21-44.6-11.23v-16.14c0-43.96-35.77-79.73-79.74-79.73h-0.77v-2.4
		c6.02-3.95,11.35-9.01,15.52-14.8c4.29-5.94,7.4-12.57,9.25-19.71l7.67-29.55c17.61-17.1,21.87-53.33,15.87-69.32
		c-0.81-2.16-1.85-4.28-3.08-6.3c-6.42-10.57-16.55-15.99-16.98-16.21c-0.05-0.03-0.1-0.05-0.15-0.08c-19.38-9.54-41.6-7-53.12-4.64
		c-2.29,0.47-4.67-0.31-6.22-2.02l-11.54-12.86c-3.14-3.62-7.51-5.76-12.3-6.04c-4.82-0.29-9.42,1.38-12.96,4.65
		c-4.64,4.29-13.3,13.73-19.1,28.76c-0.44,1.16-0.81,2.18-1.1,3.09c-7.85,23.9,0.82,45.22,4.12,51.99l-6.13,32.91
		c-0.59,3.16-0.92,6.34-1,9.45c0,0.05,0,0.1,0,0.15l-0.01,1.25c0,12.44,3.87,24.36,11.17,34.47c2.32,3.21,4.97,6.18,7.9,8.86v8.34
		h-0.78c-10.77,0-21.17,2.1-30.97,6.24c-8.22-6.05-16.23-12.32-23.8-18.68c-24.35-20.43-45.78-42.86-63.71-66.66
		c-1.55-2.06-4.25-2.9-6.7-2.08c-2.45,0.82-4.1,3.11-4.1,5.69v48.88c0,1.41,0.5,2.78,1.41,3.86c14.37,17.07,31.43,33.63,50.72,49.25
		c0.08,0.07,0.15,0.13,0.23,0.2c3.52,2.85,7.14,5.67,10.81,8.45C90.7,278.55,86,293.84,86,309.97v67.52c0,3.31,2.69,6,6,6
		s6-2.69,6-6v-67.52c0-13.53,3.88-26.36,11.28-37.44c14.72,10.61,30.74,20.93,47.75,30.71c0.94,0.54,1.97,0.8,2.99,0.8
		c2.08,0,4.1-1.08,5.21-3.01c1.65-2.87,0.66-6.54-2.21-8.19c-18.5-10.64-35.82-21.91-51.48-33.5c-5.07-3.75-10.1-7.63-14.95-11.54
		c-0.07-0.07-0.15-0.13-0.23-0.19c-18.16-14.68-34.27-30.2-47.9-46.16v-29.4c16.08,19.46,34.46,37.9,54.79,54.96
		c8.64,7.26,17.81,14.41,27.25,21.26c22.11,16.02,46.41,30.86,72.21,44.11c2.95,1.52,6.56,0.35,8.08-2.6s0.35-6.56-2.6-8.08
		c-21.76-11.18-42.4-23.5-61.53-36.71c6.15-1.81,12.53-2.73,19.08-2.73h1.34c2.98,16.92,17.77,29.81,35.53,29.81
		c17.76,0,32.56-12.89,35.54-29.81h1.33c37.35,0,67.74,30.38,67.74,67.73v12.44c-13.07-4.17-26.14-8.78-38.96-13.76
		c-3.09-1.2-6.57,0.33-7.77,3.42c-1.2,3.09,0.33,6.57,3.42,7.77c15.6,6.07,31.57,11.6,47.48,16.46c0.02,0.01,0.05,0.02,0.07,0.02
		c21.63,6.59,37.65,10.26,45.29,11.85v21.96c-8.2-2.04-22.91-5.93-41.74-11.85c-8.4-2.64-16.8-5.43-24.97-8.28
		c-3.13-1.09-6.55,0.56-7.64,3.69c-1.09,3.13,0.56,6.55,3.69,7.64c8.28,2.89,16.81,5.72,25.33,8.4c30.16,9.49,50,13.86,50.17,13.89
		c0.39,0.08,0.78,0.12,1.17,0.12c1.38,0,2.72-0.47,3.81-1.36c1.39-1.14,2.19-2.84,2.19-4.64v-34.48
		C368.76,340.33,366.68,337.85,363.82,337.33z M161.9,86.51c0.24-0.74,0.53-1.56,0.88-2.49c3.6-9.31,9.44-18.15,16.04-24.25
		c1.13-1.04,2.59-1.58,4.14-1.48c1.54,0.09,2.93,0.78,3.94,1.94c0.03,0.03,0.05,0.06,0.08,0.09l11.59,12.91
		c4.39,4.87,11.11,7.08,17.55,5.75c9.99-2.04,29.14-4.29,45.3,3.6c0.72,0.4,7.85,4.51,12.29,11.82c0.85,1.38,1.55,2.82,2.09,4.27
		c3.59,9.56,2.22,28.96-4.4,43.69c-0.53-13.39-3.5-28.64-20.92-48.01c-1.14-1.27-2.76-1.99-4.46-1.99c-0.11,0-0.22,0-0.33,0.01
		c-1.81,0.1-3.49,1.02-4.54,2.5c-18.27,25.5-46.56,38-76.18,33.81C162.06,122.49,155.66,105.51,161.9,86.51z M159.45,178.57
		l0.01-1.14c0.06-2.47,0.33-5,0.8-7.52l5.42-29.05c30.41,3.43,60.28-8.82,80.52-32.95c13.24,16.96,13.28,29.36,13.32,42.41
		c0.01,3.14,0.03,6.39,0.23,9.68l-7.87,30.32c-1.47,5.69-3.95,10.97-7.37,15.7c-3.87,5.37-8.98,9.96-14.77,13.27
		c-10.17,5.81-22.07,7.61-33.52,5.06c-7.24-1.61-13.78-4.79-19.45-9.44c-0.23-0.23-0.48-0.43-0.74-0.62
		c-2.88-2.45-5.46-5.23-7.67-8.28C162.53,197.95,159.45,188.46,159.45,178.57z M226.71,236.13c0,0.04-0.01,0.07-0.01,0.11
		c0,0.01,0,0.02,0,0.04c-0.17,13.14-10.91,23.78-24.09,23.78c-13.17,0-23.91-10.63-24.08-23.76c0-0.02,0-0.03,0-0.05
		c0-0.05-0.01-0.1-0.01-0.15c0-0.04,0-0.09,0-0.13v-5.53c4.73,2.54,9.81,4.46,15.09,5.64c4.26,0.95,8.57,1.42,12.86,1.42
		c6.9,0,13.75-1.22,20.24-3.6v2.08C226.71,236.02,226.71,236.07,226.71,236.13z"/>
	<g>
		<path class="st1" d="M290.05,383.49c-0.07,0-0.13,0-0.2,0c-3.31-0.11-5.91-2.88-5.8-6.19c0.03-0.95,0.05-1.89,0.05-2.84
			c0-44.93-36.55-81.48-81.48-81.48s-81.48,36.55-81.48,81.48c0,0.96,0.02,1.9,0.05,2.84c0.11,3.31-2.49,6.08-5.8,6.19
			c-3.31,0.06-6.08-2.49-6.19-5.8c-0.03-1.07-0.06-2.15-0.06-3.23c0-51.54,41.94-93.48,93.48-93.48s93.48,41.94,93.48,93.48
			c0,1.09-0.02,2.16-0.06,3.23C295.94,380.93,293.27,383.49,290.05,383.49z"/>
	</g>
	<path class="st1" d="M219.09,312.41c-10.7-2.83-22.22-2.83-32.95,0c-28.18,7.45-47.86,33.02-47.86,62.2c0,1.15,0.03,2.2,0.09,3.22
		c0.19,3.31,3.02,5.84,6.33,5.65c3.31-0.19,5.84-3.02,5.65-6.33c-0.04-0.79-0.07-1.62-0.07-2.54c0-20.21,11.61-38.29,29.21-46.95
		l5.04,50.42c0.31,3.09,2.92,5.4,5.96,5.4c0.2,0,0.4-0.01,0.6-0.03c3.3-0.33,5.7-3.27,5.37-6.57l-5.33-53.32
		c7.52-1.68,15.44-1.68,22.95,0l-5.33,53.32c-0.33,3.3,2.08,6.24,5.37,6.57c0.2,0.02,0.4,0.03,0.6,0.03c3.04,0,5.65-2.31,5.96-5.4
		l5.04-50.43c17.6,8.66,29.21,26.74,29.21,46.96c0,0.92-0.02,1.75-0.07,2.54c-0.19,3.31,2.34,6.14,5.65,6.33
		c0.12,0.01,0.23,0.01,0.35,0.01c3.16,0,5.8-2.47,5.98-5.66c0.06-1.02,0.09-2.07,0.09-3.22
		C266.94,345.42,247.26,319.84,219.09,312.41z"/>
	<path class="st0" d="M337.1,191.58h-23.74c-2.43,0-4.61-1.46-5.54-3.7s-0.42-4.82,1.3-6.54l13.5-13.5h-9.25c-3.31,0-6-2.69-6-6
		s2.69-6,6-6h23.74c2.43,0,4.61,1.46,5.54,3.7s0.42,4.82-1.3,6.54l-13.5,13.5h9.25c3.31,0,6,2.69,6,6S340.41,191.58,337.1,191.58z"
		/>
	<path class="st0" d="M387.54,164.39H363.8c-2.43,0-4.61-1.46-5.54-3.7s-0.42-4.82,1.3-6.54l13.5-13.5h-9.25c-3.31,0-6-2.69-6-6
		s2.69-6,6-6h23.74c2.43,0,4.61,1.46,5.54,3.7s0.42,4.82-1.3,6.54l-13.5,13.5h9.25c3.31,0,6,2.69,6,6S390.85,164.39,387.54,164.39z"
		/>
</g>
</svg>
