<?xml version="1.0" encoding="utf-8"?>
<!-- Generator: Adobe Illustrator 24.1.2, SVG Export Plug-In . SVG Version: 6.00 Build 0)  -->
<svg version="1.1" id="Warstwa_3" xmlns="http://www.w3.org/2000/svg" xmlns:xlink="http://www.w3.org/1999/xlink" x="0px" y="0px"
	 viewBox="0 0 430 430" style="enable-background:new 0 0 430 430;" xml:space="preserve">
<style type="text/css">
	.st0{fill:#121331;}
	.st1{fill:#08a88a;}
	.st2{fill:none;stroke:#121331;stroke-width:12;stroke-linecap:round;stroke-linejoin:round;stroke-miterlimit:10;}
	.st3{fill:#08a88a;}
</style>
<g>
	<g>
		<path class="st0" d="M235.63,328.01H119.25c-3.31,0-6-2.69-6-6s2.69-6,6-6h116.38c3.31,0,6,2.69,6,6S238.94,328.01,235.63,328.01z
			"/>
		<path class="st0" d="M298.74,61.68h-179.5c-3.31,0-6-2.69-6-6s2.69-6,6-6h179.5c3.31,0,6,2.69,6,6S302.06,61.68,298.74,61.68z"/>
		<path class="st0" d="M235.63,328.01H104.21c-3.31,0-6-2.69-6-6s2.69-6,6-6h131.42c3.31,0,6,2.69,6,6S238.94,328.01,235.63,328.01z
			"/>
	</g>
	<g>
		<path class="st0" d="M344.63,244.81c-3.17-20.28-9.15-40.8-16.85-57.8c-7.53-16.26-14.97-25.57-23.03-28.68V85.24
			c9.6-0.25,17.34-8.11,17.34-17.77c0-9.81-7.98-17.79-17.79-17.79H110.67c-9.81,0-17.79,7.98-17.79,17.79s7.98,17.79,17.79,17.79
			h2.58v86h-2.58c-9.81,0-17.79,7.98-17.79,17.79c0,4.74,1.85,9.2,5.22,12.59c3.37,3.35,7.83,5.2,12.57,5.2h2.58v57.61
			c-1.28,0.7-2.29,1.85-2.79,3.3l-16.59,48.26H66.82c-2.56,0-4.84,1.63-5.67,4.05l-17.98,52.31c-0.63,1.83-0.34,3.86,0.79,5.44
			s2.95,2.51,4.88,2.51h98.62h98.62c1.94,0,3.76-0.94,4.88-2.51s1.42-3.6,0.79-5.44l-17.98-52.31c-0.83-2.42-3.11-4.05-5.67-4.05
			h-27.05l-16.59-48.26c-0.83-2.42-3.11-4.05-5.67-4.05h-53.54v-56.86h136.26c-4.23,12.79-7.49,26.47-9.49,40.06
			c-0.48,3.28,1.78,6.33,5.06,6.81c0.3,0.04,0.59,0.06,0.88,0.06c2.93,0,5.49-2.15,5.93-5.13c2.31-15.67,6.35-31.47,11.69-45.69
			c1.42-3.77,2.94-7.46,4.5-10.91c2.09-4.51,4.16-8.41,6.15-11.61c4.49-7.21,8.81-11.22,12.19-11.29c0.06,0,0.12,0.01,0.18,0.01
			c2.34,0.06,8.81,2.4,18.27,22.85c7.25,16,12.9,35.42,15.91,54.66c0.51,3.27,3.58,5.52,6.85,5
			C342.91,251.15,345.15,248.08,344.63,244.81z M110.67,73.27c-3.19,0-5.79-2.6-5.79-5.79s2.6-5.79,5.79-5.79h193.62
			c3.19,0,5.79,2.6,5.79,5.79s-2.6,5.79-5.79,5.79h-5.5c-0.01,0-0.03,0-0.04,0s-0.03,0-0.04,0H110.67z M57.25,368.32l13.86-40.31
			h27.05h27.05l13.86,40.31H57.25z M137.88,328.01h19.15l-9.57,27.85L137.88,328.01z M223.81,328.01l13.86,40.31h-81.8l13.86-40.31
			h27.05H223.81z M174.5,275.7l13.86,40.31h-22.92h-35.96h-22.92l13.86-40.31H174.5z M110.67,194.84c-1.55,0-3-0.6-4.09-1.68
			c-1.1-1.1-1.7-2.56-1.7-4.11c0-3.19,2.6-5.79,5.79-5.79h160.32c-0.6,1.21-1.2,2.47-1.81,3.79c-1.14,2.52-2.24,5.13-3.3,7.79
			H110.67z M277.9,171.26H125.24v-86h167.5v72.88C287.59,159.97,282.69,164.32,277.9,171.26z"/>
		<path class="st0" d="M298.05,355.18L298.05,355.18c-3.32,0-6.01-2.69-6.01-6s2.68-6,5.99-6s6.01,2.69,6.01,6
			S301.36,355.18,298.05,355.18z"/>
		<path class="st3" d="M386.76,221.99c-0.89-2.32-3.11-3.86-5.6-3.86c-0.03,0-0.06,0-0.1,0c-18.74,0-34.41,6.28-43,17.23
			c-8.46,10.78-9.97,24.69-11.29,36.97c-0.23,2.17-0.47,4.3-0.73,6.39c-2.76,21.61-4.52,29.13-6.45,34.26
			c-0.29,0.78-1.13,2.9-2.55,5.72c-4.37,8.69-10.78,16.42-19.07,23.03c-8.24-6.32-14.61-13.83-18.95-22.35
			c-1.38-2.7-2.2-4.74-2.57-5.71c-1.95-5.16-3.63-12.41-6.42-34.24c-0.27-2.08-0.5-4.22-0.73-6.39
			c-1.33-12.27-2.84-26.19-11.29-36.97c-8.6-10.96-24.27-17.23-43.01-17.23c-0.03,0-0.06,0-0.09,0c-2.49,0-4.71,1.54-5.6,3.86
			c-0.89,2.32-0.25,4.95,1.6,6.61c4.58,4.1,8.21,8.79,10.79,13.93c5.03,10.03,4.45,21.56,3.84,33.76
			c-0.25,4.95-0.51,10.07-0.36,15.1c0.49,17.32,2.75,36.82,15.74,50.14c8.45,8.66,19.5,12.5,30.24,13.85v18.23c0,3.31,2.69,6,6,6
			h41.77c3.31,0,6-2.69,6-6v-18.6c10.76-1.49,21.83-5.46,30.27-14.23c12.97-13.48,15.22-32.89,15.71-50.11
			c0.14-5.04-0.11-10.16-0.36-15.11c-0.61-12.2-1.19-23.72,3.84-33.76c2.58-5.14,6.21-9.83,10.79-13.93
			C387.01,226.94,387.65,224.31,386.76,221.99z M237.16,291.76c-0.13-4.57,0.1-9.23,0.35-14.16c0.66-13.22,1.35-26.88-5.09-39.74
			c-0.93-1.86-1.97-3.67-3.11-5.43c6.91,1.62,14.36,4.81,19.25,11.05c6.34,8.08,7.59,19.66,8.81,30.86
			c0.24,2.24,0.48,4.46,0.76,6.62c2.6,20.3,4.45,29.98,7.1,36.97c0.46,1.2,1.46,3.7,3.1,6.91c3.71,7.28,8.63,13.92,14.69,19.83
			c-11.06,0.21-24.69-1.74-33.52-10.79C239.39,323.49,237.59,306.76,237.16,291.76z M283.15,368.32v-11.64
			c5.58-0.11,10.71-0.71,14.93-1.41c4.2,0.64,9.3,1.16,14.84,1.21v11.85H283.15z M363.64,237.15c-6.45,12.86-5.76,26.52-5.09,39.74
			c0.25,4.93,0.48,9.59,0.35,14.16c-0.42,14.92-2.22,31.6-12.36,42.13c-8.85,9.19-22.5,11.32-33.61,11.26
			c6.12-6.11,11.08-12.92,14.82-20.35c1.61-3.21,2.61-5.68,3.06-6.87c2.3-6.09,4.2-14.1,7.13-36.98c0.28-2.16,0.52-4.37,0.76-6.62
			c1.21-11.2,2.47-22.77,8.81-30.85c4.89-6.24,12.34-9.43,19.25-11.05C365.62,233.48,364.58,235.29,363.64,237.15z"/>
		<path class="st0" d="M298.52,230.21c-5.62,0-9.97-1.91-12.63-3.52c-2.84-1.71-3.75-5.4-2.04-8.24s5.4-3.75,8.24-2.04
			c1.35,0.82,3.57,1.79,6.43,1.79c0.01,0,0.01,0,0.02,0c2.83,0,5.02-0.96,6.36-1.76c2.85-1.7,6.53-0.77,8.23,2.07
			c1.7,2.84,0.77,6.53-2.07,8.23c-2.63,1.57-6.94,3.45-12.49,3.46C298.55,230.21,298.53,230.21,298.52,230.21z"/>
		<path class="st0" d="M298.52,264.9c-5.62,0-9.97-1.91-12.63-3.52c-2.84-1.71-3.75-5.4-2.04-8.24c1.71-2.84,5.4-3.75,8.24-2.04
			c1.35,0.82,3.57,1.79,6.43,1.79c0.01,0,0.01,0,0.02,0c2.83,0,5.02-0.96,6.36-1.76c2.85-1.7,6.53-0.77,8.23,2.07
			c1.7,2.84,0.77,6.53-2.07,8.23c-2.63,1.57-6.94,3.45-12.49,3.46C298.55,264.9,298.53,264.9,298.52,264.9z"/>
		<path class="st0" d="M298.52,299.59c-5.62,0-9.97-1.91-12.63-3.52c-2.84-1.71-3.75-5.4-2.04-8.24c1.71-2.84,5.4-3.75,8.24-2.04
			c1.35,0.82,3.57,1.79,6.43,1.79c0.01,0,0.01,0,0.02,0c2.83,0,5.02-0.96,6.36-1.76c2.85-1.7,6.53-0.77,8.23,2.07
			c1.7,2.84,0.77,6.53-2.07,8.23c-2.63,1.57-6.94,3.45-12.49,3.46C298.55,299.59,298.53,299.59,298.52,299.59z"/>
	</g>
	<path class="st1" d="M207.63,161.6c-12.96,0-23.51-10.55-23.51-23.51c0-10.86,15.36-35.66,18.44-40.52
		c1.1-1.74,3.01-2.79,5.07-2.79s3.97,1.05,5.07,2.79c3.08,4.86,18.44,29.66,18.44,40.52C231.14,151.05,220.6,161.6,207.63,161.6z
		 M207.63,112.39c-6.17,10.71-11.51,21.84-11.51,25.7c0,6.35,5.16,11.51,11.51,11.51s11.51-5.16,11.51-11.51
		C219.14,134.24,213.8,123.1,207.63,112.39z"/>
</g>
</svg>
