<?xml version="1.0" encoding="utf-8"?>
<!-- Generator: Adobe Illustrator 24.1.2, SVG Export Plug-In . SVG Version: 6.00 Build 0)  -->
<svg version="1.1" id="Warstwa_3" xmlns="http://www.w3.org/2000/svg" xmlns:xlink="http://www.w3.org/1999/xlink" x="0px" y="0px"
	 viewBox="0 0 430 430" style="enable-background:new 0 0 430 430;" xml:space="preserve">
<style type="text/css">
	.st0{fill:#121331;}
	.st1{fill:#08a88a;}
	.st2{fill:#08a88a;}
	.st3{fill:none;stroke:#08a88a;stroke-width:12;stroke-linecap:round;stroke-linejoin:round;stroke-miterlimit:10;}
</style>
<g>
	<path class="st0" d="M313.15,312.82c-15.25,0-27.62-11.94-28.15-27.19l-0.72-20.74c-0.27-7.7,2.53-15,7.89-20.54
		c5.35-5.54,12.55-8.6,20.26-8.6h1.44c7.71,0,14.9,3.05,20.26,8.6c5.35,5.54,8.16,12.84,7.89,20.55l-0.72,20.74
		C340.77,300.88,328.4,312.82,313.15,312.82z M312.43,247.75c-4.42,0-8.55,1.75-11.63,4.93c-3.07,3.18-4.68,7.37-4.53,11.79
		l0.72,20.74c0.3,8.75,7.4,15.6,16.16,15.6c8.75,0,15.85-6.85,16.15-15.6l0.72-20.74c0.15-4.42-1.46-8.61-4.53-11.79
		s-7.2-4.93-11.63-4.93H312.43z"/>
	<path class="st0" d="M116.85,312.82c-15.25,0-27.62-11.94-28.15-27.19l-0.72-20.74c-0.27-7.7,2.53-15,7.89-20.55
		c5.36-5.54,12.55-8.6,20.26-8.6h1.44c7.71,0,14.9,3.05,20.26,8.6c5.36,5.54,8.16,12.84,7.89,20.54L145,285.64
		C144.47,300.88,132.1,312.82,116.85,312.82z M116.13,247.75c-4.42,0-8.55,1.75-11.63,4.93s-4.68,7.37-4.53,11.79l0.72,20.74
		c0.3,8.75,7.4,15.6,16.15,15.6c8.75,0,15.85-6.85,16.16-15.6l0.72-20.74c0.15-4.42-1.46-8.61-4.53-11.79
		c-3.07-3.18-7.2-4.93-11.63-4.93H116.13z"/>
	<g>
		<path class="st0" d="M329.42,322.62h-32.55c-11.07,0-21.48,4.79-28.72,12.85c-8.79-8.81-20.8-13.89-33.44-13.89h-41.23
			c-12.3,0-23.78,4.65-32.49,12.95c-7.2-7.55-17.17-11.91-27.87-11.91h-32.55c-21.26,0-38.56,17.29-38.56,38.55v10.89
			c0,6.05,4.53,11.12,10.53,11.81l10.79,1.24c2.72,0.32,5.35,1,7.83,2.04c0.04,0.02,0.11,0.04,0.17,0.07
			c8.09,3.35,16.63,5.05,25.4,5.05c8.84,0,17.46-1.73,25.63-5.15c1.38-0.58,2.81-1.03,4.28-1.37c1.29,5.38,5.81,9.56,11.53,10.22
			l13.69,1.58c3.54,0.4,7.01,1.31,10.41,2.72l0.02,0.01c10.09,4.19,20.75,6.32,31.68,6.32c10.99,0,21.7-2.15,31.82-6.38
			c3.15-1.31,6.46-2.18,9.85-2.58l14.42-1.67c5.83-0.67,10.42-5.01,11.6-10.55c2,0.38,3.95,0.95,5.8,1.73
			c0.04,0.02,0.11,0.04,0.17,0.07c8.09,3.35,16.63,5.05,25.4,5.05c8.84,0,17.46-1.73,25.63-5.15c2.35-0.99,4.85-1.64,7.42-1.93
			l11.38-1.32c6-0.69,10.53-5.76,10.53-11.8v-10.9C367.99,339.92,350.69,322.62,329.42,322.62z M137.72,376.06
			c-6.69,2.8-13.75,4.22-21,4.22c-7.21,0-14.23-1.4-20.87-4.17c-0.04-0.02-0.11-0.04-0.17-0.07c-3.48-1.44-7.17-2.4-10.97-2.85
			l-10.7-1.23v-10.79c0-14.64,11.92-26.55,26.56-26.55h32.55c7.88,0,15.2,3.42,20.2,9.31c-4.65,7.45-7.08,15.97-7.08,24.89v4.76
			C143.31,374.08,140.45,374.91,137.72,376.06z M269.96,382.61c0,0.74-0.55,1.36-1.28,1.44l-14.44,1.67
			c-4.5,0.52-8.91,1.68-13.09,3.43c-8.65,3.62-17.8,5.45-27.19,5.45c-9.34,0-18.45-1.82-27.16-5.43l-0.01,0
			c-4.35-1.81-8.92-3-13.57-3.53l-13.69-1.58c-0.73-0.08-1.28-0.7-1.28-1.44v-3.75v-10.04c0-7.8,2.49-15.18,7.21-21.35c0,0,0,0,0,0
			c0,0,0.01-0.01,0.01-0.01c6.72-8.82,16.93-13.88,28.03-13.88h41.23c11.49,0,22.28,5.62,28.88,15.04
			c4.16,5.94,6.36,12.92,6.36,20.2V382.61z M355.99,371.96l-11.29,1.31c-3.69,0.43-7.28,1.36-10.67,2.78
			c-6.69,2.8-13.75,4.22-21,4.22c-7.21,0-14.23-1.4-20.87-4.17c-0.04-0.02-0.11-0.04-0.17-0.07c-3.19-1.32-6.56-2.21-10.03-2.7
			v-4.51c0-8.36-2.18-16.44-6.32-23.59c4.99-6.61,12.84-10.61,21.24-10.61h32.55c14.65,0,26.56,11.91,26.56,26.55V371.96z"/>
		<path class="st0" d="M214.1,310.5c-19.29,0-34.92-15.1-35.59-34.38l-0.96-27.71c-0.34-9.74,3.2-18.97,9.98-25.98
			c6.77-7.01,15.87-10.87,25.62-10.87h1.93c9.75,0,18.85,3.86,25.62,10.87c6.77,7.01,10.32,16.24,9.98,25.98l-0.96,27.71
			C249.03,295.4,233.39,310.5,214.1,310.5z M213.14,223.55c-6.46,0-12.5,2.56-16.99,7.21c-4.49,4.65-6.84,10.77-6.61,17.23
			l0.96,27.71c0.45,12.78,10.81,22.79,23.6,22.79s23.16-10.01,23.6-22.79l0.96-27.71c0.22-6.46-2.13-12.58-6.62-17.23
			c-4.49-4.65-10.52-7.21-16.99-7.21H213.14z"/>
	</g>
	<path class="st0" d="M217.48,188.06c-1.54,0-3.07-0.59-4.24-1.76l-39.84-39.84h-51.82c-10.08,0-18.28-8.2-18.28-18.28V41.68
		c0-10.08,8.2-18.28,18.28-18.28h191.13c10.08,0,18.28,8.2,18.28,18.28v86.51c0,10.08-8.2,18.28-18.28,18.28h-51.14l-39.85,39.84
		C220.55,187.48,219.01,188.06,217.48,188.06z M121.58,35.4c-3.46,0-6.28,2.82-6.28,6.28v86.51c0,3.46,2.82,6.28,6.28,6.28h54.31
		c1.59,0,3.12,0.63,4.24,1.76l37.35,37.35l37.36-37.35c1.13-1.13,2.65-1.76,4.24-1.76h53.62c3.46,0,6.28-2.82,6.28-6.28V41.68
		c0-3.46-2.82-6.28-6.28-6.28H121.58z"/>
	<path class="st2" d="M241.89,80.16h-18.75V61.41c0-3.31-2.69-6-6-6s-6,2.69-6,6v18.75h-18.75c-3.31,0-6,2.69-6,6s2.69,6,6,6h18.75
		v18.75c0,3.31,2.69,6,6,6s6-2.69,6-6V92.16h18.75c3.31,0,6-2.69,6-6S245.21,80.16,241.89,80.16z"/>
</g>
</svg>
