<?xml version="1.0" encoding="utf-8"?>
<!-- Generator: Adobe Illustrator 24.1.2, SVG Export Plug-In . SVG Version: 6.00 Build 0)  -->
<svg version="1.1" id="Warstwa_3" xmlns="http://www.w3.org/2000/svg" xmlns:xlink="http://www.w3.org/1999/xlink" x="0px" y="0px"
	 viewBox="0 0 430 430" style="enable-background:new 0 0 430 430;" xml:space="preserve">
<style type="text/css">
	.st0{fill:#121331;}
	.st1{fill:#08a88a;}
	.st2{fill:#08a88a;}
	.st3{fill:none;stroke:#08a88a;stroke-width:12;stroke-linecap:round;stroke-linejoin:round;stroke-miterlimit:10;}
</style>
<g>
	<path class="st0" d="M352.71,48.88H77.29c-15.66,0-28.41,12.74-28.41,28.41v275.42c0,15.66,12.74,28.41,28.41,28.41h275.42
		c15.66,0,28.41-12.74,28.41-28.41V77.29C381.12,61.62,368.38,48.88,352.71,48.88z M77.29,60.88h275.42
		c9.05,0,16.41,7.36,16.41,16.41v22.97H60.88V77.29C60.88,68.24,68.24,60.88,77.29,60.88z M77.29,369.12
		c-9.05,0-16.41-7.36-16.41-16.41V112.25H209v256.87H77.29z M369.12,352.71c0,9.05-7.36,16.41-16.41,16.41H221V246.69h148.12V352.71
		z M221,234.69V112.25h148.12v122.43H221z"/>
	<g>
		<path class="st0" d="M295.5,220.34c-5.1,0-10.19-0.99-14.94-2.96c-1.17-0.49-2.36-0.8-3.57-0.94l-5.89-0.68
			c-4.65-0.54-8.15-4.47-8.15-9.15v-5.94c0-13.09,10.65-23.75,23.75-23.75h17.75c13.09,0,23.75,10.65,23.75,23.75v5.94
			c0,4.68-3.5,8.61-8.15,9.15l-6.21,0.72c-1.14,0.13-2.25,0.42-3.31,0.86C305.75,219.34,300.62,220.34,295.5,220.34z M274.94,204.13
			l3.41,0.39c2.33,0.27,4.6,0.86,6.76,1.76c6.63,2.76,14.19,2.75,20.77,0c2.1-0.88,4.3-1.45,6.56-1.71l3.74-0.43v-3.45
			c0-6.48-5.27-11.75-11.75-11.75h-17.75c-6.48,0-11.75,5.27-11.75,11.75V204.13z"/>
		<path class="st0" d="M295.56,174.05c-9.79,0-17.73-7.67-18.07-17.45l-0.39-11.31c-0.17-4.95,1.63-9.63,5.06-13.19
			c3.44-3.56,8.06-5.52,13.01-5.52h0.79c4.95,0,9.57,1.96,13.01,5.52c3.44,3.56,5.24,8.24,5.06,13.19l-0.39,11.31
			C313.29,166.38,305.36,174.05,295.56,174.05z M295.17,138.58c-1.66,0-3.22,0.66-4.38,1.86c-1.16,1.2-1.76,2.77-1.7,4.44
			l0.39,11.31c0.11,3.29,2.78,5.87,6.08,5.87c3.29,0,5.96-2.58,6.08-5.87l0.39-11.31c0.06-1.66-0.55-3.24-1.7-4.44
			c-1.16-1.2-2.71-1.86-4.38-1.86H295.17z"/>
	</g>
	<g>
		<path class="st1" d="M134.83,313.63c-8.23,0-16.46-1.59-24.13-4.78c-2.4-1-4.85-1.63-7.35-1.92l-10.17-1.17
			c-5.83-0.67-10.22-5.6-10.22-11.46v-10.25c0-20.21,16.44-36.65,36.65-36.65h30.65c20.21,0,36.65,16.44,36.65,36.65v10.25
			c0,5.86-4.39,10.79-10.21,11.46L165.98,307c-2.37,0.27-4.69,0.88-6.89,1.8C151.38,312.02,143.1,313.63,134.83,313.63z
			 M94.97,293.88l9.76,1.13c3.61,0.42,7.15,1.33,10.5,2.73c12.52,5.2,26.79,5.19,39.22-0.01c3.24-1.35,6.65-2.25,10.15-2.65
			l10.32-1.19v-9.84c0-13.59-11.06-24.65-24.65-24.65h-30.65c-13.59,0-24.65,11.06-24.65,24.65V293.88z"/>
		<path class="st1" d="M134.94,240.96c-14.55,0-26.34-11.39-26.85-25.93l-0.68-19.53c-0.26-7.35,2.42-14.31,7.52-19.6
			s11.97-8.2,19.32-8.2h1.36c7.35,0,14.22,2.91,19.32,8.2c5.11,5.29,7.78,12.25,7.53,19.6l-0.68,19.53
			C161.28,229.57,149.49,240.96,134.94,240.96z M134.26,179.71c-4.07,0-7.87,1.61-10.69,4.54c-2.83,2.93-4.3,6.78-4.16,10.84
			l0.68,19.53c0.28,8.05,6.81,14.35,14.86,14.35s14.58-6.3,14.86-14.35l0.68-19.52c0.14-4.07-1.34-7.92-4.16-10.84
			c-2.83-2.93-6.62-4.54-10.69-4.54H134.26z"/>
	</g>
	<g>
		<path class="st0" d="M295.49,355.77c-5.1,0-10.19-0.99-14.94-2.96c-1.17-0.49-2.36-0.8-3.57-0.94l-5.89-0.68
			c-4.65-0.54-8.15-4.47-8.15-9.15v-5.94c0-13.09,10.65-23.75,23.75-23.75h17.75c13.09,0,23.75,10.65,23.75,23.75v5.94
			c0,4.68-3.5,8.61-8.15,9.15l-6.21,0.72c-1.14,0.13-2.25,0.42-3.31,0.86C305.74,354.78,300.61,355.77,295.49,355.77z
			 M274.94,339.56l3.41,0.39c2.32,0.27,4.6,0.86,6.76,1.76c6.63,2.76,14.19,2.75,20.77,0c2.09-0.88,4.3-1.45,6.56-1.71l3.74-0.43
			v-3.45c0-6.48-5.27-11.75-11.75-11.75h-17.75c-6.48,0-11.75,5.27-11.75,11.75V339.56z"/>
		<path class="st0" d="M295.56,309.48c-9.79,0-17.73-7.67-18.07-17.45l-0.39-11.31c-0.17-4.95,1.63-9.63,5.07-13.19
			c3.44-3.56,8.06-5.52,13.01-5.52h0.79c4.95,0,9.57,1.96,13.01,5.52c3.44,3.56,5.24,8.24,5.07,13.19l-0.39,11.31
			C313.29,301.82,305.35,309.48,295.56,309.48z M295.16,274.01c-1.66,0-3.22,0.66-4.37,1.86c-1.16,1.2-1.76,2.77-1.7,4.44
			l0.39,11.31c0.11,3.29,2.78,5.87,6.08,5.87s5.96-2.58,6.08-5.87l0.39-11.31c0.06-1.66-0.55-3.24-1.7-4.44
			c-1.16-1.2-2.71-1.86-4.38-1.86H295.16z"/>
	</g>
	<g>
		<path class="st1" d="M143,88.07h-0.14c-4.14,0-7.5-3.36-7.5-7.5s3.36-7.5,7.5-7.5H143c4.14,0,7.5,3.36,7.5,7.5
			S147.14,88.07,143,88.07z"/>
		<path class="st1" d="M86.7,88.07h-0.14c-4.14,0-7.5-3.36-7.5-7.5s3.36-7.5,7.5-7.5h0.14c4.14,0,7.5,3.36,7.5,7.5
			S90.85,88.07,86.7,88.07z"/>
		<path class="st1" d="M114.85,88.07h-0.14c-4.14,0-7.5-3.36-7.5-7.5s3.36-7.5,7.5-7.5h0.14c4.14,0,7.5,3.36,7.5,7.5
			S118.99,88.07,114.85,88.07z"/>
	</g>
	<path class="st0" d="M349,136.91h-0.14c-3.31,0-6-2.69-6-6s2.69-6,6-6H349c3.31,0,6,2.69,6,6S352.31,136.91,349,136.91z"/>
	<path class="st1" d="M187.05,136.91h-0.14c-3.31,0-6-2.69-6-6s2.69-6,6-6h0.14c3.31,0,6,2.69,6,6S190.36,136.91,187.05,136.91z"/>
	<path class="st0" d="M349,271.91h-0.14c-3.31,0-6-2.69-6-6s2.69-6,6-6H349c3.31,0,6,2.69,6,6S352.31,271.91,349,271.91z"/>
</g>
</svg>
