<?xml version="1.0" encoding="utf-8"?>
<!-- Generator: Adobe Illustrator 24.1.2, SVG Export Plug-In . SVG Version: 6.00 Build 0)  -->
<svg version="1.1" id="Warstwa_3" xmlns="http://www.w3.org/2000/svg" xmlns:xlink="http://www.w3.org/1999/xlink" x="0px" y="0px"
	 viewBox="0 0 430 430" style="enable-background:new 0 0 430 430;" xml:space="preserve">
<style type="text/css">
	.st0{fill:#08a88a;}
	.st1{fill:#121331;}
	.st2{fill:none;stroke:#08a88a;stroke-width:12;stroke-linecap:round;stroke-linejoin:round;stroke-miterlimit:10;}
	.st3{fill:none;stroke:#121331;stroke-width:12;stroke-linecap:round;stroke-linejoin:round;stroke-miterlimit:10;}
	.st4{fill:#08a88a;}
	.st5{fill:#FFFFFF;stroke:#08a88a;stroke-width:12;stroke-linecap:round;stroke-linejoin:round;stroke-miterlimit:10;}
</style>
<g>
	<path class="st0" d="M317.2,158.41l18.96-18.96c2.34-2.34,2.34-6.14,0-8.49c-2.34-2.34-6.14-2.34-8.48,0l-18.96,18.96l-18.96-18.96
		c-2.34-2.34-6.14-2.34-8.48,0c-2.34,2.34-2.34,6.14,0,8.49l18.96,18.96l-18.96,18.96c-2.34,2.34-2.34,6.14,0,8.49
		c1.17,1.17,2.71,1.76,4.24,1.76c1.54,0,3.07-0.59,4.24-1.76l18.96-18.96l18.96,18.96c1.17,1.17,2.71,1.76,4.24,1.76
		s3.07-0.59,4.24-1.76c2.34-2.34,2.34-6.14,0-8.49L317.2,158.41z"/>
	<path class="st1" d="M308.72,231.13c-40.1,0-72.72-32.62-72.72-72.72c0-40.1,32.62-72.72,72.72-72.72s72.72,32.62,72.72,72.72
		C381.43,198.51,348.81,231.13,308.72,231.13z M308.72,97.69c-33.48,0-60.72,27.24-60.72,60.72c0,33.48,27.24,60.72,60.72,60.72
		c33.48,0,60.72-27.24,60.72-60.72C369.43,124.93,342.2,97.69,308.72,97.69z"/>
	<path class="st0" d="M104.88,189.01c-1.59,0-3.12-0.63-4.24-1.76l-16.41-16.41c-2.34-2.34-2.34-6.14,0-8.49
		c2.34-2.34,6.14-2.34,8.49,0l12.17,12.17l44.97-44.96c2.34-2.34,6.14-2.34,8.48,0c2.34,2.34,2.34,6.14,0,8.49l-49.21,49.21
		C108,188.38,106.48,189.01,104.88,189.01z"/>
	<path class="st1" d="M121.28,231.13c-40.1,0-72.72-32.62-72.72-72.72c0-40.1,32.62-72.72,72.72-72.72S194,118.31,194,158.41
		C194,198.51,161.38,231.13,121.28,231.13z M121.28,97.69c-33.48,0-60.72,27.24-60.72,60.72c0,33.48,27.24,60.72,60.72,60.72
		c33.48,0,60.72-27.24,60.72-60.72C182,124.93,154.76,97.69,121.28,97.69z"/>
	<g>
		<path class="st1" d="M177.67,293.12H91.5c-3.31,0-6-2.69-6-6s2.69-6,6-6h86.17c3.31,0,6,2.69,6,6S180.98,293.12,177.67,293.12z"/>
		<path class="st1" d="M65.6,293.12h-0.7c-3.31,0-6-2.69-6-6s2.69-6,6-6h0.7c3.31,0,6,2.69,6,6S68.92,293.12,65.6,293.12z"/>
		<path class="st1" d="M177.67,344.31H91.5c-3.31,0-6-2.69-6-6s2.69-6,6-6h86.17c3.31,0,6,2.69,6,6S180.98,344.31,177.67,344.31z"/>
		<path class="st1" d="M65.6,344.31h-0.7c-3.31,0-6-2.69-6-6s2.69-6,6-6h0.7c3.31,0,6,2.69,6,6S68.92,344.31,65.6,344.31z"/>
	</g>
	<g>
		<path class="st1" d="M365.1,293.12h-86.17c-3.31,0-6-2.69-6-6s2.69-6,6-6h86.17c3.31,0,6,2.69,6,6S368.42,293.12,365.1,293.12z"/>
		<path class="st1" d="M253.04,293.12h-0.7c-3.31,0-6-2.69-6-6s2.69-6,6-6h0.7c3.31,0,6,2.69,6,6S256.35,293.12,253.04,293.12z"/>
		<path class="st1" d="M365.1,344.31h-86.17c-3.31,0-6-2.69-6-6s2.69-6,6-6h86.17c3.31,0,6,2.69,6,6S368.42,344.31,365.1,344.31z"/>
		<path class="st1" d="M253.04,344.31h-0.7c-3.31,0-6-2.69-6-6s2.69-6,6-6h0.7c3.31,0,6,2.69,6,6S256.35,344.31,253.04,344.31z"/>
	</g>
</g>
</svg>
