<?xml version="1.0" encoding="utf-8"?>
<!-- Generator: Adobe Illustrator 24.1.2, SVG Export Plug-In . SVG Version: 6.00 Build 0)  -->
<svg version="1.1" id="Warstwa_1" xmlns="http://www.w3.org/2000/svg" xmlns:xlink="http://www.w3.org/1999/xlink" x="0px" y="0px"
	 viewBox="0 0 430 430" style="enable-background:new 0 0 430 430;" xml:space="preserve">
<style type="text/css">
	.st0{fill:#08a88a;}
	.st1{fill:#121331;}
	.st2{fill:#08a88a;}
	.st3{fill:#00A689;}
	.st4{fill:none;}
	.st5{fill:none;stroke:#121331;stroke-width:12;stroke-linecap:round;stroke-linejoin:round;stroke-miterlimit:10;}
</style>
<g>
	<g>
		<path class="st1" d="M223.16,64.78c-0.22-0.54-0.5-1.06-0.83-1.55c-0.32-0.49-0.7-0.95-1.12-1.37c-0.41-0.41-0.87-0.79-1.36-1.12
			c-0.49-0.32-1.01-0.6-1.56-0.83c-0.54-0.22-1.11-0.39-1.68-0.51c-1.16-0.23-2.36-0.23-3.52,0c-0.57,0.12-1.14,0.29-1.68,0.51
			c-0.54,0.23-1.07,0.51-1.55,0.83c-0.5,0.33-0.96,0.71-1.37,1.12c-0.42,0.42-0.79,0.88-1.12,1.37c-0.33,0.49-0.6,1.01-0.83,1.55
			c-0.22,0.55-0.4,1.11-0.51,1.69c-0.12,0.58-0.18,1.17-0.18,1.75c0,0.59,0.06,1.18,0.18,1.76c0.11,0.58,0.29,1.14,0.51,1.69
			c0.23,0.54,0.5,1.06,0.83,1.55c0.33,0.49,0.7,0.95,1.12,1.37c0.11,0.11,0.24,0.22,0.36,0.33v69.72c0,3.31,2.69,6,6,6s6-2.69,6-6
			V74.92c0.12-0.11,0.25-0.21,0.36-0.33c0.42-0.42,0.8-0.88,1.12-1.37c0.33-0.49,0.61-1.01,0.83-1.55c0.23-0.55,0.4-1.11,0.51-1.69
			c0.12-0.58,0.18-1.17,0.18-1.76c0-0.58-0.06-1.17-0.18-1.75C223.56,65.89,223.39,65.33,223.16,64.78z"/>
		<path class="st1" d="M192.4,159.23c-12.04-2.28-22.26-9.77-28.06-20.56l-7.52-14c-4.52-8.42-12.46-14.45-21.78-16.55
			c-9.32-2.1-19.08-0.06-26.78,5.61L85.6,130.41c-1.62,1.2-3.39,2.16-5.27,2.86c-6.82,2.58-14.45,1.62-20.42-2.6l-9.17-6.46
			c-2.71-1.91-6.45-1.26-8.36,1.45c-1.91,2.71-1.26,6.45,1.45,8.36l9.17,6.46c6.18,4.36,13.52,6.46,20.86,6.18L34.67,277.43
			c0,0.01-0.01,0.03-0.01,0.04l-0.01,0.04c-0.01,0.04-0.02,0.09-0.03,0.13c-0.04,0.14-0.08,0.29-0.11,0.43
			c-0.02,0.1-0.03,0.2-0.05,0.3c-0.01,0.09-0.03,0.18-0.04,0.28c-0.02,0.16-0.02,0.31-0.02,0.47c0,0.04-0.01,0.07-0.01,0.11
			c0,0.01,0,0.01,0,0.02c0,0.04,0,0.09,0,0.13c0.08,25.52,20.87,46.26,46.41,46.26h3.3c25.54,0,46.33-20.74,46.41-46.26
			c0-0.04,0-0.09,0-0.13c0-0.01,0-0.01,0-0.02c0-0.04,0-0.07-0.01-0.11c0-0.16-0.01-0.31-0.02-0.47c-0.01-0.09-0.03-0.18-0.04-0.28
			c-0.01-0.1-0.03-0.2-0.05-0.3c-0.03-0.15-0.07-0.29-0.11-0.43c-0.01-0.04-0.02-0.09-0.03-0.13l-0.01-0.04
			c0-0.01-0.01-0.03-0.01-0.04L89.67,142.05c1.04-0.61,2.07-1.26,3.05-1.98l22.66-16.69c4.89-3.6,11.1-4.9,17.03-3.57
			c5.93,1.34,10.98,5.17,13.85,10.52l7.52,14c7.52,14,20.79,23.72,36.4,26.68c0.38,0.07,0.75,0.11,1.12,0.11
			c2.83,0,5.34-2.01,5.89-4.88C197.8,162.98,195.66,159.84,192.4,159.23z M82.46,159.78l34,113.45h-68L82.46,159.78z M84.1,313.64
			h-3.3c-16.93,0-31.04-12.29-33.89-28.41h71.08C115.15,301.35,101.03,313.64,84.1,313.64z"/>
		<path class="st1" d="M395.61,321.38c0-0.01,0-0.01,0-0.02c0-0.04,0-0.07-0.01-0.11c0-0.16-0.01-0.31-0.02-0.47
			c-0.01-0.09-0.03-0.18-0.04-0.28c-0.01-0.1-0.03-0.2-0.05-0.3c-0.03-0.15-0.07-0.29-0.11-0.43c-0.01-0.04-0.02-0.09-0.03-0.13
			l-0.01-0.04c0-0.01-0.01-0.03-0.01-0.04l-38.79-129.44c1.47,0.19,2.94,0.29,4.42,0.29c3.52,0,7.04-0.54,10.43-1.64l10.67-3.46
			c3.15-1.02,4.88-4.41,3.86-7.56c-1.02-3.15-4.41-4.88-7.56-3.86l-10.66,3.46c-5.71,1.84-12.01,1.26-17.28-1.61
			c-2.84-1.54-5.25-3.64-7.17-6.25l-16.69-22.66c-5.67-7.69-14.38-12.54-23.91-13.3c-9.52-0.76-18.9,2.64-25.71,9.34l-11.34,11.14
			c-7.33,7.21-17.03,11.32-27.3,11.58c-3.31,0.08-5.93,2.83-5.85,6.15c0.08,3.31,2.82,5.95,6.15,5.85
			c13.33-0.33,25.91-5.67,35.42-15.02l11.34-11.14c4.33-4.26,10.28-6.42,16.35-5.94c6.06,0.48,11.6,3.57,15.2,8.46l16.69,22.66
			c1.98,2.69,4.31,5.03,6.93,7l-40.75,135.96c0,0.01-0.01,0.03-0.01,0.04l-0.01,0.04c-0.01,0.04-0.02,0.09-0.03,0.13
			c-0.04,0.14-0.08,0.29-0.11,0.43c-0.02,0.1-0.03,0.2-0.05,0.3c-0.01,0.09-0.03,0.18-0.04,0.28c-0.02,0.16-0.02,0.31-0.02,0.47
			c0,0.04-0.01,0.07-0.01,0.11c0,0.01,0,0.01,0,0.02c0,0.04,0,0.09,0,0.13c0.08,25.52,20.87,46.26,46.41,46.26h3.3
			c25.54,0,46.33-20.74,46.41-46.26C395.6,321.47,395.61,321.43,395.61,321.38z M381.54,315.36h-68l34-113.45L381.54,315.36z
			 M349.2,355.78h-3.3c-16.93,0-31.04-12.29-33.89-28.41h71.08C380.24,343.49,366.12,355.78,349.2,355.78z"/>
	</g>
	<path class="st0" d="M214.85,198.23c-16.43,0-29.8-13.37-29.8-29.8s13.37-29.8,29.8-29.8s29.8,13.37,29.8,29.8
		S231.28,198.23,214.85,198.23z M214.85,150.64c-9.81,0-17.8,7.98-17.8,17.8c0,9.81,7.98,17.8,17.8,17.8s17.8-7.98,17.8-17.8
		C232.65,158.62,224.66,150.64,214.85,150.64z"/>
</g>
</svg>
