<?xml version="1.0" encoding="utf-8"?>
<!-- Generator: Adobe Illustrator 24.1.2, SVG Export Plug-In . SVG Version: 6.00 Build 0)  -->
<svg version="1.1" id="Warstwa_3" xmlns="http://www.w3.org/2000/svg" xmlns:xlink="http://www.w3.org/1999/xlink" x="0px" y="0px"
	 viewBox="0 0 430 430" style="enable-background:new 0 0 430 430;" xml:space="preserve">
<style type="text/css">
	.st0{fill:#08a88a;}
	.st1{fill:#121331;}
	.st2{fill:#08a88a;fill-opacity:0;}
	.st3{fill:none;}
</style>
<g>
	<path class="st1" d="M267.34,375.2H161.11c-3.48,0-6.3-2.82-6.3-6.3s2.82-6.3,6.3-6.3h33.75v-26.72H69.72c-3.38,0-6.14-2.66-6.29-6
		c-0.08-0.9,0.03-1.83,0.35-2.73l43.73-120.13c1.19-3.27,4.8-4.95,8.07-3.76c3.27,1.19,4.96,4.81,3.77,8.08L98.17,269.5h40.43
		l18.28-50.22c0.13-0.4,0.31-0.77,0.51-1.13c0.47-0.81,1.1-1.49,1.83-2.01c0.74-0.52,1.61-0.89,2.54-1.05
		c0.4-0.07,0.81-0.1,1.23-0.09h49.15l17.86-49.06c0.06-0.2,0.13-0.39,0.21-0.58l16.66-45.76h-35.79c-3.48,0-6.3-2.82-6.3-6.3
		s2.82-6.3,6.3-6.3h44.64c0.1,0,0.19,0,0.29,0h53.54c0.1,0,0.19,0,0.29,0h54.5c0.62-0.02,1.23,0.06,1.85,0.23
		c0.17,0.05,0.34,0.1,0.5,0.17c1.01,0.38,1.87,0.99,2.53,1.75l21.91,19.61c1.92,1.71,2.6,4.42,1.72,6.84l-70.91,195.92
		c-0.9,2.49-3.26,4.15-5.9,4.16l-29.14,0.1c-0.38,0.07-0.78,0.11-1.19,0.11h-51.25v26.72h32.87c3.48,0,6.3,2.82,6.3,6.3
		S270.82,375.2,267.34,375.2z M207.46,362.6h14.4v-26.72h-14.4V362.6z M239.98,323.28h41.38l14.99-41.18h-41.38L239.98,323.28z
		 M186.14,323.28h40.43l14.99-41.18h-40.43L186.14,323.28z M132.43,323.28h40.3l14.99-41.18h-40.3L132.43,323.28z M78.59,323.28
		h40.43l14.98-41.18H93.58L78.59,323.28z M330.87,224.07l-36.06,99.07l16.79-0.05l67.96-187.78l-12.35-11.06l-35.89,98.59
		C331.22,223.27,331.07,223.68,330.87,224.07z M259.55,269.5h41.38l15.25-41.9H274.8L259.55,269.5z M205.72,269.5h40.43l15.25-41.9
		h-40.43L205.72,269.5z M152,269.5h40.3l15.25-41.9h-40.3L152,269.5z M279.39,215h41.38l14.89-40.9h-41.38L279.39,215z M225.56,215
		h40.42l14.89-40.9h-40.42L225.56,215z M298.86,161.5h41.38l15.25-41.9h-41.38L298.86,161.5z M245.03,161.5h40.42l15.25-41.9h-40.42
		L245.03,161.5z"/>
	<path class="st0" d="M135.49,249.45c-2.15,0-4.15-1.1-5.31-2.91l-19.16-30.02L77.05,227.2c-2.05,0.65-4.29,0.2-5.94-1.18
		c-1.65-1.38-2.48-3.51-2.2-5.64l4.62-35.31l-32.89-13.65c-1.99-0.83-3.41-2.61-3.79-4.72s0.36-4.28,1.94-5.74l26.23-24.08
		l-16.42-31.6c-0.99-1.91-0.94-4.19,0.13-6.05c1.08-1.86,3.03-3.05,5.18-3.14l35.57-1.58l7.74-34.76c0.47-2.1,1.97-3.82,3.99-4.55
		s4.28-0.39,5.99,0.92l28.27,21.65l28.27-21.65c1.71-1.31,3.97-1.65,5.99-0.92c2.02,0.74,3.53,2.45,3.99,4.55l7.74,34.76l35.57,1.58
		c2.15,0.1,4.1,1.28,5.18,3.14c1.08,1.86,1.13,4.15,0.13,6.05l-16.42,31.6l26.23,24.08c1.58,1.46,2.32,3.62,1.94,5.74
		s-1.8,3.9-3.79,4.72l-32.89,13.65l4.62,35.31c0.28,2.13-0.55,4.26-2.2,5.64c-1.65,1.38-3.89,1.83-5.94,1.18l-33.97-10.68
		l-19.16,30.02C139.64,248.35,137.64,249.45,135.49,249.45z M113.73,202.76c2.11,0,4.13,1.06,5.31,2.91l16.44,25.76l16.44-25.76
		c1.53-2.4,4.48-3.48,7.2-2.62l29.16,9.17l-3.96-30.31c-0.37-2.82,1.2-5.54,3.83-6.64l28.23-11.72l-22.52-20.67
		c-2.1-1.93-2.64-5.02-1.33-7.55l14.09-27.12l-30.53-1.36c-2.84-0.13-5.25-2.15-5.87-4.92l-6.64-29.83l-24.26,18.59
		c-2.26,1.73-5.4,1.73-7.66,0l-24.26-18.59l-6.64,29.83c-0.62,2.78-3.02,4.8-5.87,4.92l-30.53,1.36l14.09,27.12
		c1.31,2.53,0.77,5.62-1.33,7.55l-22.52,20.67l28.23,11.72c2.63,1.09,4.2,3.81,3.83,6.64l-3.96,30.31l29.16-9.17
		C112.47,202.86,113.1,202.76,113.73,202.76z M135.49,189.8c-22.33,0-40.5-18.17-40.5-40.5s18.17-40.5,40.5-40.5
		c22.33,0,40.5,18.17,40.5,40.5S157.82,189.8,135.49,189.8z M135.49,121.4c-15.38,0-27.9,12.52-27.9,27.9s12.52,27.9,27.9,27.9
		c15.38,0,27.9-12.52,27.9-27.9S150.87,121.4,135.49,121.4z"/>
</g>
</svg>
