<?xml version="1.0" encoding="utf-8"?>
<!-- Generator: Adobe Illustrator 24.1.2, SVG Export Plug-In . SVG Version: 6.00 Build 0)  -->
<svg version="1.1" id="Warstwa_1" xmlns="http://www.w3.org/2000/svg" xmlns:xlink="http://www.w3.org/1999/xlink" x="0px" y="0px"
	 viewBox="0 0 430 430" style="enable-background:new 0 0 430 430;" xml:space="preserve">
<style type="text/css">
	.st0{fill:#08a88a;}
	.st1{fill:#121331;}
	.st2{fill:#08a88a;}
	.st3{fill:#00A689;}
	.st4{fill:none;}
	.st5{fill:none;stroke:#121331;stroke-width:12;stroke-linecap:round;stroke-linejoin:round;stroke-miterlimit:10;}
</style>
<g>
	<path class="st0" d="M181.24,124.74c-3.31,0-6-2.69-6-6V74.22h-22.37v44.52c0,3.31-2.69,6-6,6s-6-2.69-6-6V68.22c0-3.31,2.69-6,6-6
		h34.37c3.31,0,6,2.69,6,6v50.52C187.24,122.06,184.55,124.74,181.24,124.74z"/>
	<path class="st1" d="M320.3,274.41c-11.04-5.54-23.47-10.03-36.93-13.34c-0.02,0-0.04-0.01-0.06-0.01c-0.01,0-0.01,0-0.02,0
		c-7.76-1.91-15.75-3.39-23.91-4.46c-3.59-8.97-8.41-17.33-14.38-24.97c11.66-10.01,18.46-24.62,18.46-40.22
		c0-29.25-23.8-53.05-53.05-53.05c-2.98,0-5.94,0.25-8.85,0.74v-20.35c0-3.31-2.69-6-6-6h-63.04c-3.31,0-6,2.69-6,6v51.64
		c0,15.87-7.88,30.83-21.08,40.03C77.87,229.62,61.4,261.13,61.4,294.7c0,26.71,10.21,52.01,28.76,71.25
		c1.13,1.17,2.69,1.83,4.32,1.83h139.14c0.01,0,0.01,0,0.02,0h108.1c9.85,0,18.88-5.37,23.58-14c0.15-0.28,0.28-0.58,0.39-0.88
		c1.91-5.45,2.88-11.07,2.88-16.69C368.6,312.34,350.99,289.82,320.3,274.41z M201.57,151.32c2.89-0.64,5.85-0.96,8.85-0.96
		c22.63,0,41.05,18.41,41.05,41.05c0,12.11-5.3,23.44-14.37,31.19c-4.44-4.49-9.27-8.58-14.44-12.17
		c-13.2-9.2-21.08-24.16-21.08-40.03V151.32z M112.31,220.26c16.42-11.44,26.22-30.08,26.22-49.87v-45.64h51.04v22.01
		c0,0.05,0,0.1,0,0.14v23.48c0,19.79,9.8,38.43,26.22,49.87c5.88,4.1,11.29,8.9,16.07,14.28c0,0.01,0.01,0.01,0.01,0.02
		c0.01,0.01,0.02,0.03,0.04,0.04c5.55,6.27,10.14,13.17,13.74,20.6c-5.91-0.43-11.88-0.67-17.92-0.67c-0.63,0-1.26,0-1.89,0.02
		c-23.44,0.17-46.58,3.71-66.9,10.24c-8.46,2.71-16.46,5.95-23.78,9.63c-30.69,15.4-48.3,37.92-48.3,61.79
		c0,2.27,0.17,4.53,0.48,6.79c-9.06-14.35-13.94-30.98-13.94-48.3C73.4,265.05,87.95,237.23,112.31,220.26z M354.55,348.44
		c-2.65,4.54-7.52,7.33-12.81,7.33H113.71c-5.29,0-10.16-2.8-12.81-7.33c-1.35-4.02-2.04-8.13-2.04-12.23
		c0-19.16,15.19-37.78,41.68-51.07c3.83-1.92,7.87-3.71,12.08-5.37c-0.15,1.79-0.21,3.6-0.14,5.41
		c0.96,24.81,22.57,36.94,23.49,37.44c0.92,0.5,1.9,0.74,2.88,0.74c2.12,0,4.18-1.13,5.27-3.12c1.59-2.91,0.53-6.55-2.38-8.15
		c-0.68-0.37-16.57-9.29-17.27-27.38c-0.12-3.18,0.24-6.34,1.06-9.41c15.43-4.67,32.48-7.54,49.99-8.45
		c-2.37,5.8-3.51,12.05-3.27,18.32c0.96,24.92,22.6,36.95,23.52,37.45c0.91,0.49,1.89,0.73,2.85,0.73c2.12,0,4.18-1.13,5.27-3.13
		c1.58-2.91,0.51-6.55-2.4-8.14c-0.17-0.09-16.56-9.26-17.26-27.37c-0.24-6.36,1.47-12.71,4.86-18.18
		c15.44,0.09,30.44,1.64,44.69,4.65c-1.33,4.54-1.94,9.27-1.75,13.98c0.95,24.92,22.59,36.96,23.51,37.46
		c0.91,0.49,1.89,0.73,2.85,0.73c2.12,0,4.18-1.13,5.27-3.13c1.58-2.91,0.51-6.55-2.4-8.14c-0.17-0.09-16.56-9.26-17.25-27.37
		c-0.14-3.61,0.36-7.23,1.44-10.7c10.67,2.93,20.56,6.66,29.43,11.12c26.49,13.29,41.68,31.91,41.68,51.07
		C356.6,340.31,355.91,344.42,354.55,348.44z"/>
</g>
</svg>
