<?xml version="1.0" encoding="utf-8"?>
<!-- Generator: Adobe Illustrator 24.1.2, SVG Export Plug-In . SVG Version: 6.00 Build 0)  -->
<svg version="1.1" id="Warstwa_1" xmlns="http://www.w3.org/2000/svg" xmlns:xlink="http://www.w3.org/1999/xlink" x="0px" y="0px"
	 viewBox="0 0 430 430" style="enable-background:new 0 0 430 430;" xml:space="preserve">
<style type="text/css">
	.st0{fill:#08a88a;}
	.st1{fill:#121331;}
	.st2{fill:none;stroke:#121331;stroke-width:12;stroke-linecap:round;stroke-linejoin:round;stroke-miterlimit:10;}
	.st3{fill:#08a88a;}
	.st4{fill:#08A284;}
</style>
<g>
	<path class="st0" d="M169.42,401.26c-1.84,0-3.69-0.24-5.52-0.73c-5.47-1.46-10.04-4.97-12.87-9.87
		c-2.83-4.9-3.58-10.61-2.12-16.08l28.12-104.94c0.86-3.2,4.15-5.1,7.35-4.24c3.2,0.86,5.1,4.15,4.24,7.35L160.5,377.68
		c-0.64,2.37-0.31,4.85,0.92,6.98c1.23,2.13,3.21,3.65,5.58,4.28c2.37,0.64,4.85,0.31,6.98-0.92c2.13-1.23,3.65-3.21,4.28-5.58
		l28.12-104.94c0.86-3.2,4.15-5.1,7.35-4.24c3.2,0.86,5.1,4.15,4.24,7.35l-28.12,104.94c-1.46,5.47-4.97,10.04-9.87,12.87
		C176.71,400.29,173.09,401.26,169.42,401.26z"/>
	<path class="st1" d="M212.18,285.05c-0.51,0-1.04-0.07-1.56-0.21l-58.7-15.73c-3.2-0.86-5.1-4.15-4.24-7.35l51.01-190.37
		c8.21-30.64,39.81-48.88,70.45-40.67l8.93,2.39c1.54,0.41,2.85,1.42,3.64,2.8c0.8,1.38,1.01,3.02,0.6,4.55L217.97,280.6
		C217.25,283.28,214.83,285.05,212.18,285.05z M160.83,259.08l47.1,12.62l61.24-228.55l-3.13-0.84
		c-24.25-6.5-49.26,7.94-55.75,32.19L160.83,259.08z"/>
</g>
</svg>
