<?xml version="1.0" encoding="utf-8"?>
<!-- Generator: Adobe Illustrator 24.1.2, SVG Export Plug-In . SVG Version: 6.00 Build 0)  -->
<svg version="1.1" id="Warstwa_1" xmlns="http://www.w3.org/2000/svg" xmlns:xlink="http://www.w3.org/1999/xlink" x="0px" y="0px"
	 viewBox="0 0 430 430" style="enable-background:new 0 0 430 430;" xml:space="preserve">
<style type="text/css">
	.st0{fill:#08a88a;}
	.st1{fill:#121331;}
	.st2{fill:#08a88a;}
	.st3{fill:#08A385;}
	.st4{fill:none;}
	.st5{fill:#08A284;}
	.st6{fill:#08A688;}
</style>
<g>
	<path class="st2" d="M388.46,285.18h-57.83c-3.31,0-6-2.69-6-6v-40.41c0-3.31,2.69-6,6-6h56.9c3.31,0,6,2.69,6,6s-2.69,6-6,6h-50.9
		v28.41h51.83c3.31,0,6,2.69,6,6S391.78,285.18,388.46,285.18z"/>
	<path class="st2" d="M340.1,315.72h-9.46c-3.31,0-6-2.69-6-6s2.69-6,6-6h9.46c3.31,0,6,2.69,6,6S343.41,315.72,340.1,315.72z"/>
	<path class="st2" d="M98.53,364.27H98.4c-3.31,0-6-2.69-6-6s2.69-6,6-6h0.14c3.31,0,6,2.69,6,6S101.85,364.27,98.53,364.27z"/>
	<path class="st2" d="M297.27,364.27h-0.14c-3.31,0-6-2.69-6-6s2.69-6,6-6h0.14c3.31,0,6,2.69,6,6S300.58,364.27,297.27,364.27z"/>
	<path class="st1" d="M254.28,302.61h-6.75v-66.88c0-3.31-2.69-6-6-6s-6,2.69-6,6v66.88H103.68v-66.88c0-3.31-2.69-6-6-6
		s-6,2.69-6,6v66.88h-6.75c-3.31,0-6,2.69-6,6s2.69,6,6,6h169.35c3.31,0,6-2.69,6-6S257.59,302.61,254.28,302.61z"/>
	<path class="st1" d="M91.7,148.88c-0.52,0-1.05-0.02-1.57-0.06c-8.36-0.63-16.12-6.27-19.28-14.04c-2.03-4.99-2.05-10.16-1.85-14.1
		c0.01-0.25,2.69-25.48,17.17-43.49c4.13-5.14,9.31-9.73,15.39-13.65c2.79-1.8,6.5-0.99,8.29,1.79c1.79,2.79,0.99,6.5-1.79,8.29
		c-5,3.22-9.21,6.94-12.53,11.08c-11.8,14.68-14.52,36.43-14.54,36.64c-0.14,2.66-0.15,6.12,0.99,8.93c1.46,3.59,5.2,6.3,9.1,6.59
		c0.24,0.02,0.44,0.02,0.63,0.02c3.31,0,6,2.69,6,6S95.01,148.88,91.7,148.88z"/>
	<g>
		<path class="st0" d="M107.73,133.23c-1.02,0-2.06-0.27-3.02-0.84l0,0c-0.1-0.05-0.19-0.11-0.28-0.16
			c-1.18-0.71-2.36-1.38-3.62-2.07c-6.04-3.37-13.56-7.55-15.04-15.81c-1.29-7.14,3.13-13.22,7.03-18.59
			c2.06-2.83,4.18-5.76,5.01-8.25c0.67-2,0.57-5.35,0.48-8.6c-0.11-3.83-0.23-7.78,0.64-11.65c0.56-2.55,1.47-4.74,2.8-6.64
			c0.37-0.55,0.79-1.08,1.23-1.58c4.07-4.6,9.98-5.88,14.67-6.48c0.74-0.1,1.49-0.19,2.25-0.28c5.41-0.66,10.52-1.29,14.26-4.03
			c1.21-0.89,2.57-2.24,4.01-3.67c4.31-4.28,9.67-9.62,17.57-9.16c8.53,0.48,13.18,7.17,16.58,12.06c0.34,0.49,0.68,0.98,1.01,1.44
			c0.66,0.93,1.39,1.83,2.15,2.68c0.06,0.07,0.12,0.13,0.17,0.2c1.5,1.78,1.88,4.34,0.78,6.55c-1.48,2.96-5.09,4.17-8.05,2.68
			c-0.74-0.37-1.39-0.89-1.91-1.51c-1.03-1.15-2.01-2.37-2.91-3.63c-0.36-0.51-0.73-1.03-1.1-1.57c-2.76-3.97-4.9-6.79-7.39-6.93
			c-2.54-0.14-5.55,2.82-8.44,5.69c-1.69,1.68-3.44,3.41-5.36,4.82c-6.26,4.6-13.51,5.49-19.9,6.27c-0.73,0.09-1.45,0.18-2.17,0.27
			c-3.89,0.5-6.12,1.29-7.26,2.58c-0.11,0.12-0.19,0.23-0.28,0.36c-0.45,0.65-0.75,1.43-0.98,2.45c-0.54,2.43-0.45,5.62-0.36,8.71
			c0.12,4.29,0.25,8.73-1.09,12.75c-1.41,4.24-4.09,7.93-6.69,11.5c-2.49,3.42-5.31,7.31-4.93,9.42c0.47,2.66,4.84,5.09,9.06,7.44
			c1.27,0.71,2.58,1.44,3.86,2.21c0.07,0.04,0.14,0.08,0.21,0.12c2.84,1.7,3.85,5.43,2.14,8.27
			C111.74,132.16,109.76,133.23,107.73,133.23z M110.35,121.79C110.35,121.79,110.35,121.79,110.35,121.79
			C110.35,121.79,110.35,121.79,110.35,121.79z"/>
	</g>
	<path class="st0" d="M264.31,241.72H76.9c-3.31,0-6-2.69-6-6v-29.48c0-3.31,2.69-6,6-6h187.41c3.31,0,6,2.69,6,6v29.48
		C270.31,239.04,267.63,241.72,264.31,241.72z M82.9,229.72h175.41v-17.48H82.9V229.72z"/>
	<path class="st1" d="M350.46,200.37h-46.79v-25.82c0-3.31-2.69-6-6-6h-71.76v-19.76l22.16-0.01c3.21,0,5.84-2.52,5.99-5.72
		l0.04-0.94c0.53-12.27,0.52-25.38-3.12-38.2c-5.57-19.62-19.87-36.88-38.25-46.15c-9.06-4.57-19.35-7.32-29.77-7.95
		c-39.5-2.37-75.3,26.99-79.83,65.49c-0.15,1.32-0.28,2.66-0.4,4c-0.46,5.07-0.9,9.86-3.2,13.17c-1.83,2.65-5.09,4.36-8.31,4.36
		H91.2c-3.31,0-6,2.69-6,6c0,3.31,2.68,6,6,6c0,0,0.01,0,0.01,0c0.01,0,0.02,0,0.02,0l22.4-0.01v19.72h-72.1c-3.31,0-6,2.69-6,6
		v182.53c0,3.31,2.69,6,6,6h20.92c2.36,17.77,17.6,31.52,36,31.52s33.64-13.75,36-31.52H261.2c2.36,17.77,17.6,31.52,36,31.52
		s33.64-13.75,36-31.52h55.25c3.31,0,6-2.69,6-6V244.37C394.46,220.11,374.72,200.37,350.46,200.37z M114.68,120.4
		c0.11-1.24,0.23-2.48,0.37-3.69c3.65-31.06,31.66-55.03,63.38-55.03c1.26,0,2.53,0.04,3.8,0.12c8.8,0.53,17.47,2.84,25.09,6.68
		c15.44,7.79,27.44,22.26,32.11,38.72c2.73,9.6,3.1,19.78,2.84,29.59l-131.38,0.05C113.66,131.52,114.2,125.66,114.68,120.4z
		 M125.64,148.82l88.27-0.03v19.76h-88.27V148.82z M47.54,180.55h244.13v25.82v115.99c-15.06,2.31-27.09,13.9-30.08,28.72H134.08
		c-3.35-16.6-18.04-29.14-35.62-29.14s-32.27,12.54-35.62,29.14H47.54V180.55z M98.46,382.6c-13.42,0-24.33-10.92-24.33-24.33
		s10.92-24.33,24.33-24.33c13.02,0,23.68,10.28,24.3,23.14c0,0,0,0,0,0c0,0,0,0,0,0c0.02,0.39,0.03,0.79,0.03,1.18
		C122.8,371.68,111.88,382.6,98.46,382.6z M297.2,382.6c-13.42,0-24.33-10.92-24.33-24.33s10.92-24.33,24.33-24.33
		c0.12,0,0.23,0.01,0.35,0.01c0.04,0,0.08,0.01,0.11,0.01c0.01,0,0.03,0,0.04,0c13.19,0.27,23.83,11.07,23.83,24.32
		C321.54,371.68,310.62,382.6,297.2,382.6z M382.46,351.08h-49.64c-2.93-14.52-14.53-25.92-29.15-28.56V212.37h46.79
		c17.65,0,32,14.35,32,32V351.08z"/>
	<g>
		<path class="st1" d="M179.41,119.03c-0.06,0-0.13,0-0.19,0c-3.31-0.1-5.96-2.88-5.85-6.19c0.1-3.31,2.82-5.91,6.14-5.81
			c0,0,0.1,0,0.1,0c3.31,0.11,5.91,2.88,5.81,6.19C185.31,116.47,182.64,119.03,179.41,119.03z"/>
		<path class="st1" d="M210.73,119.03c-0.06,0-0.13,0-0.19,0c-3.31-0.1-5.96-2.87-5.86-6.19c0.1-3.31,2.81-5.93,6.14-5.81l0.09,0
			c3.31,0.1,5.91,2.87,5.81,6.18C216.63,116.47,213.96,119.03,210.73,119.03z"/>
		<path class="st1" d="M164.36,101.08c-0.06,0-0.13,0-0.19,0c-3.31-0.1-5.96-2.87-5.86-6.19s2.81-5.92,6.14-5.81l0.09,0
			c3.31,0.1,5.91,2.87,5.81,6.18C170.25,98.52,167.59,101.08,164.36,101.08z"/>
		<path class="st1" d="M148.1,119.03c-0.06,0-0.13,0-0.19,0c-3.31-0.1-5.96-2.88-5.85-6.19c0.1-3.31,2.82-5.91,6.14-5.81
			c0,0,0.1,0,0.1,0c3.31,0.11,5.91,2.88,5.81,6.19C153.99,116.47,151.32,119.03,148.1,119.03z"/>
		<path class="st1" d="M195.68,101.08c-0.06,0-0.13,0-0.19,0c-3.31-0.1-5.96-2.88-5.85-6.19c0.1-3.31,2.82-5.91,6.14-5.81
			c0,0,0.1,0,0.1,0c3.31,0.11,5.91,2.88,5.81,6.19C201.57,98.52,198.91,101.08,195.68,101.08z"/>
	</g>
</g>
</svg>
