<?xml version="1.0" encoding="utf-8"?>
<!-- Generator: Adobe Illustrator 24.1.2, SVG Export Plug-In . SVG Version: 6.00 Build 0)  -->
<svg version="1.1" id="Warstwa_1" xmlns="http://www.w3.org/2000/svg" xmlns:xlink="http://www.w3.org/1999/xlink" x="0px" y="0px"
	 viewBox="0 0 430 430" style="enable-background:new 0 0 430 430;" xml:space="preserve">
<style type="text/css">
	.st0{fill:#121331;}
	.st1{fill:#08a88a;}
	.st2{fill:none;stroke:#121331;stroke-width:12;stroke-linecap:round;stroke-linejoin:round;stroke-miterlimit:10;}
	.st3{fill:#00A689;}
</style>
<g>
	<path class="st0" d="M322.6,334.06H107.4c-31.48,0-57.1-25.61-57.1-57.1V153.04c0-31.48,25.62-57.1,57.1-57.1h215.2
		c31.48,0,57.1,25.61,57.1,57.1v123.93C379.7,308.45,354.08,334.06,322.6,334.06z M107.4,107.94c-24.87,0-45.1,20.23-45.1,45.1
		v123.93c0,24.87,20.23,45.1,45.1,45.1h215.2c24.87,0,45.1-20.23,45.1-45.1V153.04c0-24.87-20.23-45.1-45.1-45.1H107.4z"/>
	<g>
		<path class="st1" d="M237.33,177.79c-3.31,0-6,2.69-6,6V209h-33.8v-25.21c0-3.31-2.69-6-6-6s-6,2.69-6,6v62.42c0,3.31,2.69,6,6,6
			s6-2.69,6-6V221h33.8v25.21c0,3.31,2.69,6,6,6s6-2.69,6-6v-62.42C243.33,180.48,240.64,177.79,237.33,177.79z"/>
		<path class="st1" d="M146.84,177.83h-21.12c-0.83,0-1.62,0.17-2.34,0.47c-2.15,0.91-3.67,3.04-3.67,5.53v62.26c0,3.31,2.69,6,6,6
			s6-2.69,6-6V223.2h15.12c6.38,0,12.43-2.29,17.04-6.46c4.76-4.32,7.39-10.08,7.39-16.22
			C171.27,188.01,160.31,177.83,146.84,177.83z M155.83,207.85c-2.39,2.16-5.58,3.35-8.99,3.35h-15.12v-21.37h15.12
			c6.85,0,12.43,4.8,12.43,10.69C159.27,203.23,158.04,205.84,155.83,207.85z"/>
		<path class="st1" d="M290.94,177.83h-21.12c-0.83,0-1.62,0.17-2.34,0.47c-2.15,0.91-3.67,3.04-3.67,5.53v62.26c0,3.31,2.69,6,6,6
			s6-2.69,6-6V223.2h15.12c6.38,0,12.43-2.29,17.04-6.46c4.76-4.32,7.39-10.08,7.39-16.22
			C315.37,188.01,304.41,177.83,290.94,177.83z M299.92,207.85c-2.39,2.16-5.58,3.35-8.99,3.35h-15.12v-21.37h15.12
			c6.85,0,12.43,4.8,12.43,10.69C303.37,203.23,302.14,205.84,299.92,207.85z"/>
	</g>
</g>
</svg>
