<?xml version="1.0" encoding="utf-8"?>
<!-- Generator: Adobe Illustrator 24.1.2, SVG Export Plug-In . SVG Version: 6.00 Build 0)  -->
<svg version="1.1" id="Warstwa_1" xmlns="http://www.w3.org/2000/svg" xmlns:xlink="http://www.w3.org/1999/xlink" x="0px" y="0px"
	 viewBox="0 0 430 430" style="enable-background:new 0 0 430 430;" xml:space="preserve">
<style type="text/css">
	.st0{fill:#121331;}
	.st1{fill:#08a88a;}
	.st2{fill:none;stroke:#121331;stroke-width:12;stroke-linecap:round;stroke-linejoin:round;stroke-miterlimit:10;}
	.st3{fill:#00A689;}
</style>
<g>
	<path class="st0" d="M322.6,334.06H107.4c-31.49,0-57.1-25.61-57.1-57.1V153.04c0-31.48,25.62-57.1,57.1-57.1h215.2
		c31.49,0,57.1,25.61,57.1,57.1v123.93C379.7,308.45,354.08,334.06,322.6,334.06z M107.4,107.94c-24.87,0-45.1,20.23-45.1,45.1
		v123.93c0,24.87,20.23,45.1,45.1,45.1h215.2c24.87,0,45.1-20.23,45.1-45.1V153.04c0-24.87-20.23-45.1-45.1-45.1H107.4z"/>
	<g>
		<path class="st1" d="M132.82,180.26c-3.31,0-6,2.69-6,6v24.07H94.69v-24.07c0-3.31-2.69-6-6-6s-6,2.69-6,6v60.14
			c0,3.31,2.69,6,6,6s6-2.69,6-6v-24.07h32.13v24.07c0,3.31,2.69,6,6,6s6-2.69,6-6v-60.14
			C138.82,182.95,136.13,180.26,132.82,180.26z"/>
		<path class="st1" d="M208.45,180.28h-53.61c-3.31,0-6,2.69-6,6s2.69,6,6,6h20.8v54.11c0,3.31,2.69,6,6,6s6-2.69,6-6v-54.11h20.8
			c3.31,0,6-2.69,6-6S211.76,180.28,208.45,180.28z"/>
		<path class="st1" d="M349.31,240.44H316.9v-54.21c0-3.31-2.69-6-6-6s-6,2.69-6,6v60.21c0,3.31,2.69,6,6,6h38.41c3.31,0,6-2.69,6-6
			S352.62,240.44,349.31,240.44z"/>
		<path class="st1" d="M282.71,180.61c-2.41-0.84-5.08-0.07-6.67,1.92l-19.32,24.17l-19.69-24.21c-1.6-1.97-4.27-2.72-6.66-1.87
			c-2.39,0.85-3.99,3.11-3.99,5.65v60.11c0,3.31,2.69,6,6,6s6-2.69,6-6v-43.23l13.73,16.88c1.14,1.4,2.85,2.21,4.65,2.21
			c0.01,0,0.02,0,0.03,0c1.82-0.01,3.53-0.84,4.66-2.25l13.27-16.61v42.99c0,3.31,2.69,6,6,6s6-2.69,6-6v-60.11
			C286.73,183.73,285.12,181.46,282.71,180.61z"/>
	</g>
</g>
</svg>
