<?xml version="1.0" encoding="utf-8"?>
<!-- Generator: Adobe Illustrator 24.1.2, SVG Export Plug-In . SVG Version: 6.00 Build 0)  -->
<svg version="1.1" id="Warstwa_1" xmlns="http://www.w3.org/2000/svg" xmlns:xlink="http://www.w3.org/1999/xlink" x="0px" y="0px"
	 viewBox="0 0 430 430" style="enable-background:new 0 0 430 430;" xml:space="preserve">
<style type="text/css">
	.st0{fill:#121331;}
	.st1{fill:#08a88a;}
	.st2{fill:none;stroke:#121331;stroke-width:12;stroke-linecap:round;stroke-linejoin:round;stroke-miterlimit:10;}
	.st3{fill:#00A689;}
</style>
<g>
	<path class="st0" d="M322.6,334.06H107.4c-31.49,0-57.1-25.61-57.1-57.1V153.04c0-31.48,25.62-57.1,57.1-57.1h215.2
		c31.49,0,57.1,25.61,57.1,57.1v123.93C379.7,308.45,354.08,334.06,322.6,334.06z M107.4,107.94c-24.87,0-45.1,20.23-45.1,45.1
		v123.93c0,24.87,20.23,45.1,45.1,45.1h215.2c24.87,0,45.1-20.23,45.1-45.1V153.04c0-24.87-20.23-45.1-45.1-45.1H107.4z"/>
	<g>
		<path class="st1" d="M269.96,178.85c-2.77-1.82-6.49-1.05-8.31,1.72l-14.99,22.81l-15-22.93c-1.81-2.77-5.53-3.55-8.31-1.73
			c-2.77,1.81-3.55,5.53-1.73,8.31l19.04,29.08v30.16c0,3.31,2.69,6,6,6s6-2.69,6-6v-30.16l19.03-28.95
			C273.49,184.39,272.72,180.67,269.96,178.85z"/>
		<path class="st1" d="M184.46,177.73h-21.12c-0.62,0-1.22,0.09-1.79,0.27c-2.44,0.76-4.22,3.04-4.22,5.73V246c0,3.31,2.69,6,6,6
			s6-2.69,6-6V223.1h15.12c6.38,0,12.43-2.29,17.04-6.46c4.76-4.32,7.39-10.08,7.39-16.22
			C208.89,187.91,197.93,177.73,184.46,177.73z M193.45,207.75c-2.39,2.16-5.58,3.35-8.99,3.35h-15.12v-21.37h15.12
			c6.85,0,12.43,4.8,12.43,10.69C196.89,203.14,195.67,205.74,193.45,207.75z"/>
	</g>
</g>
</svg>
