<?xml version="1.0" encoding="utf-8"?>
<!-- Generator: Adobe Illustrator 24.1.2, SVG Export Plug-In . SVG Version: 6.00 Build 0)  -->
<svg version="1.1" id="Warstwa_1" xmlns="http://www.w3.org/2000/svg" xmlns:xlink="http://www.w3.org/1999/xlink" x="0px" y="0px"
	 viewBox="0 0 430 430" style="enable-background:new 0 0 430 430;" xml:space="preserve">
<style type="text/css">
	.st0{fill:#121331;}
	.st1{fill:#08a88a;}
	.st2{fill:none;stroke:#121331;stroke-width:12;stroke-linecap:round;stroke-linejoin:round;stroke-miterlimit:10;}
	.st3{fill:#00A689;}
</style>
<g>
	<path class="st0" d="M268.28,159.34c-3.31,0-6,2.69-6,6v41.48c0,12.02-7.04,23.06-17.92,28.14l-76.63,35.76v-164.2
		c0-3.31-2.69-6-6-6s-6,2.69-6,6v216.97c0,3.31,2.69,6,6,6s6-2.69,6-6v-39.52l81.71-38.12c15.1-7.04,24.85-22.36,24.85-39.02v-41.48
		C274.28,162.03,271.59,159.34,268.28,159.34z"/>
	<g>
		<path class="st1" d="M268.28,107.61c-17.57,0-31.87,14.29-31.87,31.87s14.29,31.87,31.87,31.87s31.87-14.29,31.87-31.87
			S285.85,107.61,268.28,107.61z M268.28,159.34c-10.95,0-19.87-8.91-19.87-19.87s8.91-19.87,19.87-19.87s19.87,8.91,19.87,19.87
			S279.23,159.34,268.28,159.34z"/>
		<path class="st1" d="M161.72,48.79c-17.57,0-31.87,14.29-31.87,31.87s14.29,31.87,31.87,31.87s31.87-14.29,31.87-31.87
			S179.29,48.79,161.72,48.79z M161.72,100.52c-10.95,0-19.87-8.91-19.87-19.87s8.91-19.87,19.87-19.87s19.87,8.91,19.87,19.87
			S172.67,100.52,161.72,100.52z"/>
		<path class="st1" d="M161.72,317.48c-17.57,0-31.87,14.29-31.87,31.87c0,17.57,14.29,31.87,31.87,31.87s31.87-14.29,31.87-31.87
			C193.59,331.78,179.29,317.48,161.72,317.48z M161.72,369.21c-10.95,0-19.87-8.91-19.87-19.87s8.91-19.87,19.87-19.87
			s19.87,8.91,19.87,19.87S172.67,369.21,161.72,369.21z"/>
	</g>
</g>
</svg>
