<?xml version="1.0" encoding="utf-8"?>
<!-- Generator: Adobe Illustrator 24.1.2, SVG Export Plug-In . SVG Version: 6.00 Build 0)  -->
<svg version="1.1" id="Warstwa_1" xmlns="http://www.w3.org/2000/svg" xmlns:xlink="http://www.w3.org/1999/xlink" x="0px" y="0px"
	 viewBox="0 0 430 430" style="enable-background:new 0 0 430 430;" xml:space="preserve">
<style type="text/css">
	.st0{fill:#121331;}
	.st1{fill:#08a88a;}
	.st2{fill:none;stroke:#121331;stroke-width:12;stroke-linecap:round;stroke-linejoin:round;stroke-miterlimit:10;}
	.st3{fill:#00A689;}
</style>
<g>
	<path class="st0" d="M322.6,334.06H107.4c-31.48,0-57.1-25.62-57.1-57.1V153.04c0-31.48,25.62-57.1,57.1-57.1h215.2
		c31.48,0,57.1,25.61,57.1,57.1v123.93C379.7,308.45,354.08,334.06,322.6,334.06z M107.4,107.94c-24.87,0-45.1,20.23-45.1,45.1
		v123.93c0,24.87,20.23,45.1,45.1,45.1h215.2c24.87,0,45.1-20.23,45.1-45.1V153.04c0-24.87-20.23-45.1-45.1-45.1H107.4z"/>
	<g>
		<path class="st1" d="M235.94,177.73h-21.12c-0.83,0-1.62,0.17-2.34,0.47c-2.15,0.91-3.67,3.04-3.67,5.53V246c0,3.31,2.69,6,6,6
			s6-2.69,6-6V223.1h15.12c6.39,0,12.44-2.29,17.04-6.46c4.76-4.32,7.39-10.08,7.39-16.22
			C260.37,187.91,249.41,177.73,235.94,177.73z M244.92,207.75c-2.39,2.16-5.58,3.35-8.99,3.35h-15.12v-21.37h15.12
			c6.85,0,12.43,4.8,12.43,10.69C248.37,203.14,247.14,205.74,244.92,207.75z"/>
		<path class="st1" d="M188.18,228.26c-0.01-0.02-0.01-0.03-0.02-0.05l-19.61-47.22c-0.92-2.22-3.07-3.67-5.47-3.7
			c-2.42-0.05-4.58,1.37-5.56,3.57l-21.01,47.34c-0.01,0.02-0.01,0.03-0.02,0.04l-6.8,15.31c-1.34,3.03,0.02,6.57,3.05,7.92
			c3.03,1.34,6.57-0.02,7.92-3.05l5.27-11.86h32.71l4.87,11.73c0.96,2.31,3.19,3.7,5.54,3.7c0.77,0,1.55-0.15,2.3-0.46
			c3.06-1.27,4.51-4.78,3.24-7.84L188.18,228.26z M151.25,224.57l11.57-26.07l10.83,26.07H151.25z"/>
		<path class="st1" d="M282.82,177.73c-3.31,0-6,2.69-6,6V246c0,3.31,2.69,6,6,6s6-2.69,6-6v-62.26
			C288.82,180.42,286.14,177.73,282.82,177.73z"/>
	</g>
</g>
</svg>
