<?xml version="1.0" encoding="utf-8"?>
<!-- Generator: Adobe Illustrator 24.1.2, SVG Export Plug-In . SVG Version: 6.00 Build 0)  -->
<svg version="1.1" id="Warstwa_1" xmlns="http://www.w3.org/2000/svg" xmlns:xlink="http://www.w3.org/1999/xlink" x="0px" y="0px"
	 viewBox="0 0 430 430" style="enable-background:new 0 0 430 430;" xml:space="preserve">
<style type="text/css">
	.st0{fill:#121331;}
	.st1{fill:#08a88a;}
	.st2{fill:none;stroke:#121331;stroke-width:12;stroke-linecap:round;stroke-linejoin:round;stroke-miterlimit:10;}
	.st3{fill:#00A689;}
</style>
<g>
	<path class="st0" d="M390.63,195.65c-10.51-14.96-24.9-26.43-41.72-33.31c-22.51-47.01-70.33-77.27-122.56-77.27
		c-47.21,0-91.43,24.99-116.42,65.49c-12.86-1.73-25.62,2.31-35.58,11.43c-10.25,9.39-15.67,22.69-14.93,36.24
		c-23.05,14.48-37.22,39.9-37.22,67.29c0,43.79,35.63,79.42,79.42,79.42h211.36c52.29,0,94.83-42.54,94.83-94.83
		C407.81,230.48,401.86,211.65,390.63,195.65z M312.97,332.93H101.61c-37.17,0-67.42-30.24-67.42-67.42
		c0-24.37,13.22-46.92,34.5-58.85c2.17-1.22,3.36-3.64,3-6.11c-1.61-10.97,2.41-22.08,10.75-29.72c8.12-7.43,18.73-10.28,29.11-7.81
		c9.72,2.32,18.22,8.52,23.33,17.02c4.52,7.52,5.84,16.16,3.72,24.31c-0.83,3.21,1.09,6.48,4.3,7.32c3.21,0.83,6.48-1.09,7.32-4.3
		c2.94-11.3,1.15-23.2-5.05-33.51c-5.37-8.93-13.57-15.93-23.14-19.97c23.11-35.23,62.42-56.83,104.31-56.83
		c48.36,0,92.6,28.44,112.71,72.46c10.35,22.66,13.61,48.73,9.18,73.42c-0.59,3.26,1.58,6.38,4.84,6.97c0.36,0.06,0.72,0.1,1.07,0.1
		c2.85,0,5.38-2.04,5.9-4.94c3.94-21.92,2.33-44.85-4.45-65.98c24.52,14.79,40.22,41.77,40.22,71.01
		C395.81,295.77,358.65,332.93,312.97,332.93z"/>
	<g>
		<path class="st1" d="M181.36,223.2c-1.96-2.67-5.72-3.24-8.39-1.27L136,249.17c-1.53,1.13-2.44,2.92-2.44,4.83s0.91,3.7,2.44,4.83
			l36.98,27.25c1.07,0.79,2.32,1.17,3.55,1.17c1.84,0,3.66-0.84,4.83-2.44c1.97-2.67,1.4-6.42-1.27-8.39L149.67,254l30.42-22.42
			C182.76,229.62,183.33,225.87,181.36,223.2z"/>
		<path class="st1" d="M308,249.17l-36.98-27.25c-2.67-1.97-6.42-1.4-8.39,1.27c-1.97,2.67-1.4,6.42,1.27,8.39L294.33,254
			l-30.42,22.42c-2.67,1.97-3.24,5.72-1.27,8.39c1.18,1.6,2.99,2.44,4.83,2.44c1.24,0,2.48-0.38,3.55-1.17L308,258.83
			c1.53-1.13,2.44-2.92,2.44-4.83S309.54,250.3,308,249.17z"/>
		<path class="st1" d="M232.27,221.05c-3.16-1.02-6.54,0.71-7.56,3.86l-17.66,54.49c-1.02,3.15,0.71,6.54,3.86,7.56
			c0.62,0.2,1.24,0.29,1.85,0.29c2.53,0,4.88-1.61,5.71-4.15l17.66-54.49C237.15,225.46,235.42,222.07,232.27,221.05z"/>
	</g>
</g>
</svg>
