<?xml version="1.0" encoding="utf-8"?>
<!-- Generator: Adobe Illustrator 24.1.2, SVG Export Plug-In . SVG Version: 6.00 Build 0)  -->
<svg version="1.1" id="Warstwa_1" xmlns="http://www.w3.org/2000/svg" xmlns:xlink="http://www.w3.org/1999/xlink" x="0px" y="0px"
	 viewBox="0 0 430 430" style="enable-background:new 0 0 430 430;" xml:space="preserve">
<style type="text/css">
	.st0{fill:#121331;}
	.st1{fill:#08a88a;}
	.st2{fill:#08a88a;}
	.st3{fill:none;}
	.st4{fill:none;stroke:#121331;stroke-width:12;stroke-linecap:round;stroke-linejoin:round;stroke-miterlimit:10;}
	.st5{fill:none;stroke:#08a88a;stroke-width:12;stroke-linecap:round;stroke-linejoin:round;stroke-miterlimit:10;}
	.st6{fill:#08A385;}
</style>
<g>
	<g>
		<path class="st1" d="M291.19,130.57c-7.18-1.65-19.78-5.92-23.51-15.97c-3.62-9.76,1.31-24.22,14.26-41.81
			c1.97-2.67,1.4-6.42-1.27-8.39c-2.67-1.96-6.42-1.4-8.39,1.27c-15.69,21.3-21.02,39.16-15.85,53.09c1.69,4.57,4.33,8.32,7.52,11.4
			c-5.86-1.7-11.41-4.61-15.74-8.94c-10.13-10.12-12.44-26.7-6.69-47.97c0.87-3.2-1.02-6.49-4.22-7.36
			c-3.19-0.86-6.49,1.02-7.36,4.22c-8.78,32.41,0.48,50.3,9.79,59.59c10.26,10.25,24.68,14.29,37.49,14.29
			c5.12,0,9.98-0.65,14.21-1.8c2.65-0.72,4.48-3.16,4.42-5.91C295.79,133.55,293.87,131.19,291.19,130.57z"/>
		<path class="st1" d="M114.09,219.5c-16.86,0-30.58,12.51-30.58,27.88c0,3.31,2.69,6,6,6s6-2.69,6-6c0-8.75,8.33-15.88,18.58-15.88
			s18.58,7.12,18.58,15.88c0,3.31,2.69,6,6,6s6-2.69,6-6C144.67,232.01,130.95,219.5,114.09,219.5z"/>
	</g>
	<g>
		<path class="st0" d="M217.08,159.86c-7.25,0-14,3.9-17.62,10.17c-1.66,2.87-0.67,6.54,2.2,8.2c2.87,1.66,6.54,0.67,8.2-2.2
			c1.48-2.57,4.25-4.17,7.22-4.17c2.97,0,5.73,1.6,7.22,4.17c1.11,1.93,3.13,3,5.2,3c1.02,0,2.05-0.26,2.99-0.8
			c2.87-1.66,3.85-5.33,2.2-8.2C231.07,163.76,224.33,159.86,217.08,159.86z"/>
		<path class="st0" d="M307.88,159.86c-7.25,0-14,3.9-17.62,10.17c-1.66,2.87-0.67,6.54,2.2,8.2c2.87,1.66,6.54,0.67,8.2-2.2
			c1.48-2.57,4.25-4.17,7.22-4.17c2.97,0,5.73,1.6,7.22,4.17c1.11,1.93,3.13,3,5.2,3c1.02,0,2.05-0.26,2.99-0.8
			c2.87-1.66,3.85-5.33,2.2-8.2C321.87,163.76,315.12,159.86,307.88,159.86z"/>
		<path class="st0" d="M262.51,213.33c-14.15,0-24.82,7.18-24.82,16.7s10.67,16.7,24.82,16.7s24.82-7.18,24.82-16.7
			S276.66,213.33,262.51,213.33z M262.51,234.73c-8.27,0-12.82-3.53-12.82-4.7s4.55-4.7,12.82-4.7s12.82,3.53,12.82,4.7
			S270.78,234.73,262.51,234.73z"/>
		<path class="st0" d="M397.67,171.77c-4.19-7.43-11.78-12.22-20.29-12.83c-0.09-0.01-0.17-0.01-0.26-0.01l-5.15-0.14
			c-6.79-54.36-53.29-96.57-109.46-96.57c-56.17,0-102.67,42.2-109.46,96.57l-5.21,0.14c-0.09,0-0.17,0.01-0.26,0.01
			c-8.51,0.6-16.1,5.4-20.29,12.82c-4.19,7.42-4.39,16.39-0.51,23.99c2.11,4.15,5.33,7.64,9.3,10.09c3.99,2.44,8.55,3.74,13.18,3.75
			l9.49,0.03c4.14,11.42,10.11,21.96,17.55,31.28c-4.32,10.86-6.51,22.33-6.51,34.15c0,29.5,5.6,50.18,17.62,65.09
			c15,18.59,39.56,27.63,75.09,27.63c82.17,0,92.71-49.55,92.71-92.72c0-11.82-2.19-23.29-6.51-34.15
			c7.45-9.32,13.42-19.86,17.55-31.28l9.43-0.03c4.64-0.01,9.2-1.31,13.21-3.76c3.96-2.44,7.17-5.93,9.28-10.08
			C402.06,188.16,401.86,179.19,397.67,171.77z M149.29,197.6c-2.44-0.01-4.84-0.69-6.93-1.97c-2.09-1.29-3.78-3.12-4.89-5.32
			c-2.07-4.06-1.97-8.67,0.27-12.64c2.22-3.94,6.07-6.39,10.57-6.75l3.9-0.11c-0.01,0.4-0.02,0.8-0.02,1.2c0,0.04,0,0.08,0,0.12v0.4
			c0,0.04,0,0.08,0,0.12c0.04,8.58,1.07,16.93,2.97,24.95L149.29,197.6z M328.43,332.62c-12.5,15.58-34.07,23.15-65.93,23.15
			c-70.93,0-80.71-38.8-80.71-80.72c0-8.25,1.24-16.3,3.66-24.04c9.54,9.32,20.75,16.93,33.14,22.32
			c5.46,21.88,23.48,37.45,43.91,37.45s38.45-15.57,43.91-37.45c12.39-5.4,23.6-13.01,33.14-22.32c2.42,7.74,3.66,15.79,3.66,24.04
			C343.22,301.76,338.52,320.05,328.43,332.62z M233.12,278.48c9.36,2.59,19.22,3.98,29.39,3.98s20.03-1.39,29.39-3.98
			c-5.83,12.21-17.03,20.31-29.39,20.31S238.95,290.69,233.12,278.48z M262.51,270.46c-54.15,0-98.21-44-98.32-98.12
			c0.11-54.12,44.17-98.12,98.32-98.12c54.15,0,98.21,44,98.32,98.12C360.72,226.47,316.66,270.46,262.51,270.46z M387.49,190.31
			c-1.11,2.19-2.81,4.03-4.88,5.3c-2.11,1.29-4.51,1.98-6.96,1.98l-5.8,0.02c1.9-8.02,2.93-16.37,2.97-24.95c0-0.04,0-0.08,0-0.12
			v-0.4c0-0.04,0-0.08,0-0.12c0-0.4-0.01-0.8-0.02-1.2l3.84,0.11c4.5,0.36,8.35,2.81,10.57,6.75
			C389.46,181.64,389.56,186.25,387.49,190.31z"/>
		<path class="st0" d="M148.21,241.37H79.97H35.03c-3.31,0-6,2.69-6,6s2.69,6,6,6h38.94v3.8c0,17.83,14.5,32.33,32.33,32.33h15.58
			c17.83,0,32.33-14.5,32.33-32.33v-9.8C154.21,244.06,151.52,241.37,148.21,241.37z M142.21,257.17c0,11.21-9.12,20.33-20.33,20.33
			H106.3c-11.21,0-20.33-9.12-20.33-20.33v-3.8h56.23V257.17z"/>
	</g>
</g>
</svg>
