<?xml version="1.0" encoding="utf-8"?>
<!-- Generator: Adobe Illustrator 24.1.2, SVG Export Plug-In . SVG Version: 6.00 Build 0)  -->
<svg version="1.1" id="Warstwa_1" xmlns="http://www.w3.org/2000/svg" xmlns:xlink="http://www.w3.org/1999/xlink" x="0px" y="0px"
	 viewBox="0 0 430 430" style="enable-background:new 0 0 430 430;" xml:space="preserve">
<style type="text/css">
	.st0{fill:#121331;}
	.st1{fill:#08a88a;}
	.st2{fill:#08a88a;}
	.st3{fill:none;}
	.st4{fill:none;stroke:#121331;stroke-width:12;stroke-linecap:round;stroke-linejoin:round;stroke-miterlimit:10;}
	.st5{fill:none;stroke:#08a88a;stroke-width:12;stroke-linecap:round;stroke-linejoin:round;stroke-miterlimit:10;}
	.st6{fill:#08A385;}
</style>
<g>
	<g>
		<path class="st1" d="M233.81,168.06c-0.15-0.36-0.33-0.71-0.55-1.03c-0.22-0.33-0.47-0.64-0.74-0.91
			c-0.28-0.28-0.59-0.53-0.91-0.75c-0.33-0.22-0.68-0.4-1.04-0.55c-0.36-0.15-0.74-0.27-1.12-0.34c-1.95-0.4-4.02,0.24-5.42,1.64
			c-0.27,0.27-0.53,0.58-0.74,0.91c-0.22,0.32-0.41,0.67-0.56,1.03c-0.15,0.37-0.26,0.74-0.34,1.13c-0.08,0.38-0.12,0.78-0.12,1.17
			c0,1.58,0.64,3.12,1.76,4.24c1.12,1.12,2.66,1.76,4.24,1.76c0.39,0,0.79-0.04,1.18-0.12c0.38-0.08,0.76-0.19,1.12-0.34
			c0.36-0.15,0.71-0.34,1.04-0.55c0.32-0.22,0.63-0.47,0.91-0.75c1.11-1.12,1.75-2.66,1.75-4.24c0-0.39-0.04-0.79-0.11-1.17
			C234.08,168.8,233.96,168.43,233.81,168.06z"/>
		<path class="st1" d="M256.49,111.5c-2.63-2.01-6.4-1.51-8.41,1.12L228,138.87l-20.08-26.25c-2.01-2.63-5.78-3.13-8.41-1.12
			c-2.63,2.01-3.13,5.78-1.12,8.41l24.84,32.48c0.02,0.03,0.05,0.06,0.08,0.09c0.1,0.12,0.2,0.24,0.31,0.36
			c0.06,0.06,0.11,0.12,0.17,0.18c0.09,0.09,0.19,0.18,0.28,0.26c0.08,0.07,0.15,0.13,0.23,0.19c0.02,0.01,0.03,0.03,0.05,0.05
			c0.03,0.02,0.06,0.04,0.09,0.06c0.21,0.16,0.43,0.3,0.66,0.42c0.06,0.03,0.11,0.06,0.17,0.09c0.26,0.13,0.52,0.25,0.79,0.34
			c0.06,0.02,0.12,0.03,0.18,0.05c0.22,0.07,0.44,0.12,0.66,0.16c0.09,0.02,0.17,0.03,0.26,0.04c0.27,0.04,0.54,0.06,0.81,0.06
			c0.01,0,0.01,0,0.02,0c0,0,0,0,0,0s0,0,0,0c0.01,0,0.01,0,0.02,0c0.27,0,0.54-0.03,0.81-0.06c0.09-0.01,0.17-0.03,0.26-0.04
			c0.22-0.04,0.44-0.09,0.66-0.16c0.06-0.02,0.12-0.03,0.18-0.05c0.27-0.09,0.53-0.21,0.79-0.34c0.06-0.03,0.12-0.07,0.18-0.1
			c0.22-0.12,0.44-0.26,0.65-0.41c0.03-0.02,0.06-0.04,0.1-0.06c0.02-0.02,0.04-0.03,0.06-0.05c0.07-0.06,0.14-0.12,0.22-0.18
			c0.1-0.09,0.2-0.18,0.3-0.27c0.05-0.05,0.11-0.11,0.16-0.17c0.11-0.12,0.22-0.24,0.32-0.37c0.02-0.03,0.05-0.05,0.07-0.08
			l24.84-32.48C259.62,117.28,259.12,113.51,256.49,111.5z"/>
		<path class="st1" d="M151.99,117.94c-3.23-0.75-6.45,1.27-7.2,4.5l-21.07,91.27c-0.75,3.23,1.27,6.45,4.5,7.2
			c0.45,0.1,0.91,0.16,1.35,0.16c2.73,0,5.2-1.88,5.84-4.65l21.07-91.27C157.23,121.91,155.22,118.69,151.99,117.94z"/>
		<path class="st1" d="M130.89,364.4h-29.64l26.84-116.26c0.75-3.23-1.27-6.45-4.5-7.2c-3.23-0.75-6.45,1.27-7.2,4.5L88.94,364.4
			H56.53c-11.11,0-21.81,8.65-24.36,19.69l-3.63,15.74c-0.41,1.78,0.01,3.65,1.15,5.08c1.14,1.43,2.87,2.27,4.7,2.27h104.45
			c2.79,0,5.22-1.93,5.85-4.65l3.63-15.74c1.34-5.83,0.17-11.61-3.21-15.86C141.8,366.78,136.62,364.4,130.89,364.4z M136.62,384.1
			l-2.56,11.09H41.92l1.94-8.39c1.28-5.54,7.2-10.39,12.67-10.39h74.36c2.11,0,3.77,0.69,4.82,2
			C136.82,379.8,137.14,381.82,136.62,384.1z"/>
	</g>
	<g>
		<path class="st0" d="M201.84,93.44c1.59,5.06,6.34,8.47,11.58,8.47c0.41,0,0.82-0.02,1.23-0.06c0.07-0.01,0.15-0.02,0.22-0.03
			l18.16-2.52c0.09-0.01,0.18-0.03,0.26-0.04c0.92-0.17,20.12-4.09,23.69-32.11c0.09,0,0.19,0.01,0.28,0.01
			c12.23,0,22.17-9.95,22.17-22.17s-9.95-22.17-22.17-22.17c-6.68,0-12.84,2.96-16.96,7.86c-3.36-1.25-6.67-1.83-9.32-1.93
			c-2.55-0.32-13.97-1.2-22.85,7.04c-8.08,7.49-11.37,19.84-9.8,36.66C199.05,81,200.34,88.65,201.84,93.44z M257.26,34.81
			c5.61,0,10.17,4.56,10.17,10.17c0,5.52-4.42,10.02-9.91,10.16c0-0.02,0-0.03,0-0.05c-0.24-8.03-3.07-13.78-6.95-17.83
			C252.35,35.7,254.7,34.81,257.26,34.81z M216.2,44.66c3.79-3.57,8.71-4.12,11.37-4.12c1.16,0,1.89,0.1,1.9,0.11
			c0.26,0.04,0.56,0.07,0.83,0.08c1.23,0.04,4.9,0.35,8.33,2.3c0.38,0.32,0.8,0.59,1.27,0.81c2.95,2.11,5.45,5.66,5.63,11.61
			c0.81,27.27-12.89,31.6-14.4,31.99l-17.72,2.46c-0.06,0-0.11-0.04-0.12-0.06c-1.23-3.93-2.36-10.82-3.02-18.47
			C209.08,58.68,211.13,49.44,216.2,44.66z"/>
		<path class="st0" d="M353.38,227.89l-12.4-9.37l12.99-22.85l0.3-0.53c1.63-2.88,0.62-6.54-2.27-8.18
			c-2.88-1.63-6.55-0.62-8.18,2.27l-12.51,22l-17.24-13.02l-16.22-44.94c-7.53-26.01-22.45-40.46-44.33-42.97
			c-8.42-0.96-16.98-1.45-25.42-1.45c-0.03,0-0.07,0-0.1,0c0,0,0,0-0.01,0c-0.03,0-0.06,0-0.1,0c-8.45,0-17,0.49-25.42,1.45
			c-21.89,2.5-36.8,16.96-44.33,42.97l-16.22,44.94l-39.3,29.68c-1.94,1.46-2.8,3.96-2.19,6.31c0.29,1.1,3.08,10.93,12.03,15.91
			c3.25,1.81,6.81,2.71,10.63,2.71c2.73,0,5.59-0.46,8.58-1.38c0.67-0.21,1.29-0.53,1.85-0.95l36.11-27.31
			c0.87-0.66,1.55-1.54,1.95-2.56l18.02-45.13l1.9,14.46l-38.73,86.39c-0.83,1.86-0.67,4.01,0.44,5.72c1.11,1.71,3,2.74,5.04,2.74
			h20.6l17.37,93.84c-2.76,3.24-8.36,9.85-15.29,18.26c-1.48,1.79-1.79,4.28-0.8,6.38c0.99,2.1,3.1,3.44,5.43,3.44h42.36
			c0.01,0,0.02,0,0.03,0s0.02,0,0.03,0h42.36c2.32,0,4.44-1.34,5.43-3.44c0.99-2.1,0.68-4.58-0.8-6.38
			c-6.93-8.41-12.53-15.02-15.3-18.26l17.37-93.84h20.67c2.03,0,3.93-1.03,5.04-2.74c1.11-1.71,1.27-3.86,0.44-5.72l-38.77-86.5
			l1.94-14.46l18.06,45.23c0.41,1.02,1.08,1.9,1.95,2.56l36.11,27.31c0.56,0.42,1.18,0.74,1.85,0.95c2.99,0.92,5.85,1.38,8.58,1.38
			c3.83,0,7.38-0.91,10.63-2.71c8.95-4.98,11.74-14.81,12.03-15.91C356.19,231.85,355.32,229.36,353.38,227.89z M221.92,394.72
			h-23.57c5.37-6.4,8.79-10.38,8.84-10.43c1.19-1.38,1.68-3.22,1.35-5.01l-17.49-94.48h30.87V394.72z M247.36,379.28
			c-0.33,1.79,0.17,3.63,1.36,5.01c0.05,0.06,3.47,4.03,8.84,10.43h-23.57V284.8h30.86L247.36,379.28z M288.46,272.8h-60.42
			c-0.02,0-0.03,0-0.05,0c-0.01,0-0.02,0-0.03,0s-0.02,0-0.03,0c-0.02,0-0.03,0-0.05,0h-60.36l24.18-53.94v4.43
			c0,17.78,14.46,32.24,32.24,32.24H232c17.78,0,32.24-14.46,32.24-32.24v-4.51L288.46,272.8z M203.69,223.3v-26.48h48.55v26.48
			c0,11.16-9.08,20.24-20.24,20.24h-8.06C212.77,243.54,203.69,234.46,203.69,223.3z M337.65,239.66c-2.41,1.32-5.3,1.51-8.82,0.59
			l-33.88-25.63l-25.89-64.83c0-0.01-0.01-0.01-0.01-0.02l-0.03-0.08c-0.02-0.05-0.04-0.09-0.07-0.14
			c-0.05-0.12-0.11-0.24-0.17-0.36c-0.04-0.08-0.09-0.16-0.13-0.24c-0.05-0.09-0.1-0.18-0.15-0.26c-0.06-0.09-0.12-0.18-0.18-0.27
			c-0.05-0.07-0.1-0.14-0.15-0.2c-0.07-0.09-0.15-0.18-0.22-0.26c-0.05-0.06-0.1-0.12-0.16-0.18c-0.08-0.08-0.16-0.16-0.24-0.23
			c-0.06-0.06-0.13-0.12-0.19-0.18c-0.08-0.06-0.15-0.13-0.23-0.19c-0.08-0.06-0.16-0.12-0.24-0.18c-0.07-0.05-0.14-0.1-0.22-0.14
			c-0.09-0.06-0.19-0.12-0.28-0.17c-0.07-0.04-0.14-0.07-0.21-0.11c-0.1-0.05-0.21-0.1-0.31-0.15c-0.07-0.03-0.15-0.06-0.23-0.09
			c-0.1-0.04-0.2-0.08-0.31-0.12c-0.09-0.03-0.19-0.06-0.29-0.08c-0.09-0.02-0.18-0.05-0.27-0.07c-0.13-0.03-0.26-0.05-0.38-0.07
			c-0.05-0.01-0.11-0.02-0.16-0.03c-0.01,0-0.02,0-0.03,0c-0.16-0.02-0.32-0.03-0.47-0.04c-0.04,0-0.08-0.01-0.12-0.01
			c-0.17-0.01-0.35,0-0.52,0.01c-0.02,0-0.05,0-0.07,0c-0.18,0.01-0.35,0.04-0.53,0.06c-0.02,0-0.04,0-0.05,0.01
			c-0.17,0.03-0.33,0.07-0.5,0.11c-0.02,0.01-0.05,0.01-0.07,0.02c-0.16,0.04-0.32,0.1-0.48,0.16c-0.03,0.01-0.05,0.02-0.08,0.03
			c-0.03,0.01-0.06,0.02-0.09,0.03c-0.14,0.05-0.27,0.12-0.4,0.18c-0.01,0.01-0.03,0.01-0.04,0.02c-0.52,0.26-0.99,0.59-1.41,0.97
			c0,0-0.01,0-0.01,0.01c-0.13,0.12-0.25,0.25-0.37,0.38c-0.02,0.02-0.03,0.03-0.05,0.05c-0.1,0.12-0.2,0.23-0.29,0.36
			c-0.03,0.04-0.06,0.08-0.09,0.12c-0.07,0.1-0.14,0.21-0.21,0.32c-0.04,0.06-0.08,0.13-0.12,0.19c-0.05,0.09-0.1,0.19-0.15,0.28
			c-0.04,0.08-0.08,0.17-0.12,0.25c-0.04,0.09-0.07,0.18-0.11,0.27c-0.04,0.09-0.07,0.18-0.1,0.28c-0.03,0.1-0.06,0.2-0.09,0.3
			c-0.02,0.09-0.05,0.18-0.07,0.27c-0.03,0.12-0.05,0.24-0.07,0.36c-0.01,0.06-0.03,0.12-0.03,0.18l-4.51,33.69h-50.06l-4.41-33.59
			c0,0,0,0,0-0.01l-0.01-0.08c-0.01-0.06-0.02-0.12-0.03-0.18c-0.02-0.12-0.04-0.25-0.07-0.37c-0.02-0.1-0.05-0.19-0.08-0.29
			c-0.03-0.09-0.05-0.18-0.08-0.27c-0.04-0.11-0.08-0.22-0.12-0.33c-0.03-0.07-0.05-0.14-0.08-0.21c-0.05-0.11-0.11-0.22-0.16-0.33
			c-0.03-0.06-0.06-0.12-0.1-0.18c-0.06-0.11-0.12-0.21-0.19-0.31c-0.04-0.06-0.08-0.13-0.12-0.19c-0.06-0.09-0.13-0.18-0.2-0.27
			c-0.05-0.07-0.1-0.14-0.16-0.2c-0.07-0.08-0.14-0.15-0.21-0.22c-0.06-0.07-0.13-0.14-0.2-0.2c-0.07-0.07-0.15-0.13-0.22-0.2
			c-0.07-0.06-0.14-0.12-0.21-0.18c-0.09-0.07-0.17-0.13-0.26-0.19c-0.07-0.05-0.13-0.1-0.2-0.14c-0.11-0.07-0.23-0.14-0.35-0.21
			c-0.05-0.03-0.1-0.06-0.14-0.08c-0.16-0.08-0.33-0.16-0.5-0.23c-0.01,0-0.02-0.01-0.03-0.01c0,0,0,0-0.01,0
			c-0.51-0.21-1.06-0.34-1.63-0.39c-0.05,0-0.09-0.01-0.14-0.02c-0.08-0.01-0.16,0-0.24-0.01c-0.12,0-0.25-0.01-0.37-0.01
			c-0.04,0-0.07,0.01-0.11,0.01c-0.17,0.01-0.34,0.02-0.5,0.04c-0.01,0-0.01,0-0.02,0c-0.03,0-0.06,0.01-0.1,0.02
			c-0.16,0.02-0.31,0.05-0.47,0.09c-0.07,0.02-0.14,0.04-0.21,0.06c-0.12,0.03-0.23,0.06-0.35,0.1c-0.09,0.03-0.17,0.06-0.26,0.1
			c-0.09,0.04-0.19,0.07-0.28,0.11c-0.09,0.04-0.18,0.09-0.27,0.13c-0.08,0.04-0.17,0.08-0.25,0.13c-0.08,0.05-0.17,0.1-0.25,0.15
			c-0.08,0.05-0.17,0.11-0.25,0.16c-0.07,0.05-0.14,0.1-0.21,0.16c-0.09,0.07-0.18,0.14-0.26,0.21c-0.06,0.05-0.11,0.1-0.17,0.15
			c-0.09,0.08-0.18,0.17-0.26,0.25c-0.05,0.05-0.09,0.1-0.14,0.16c-0.08,0.09-0.16,0.18-0.24,0.28c-0.05,0.06-0.09,0.12-0.13,0.18
			c-0.07,0.09-0.13,0.19-0.2,0.28c-0.05,0.08-0.1,0.17-0.15,0.26c-0.05,0.08-0.09,0.16-0.14,0.24c-0.06,0.12-0.12,0.25-0.17,0.38
			c-0.02,0.04-0.04,0.09-0.06,0.13l-0.02,0.06c0,0.01-0.01,0.02-0.01,0.03l-25.89,64.83l-33.88,25.63
			c-3.52,0.92-6.41,0.72-8.82-0.59c-2.23-1.22-3.77-3.24-4.78-5l37-27.94c0.93-0.7,1.63-1.66,2.03-2.75l16.9-46.81
			c0.04-0.13,0.09-0.25,0.12-0.38c6.21-21.62,17.09-32.6,34.22-34.56c7.97-0.91,16.07-1.37,24.06-1.37c0.03,0,0.08,0.01,0.1,0
			c0,0,0,0,0,0c8.01,0,16.15,0.46,24.16,1.37c17.13,1.96,28.01,12.94,34.22,34.56c0.04,0.13,0.08,0.25,0.12,0.38l16.9,46.81
			c0.39,1.09,1.1,2.05,2.03,2.75l37,27.94C341.42,236.43,339.87,238.44,337.65,239.66z"/>
	</g>
	<path class="st1" d="M348.75,198.73c-1.02,0-2.04-0.26-2.96-0.78c-2.03-1.15-3.2-3.37-3.02-5.7l4.61-57.3
		c0.16-2.04,1.36-3.86,3.17-4.82c10.17-5.38,26.07,2.78,30.7,5.42s19.78,12.11,20.36,23.61c0.1,2.05-0.85,4.01-2.52,5.19
		l-46.88,33.28C351.19,198.35,349.97,198.73,348.75,198.73z M358.99,140.33l-3.22,40.06l32.77-23.27
		c-1.89-2.93-6.24-7.19-13.21-11.15C368.36,142.01,362.47,140.45,358.99,140.33z"/>
</g>
</svg>
