<?xml version="1.0" encoding="utf-8"?>
<!-- Generator: Adobe Illustrator 24.1.2, SVG Export Plug-In . SVG Version: 6.00 Build 0)  -->
<svg version="1.1" id="Warstwa_1" xmlns="http://www.w3.org/2000/svg" xmlns:xlink="http://www.w3.org/1999/xlink" x="0px" y="0px"
	 viewBox="0 0 430 430" style="enable-background:new 0 0 430 430;" xml:space="preserve">
<style type="text/css">
	.st0{fill:#121331;}
	.st1{fill:#08a88a;}
	.st2{fill:none;stroke:#121331;stroke-width:12;stroke-linecap:round;stroke-linejoin:round;stroke-miterlimit:10;}
	.st3{fill:#00A689;}
</style>
<g>
	<g>
		<path class="st1" d="M348.78,268.66h-54.02c-3.31,0-6,2.69-6,6s2.69,6,6,6h54.02c3.31,0,6-2.69,6-6S352.09,268.66,348.78,268.66z"
			/>
		<path class="st1" d="M154.87,48.88H101.5c-3.31,0-6,2.69-6,6v53.37c0,3.31,2.69,6,6,6h53.37c3.31,0,6-2.69,6-6V54.88
			C160.87,51.57,158.18,48.88,154.87,48.88z M148.87,102.25H107.5V60.88h41.37V102.25z"/>
		<path class="st1" d="M261.05,268.66h-54.02c-3.31,0-6,2.69-6,6s2.69,6,6,6h54.02c3.31,0,6-2.69,6-6S264.36,268.66,261.05,268.66z"
			/>
	</g>
	<path class="st0" d="M375.12,336.02h-20.34v-73.39c0-1.34-0.19-2.71-0.56-4.08l-7-25.88c3.37-2.65,5.55-6.76,5.55-11.37v-1.42
		c0-7.98-6.49-14.46-14.46-14.46h-33.1c-7.98,0-14.46,6.49-14.46,14.46v1.42c0,4.61,2.18,8.72,5.55,11.37l-7,25.89
		c-0.37,1.37-0.55,2.74-0.55,4.07v73.39h-21.69v-73.39c0-1.33-0.19-2.7-0.56-4.08l-7-25.88c3.37-2.65,5.55-6.76,5.55-11.37v-1.42
		c0-7.98-6.49-14.46-14.46-14.46h-33.1c-7.98,0-14.46,6.49-14.46,14.46v1.42c0,4.61,2.18,8.72,5.55,11.37l-7,25.89
		c-0.37,1.37-0.55,2.74-0.55,4.07v73.39h-54.35c0.53-1.65,0.82-3.41,0.82-5.24v-42.74c0-9.5-3.7-18.42-10.4-25.13
		c-0.33-0.33-0.68-0.66-1.02-0.96c-2.49-2.19-6.28-1.95-8.47,0.54c-2.19,2.49-1.95,6.28,0.54,8.47c0.16,0.14,0.31,0.29,0.46,0.44
		c4.45,4.44,6.89,10.36,6.89,16.65v42.74c0,2.89-2.35,5.24-5.24,5.24H93.65c-2.9,0-5.25-2.35-5.25-5.24v-42.74
		c0-6.51,2.73-12.77,7.48-17.2c2.43-2.26,2.56-6.05,0.3-8.48c-2.26-2.43-6.05-2.56-8.48-0.3c-7.18,6.69-11.3,16.16-11.3,25.98v42.74
		c0,1.83,0.29,3.59,0.82,5.24H54.88c-3.31,0-6,2.69-6,6v33.1c0,3.31,2.69,6,6,6h320.24c3.31,0,6-2.69,6-6v-33.1
		C381.12,338.71,378.43,336.02,375.12,336.02z M213.01,336.02v-73.39c0-0.28,0.05-0.62,0.14-0.95l7.01-25.92h27.74l7.01,25.91
		c0.09,0.34,0.14,0.68,0.14,0.96v73.39H213.01z M215.02,219.88c0-1.34,1.13-2.46,2.46-2.46h33.1c1.34,0,2.46,1.13,2.46,2.46v1.42
		c0,1.34-1.13,2.46-2.46,2.46h-0.93h-31.24h-0.93c-1.34,0-2.46-1.13-2.46-2.46V219.88z M302.75,219.88c0-1.34,1.13-2.46,2.46-2.46
		h33.1c1.34,0,2.46,1.13,2.46,2.46v1.42c0,1.34-1.13,2.46-2.46,2.46h-0.93h-31.24h-0.93c-1.34,0-2.46-1.13-2.46-2.46V219.88z
		 M300.74,262.64c0-0.28,0.05-0.62,0.14-0.95l7.01-25.92h27.74l7.01,25.91c0.09,0.34,0.14,0.68,0.14,0.96v73.39h-42.04V262.64z
		 M369.12,369.12H60.88v-21.1h238.71h44.33h25.2V369.12z"/>
	<path class="st1" d="M133.63,272.45H90.26c-6.65,0-12.06-5.41-12.06-12.06v-8.95c0-6.65,5.41-12.06,12.06-12.06h43.36
		c6.65,0,12.06,5.41,12.06,12.06v8.95C145.69,267.04,140.28,272.45,133.63,272.45z M90.26,251.37l-0.06,9.02l43.43,0.06
		c0.04,0,0.06-0.03,0.06-0.06v-8.95L90.26,251.37z"/>
	<path class="st0" d="M375.12,145.53h-22.23c0.6-2.34,0.91-4.71,0.91-7.1c0-13.37-9.6-25.86-26.35-34.27
		c-5.84-2.93-12.4-5.31-19.49-7.05c-0.02,0-0.03-0.01-0.05-0.01c-0.01,0-0.01,0-0.02-0.01c-9.22-2.28-19.03-3.43-29.16-3.43
		c-0.34,0-0.68,0-1.01,0.01c-12.29,0.09-24.44,1.95-35.11,5.39c-0.04,0.01-0.08,0.03-0.13,0.04c-0.02,0.01-0.03,0.01-0.05,0.02
		c-4.41,1.42-8.59,3.12-12.43,5.04c-16.75,8.4-26.35,20.89-26.35,34.27c0,2.38,0.31,4.76,0.91,7.1h-23.58v-37.28c0-3.31-2.69-6-6-6
		H81.4c-3.31,0-6,2.69-6,6v37.28H54.88c-3.31,0-6,2.69-6,6v33.51c0,3.31,2.69,6,6,6h320.24c3.31,0,6-2.69,6-6v-33.51
		C381.12,148.22,378.43,145.53,375.12,145.53z M216.43,143.46c-0.52-1.66-0.79-3.34-0.79-5.02c0-8.67,7.19-17.25,19.73-23.54
		c0.65-0.33,1.32-0.64,1.99-0.95c1.29,13.08,12.17,19.4,13.45,20.1c0.91,0.5,1.89,0.73,2.86,0.73c2.11,0,4.15-1.12,5.25-3.1
		c1.6-2.89,0.54-6.54-2.34-8.15c-0.29-0.16-7.05-4.04-7.34-11.58c-0.03-0.8,0.02-1.6,0.13-2.38c5.98-1.68,12.42-2.84,19.05-3.42
		c-0.44,2.05-0.64,4.16-0.56,6.27c0.44,11.52,8.74,19.02,13.58,21.64c0.91,0.49,1.88,0.72,2.84,0.72c2.11,0,4.16-1.13,5.25-3.12
		c1.59-2.89,0.53-6.53-2.35-8.14c-0.29-0.16-7.04-4.03-7.33-11.57c-0.08-2.15,0.38-4.29,1.3-6.25c6.05,0.12,11.96,0.69,17.64,1.72
		c-0.26,1.65-0.38,3.32-0.31,4.98c0.44,11.51,8.74,19.02,13.57,21.65c0.91,0.49,1.88,0.72,2.84,0.72c2.11,0,4.16-1.13,5.25-3.11
		c1.59-2.89,0.53-6.53-2.35-8.15c-0.29-0.16-7.04-4.03-7.33-11.57c-0.02-0.55-0.01-1.11,0.04-1.66c4.14,1.29,8,2.83,11.54,4.6
		c12.54,6.29,19.73,14.87,19.73,23.54c0,1.68-0.27,3.37-0.79,5.02c-0.86,1.29-2.31,2.07-3.89,2.07h-116.8
		C218.74,145.53,217.29,144.75,216.43,143.46z M87.4,114.25h81.57v31.28H87.4V114.25z M369.12,179.04H60.88v-21.51H81.4h93.57h45.35
		h116.8h32.01V179.04z"/>
</g>
</svg>
