<?xml version="1.0" encoding="utf-8"?>
<!-- Generator: Adobe Illustrator 25.0.1, SVG Export Plug-In . SVG Version: 6.00 Build 0)  -->
<svg version="1.1" id="Layer_1" xmlns="http://www.w3.org/2000/svg" xmlns:xlink="http://www.w3.org/1999/xlink" x="0px" y="0px"
	 viewBox="0 0 430 430" style="enable-background:new 0 0 430 430;" xml:space="preserve">
<style type="text/css">
	.st0{fill:#121331;}
	.st1{fill:#08a88a;}
</style>
<g>
	<path class="st0" d="M187.51,143.67H99.97c-17.96,0-32.57-14.61-32.57-32.57v-2.97c0-17.95,14.61-32.56,32.57-32.56H242.8
		c17.96,0,32.57,14.61,32.57,32.56v1.52c0,3.31-2.69,6-6,6s-6-2.69-6-6v-1.52c0-11.34-9.23-20.56-20.57-20.56H99.97
		c-11.34,0-20.57,9.22-20.57,20.56v2.97c0,11.34,9.23,20.57,20.57,20.57h87.54c3.31,0,6,2.69,6,6S190.82,143.67,187.51,143.67z"/>
	<path class="st0" d="M150.33,199.77H72.62c-17.95,0-32.56-14.61-32.56-32.57v-2.96c0-17.96,14.61-32.57,32.56-32.57h114.89
		c3.31,0,6,2.69,6,6s-2.69,6-6,6H72.62c-11.34,0-20.56,9.23-20.56,20.57v2.96c0,11.34,9.22,20.57,20.56,20.57h77.71
		c3.31,0,6,2.69,6,6S153.64,199.77,150.33,199.77z"/>
	<path class="st0" d="M146.88,255.87h-32.91c-0.37,0-0.75-0.01-1.12-0.02c-17.63-0.58-31.45-14.88-31.45-32.55v-2.96
		c0-17.96,14.61-32.57,32.57-32.57h36.36c3.31,0,6,2.69,6,6s-2.69,6-6,6h-36.36c-11.34,0-20.57,9.23-20.57,20.57v2.96
		c0,11.16,8.72,20.19,19.86,20.55c0.25,0.01,0.48,0.02,0.71,0.02h32.91c3.31,0,6,2.69,6,6S150.19,255.87,146.88,255.87z"/>
	<path class="st0" d="M173.16,311.95H72.62c-17.95,0-32.56-14.61-32.56-32.57v-2.96c0-17.96,14.61-32.57,32.56-32.57h74.25
		c3.31,0,6,2.69,6,6s-2.69,6-6,6H72.62c-11.34,0-20.56,9.23-20.56,20.57v2.96c0,11.34,9.22,20.57,20.56,20.57h100.54
		c3.31,0,6,2.69,6,6S176.47,311.95,173.16,311.95z"/>
	<path class="st0" d="M264.5,354.43c-69.17,0-125.44-56.27-125.44-125.44c0-69.17,56.27-125.44,125.44-125.44
		c69.17,0,125.44,56.27,125.44,125.44C389.94,298.16,333.67,354.43,264.5,354.43z M264.5,115.54
		c-62.55,0-113.44,50.89-113.44,113.44s50.89,113.44,113.44,113.44s113.44-50.89,113.44-113.44S327.05,115.54,264.5,115.54z"/>
	<path class="st1" d="M264.5,319.15c-49.71,0-90.16-40.45-90.16-90.16c0-49.71,40.45-90.16,90.16-90.16
		c49.71,0,90.16,40.45,90.16,90.16C354.66,278.7,314.21,319.15,264.5,319.15z M264.5,150.83c-43.1,0-78.16,35.06-78.16,78.16
		c0,43.1,35.06,78.16,78.16,78.16c43.1,0,78.16-35.06,78.16-78.16C342.66,185.89,307.59,150.83,264.5,150.83z"/>
</g>
</svg>
