<?xml version="1.0" encoding="utf-8"?>
<!-- Generator: Adobe Illustrator 24.1.2, SVG Export Plug-In . SVG Version: 6.00 Build 0)  -->
<svg version="1.1" id="Warstwa_3" xmlns="http://www.w3.org/2000/svg" xmlns:xlink="http://www.w3.org/1999/xlink" x="0px" y="0px"
	 viewBox="0 0 430 430" style="enable-background:new 0 0 430 430;" xml:space="preserve">
<style type="text/css">
	.st0{fill:#08a88a;}
	.st1{fill:#121331;}
	.st2{fill:#08a88a;fill-opacity:0;}
	.st3{fill:none;}
</style>
<g>
	<path class="st1" d="M215.45,223.85c-0.52,0-1.05-0.06-1.56-0.2L48.35,181.41c-2.77-0.71-4.71-3.19-4.74-6.04l-0.44-44.02
		c-0.06-0.36-0.1-0.72-0.1-1.1c0-2.87,1.94-5.38,4.73-6.1L213.43,81.4c1.03-0.27,2.12-0.27,3.15,0l165.63,42.75
		c2.78,0.72,4.73,3.23,4.73,6.1c0,0.23-0.01,0.46-0.04,0.68l-0.44,43.48c-0.03,2.84-1.95,5.31-4.7,6.03l-164.7,43.2
		C216.52,223.78,215.99,223.85,215.45,223.85z M56.16,170.39l159.27,40.64l158.47-41.57l0.32-31.06L216.57,179.1
		c-1.03,0.27-2.12,0.27-3.15,0L55.84,138.42L56.16,170.39z M74.58,130.25L215,166.49l140.42-36.24L215,94L74.58,130.25z"/>
	<path class="st1" d="M215.82,401.6c-0.61,0-1.23-0.09-1.82-0.27L70.93,358.18c-2.65-0.8-4.47-3.23-4.48-6l-0.79-169.2
		c-0.01-1.93,0.86-3.75,2.37-4.95c1.5-1.2,3.48-1.65,5.35-1.22l141.08,32.58c0.39-0.08,0.8-0.12,1.22-0.12c0,0,0,0,0.01,0
		c0.47,0,0.93,0.05,1.37,0.15l139.66-34.45c1.88-0.46,3.87-0.04,5.39,1.16c1.52,1.19,2.42,3.02,2.42,4.96l0.02,170.1
		c0,2.76-1.8,5.2-4.44,6.02l-142.41,44.1C217.08,401.5,216.45,401.6,215.82,401.6z M79.03,347.47l130.51,39.36l-0.16-165.67
		L78.29,190.88L79.03,347.47z M221.98,221.19l0.16,165.56l129.79-40.19l-0.02-157.41L221.98,221.19z"/>
	<path class="st0" d="M136.52,377.69c0,0-0.01,0-0.01,0c-3.48-0.01-6.29-2.83-6.29-6.31l0.37-168.2l-8.8-2.52
		c-2.7-0.78-4.56-3.25-4.56-6.06v-0.5l0.12-41.82c0.01-2.72,1.76-5.12,4.34-5.97l91.8-29.97c1.69-0.55,3.44-0.35,4.89,0.42
		l90.81,29.55c2.6,0.84,4.36,3.27,4.35,6.01l-0.12,40.95c-0.01,2.73-1.78,5.15-4.39,5.98l-8.98,2.87L300.53,371
		c0.01,3.48-2.8,6.31-6.28,6.32c-0.01,0-0.01,0-0.02,0c-3.47,0-6.29-2.81-6.3-6.28l-0.48-173.49c-0.01-2.75,1.76-5.18,4.38-6.02
		l9.01-2.89l0.09-31.77l-0.96-0.31L215.31,129l-85.37,27.87l-0.1,32.99l8.79,2.51c2.71,0.77,4.57,3.25,4.57,6.07l-0.38,172.96
		C142.81,374.87,139.99,377.69,136.52,377.69z"/>
	<path class="st0" d="M218.1,129.19c-2.01,0-3.89-0.97-5.07-2.56c-36.17-5.18-64.15-14.12-83.19-26.58
		c-16.85-11.02-26.07-24.76-25.98-38.7c0.11-16.53,13.82-30.23,32.6-32.58c28.39-3.56,68.41,18.55,87.73,92.52
		c0.88,3.37-1.14,6.81-4.5,7.69C219.16,129.12,218.62,129.19,218.1,129.19z M142.45,41c-1.51,0-2.99,0.09-4.43,0.27
		c-12.63,1.58-21.5,9.87-21.57,20.16c-0.11,17.37,24.19,40.92,92.32,51.81C192.01,59.85,163.97,41,142.45,41z"/>
	<path class="st0" d="M215.99,129.19c-0.52,0-1.05-0.07-1.58-0.2c-3.37-0.87-5.4-4.3-4.53-7.67c19.04-73.82,58.53-96,86.56-92.56
		c18.65,2.29,32.3,15.97,32.44,32.53C329,75.21,319.9,88.96,303.26,100c-18.81,12.48-46.46,21.43-82.2,26.62
		C219.89,128.22,218,129.19,215.99,129.19z M290.7,41c-21.2,0-48.88,18.85-65.43,72.23c67.22-10.9,91.17-34.46,91.01-51.83
		c-0.09-10.33-8.88-18.61-21.37-20.14C293.54,41.09,292.13,41,290.7,41z"/>
</g>
</svg>
