<?xml version="1.0" encoding="utf-8"?>
<!-- Generator: Adobe Illustrator 24.1.2, SVG Export Plug-In . SVG Version: 6.00 Build 0)  -->
<svg version="1.1" id="Warstwa_3" xmlns="http://www.w3.org/2000/svg" xmlns:xlink="http://www.w3.org/1999/xlink" x="0px" y="0px"
	 viewBox="0 0 430 430" style="enable-background:new 0 0 430 430;" xml:space="preserve">
<style type="text/css">
	.st0{fill:#121331;}
	.st1{fill:#08a88a;}
	.st2{fill:none;stroke:#121331;stroke-width:12;stroke-linecap:round;stroke-linejoin:round;stroke-miterlimit:10;}
	.st3{fill:#08a88a;}
</style>
<g>
	<g>
		<path class="st1" d="M134.59,173.21c-8.45,0-16.89-1.64-24.77-4.91c-0.02-0.01-0.11-0.04-0.12-0.05
			c-2.36-0.98-4.89-1.64-7.48-1.94l-10.46-1.21c-5.91-0.68-10.36-5.68-10.36-11.62v-10.55c0-20.7,16.84-37.54,37.54-37.54h31.54
			c20.7,0,37.54,16.84,37.54,37.54v10.55c0,5.94-4.45,10.94-10.36,11.62l-11.04,1.28c-2.46,0.28-4.86,0.91-7.14,1.87
			C151.57,171.55,143.08,173.21,134.59,173.21z M93.4,153.21l10.19,1.17c3.7,0.43,7.32,1.37,10.76,2.8
			c0.02,0.01,0.11,0.04,0.12,0.05c12.8,5.32,27.54,5.31,40.38-0.06c3.32-1.39,6.82-2.3,10.39-2.71l10.77-1.25v-10.28
			c0-14.08-11.46-25.54-25.54-25.54h-31.54c-14.08,0-25.54,11.46-25.54,25.54V153.21z"/>
		<path class="st1" d="M134.71,99.74c-15.52,0-28.09-12.15-28.63-27.66l-0.74-21.2c-0.27-7.84,2.58-15.26,8.03-20.9
			s12.77-8.75,20.61-8.75h1.47c7.84,0,15.16,3.11,20.61,8.75s8.3,13.06,8.03,20.9l-0.74,21.2C162.8,87.59,150.22,99.74,134.71,99.74
			z M133.97,33.24c-4.56,0-8.81,1.81-11.98,5.08c-3.17,3.28-4.82,7.59-4.66,12.15l0.74,21.2c0.31,9.01,7.62,16.07,16.64,16.07
			s16.33-7.06,16.64-16.07l0.74-21.2c0.16-4.55-1.5-8.87-4.66-12.15c-3.17-3.28-7.42-5.08-11.98-5.08H133.97z"/>
	</g>
	<g>
		<path class="st1" d="M295.18,173.21c-8.45,0-16.89-1.64-24.77-4.91c-0.02-0.01-0.11-0.04-0.12-0.05
			c-2.36-0.98-4.89-1.64-7.48-1.94l-10.46-1.21c-5.91-0.68-10.36-5.68-10.36-11.62v-10.55c0-20.7,16.84-37.54,37.54-37.54h31.54
			c20.7,0,37.54,16.84,37.54,37.54v10.55c0,5.94-4.45,10.94-10.36,11.62l-11.04,1.28c-2.46,0.28-4.86,0.91-7.14,1.87
			C312.16,171.55,303.67,173.21,295.18,173.21z M253.98,153.21l10.19,1.17c3.7,0.43,7.32,1.37,10.76,2.8
			c0.02,0.01,0.11,0.04,0.12,0.05c12.8,5.32,27.54,5.3,40.38-0.06c3.32-1.39,6.82-2.3,10.39-2.71l10.77-1.25v-10.28
			c0-14.08-11.46-25.54-25.54-25.54h-31.54c-14.08,0-25.54,11.46-25.54,25.54V153.21z"/>
		<path class="st1" d="M295.29,99.74c-15.52,0-28.09-12.15-28.63-27.66l-0.74-21.2c-0.27-7.84,2.58-15.26,8.03-20.9
			s12.77-8.75,20.61-8.75h1.47c7.84,0,15.16,3.11,20.61,8.75s8.3,13.06,8.03,20.9l-0.74,21.2
			C323.39,87.59,310.81,99.74,295.29,99.74z M294.56,33.24c-4.56,0-8.81,1.81-11.98,5.08c-3.17,3.28-4.82,7.59-4.66,12.15l0.74,21.2
			c0.31,9.01,7.62,16.07,16.64,16.07s16.33-7.06,16.64-16.07l0.74-21.2c0.16-4.55-1.5-8.87-4.66-12.15
			c-3.17-3.28-7.42-5.08-11.98-5.08H294.56z"/>
	</g>
	<g>
		<path class="st1" d="M185.81,320.02h-32.87c-3.31,0-6-2.69-6-6s2.69-6,6-6h32.87c3.31,0,6,2.69,6,6S189.12,320.02,185.81,320.02z"
			/>
		<path class="st1" d="M277.56,320.02h-32.87c-3.31,0-6-2.69-6-6s2.69-6,6-6h32.87c3.31,0,6,2.69,6,6S280.87,320.02,277.56,320.02z"
			/>
		<path class="st0" d="M277.06,272.64h-32.87c-3.31,0-6,2.69-6,6v60.25c0,6.19-2.41,12.01-6.79,16.39
			c-4.38,4.38-10.2,6.79-16.4,6.79c-12.79,0-23.19-10.4-23.19-23.18v-60.25c0-3.31-2.69-6-6-6h-32.87c-3.31,0-6,2.69-6,6v62.06
			c0,18.17,7.08,35.26,19.94,48.12c12.86,12.86,29.95,19.94,48.12,19.94c37.53,0,68.06-30.53,68.06-68.06v-62.06
			C283.06,275.33,280.37,272.64,277.06,272.64z M271.06,340.7c0,30.91-25.15,56.06-56.06,56.06c-14.97,0-29.05-5.83-39.64-16.42
			c-10.59-10.59-16.42-24.67-16.42-39.64v-56.06h20.87v54.25c0,19.4,15.79,35.18,35.19,35.18c9.4,0,18.24-3.66,24.88-10.31
			c6.65-6.65,10.31-15.48,10.31-24.87v-54.25h20.87V340.7z"/>
	</g>
	<path class="st0" d="M243.75,258.01c-3.31,0-6-2.69-6-6v-19c0-3.31,2.69-6,6-6s6,2.69,6,6v19
		C249.75,255.32,247.06,258.01,243.75,258.01z"/>
	<path class="st0" d="M276.86,239.46c-3.31,0-6-2.69-6-6v-36.19c0-3.31,2.69-6,6-6s6,2.69,6,6v36.19
		C282.86,236.77,280.17,239.46,276.86,239.46z"/>
	<path class="st0" d="M185.68,258.01c-3.31,0-6-2.69-6-6v-19c0-3.31,2.69-6,6-6s6,2.69,6,6v19
		C191.68,255.32,188.99,258.01,185.68,258.01z"/>
	<path class="st0" d="M154.57,239.46c-3.31,0-6-2.69-6-6v-36.19c0-3.31,2.69-6,6-6s6,2.69,6,6v36.19
		C160.57,236.77,157.88,239.46,154.57,239.46z"/>
</g>
</svg>
