<?xml version="1.0" encoding="utf-8"?>
<!-- Generator: Adobe Illustrator 24.1.2, SVG Export Plug-In . SVG Version: 6.00 Build 0)  -->
<svg version="1.1" id="Warstwa_1" xmlns="http://www.w3.org/2000/svg" xmlns:xlink="http://www.w3.org/1999/xlink" x="0px" y="0px"
	 viewBox="0 0 430 430" style="enable-background:new 0 0 430 430;" xml:space="preserve">
<style type="text/css">
	.st0{fill:#08a88a;}
	.st1{fill:#121331;}
	.st2{fill:#08a88a;}
	.st3{fill:none;}
	.st4{fill:#08A385;}
	.st5{fill:none;stroke:#121331;stroke-width:12;stroke-linecap:round;stroke-linejoin:round;stroke-miterlimit:10;}
</style>
<g>
	<path class="st0" d="M233.45,223c-1.09-3.13-4.52-4.77-7.64-3.68l-3.63,1.27l10.1-37.71c0.86-3.2-1.04-6.49-4.24-7.35
		c-3.2-0.85-6.49,1.04-7.35,4.24l-13.05,48.69c0,0.01,0,0.02-0.01,0.02l-4.93,18.41c-4.69-10.57-13.17-23.85-28.42-38.59
		c1.29-11.92-4.22-25.92-14.69-36.66h0c-11.54-11.83-27.18-17.76-39.85-15.11c-2.28,0.48-4.08,2.23-4.62,4.5
		c-2.96,12.6,2.58,28.39,14.11,40.21c9.71,9.96,22.33,15.74,33.64,15.74c1,0,1.99-0.05,2.97-0.14
		c13.76,13.28,21.35,25.02,25.51,34.12c-4.95-3.18-9.49-5.06-11.84-5.92c-8.55-9-23.69-13.53-39.26-11.59
		c-16.39,2.05-30.57,10.93-36.12,22.63c-1,2.11-0.69,4.6,0.8,6.4c7.05,8.51,19.69,13.49,33.43,13.49c2.35,0,4.74-0.15,7.14-0.45
		c14.05-1.76,26.46-8.54,33.21-17.81c4.94,2.29,12.88,6.9,17.22,14.35l-8.46,31.57l-2.51-2.92c-2.16-2.51-5.95-2.79-8.46-0.63
		s-2.79,5.95-0.63,8.46l7.85,9.12l-18.55,69.22c-0.86,3.2,1.04,6.49,4.24,7.35c0.52,0.14,1.04,0.21,1.56,0.21
		c2.65,0,5.07-1.77,5.79-4.45l8.39-31.29l11.36-3.98c3.13-1.09,4.78-4.52,3.68-7.65c-1.09-3.13-4.51-4.78-7.65-3.68l-3.63,1.27
		l7.21-26.92c0-0.01,0-0.02,0.01-0.02l22.27-83.12l11.36-3.97C232.89,229.56,234.54,226.13,233.45,223z M126.32,167.92
		c7.95,0.11,17.38,4.65,24.67,12.12h0c7.29,7.48,11.59,17.01,11.5,24.97c-7.95-0.11-17.38-4.65-24.67-12.12
		C130.52,185.41,126.23,175.87,126.32,167.92z M144.03,263.64c-10.36,1.29-20.56-1.04-26.85-5.92c4.9-6.27,14.2-11.04,24.57-12.34
		s20.56,1.04,26.85,5.92C163.7,257.57,154.39,262.34,144.03,263.64z"/>
	<path class="st1" d="M321.25,74.71c-1.66-0.28-11.05-0.89-24.17-0.13l3.36-12.56c0.46-1.72,0.13-3.55-0.89-5.01
		s-2.64-2.38-4.42-2.52c-11.86-0.98-24.11,0.8-34.68,3.36c-9.94-9.74-20-17.05-29.93-21.75c-1.61-0.76-3.47-0.77-5.09-0.02
		s-2.81,2.17-3.27,3.89l-3.56,13.27c-10.12-6.67-18.67-10.58-20.43-11.37c-2.57-1.34-5.77-0.64-7.56,1.77
		c-1.65,2.23-1.5,5.24,0.15,7.32c0.02,0.03,0.04,0.05,0.06,0.08c0.19,0.23,0.4,0.46,0.63,0.66c0.02,0.02,0.05,0.04,0.07,0.06
		c0.11,0.1,0.23,0.2,0.35,0.29c4.76,3.54,6.84,9.53,5.3,15.26l-13.16,49.13c-3.99,14.89-1.94,30.44,5.77,43.78
		s20.15,22.89,34.94,26.85c0.03,0.01,0.07,0.02,0.1,0.03c4.98,1.33,9.98,1.97,14.91,1.97c25.47,0,48.85-17.03,55.75-42.77
		l13.15-49.07c1.54-5.75,6.36-9.9,12.27-10.57c0.01,0,0.02,0,0.03-0.01c3.36-0.35,5.29-3,5.46-5.58
		C326.61,78.38,324.89,75.32,321.25,74.71z M284.36,75.69c-7.88,0.92-16.45,2.35-25.15,4.56c-3.29,0.84-6.47,1.76-9.57,2.75
		c-1.66-2.62-3.5-5.14-5.48-7.54c9.47-3.63,26.12-8.95,42.73-9.23L284.36,75.69z M231.8,50.4c5.02,3.01,10.1,6.81,15.2,11.33
		c-4.95,1.64-9,3.23-11.78,4.39c-2.04-1.88-4.12-3.65-6.21-5.32L231.8,50.4z M208.79,70.42c0.77-2.89,1.03-5.81,0.84-8.66
		c9.46,5.96,20.89,14.67,28.44,25.5c-18.75,7.9-33.12,19.17-42.71,33.42c0.09-0.38,0.17-0.76,0.27-1.13L208.79,70.42z M283.92,143.2
		c-6.52,24.34-31.63,38.83-55.87,32.34c-0.03-0.01-0.07-0.02-0.1-0.03c-11.79-3.16-21.65-10.72-27.75-21.29
		c-1.49-2.58-2.71-5.26-3.66-8.01c6.82-23.42,24.33-40.28,52.18-50.25c0.14-0.04,0.28-0.09,0.42-0.15c3.96-1.4,8.13-2.67,12.5-3.8
		c14.25-3.67,28.23-5.12,38.9-5.61c-1.53,2.33-2.72,4.92-3.47,7.73L283.92,143.2z"/>
</g>
</svg>
