<?xml version="1.0" encoding="utf-8"?>
<!-- Generator: Adobe Illustrator 24.1.2, SVG Export Plug-In . SVG Version: 6.00 Build 0)  -->
<svg version="1.1" id="Warstwa_1" xmlns="http://www.w3.org/2000/svg" xmlns:xlink="http://www.w3.org/1999/xlink" x="0px" y="0px"
	 viewBox="0 0 430 430" style="enable-background:new 0 0 430 430;" xml:space="preserve">
<style type="text/css">
	.st0{fill:#08a88a;}
	.st1{fill:#121331;}
	.st2{fill:none;}
	.st3{fill:#00A689;}
</style>
<g>
	<path class="st0" d="M347.09,382.45c-0.13,0-0.26,0-0.39-0.01c-52.36-3.38-93.29-37.33-118.37-98.18
		c-18.61-45.15-21.96-88.59-22.09-90.42c-0.24-3.3,2.24-6.18,5.55-6.42c3.3-0.24,6.18,2.24,6.42,5.55
		c0.04,0.55,3.41,43.65,21.32,86.97c23.55,56.96,59.87,87.41,107.95,90.52c3.31,0.21,5.81,3.07,5.6,6.37
		C352.87,380.02,350.23,382.45,347.09,382.45z"/>
	<path class="st1" d="M359.42,189.95c-0.05-11.34-7.31-34.34-34.57-41.8c-21.56-5.9-63.13,12.36-90.32,26.32
		c18.07-24.65,42.69-62.86,40.26-85.1c-3.07-28.1-24.64-38.89-35.83-40.73c-11.38-2.61-22.53-0.55-32.24,5.96
		c-6.35,4.26-11.72,10.27-15.63,17.38c-6.08-5.37-13.16-9.21-20.58-11.08c-11.34-2.85-22.52-1.03-32.36,5.27
		c-9.91,5.51-26.57,22.95-19.97,50.44c5.22,21.76,41.3,49.4,66.63,66.51c-30.31-3.95-75.6-7.11-93.9,5.73
		c-23.15,16.23-22.21,40.33-18.43,51.02c3.2,11.23,10.37,20.01,20.76,25.38c6.79,3.51,14.64,5.32,22.74,5.32c0,0,0.01,0,0.01,0
		c-1.78,7.91-1.73,15.97,0.21,23.37c2.96,11.31,9.95,20.23,20.21,25.81c4.74,2.98,12.83,6,22.32,6c9.72,0,20.92-3.17,31.5-12.8
		c17.16-15.61,23.88-63.34,26.46-93.73c12.69,27.73,35.14,70.39,56.56,79.29c6.84,2.84,13.25,4,19.11,4
		c16.51,0,28.68-9.19,33.84-15.77c7.78-8.72,11.34-19.47,10.31-31.12c-0.67-7.62-3.35-15.22-7.69-22.07
		c7.63-2.74,14.41-7.09,19.62-12.7C356.42,212.28,360.21,201.6,359.42,189.95z M129.86,113.8c-6.12-25.49,13.44-36.76,14.24-37.21
		c0.13-0.07,0.27-0.15,0.39-0.23c5.17-3.35,10.5-4.78,15.69-4.78c11.05,0,21.44,6.48,28.07,14.75c1.37,1.71,3.56,2.53,5.71,2.16
		c2.15-0.37,3.93-1.89,4.64-3.96c5.07-14.72,19.07-28.57,37.83-24.16c0.13,0.03,0.29,0.06,0.42,0.08c0.94,0.16,23.16,4.16,26,30.22
		c2.41,22.07-34.08,72.64-52,94.92C186.47,170.67,135.04,135.39,129.86,113.8z M182.17,304.06c-19.39,17.65-38.69,5.94-39.47,5.45
		c-0.13-0.08-0.26-0.16-0.4-0.23c-16.97-9.12-18.29-28.76-12.35-43.15c0.83-2.02,0.5-4.33-0.86-6.04c-1.15-1.44-2.88-2.25-4.68-2.25
		c-0.34,0-0.68,0.03-1.02,0.09c-15.34,2.65-34.22-2.95-39.4-21.5c-0.04-0.13-0.09-0.28-0.13-0.41c-0.32-0.9-7.51-22.29,13.95-37.35
		c18.18-12.75,80.08-5.13,108.23-0.17C204.72,227.05,198.6,289.11,182.17,304.06z M317.62,224.14c-2.15,0.38-3.93,1.9-4.64,3.96
		c-0.71,2.07-0.24,4.36,1.23,5.98c10.46,11.54,15.84,30.47,2.95,44.79c-0.09,0.1-0.19,0.22-0.27,0.33
		c-0.46,0.58-9.17,11.33-24.41,11.33c-4.35,0-9.23-0.87-14.6-3.11c-20.5-8.52-47.23-64.87-58.13-91.3
		c24.82-14.18,80.51-42.25,101.93-36.39c25.29,6.92,25.74,29.49,25.74,30.41c0,0.15,0,0.31,0.02,0.46
		C348.83,209.8,332.96,221.45,317.62,224.14z"/>
</g>
</svg>
