<?xml version="1.0" encoding="utf-8"?>
<!-- Generator: Adobe Illustrator 24.1.2, SVG Export Plug-In . SVG Version: 6.00 Build 0)  -->
<svg version="1.1" id="Warstwa_1" xmlns="http://www.w3.org/2000/svg" xmlns:xlink="http://www.w3.org/1999/xlink" x="0px" y="0px"
	 viewBox="0 0 430 430" style="enable-background:new 0 0 430 430;" xml:space="preserve">
<style type="text/css">
	.st0{fill:#121331;}
	.st1{fill:#08a88a;}
	.st2{fill:#08a88a;}
	.st3{fill:none;}
	.st4{fill:#08A385;}
	.st5{fill:none;stroke:#08A385;stroke-width:12;stroke-linecap:round;stroke-linejoin:round;stroke-miterlimit:10;}
	.st6{fill:none;stroke:#121331;stroke-width:12;stroke-linecap:round;stroke-linejoin:round;stroke-miterlimit:10;}
</style>
<g>
	<path class="st1" d="M283.84,306.71H134.4c-3.31,0-6-2.69-6-6s2.69-6,6-6h149.44c3.31,0,6,2.69,6,6S287.15,306.71,283.84,306.71z"
		/>
	<path class="st1" d="M278.51,344.07H139.73c-3.31,0-6-2.69-6-6s2.69-6,6-6h138.78c3.31,0,6,2.69,6,6S281.82,344.07,278.51,344.07z"
		/>
	<path class="st1" d="M321.45,52.97c-0.74-2.21-2.69-3.8-5-4.07c-22.84-2.64-49.78,10.62-68.61,33.8
		c-17.97,22.11-25.58,49.59-19.94,71.02c-11.04,15.07-14.63,21.06-17.63,29.11c-0.71,1.9-1.33,3.73-1.89,5.49
		c-3.35-7.37-7.7-14.42-12.98-21.08c1.01-16.75-8.79-35.94-25.44-49.47c0,0,0,0,0,0c-17.34-14.09-39.17-19.65-55.62-14.18
		c-2.21,0.74-3.8,2.69-4.07,5c-1.99,17.22,7.92,37.45,25.26,51.54c12.91,10.49,28.31,16.26,42.13,16.26c3.08,0,6.08-0.29,8.95-0.88
		c8.2,10.57,13.72,22.14,16.32,34.41c0.6,2.84,1.06,4.88,1.37,6.06c1.2,4.63,4.31,5.32,6.06,5.32c1.71,0,3.34-0.75,4.48-2.03
		c1.14-1.28,1.67-3,1.48-4.7c-0.01-0.1-1.13-10.64,5.18-27.56c2.52-6.77,5.77-12.14,15.85-25.91c0.77,0.03,1.53,0.06,2.31,0.06
		c21.47,0,45.5-12.91,62.74-34.13C321.24,103.87,328.72,74.8,321.45,52.97z M143.11,150.82c-12.83-10.42-20.76-24.47-21.08-36.83
		c12.17-2.21,27.54,2.68,40.37,13.1c8.88,7.21,15.4,16.16,18.69,25.09c-5.84-5.2-12.34-10.08-19.5-14.59
		c-2.8-1.77-6.51-0.92-8.27,1.88c-1.77,2.8-0.92,6.51,1.88,8.27c8.09,5.1,15.27,10.68,21.46,16.69
		C165.88,164.19,153.64,159.37,143.11,150.82z M293.1,119.48c-13.12,16.14-30.37,26.76-46.46,29.17
		c8.61-11.37,17.61-22.72,26.83-33.86c2.11-2.55,1.76-6.33-0.79-8.45c-2.55-2.11-6.33-1.76-8.45,0.79
		c-9,10.86-17.77,21.92-26.2,33.01c-0.42-15.88,6.43-34.25,19.12-49.87c14.99-18.45,35.41-29.71,53.28-29.71c0.23,0,0.47,0,0.7,0.01
		C315.11,78.15,308.29,100.79,293.1,119.48z"/>
	<path class="st0" d="M306.45,209.31H111.79c-3.31,0-6,2.69-6,6v48.04c0,3.31,2.69,6,6,6h12.07l15.28,106.93
		c0.42,2.96,2.95,5.15,5.94,5.15h128.09c2.99,0,5.52-2.2,5.94-5.15l15.28-106.93h12.07c3.31,0,6-2.69,6-6v-48.04
		C312.45,212,309.76,209.31,306.45,209.31z M267.96,369.43H150.27l-14.3-100.08h146.28L267.96,369.43z M300.45,257.35H117.79v-36.04
		h182.66V257.35z"/>
</g>
</svg>
