<?xml version="1.0" encoding="utf-8"?>
<!-- Generator: Adobe Illustrator 24.1.2, SVG Export Plug-In . SVG Version: 6.00 Build 0)  -->
<svg version="1.1" id="Warstwa_1" xmlns="http://www.w3.org/2000/svg" xmlns:xlink="http://www.w3.org/1999/xlink" x="0px" y="0px"
	 viewBox="0 0 430 430" style="enable-background:new 0 0 430 430;" xml:space="preserve">
<style type="text/css">
	.st0{fill:#08a88a;}
	.st1{fill:#121331;}
	.st2{fill:#08a88a;}
	.st3{fill:none;}
	.st4{fill:#08A385;}
	.st5{fill:none;stroke:#121331;stroke-width:12;stroke-linecap:round;stroke-linejoin:round;stroke-miterlimit:10;}
</style>
<g>
	<path class="st0" d="M175.23,387.98c-3.31,0-6-2.69-6-6V214.17c0-3.31,2.69-6,6-6s6,2.69,6,6v167.82
		C181.23,385.3,178.54,387.98,175.23,387.98z"/>
	<path class="st1" d="M288.01,201.24c-0.71-3.24-3.91-5.29-7.14-4.58c-3.71,0.81-20.26,4.91-27.72,14.67l-50.21-16.32
		c0.09-0.89,0.13-1.79,0.13-2.69s-0.05-1.81-0.13-2.69l50.21-16.32c7.46,9.76,24.01,13.86,27.72,14.67
		c0.43,0.09,0.86,0.14,1.29,0.14c2.76,0,5.24-1.91,5.85-4.71c0.71-3.23-1.33-6.43-4.57-7.15c-7.76-1.71-20.04-6.72-21.76-12.03
		c-1.72-5.31,5.26-16.58,10.53-22.52h0c2.2-2.48,1.98-6.26-0.5-8.47c-2.48-2.2-6.27-1.98-8.47,0.49
		c-2.53,2.84-13.5,15.88-13.8,28.16l-50.22,16.32c-3.87-6.56-10.34-11.39-17.99-13.08v-52.8c11.59-4.08,20.6-18.55,22.52-21.83
		c1.67-2.86,0.71-6.54-2.15-8.21c-2.86-1.68-6.54-0.71-8.21,2.15c-4.01,6.84-12.55,16.97-18.17,16.97
		c-5.58,0-14.14-10.13-18.17-16.98c-1.67-2.85-5.35-3.82-8.21-2.14c-2.86,1.67-3.82,5.35-2.15,8.21
		c1.92,3.28,10.93,17.75,22.52,21.83v52.8c-1.78,0.39-3.49,0.95-5.12,1.67l-31.04-42.72c6.98-10.11,5.77-27.12,5.39-30.9
		c-0.33-3.3-3.25-5.7-6.56-5.38c-3.3,0.33-5.71,3.26-5.38,6.56c0.78,7.89-0.18,21.11-4.72,24.41c-4.52,3.28-17.4,0.12-24.68-3.06
		c-3.03-1.32-6.57,0.06-7.9,3.09c-1.33,3.04,0.05,6.57,3.09,7.9c2.75,1.2,13.2,5.47,23.27,5.47c2.67,0,5.31-0.32,7.78-1.05
		l31.05,42.74c-1.19,1.34-2.25,2.8-3.17,4.35l-50.22-16.32c-0.3-12.28-11.27-25.33-13.8-28.16c-2.2-2.47-5.99-2.7-8.46-0.5
		c-2.48,2.2-2.7,5.99-0.51,8.47c5.27,5.95,12.26,17.22,10.53,22.53c-1.72,5.31-14,10.32-21.76,12.03c-3.24,0.71-5.29,3.91-4.58,7.14
		c0.61,2.81,3.1,4.72,5.86,4.72c0.42,0,0.86-0.05,1.29-0.14c3.71-0.81,20.26-4.91,27.72-14.67l50.21,16.32
		c-0.09,0.89-0.13,1.79-0.13,2.69s0.05,1.81,0.13,2.69L97.3,211.33c-7.46-9.76-24.01-13.86-27.72-14.67
		c-3.24-0.71-6.43,1.34-7.14,4.57c-0.71,3.23,1.33,6.43,4.57,7.15c7.76,1.71,20.04,6.72,21.76,12.03
		c1.72,5.31-5.26,16.57-10.53,22.52c-2.2,2.48-1.98,6.27,0.49,8.47c1.14,1.02,2.57,1.52,3.99,1.52c1.65,0,3.3-0.68,4.48-2.01
		c2.52-2.84,13.5-15.88,13.8-28.16l50.22-16.32c0.92,1.55,1.98,3.01,3.17,4.35l-31.04,42.73c-11.77-3.51-27.57,2.9-31.05,4.42
		c-3.04,1.33-4.42,4.87-3.09,7.9c1.33,3.04,4.87,4.42,7.9,3.09c7.26-3.18,20.13-6.35,24.67-3.05c4.52,3.28,5.49,16.51,4.72,24.41
		c-0.32,3.3,2.08,6.23,5.38,6.56c0.2,0.02,0.4,0.03,0.6,0.03c3.05,0,5.66-2.31,5.96-5.41c0.38-3.78,1.59-20.78-5.39-30.9
		l31.04-42.72c3.41,1.49,7.17,2.33,11.12,2.33c3.95,0,7.71-0.83,11.12-2.33l31.04,42.72c-6.98,10.11-5.77,27.12-5.39,30.9
		c0.31,3.1,2.92,5.41,5.96,5.41c0.2,0,0.4-0.01,0.6-0.03c3.3-0.33,5.71-3.26,5.38-6.56c-0.78-7.89,0.18-21.11,4.72-24.41
		c4.52-3.28,17.4-0.12,24.68,3.06c3.03,1.33,6.57-0.06,7.9-3.09c1.33-3.04-0.05-6.57-3.09-7.9c-3.48-1.52-19.28-7.93-31.05-4.42
		l-31.04-42.73c1.19-1.34,2.25-2.8,3.17-4.35l50.22,16.32c0.3,12.28,11.27,25.33,13.8,28.16c1.18,1.33,2.83,2.01,4.48,2.01
		c1.42,0,2.84-0.5,3.98-1.51c2.48-2.2,2.7-5.99,0.51-8.47c-5.27-5.95-12.26-17.22-10.53-22.53c1.72-5.31,14-10.32,21.76-12.03
		C286.67,207.67,288.72,204.48,288.01,201.24z M159.38,192.32c0-8.74,7.11-15.84,15.84-15.84c8.74,0,15.84,7.11,15.84,15.84
		s-7.11,15.84-15.84,15.84C166.49,208.17,159.38,201.06,159.38,192.32z"/>
	<path class="st1" d="M291.49,73.06c-1.32-3.03-4.86-4.42-7.9-3.1c-7.28,3.17-20.16,6.34-24.68,3.06
		c-4.52-3.28-5.49-16.51-4.72-24.41c0.32-3.3-2.08-6.23-5.38-6.56c-3.31-0.33-6.24,2.08-6.56,5.38c-0.38,3.78-1.59,20.78,5.39,30.9
		l-34.18,47.04c-1.95,2.68-1.35,6.43,1.33,8.38c1.06,0.77,2.3,1.15,3.52,1.15c1.86,0,3.68-0.86,4.86-2.47l34.18-47.04
		c2.47,0.74,5.11,1.05,7.78,1.05c10.07,0,20.52-4.26,23.27-5.47C291.43,79.62,292.81,76.09,291.49,73.06z"/>
	<path class="st1" d="M365.56,138.94c-2.54-2.13-6.32-1.8-8.45,0.73c-5.12,6.07-15.25,14.63-20.76,13.69c0,0,0,0,0,0c0,0,0,0,0,0
		c-5.5-0.94-12.24-12.36-15.07-19.78v0c-1.17-3.1-4.63-4.66-7.73-3.49c-3.1,1.17-4.66,4.63-3.49,7.73
		c1.34,3.55,7.8,19.33,18.55,25.29l-9.74,57.32c-0.56,3.27,1.64,6.37,4.91,6.92c0.34,0.06,0.68,0.09,1.01,0.09
		c2.87,0,5.41-2.07,5.91-5l9.74-57.32c12.11-2.08,23.42-14.84,25.86-17.75C368.42,144.85,368.09,141.08,365.56,138.94z"/>
</g>
</svg>
