<?xml version="1.0" encoding="utf-8"?>
<!-- Generator: Adobe Illustrator 25.0.1, SVG Export Plug-In . SVG Version: 6.00 Build 0)  -->
<svg version="1.1" id="Layer_1" xmlns="http://www.w3.org/2000/svg" xmlns:xlink="http://www.w3.org/1999/xlink" x="0px" y="0px"
	 viewBox="0 0 430 430" style="enable-background:new 0 0 430 430;" xml:space="preserve">
<style type="text/css">
	.st0{fill:#08a88a;}
	.st1{fill:#121331;}
</style>
<g>
	<path class="st0" d="M185.7,178.2c-0.9,0-1.8-0.2-2.6-0.6c-3-1.4-4.2-5-2.8-8c0.5-1.1,1.1-2.2,1.9-3.3c0.9-1.5,0.7-3.5-0.5-4.9
		c-10.6-12.2-14.9-28.3-11.7-44.1c4.3-21.8,22-38.4,44.1-41.3c0.3,0,0.5-0.3,0.7-0.6c5.9-15.7,22.2-24.7,38.7-21.5
		c1.6,0.3,3.1,0.7,4.6,1.2c7.6-11.1,21.2-16.9,34.9-14.1c17.5,3.5,29.2,19.7,27.4,37.1c5.2-1,10.7-0.9,16,0.5
		c16.7,4.4,28,20.6,26.3,37.8c-1.2,12.4-8.6,22.9-19.2,28.3c6.6,7.6,9.8,18,8.4,28.2c-0.5,3.3-3.5,5.6-6.8,5.1
		c-3.3-0.5-5.6-3.5-5.1-6.8c1.3-9.5-3.4-19-11.7-23.7c-2.2-1.3-3.4-3.8-2.9-6.4c0.5-2.5,2.5-4.5,5.1-4.8
		c10.9-1.5,19.2-10.2,20.3-21.2c1.1-11.4-6.4-22.1-17.4-25c-4.2-1.1-8.6-1.1-12.7,0.1c-3.4,1-7,0.2-9.6-2.2c-2.6-2.4-3.7-5.8-3-9.2
		c0,0,0-0.1,0-0.1c2.4-12-5.5-23.7-17.5-26.1c-10.2-2-20.2,3.1-24.5,12.6c-0.7,1.5-2,2.7-3.6,3.2c-1.6,0.5-3.3,0.3-4.8-0.5
		c-2-1.1-4.2-1.9-6.5-2.4c-10.7-2.1-21.3,3.7-25.1,13.9c-1.7,4.5-5.7,7.7-10.3,8.3c-16.9,2.2-30.6,15-33.9,31.8
		c-2.4,12.2,0.9,24.5,9,33.9c4.8,5.5,5.4,13.2,1.6,19.2c-0.5,0.7-0.8,1.4-1.2,2.1C190.1,176.9,187.9,178.2,185.7,178.2z"/>
	<path class="st0" d="M248.2,187.3c-0.4,0-0.8,0-1.2-0.1c-3.2-0.7-5.3-3.9-4.6-7.1c2.6-12.4,5.9-24.5,9.9-35.7
		c10.5-29.9,22.1-45,22.6-45.6c2-2.6,5.8-3.1,8.4-1c2.6,2,3.1,5.8,1.1,8.4c-0.1,0.2-11,14.4-20.8,42.3c-3.8,10.8-7,22.3-9.5,34.2
		C253.5,185.3,251,187.3,248.2,187.3z"/>
	<path class="st0" d="M257.9,152.6c-1.3,0-2.5-0.4-3.6-1.2c-2.6-2-3.1-5.8-1.2-8.4c0.4-0.6,10.9-14.1,35.2-16.8
		c3.3-0.4,6.3,2,6.6,5.3c0.4,3.3-2,6.3-5.3,6.6c-18.9,2.1-26.7,11.8-27,12.2C261.5,151.8,259.7,152.6,257.9,152.6z"/>
	<path class="st0" d="M270.1,182.5c-2.1,0-4.1-1.1-5.2-3c-1.7-2.9-0.7-6.5,2.2-8.2c8.9-5.2,18.8-8.9,29.2-11c3.2-0.6,6.4,1.5,7,4.7
		c0.6,3.3-1.5,6.4-4.7,7c-9.1,1.8-17.7,5-25.5,9.5C272.2,182.2,271.1,182.5,270.1,182.5z"/>
	<path class="st0" d="M257.9,152.5c-3.1,0-5.7-2.3-6-5.4c0-0.2-2-17.8-16.2-29c-2.6-2.1-3-5.8-1-8.4c2.1-2.6,5.8-3,8.4-1
		c18.3,14.5,20.6,36.4,20.7,37.3c0.3,3.3-2.1,6.2-5.4,6.5C258.3,152.5,258.1,152.5,257.9,152.5z"/>
	<path class="st0" d="M236.5,177c-2.4,0-4.6-1.4-5.6-3.7c-4.8-11.7-10.5-20.3-16.5-25c-2.6-2-3.1-5.8-1-8.4c2-2.6,5.8-3.1,8.4-1
		c7.7,6,14.5,16.1,20.2,29.9c1.3,3.1-0.2,6.6-3.3,7.8C238,176.9,237.2,177,236.5,177z"/>
</g>
<g>
	<path class="st0" d="M108.1,125.1c-1.9,0-3.8-0.9-4.9-2.6L68.4,72c-2.3-3.3-2.2-7.7,0.3-10.8s6.6-4.4,10.4-3.1l19.6,7l14-20.8
		c1.8-2.7,5.5-3.5,8.3-1.7L142,56.6l15.4-13.9c3-2.7,7.3-3.1,10.8-1.1c3.5,2,5.2,6,4.4,9.9l-13,59.9c-0.7,3.2-3.9,5.3-7.1,4.6
		c-3.2-0.7-5.3-3.9-4.6-7.1l11.1-51.5l-12.5,11.3c-2,1.8-5,2.1-7.3,0.6L119.3,56l-13.3,19.7c-1.5,2.3-4.4,3.2-7,2.3l-15.8-5.7
		l29.9,43.4c1.9,2.7,1.2,6.5-1.5,8.3C110.4,124.8,109.2,125.1,108.1,125.1z"/>
	<path class="st0" d="M119,187.7c-2.7,0-5.1-1.8-5.8-4.5L102,138.4c-2.2-8.8-0.8-17.9,4.1-25.6c4.9-7.7,12.5-12.9,21.4-14.7
		c2.1-0.4,4.3-0.6,6.4-0.6c16.2,0,30.2,12.1,32.5,28.2l8,55.1c0.5,3.3-1.8,6.3-5.1,6.8c-3.3,0.5-6.3-1.8-6.8-5.1l-8-55.1
		c-1.5-10.2-10.4-17.9-20.7-17.9c-1.3,0-2.7,0.1-4.1,0.4c-5.7,1.1-10.5,4.4-13.6,9.3c-3.1,4.9-4,10.7-2.6,16.3l11.2,44.7
		c0.8,3.2-1.1,6.5-4.4,7.3C120,187.6,119.5,187.7,119,187.7z"/>
	<path class="st0" d="M109.9,151.2c-2.8,0-5.3-2-5.9-4.8c-0.6-3.3,1.5-6.4,4.7-7L126,136c3.3-0.6,6.4,1.5,7,4.7
		c0.6,3.3-1.5,6.4-4.7,7l-17.2,3.4C110.7,151.2,110.3,151.2,109.9,151.2z"/>
</g>
<g>
	<path class="st1" d="M357.3,389.8H90.4c-3.3,0-6-2.7-6-6V183.6c0-1.6,0.6-3.1,1.8-4.2L99.5,166c2.3-2.3,6.1-2.3,8.5,0l9.1,9.1
		l9.1-9.1c2.3-2.3,6.1-2.3,8.5,0l9.1,9.1l9.1-9.1c2.3-2.3,6.1-2.3,8.5,0l9.1,9.1l9.1-9.1c2.3-2.3,6.1-2.3,8.5,0l9.1,9.1l9.1-9.1
		c2.3-2.3,6.1-2.3,8.5,0l9.1,9.1l9.1-9.1c1.1-1.1,2.7-1.8,4.2-1.8c1.6,0,3.1,0.6,4.2,1.8l9.1,9.1l9.1-9.1c1.1-1.1,2.7-1.8,4.2-1.8
		c1.6,0,3.1,0.6,4.2,1.8l9.1,9.1l9.1-9.1c1.1-1.1,2.7-1.8,4.2-1.8c1.6,0,3.1,0.6,4.2,1.8l9.1,9.1l9.1-9.1c1.1-1.1,2.7-1.8,4.2-1.8
		c1.6,0,3.1,0.6,4.2,1.8l9.1,9.1l9.1-9.1c1.1-1.1,2.7-1.8,4.2-1.8c1.6,0,3.1,0.6,4.2,1.8l13.3,13.3c1.1,1.1,1.8,2.7,1.8,4.2v200.1
		C363.3,387.1,360.6,389.8,357.3,389.8z M96.4,377.8h254.9V186.1l-7.3-7.3l-9.1,9.1c-1.1,1.1-2.7,1.8-4.2,1.8
		c-1.6,0-3.1-0.6-4.2-1.8l-9.1-9.1l-9.1,9.1c-1.1,1.1-2.7,1.8-4.2,1.8c-1.6,0-3.1-0.6-4.2-1.8l-9.1-9.1l-9.1,9.1
		c-2.3,2.3-6.1,2.3-8.5,0l-9.1-9.1l-9.1,9.1c-1.1,1.1-2.7,1.8-4.2,1.8s-3.1-0.6-4.2-1.8l-9.1-9.1l-9.1,9.1c-2.3,2.3-6.1,2.3-8.5,0
		l-9.1-9.1l-9.1,9.1c-2.3,2.3-6.1,2.3-8.5,0l-9.1-9.1l-9.1,9.1c-2.3,2.3-6.1,2.3-8.5,0l-9.1-9.1l-9.1,9.1c-2.3,2.3-6.1,2.3-8.5,0
		l-9.1-9.1l-9.1,9.1c-2.3,2.3-6.1,2.3-8.5,0l-9.1-9.1l-7.3,7.3V377.8z"/>
	<path class="st1" d="M277.2,389.8c-0.8,0-1.6-0.1-2.3-0.5c-2.2-0.9-3.7-3.1-3.7-5.5V183.6c0-3.3,2.7-6,6-6s6,2.7,6,6v185.7l28-28
		V176.6c0-3.3,2.7-6,6-6s6,2.7,6,6v167.2c0,1.6-0.6,3.1-1.8,4.2l-40,40C280.3,389.2,278.8,389.8,277.2,389.8z"/>
	<path class="st1" d="M355.2,389.8c-1.5,0-3.1-0.6-4.2-1.8l-40-40c-2.3-2.3-2.3-6.1,0-8.5c2.3-2.3,6.1-2.3,8.5,0l40,40
		c2.3,2.3,2.3,6.1,0,8.5C358.3,389.2,356.8,389.8,355.2,389.8z"/>
</g>
</svg>
