<?xml version="1.0" encoding="utf-8"?>
<!-- Generator: Adobe Illustrator 25.0.1, SVG Export Plug-In . SVG Version: 6.00 Build 0)  -->
<svg version="1.1" id="Layer_1" xmlns="http://www.w3.org/2000/svg" xmlns:xlink="http://www.w3.org/1999/xlink" x="0px" y="0px"
	 viewBox="0 0 430 430" style="enable-background:new 0 0 430 430;" xml:space="preserve">
<style type="text/css">
	.st0{fill:#121331;}
	.st1{fill:#08a88a;}
</style>
<path class="st0" d="M41,383.1c-0.7,0-1.5-0.1-2.2-0.4c-3.1-1.2-4.6-4.7-3.4-7.8c9.1-23.2,21.7-43.7,37.3-60.7
	c27.6-30.1,58.2-40.3,87.8-50.2c26.5-8.9,51.6-17.3,72.8-39.6c20.2-21.3,32.8-51.1,37.4-88.5c0.4-3.3,3.4-5.6,6.7-5.2
	c3.3,0.4,5.6,3.4,5.2,6.7c-4.9,40.1-18.6,72.2-40.6,95.4c-23.3,24.5-51,33.8-77.7,42.8c-28.1,9.4-57.2,19.2-82.8,47
	c-14.6,15.9-26.4,35.1-35,56.9C45.7,381.7,43.4,383.1,41,383.1z"/>
<path class="st1" d="M276.8,142.5c-1.3,0-2.7-0.5-3.8-1.3c-11.7-9.5-18.2-28.6-16.4-48.6c1.8-20,11.5-37.7,24.7-45
	c2.1-1.2,4.8-0.9,6.7,0.6c11.7,9.5,18.2,28.6,16.4,48.6c-1.8,20-11.5,37.7-24.7,45C278.8,142.3,277.8,142.5,276.8,142.5z
	 M283.5,60.6c-7.9,6.5-13.7,19.2-15,33.1c-1.2,13.9,2.3,27.3,8.9,35.2c7.9-6.5,13.7-19.2,15-33.1C293.7,81.9,290.1,68.4,283.5,60.6z
	"/>
<path class="st1" d="M90.7,238c-3.1,0-6.4-0.3-10.1-1.1c-31.4-6.3-43.5-48.8-45.5-70.3c-2.4-25.7,6.3-47.1,14-60.5
	c1.5-2.6,4.6-3.7,7.4-2.6c12.9,5,24.7,12,35.1,20.9c7.7,6.6,22,21.2,31.6,44.8c8,19.7,5.8,42.9-5.4,56.4
	C112.8,231.7,104.4,238,90.7,238z M57,116.7c-6.1,11.9-11.8,28.9-10,48.8c2,21.5,13.2,55.1,36,59.7c11.2,2.2,19.8-0.2,25.5-7.2
	c8.2-10,9.8-29,3.5-44.2l0,0c-8.7-21.3-21.5-34.4-28.4-40.3C75.7,126.7,66.7,121,57,116.7z"/>
<path class="st1" d="M281.3,377.9c-8.8,0-17.5-1.1-25.9-3.2c-8.8-2.2-26.1-8.2-43.3-23.3c0,0,0,0,0,0
	c-14.4-12.6-21.9-32.3-18.4-47.7c2.8-11.9,11.8-20.5,25.6-24.2c27.9-7.6,54.7,21.7,65,38.2c12.2,19.7,13.8,40.3,13,54.1
	c-0.2,3-2.5,5.3-5.4,5.6C288.3,377.7,284.8,377.9,281.3,377.9z M220,342.4c15.3,13.4,30.6,18.7,38.3,20.7c8.8,2.2,17.9,3.1,27.1,2.7
	c0-11.7-2.3-27.2-11.4-41.8c-9.7-15.5-32.2-38.2-51.6-32.9c-9.5,2.6-15.3,7.8-17,15.4C202.9,317.4,209.1,332.8,220,342.4L220,342.4z
	"/>
<path class="st1" d="M203.4,186.9c-0.9,0-1.9,0-2.9-0.1c-24.9-1.7-38.5-32.9-42.2-49.2c-4.4-19.3,0.1-36.4,4.6-47.4
	c1.1-2.7,4.1-4.2,7-3.5c10.3,2.5,19.9,6.6,28.7,12.4c6.5,4.2,18.8,13.9,28.5,30.9v0c8.2,14.3,8.8,32.5,1.4,44.1
	C223.3,182.4,214.4,186.9,203.4,186.9z M172.2,99.7c-3.1,9.2-5.3,21.6-2.2,35.2c3.4,14.8,14.8,38.8,31.3,39.9c8,0.5,13.7-1.9,17-7.1
	c4.9-7.8,4.2-21.5-1.7-31.8c0,0,0,0,0,0c-8.4-14.8-19-23.1-24.6-26.8C185.9,105,179.3,101.9,172.2,99.7z"/>
<path class="st1" d="M357.4,213.1c-4.7,0-10.1-0.5-16-1.9l0,0c-11.9-2.9-22.1-11.8-24.7-21.8c-2.1-7.9,0.6-15.8,7.4-22.3
	c13.6-12.7,37.2-4.4,47.7,1.8c12.4,7.3,19.3,18.2,22.8,26c1.2,2.7,0.3,5.9-2.2,7.5c-6.4,4.2-13.4,7.2-20.7,9
	C368.8,212.2,363.7,213.1,357.4,213.1z M344.3,199.5c11.3,2.7,20.4,1.3,24.8,0.3c4.3-1,8.4-2.6,12.3-4.7
	c-3.2-5.4-8.1-11.5-15.5-15.9c-9.4-5.5-26.1-10.2-33.5-3.4c-3.7,3.4-5,6.8-4,10.4C329.9,192,336.7,197.7,344.3,199.5L344.3,199.5z"
	/>
<path class="st0" d="M106.1,300.2c-0.2,0-0.4,0-0.6,0c-3.3-0.3-5.7-3.3-5.4-6.6c2-21,0.5-41.9-4.5-62.3
	c-3.8-15.3-9.5-30.2-17.1-44.3c-1.6-2.9-0.5-6.6,2.5-8.1c2.9-1.6,6.6-0.5,8.1,2.5c8,15,14.2,30.9,18.2,47.1
	c5.4,21.7,7,44.1,4.8,66.4C111.8,297.9,109.2,300.2,106.1,300.2z"/>
<path class="st0" d="M235.5,325.4c-1.9,0-3.7-0.9-4.9-2.5c-8.3-11.8-26.7-32.6-56.3-39.4c-9.2-2.1-18.8-2.8-28.4-1.8
	c-3.3,0.3-6.2-2.1-6.5-5.4c-0.3-3.3,2.1-6.2,5.4-6.5c11-1,21.8-0.3,32.3,2.1c33.5,7.8,54.1,31,63.4,44.2c1.9,2.7,1.3,6.4-1.4,8.4
	C237.9,325,236.7,325.4,235.5,325.4z"/>
<path class="st0" d="M216.8,251.5c-0.6,0-1.1-0.1-1.7-0.2c-3.2-0.9-5-4.2-4.1-7.4c3.9-13.4,4.9-27.7,3-41.5
	c-2.8-20-11.1-35.2-17.6-44.3c-1.9-2.7-1.3-6.4,1.4-8.4c2.7-1.9,6.4-1.3,8.4,1.4c10.5,14.7,17.3,31.9,19.7,49.6
	c2.1,15.4,1,31.4-3.4,46.4C221.8,249.8,219.4,251.5,216.8,251.5z"/>
<path class="st0" d="M261.6,200.4c-1.5,0-3-0.6-4.2-1.7c-2.4-2.3-2.4-6.1-0.1-8.5c6.1-6.3,19.2-17.1,38.7-19.1
	c9.5-1,19.4,0.4,28.5,3.9c3.1,1.2,4.6,4.7,3.4,7.8c-1.2,3.1-4.7,4.6-7.8,3.4c-7.4-2.9-15.3-4-23-3.2c-15.7,1.6-26.4,10.4-31.3,15.5
	C264.8,199.8,263.2,200.4,261.6,200.4z"/>
</svg>
