<?xml version="1.0" encoding="utf-8"?>
<!-- Generator: Adobe Illustrator 24.1.2, SVG Export Plug-In . SVG Version: 6.00 Build 0)  -->
<svg version="1.1" id="Warstwa_3" xmlns="http://www.w3.org/2000/svg" xmlns:xlink="http://www.w3.org/1999/xlink" x="0px" y="0px"
	 viewBox="0 0 430 430" style="enable-background:new 0 0 430 430;" xml:space="preserve">
<style type="text/css">
	.st0{fill:#08a88a;}
	.st1{fill:#121331;}
	.st2{fill:none;stroke:#121331;stroke-width:12;stroke-linecap:round;stroke-linejoin:round;stroke-miterlimit:10;}
	.st3{fill:#08A385;}
</style>
<g>
	<path class="st1" d="M391.34,123.01c-1-1.88-1.92-3.61-2.71-5.17c-2.08-4.1-6.64-6.17-11.09-5.03c-4.51,1.15-7.55,5.21-7.4,9.87
		c0.02,0.58,0.03,1.17,0.03,1.75c0,28.61-23,61.86-52.68,61.92l-3.23-0.09c-0.09,0-0.17,0-0.25,0c-13.32,0.2-24.19,11.2-24.22,24.53
		c0,0.12,0,0.24,0.01,0.36c0.1,1.8,0.22,4,0.22,4.41c0,18.12-11.57,34.05-28.8,39.65c-1.36,0.45-2.68,0.95-3.95,1.44
		c-1.08,0.41-2.19,0.84-3.34,1.24c-0.17,0.06-0.33,0.12-0.49,0.19c-11.73,5.22-17.68,16.88-14.8,29.01
		c2.19,9.26,9.24,16.6,18.39,19.17c0.13,0.04,0.25,0.07,0.39,0.1c1.35,0.31,7.78,2.67,12.04,4.24c4.22,1.55,7.86,2.89,9.77,3.49
		c6.55,2.05,14.5,3.44,22.75,3.44c9.96,0,20.36-2.03,29.27-7.4c8.94-5.39,15.05-13.51,17.85-23.66c20.71-5.8,35.55-17.1,44.14-33.62
		c7.5-14.44,10.07-32.66,7.64-54.18C417.3,171.87,400.48,140.21,391.34,123.01z M389.72,193.83
		C389.72,193.83,389.72,193.83,389.72,193.83c-16.29,23.89-29.51,24.69-29.65,24.7h0.16l-0.17,12c0.03,0,0.07,0,0.11,0
		c1.99,0,14.27-0.74,29.61-17.42c0.25,33.92-15.51,54.94-46.99,62.59c-22.85,4.48-33.58-5.85-33.98-6.24
		c-2.3-2.39-6.1-2.46-8.48-0.17c-2.39,2.3-2.46,6.09-0.17,8.48c0.51,0.53,10.9,11.05,31.66,11.05c1.18,0,2.4-0.04,3.64-0.12
		c-2.31,4.62-5.78,8.35-10.4,11.13c-10.61,6.39-27.2,7.48-42.25,2.78c-1.63-0.51-5.48-1.93-9.21-3.3
		c-7.59-2.79-11.54-4.21-13.47-4.67c-4.89-1.43-8.65-5.38-9.82-10.34c0,0,0,0,0,0c-1.51-6.36,1.54-12.3,7.79-15.18
		c1.24-0.43,2.37-0.87,3.47-1.29c1.19-0.46,2.31-0.88,3.37-1.23c22.18-7.2,37.08-27.72,37.08-51.06c0-0.73-0.14-3.3-0.23-4.91
		c0.1-6.71,5.57-12.23,12.28-12.39l3.17,0.09c0.06,0,0.11,0,0.17,0c17.06,0,33.46-8.51,46.18-23.98
		c10.37-12.61,16.86-28.19,18.28-43.59C390.67,147.41,403.51,173.54,389.72,193.83z"/>
	<path class="st1" d="M176.55,258.07c-0.16-0.07-0.33-0.14-0.49-0.19c-1.15-0.39-2.26-0.82-3.34-1.24
		c-1.27-0.49-2.59-0.99-3.96-1.44c-17.22-5.59-28.79-21.52-28.79-39.62c0-0.43,0.12-2.64,0.22-4.43c0.01-0.12,0.01-0.24,0.01-0.36
		c-0.03-13.33-10.9-24.33-24.22-24.53c-0.08,0-0.17,0-0.25,0l-3.23,0.09c-29.67-0.06-52.68-33.31-52.68-61.92
		c0-0.59,0.01-1.17,0.03-1.75c0.15-4.66-2.89-8.72-7.4-9.87c-4.45-1.14-9.01,0.93-11.09,5.03c-0.79,1.56-1.71,3.29-2.71,5.17
		c-9.14,17.2-25.96,48.87-9.55,75.64c-2.43,21.53,0.14,39.75,7.64,54.18c8.59,16.53,23.42,27.82,44.14,33.62
		c2.79,10.14,8.91,18.27,17.85,23.66c8.91,5.37,19.31,7.4,29.27,7.4c8.25,0,16.2-1.39,22.75-3.44c1.92-0.6,5.56-1.94,9.77-3.49
		c4.26-1.57,10.7-3.94,12.03-4.24c0.14-0.03,0.27-0.06,0.41-0.1c9.16-2.57,16.21-9.92,18.39-19.17
		C194.23,274.94,188.28,263.29,176.55,258.07z M179.68,284.31C179.68,284.31,179.68,284.31,179.68,284.31
		c-1.17,4.97-4.93,8.92-9.82,10.35c-1.94,0.45-5.88,1.88-13.47,4.67c-3.72,1.37-7.58,2.79-9.21,3.3
		c-15.05,4.7-31.64,3.61-42.25-2.78c-4.62-2.78-8.09-6.51-10.4-11.13c1.24,0.07,2.46,0.12,3.64,0.12
		c20.75,0,31.15-10.51,31.66-11.05c2.3-2.39,2.25-6.21-0.14-8.51c-2.39-2.29-6.16-2.25-8.46,0.14c-0.45,0.44-11.17,10.77-34.02,6.29
		c-31.48-7.65-47.24-28.68-46.99-62.59c15.35,16.68,27.62,17.42,29.61,17.42c0.04,0,0.07,0,0.11,0l-0.17-12h0.16
		c-0.13,0-13.36-0.8-29.64-24.69c0,0,0,0,0-0.01c-13.79-20.29-0.95-46.42,7.84-63.06c1.42,15.4,7.91,30.98,18.28,43.59
		c12.72,15.46,29.12,23.98,46.18,23.98c0.06,0,0.11,0,0.17,0l3.17-0.09c6.71,0.16,12.18,5.68,12.28,12.39
		c-0.09,1.6-0.23,4.17-0.23,4.91c0,23.34,14.9,43.86,37.07,51.05c1.08,0.35,2.2,0.78,3.39,1.24c1.1,0.42,2.23,0.85,3.47,1.29
		C178.13,272.01,181.19,277.94,179.68,284.31z"/>
</g>
</svg>
