<?xml version="1.0" encoding="utf-8"?>
<!-- Generator: Adobe Illustrator 24.1.2, SVG Export Plug-In . SVG Version: 6.00 Build 0)  -->
<svg version="1.1" id="Warstwa_3" xmlns="http://www.w3.org/2000/svg" xmlns:xlink="http://www.w3.org/1999/xlink" x="0px" y="0px"
	 viewBox="0 0 430 430" style="enable-background:new 0 0 430 430;" xml:space="preserve">
<style type="text/css">
	.st0{fill:#08a88a;}
	.st1{fill:#121331;}
	.st2{fill:none;stroke:#121331;stroke-width:12;stroke-linecap:round;stroke-linejoin:round;stroke-miterlimit:10;}
	.st3{fill:#08A385;}
</style>
<g>
	<g>
		<path class="st3" d="M300.3,381.38c-0.41,0-0.83-0.04-1.25-0.13l-39.81-8.43c-2.77-0.59-4.76-3.04-4.76-5.87V317.6
			c0-3.31,2.69-6,6-6s6,2.69,6,6v44.49l35.05,7.42c3.24,0.69,5.31,3.87,4.63,7.11C305.57,379.44,303.07,381.38,300.3,381.38z"/>
		<path class="st3" d="M260.49,372.06c-2.38,0-4.63-1.42-5.57-3.77c-1.23-3.08,0.26-6.57,3.33-7.8l39.8-15.97
			c3.08-1.23,6.57,0.26,7.8,3.33c1.23,3.08-0.26,6.57-3.33,7.8l-39.8,15.97C261.99,371.92,261.23,372.06,260.49,372.06z"/>
	</g>
	<path class="st3" d="M356.74,169.74c-2.46,0-4.77-1.52-5.65-3.97c-1.12-3.12,0.5-6.55,3.62-7.67c0.25-0.09,0.52-0.18,0.8-0.28
		c0.43-0.15,1.16-0.4,1.41-0.52c3.95-2.13,6.83-5.68,8.12-9.98c1.28-4.3,0.81-8.85-1.33-12.8c-3.23-5.99-22.41-17.94-38.8-26.15
		c-0.58-0.29-1.1-0.67-1.56-1.12c-2.34-2.34-2.35-6.15,0-8.49c1.94-1.94,4.88-2.28,7.16-1c8.99,4.51,37.53,19.51,43.77,31.06
		c3.66,6.77,4.46,14.56,2.27,21.93c-2.2,7.38-7.14,13.46-13.92,17.12c-1.05,0.57-2.25,0.98-3.22,1.31
		c-0.22,0.08-0.43,0.15-0.63,0.22C358.1,169.62,357.41,169.74,356.74,169.74z"/>
	<path class="st1" d="M335.63,105.03c7.61-2.46,25.14-4.1,36.22,3.54c1.83,1.26,4.22,1.41,6.19,0.37c1.97-1.04,3.21-3.08,3.21-5.31
		c0-22.47-21.11-34.04-41.96-37.66c-5.82-10.64-16.97-17.34-29.28-17.34c-18.4,0-33.37,14.97-33.37,33.37
		c0,14.81,6.75,24.58,13.89,34.93c5.71,8.27,12.03,17.43,15.92,30.93c-3.76-1.14-8.12-2.32-12.86-3.36
		c-4.31-11.23-13.44-20.11-24.8-24.09c-5.99-17.31-22.75-28.54-41.04-27.46c-12.17-13.68-31.95-17.6-48.42-9.6
		c-16.47-8-36.25-4.08-48.42,9.6c-18.28-1.07-35.02,10.14-41.03,27.45c-17.3,5.99-28.51,22.75-27.45,41.03
		c-13.68,12.17-17.6,31.95-9.6,48.42c-8,16.47-4.08,36.25,9.6,48.42c-1.06,18.21,10.07,34.91,27.29,40.97l1.03,4.04
		c3.73,14.61,16.83,24.52,31.51,24.52c1.53,0,3.08-0.11,4.64-0.33c5.93-0.84,11.55-3.25,16.25-6.95l36.55-28.78
		c1.77,1.46,3.59,2.89,5.49,4.3c23.85,17.67,53.96,27.8,82.63,27.8c37.03,0,69.77-11.81,89.84-32.4
		c15.1-15.49,22.78-35.56,22.21-58.02C378.67,186.14,345.75,123.29,335.63,105.03z M135.74,311.08c-3.04,2.4-6.68,3.95-10.52,4.5
		c-10.43,1.49-20.23-5.09-22.83-15.28l-1.87-7.31c-0.54-2.13-2.21-3.79-4.33-4.33c-14.36-3.67-23.61-17.5-21.52-32.16
		c0.31-2.17-0.59-4.33-2.34-5.65c-11.85-8.89-15.08-25.2-7.52-37.94c0.07-0.12,0.15-0.26,0.21-0.39c0.89-1.77,0.84-3.88-0.13-5.61
		c-0.03-0.05-0.06-0.1-0.08-0.15c-7.56-12.74-4.33-29.05,7.52-37.94c1.75-1.31,2.65-3.48,2.34-5.64
		c-2.09-14.67,7.17-28.5,21.49-32.16c2.14-0.54,3.81-2.2,4.36-4.34c3.67-14.36,17.48-23.61,32.17-21.52
		c2.16,0.31,4.33-0.59,5.64-2.34c8.88-11.84,25.17-15.08,37.91-7.54c1.84,1.11,4.14,1.15,6.03,0.1c0.05-0.03,0.1-0.06,0.15-0.08
		c12.74-7.56,29.05-4.33,37.94,7.52c1.31,1.75,3.48,2.65,5.64,2.34c14.65-2.08,28.47,7.15,32.15,21.48
		c0.53,2.14,2.19,3.83,4.34,4.38c6.58,1.68,12.3,5.66,16.23,11.02c-3.59-0.38-7.25-0.6-10.9-0.6c-37,0-67.91,22.54-83.04,35.97
		c-22.21,19.72-37.13,43.13-37.13,58.25c0,16.04,8.24,32.88,23.06,47.87L135.74,311.08z M349.07,283.05
		c-17.83,18.29-47.44,28.78-81.25,28.78c-57.24,0-108.17-42.59-108.17-76.16c0-9.64,11.6-30.19,33.1-49.28
		c23.58-20.94,50.94-32.95,75.07-32.95c12.79,0,29.5,3.41,44.71,9.11c2.01,0.75,4.26,0.38,5.92-0.98s2.46-3.5,2.11-5.62
		c-3.65-21.94-12.8-35.2-20.15-45.85c-6.57-9.52-11.76-17.04-11.76-28.11c0-11.78,9.58-21.37,21.37-21.37
		c8.63,0,16.38,5.15,19.72,13.11c0.82,1.96,2.62,3.34,4.73,3.62c4.64,0.63,24.05,3.91,31.69,15.66
		c-10.38-2.84-21.68-2.34-29.83-0.54c-7.27,1.61-11.96,4.12-13.92,7.45c-0.84,1.43-1.05,3.15-0.58,4.75
		c0.14,0.49,0.35,0.95,0.61,1.38c1.4,2.42,44.15,76.64,45.45,127.64C368.37,253.14,362.05,269.74,349.07,283.05z"/>
	<path class="st1" d="M264.25,292.58c-17.78,0-35.58-6.63-49.33-19.95c-14.79-14.33-22.61-34.36-21.44-54.93
		c0.12-2.08,1.3-3.95,3.13-4.94c1.83-0.99,4.04-0.96,5.85,0.08c3.44,1.98,7.15,3.39,11.03,4.21c12.97,2.75,26.22-1.28,35.43-10.79
		c1.04-1.07,4.22-5.6,6.32-8.59c3.23-4.6,5.13-7.27,6.41-8.6c7.87-8.12,18.54-12.69,30.07-12.87c0.23,0,0.47,0,0.7,0
		c11.25,0,21.79,4.22,29.74,11.92c18.42,17.84,15.25,47.38,4.52,67.26c-3.08,5.71-6.95,10.98-11.5,15.68v0
		C301.29,285.38,282.78,292.58,264.25,292.58z M205.63,227.33c1.33,13.84,7.52,26.86,17.64,36.67c23.32,22.6,60.68,22.02,83.28-1.31
		v0c3.79-3.91,7-8.29,9.56-13.03c8.93-16.55,11-40.05-2.31-52.95c-5.81-5.63-13.62-8.64-21.9-8.53c-8.32,0.13-16,3.4-21.64,9.22
		c-0.74,0.78-3.43,4.61-5.21,7.15c-3.62,5.16-5.94,8.41-7.52,10.04c-12.11,12.49-29.5,17.79-46.54,14.18
		C209.18,228.4,207.39,227.92,205.63,227.33z M310.86,266.88L310.86,266.88L310.86,266.88z"/>
</g>
</svg>
