<?xml version="1.0" encoding="utf-8"?>
<!-- Generator: Adobe Illustrator 24.1.2, SVG Export Plug-In . SVG Version: 6.00 Build 0)  -->
<svg version="1.1" id="Warstwa_3" xmlns="http://www.w3.org/2000/svg" xmlns:xlink="http://www.w3.org/1999/xlink" x="0px" y="0px"
	 viewBox="0 0 430 430" style="enable-background:new 0 0 430 430;" xml:space="preserve">
<style type="text/css">
	.st0{fill:#08A385;}
	.st1{fill:#121331;}
	.st2{fill:none;stroke:#08A385;stroke-width:12;stroke-linecap:round;stroke-linejoin:round;stroke-miterlimit:10;}
	.st3{fill:none;stroke:#121331;stroke-width:12;stroke-linecap:round;stroke-linejoin:round;stroke-miterlimit:10;}
</style>
<g>
	<path class="st0" d="M202.43,185.2c-2.45,0-4.75-1.51-5.64-3.95l-7.85-21.57c-1.13-3.11,0.47-6.56,3.58-7.69
		c3.11-1.13,6.56,0.47,7.69,3.58l7.85,21.57c1.13,3.11-0.47,6.56-3.58,7.69C203.8,185.08,203.11,185.2,202.43,185.2z"/>
	<path class="st0" d="M227.52,185.2c-0.68,0-1.38-0.12-2.05-0.36c-3.11-1.13-4.72-4.58-3.58-7.69l7.85-21.57
		c1.13-3.11,4.58-4.72,7.69-3.58c3.11,1.13,4.72,4.58,3.58,7.69l-7.85,21.57C232.27,183.68,229.97,185.2,227.52,185.2z"/>
	<path class="st1" d="M346.33,198.32c1.57-0.25,2.98-1.11,3.91-2.4l29.39-40.46c1.95-2.68,1.35-6.43-1.33-8.38
		c-2.68-1.95-6.43-1.35-8.38,1.33l-27.93,38.45l-91.03,14.48c-0.37-3.14-1.18-6.15-2.36-8.98l43.38-30.46
		c1.04-0.73,1.83-1.78,2.24-2.99L328.65,56.8c1.06-3.14-0.63-6.54-3.77-7.6c-3.14-1.06-6.54,0.63-7.6,3.77l-33.81,100.25
		l-41.4,29.07c-6.64-7.15-16.31-11.66-27.08-11.66c-10.77,0-20.45,4.52-27.09,11.67l-41.4-29.07L112.69,52.96
		c-1.06-3.14-4.46-4.83-7.6-3.77c-3.14,1.06-4.83,4.46-3.77,7.6l34.44,102.11c0.41,1.21,1.19,2.26,2.24,2.99l43.39,30.47
		c-1.19,2.83-2,5.84-2.36,8.98L88,186.86l-27.92-38.45c-1.95-2.68-5.7-3.28-8.38-1.33c-2.68,1.95-3.28,5.7-1.33,8.38l29.38,40.46
		c0.93,1.29,2.34,2.15,3.91,2.4l96.08,15.29c0.48,2.27,1.13,4.59,1.94,6.9l-92.9,14.78c-1.57,0.25-2.98,1.11-3.91,2.4L55.5,278.16
		c-1.95,2.68-1.35,6.43,1.33,8.38c1.06,0.77,2.3,1.15,3.52,1.15c1.86,0,3.69-0.86,4.86-2.48l27.92-38.45l78.79-12.54
		c-0.07,0.1-0.14,0.2-0.21,0.3l-46.9,33.09c-1.04,0.74-1.82,1.78-2.23,2.99l-34.44,102.6c-1.05,3.14,0.64,6.54,3.78,7.6
		c0.63,0.21,1.28,0.31,1.91,0.31c2.51,0,4.85-1.58,5.69-4.09l33.82-100.74l30.32-21.39c-0.32,2.2-0.5,4.45-0.5,6.73
		c0,26.21,22.26,66.62,51.84,66.62c29.58,0,51.84-40.41,51.84-66.62c0-2.25-0.18-4.46-0.48-6.63l30.17,21.29l33.82,100.74
		c0.84,2.51,3.18,4.09,5.69,4.09c0.63,0,1.28-0.1,1.91-0.31c3.14-1.05,4.83-4.46,3.78-7.6l-34.44-102.6
		c-0.41-1.21-1.19-2.26-2.23-2.99l-46.63-32.9c-0.12-0.17-0.24-0.34-0.36-0.51l78.92,12.55l27.93,38.45c1.17,1.62,3,2.47,4.86,2.47
		c1.22,0,2.46-0.37,3.52-1.15c2.68-1.95,3.28-5.7,1.33-8.38l-29.39-40.46c-0.93-1.29-2.34-2.15-3.91-2.4l-93-14.8
		c0.81-2.31,1.47-4.63,1.95-6.9L346.33,198.32z M214.99,182.62c13.34,0,24.2,10.13,24.2,22.57c0,0.72-0.04,1.47-0.11,2.23
		c-0.02,0.14-0.04,0.28-0.05,0.42c-0.29,2.84-1.04,5.92-2.16,9.05c-6.65-2.96-14.07-4.63-21.88-4.63c-7.81,0-15.22,1.66-21.87,4.62
		c-1.49-4.13-2.32-8.2-2.32-11.69C190.79,192.74,201.65,182.62,214.99,182.62z M214.99,316.24c-21.61,0-39.84-33.55-39.84-54.62
		c0-12.89,6.99-24.27,17.6-30.99c0.27-0.13,0.52-0.29,0.77-0.46c6.2-3.74,13.57-5.92,21.47-5.92c14.05,0,26.42,6.86,33.51,17.2
		c0.23,0.49,0.53,0.95,0.9,1.37c3.45,5.53,5.43,11.95,5.43,18.8C254.83,282.7,236.59,316.24,214.99,316.24z"/>
</g>
</svg>
