<?xml version="1.0" encoding="utf-8"?>
<!-- Generator: Adobe Illustrator 24.1.2, SVG Export Plug-In . SVG Version: 6.00 Build 0)  -->
<svg version="1.1" id="Warstwa_3" xmlns="http://www.w3.org/2000/svg" xmlns:xlink="http://www.w3.org/1999/xlink" x="0px" y="0px"
	 viewBox="0 0 430 430" style="enable-background:new 0 0 430 430;" xml:space="preserve">
<style type="text/css">
	.st0{fill:#121331;}
	.st1{fill:#08A385;}
	.st2{fill:none;stroke:#121331;stroke-width:14;stroke-linecap:round;stroke-linejoin:round;stroke-miterlimit:10;}
	.st3{fill:none;stroke:#08A385;stroke-width:12;stroke-linecap:round;stroke-linejoin:round;stroke-miterlimit:10;}
	.st4{fill:#06A385;}
	.st5{fill:none;stroke:#121331;stroke-width:12;stroke-linecap:round;stroke-linejoin:round;stroke-miterlimit:10;}
</style>
<g>
	<path class="st4" d="M174.4,346.12c-48.11,0-87.26-39.14-87.26-87.26c0-20.68,7.36-40.72,20.73-56.43
		c1.49-1.76,3.38-3.72,6.25-6.69c2.41-2.49,5.39-5.58,9.36-9.81c8.48-10.4,5-23.98-2.23-32.86c-4.79-5.88-11.58-9.55-19.13-10.32
		c-7.55-0.77-14.94,1.44-20.82,6.23c-2.71,2.2-4.95,4.82-6.67,7.81c-1.48,2.57-4.62,3.67-7.38,2.59c-2.49-0.97-4.01-3.46-3.8-6.06
		c0.17-4.52,0.79-9,1.83-13.34c7.46-31.56,35.38-53.62,67.88-53.62c18.55,0,36.04,7.65,49.23,21.54
		c12.97,13.66,20.11,31.49,20.11,50.21c0,12.82-3.56,25.78-10.02,36.49c-1.71,2.84-5.4,3.75-8.24,2.04s-3.75-5.4-2.04-8.24
		c5.35-8.87,8.3-19.62,8.3-30.29c0-32.39-26.26-59.76-57.34-59.76c-24.54,0-45.92,15.18-54.19,37.67c7.31-4.26,15.77-6.1,24.36-5.22
		c10.74,1.1,20.4,6.31,27.21,14.68c12.25,15.05,13.1,34.88,2.06,48.22c-0.08,0.1-0.16,0.19-0.25,0.28
		c-4.1,4.37-7.16,7.54-9.62,10.08c-2.7,2.79-4.49,4.64-5.73,6.11c-11.54,13.56-17.88,30.84-17.88,48.67
		c0,41.5,33.76,75.26,75.26,75.26c8.6,0,17.02-1.44,25.02-4.27c3.13-1.11,6.55,0.53,7.66,3.65c1.11,3.12-0.53,6.55-3.65,7.66
		C194.13,344.45,184.37,346.12,174.4,346.12z"/>
	<path class="st0" d="M366.01,224.21c0,0,0-0.01,0-0.01c-2.21-9.35-10.46-15.89-20.06-15.89c-1.58,0-3.17,0.19-4.73,0.55
		l-44.86,10.56c4.53-9.23,9.47-17.83,14.82-21.29c27.12-0.65,48.14-17.43,48.14-38.73c0-1.52-0.57-2.98-1.61-4.09
		c-4.63-4.98-7.63-9.76-10.53-14.39c-4.44-7.09-8.63-13.78-17.26-18.63c-8.5-4.77-20.05-7.04-37.22-7.26L268.1,84.48
		c-1.6-1.98-4.27-2.74-6.67-1.9c-2.4,0.85-4.01,3.11-4.01,5.66v59.64c0,0.23,0.02,0.5,0.04,0.72c0.05,0.43,1.11,10.63-6.39,19.04
		c-6.92,7.76-18.99,11.69-35.86,11.69c-21.17,0-38.85,8.16-51.12,23.6c-10.74,13.52-16.66,32.04-16.66,52.13
		c0,23.11,7.88,46,21.62,62.79c11.16,13.64,31.47,29.91,64.88,29.91H348.7c3.31,0,6-2.69,6-6c0-9.25-3.6-17.94-10.14-24.48
		c-6.55-6.53-15.24-10.13-24.49-10.13h-15.09c0.3-12.04,0.24-32.12-10.92-43.6c-0.33-0.34-0.67-0.67-1.02-0.99l57.62-13.57
		C361.72,246.38,368.6,235.27,366.01,224.21z M271.31,255.35c-0.02,0-0.04,0.01-0.06,0.02c-0.02,0.01-0.05,0.01-0.07,0.01
		c-0.39,0.1-38.79,9.66-54.98-18.03c-1.67-2.86-5.35-3.82-8.21-2.15c-2.86,1.67-3.82,5.35-2.15,8.21
		c12.47,21.33,33.98,25.71,49.56,25.71c8.68,0,15.5-1.36,17.9-1.91c5.19,0.12,9.18,1.65,12.15,4.71c8.27,8.51,7.75,26.98,7.47,36.91
		c-0.05,1.66-0.09,3.12-0.09,4.32c0,3.31,2.69,6,6,6h21.23c6.04,0,11.73,2.35,16,6.62c2.82,2.82,4.8,6.25,5.82,9.99H233.95
		c-48.91,0-74.5-40.6-74.5-80.7c0-17.4,4.99-33.26,14.05-44.67c9.91-12.47,24.33-19.07,41.72-19.07c20.57,0,35.7-5.35,44.99-15.89
		c10.12-11.49,9.47-25.14,9.22-27.86v-42.31l15.7,19.51c1.14,1.42,2.86,2.24,4.67,2.24c34.5,0,39.28,7.63,47.2,20.27
		c2.71,4.33,5.74,9.17,10.18,14.28c-1.56,13.74-17.85,24.59-37.65,24.59c-1.08,0-2.09,0.29-2.96,0.78
		c-11.14,5.83-18.13,20.87-25.53,36.79l-0.87,1.86c-0.97,2.08-0.67,4.54,0.78,6.32c1.45,1.78,3.79,2.58,6.03,2.05l56.97-13.41
		c0.67-0.16,1.31-0.23,1.98-0.23c4.01,0,7.45,2.73,8.38,6.64c1.08,4.62-1.8,9.27-6.41,10.36L271.31,255.35z"/>
	<path class="st0" d="M313.29,155.45c-0.39,0-0.78-0.04-1.17-0.12c-0.38-0.08-0.76-0.19-1.12-0.34c-0.36-0.15-0.71-0.34-1.04-0.55
		c-0.33-0.22-0.63-0.47-0.91-0.75c-0.28-0.28-0.53-0.58-0.75-0.91c-0.21-0.33-0.4-0.68-0.55-1.04c-0.15-0.36-0.26-0.74-0.34-1.12
		c-0.08-0.39-0.12-0.78-0.12-1.17c0-1.58,0.64-3.13,1.76-4.24c1.12-1.12,2.66-1.76,4.24-1.76s3.13,0.64,4.24,1.76
		c1.12,1.11,1.76,2.66,1.76,4.24s-0.64,3.12-1.76,4.24C316.42,154.81,314.87,155.45,313.29,155.45z"/>
</g>
</svg>
