<?xml version="1.0" encoding="utf-8"?>
<!-- Generator: Adobe Illustrator 24.1.2, SVG Export Plug-In . SVG Version: 6.00 Build 0)  -->
<svg version="1.1" id="Warstwa_3" xmlns="http://www.w3.org/2000/svg" xmlns:xlink="http://www.w3.org/1999/xlink" x="0px" y="0px"
	 viewBox="0 0 430 430" style="enable-background:new 0 0 430 430;" xml:space="preserve">
<style type="text/css">
	.st0{fill:#08a88a;}
	.st1{fill:#121331;}
	.st2{fill:#08a88a;fill-opacity:0;}
	.st3{fill:none;}
</style>
<g>
	<path class="st1" d="M295.74,390.84c-13.32,0-28.89-6.67-44.11-13.18c-12.3-5.26-25.01-10.7-33.21-10.7
		c-8.8,0-21.81,5.33-34.4,10.49c-21.68,8.88-44.09,18.06-59.33,7.84c-9.51-6.38-14.14-19-14.14-38.56
		c0-29.22,11.81-64.89,30.82-93.08c21.86-32.41,49.22-50.26,77.04-50.26s55.18,17.85,77.04,50.26
		c19.01,28.19,30.83,63.85,30.83,93.08c0,20.25-4.76,33.24-14.55,39.7C306.98,389.56,301.58,390.84,295.74,390.84z M218.42,354.36
		c10.79,0,24.09,5.69,38.17,11.72c17.94,7.68,38.27,16.38,48.21,9.83c5.9-3.89,8.89-13.71,8.89-29.18
		c0-51.63-42.68-130.74-95.27-130.74c-52.59,0-95.26,79.11-95.26,130.74c0,14.83,2.88,24.29,8.56,28.1
		c9.65,6.48,29.77-1.77,47.53-9.04C193.59,359.91,207.14,354.36,218.42,354.36z"/>
	<path class="st0" d="M112.84,250.15c-8.07,0-16.68-3.62-25.01-10.65c-10.54-8.89-19.61-22.43-25.54-38.13
		c-11.33-29.98-8.13-60.08,7.61-71.57c1.84-1.34,3.84-2.43,5.95-3.23c2.11-0.8,4.33-1.31,6.59-1.51
		c19.41-1.8,41.71,18.66,53.04,48.65l0,0c12.92,34.19,6.97,67.04-13.55,74.8C119.02,249.6,115.97,250.15,112.84,250.15z
		 M84.83,137.55c-0.42,0-0.83,0.02-1.23,0.06c-1.14,0.11-2.25,0.36-3.3,0.75c-1.04,0.39-2.04,0.94-2.97,1.61
		c-9.54,6.97-13.37,30.17-3.25,56.94c5.19,13.72,12.96,25.43,21.88,32.96c7.79,6.57,15.63,9.07,21.51,6.85
		c5.88-2.22,10.11-9.28,11.61-19.37c1.71-11.55-0.2-25.47-5.39-39.19C113.92,152.3,96.6,137.55,84.83,137.55z"/>
	<path class="st0" d="M172.71,173.73c-19.72,0-39.63-22.98-46.98-55.59c-7.05-31.27,0.31-60.63,17.49-69.81
		c2.01-1.08,4.15-1.87,6.34-2.37c2.2-0.5,4.47-0.69,6.74-0.58c19.46,0.92,38.71,24.29,45.75,55.56l0,0
		c8.04,35.65-2.43,67.36-23.83,72.18C176.39,173.53,174.55,173.73,172.71,173.73z M155.08,57.95c-0.93,0-1.86,0.1-2.76,0.3
		c-1.09,0.25-2.15,0.64-3.17,1.19c-10.42,5.57-17.43,28.01-11.14,55.93c3.23,14.31,9.29,26.98,17.08,35.68
		c6.8,7.6,14.22,11.16,20.35,9.78c6.13-1.38,11.3-7.78,14.19-17.56c3.3-11.2,3.35-25.25,0.12-39.56
		c-6.29-27.92-22.26-45.19-34.06-45.75C155.49,57.95,155.29,57.95,155.08,57.95z"/>
	<path class="st0" d="M261.79,168.89c-1.06,0-2.11-0.07-3.18-0.2c-11.06-1.42-20.25-9.92-25.88-23.96
		c-5.13-12.8-6.78-29.01-4.65-45.66c4.07-31.79,21.02-56.87,40.31-59.62c2.26-0.32,4.53-0.34,6.76-0.06
		c2.24,0.29,4.43,0.88,6.53,1.76c17.98,7.52,28.07,36.06,24,67.86l0,0C301.28,143.49,282.35,168.89,261.79,168.89z M272,51.79
		c-0.6,0-1.21,0.04-1.82,0.13c-11.69,1.67-25.96,20.36-29.6,48.75c-1.86,14.55-0.5,28.53,3.85,39.37
		c3.79,9.46,9.54,15.35,15.78,16.15c6.23,0.79,13.28-3.45,19.34-11.65c6.93-9.39,11.78-22.58,13.64-37.13
		c3.64-28.39-5.46-50.08-16.36-54.64c-1.06-0.44-2.16-0.74-3.27-0.88C273.05,51.82,272.53,51.79,272,51.79z M299.44,108.21
		L299.44,108.21L299.44,108.21z"/>
	<path class="st0" d="M316.48,244.48c-3.17,0-6.28-0.56-9.26-1.72c-10.39-4.05-17.25-14.53-19.31-29.51
		c-1.88-13.66,0.44-29.79,6.53-45.43c11.64-29.87,34.18-50.1,53.54-48.1c2.27,0.23,4.48,0.77,6.58,1.58
		c2.1,0.82,4.09,1.93,5.91,3.29c15.62,11.65,18.51,41.78,6.87,71.65l0,0C356,225.33,335.08,244.48,316.48,244.48z M345.32,132.19
		c-11.77,0-29.14,14.56-39.14,40.21c-5.33,13.67-7.39,27.57-5.79,39.13c1.39,10.1,5.55,17.2,11.41,19.48
		c5.86,2.29,13.73-0.13,21.58-6.62c9-7.44,16.89-19.06,22.22-32.73c10.4-26.67,6.81-49.91-2.66-56.97
		c-0.92-0.68-1.91-1.24-2.96-1.65c-1.04-0.41-2.15-0.67-3.29-0.79C346.24,132.22,345.79,132.19,345.32,132.19z M361.47,193.96
		L361.47,193.96L361.47,193.96z"/>
</g>
</svg>
