<?xml version="1.0" encoding="utf-8"?>
<!-- Generator: Adobe Illustrator 24.1.2, SVG Export Plug-In . SVG Version: 6.00 Build 0)  -->
<svg version="1.1" id="Warstwa_3" xmlns="http://www.w3.org/2000/svg" xmlns:xlink="http://www.w3.org/1999/xlink" x="0px" y="0px"
	 viewBox="0 0 430 430" style="enable-background:new 0 0 430 430;" xml:space="preserve">
<style type="text/css">
	.st0{fill:#08a88a;}
	.st1{fill:#121331;}
	.st2{fill:none;}
	.st3{fill:#08a88a;fill-opacity:0;}
</style>
<g>
	<path class="st1" d="M303.51,390.05h-22.74c-11.42,0-20.71-9.28-20.71-20.69v-4.04c-3.58,0.32-7.17,0.48-10.75,0.48H213.7
		c-5.14,0-10.26-0.32-15.29-0.96v18.91c0,3.48-2.82,6.3-6.3,6.3h-22.74c-11.42,0-20.71-9.28-20.71-20.69v-22.48
		c-16.34-10.42-30.05-24.69-39.79-41.47c-10.66-18.36-16.29-39.36-16.29-60.72c0-9.27,1.04-18.39,3.05-27.21H83.9
		c-0.07,0-0.14,0-0.21,0c-7.12-0.24-18.36-3.51-25.38-12.86H44.02c-3.48,0-6.3-2.82-6.3-6.3s2.82-6.3,6.3-6.3h8.75
		c-0.52-2.56-0.81-5.36-0.81-8.41c0-9.37,4-15.04,7.36-18.15c4.23-3.92,9.9-6.08,15.95-6.08c10.93,0,22.54,7.71,22.54,22
		c0,6-2.12,11.26-6.14,15.2c-4.07,3.99-9.37,6-13.89,7.02c2.95,1.02,5.45,1.24,6.27,1.29h15.19c5.92-17.06,15.67-32.69,28.82-45.84
		c17.29-17.3,39.08-28.83,63.01-33.35c3.42-0.64,6.71,1.6,7.36,5.02c0.65,3.42-1.6,6.71-5.02,7.36
		c-21.43,4.04-40.94,14.37-56.43,29.87c-20.5,20.5-31.8,47.76-31.8,76.75c0,38.03,20.31,73.77,53.01,93.26
		c1.91,1.14,3.07,3.19,3.07,5.41v26c0,4.46,3.64,8.09,8.11,8.09h16.44v-19.79c0-0.13,0-0.26,0-0.39V344.1c0-3.48,2.82-6.3,6.3-6.3
		s6.3,2.82,6.3,6.3v8.02c5.01,0.71,10.13,1.07,15.29,1.07h35.61c3.57,0,7.17-0.18,10.75-0.53v-8.57c0-3.48,2.82-6.3,6.3-6.3
		s6.3,2.82,6.3,6.3V358c0.01,0.16,0.01,0.33,0,0.49v10.88c0,4.46,3.64,8.09,8.11,8.09h16.44v-31.54c0-2.33,1.28-4.47,3.34-5.56
		c9.33-4.97,17.91-11.34,25.5-18.92c14.94-14.94,25.13-33.7,29.45-54.23c0.61-2.92,3.19-5,6.17-5h5.07
		c7.14,0,12.95-5.81,12.95-12.95v-18.96c0-7.14-5.81-12.95-12.95-12.95h-7.62c-2.77,0-5.22-1.81-6.03-4.46
		c-7.77-25.46-24.66-47.13-47.54-61.02c-1.79-1.09-2.93-3-3.02-5.09c-0.06-1.2-0.96-25.21,13.82-44.7
		c-13.66,0.17-24.27,3.18-32.8,9.21c-2.84,2.01-6.77,1.33-8.78-1.51c-2.01-2.84-1.33-6.77,1.51-8.78
		c18.14-12.81,40.07-12.3,55-10.79c2.56,0.26,4.71,2.05,5.42,4.52s-0.15,5.13-2.18,6.71c-16.35,12.75-18.97,33.67-19.36,41.6
		c22.65,14.69,39.69,36.37,48.52,61.72h3.05c14.09,0,25.55,11.46,25.55,25.55v18.96c0,14.09-11.46,25.55-25.55,25.55h-0.07
		c-5.35,20.97-16.25,40.09-31.71,55.54c-7.56,7.56-16,14.04-25.15,19.29v34.13C309.81,387.23,306.99,390.05,303.51,390.05z
		 M65.86,192.01h2.79c0.09,0,0.19,0,0.29,0c2.76,0,10.2-0.78,13.93-4.47c1.6-1.58,2.34-3.54,2.34-6.18c0-7.42-6.25-9.4-9.94-9.4
		c-2.87,0-5.49,0.97-7.39,2.73c-2.21,2.04-3.32,5.04-3.32,8.91C64.56,186.89,65.04,189.66,65.86,192.01z"/>
	<path class="st0" d="M229.68,154.55c-31.6,0-57.3-25.7-57.3-57.3s25.7-57.3,57.3-57.3s57.3,25.7,57.3,57.3
		S261.27,154.55,229.68,154.55z M229.68,52.55c-24.65,0-44.7,20.05-44.7,44.7s20.05,44.7,44.7,44.7s44.7-20.05,44.7-44.7
		S254.33,52.55,229.68,52.55z"/>
	<path class="st1" d="M265.62,166.55c-0.72,0-1.45-0.12-2.17-0.39c-0.03-0.01-9.38-3.11-34.87-3.12c-0.02,0-0.05,0-0.07,0
		c-24.58,0-31.84,2.91-31.92,2.94c0.14-0.06,0.2-0.09,0.2-0.09l-5.59-11.29c1.4-0.69,9.79-4.16,37.38-4.15
		c27.81,0.01,38.12,3.49,39.2,3.88c3.27,1.2,4.94,4.82,3.75,8.08C270.6,164.96,268.19,166.55,265.62,166.55z"/>
	<path d="M303.43,178c-7.53,0-13.63,6.1-13.63,13.63s6.1,13.63,13.63,13.63c7.52,0,13.63-6.1,13.63-13.63S310.95,178,303.43,178z"/>
</g>
</svg>
