<?xml version="1.0" encoding="utf-8"?>
<!-- Generator: Adobe Illustrator 25.0.1, SVG Export Plug-In . SVG Version: 6.00 Build 0)  -->
<svg version="1.1" id="Layer_1" xmlns="http://www.w3.org/2000/svg" xmlns:xlink="http://www.w3.org/1999/xlink" x="0px" y="0px"
	 viewBox="0 0 430 430" style="enable-background:new 0 0 430 430;" xml:space="preserve">
<style type="text/css">
	.st0{fill:#121331;}
	.st1{fill:#08a88a;}
</style>
<path class="st0" d="M296.4,370H70.3c-3.3,0-6-2.7-6-6V66c0-3.3,2.7-6,6-6h226.1c3.3,0,6,2.7,6,6v97.2c0,3.3-2.7,6-6,6s-6-2.7-6-6
	V72H76.3V358h214.1V205.6c0-3.3,2.7-6,6-6s6,2.7,6,6V364C302.4,367.4,299.7,370,296.4,370z"/>
<path class="st1" d="M189.7,298c-1.5,0-3-0.6-4.2-1.7c-1.3-1.2-1.9-2.9-1.8-4.7l1.2-23.4c0.1-1.7,0.9-3.2,2.1-4.3l140.8-140.8
	c2.3-2.3,6.1-2.3,8.5,0l21.2,21.2c1.1,1.1,1.8,2.7,1.8,4.2s-0.6,3.1-1.8,4.2L216.4,294.1c-1,1-2.3,1.6-3.7,1.7l-22.5,2.2
	C190,298,189.9,298,189.7,298z M196.8,271.3l-0.8,14.1l13.4-1.3l135.4-135.4L332,136L196.8,271.3z"/>
<path class="st1" d="M346.7,150.5l-17.1-17.1l11.3-11.3c2.2-2.2,5.8-2.2,8,0l9.1,9.1c2.2,2.2,2.2,5.8,0,8L346.7,150.5z"/>
</svg>
