<?xml version="1.0" encoding="utf-8"?>
<!-- Generator: Adobe Illustrator 26.2.1, SVG Export Plug-In . SVG Version: 6.00 Build 0)  -->
<svg version="1.1" id="outline" xmlns="http://www.w3.org/2000/svg" xmlns:xlink="http://www.w3.org/1999/xlink" x="0px" y="0px"
	 viewBox="0 0 500 500" style="enable-background:new 0 0 500 500;" xml:space="preserve">
<style type="text/css">
	.st0{fill:#121331;}
	.st1{fill:none;stroke:#121331;stroke-width:12;stroke-linecap:round;stroke-linejoin:round;stroke-miterlimit:10;}
	.st2{fill:#08a88a;}
	.st3{fill:none;stroke:#08a88a;stroke-width:12;stroke-linecap:round;stroke-linejoin:round;stroke-miterlimit:10;}
	.st4{fill:#FFFFFF;}
	.st5{fill:#08a88a;}
</style>
<path class="st2" d="M305.6,379.7H191.9c-3.3,0-6-2.7-6-6s2.7-6,6-6h113.7c3.3,0,6,2.7,6,6S308.9,379.7,305.6,379.7z"/>
<path class="st0" d="M305.6,416.1H191.9c-3.3,0-6-2.7-6-6V201c0-25,15-47.7,37.7-57.6v-18.7c0-3.3,2.7-6,6-6s6,2.7,6,6v22.8
	c0,2.5-1.6,4.8-4,5.6c-20.2,7.2-33.7,26.5-33.7,47.9v203.1h101.7V201c0-21.4-13.6-40.7-33.7-47.9c-2.4-0.9-4-3.1-4-5.6v-22.8
	c0-3.3,2.7-6,6-6s6,2.7,6,6v18.7c22.7,9.9,37.7,32.6,37.7,57.6v209.1C311.6,413.4,308.9,416.1,305.6,416.1z"/>
<path class="st0" d="M282.8,121.2h-12.7c-3.3,0-6-2.7-6-6s2.7-6,6-6h12.7c3.3,0,6,2.7,6,6S286.1,121.2,282.8,121.2z"/>
<path class="st0" d="M227.4,121.2h-19.5c-3.3,0-6-2.7-6-6s2.7-6,6-6h19.5c3.3,0,6,2.7,6,6S230.7,121.2,227.4,121.2z"/>
<path class="st0" d="M248.7,142.6c-15.1,0-27.3-12.3-27.3-27.3s12.3-27.3,27.3-27.3s27.3,12.3,27.3,27.3S263.8,142.6,248.7,142.6z
	 M248.7,99.9c-8.5,0-15.3,6.9-15.3,15.3s6.9,15.3,15.3,15.3c8.5,0,15.3-6.9,15.3-15.3S257.2,99.9,248.7,99.9z"/>
<path class="st2" d="M174.3,134.4c-1.6,0-3.1-0.6-4.2-1.7c-1.2-1.1-1.8-2.7-1.8-4.3v-26.2c0-1.6,0.7-3.2,1.8-4.3
	c1.2-1.1,2.7-1.7,4.4-1.7l33.6,1.1c3.2,0.1,5.8,2.8,5.8,6v24c0,3.2-2.6,5.9-5.8,6l-33.6,1.1C174.5,134.4,174.4,134.4,174.3,134.4z
	 M207.9,127.2L207.9,127.2L207.9,127.2z M180.3,108.3v13.8l21.6-0.7V109L180.3,108.3z"/>
</svg>
