<?xml version="1.0" encoding="utf-8"?>
<!-- Generator: Adobe Illustrator 25.0.1, SVG Export Plug-In . SVG Version: 6.00 Build 0)  -->
<svg version="1.1" id="Layer_1" xmlns="http://www.w3.org/2000/svg" xmlns:xlink="http://www.w3.org/1999/xlink" x="0px" y="0px"
	 viewBox="0 0 430 430" style="enable-background:new 0 0 430 430;" xml:space="preserve">
<style type="text/css">
	.st0{fill:#08a88a;}
	.st1{fill:#121331;}
</style>
<g>
	<path class="st0" d="M59.2,290.3c-2.2,0-4.4-1.2-5.4-3.4c-0.6-1.1-13.5-28.2-14.7-66.9c-1.1-35.7,8.1-88.3,58.5-135.9
		c2.4-2.3,6.2-2.2,8.5,0.2c2.3,2.4,2.2,6.2-0.2,8.5C68.1,128.5,49.7,171,51.1,219.2c1,36.2,13.4,62.2,13.5,62.5c1.4,3,0.2,6.6-2.8,8
		C61,290.1,60.1,290.3,59.2,290.3z"/>
	<g>
		<path class="st0" d="M116.4,79.7H64.5c-3.3,0-6-2.7-6-6s2.7-6,6-6h51.8c3.3,0,6,2.7,6,6S119.7,79.7,116.4,79.7z"/>
		<path class="st0" d="M116.4,131.6c-3.3,0-6-2.7-6-6V73.7c0-3.3,2.7-6,6-6s6,2.7,6,6v51.8C122.4,128.9,119.7,131.6,116.4,131.6z"/>
	</g>
</g>
<g>
	<path class="st1" d="M343,107.8c-1.6,0-3.2-0.6-4.4-1.9C303,68.2,260.5,49.8,212.3,51.2c-36.2,1-62.2,13.4-62.5,13.5
		c-3,1.4-6.6,0.2-8-2.8c-1.4-3-0.2-6.6,2.8-8c1.1-0.6,28.2-13.5,66.9-14.7c35.7-1.1,88.3,8.1,135.9,58.5c2.3,2.4,2.2,6.2-0.2,8.5
		C345.9,107.2,344.5,107.8,343,107.8z"/>
	<g>
		<path class="st1" d="M357.7,122.5c-3.3,0-6-2.7-6-6V64.6c0-3.3,2.7-6,6-6s6,2.7,6,6v51.8C363.7,119.8,361,122.5,357.7,122.5z"/>
		<path class="st1" d="M357.7,122.5h-51.8c-3.3,0-6-2.7-6-6s2.7-6,6-6h51.8c3.3,0,6,2.7,6,6S361,122.5,357.7,122.5z"/>
	</g>
</g>
<g>
	<path class="st0" d="M328.3,345.6c-1.6,0-3.2-0.6-4.4-1.9c-2.3-2.4-2.2-6.2,0.2-8.5c37.7-35.7,56.1-78.2,54.8-126.4
		c-1-36.2-13.4-62.2-13.5-62.5c-1.4-3-0.2-6.6,2.8-8c3-1.4,6.6-0.2,8,2.8c0.6,1.1,13.5,28.2,14.7,66.9c1.1,35.7-8.1,88.3-58.5,135.9
		C331.3,345.1,329.8,345.6,328.3,345.6z"/>
	<g>
		<path class="st0" d="M365.5,360.4h-51.8c-3.3,0-6-2.7-6-6s2.7-6,6-6h51.8c3.3,0,6,2.7,6,6S368.8,360.4,365.5,360.4z"/>
		<path class="st0" d="M313.6,360.4c-3.3,0-6-2.7-6-6v-51.8c0-3.3,2.7-6,6-6s6,2.7,6,6v51.8C319.6,357.7,316.9,360.4,313.6,360.4z"
			/>
	</g>
</g>
<g>
	<path class="st1" d="M214.4,390.9c-35.5,0-85.2-10.7-130.5-58.6c-2.3-2.4-2.2-6.2,0.2-8.5c2.4-2.3,6.2-2.2,8.5,0.2
		c35.7,37.7,78.2,56.1,126.4,54.8c36.2-1,62.2-13.4,62.5-13.5c3-1.4,6.6-0.2,8,2.8c1.4,3,0.2,6.6-2.8,8
		c-1.1,0.6-28.2,13.5-66.9,14.7C218.1,390.9,216.3,390.9,214.4,390.9z"/>
	<g>
		<path class="st1" d="M73.6,371.4c-3.3,0-6-2.7-6-6v-51.8c0-3.3,2.7-6,6-6s6,2.7,6,6v51.8C79.6,368.7,76.9,371.4,73.6,371.4z"/>
		<path class="st1" d="M125.4,319.5H73.6c-3.3,0-6-2.7-6-6s2.7-6,6-6h51.8c3.3,0,6,2.7,6,6S128.7,319.5,125.4,319.5z"/>
	</g>
</g>
</svg>
