<?xml version="1.0" encoding="utf-8"?>
<!-- Generator: Adobe Illustrator 25.0.1, SVG Export Plug-In . SVG Version: 6.00 Build 0)  -->
<svg version="1.1" id="Layer_1" xmlns="http://www.w3.org/2000/svg" xmlns:xlink="http://www.w3.org/1999/xlink" x="0px" y="0px"
	 viewBox="0 0 430 430" style="enable-background:new 0 0 430 430;" xml:space="preserve">
<style type="text/css">
	.st0{fill:#121331;}
</style>
<path class="st0" d="M304.9,366.4c-1.9,0-3.7-0.6-5.4-1.7c-0.1-0.1-0.2-0.1-0.2-0.2l-85.5-67.3l-84.9,65.6c-0.1,0-0.1,0.1-0.2,0.1
	c-3.3,2.3-7.6,2.3-10.9,0c-3.2-2.4-4.6-6.5-3.4-10.3l32.4-101.7l-85.3-61.5c-3.3-2.4-4.6-6.5-3.4-10.4c1.2-3.8,4.8-6.4,8.8-6.4
	l105,0L205.2,70c1.3-3.8,4.8-6.4,8.8-6.4c0,0,0,0,0,0c4,0,7.5,2.5,8.8,6.3l33.8,103.3l106.5,0c4,0,7.6,2.6,8.8,6.4
	c1.2,3.9-0.2,8-3.4,10.4l-86.8,61.9l32.1,102.3c1.3,3.8,0,7.9-3.2,10.3C308.8,365.8,306.9,366.4,304.9,366.4z M126,356.2L126,356.2
	C126,356.3,126,356.3,126,356.2z M213.9,284.5c1.9,0,3.8,0.6,5.4,1.7c0.1,0.1,0.2,0.1,0.2,0.2l80.2,63.1l-30-95.7
	c-1.3-3.8,0.1-8.1,3.4-10.5l81.4-58.1l-99.9,0c-4,0-7.5-2.5-8.8-6.3L214,81.7l-31.3,96.5c-1.3,3.8-4.8,6.4-8.8,6.4l-98.5,0
	l80.1,57.7c3.3,2.4,4.6,6.5,3.4,10.4l-30.3,95.2l79.7-61.6c0.1,0,0.1-0.1,0.2-0.1C210.1,285.1,212,284.5,213.9,284.5z M147.5,249
	C147.5,249,147.5,249,147.5,249L147.5,249z"/>
</svg>
