<?xml version="1.0" encoding="utf-8"?>
<!-- Generator: Adobe Illustrator 24.0.2, SVG Export Plug-In . SVG Version: 6.00 Build 0)  -->
<svg version="1.1" xmlns="http://www.w3.org/2000/svg" xmlns:xlink="http://www.w3.org/1999/xlink" x="0px" y="0px"
	 viewBox="0 0 24 24" style="enable-background:new 0 0 24 24;" xml:space="preserve">
<style type="text/css">
	.st0{fill:none;}
	.st1{fill:#121331;}
</style>
<g id="bounding_box">
	<rect class="st0" width="24" height="24"/>
</g>
<g id="design">
	<g>
		<path class="st1" d="M18.25,12.49c-0.17,0-0.34-0.06-0.48-0.17c-0.81-0.67-1.74-1.19-2.77-1.56c-1.9-0.67-4.09-0.67-6,0
			c-1.03,0.37-1.96,0.89-2.77,1.56c-0.32,0.26-0.79,0.22-1.06-0.1c-0.26-0.32-0.22-0.79,0.1-1.06C6.21,10.38,7.3,9.77,8.5,9.34
			c2.23-0.79,4.77-0.79,7,0c1.2,0.43,2.29,1.04,3.23,1.82c0.32,0.26,0.36,0.74,0.1,1.06C18.68,12.4,18.46,12.49,18.25,12.49z"/>
		<path class="st1" d="M21.25,8.82c-0.17,0-0.34-0.06-0.48-0.17c-0.85-0.71-1.81-1.32-2.84-1.81c-3.62-1.75-8.25-1.75-11.85,0
			c-1.04,0.49-1.99,1.1-2.85,1.81c-0.32,0.26-0.79,0.22-1.06-0.1c-0.26-0.32-0.22-0.79,0.1-1.06C3.22,6.7,4.29,6.02,5.43,5.48
			c4-1.94,9.13-1.94,13.15,0c1.14,0.54,2.2,1.21,3.15,2.01c0.32,0.27,0.36,0.74,0.1,1.06C21.68,8.73,21.46,8.82,21.25,8.82z"/>
		<path class="st1" d="M15.25,16.16c-0.17,0-0.34-0.06-0.48-0.17c-1.58-1.3-3.97-1.3-5.55,0c-0.32,0.26-0.79,0.22-1.06-0.1
			c-0.26-0.32-0.22-0.79,0.1-1.06c2.09-1.71,5.36-1.71,7.45,0c0.32,0.26,0.37,0.74,0.1,1.06C15.68,16.07,15.47,16.16,15.25,16.16z"
			/>
		<g>
			<path class="st1" d="M12,20c-0.17,0-0.33-0.03-0.48-0.09c-0.15-0.07-0.29-0.16-0.4-0.28c-0.12-0.11-0.21-0.25-0.27-0.4
				c-0.07-0.15-0.1-0.31-0.1-0.48c0-0.08,0.01-0.16,0.02-0.24c0.02-0.08,0.04-0.16,0.08-0.24c0.03-0.07,0.07-0.15,0.11-0.21
				c0.05-0.07,0.1-0.14,0.16-0.19c0.05-0.06,0.12-0.11,0.19-0.16c0.06-0.04,0.14-0.08,0.21-0.11c0.08-0.04,0.16-0.06,0.24-0.08
				c0.16-0.03,0.32-0.03,0.48,0c0.08,0.02,0.16,0.04,0.24,0.08c0.07,0.03,0.15,0.07,0.21,0.11c0.07,0.05,0.14,0.1,0.19,0.16
				c0.24,0.23,0.37,0.55,0.37,0.88c0,0.17-0.03,0.33-0.1,0.48c-0.06,0.15-0.15,0.29-0.27,0.4c-0.11,0.12-0.25,0.21-0.4,0.28
				C12.33,19.97,12.17,20,12,20z"/>
		</g>
	</g>
</g>
</svg>
