<?xml version="1.0" encoding="utf-8"?>
<!-- Generator: Adobe Illustrator 24.1.2, SVG Export Plug-In . SVG Version: 6.00 Build 0)  -->
<svg version="1.1" id="Warstwa_1" xmlns="http://www.w3.org/2000/svg" xmlns:xlink="http://www.w3.org/1999/xlink" x="0px" y="0px"
	 viewBox="0 0 430 430" style="enable-background:new 0 0 430 430;" xml:space="preserve">
<style type="text/css">
	.st0{fill:#121331;}
	.st1{fill:#08a88a;}
	.st2{fill-opacity:0;}
	.st3{fill:none;}
</style>
<g>
	<path class="st0" d="M119.85,331.99H58.14c-3.61,0-6.54-2.93-6.54-6.54s2.93-6.54,6.54-6.54h61.71c3.61,0,6.54,2.93,6.54,6.54
		S123.46,331.99,119.85,331.99z M119.85,258.13H58.14c-3.61,0-6.54-2.93-6.54-6.54s2.93-6.54,6.54-6.54h61.71
		c3.61,0,6.54,2.93,6.54,6.54S123.46,258.13,119.85,258.13z M119.85,183.56H58.14c-3.61,0-6.54-2.93-6.54-6.54s2.93-6.54,6.54-6.54
		h61.71c3.61,0,6.54,2.93,6.54,6.54S123.46,183.56,119.85,183.56z M119.85,111.1H58.14c-3.61,0-6.54-2.93-6.54-6.54
		s2.93-6.54,6.54-6.54h61.71c3.61,0,6.54,2.93,6.54,6.54S123.46,111.1,119.85,111.1z"/>
	<path class="st0" d="M372.3,331.99h-61.71c-3.61,0-6.54-2.93-6.54-6.54s2.93-6.54,6.54-6.54h61.71c3.61,0,6.54,2.93,6.54,6.54
		S375.91,331.99,372.3,331.99z M372.3,258.13h-61.71c-3.61,0-6.54-2.93-6.54-6.54s2.93-6.54,6.54-6.54h61.71
		c3.61,0,6.54,2.93,6.54,6.54S375.91,258.13,372.3,258.13z M372.3,183.56h-61.71c-3.61,0-6.54-2.93-6.54-6.54s2.93-6.54,6.54-6.54
		h61.71c3.61,0,6.54,2.93,6.54,6.54S375.91,183.56,372.3,183.56z M372.3,111.1h-61.71c-3.61,0-6.54-2.93-6.54-6.54
		s2.93-6.54,6.54-6.54h61.71c3.61,0,6.54,2.93,6.54,6.54S375.91,111.1,372.3,111.1z"/>
	<path class="st0" d="M119.97,331.9c-1.73,0-3.4-0.69-4.62-1.91c-1.23-1.23-1.92-2.89-1.92-4.63V105.11c0-3.61,2.92-6.54,6.53-6.54
		l190.83-0.29c0,0,0.01,0,0.01,0c1.73,0,3.4,0.69,4.62,1.91c1.23,1.23,1.92,2.89,1.92,4.63l0.06,220.25c0,3.61-2.92,6.54-6.53,6.55
		L119.97,331.9C119.98,331.9,119.97,331.9,119.97,331.9z M126.51,111.64V318.8l177.8-0.27l-0.06-207.15L126.51,111.64z"/>
	<path class="st1" d="M198.39,265.37c-0.83,0-1.67-0.16-2.47-0.48c-2.47-1-4.08-3.4-4.08-6.06v-86.02c0-2.63,1.58-5.01,4-6.03
		c2.43-1.02,5.23-0.49,7.11,1.34l43.01,41.93c1.24,1.21,1.95,2.87,1.98,4.6c0.02,1.74-0.65,3.41-1.86,4.65l-43.01,44.09
		C201.82,264.69,200.12,265.37,198.39,265.37z M204.93,188.33v54.42l27.21-27.89L204.93,188.33z"/>
	<path class="st0" d="M56.18,331.59c-1.74,0-3.4-0.69-4.63-1.92c-1.23-1.23-1.92-2.89-1.92-4.63V104.8c0-3.61,2.93-6.54,6.54-6.54
		l317.58-0.15c0,0,0,0,0,0c1.74,0,3.4,0.69,4.63,1.92c1.23,1.23,1.92,2.89,1.92,4.63l0.06,220.25c0,3.61-2.93,6.54-6.54,6.55
		L56.18,331.59C56.18,331.59,56.18,331.59,56.18,331.59z M62.73,111.34V318.5l304.54-0.14l-0.05-207.16L62.73,111.34z"/>
</g>
</svg>
