<?xml version="1.0" encoding="utf-8"?>
<!-- Generator: Adobe Illustrator 24.0.2, SVG Export Plug-In . SVG Version: 6.00 Build 0)  -->
<svg version="1.1" xmlns="http://www.w3.org/2000/svg" xmlns:xlink="http://www.w3.org/1999/xlink" x="0px" y="0px"
	 viewBox="0 0 24 24" style="enable-background:new 0 0 24 24;" xml:space="preserve">
<style type="text/css">
	.st0{fill:none;}
	.st1{fill:#121331;}
</style>
<g id="bounding_area">
	<rect class="st0" width="24" height="24"/>
</g>
<g id="design">
	<g>
		<g>
			<path class="st1" d="M16.8,17.09c0.05-0.04,0.1-0.09,0.15-0.14c2.72-2.73,2.72-7.17,0-9.9c-2.73-2.73-7.17-2.73-9.9,0
				c-2.73,2.73-2.73,7.17,0,9.9c0.05,0.05,0.1,0.1,0.15,0.14l-1.82,2.73c-0.23,0.35-0.14,0.81,0.2,1.04
				c0.13,0.09,0.28,0.13,0.42,0.13c0.24,0,0.48-0.12,0.62-0.33L8.4,18c1.07,0.65,2.31,1,3.6,1s2.53-0.35,3.6-1l1.78,2.66
				c0.14,0.21,0.38,0.33,0.62,0.33c0.14,0,0.29-0.04,0.42-0.13c0.34-0.23,0.43-0.69,0.2-1.04L16.8,17.09z M12,17.5
				c-1.47,0-2.85-0.57-3.89-1.61c-2.14-2.15-2.14-5.63,0-7.78c1.07-1.07,2.48-1.6,3.89-1.6s2.82,0.53,3.89,1.6S17.5,10.59,17.5,12
				c0,1.41-0.54,2.82-1.61,3.89C14.85,16.93,13.47,17.5,12,17.5z"/>
		</g>
		<g>
			<path class="st1" d="M14.8,14.8c-0.15,0.14-0.34,0.22-0.53,0.22c-0.2,0-0.39-0.08-0.53-0.22l-2.27-2.27
				c-0.07-0.07-0.12-0.15-0.16-0.24c-0.04-0.09-0.06-0.19-0.06-0.29V9.75C11.25,9.34,11.59,9,12,9s0.75,0.34,0.75,0.75v1.94
				l2.05,2.05C15.09,14.03,15.09,14.5,14.8,14.8z"/>
		</g>
		<path class="st1" d="M20.25,8c-0.19,0-0.38-0.07-0.53-0.22l-3.5-3.5c-0.29-0.29-0.29-0.77,0-1.06s0.77-0.29,1.06,0l3.5,3.5
			c0.29,0.29,0.29,0.77,0,1.06C20.63,7.93,20.44,8,20.25,8z"/>
		<path class="st1" d="M3.75,8C3.56,8,3.37,7.93,3.22,7.78c-0.29-0.29-0.29-0.77,0-1.06l3.5-3.5c0.29-0.29,0.77-0.29,1.06,0
			c0.29,0.29,0.29,0.77,0,1.06l-3.5,3.5C4.14,7.93,3.95,8,3.75,8z"/>
	</g>
</g>
</svg>
