<?xml version="1.0" encoding="utf-8"?>
<!-- Generator: Adobe Illustrator 24.1.2, SVG Export Plug-In . SVG Version: 6.00 Build 0)  -->
<svg version="1.1" id="Warstwa_3" xmlns="http://www.w3.org/2000/svg" xmlns:xlink="http://www.w3.org/1999/xlink" x="0px" y="0px"
	 viewBox="0 0 430 430" style="enable-background:new 0 0 430 430;" xml:space="preserve">
<style type="text/css">
	.st0{fill:#08a88a;}
	.st1{fill:#121331;}
	.st2{fill:none;}
	.st3{fill-opacity:0;}
</style>
<g>
	<path class="st0" d="M293.06,159.71c-2.16,0-4.26-1.1-5.44-3.09L241.93,79.7l-33.18,21.86c-1.23,0.81-2.64,1.13-4.01,1.02
		l28.73,47.49c1.81,2.99,0.85,6.87-2.14,8.68c-2.99,1.81-6.87,0.85-8.68-2.14l-55.39-91.56l-89.92,57.78L92.8,148.9
		c1.78,3,0.79,6.88-2.21,8.66c-3,1.78-6.88,0.79-8.66-2.21l-18.56-31.3c-1.74-2.93-0.84-6.7,2.02-8.54L165.9,50.92
		c1.44-0.92,3.19-1.23,4.84-0.84c1.66,0.38,3.1,1.43,3.98,2.89l24.72,40.87c0.47-1.12,1.26-2.11,2.35-2.83l38.71-25.5
		c1.44-0.95,3.21-1.27,4.89-0.88c1.68,0.39,3.13,1.45,4.02,2.93l28,47.13c0.43-0.58,0.98-1.09,1.62-1.5l40.63-26.23
		c1.46-0.94,3.24-1.24,4.92-0.83c1.69,0.41,3.13,1.49,3.99,3L362.92,149c1.74,3.03,0.69,6.89-2.34,8.63
		c-3.03,1.74-6.89,0.69-8.63-2.34l-31.03-54.1l-35.03,22.62c-0.78,0.5-1.63,0.81-2.5,0.94l15.09,25.41c1.78,3,0.79,6.88-2.21,8.66
		C295.27,159.42,294.16,159.71,293.06,159.71z"/>
	<path class="st0" d="M133.21,342.11c-2.86,0-5.45-1.95-6.14-4.86l-26.13-109.59c-0.81-3.4,1.29-6.8,4.68-7.61
		c3.39-0.82,6.8,1.29,7.61,4.68l26.13,109.59c0.81,3.4-1.29,6.8-4.68,7.61C134.18,342.06,133.69,342.11,133.21,342.11z M260.27,342
		c-0.25,0-0.51-0.01-0.76-0.04c-3.47-0.42-5.94-3.56-5.52-7.03l10.92-90.94c0.42-3.46,3.56-5.93,7.03-5.52
		c3.47,0.42,5.94,3.56,5.52,7.03l-10.92,90.94C266.15,339.64,263.42,342,260.27,342z M217.04,342c-0.01,0-0.02,0-0.03,0
		c-3.49-0.02-6.31-2.86-6.29-6.35l0.4-78.81c0.02-3.48,2.84-6.29,6.32-6.29c0.01,0,0.02,0,0.03,0c3.49,0.02,6.31,2.86,6.29,6.35
		l-0.4,78.81C223.34,339.19,220.51,342,217.04,342z M301.22,341.96c-0.48,0-0.97-0.05-1.46-0.17c-3.4-0.8-5.5-4.21-4.7-7.6
		l25.87-109.55c0.8-3.4,4.21-5.5,7.6-4.7c3.4,0.8,5.5,4.21,4.7,7.6l-25.87,109.55C306.68,340,304.08,341.96,301.22,341.96z
		 M174.25,341.25c-3.14,0-5.86-2.34-6.26-5.54l-11.08-88.44c-0.43-3.46,2.02-6.62,5.49-7.06c3.47-0.43,6.62,2.02,7.06,5.49
		l11.08,88.44c0.43,3.46-2.02,6.62-5.49,7.06C174.78,341.24,174.52,341.25,174.25,341.25z"/>
	<path class="st1" d="M216.98,208.2c0,0-0.01,0-0.01,0c-2.81-0.01-5.18-1.84-6-4.37c-2.79-0.66-4.86-3.16-4.86-6.15
		c0-2.89,1.93-5.32,4.58-6.08l0.3-133.7c0.01-3.49,2.84-6.31,6.32-6.31c0,0,0.01,0,0.01,0c3.49,0.01,6.31,2.84,6.31,6.34
		l-0.31,135.01c1.3,1.16,2.12,2.84,2.12,4.72c0,1.9-0.84,3.6-2.16,4.76C223.01,205.66,220.29,208.2,216.98,208.2z"/>
	<path class="st1" d="M387,203.45H43c-10.6,0-19.22-8.62-19.22-19.22v-17.2c0-10.6,8.62-19.22,19.22-19.22h344
		c10.6,0,19.22,8.62,19.22,19.22v17.2C406.22,194.83,397.6,203.45,387,203.45z M43,160.45c-3.63,0-6.58,2.95-6.58,6.58v17.2
		c0,3.63,2.95,6.58,6.58,6.58h344c3.63,0,6.58-2.95,6.58-6.58v-17.2c0-3.63-2.95-6.58-6.58-6.58H43z"/>
	<path class="st1" d="M312.46,380.09H119.12c-14.7,0-29.5-11.03-33.71-25.11L39.09,200.01c-1-3.35,0.9-6.87,4.25-7.87
		c3.35-1,6.87,0.9,7.87,4.25l46.32,154.96c2.61,8.72,12.5,16.09,21.6,16.09h193.33c9.08,0,18.87-7.37,21.38-16.09l44.94-155.98
		c0.97-3.35,4.47-5.29,7.82-4.32c3.35,0.97,5.29,4.47,4.32,7.82l-44.94,155.98C341.9,369,327.18,380.09,312.46,380.09z"/>
	<ellipse class="st1" cx="215.8" cy="208.65" rx="17.67" ry="16.45"/>
</g>
</svg>
