<?xml version="1.0" encoding="utf-8"?>
<!-- Generator: Adobe Illustrator 24.1.2, SVG Export Plug-In . SVG Version: 6.00 Build 0)  -->
<svg version="1.1" id="Warstwa_1" xmlns="http://www.w3.org/2000/svg" xmlns:xlink="http://www.w3.org/1999/xlink" x="0px" y="0px"
	 viewBox="0 0 430 430" style="enable-background:new 0 0 430 430;" xml:space="preserve">
<style type="text/css">
	.st0{fill:#08a88a;}
	.st1{fill:#121331;}
	.st2{fill:#08a88a;}
	.st3{fill:#00A689;}
	.st4{fill:none;}
	.st5{fill:none;stroke:#121331;stroke-width:12;stroke-linecap:round;stroke-linejoin:round;stroke-miterlimit:10;}
</style>
<g>
	<g>
		<path class="st1" d="M78.22,258.65c3.31,0,6-2.69,6-6s-2.69-6-6-6h-0.01c-3.31,0-5.99,2.69-5.99,6S74.91,258.65,78.22,258.65z"/>
		<path class="st1" d="M78.23,293.36h-0.01c-3.31,0-5.99,2.69-5.99,6s2.69,6,6.01,6s6-2.69,6-6S81.54,293.36,78.23,293.36z"/>
		<path class="st1" d="M315.38,258.65c3.31,0,6-2.69,6-6s-2.69-6-6-6h-0.01c-3.31,0-5.99,2.69-5.99,6S312.06,258.65,315.38,258.65z"
			/>
		<path class="st1" d="M315.38,293.36h-0.01c-3.31,0-5.99,2.69-5.99,6s2.69,6,6.01,6s6-2.69,6-6S318.7,293.36,315.38,293.36z"/>
		<path class="st1" d="M383.6,91.4c-11.28,0-20.77,7.75-23.45,18.2H34.19V79.68c0-3.31-2.69-6-6-6s-6,2.69-6,6v77.84
			c0,3.31,2.69,6,6,6s6-2.69,6-6V121.6h75.7v79.23c0,3.31,2.69,6,6,6s6-2.69,6-6V121.6h149.8v79.23c0,3.31,2.69,6,6,6s6-2.69,6-6
			V121.6h76.46c2.68,10.45,12.17,18.2,23.45,18.2c13.35,0,24.2-10.86,24.2-24.2C407.81,102.26,396.95,91.4,383.6,91.4z
			 M383.6,127.81c-6.73,0-12.2-5.47-12.2-12.2c0-6.73,5.47-12.2,12.2-12.2s12.2,5.47,12.2,12.2
			C395.81,122.33,390.33,127.81,383.6,127.81z"/>
		<path class="st1" d="M262.07,250.08H131.52c-3.31,0-6,2.69-6,6s2.69,6,6,6h130.55c3.31,0,6-2.69,6-6S265.39,250.08,262.07,250.08z
			"/>
		<path class="st1" d="M243.86,289.93h-94.12c-3.31,0-6,2.69-6,6s2.69,6,6,6h94.12c3.31,0,6-2.69,6-6S247.17,289.93,243.86,289.93z"
			/>
	</g>
	<path class="st0" d="M278.17,356.32H115.42c-44.28,0-80.31-36.03-80.31-80.31s36.03-80.31,80.31-80.31h162.75
		c44.28,0,80.31,36.03,80.31,80.31S322.46,356.32,278.17,356.32z M115.42,207.69c-37.67,0-68.31,30.65-68.31,68.31
		c0,37.67,30.65,68.31,68.31,68.31h162.75c37.67,0,68.31-30.65,68.31-68.31c0-37.67-30.65-68.31-68.31-68.31H115.42z"/>
</g>
</svg>
