<?xml version="1.0" encoding="utf-8"?>
<!-- Generator: Adobe Illustrator 24.0.2, SVG Export Plug-In . SVG Version: 6.00 Build 0)  -->
<svg version="1.1" xmlns="http://www.w3.org/2000/svg" xmlns:xlink="http://www.w3.org/1999/xlink" x="0px" y="0px"
	 viewBox="0 0 24 24" style="enable-background:new 0 0 24 24;" xml:space="preserve">
<style type="text/css">
	.st0{fill:none;}
	.st1{fill:#121331;}
</style>
<g id="bounding_box">
	<rect class="st0" width="24" height="24"/>
</g>
<g id="design">
	<path class="st1" d="M22,6.75v5.5c0,0.41-0.34,0.75-0.75,0.75s-0.75-0.34-0.75-0.75V8.57l-7.05,7.09
		c-0.14,0.14-0.33,0.22-0.53,0.22c-0.2,0-0.39-0.08-0.53-0.22l-3.01-3.02l-6.1,6.14C3.14,18.93,2.94,19,2.75,19
		s-0.38-0.07-0.53-0.22c-0.29-0.29-0.29-0.77,0-1.06l6.63-6.67c0.14-0.14,0.34-0.22,0.53-0.22c0.2,0,0.4,0.08,0.54,0.22l3,3.02
		l6.53-6.57h-3.7C15.34,7.5,15,7.16,15,6.75C15,6.34,15.34,6,15.75,6h5.5c0.05,0,0.1,0.01,0.15,0.02c0.14,0.03,0.27,0.09,0.38,0.2
		c0.11,0.11,0.17,0.24,0.2,0.38C21.99,6.65,22,6.7,22,6.75z"/>
</g>
</svg>
