<?xml version="1.0" encoding="utf-8"?>
<!-- Generator: Adobe Illustrator 25.0.1, SVG Export Plug-In . SVG Version: 6.00 Build 0)  -->
<svg version="1.1" id="Layer_1" xmlns="http://www.w3.org/2000/svg" xmlns:xlink="http://www.w3.org/1999/xlink" x="0px" y="0px"
	 viewBox="0 0 430 430" style="enable-background:new 0 0 430 430;" xml:space="preserve">
<style type="text/css">
	.st0{fill:#121331;}
</style>
<path class="st0" d="M384.6,406.9H208c-92.9,0-168.5-75.6-168.5-168.5v-11.9C39.4,133.5,115,57.9,208,57.9h112.7c3.3,0,6,2.7,6,6
	s-2.7,6-6,6H208c-86.3,0-156.5,70.2-156.5,156.5v11.9c0,86.3,70.2,156.5,156.5,156.5h176.6c3.3,0,6,2.7,6,6S387.9,406.9,384.6,406.9
	z"/>
<path class="st0" d="M320.7,69.9c-1.4,0-2.9-0.5-4-1.6l-38.5-34.8c-2.5-2.2-2.6-6-0.4-8.5c2.2-2.5,6-2.6,8.5-0.4l38.5,34.8
	c2.5,2.2,2.6,6,0.4,8.5C323.9,69.3,322.3,69.9,320.7,69.9z"/>
<path class="st0" d="M282.2,104.7c-1.6,0-3.3-0.7-4.5-2c-2.2-2.5-2-6.3,0.4-8.5l38.5-34.8c2.5-2.2,6.3-2,8.5,0.4
	c2.2,2.5,2,6.3-0.4,8.5l-38.5,34.8C285.1,104.2,283.6,104.7,282.2,104.7z"/>
</svg>
