<?xml version="1.0" encoding="utf-8"?>
<!-- Generator: Adobe Illustrator 25.0.1, SVG Export Plug-In . SVG Version: 6.00 Build 0)  -->
<svg version="1.1" id="Layer_1" xmlns="http://www.w3.org/2000/svg" xmlns:xlink="http://www.w3.org/1999/xlink" x="0px" y="0px"
	 viewBox="0 0 430 430" style="enable-background:new 0 0 430 430;" xml:space="preserve">
<style type="text/css">
	.st0{fill:#08a88a;}
	.st1{fill:#121331;}
</style>
<g>
	<path class="st0" d="M387.1,138.6H42.9c-3.3,0-6-2.7-6-6s2.7-6,6-6h344.2c3.3,0,6,2.7,6,6S390.4,138.6,387.1,138.6z"/>
	<path class="st0" d="M387.1,138.6c-1.5,0-3.1-0.6-4.2-1.8l-53.4-53.4c-2.3-2.3-2.3-6.1,0-8.5c2.3-2.3,6.1-2.3,8.5,0l53.4,53.4
		c2.3,2.3,2.3,6.1,0,8.5C390.2,138,388.6,138.6,387.1,138.6z"/>
	<path class="st0" d="M333.7,192c-1.5,0-3.1-0.6-4.2-1.8c-2.3-2.3-2.3-6.1,0-8.5l53.4-53.4c2.3-2.3,6.1-2.3,8.5,0
		c2.3,2.3,2.3,6.1,0,8.5l-53.4,53.4C336.8,191.4,335.2,192,333.7,192z"/>
</g>
<g>
	<path class="st1" d="M387.1,303.4H42.9c-3.3,0-6-2.7-6-6s2.7-6,6-6h344.2c3.3,0,6,2.7,6,6S390.4,303.4,387.1,303.4z"/>
	<path class="st1" d="M42.9,303.4c-1.5,0-3.1-0.6-4.2-1.8c-2.3-2.3-2.3-6.1,0-8.5l53.4-53.4c2.3-2.3,6.1-2.3,8.5,0
		c2.3,2.3,2.3,6.1,0,8.5l-53.4,53.4C46,302.9,44.5,303.4,42.9,303.4z"/>
	<path class="st1" d="M96.3,356.8c-1.5,0-3.1-0.6-4.2-1.8l-53.4-53.4c-2.3-2.3-2.3-6.1,0-8.5c2.3-2.3,6.1-2.3,8.5,0l53.4,53.4
		c2.3,2.3,2.3,6.1,0,8.5C99.4,356.3,97.9,356.8,96.3,356.8z"/>
</g>
</svg>
