<?xml version="1.0" encoding="utf-8"?>
<!-- Generator: Adobe Illustrator 25.0.1, SVG Export Plug-In . SVG Version: 6.00 Build 0)  -->
<svg version="1.1" id="Layer_1" xmlns="http://www.w3.org/2000/svg" xmlns:xlink="http://www.w3.org/1999/xlink" x="0px" y="0px"
	 viewBox="0 0 430 430" style="enable-background:new 0 0 430 430;" xml:space="preserve">
<style type="text/css">
	.st0{fill:#121331;}
</style>
<path class="st0" d="M387.1,221H42.9c-3.3,0-6-2.7-6-6s2.7-6,6-6h344.2c3.3,0,6,2.7,6,6S390.4,221,387.1,221z"/>
<path class="st0" d="M386.8,221c-1.5,0-3.1-0.6-4.2-1.8l-53.4-53.4c-2.3-2.3-2.3-6.1,0-8.5c2.3-2.3,6.1-2.3,8.5,0l53.4,53.4
	c2.3,2.3,2.3,6.1,0,8.5C389.8,220.4,388.3,221,386.8,221z"/>
<path class="st0" d="M96.3,274.4c-1.5,0-3.1-0.6-4.2-1.8l-53.4-53.4c-2.3-2.3-2.3-6.1,0-8.5c2.3-2.3,6.1-2.3,8.5,0l53.4,53.4
	c2.3,2.3,2.3,6.1,0,8.5C99.4,273.8,97.9,274.4,96.3,274.4z"/>
<path class="st0" d="M42.9,221c-1.5,0-3.1-0.6-4.2-1.8c-2.3-2.3-2.3-6.1,0-8.5l53.4-53.4c2.3-2.3,6.1-2.3,8.5,0
	c2.3,2.3,2.3,6.1,0,8.5l-53.4,53.4C46,220.4,44.5,221,42.9,221z"/>
<path class="st0" d="M333.4,274.4c-1.5,0-3.1-0.6-4.2-1.8c-2.3-2.3-2.3-6.1,0-8.5l53.4-53.4c2.3-2.3,6.1-2.3,8.5,0
	c2.3,2.3,2.3,6.1,0,8.5l-53.4,53.4C336.4,273.8,334.9,274.4,333.4,274.4z"/>
</svg>
