<?xml version="1.0" encoding="utf-8"?>
<!-- Generator: Adobe Illustrator 25.0.1, SVG Export Plug-In . SVG Version: 6.00 Build 0)  -->
<svg version="1.1" id="Layer_1" xmlns="http://www.w3.org/2000/svg" xmlns:xlink="http://www.w3.org/1999/xlink" x="0px" y="0px"
	 viewBox="0 0 430 430" style="enable-background:new 0 0 430 430;" xml:space="preserve">
<style type="text/css">
	.st0{fill:#08a88a;}
	.st1{fill:none;stroke:#08a88a;stroke-width:12;stroke-linecap:round;stroke-linejoin:round;stroke-miterlimit:10;}
	.st2{fill:#121331;}
	.st3{fill:none;stroke:#121331;stroke-width:12;stroke-linecap:round;stroke-linejoin:round;stroke-miterlimit:10;}
</style>
<path class="st0" d="M160.9,96.9c-0.6,0-1.2-0.1-1.8-0.3c-3.2-1-4.9-4.4-3.9-7.5c2.2-7,6.5-13,12.6-17.3c15-10.6,35.8-7,46.4,8
	c0.1,0.2,0.3,0.4,0.4,0.5l0.1,0.2c1.8,2.8,1.1,6.5-1.6,8.3c-2.8,1.8-6.5,1.1-8.3-1.6l-0.3-0.5c-6.8-9.6-20.1-11.9-29.7-5.1
	c-3.9,2.7-6.6,6.5-8,11C165.8,95.3,163.5,96.9,160.9,96.9z"/>
<path class="st0" d="M386.6,154.1c-1.2,0-2.4-0.4-3.4-1.1c-2.7-1.9-3.4-5.6-1.5-8.4c6.7-9.5,8.5-21.3,4.9-32.3
	c-3-9.3-9.4-16.9-18.1-21.3c-8.7-4.5-18.6-5.3-27.9-2.2c-0.6,0.2-1.1,0.4-1.7,0.6c-1.9,0.7-4.1,0.4-5.8-0.9
	c-1.6-1.3-2.5-3.3-2.3-5.4c0.3-2.5,0-5-0.8-7.4c-1.5-4.6-4.7-8.3-8.9-10.5c-4.3-2.2-9.2-2.6-13.8-1.1c-7.1,2.3-12.1,8.9-12.5,16.4
	c-0.1,3.3-2.9,5.9-6.3,5.7c-3.3-0.1-5.9-2.9-5.7-6.3c0.5-12.5,8.9-23.4,20.8-27.3c7.6-2.5,15.8-1.8,22.9,1.8
	c7.1,3.7,12.4,9.9,14.9,17.5c0.4,1.3,0.7,2.6,1,3.9c10.7-2.1,21.7-0.6,31.5,4.4c11.5,5.9,20.1,16,24.1,28.3
	c4.7,14.6,2.4,30.3-6.5,42.9C390.4,153.2,388.5,154.1,386.6,154.1z"/>
<path class="st0" d="M179.2,378.7c-12.5,0-24.6-5.2-33.2-14.4c-4.4,4.7-10.2,7.9-16.6,9.2c-17.1,3.5-33.8-7.6-37.2-24.6
	c-0.2-0.9-0.3-1.8-0.4-2.9c-0.4-3.3,2-6.3,5.3-6.6c3.3-0.4,6.3,2,6.6,5.3c0.1,0.7,0.2,1.3,0.3,1.8c2.1,10.6,12.5,17.4,23.1,15.3
	c5.8-1.2,10.8-4.9,13.5-10.3c1-1.9,2.9-3.2,5.1-3.3c2.2-0.1,4.2,1,5.3,2.8c7.3,11.7,21.3,17.7,34.8,15c8.7-1.8,16.2-6.8,21-14.2
	c4.9-7.4,6.6-16.2,4.9-24.8l-0.2-0.6c-0.9-2.5-0.1-5.4,2.1-6.9c2.2-1.6,5.1-1.5,7.2,0.1c5.4,4.2,15.3,6.9,23.7,3.8
	c6.7-2.5,10.9-8.1,12.5-16.6c0.6-3.3,3.8-5.4,7-4.8c3.3,0.6,5.4,3.8,4.8,7c-2.4,12.5-9.6,21.6-20.1,25.5c-7.5,2.8-16.4,2.7-24.3,0.2
	c-0.2,8.4-2.8,16.5-7.5,23.7c-6.7,10.1-16.8,16.9-28.7,19.3C185.2,378.4,182.2,378.7,179.2,378.7z"/>
<path class="st0" d="M192.6,120.9L192.6,120.9c-3.3,0-6-2.7-6-6s2.7-6,6-6s6,2.7,6,6S195.9,120.9,192.6,120.9z"/>
<path class="st0" d="M200.7,161.6c-3.3,0-6-2.7-6-6v0c0-3.3,2.7-6,6-6s6,2.7,6,6S204,161.6,200.7,161.6z"/>
<path class="st0" d="M167.9,115.8L167.9,115.8c-3.3,0-6-2.7-6-6s2.7-6,6-6s6,2.7,6,6S171.2,115.8,167.9,115.8z"/>
<path class="st0" d="M338.7,366.7c-14.5,0-26.3-11.8-26.3-26.3s11.8-26.3,26.3-26.3s26.3,11.8,26.3,26.3S353.2,366.7,338.7,366.7z
	 M338.7,326c-7.9,0-14.3,6.4-14.3,14.3c0,7.9,6.4,14.3,14.3,14.3s14.3-6.4,14.3-14.3C353,332.4,346.6,326,338.7,326z"/>
<g>
	<path class="st0" d="M236.3,152.4L236.3,152.4c-3.3,0-6-2.7-6-6s2.7-6,6-6s6,2.7,6,6S239.7,152.4,236.3,152.4z"/>
	<path class="st0" d="M254.2,293.9c-3.3,0-6-2.7-6-6s2.7-6,6-6c1.2,0,2.5-0.1,3.7-0.1l2,0c0,0,0.1,0,0.1,0l16.1-0.4
		c0.3,0,0.5-0.1,0.8-0.1c3.3,0,6,2.6,6,6v0.1c0,3.3-2.6,5.9-5.9,6l-16.9,0.4c0,0-0.1,0-0.1,0l-2,0c-1.2,0-2.5,0.1-3.8,0.1
		C254.3,293.9,254.2,293.9,254.2,293.9z"/>
	<path class="st0" d="M236.3,152.4c-3.3,0-6-2.7-6-6c0-2.8,1.9-5.1,4.4-5.8l19.1-6.2c6.7-2.2,12.1-6.8,15.2-13.1
		c3.1-6.3,3.5-13.4,1.2-20c-0.9-2.6-3.4-4.4-6.2-4.4c-0.6,0-1.3,0.1-1.9,0.3l-52.8,15.6c-5.1,1.5-10.2,3.5-15,5.8
		c-3,1.4-6.6,0.2-8-2.8c-1.4-3-0.2-6.6,2.8-8c5.4-2.6,11.1-4.8,16.8-6.5l52.8-15.6c1.7-0.5,3.5-0.8,5.3-0.8c7.9,0,14.9,5,17.5,12.4
		c3.4,9.7,2.8,20.1-1.8,29.3c-4.6,9.2-12.4,16-22.2,19.2l-19.4,6.3C237.6,152.3,237,152.4,236.3,152.4z"/>
	<path class="st0" d="M334.1,185.5c-3.2,0-5.9-2.6-6-5.9c-0.1-3.3,2.5-6.1,5.8-6.1l15.3-0.4c6.9-0.2,12.5-5.9,12.5-12.8V160
		c-0.2-5.8-4.9-10.4-10.7-10.4c-0.1,0-0.2,0-0.2,0l-44.7,1.1c-3.3,0.1-6.1-2.5-6.1-5.8s2.5-6.1,5.8-6.1l44.7-1.1
		c12.6-0.3,23,9.7,23.2,22.2c0,0,0,0.1,0,0.1v0.4c0,13.3-10.9,24.4-24.2,24.7l-15.3,0.4C334.2,185.4,334.1,185.5,334.1,185.5z"/>
	<path class="st0" d="M305.4,257.2c-3.2,0-5.9-2.6-6-5.8c-0.1-3.3,2.5-6.1,5.8-6.2l48.6-1.2c6.9-0.2,12.5-5.9,12.5-12.7v-0.3
		c-0.2-5.6-4.6-10.2-10.3-10.4c0,0-0.1,0-0.1,0c-0.2,0-0.4,0-0.5,0l-27.8,0.7c-3.3,0.1-6.1-2.5-6.1-5.8c-0.1-3.3,2.5-6.1,5.8-6.1
		l27.8-0.7c0.4,0,0.8,0,1.2,0c0,0,0.1,0,0.1,0c12,0.4,21.6,10.2,21.9,22.2c0,0,0,0.1,0,0.1v0.4c0,13.3-10.9,24.4-24.2,24.7
		l-48.6,1.2C305.5,257.2,305.4,257.2,305.4,257.2z"/>
	<path class="st0" d="M276.9,293.3c-3.2,0-5.9-2.6-6-5.8c-0.1-3.3,2.5-6.1,5.8-6.2l48.8-1.3c6.3-0.1,11.5-5.4,11.5-11.7V268
		c-0.2-6.1-4.8-11-10.9-11.4c0,0-0.1,0-0.1,0c-0.3,0-0.6,0-1,0l-19.6,0.5c-3.3,0.1-6.1-2.5-6.2-5.8s2.5-6.1,5.8-6.2l19.6-0.5
		c0.9,0,1.6,0,2.3,0.1c12.3,0.9,21.7,10.8,22,23.1c0,0,0,0.1,0,0.1v0.4c0,12.8-10.4,23.4-23.2,23.7l-48.8,1.3
		C277,293.3,277,293.3,276.9,293.3z"/>
	<path class="st0" d="M260.1,293.8L260.1,293.8c-3.3,0-6-2.7-6-6s2.7-6,6-6s6,2.7,6,6S263.4,293.8,260.1,293.8z"/>
	<path class="st0" d="M327.4,221.1c-3.2,0-5.9-2.6-6-5.9c-0.1-3.3,2.5-6.1,5.8-6.1l28.7-0.7c0,0,0.1,0,0.1,0l13.7-0.3
		c6.3-0.1,11.5-5.4,11.5-11.7V196c-0.1-3.1-1.4-6-3.6-8.2c-2.3-2.2-5.2-3.3-8.4-3.3l-35.2,0.9c-3.3,0.1-6.1-2.5-6.1-5.8
		c-0.1-3.3,2.5-6.1,5.8-6.1l35.2-0.9c6.3-0.2,12.4,2.2,16.9,6.6c4.6,4.4,7.2,10.3,7.3,16.6c0,0,0,0.1,0,0.1v0.4
		c0,12.8-10.4,23.5-23.2,23.7l-13.8,0.3c0,0-0.1,0-0.1,0l-28.6,0.7C327.5,221.1,327.5,221.1,327.4,221.1z"/>
	<path class="st1" d="M222.7,144.2"/>
</g>
<g>
	<path class="st2" d="M67.5,331.8c-2.7,0-5.1-1.8-5.8-4.5L29.8,205.8c-0.8-3.2,1.1-6.5,4.3-7.3l38.8-10.2c9.2-25,26.8-46.1,50-59.4
		l42-24.2c0.1-0.1,0.2-0.1,0.3-0.2l5.3-3.1c2.8-1.6,6-2.5,9.3-2.5c6.3,0,12.2,3.2,15.6,8.5c0.7,1,1.2,2,1.8,3
		c0.3,0.5,0.6,1.1,0.9,1.8c0,0.1,0.1,0.2,0.1,0.2c5.9,13.1,3.6,28.1-4.9,38.9l4.3-1.1c3.2-0.8,6.5,1.1,7.3,4.3
		c0.8,3.2-1.1,6.5-4.3,7.3l-36.2,9.5c-2.9,0.8-5.9-0.7-7-3.5c-1.2-2.7-0.1-5.9,2.4-7.5l17.4-10.6c10.9-6.7,15.3-20.5,10.2-32.1
		c-0.1-0.1-0.1-0.3-0.2-0.4c-0.2-0.4-0.4-0.9-0.6-1.3c-0.3-0.6-0.7-1.3-1.2-2c-1.2-1.9-3.3-3-5.5-3c-1.1,0-2.3,0.3-3.3,0.9l-5.6,3.2
		c-0.1,0.1-0.2,0.1-0.3,0.2l-41.7,24c-21.6,12.4-37.8,32.3-45.7,55.9c-0.6,1.9-2.2,3.4-4.2,3.9l-36,9.5l28.9,109.9l36.1-9.5
		c0.8-0.2,1.7-0.3,2.5-0.1c0.2,0,25.1,4,58-4.6c18.9-5,36.6-9.6,48.7-12.8l16.1-4.2c0.5-0.2,1.1-0.2,1.7-0.2c3.3,0,6,2.7,6,6v0
		c0,2.5-1.6,4.8-4,5.7c-0.2,0.1-0.4,0.1-0.7,0.2l-16.2,4.2c-12.1,3.2-29.8,7.8-48.7,12.8c-31.5,8.3-55.8,5.8-61.7,5l-40.7,10.7
		C68.6,331.7,68,331.8,67.5,331.8z"/>
	<path class="st2" d="M191.6,200.6c-2.7,0-5.1-1.8-5.8-4.5c-0.8-3.2,1.1-6.5,4.3-7.3l101.3-26.6c5.4-1.5,9.2-6.5,9.2-12.2
		c0-1.1-0.1-2.2-0.4-3.2l0-0.1c0-0.1,0-0.1-0.1-0.2c-1.6-5.5-7.4-8.8-13-7.3l-46.4,12.2c-0.1,0-0.1,0-0.2,0.1l-38,10
		c-0.1,0-0.2,0.1-0.3,0.1l-1.7,0.5l-16.3,4.3c-3.2,0.8-6.5-1.1-7.3-4.3c-0.8-3.2,1.1-6.5,4.3-7.3l17.8-4.7c0.1,0,0.2-0.1,0.3-0.1
		l38.2-10c0.1,0,0.1,0,0.2-0.1l46.5-12.2c11.9-3.1,24,3.6,27.5,15.5c0.1,0.2,0.1,0.4,0.2,0.7c0.5,2.1,0.8,4.2,0.8,6.3
		c0,11-7.4,20.8-18.1,23.8l-0.3,0.1l-101.1,26.6C192.7,200.5,192.2,200.6,191.6,200.6z"/>
	<path class="st2" d="M209.6,269c-2.7,0-5.1-1.8-5.8-4.5c-0.8-3.2,1.1-6.5,4.3-7.3l76-20c0,0,0.1,0,0.1,0l27.9-7.3
		c5.6-1.5,9.5-6.5,9.5-12.3c0-0.5,0-1-0.1-1.5c0-0.1,0-0.2,0-0.2h0c-0.1-0.5-0.2-1-0.3-1.5c-1.5-5.6-7.3-9.1-12.9-7.6
		c-0.1,0-0.1,0-0.2,0.1l-105.8,27.8c-3.2,0.8-6.5-1.1-7.3-4.3c-0.8-3.2,1.1-6.5,4.3-7.3L305,195.2c0.2-0.1,0.4-0.1,0.5-0.1
		c11.9-2.9,24.2,4.4,27.3,16.3c0.2,0.9,0.4,1.8,0.6,2.7c0,0.1,0,0.2,0,0.3c0.1,1.1,0.2,2.2,0.2,3.3c0,11.2-7.6,21.1-18.4,23.9
		l-27.9,7.3c0,0-0.1,0-0.1,0l-75.9,20C210.7,269,210.1,269,209.6,269z M308.4,206.7C308.4,206.7,308.4,206.7,308.4,206.7
		C308.4,206.7,308.4,206.7,308.4,206.7z M308.5,206.6C308.4,206.6,308.4,206.7,308.5,206.6C308.4,206.7,308.4,206.6,308.5,206.6z"/>
	<path class="st2" d="M218.6,303.3c-2.7,0-5.1-1.8-5.8-4.5c-0.8-3.2,1.1-6.5,4.3-7.3l16.1-4.2c0.1,0,0.2,0,0.2-0.1l19.2-5
		c0.1,0,0.2,0,0.2-0.1l40.2-10.6c5.1-1.4,8.7-6,8.7-11.3c0-1-0.1-2-0.4-3c-0.3-1.1-0.7-2.1-1.3-3c0,0,0,0,0-0.1c0,0,0,0,0,0
		c-2.7-4.4-8-6.6-12.9-5.3v0c0,0-0.1,0-0.1,0l-75.9,20c-3.2,0.8-6.5-1.1-7.3-4.3c-0.8-3.2,1.1-6.5,4.3-7.3l76-20c0,0,0.1,0,0.2,0
		c10.1-2.6,20.9,1.9,26.2,10.8c0,0,0.1,0.1,0.1,0.1c1.1,1.9,1.9,3.9,2.5,6c0.5,2,0.8,4,0.8,6.1c0,10.8-7.3,20.2-17.7,22.9
		l-40.4,10.6c-0.1,0-0.2,0-0.2,0.1l-18.9,5c-0.1,0-0.2,0.1-0.2,0.1l-16.2,4.3C219.6,303.2,219.1,303.3,218.6,303.3z"/>
	<path class="st2" d="M200.6,234.8c-2.7,0-5.1-1.8-5.8-4.5c-0.8-3.2,1.1-6.5,4.3-7.3l120.3-31.6c5.1-1.4,8.7-6,8.7-11.3V180
		c0-0.1,0-0.3,0-0.4c0-0.8-0.2-1.6-0.4-2.5c-0.8-3-2.7-5.5-5.4-7.1c-2.7-1.6-5.8-2-8.9-1.2l-120.2,31.6c-3.2,0.8-6.5-1.1-7.3-4.3
		c-0.8-3.2,1.1-6.5,4.3-7.3l120.3-31.6c6.1-1.6,12.5-0.7,18,2.5c5.5,3.2,9.4,8.3,11,14.4c0.4,1.7,0.7,3.5,0.8,5.2c0,0.3,0,0.6,0,0.9
		c0,10.7-7.3,20.2-17.7,22.9l-120.2,31.6C201.7,234.7,201.1,234.8,200.6,234.8z M328.1,180.1C328.1,180.1,328.1,180.1,328.1,180.1
		C328.1,180.1,328.1,180.1,328.1,180.1z M328.1,180.1C328.1,180.1,328.1,180.1,328.1,180.1C328.1,180.1,328.1,180.1,328.1,180.1z"/>
	<path class="st3" d="M149,166.5"/>
</g>
</svg>
