<?xml version="1.0" encoding="utf-8"?>
<!-- Generator: Adobe Illustrator 25.0.1, SVG Export Plug-In . SVG Version: 6.00 Build 0)  -->
<svg version="1.1" id="Layer_1" xmlns="http://www.w3.org/2000/svg" xmlns:xlink="http://www.w3.org/1999/xlink" x="0px" y="0px"
	 viewBox="0 0 430 430" style="enable-background:new 0 0 430 430;" xml:space="preserve">
<style type="text/css">
	.st0{fill:#08a88a;}
	.st1{fill:#121331;}
</style>
<g>
	<path class="st0" d="M126,112.5c-0.3,0-0.7,0-1-0.1c-3.3-0.6-5.5-3.7-4.9-6.9c1.2-7.3,4.8-13.8,10.2-18.8c6.5-6.1,15-9.2,23.9-8.9
		c8.9,0.3,17.1,4.1,23.2,10.6c0.2,0.2,0.3,0.3,0.4,0.5l0.1,0.1c2.2,2.5,2,6.3-0.5,8.5c-2.5,2.2-6.3,2-8.5-0.5l-0.4-0.4
		c-3.9-4.2-9.1-6.6-14.8-6.8c-5.7-0.2-11.1,1.8-15.3,5.7c-3.5,3.2-5.7,7.4-6.5,12C131.4,110.5,128.9,112.5,126,112.5z"/>
	<path class="st0" d="M349.7,133.5c-0.5,0-1.1-0.1-1.6-0.2c-3.2-0.9-5.1-4.2-4.2-7.4c3.1-11.2,0.9-22.9-6.2-32.1
		c-12.3-16-35.3-19.1-51.3-6.8c-0.5,0.4-0.9,0.7-1.4,1.1c-1.6,1.3-3.8,1.8-5.7,1.1c-2-0.6-3.5-2.3-4-4.3c-0.6-2.5-1.7-4.7-3.2-6.7
		c-2.9-3.8-7.2-6.3-11.9-6.9c-4.8-0.6-9.5,0.6-13.3,3.6c-5.9,4.6-8.5,12.4-6.3,19.6c1,3.2-0.8,6.5-4,7.5c-3.2,1-6.5-0.8-7.5-4
		c-3.7-11.9,0.5-25.1,10.4-32.7c6.4-4.9,14.3-7,22.2-5.9c8,1.1,15,5.1,19.9,11.5c0.8,1.1,1.6,2.2,2.2,3.3
		c20.8-12.4,48.2-7.5,63.3,12.2c9.4,12.2,12.4,27.7,8.2,42.6C354.7,131.8,352.3,133.5,349.7,133.5z"/>
	<path class="st0" d="M175.1,370.8c-2.8,0-5.6-0.3-8.3-0.8c-15.6-2.9-28.4-13.8-34-28.3c-5.8,2.7-12.4,3.5-18.9,2.3
		c-17.1-3.2-28.5-19.7-25.3-36.8c0.2-0.9,0.4-1.8,0.7-2.8c0.9-3.2,4.2-5,7.4-4.1s5,4.2,4.1,7.4c-0.2,0.7-0.3,1.2-0.4,1.8
		c-2,10.6,5.1,20.8,15.7,22.8c5.9,1.1,11.8-0.5,16.4-4.5c1.6-1.4,3.9-1.8,5.9-1.1c2,0.7,3.5,2.5,3.9,4.6
		c2.4,13.6,13.1,24.4,26.6,26.9c8.7,1.6,17.5-0.3,24.8-5.3c7.3-5,12.2-12.5,13.8-21.2l0-0.6c0.1-2.7,1.9-5,4.5-5.7
		c2.6-0.7,5.3,0.5,6.7,2.8c3.4,6,11.6,12.1,20.5,12.3c7.1,0.2,13.1-3.4,17.8-10.7c1.8-2.8,5.5-3.6,8.3-1.8c2.8,1.8,3.6,5.5,1.8,8.3
		c-6.9,10.7-17,16.4-28.2,16.1c-8-0.2-16.2-3.6-22.6-9c-3.3,7.7-8.8,14.3-15.8,19.2C193,368.1,184.1,370.8,175.1,370.8z"/>
	<path class="st0" d="M321.7,367.3c-14.5,0-26.3-11.8-26.3-26.3s11.8-26.3,26.3-26.3s26.3,11.8,26.3,26.3S336.3,367.3,321.7,367.3z
		 M321.7,326.6c-7.9,0-14.3,6.4-14.3,14.3s6.4,14.3,14.3,14.3s14.3-6.4,14.3-14.3S329.6,326.6,321.7,326.6z"/>
	<g>
		<path class="st0" d="M181.3,293.9C181.3,293.9,181.3,293.9,181.3,293.9c-3.2,0-6.4,0-9.6,0l-5,0c-3,0-6.1-0.1-9.2-0.3
			c0,0-0.1,0-0.1,0c-30-1.5-50.7-9.5-55.9-11.6l-45.1-0.2c-1.6,0-3.1-0.6-4.2-1.8c-1.1-1.1-1.7-2.7-1.7-4.3L51,141.1
			c0-1.6,0.6-3.1,1.8-4.2c1.1-1.1,2.6-1.7,4.2-1.7c0,0,0,0,0,0l46.4,0.2c3.3,0,6,2.7,6,6c0,3.3-2.7,6-6,6c0,0,0,0,0,0L63,147.2
			l-0.5,122.6l40.4,0.2c0.9,0,1.7,0.2,2.5,0.5c0.2,0.1,21.1,9.5,52.7,11.1c0,0,0.1,0,0.1,0c2.9,0.2,5.8,0.2,8.7,0.2l5,0
			c3.2,0,6.5,0,9.6,0c3.3,0,6,2.7,6,6C187.3,291.2,184.6,293.9,181.3,293.9z M157.2,218c-0.1,0-0.3,0-0.4,0
			c-12.5-0.9-22.2-11.4-22.1-23.9c0.1-14.3,11.8-25.9,26-25.9c0,0,0.1,0,0.2,0l14.2,0.1c3.3,0,6,2.7,5.9,6.1c0,3.3-2.7,6-6.1,5.9
			l-14.2-0.1c-7.7,0-14,6.3-14.1,14c0,6.2,4.8,11.4,11,11.9c3.3,0.2,5.8,3.1,5.6,6.4C162.9,215.6,160.3,218,157.2,218z M179.5,143.3
			c-3.3,0-6-2.7-6-6c0-3.2,2.6-5.9,5.8-6l12.2-0.6c0.1,0,0.1,0,0.2,0l3.1-0.2c0.1,0,0.1,0,0.2,0l4.1-0.2c0.1,0,0.2,0,0.3,0l40.1,0.2
			c3.3,0,6,2.7,6,6v0.4c0,3.3-2.7,6-6,6c-0.8,0-1.6-0.2-2.3-0.5l-37.6-0.2l-4.1,0.2c-0.1,0-0.1,0-0.2,0l-3.1,0.2c0,0-0.1,0-0.1,0
			l-0.4,0l-11.9,0.6C179.7,143.3,179.6,143.3,179.5,143.3z"/>
		<path class="st0" d="M272.3,143.3c-0.4,0-0.8,0-1.2-0.1c-0.8-0.2-1.6-0.2-2.4-0.3l-47.3-0.5c-3.3,0-6-2.7-6-6c0-3.3,2.7-6,6-6
			c0,0,0,0,0,0l47.3,0.5c1.6,0,3.2,0.2,4.7,0.5c3.2,0.7,5.3,3.8,4.7,7.1C277.5,141.3,275,143.3,272.3,143.3z"/>
		<path class="st0" d="M243,294.4h-0.1c0,0-0.1,0-0.1,0l-5.5-0.1c0,0-0.1,0-0.1,0l-16.6-0.3c-3.3-0.1-6-2.8-5.9-6.1
			c0.1-3.3,2.7-5.9,6-5.9c0,0,0.1,0,0.1,0l16.7,0.3c0,0,0.1,0,0.1,0l5.4,0.1c0.5,0,0.9,0,1.4,0c0.1,0,0.3,0,0.4,0c3.3,0,6,2.7,6,6
			c0,3.2-2.6,5.9-5.8,6C244.3,294.4,243.6,294.4,243,294.4z"/>
		<path class="st0" d="M175,180.3c-0.6,0-1.1-0.1-1.7-0.2c-3.2-0.9-5-4.2-4.1-7.4c0.2-0.8,0.4-1.5,0.6-2.1c0.8-3.2,4.1-5.2,7.3-4.4
			c3.2,0.8,5.2,4.1,4.4,7.3c-0.2,0.8-0.4,1.6-0.7,2.6C180,178.6,177.6,180.3,175,180.3z"/>
		<path class="st0" d="M103.4,147.4c-1.8,0-3.5-0.8-4.7-2.3c-2.1-2.6-1.6-6.4,1-8.4c23.3-18.4,52.5-27.6,82.2-25.9l58.8,3.4
			c10.3,0.6,18.3,9.1,18.3,19.4v0.1c0,1.2-0.1,2.3-0.2,3.4c0,0.2,0,0.3,0,0.5c-0.4,3.3-3.3,5.7-6.6,5.3c-3.3-0.4-5.6-3.3-5.3-6.5
			c0-0.1,0-0.2,0-0.3c0.1-0.8,0.1-1.6,0.1-2.5v0c0-3.9-3.1-7.2-7-7.5l-58.8-3.4c-26.7-1.6-53,6.7-74.1,23.3
			C106,146.9,104.7,147.4,103.4,147.4z M246.8,136.7C246.8,136.7,246.8,136.7,246.8,136.7C246.8,136.7,246.8,136.7,246.8,136.7z
			 M246.8,136.7C246.8,136.7,246.8,136.7,246.8,136.7C246.8,136.7,246.8,136.7,246.8,136.7z M246.8,136.6
			C246.8,136.7,246.8,136.7,246.8,136.6C246.8,136.7,246.8,136.7,246.8,136.6z M246.8,136.6C246.8,136.6,246.8,136.6,246.8,136.6
			C246.8,136.6,246.8,136.6,246.8,136.6z"/>
		<path class="st0" d="M157.1,218.1c-1.9,0-3.9-0.9-5-2.7c-1.5-2.3-1.3-5.3,0.5-7.2c1.7-2.1,4.7-2.8,7.2-1.5c3,1.5,4.2,5,2.8,8
			c-0.5,1-1.2,1.9-2.1,2.4C159.4,217.8,158.3,218.1,157.1,218.1z"/>
		<path class="st0" d="M108.1,239.3c-0.9,0-1.4,0-1.6,0c-3.3-0.1-5.9-2.9-5.7-6.2c0.1-3.3,2.9-5.9,6.2-5.7c0.3,0,14.2,0.5,27.6-5.1
			c3.1-1.3,6.6,0.2,7.9,3.2c1.3,3.1-0.2,6.6-3.2,7.9C125.9,238.7,112.6,239.3,108.1,239.3z"/>
	</g>
	<g>
		<path class="st1" d="M190.9,218.4c-3.3,0-6-2.7-6-6v0c0-3.3,2.7-6,6-6s6,2.7,6,6S194.2,218.4,190.9,218.4z"/>
		<path class="st1" d="M191.8,323.1c-10.1,0-18.5-7.7-19.4-17.8c-0.6-6.7,0.6-13.5,3.3-19.6c0.1-0.3,0.2-0.4,0.2-0.5
			c1.5-3,5.1-4.2,8-2.7c2.9,1.5,4.1,5,2.8,7.9c0,0,0,0.1-0.1,0.1c-1.9,4.3-2.7,9-2.3,13.8c0.3,4,3.7,6.9,7.7,6.8l58.8-2
			c26.8-0.9,52.2-11.6,71.6-30c1.1-1.1,2.6-1.7,4.1-1.7c0,0,0,0,0,0l40.4,0.2l0.5-122.6l-40.4-0.2c-0.9,0-1.7-0.2-2.5-0.5
			c-0.2-0.1-21.1-9.5-52.8-11.1c-2.9-0.2-5.8-0.2-8.7-0.2l-23.9-0.1c-6.9,0-13.4-0.1-19.2-0.1l-10.8,0c-9.4,0-15.7-0.1-17.6-0.1
			h-0.1c-0.1,0-0.3,0-0.4,0c-3.3,0-6-2.7-6-6c0-3.3,2.7-6,6-6h0.5c1.9,0,8.2,0,17.6,0.1l10.9,0c5.8,0,12.3,0.1,19.2,0.1l23.9,0.1
			c3,0,6.1,0.1,9.2,0.3c30,1.5,50.7,9.5,55.9,11.6l45.1,0.2c1.6,0,3.1,0.6,4.2,1.8c1.1,1.1,1.7,2.7,1.7,4.3L379,283.7
			c0,1.6-0.6,3.1-1.8,4.2c-1.1,1.1-2.6,1.7-4.2,1.7c0,0,0,0,0,0l-44-0.2c-21.3,19.5-48.8,30.7-77.7,31.7l-58.8,2
			C192.2,323.1,192,323.1,191.8,323.1z M181.3,287.9l5.4,2.7c0,0,0,0,0,0L181.3,287.9z M186.9,290C186.9,290,186.9,290,186.9,290
			C186.9,290,186.9,290,186.9,290z M186.9,290C186.9,290,186.9,290,186.9,290C186.9,290,186.9,290,186.9,290z M186.9,289.9
			C186.9,290,186.9,290,186.9,289.9C186.9,290,186.9,290,186.9,289.9z M186.9,289.9C186.9,289.9,186.9,289.9,186.9,289.9
			C186.9,289.9,186.9,289.9,186.9,289.9z"/>
		<path class="st1" d="M191.1,180.5c-3.3,0-6-2.7-6-6v-0.1c0-3.3,2.7-6,6-6s6,2.7,6,6v0.1C197.1,177.8,194.4,180.5,191.1,180.5z"/>
		<path class="st1" d="M190.8,256.3c-3.3,0-6-2.7-6-6v0c0-3.3,2.7-6,6-6s6,2.7,6,6S194.1,256.3,190.8,256.3z"/>
		<path class="st1" d="M255.8,294.4C255.7,294.4,255.7,294.4,255.8,294.4l-94.5-0.5c-1.6,0-3.1-0.2-4.6-0.5c-0.1,0-0.1,0-0.2,0
			c-11-2.3-19-12.2-19-23.5c0.1-13.7,10.8-25,24.4-25.9c0.5,0,1-0.1,1.6-0.1c0,0,0.1,0,0.2,0l45.2,0.5c3.3,0,6,2.8,5.9,6.1
			c0,3.3-2.7,5.9-6,5.9c0,0,0,0-0.1,0l-45.2-0.5c-0.3,0-0.6,0-0.8,0c-7.4,0.4-13.2,6.6-13.3,14c0,5.6,3.9,10.5,9.3,11.7
			c0,0,0.1,0,0.1,0c0.8,0.2,1.6,0.2,2.4,0.3l94.4,0.5c3.3,0,6,2.7,6,6C261.7,291.8,259.1,294.4,255.8,294.4z"/>
		<path class="st1" d="M209,218.6C209,218.6,209,218.6,209,218.6l-50.6-0.5c0,0,0,0,0,0c-0.5,0-1,0-1.6-0.1
			c-12.5-0.9-22.2-11.4-22.1-23.9c0.1-14.3,11.8-25.9,26-25.9c0,0,0.1,0,0.2,0l48.4,0.5c3.3,0,6,2.7,5.9,6.1c0,3.3-2.7,5.9-6,5.9
			c0,0,0,0-0.1,0l-48.4-0.5c-7.7,0-14,6.3-14.1,14c0,6.2,4.8,11.4,11,11.9c0.3,0,0.5,0,0.8,0l50.6,0.5c3.3,0,6,2.7,5.9,6.1
			C215,216,212.3,218.6,209,218.6z"/>
		<path class="st1" d="M209.2,180.7c0,0-0.1,0-0.1,0l-22.2-0.4c-4.7,0-9.5-1-13.7-2.8c-10.1-4.3-16.3-12.9-16.3-22.3
			c0-10.9,8.5-20.4,21-23.7c0.1,0,0.2,0,0.2-0.1c2.8-0.7,5.8-1.1,8.9-1.1h0.1c0,0,0.1,0,0.1,0l7.8,0.1c0,0,0.1,0,0.1,0l14.2,0.2
			c3.3,0,5.9,2.7,5.9,6c0,3.3-2.7,6-6,6h0c0,0-0.1,0-0.1,0l-14.1-0.2c0,0-0.1,0-0.1,0l-7.9-0.1c-2.1,0-4.1,0.3-6,0.8
			c-0.1,0-0.2,0-0.2,0.1c-7.1,1.9-11.8,6.7-11.8,12.1c0,4.5,3.4,8.8,9,11.2c2.7,1.2,5.9,1.8,9.1,1.8l22.2,0.4c3.3,0.1,6,2.8,5.9,6.1
			C215.1,178.1,212.4,180.7,209.2,180.7z"/>
		<path class="st1" d="M208.8,256.5C208.8,256.5,208.8,256.5,208.8,256.5l-56.3-0.5c-12.1-0.1-22-11.3-21.9-25.1
			c0-1.6,0.1-2.9,0.4-4.3c1.8-11.9,11-20.6,21.7-20.6c0,0,0.1,0,0.1,0l56.2,0.5c3.3,0,6,2.7,5.9,6.1c0,3.3-2.7,5.9-6,5.9
			c0,0,0,0-0.1,0l-56.2-0.5c-4.8,0-9,4.4-9.9,10.5c-0.1,0.8-0.2,1.6-0.2,2.5c0,7.1,4.5,13,10,13l56.3,0.5c3.3,0,6,2.7,5.9,6.1
			C214.8,253.9,212.1,256.5,208.8,256.5z"/>
	</g>
</g>
</svg>
