<?xml version="1.0" encoding="utf-8"?>
<!-- Generator: Adobe Illustrator 25.0.1, SVG Export Plug-In . SVG Version: 6.00 Build 0)  -->
<svg version="1.1" id="Layer_1" xmlns="http://www.w3.org/2000/svg" xmlns:xlink="http://www.w3.org/1999/xlink" x="0px" y="0px"
	 viewBox="0 0 430 430" style="enable-background:new 0 0 430 430;" xml:space="preserve">
<style type="text/css">
	.st0{fill:#08a88a;}
	.st1{fill:#121331;}
	.st2{fill:none;stroke:#08a88a;stroke-width:12;stroke-linecap:round;stroke-linejoin:round;stroke-miterlimit:10;}
</style>
<path class="st0" d="M248.5,58.6c-2.5,0-4.9-1.6-5.7-4.2l-0.2-0.5c-3.9-11.1-16.1-17-27.2-13.1c-4.4,1.6-8.2,4.5-10.7,8.4
	c-1.8,2.8-5.5,3.5-8.3,1.7c-2.8-1.8-3.5-5.5-1.7-8.3c4-6.2,9.8-10.7,16.8-13.2c17.3-6.1,36.4,3,42.5,20.4c0.1,0.2,0.1,0.4,0.2,0.6
	l0.1,0.2c1,3.2-0.7,6.5-3.9,7.6C249.7,58.5,249.1,58.6,248.5,58.6z"/>
<path class="st0" d="M99.3,183.1c-0.8,0-1.7-0.2-2.5-0.6c-11.3-5.3-18.3-17.1-17.3-29.6c0.6-8,4.3-15.3,10.4-20.5
	c6.1-5.2,13.9-7.7,21.9-7.1c1.3,0.1,2.7,0.3,3.9,0.6c4.7-23.8,26.7-40.9,51.4-38.9c15.3,1.2,28.9,9.3,37.2,22.3
	c1.8,2.8,1,6.5-1.8,8.3c-2.8,1.8-6.5,1-8.3-1.8c-6.2-9.8-16.4-15.9-28-16.8c-20.1-1.6-37.7,13.5-39.3,33.6c0,0.6-0.1,1.2-0.1,1.8
	c-0.1,2.1-1.2,4-3,5c-1.8,1-4,1.1-5.8,0.1c-2.2-1.2-4.6-1.9-7.1-2.1c-4.8-0.4-9.5,1.1-13.1,4.3s-5.9,7.5-6.3,12.3
	c-0.6,7.5,3.6,14.6,10.4,17.8c3,1.4,4.3,5,2.9,8C103.7,181.8,101.6,183.1,99.3,183.1z"/>
<path class="st0" d="M70,90c-14.5,0-26.3-11.8-26.3-26.3S55.5,37.4,70,37.4s26.3,11.8,26.3,26.3S84.5,90,70,90z M70,49.4
	c-7.9,0-14.3,6.4-14.3,14.3S62.1,78,70,78s14.3-6.4,14.3-14.3S77.9,49.4,70,49.4z"/>
<g>
	<path class="st1" d="M131.1,234.5c-2.2,0-4.4-1.2-5.4-3.4c-1.5-3-0.2-6.6,2.8-8c2.3-1.1,5.1-0.7,6.9,1.2c2.3,2.3,2.3,6.1,0,8.5
		c-1.1,1.1-2.6,1.7-4,1.8C131.3,234.5,131.2,234.5,131.1,234.5z"/>
	<path class="st1" d="M366.2,384.5C366.2,384.5,366.1,384.5,366.2,384.5l-138-1.2c-1.6,0-3.1-0.7-4.2-1.8c-1.1-1.1-1.7-2.7-1.7-4.3
		l0.7-50.8c-4-1.4-8.2-2.8-12.7-4.2l-0.7-0.2c-3.1-1-4.9-4.4-3.8-7.6c1-3.1,4.4-4.9,7.6-3.8l0.7,0.2c6.1,2,11.8,3.9,17,5.8
		c2.4,0.9,4,3.2,4,5.7l-0.7,49.1l125.9,1.1l0.4-41.5c0-0.9,0.2-1.7,0.6-2.5c0.1-0.2,11.6-25.6,11.9-63c0.2-21.5,0.4-41.5,0.5-55.3
		l0.2-18.5c0-3.3,2.7-5.9,6-5.9c0,0,0,0,0.1,0c3.3,0,6,2.7,5.9,6.1l-0.2,18.5c-0.1,13.8-0.3,33.8-0.5,55.3
		c-0.3,35.9-10,60.9-12.5,66.7l-0.4,46.3C372.1,381.9,369.5,384.5,366.2,384.5z"/>
	<path class="st1" d="M208.1,257.9c-2.8,0-5.3-1.9-5.9-4.8c-0.7-3.2,1.4-6.4,4.6-7.1c6.7-1.4,11.4-7.5,11.1-14.4c0-0.1,0-0.2,0-0.3
		l0.4-41.1c0-3.3,2.7-5.9,6-5.9c0,0,0,0,0.1,0c3.3,0,6,2.7,5.9,6.1l-0.4,40.9c0.5,12.7-8.1,23.9-20.6,26.5
		C208.9,257.8,208.5,257.9,208.1,257.9z"/>
	<path class="st1" d="M263.1,196.6c-1.6,0-3.2-0.6-4.3-1.9l0,0c-2.3-2.4-2.2-6.2,0.2-8.5c2.4-2.3,6.2-2.2,8.5,0.2
		c2.3,2.4,2.2,6.2-0.2,8.5C266.1,196.1,264.6,196.6,263.1,196.6z"/>
	<path class="st1" d="M340.9,197.3c-1.6,0-3.2-0.6-4.3-1.9l0,0c-2.3-2.4-2.2-6.2,0.2-8.5c2.4-2.3,6.2-2.2,8.5,0.2
		c2.3,2.4,2.2,6.2-0.2,8.5C343.8,196.8,342.4,197.3,340.9,197.3z"/>
	<path class="st1" d="M263,215.2C262.9,215.2,262.9,215.2,263,215.2c-3.4,0-6-2.7-6-6.1l1-114.7c0-3.9-1.4-7.6-4.2-10.3
		s-6.4-4.3-10.3-4.4c-3.3-0.1-6.4,1.2-8.7,3.5c-2.3,2.3-3.7,5.4-3.7,8.7l-1,117c0,3.3-2.7,5.9-6.1,5.9c-3.3,0-6-2.7-5.9-6.1l1-117
		c0.1-6.5,2.6-12.6,7.3-17.1c4.6-4.6,10.7-7,17.3-7c7.1,0.1,13.7,2.9,18.7,7.9s7.7,11.8,7.6,18.8l-1,114.7
		C268.9,212.5,266.2,215.2,263,215.2z"/>
	<path class="st1" d="M340.7,215.9C340.7,215.9,340.7,215.9,340.7,215.9c-3.4,0-6-2.7-6-6.1l1.1-118.1c0-3.9-1.4-7.6-4.2-10.3
		c-2.7-2.8-6.4-4.3-10.3-4.4c-3.3,0-6.4,1.2-8.7,3.5c-2.3,2.3-3.7,5.4-3.7,8.7l-1.1,120.3c0,3.3-2.8,6-6.1,5.9c-3.3,0-6-2.7-5.9-6.1
		l1.1-120.3c0.1-6.5,2.6-12.6,7.3-17.1c4.6-4.6,10.7-7,17.3-7c7.1,0.1,13.7,2.9,18.7,7.9s7.7,11.8,7.6,18.8l-1.1,118.1
		C346.7,213.2,344,215.9,340.7,215.9z"/>
	<path class="st1" d="M379.6,216.2C379.6,216.2,379.5,216.2,379.6,216.2c-3.4,0-6-2.7-6-6.1l0.8-86.3c0.1-7.4-5.9-13.5-13.3-13.6
		c-3.6,0-7,1.3-9.5,3.9c-2.6,2.5-4,5.9-4,9.5l-0.8,86.3c0,3.3-2.7,5.9-6,5.9c0,0,0,0-0.1,0c-3.3,0-6-2.7-5.9-6.1l0.8-86.3
		c0.1-6.8,2.8-13.2,7.6-17.9c4.8-4.7,11.1-7.3,17.8-7.3c0.1,0,0.2,0,0.2,0c14,0.1,25.3,11.6,25.2,25.7l-0.8,86.3
		C385.5,213.6,382.9,216.2,379.6,216.2z"/>
	<path class="st1" d="M301.8,215.5C301.8,215.5,301.8,215.5,301.8,215.5c-3.4,0-6-2.7-6-6.1L297,72.9c0-3.6-1.3-7-3.9-9.5
		s-5.9-4-9.5-4c-3.6,0-7,1.3-9.5,3.9c-2.6,2.5-4,5.9-4,9.5L269,209.2c0,3.3-2.7,6-6.1,5.9c-3.3,0-6-2.7-5.9-6.1l1.2-136.5
		c0.1-6.8,2.8-13.2,7.6-17.9s11.3-7.3,18.1-7.3c6.8,0.1,13.2,2.8,17.9,7.6s7.4,11.3,7.3,18.1l-1.2,136.5
		C307.8,212.9,305.1,215.5,301.8,215.5z"/>
</g>
<g>
	<path class="st0" d="M197.1,402.3c-0.1,0-0.2,0-0.3,0l-138.3-7.8c-3.3-0.2-5.8-3-5.7-6.2l1.2-28.7c-2.2-5.9-10.6-31.4-9.1-67.3
		c1.6-38.9,3-65.4,3-65.7c0.2-3.3,3-5.9,6.3-5.7c3.3,0.2,5.9,3,5.7,6.3c0,0.3-1.3,26.7-3,65.6c-1.6,37.4,8.6,63.3,8.7,63.5
		c0.3,0.8,0.5,1.6,0.4,2.5l-1,24.1l126.6,7.1l4-44.2c0.1-1.2,0.6-2.3,1.3-3.2l11.3-14c-5.5-20.8-7.7-42.3-6.7-63.8l1.9-39.7
		c0.2-3.3,3-5.9,6.3-5.7c3.3,0.2,5.9,3,5.7,6.3l-1.9,39.7c-1,21.3,1.4,42.5,7.1,63c0.5,1.9,0.1,3.9-1.1,5.4l-12,15l-4.3,48.2
		C202.7,399.9,200.1,402.3,197.1,402.3z"/>
	<path class="st0" d="M208.1,254.9c-0.1,0-0.2,0-0.3,0c-3.3-0.2-5.9-3-5.7-6.3l1.5-31.9c0.1-3.3-1-6.4-3.2-8.8
		c-2.2-2.4-5.3-3.8-8.6-4c-3.9-0.2-7.6,1.2-10.5,3.8c-2.9,2.6-4.5,6.2-4.7,10.1c0,0.1,0,0.1,0,0.2l-0.7,10c-0.2,3.3-3.1,5.8-6.4,5.6
		c-3.3-0.2-5.8-3.1-5.6-6.4l0.7-9.9c0.3-7,3.4-13.6,8.6-18.3c5.2-4.8,12-7.3,19.1-7c6.5,0.3,12.5,3.1,16.9,7.8s6.7,11,6.4,17.5
		l-1.5,31.9C214,252.4,211.3,254.9,208.1,254.9z"/>
	<path class="st0" d="M131.1,235.8C131.1,235.8,131,235.8,131.1,235.8c-3.4,0-6.1-2.8-6-6.1l0.2-16.1c0-3.2-1.3-6.3-3.6-8.6
		c-2.3-2.3-5.4-3.6-8.7-3.6c0,0,0,0,0,0c-3.9,0-7.5,1.5-10.3,4.3c-2.8,2.7-4.3,6.4-4.3,10.3l0.1,11.3c0,3.3-2.6,6-5.9,6.1
		c0,0,0,0-0.1,0c-3.3,0-6-2.6-6-5.9L86.5,216c0-7.2,2.8-13.8,7.8-18.8c5-5,11.7-7.7,18.8-7.8c6.5,0,12.6,2.5,17.2,7.1
		s7.1,10.7,7.1,17.2l-0.2,16.2C137,233.2,134.4,235.8,131.1,235.8z"/>
	<path class="st0" d="M131.1,235.8c-0.1,0-0.2,0-0.3,0c-3.3-0.2-5.9-3-5.7-6.3l1.1-25.3c0.3-6.8,3.2-13,8.2-17.6
		c5-4.6,11.5-7,18.3-6.7c6.8,0.3,13.1,3.2,17.7,8.2c4.6,5,7,11.5,6.7,18.3l-1.1,21.4c-0.2,3.3-3,5.9-6.3,5.7c-3.3-0.2-5.9-3-5.7-6.3
		l1.1-21.3c0.1-3.5-1.1-7-3.5-9.6c-2.4-2.6-5.7-4.2-9.3-4.3c-3.6-0.2-7,1.1-9.7,3.5s-4.2,5.7-4.3,9.3l-1.1,25.3
		C136.9,233.3,134.3,235.8,131.1,235.8z"/>
	<path class="st2" d="M193.5,294"/>
	<path class="st0" d="M52.4,262.3c-0.1,0-0.2,0-0.3,0c-3.3-0.2-5.9-3-5.7-6.3l1.5-30.8C48,211.4,59.4,200,73.3,200c0,0,0,0,0,0
		c6.8,0,13.2,2.7,18,7.5c4.8,4.8,7.4,11.2,7.4,18l-0.1,4.4c-0.1,3.3-2.7,5.9-6,5.9c0,0-0.1,0-0.1,0c-3.3-0.1-6-2.8-5.9-6.1l0.1-4.3
		c0-3.5-1.4-6.9-3.9-9.4s-5.9-3.9-9.5-3.9c0,0,0,0,0,0c-7.4,0-13.4,6-13.4,13.4c0,0.1,0,0.2,0,0.3l-1.5,30.9
		C58.2,259.9,55.5,262.3,52.4,262.3z"/>
</g>
</svg>
