<?xml version="1.0" encoding="utf-8"?>
<!-- Generator: Adobe Illustrator 25.0.1, SVG Export Plug-In . SVG Version: 6.00 Build 0)  -->
<svg version="1.1" id="Layer_1" xmlns="http://www.w3.org/2000/svg" xmlns:xlink="http://www.w3.org/1999/xlink" x="0px" y="0px"
	 viewBox="0 0 430 430" style="enable-background:new 0 0 430 430;" xml:space="preserve">
<style type="text/css">
	.st0{fill:#121331;}
</style>
<path class="st0" d="M215.2,414.4c-5.7,0-11.4-0.2-17.1-0.7c-3.3-0.3-5.8-3.2-5.5-6.5c0.3-3.3,3.2-5.7,6.5-5.5
	c14,1.2,28.1,0.8,41.9-1.1c3.3-0.5,6.3,1.8,6.8,5.1c0.5,3.3-1.8,6.3-5.1,6.8C233.7,413.7,224.4,414.4,215.2,414.4z M156.2,405.2
	c-0.6,0-1.2-0.1-1.8-0.3c-14.2-4.5-27.9-10.7-40.7-18.3c-2.9-1.7-3.8-5.4-2.1-8.2c1.7-2.9,5.4-3.8,8.2-2.1
	c12.1,7.1,24.9,12.9,38.3,17.2c3.2,1,4.9,4.4,3.9,7.5C161.1,403.6,158.7,405.2,156.2,405.2z M283.8,401.7c-2.4,0-4.7-1.5-5.6-3.9
	c-1.2-3.1,0.4-6.6,3.5-7.7c13.1-5,25.6-11.5,37.3-19.2c2.8-1.8,6.5-1.1,8.3,1.7c1.8,2.8,1.1,6.5-1.7,8.3
	c-12.4,8.3-25.7,15.2-39.6,20.5C285.2,401.6,284.5,401.7,283.8,401.7z M82.1,361.4c-1.5,0-3-0.5-4.1-1.6
	c-10.8-10.2-20.5-21.7-28.8-34.1c-1.8-2.8-1.1-6.5,1.7-8.3c2.8-1.8,6.5-1.1,8.3,1.7c7.8,11.6,16.9,22.4,27,32.1
	c2.4,2.3,2.5,6.1,0.2,8.5C85.3,360.8,83.7,361.4,82.1,361.4z M355.4,354c-1.5,0-3-0.5-4.1-1.6c-2.4-2.3-2.5-6.1-0.2-8.5
	c9.7-10.2,18.2-21.4,25.3-33.5c1.7-2.9,5.4-3.8,8.2-2.1c2.9,1.7,3.8,5.4,2.1,8.2c-7.6,12.8-16.6,24.8-26.9,35.6
	C358.5,353.4,357,354,355.4,354z M34.3,289.9c-2.4,0-4.7-1.5-5.6-3.9c-5.3-13.9-9.1-28.5-11.1-43.2c-0.5-3.3,1.8-6.3,5.1-6.8
	c3.3-0.5,6.3,1.8,6.8,5.1c1.9,13.9,5.5,27.5,10.5,40.6c1.2,3.1-0.4,6.6-3.5,7.7C35.7,289.8,35,289.9,34.3,289.9z M399.2,279.9
	c-0.6,0-1.2-0.1-1.8-0.3c-3.2-1-4.9-4.4-3.9-7.5c4.2-13.3,7-27.1,8.2-41.1l0-0.4c0.3-3.3,3.2-5.8,6.5-5.5c3.3,0.3,5.7,3.2,5.5,6.5
	l0,0.4c-1.3,14.9-4.2,29.6-8.7,43.7C404.1,278.3,401.7,279.9,399.2,279.9z M22.3,204.7c-0.2,0-0.3,0-0.5,0c-3.3-0.3-5.7-3.2-5.5-6.5
	l0-0.2c1.3-14.8,4.2-29.5,8.7-43.6c1-3.2,4.4-4.9,7.5-3.9c3.2,1,4.9,4.4,3.9,7.5c-4.2,13.2-6.9,27-8.1,41l0,0.2
	C28,202.3,25.4,204.7,22.3,204.7z M406.5,193.8c-2.9,0-5.5-2.2-5.9-5.2c-2-13.9-5.5-27.5-10.5-40.6c-1.2-3.1,0.4-6.6,3.5-7.7
	c3.1-1.2,6.6,0.4,7.8,3.5c5.3,13.9,9.1,28.5,11.2,43.2c0.5,3.3-1.8,6.3-5.1,6.8C407,193.8,406.7,193.8,406.5,193.8z M48.4,122.7
	c-1,0-2.1-0.3-3-0.8c-2.9-1.7-3.8-5.4-2.1-8.2c7.6-12.8,16.6-24.8,26.9-35.6c2.3-2.4,6.1-2.5,8.5-0.2c2.4,2.3,2.5,6.1,0.2,8.5
	c-9.6,10.2-18.1,21.5-25.3,33.5C52.5,121.7,50.5,122.7,48.4,122.7z M375.7,113.5c-1.9,0-3.8-0.9-5-2.7c-7.8-11.6-16.9-22.4-27.1-32
	c-2.4-2.3-2.5-6.1-0.2-8.5c2.3-2.4,6.1-2.5,8.5-0.2c10.8,10.2,20.5,21.7,28.8,34.1c1.8,2.8,1.1,6.5-1.6,8.3
	C378,113.2,376.9,113.5,375.7,113.5z M107.6,60.2c-1.9,0-3.8-0.9-5-2.7c-1.8-2.8-1.1-6.5,1.7-8.3c12.4-8.3,25.7-15.2,39.6-20.5
	c3.1-1.2,6.6,0.4,7.7,3.5c1.2,3.1-0.4,6.6-3.5,7.7c-13.1,5-25.6,11.5-37.2,19.3C109.9,59.9,108.7,60.2,107.6,60.2z M313.2,54.4
	c-1,0-2.1-0.3-3-0.8c-12.1-7.1-25-12.9-38.3-17.1c-3.2-1-4.9-4.4-3.9-7.5c1-3.2,4.4-4.9,7.5-3.9c14.2,4.5,27.9,10.6,40.8,18.2
	c2.9,1.7,3.8,5.4,2.1,8.2C317.2,53.3,315.2,54.4,313.2,54.4z M187.9,29.5c-2.9,0-5.5-2.2-5.9-5.2c-0.5-3.3,1.8-6.3,5.1-6.8
	c14.7-2.1,29.7-2.5,44.6-1.2c3.3,0.3,5.8,3.2,5.5,6.5c-0.3,3.3-3.2,5.8-6.5,5.5c-14-1.2-28.2-0.8-41.9,1.1
	C188.5,29.5,188.2,29.5,187.9,29.5z"/>
</svg>
