<?xml version="1.0" encoding="utf-8"?>
<!-- Generator: Adobe Illustrator 24.1.2, SVG Export Plug-In . SVG Version: 6.00 Build 0)  -->
<svg version="1.1" id="Warstwa_3" xmlns="http://www.w3.org/2000/svg" xmlns:xlink="http://www.w3.org/1999/xlink" x="0px" y="0px"
	 viewBox="0 0 430 430" style="enable-background:new 0 0 430 430;" xml:space="preserve">
<style type="text/css">
	.st0{fill:#121331;}
	.st1{fill:#08a88a;}
	.st2{fill:none;stroke:#08a88a;stroke-width:12.95;stroke-linecap:round;stroke-linejoin:round;stroke-miterlimit:14.8;}
	.st3{fill:none;}
</style>
<g>
	<path class="st1" d="M280.05,113.6h-13.1V92.15c0-7.14-5.81-12.95-12.95-12.95h-74.1c-7.14,0-12.95,5.81-12.95,12.95v20.96h-13.1
		V92.15c0-14.37,11.69-26.05,26.05-26.05H254c14.37,0,26.05,11.69,26.05,26.05V113.6z"/>
	<rect x="59" y="249.16" class="st1" width="311.03" height="13.1"/>
	<path class="st1" d="M253.63,298.03H180.2c-3.62,0-6.55-2.93-6.55-6.55v-32.11c0-3.62,2.93-6.55,6.55-6.55s6.55,2.93,6.55,6.55
		v25.56h60.33V257.9c0-3.62,2.93-6.55,6.55-6.55s6.55,2.93,6.55,6.55v33.58C260.19,295.09,257.25,298.03,253.63,298.03z"/>
	<path class="st0" d="M332,363.9H98c-25.12,0-45.55-20.43-45.55-45.55v-163.8C52.45,129.43,72.88,109,98,109h234
		c25.12,0,45.55,20.43,45.55,45.55v163.8C377.55,343.47,357.12,363.9,332,363.9z M98,122.1c-17.89,0-32.45,14.56-32.45,32.45v163.8
		c0,17.89,14.56,32.45,32.45,32.45h234c17.89,0,32.45-14.56,32.45-32.45v-163.8c0-17.89-14.56-32.45-32.45-32.45H98z"/>
</g>
</svg>
