<?xml version="1.0" encoding="utf-8"?>
<!-- Generator: Adobe Illustrator 24.1.2, SVG Export Plug-In . SVG Version: 6.00 Build 0)  -->
<svg version="1.1" id="Warstwa_3" xmlns="http://www.w3.org/2000/svg" xmlns:xlink="http://www.w3.org/1999/xlink" x="0px" y="0px"
	 viewBox="0 0 430 430" style="enable-background:new 0 0 430 430;" xml:space="preserve">
<style type="text/css">
	.st0{fill:#121331;}
	.st1{fill:#08a88a;}
	.st2{fill:none;stroke:#121331;stroke-width:12;stroke-linecap:round;stroke-linejoin:round;stroke-miterlimit:10;}
	.st3{fill:#08a88a;}
</style>
<g>
	<path class="st1" d="M346.81,193.2c-0.67,0-1.36-0.12-2.03-0.36c-83.69-30.13-175.87-30.13-259.56,0
		c-3.11,1.12-6.55-0.49-7.68-3.61l-12.02-33.4c-1.12-3.12,0.5-6.55,3.61-7.68c94.07-33.87,197.67-33.87,291.74,0
		c3.12,1.12,4.74,4.56,3.61,7.68l-12.02,33.4C351.58,191.67,349.27,193.2,346.81,193.2z M215,158.24c43.37,0,86.73,7.1,128.18,21.32
		l7.96-22.11c-88.04-30.27-184.25-30.27-272.29,0l7.96,22.11C128.27,165.35,171.63,158.24,215,158.24z"/>
	<path class="st3" d="M130.21,253.59c-12.73-3.52-15.36-5.43-14.79-10.73c0.36-3.4,3.39-6.76,7.2-8c7.4-2.4,16.57,1.49,20.88,8.86
		c1.67,2.86,5.35,3.83,8.21,2.15c2.86-1.67,3.83-5.35,2.15-8.21c-4.48-7.66-12.03-12.92-20.19-14.77v-10.3c0-3.31-2.69-6-6-6
		s-6,2.69-6,6v10.13c-0.93,0.19-1.85,0.43-2.75,0.72c-8.36,2.71-14.56,10-15.43,18.15c-1.76,16.57,13.46,20.78,23.53,23.56
		c12.45,3.44,16.3,5.49,16.15,11.58c-0.05,2.08-1.28,4.36-3.21,5.96c-2.52,2.08-5.75,2.86-8.01,3.15
		c-7.79,0.99-16.07-2.45-21.08-8.77c-2.06-2.6-5.83-3.03-8.43-0.97c-2.6,2.06-3.03,5.83-0.97,8.43c5.15,6.5,12.37,10.91,20.21,12.65
		v10.39c0,3.31,2.69,6,6,6s6-2.69,6-6v-9.85c5.42-0.72,10.23-2.71,13.93-5.77c4.6-3.8,7.43-9.38,7.56-14.91
		C155.56,260.6,140.91,256.55,130.21,253.59z"/>
	<g>
		<path class="st0" d="M323.84,250.02h-62.76c-3.31,0-6-2.69-6-6s2.69-6,6-6h62.76c3.31,0,6,2.69,6,6S327.15,250.02,323.84,250.02z"
			/>
		<path class="st0" d="M232.37,250.02h-41.2c-3.31,0-6-2.69-6-6s2.69-6,6-6h41.2c3.31,0,6,2.69,6,6S235.68,250.02,232.37,250.02z"/>
		<path class="st0" d="M323.84,282.16H191.17c-3.31,0-6-2.69-6-6s2.69-6,6-6h132.67c3.31,0,6,2.69,6,6S327.15,282.16,323.84,282.16z
			"/>
	</g>
	<path class="st0" d="M407.81,81.57c0-0.03,0-0.06,0-0.09c0-0.04,0-0.08-0.01-0.11c-0.01-0.36-0.05-0.71-0.12-1.05
		c0-0.02-0.01-0.03-0.01-0.05c-0.08-0.36-0.19-0.72-0.34-1.06c-0.01-0.02-0.02-0.03-0.02-0.05c-0.15-0.34-0.33-0.67-0.54-0.98
		c-0.02-0.02-0.03-0.04-0.05-0.06c-0.22-0.31-0.46-0.59-0.73-0.85c-0.01-0.01-0.02-0.02-0.03-0.03c-0.02-0.02-0.04-0.03-0.05-0.04
		c-0.27-0.25-0.55-0.47-0.86-0.67c-0.04-0.03-0.08-0.05-0.12-0.07c-0.29-0.18-0.6-0.33-0.92-0.46c-0.05-0.02-0.09-0.03-0.14-0.05
		c-0.32-0.12-0.64-0.21-0.98-0.27c-0.05-0.01-0.1-0.01-0.14-0.02c-0.3-0.05-0.61-0.08-0.93-0.08H28.19c-0.32,0-0.63,0.03-0.94,0.08
		c-0.04,0.01-0.08,0.01-0.13,0.02c-0.34,0.06-0.68,0.15-1,0.27c-0.04,0.01-0.08,0.03-0.12,0.04c-0.33,0.13-0.64,0.29-0.94,0.47
		c-0.04,0.02-0.08,0.04-0.11,0.07c-0.31,0.2-0.6,0.42-0.86,0.67c-0.02,0.02-0.04,0.03-0.05,0.04c-0.01,0.01-0.02,0.02-0.03,0.03
		c-0.27,0.26-0.51,0.55-0.73,0.85c-0.02,0.02-0.03,0.04-0.05,0.06c-0.21,0.31-0.39,0.63-0.54,0.98c-0.01,0.02-0.02,0.03-0.02,0.05
		c-0.14,0.34-0.26,0.69-0.34,1.06c0,0.02-0.01,0.03-0.01,0.05c-0.07,0.34-0.11,0.69-0.12,1.05c0,0.04-0.01,0.08-0.01,0.11
		c0,0.03,0,0.06,0,0.09v266.87c0,0.03,0,0.06,0,0.08c0,0.04,0,0.08,0.01,0.12c0.01,0.36,0.05,0.71,0.12,1.05
		c0,0.02,0.01,0.03,0.01,0.05c0.08,0.37,0.19,0.72,0.34,1.06c0.01,0.01,0.01,0.03,0.02,0.04c0.15,0.34,0.33,0.67,0.54,0.98
		c0.01,0.02,0.03,0.04,0.05,0.06c0.22,0.31,0.46,0.6,0.73,0.86c0.01,0.01,0.01,0.02,0.02,0.03c0.02,0.02,0.04,0.03,0.05,0.04
		c0.26,0.24,0.54,0.47,0.84,0.66c0.04,0.02,0.07,0.04,0.11,0.07c0.29,0.18,0.59,0.34,0.91,0.46c0.04,0.02,0.08,0.03,0.11,0.04
		c0.32,0.12,0.64,0.22,0.98,0.28c0.03,0.01,0.06,0.01,0.09,0.01c0.34,0.06,0.69,0.1,1.05,0.1c0,0,0,0,0,0c0,0,0,0,0,0s0,0,0,0
		h373.61c0,0,0,0,0,0s0,0,0,0c0,0,0,0,0,0c0.36,0,0.71-0.04,1.05-0.1c0.03-0.01,0.06-0.01,0.09-0.01c0.34-0.07,0.67-0.16,0.99-0.28
		c0.04-0.01,0.07-0.03,0.11-0.04c0.32-0.13,0.62-0.29,0.91-0.47c0.04-0.02,0.07-0.04,0.11-0.07c0.3-0.19,0.58-0.42,0.84-0.66
		c0.02-0.02,0.04-0.03,0.05-0.04c0.01-0.01,0.01-0.02,0.02-0.03c0.27-0.26,0.51-0.55,0.73-0.86c0.01-0.02,0.03-0.04,0.05-0.06
		c0.21-0.31,0.39-0.64,0.54-0.98c0.01-0.01,0.01-0.03,0.02-0.04c0.14-0.34,0.26-0.69,0.34-1.06c0-0.02,0.01-0.03,0.01-0.05
		c0.07-0.34,0.11-0.69,0.12-1.05c0-0.04,0.01-0.08,0.01-0.12c0-0.03,0-0.06,0-0.08V81.57z M375.2,109.34
		c1.16,1.11,2.66,1.67,4.15,1.67c1.58,0,3.16-0.62,4.33-1.85l12.12-12.65v237.01l-12.12-12.64c-2.29-2.39-6.09-2.47-8.48-0.17
		c-2.39,2.29-2.47,6.09-0.17,8.48l12.71,13.25H42.27l12.71-13.25c2.29-2.39,2.22-6.19-0.17-8.48c-2.39-2.29-6.19-2.22-8.48,0.17
		l-12.12,12.64V96.51l12.12,12.65c1.18,1.23,2.75,1.85,4.33,1.85c1.49,0,2.99-0.55,4.15-1.67c2.39-2.29,2.47-6.09,0.18-8.48
		L42.25,87.57h345.5l-12.73,13.29C372.73,103.25,372.81,107.05,375.2,109.34z"/>
</g>
</svg>
