<?xml version="1.0" encoding="utf-8"?>
<!-- Generator: Adobe Illustrator 24.1.2, SVG Export Plug-In . SVG Version: 6.00 Build 0)  -->
<svg version="1.1" id="Warstwa_3" xmlns="http://www.w3.org/2000/svg" xmlns:xlink="http://www.w3.org/1999/xlink" x="0px" y="0px"
	 viewBox="0 0 430 430" style="enable-background:new 0 0 430 430;" xml:space="preserve">
<style type="text/css">
	.st0{fill:#08a88a;}
	.st1{fill:#121331;}
	.st2{fill:none;stroke:#08a88a;stroke-width:12;stroke-linecap:round;stroke-linejoin:round;stroke-miterlimit:10;}
	.st3{fill:none;stroke:#121331;stroke-width:12;stroke-linecap:round;stroke-linejoin:round;stroke-miterlimit:10;}
	.st4{fill:#08a88a;}
	.st5{fill:#FFFFFF;stroke:#08a88a;stroke-width:12;stroke-linecap:round;stroke-linejoin:round;stroke-miterlimit:10;}
</style>
<g>
	<g>
		<path class="st0" d="M59.45,316.12c-1.78,0-3.54-0.79-4.73-2.3c-6.19-7.9-9.46-17.4-9.46-27.46s3.27-19.56,9.46-27.46
			c2.04-2.61,5.81-3.07,8.42-1.03c2.61,2.04,3.07,5.81,1.03,8.42c-4.52,5.77-6.91,12.71-6.91,20.07s2.39,14.29,6.91,20.07
			c2.04,2.61,1.58,6.38-1.03,8.42C62.05,315.7,60.74,316.12,59.45,316.12z"/>
		<path class="st0" d="M43.46,328c-1.78,0-3.55-0.79-4.73-2.3c-8.86-11.32-13.54-24.93-13.54-39.34s4.68-28.02,13.54-39.34
			c2.04-2.61,5.81-3.07,8.42-1.03c2.61,2.04,3.07,5.81,1.03,8.42c-7.19,9.19-10.99,20.24-10.99,31.95s3.8,22.75,10.99,31.95
			c2.04,2.61,1.58,6.38-1.03,8.42C46.05,327.58,44.75,328,43.46,328z"/>
	</g>
	<g>
		<path class="st0" d="M370.55,315.7c-1.29,0-2.6-0.42-3.69-1.28c-2.61-2.04-3.07-5.81-1.03-8.42c4.52-5.77,6.91-12.71,6.91-20.07
			c0-7.35-2.39-14.29-6.91-20.07c-2.04-2.61-1.58-6.38,1.03-8.42c2.61-2.04,6.38-1.58,8.42,1.03c6.19,7.91,9.46,17.4,9.46,27.46
			c0,10.06-3.27,19.56-9.46,27.46C374.1,314.91,372.33,315.7,370.55,315.7z"/>
		<path class="st0" d="M386.54,327.58c-1.29,0-2.6-0.42-3.69-1.27c-2.61-2.04-3.07-5.81-1.03-8.42
			c7.19-9.19,10.99-20.24,10.99-31.95s-3.8-22.75-10.99-31.95c-2.04-2.61-1.58-6.38,1.03-8.42c2.61-2.04,6.38-1.58,8.42,1.03
			c8.86,11.32,13.54,24.93,13.54,39.34s-4.68,28.02-13.54,39.34C390.09,326.79,388.33,327.58,386.54,327.58z"/>
	</g>
	<g>
		<path class="st1" d="M298.68,177.69H130.87c-3.31,0-6-2.69-6-6V75.03c0-3.31,2.69-6,6-6h167.81c3.31,0,6,2.69,6,6v96.66
			C304.68,175,302,177.69,298.68,177.69z M136.87,165.69h155.81V81.03H136.87V165.69z"/>
		<path class="st1" d="M306.82,49.47H122.74c-9.92,0-18,8.08-18,18v125.13c0,9.92,8.08,18,18,18h71.21
			c-2.84,6.11-6.3,11.6-8.92,12.89c-2.5,1.23-3.82,4.03-3.19,6.74c0.63,2.72,3.05,4.64,5.84,4.64h54.19c2.79,0,5.21-1.92,5.84-4.64
			c0.63-2.72-0.69-5.51-3.19-6.74c-2.62-1.29-6.08-6.78-8.92-12.89h71.21c9.92,0,18-8.08,18-18V67.47
			C324.82,57.55,316.75,49.47,306.82,49.47z M228.5,222.88h-27.45c2.62-4.34,4.65-8.95,5.96-12.27h15.54
			C223.86,213.92,225.89,218.53,228.5,222.88z M312.82,192.61c0,3.31-2.69,6-6,6h-80.09h-23.9h-80.09c-3.31,0-6-2.69-6-6V67.47
			c0-3.31,2.69-6,6-6h184.08c3.31,0,6,2.69,6,6V192.61z"/>
	</g>
	<path class="st0" d="M123.17,335.77h-0.1c-3.31,0-6-2.69-6-6s2.69-6,6-6h0.1c3.31,0,6,2.69,6,6S126.48,335.77,123.17,335.77z"/>
	<path class="st0" d="M307.06,335.77h-0.1c-3.31,0-6-2.69-6-6s2.69-6,6-6h0.1c3.31,0,6,2.69,6,6S310.38,335.77,307.06,335.77z"/>
	<path class="st1" d="M145.09,225.16h-44.12c-10.57,0-19.17,8.6-19.17,19.17v92.05c0,10.57,8.6,19.17,19.17,19.17h2.86l-4.83,17.37
		c-0.5,1.81-0.13,3.74,1,5.24c1.13,1.49,2.9,2.37,4.78,2.37h36.48c1.88,0,3.64-0.88,4.78-2.37c1.13-1.49,1.51-3.43,1-5.24
		l-4.83-17.37h2.86c10.57,0,19.17-8.6,19.17-19.17v-92.05C164.27,233.76,155.67,225.16,145.09,225.16z M133.38,368.53h-20.7
		l3.61-12.97h13.48L133.38,368.53z M152.27,336.38c0,3.96-3.22,7.17-7.17,7.17h-44.12c-3.96,0-7.17-3.22-7.17-7.17v-19.94h58.46
		V336.38z M152.27,304.44H93.8v-60.11c0-3.96,3.22-7.17,7.17-7.17h44.12c3.96,0,7.17,3.22,7.17,7.17V304.44z"/>
	<path class="st1" d="M328.26,225.16h-42.49c-11.02,0-19.99,8.97-19.99,19.99v90.43c0,11.02,8.97,19.99,19.99,19.99h2.05
		l-4.83,17.37c-0.5,1.81-0.13,3.74,1,5.24c1.13,1.49,2.9,2.37,4.78,2.37h36.48c1.88,0,3.64-0.88,4.78-2.37
		c1.13-1.49,1.51-3.43,1-5.24l-4.83-17.37h2.05c11.02,0,19.99-8.97,19.99-19.99v-90.43C348.24,234.12,339.28,225.16,328.26,225.16z
		 M317.36,368.53h-20.7l3.61-12.97h13.48L317.36,368.53z M336.24,335.57c0,4.4-3.58,7.99-7.99,7.99h-42.49
		c-4.4,0-7.99-3.58-7.99-7.99v-19.13h58.46V335.57z M336.24,304.44h-58.46v-59.3c0-4.4,3.58-7.99,7.99-7.99h42.49
		c4.4,0,7.99,3.58,7.99,7.99V304.44z"/>
</g>
</svg>
