<?xml version="1.0" encoding="utf-8"?>
<!-- Generator: Adobe Illustrator 24.1.2, SVG Export Plug-In . SVG Version: 6.00 Build 0)  -->
<svg version="1.1" id="Warstwa_3" xmlns="http://www.w3.org/2000/svg" xmlns:xlink="http://www.w3.org/1999/xlink" x="0px" y="0px"
	 viewBox="0 0 430 430" style="enable-background:new 0 0 430 430;" xml:space="preserve">
<style type="text/css">
	.st0{fill:#08a88a;}
	.st1{fill:#121331;}
	.st2{fill:#08a88a;}
	.st3{clip-path:url(#SVGID_2_);}
	.st4{fill:none;stroke:#08a88a;stroke-width:12;stroke-linecap:round;stroke-linejoin:round;stroke-miterlimit:10;}
	.st5{fill:none;stroke:#121331;stroke-width:12;stroke-linecap:round;stroke-linejoin:round;stroke-miterlimit:10;}
	.st6{fill:none;}
</style>
<g>
	<g>
		<path class="st0" d="M261.09,129.04c-1.29,0-2.6-0.42-3.69-1.28c-12.2-9.55-26.86-14.59-42.4-14.59s-30.2,5.05-42.4,14.59
			c-2.61,2.04-6.38,1.58-8.42-1.03c-2.04-2.61-1.58-6.38,1.03-8.42c14.33-11.21,31.55-17.14,49.79-17.14s35.46,5.93,49.79,17.14
			c2.61,2.04,3.07,5.81,1.03,8.42C264.63,128.25,262.87,129.04,261.09,129.04z"/>
		<path class="st0" d="M284.13,98.01c-1.29,0-2.6-0.42-3.69-1.27C261.61,82.01,238.98,74.22,215,74.22s-46.61,7.79-65.44,22.52
			c-2.61,2.04-6.38,1.58-8.42-1.03c-2.04-2.61-1.58-6.38,1.03-8.42c20.96-16.4,46.15-25.06,72.83-25.06s51.87,8.67,72.83,25.06
			c2.61,2.04,3.07,5.81,1.03,8.42C287.68,97.22,285.91,98.01,284.13,98.01z"/>
	</g>
	<g>
		<path class="st0" d="M215,271.15c-74.72,0-154.13-18.33-154.13-52.31c0-3.31,2.69-6,6-6c3.31,0,6,2.69,6,6
			c0,9.11,15.01,19.46,39.18,27.02c27.41,8.57,63.98,13.29,102.95,13.29s75.54-4.72,102.95-13.29
			c24.16-7.55,39.18-17.91,39.18-27.02c0-3.31,2.69-6,6-6c3.31,0,6,2.69,6,6C369.13,252.82,289.72,271.15,215,271.15z"/>
		<path class="st1" d="M215,367.78c-49.26,0-87.48-6.06-113.6-18.02c-33.5-15.34-40.54-37.67-40.54-53.71v-74.36
			c0-41.3,79.62-56.01,154.13-56.01s154.13,14.71,154.13,56.01v73.43c0,16.32-7.03,39.03-40.51,54.51
			C302.58,361.67,264.36,367.78,215,367.78z M215,177.67c-83.68,0-142.13,18.1-142.13,44.01v74.36c0,18.22,11.28,32.62,33.53,42.8
			c24.54,11.23,61.08,16.93,108.6,16.93c91.65,0,142.13-21.54,142.13-60.66v-73.43C357.13,195.77,298.68,177.67,215,177.67z"/>
		<path class="st1" d="M237.42,333.93h-44.84c-10.76,0-19.52-8.76-19.52-19.52v-2.98c0-10.76,8.76-19.52,19.52-19.52h44.84
			c10.76,0,19.52,8.76,19.52,19.52v2.98C256.94,325.17,248.19,333.93,237.42,333.93z M192.58,303.9c-4.15,0-7.52,3.37-7.52,7.52
			v2.98c0,4.15,3.37,7.52,7.52,7.52h44.84c4.15,0,7.52-3.37,7.52-7.52v-2.98c0-4.15-3.37-7.52-7.52-7.52H192.58z"/>
	</g>
</g>
</svg>
