<?xml version="1.0" encoding="utf-8"?>
<!-- Generator: Adobe Illustrator 24.1.2, SVG Export Plug-In . SVG Version: 6.00 Build 0)  -->
<svg version="1.1" id="Warstwa_3" xmlns="http://www.w3.org/2000/svg" xmlns:xlink="http://www.w3.org/1999/xlink" x="0px" y="0px"
	 viewBox="0 0 430 430" style="enable-background:new 0 0 430 430;" xml:space="preserve">
<style type="text/css">
	.st0{fill:#08A385;}
	.st1{fill:#121331;}
	.st2{fill:none;stroke:#08A385;stroke-width:12;stroke-linecap:round;stroke-linejoin:round;stroke-miterlimit:10;}
	.st3{fill:none;stroke:#121331;stroke-width:12;stroke-linecap:round;stroke-linejoin:round;stroke-miterlimit:10;}
</style>
<g>
	<path class="st1" d="M215,354.17c-34.19,0-67.34-16.66-93.35-46.91c-23.94-27.84-38.23-64.09-38.23-96.97
		c0-24.42,14.33-48.6,39.31-66.33c25.01-17.75,57.78-27.53,92.27-27.53s67.26,9.78,92.27,27.53c24.98,17.73,39.31,41.91,39.31,66.33
		c0,32.87-14.29,69.12-38.23,96.97C282.34,337.51,249.19,354.17,215,354.17z M215,128.44c-32.02,0-62.32,8.99-85.33,25.32
		c-21.77,15.45-34.25,36.06-34.25,56.54c0,59.73,53.34,131.88,119.58,131.88s119.58-72.14,119.58-131.88
		c0-20.48-12.49-41.09-34.25-56.54C277.32,137.43,247.02,128.44,215,128.44z"/>
	<g>
		<path class="st1" d="M89.78,209.92c-2.36,0-4.6-1.4-5.55-3.72c-2.03-4.94-12.5-30.94-19.58-58.19
			c-9.91-38.16-8.51-60.74,4.28-69.02c10.21-6.61,25.56-2.94,46.91,11.23c16.73,11.1,34.2,26.75,45.91,37.92
			c2.4,2.29,2.49,6.08,0.2,8.48c-2.29,2.4-6.08,2.49-8.48,0.2c-45.25-43.16-69.97-52.97-78.02-47.76
			c-2.75,1.78-10.83,11.08,0.82,55.93c7.03,27.06,17.85,53.7,19.07,56.65c1.26,3.07-0.2,6.57-3.27,7.83
			C91.31,209.78,90.54,209.92,89.78,209.92z"/>
		<g>
			<path class="st1" d="M340.22,209.92c-0.76,0-1.53-0.15-2.28-0.45c-3.06-1.26-4.53-4.76-3.27-7.83
				c1.21-2.95,12.04-29.59,19.07-56.65c11.65-44.84,3.57-54.14,0.82-55.93c-8.05-5.21-32.77,4.6-78.02,47.76
				c-2.4,2.29-6.2,2.2-8.48-0.2s-2.2-6.2,0.2-8.48c11.71-11.17,29.19-26.82,45.91-37.92c21.35-14.17,36.69-17.84,46.91-11.23
				c12.79,8.28,14.19,30.86,4.28,69.02c-7.08,27.25-17.55,53.25-19.58,58.19C344.82,208.52,342.58,209.92,340.22,209.92z"/>
		</g>
	</g>
	<path class="st1" d="M214.83,291.63c-11.17,0-22.48-12.71-26.95-21.73c-3.59-7.26-3.75-13.63-0.46-17.94
		c3.34-4.38,10.54-6.94,21.39-7.61c9.1-0.56,26.29,0.28,32.93,7.05c0,0,0,0,0,0c2.16,2.2,5.21,7.25,1.38,16.36
		C238.94,277.72,226.15,291.63,214.83,291.63z M197.06,259.15c-0.14,1.07,0.63,4.93,4.63,10.35c4.69,6.34,10.36,10.12,13.14,10.12
		c2.73,0,8.44-3.72,13.25-9.94c3.75-4.85,4.98-8.77,4.88-10.08c-1.74-1.3-8.91-3.51-19.72-3.42
		C203.56,256.27,198.26,258.18,197.06,259.15z M197.09,259.01"/>
	<path class="st1" d="M247.28,314.53c-0.48,0-0.96-0.06-1.44-0.18c-4.44-1.1-21.65-5.83-30.89-15.41
		c-9.3,9.32-26.49,13.59-30.94,14.57c-3.23,0.71-6.44-1.34-7.15-4.57c-0.71-3.24,1.34-6.44,4.57-7.15
		c11.55-2.56,27.56-9.6,27.56-16.17c0-3.31,2.69-6,6-6s6,2.69,6,6c0,6.65,16.1,14.19,27.72,17.08c3.21,0.8,5.18,4.05,4.38,7.27
		C252.42,312.7,249.97,314.53,247.28,314.53z"/>
	<g>
		<g>
			<path class="st0" d="M151.11,262.43c-0.67,0-1.36-0.11-2.02-0.35c-50.96-18.26-112.74-5.64-113.36-5.51
				c-3.24,0.68-6.42-1.4-7.1-4.64s1.39-6.42,4.63-7.1c2.66-0.56,65.67-13.47,119.88,5.96c3.12,1.12,4.74,4.55,3.62,7.67
				C155.88,260.91,153.57,262.43,151.11,262.43z"/>
			<path class="st0" d="M87.11,300.26c-2.31,0-4.51-1.34-5.5-3.59c-1.33-3.03,0.05-6.57,3.08-7.9c1.41-0.62,34.84-15.09,67.25-10.6
				c3.28,0.46,5.57,3.49,5.12,6.77c-0.46,3.28-3.49,5.57-6.77,5.12c-28.98-4.02-60.46,9.56-60.78,9.7
				C88.73,300.09,87.91,300.26,87.11,300.26z"/>
		</g>
		<g>
			<path class="st0" d="M278.89,262.43c-2.46,0-4.77-1.53-5.65-3.98c-1.12-3.12,0.5-6.55,3.62-7.67
				c54.21-19.43,117.22-6.52,119.88-5.96c3.24,0.68,5.32,3.86,4.63,7.11c-0.68,3.24-3.86,5.32-7.11,4.64
				c-0.62-0.13-62.4-12.75-113.36,5.51C280.24,262.32,279.56,262.43,278.89,262.43z"/>
			<path class="st0" d="M342.9,300.26c-0.81,0-1.62-0.16-2.41-0.51c-0.31-0.14-31.79-13.72-60.77-9.7
				c-3.29,0.45-6.31-1.84-6.77-5.12c-0.46-3.28,1.84-6.31,5.12-6.77c32.41-4.49,65.84,9.98,67.25,10.6
				c3.03,1.33,4.41,4.87,3.08,7.91C347.41,298.92,345.21,300.26,342.9,300.26z"/>
		</g>
	</g>
	<path class="st1" d="M258.37,223.98c-0.58,0-1.18-0.06-1.76-0.17c-0.57-0.12-1.14-0.29-1.68-0.52c-0.54-0.22-1.07-0.5-1.55-0.82
		c-0.5-0.33-0.96-0.71-1.37-1.12c-0.42-0.42-0.79-0.88-1.12-1.37c-0.32-0.49-0.6-1.01-0.83-1.56c-0.22-0.54-0.4-1.11-0.51-1.68
		c-0.12-0.58-0.18-1.17-0.18-1.76c0-2.37,0.96-4.69,2.64-6.36c0.41-0.42,0.87-0.79,1.37-1.12c0.48-0.32,1.01-0.6,1.55-0.83
		c0.54-0.22,1.11-0.4,1.68-0.51c2.93-0.59,6.04,0.37,8.13,2.46c1.67,1.67,2.63,3.99,2.63,6.36c0,0.59-0.06,1.18-0.17,1.76
		c-0.12,0.57-0.29,1.14-0.52,1.68c-0.22,0.55-0.5,1.07-0.83,1.56c-0.32,0.49-0.7,0.95-1.11,1.37
		C263.06,223.02,260.74,223.98,258.37,223.98z"/>
	<path class="st1" d="M173.37,223.98c-0.59,0-1.18-0.06-1.76-0.17c-0.57-0.12-1.14-0.29-1.68-0.52c-0.55-0.22-1.07-0.5-1.56-0.82
		c-0.49-0.33-0.95-0.71-1.37-1.12c-0.41-0.42-0.79-0.88-1.11-1.37c-0.33-0.49-0.61-1.01-0.83-1.56c-0.23-0.54-0.4-1.11-0.51-1.68
		c-0.12-0.58-0.18-1.17-0.18-1.76c0-2.37,0.96-4.69,2.63-6.36c0.42-0.42,0.88-0.79,1.37-1.12c0.49-0.32,1.01-0.6,1.56-0.83
		c0.54-0.22,1.11-0.4,1.68-0.51c1.16-0.24,2.36-0.24,3.52,0c0.57,0.11,1.14,0.29,1.68,0.51c0.54,0.23,1.07,0.51,1.55,0.83
		c0.5,0.33,0.96,0.7,1.37,1.12c1.68,1.67,2.64,3.99,2.64,6.36c0,0.59-0.06,1.18-0.18,1.76c-0.11,0.57-0.29,1.14-0.51,1.68
		c-0.23,0.55-0.5,1.07-0.83,1.56c-0.33,0.49-0.7,0.95-1.12,1.37c-0.41,0.41-0.87,0.79-1.37,1.12c-0.48,0.32-1.01,0.6-1.55,0.82
		c-0.54,0.23-1.11,0.4-1.68,0.52C174.55,223.92,173.95,223.98,173.37,223.98z"/>
</g>
</svg>
