<?xml version="1.0" encoding="utf-8"?>
<!-- Generator: Adobe Illustrator 25.2.0, SVG Export Plug-In . SVG Version: 6.00 Build 0)  -->
<svg version="1.1" id="Warstwa_1" xmlns="http://www.w3.org/2000/svg" xmlns:xlink="http://www.w3.org/1999/xlink" x="0px" y="0px"
	 viewBox="0 0 500 500" style="enable-background:new 0 0 500 500;" xml:space="preserve">
<style type="text/css">
	.st0{fill:#121331;}
	.st1{fill:#08A385;}
</style>
<g>
	<path class="st0" d="M89.56,224.18c-3.31,0-6,2.69-6,6v178.88c0,3.31,2.69,6,6,6s6-2.69,6-6V230.18
		C95.56,226.86,92.87,224.18,89.56,224.18z"/>
	<path class="st0" d="M410.17,224.18c-3.31,0-6,2.69-6,6v180.99c0,3.31,2.69,6,6,6s6-2.69,6-6V230.18
		C416.17,226.86,413.48,224.18,410.17,224.18z"/>
	<path class="st0" d="M218.57,244.16c-9.31-2.84-17.74,7.85-23.26,16.13c-3.91,5.86-7.32,12.14-9.42,16.22
		c-5.52-0.4-11.19-0.4-16.71,0c-2.1-4.08-5.5-10.35-9.42-16.22c-5.53-8.29-13.95-18.97-23.28-16.13c-8.8,2.7-12.65,14.13-12.1,35.99
		c0.32,12.73,2.03,24.82,2.4,27.29c0.3,21.23,15.08,52.48,22.21,67.55l0.79,1.67c2.41,5.09,6.86,8.99,12.23,10.69
		c4.83,1.53,10.37,2.29,15.91,2.29c5.51,0,11.02-0.76,15.83-2.27c5.43-1.72,9.92-5.68,12.31-10.87l0.73-1.57
		c6.98-15.11,21.45-46.44,21.55-67.66c0.38-2.54,2.07-14.55,2.37-27.2C231.23,258.28,227.38,246.86,218.57,244.16z M218.68,280.71
		c-0.38,12.81-2.26,25.09-2.28,25.21c-0.05,0.32-0.07,0.63-0.07,0.95c0.11,18.56-14.29,49.73-20.44,63.04l-0.73,1.58
		c-0.98,2.12-2.81,3.75-5.02,4.44c-2.01,0.63-4.25,1.08-6.59,1.36v-12c3.61-0.98,6.27-4.27,6.27-8.2c0-4.69-3.81-8.5-8.5-8.5h-7.84
		c-4.69,0-8.5,3.81-8.5,8.5c0,4.03,2.81,7.4,6.57,8.27v11.84c-2.09-0.29-4.1-0.72-5.91-1.29c-2.19-0.7-4.02-2.3-5-4.38l-0.79-1.68
		c-6.28-13.27-20.98-44.35-21.06-62.92c0-0.3-0.03-0.6-0.07-0.89c-0.02-0.12-1.9-12.41-2.3-25.24c-0.6-19.52,2.61-24.16,3.41-25.01
		c3.66,1.37,12.49,13.24,20.43,29.66c1.11,2.29,3.53,3.63,6.06,3.35c7.34-0.81,15.11-0.81,22.46,0c2.53,0.28,4.95-1.06,6.06-3.35
		c7.93-16.39,16.73-28.25,20.4-29.66C216.05,256.73,219.25,261.57,218.68,280.71z"/>
	<path class="st0" d="M382.43,343.99l-9.37-1.36c1.33-4.83,2.05-9.72,2.05-14.47c0-0.52-0.02-1.04-0.04-1.58
		c1.44-3.63,4.87-12.6,7.3-21.99c2.76-10.64,5.43-25.44-3.23-31.04c-5-3.25-14.37-4.86-38.28,17.22c-6.7-2.06-13.76-3.1-21.05-3.1
		s-14.36,1.04-21.05,3.1c-23.91-22.08-33.29-20.46-38.29-17.22c-8.66,5.6-5.99,20.4-3.23,31.04c2.46,9.47,5.93,18.53,7.31,21.99
		c-0.03,0.53-0.04,1.06-0.04,1.58c0,4.78,0.73,9.69,2.07,14.55l-9.37,1.36c-3.28,0.48-5.55,3.52-5.08,6.8
		c0.43,2.99,3,5.14,5.93,5.14c0.29,0,0.58-0.02,0.87-0.06l12.02-1.74c1.53,3.11,3.31,6.12,5.31,8.99l-7.13,5.34
		c-2.65,1.99-3.19,5.75-1.2,8.4c1.18,1.57,2.98,2.4,4.81,2.4c1.25,0,2.51-0.39,3.59-1.2l7.64-5.73
		c9.57,9.52,22.01,15.89,35.84,15.89c13.85,0,26.31-6.4,35.89-15.95l7.61,5.71c1.08,0.81,2.34,1.2,3.59,1.2
		c1.83,0,3.63-0.83,4.81-2.4c1.99-2.65,1.45-6.41-1.2-8.4l-7.11-5.33c2-2.88,3.78-5.89,5.31-9.01l12.01,1.74
		c0.29,0.04,0.58,0.06,0.87,0.06c2.93,0,5.5-2.15,5.93-5.14C387.98,347.51,385.71,344.47,382.43,343.99z M319.8,376.3
		c-11.9,0-22.64-6.48-30.46-15.67c-0.1-0.12-0.2-0.24-0.3-0.36c-7.76-9.29-12.55-21.26-12.55-32.11c0-0.59,0.04-1.22,0.1-1.87
		c0,0,0,0,0-0.01c0.02-0.21,0.03-0.42,0.03-0.64c0-0.02,0-0.04,0-0.06c0-0.06-0.01-0.13-0.01-0.19c-0.01-0.17-0.02-0.34-0.04-0.51
		c-0.01-0.07-0.02-0.14-0.03-0.21c-0.03-0.17-0.06-0.34-0.1-0.5c-0.02-0.06-0.03-0.12-0.05-0.18c-0.06-0.21-0.13-0.42-0.21-0.62
		c0-0.01-0.01-0.02-0.01-0.03c0-0.01,0-0.01-0.01-0.02c-0.01-0.01-0.01-0.03-0.02-0.04c-7.69-18.6-11.07-35.89-9.13-39.59
		c0.02,0,0.03,0,0.05,0c2.23,0,10.2,3.14,26.04,18.25c1.66,1.58,4.07,2.08,6.22,1.29c6.31-2.33,13.38-3.57,20.46-3.57
		s14.15,1.23,20.46,3.57c2.15,0.79,4.56,0.3,6.22-1.29c15.84-15.11,23.82-18.24,26.04-18.24c0.02,0,0.03,0,0.05,0
		c1.94,3.65-1.24,20.4-9.12,39.59c-0.01,0.01-0.01,0.03-0.02,0.04c0,0.01-0.01,0.02-0.01,0.02c0,0.01-0.01,0.02-0.01,0.04
		c-0.08,0.2-0.15,0.4-0.21,0.61c-0.02,0.06-0.03,0.12-0.04,0.17c-0.04,0.16-0.08,0.33-0.1,0.5c-0.01,0.07-0.02,0.14-0.03,0.21
		c-0.02,0.17-0.03,0.33-0.04,0.5c0,0.06-0.01,0.13-0.01,0.19c0,0.02,0,0.04,0,0.06v0.01c0,0.22,0.01,0.43,0.04,0.65
		c0.07,0.64,0.1,1.27,0.1,1.85c0,10.75-4.7,22.59-12.33,31.84c-0.22,0.22-0.43,0.45-0.63,0.7c-0.05,0.06-0.09,0.13-0.13,0.19
		C342.22,369.94,331.58,376.3,319.8,376.3z"/>
</g>
<path class="st1" d="M442.29,249.4c0.05-0.1,0.09-0.2,0.13-0.31c0.03-0.09,0.06-0.17,0.1-0.26c0.03-0.1,0.07-0.19,0.09-0.29
	c0.03-0.1,0.05-0.2,0.08-0.3c0.02-0.09,0.04-0.18,0.06-0.27c0.02-0.11,0.04-0.22,0.05-0.34c0.01-0.08,0.02-0.16,0.03-0.24
	c0.01-0.12,0.02-0.24,0.02-0.37c0-0.05,0.01-0.11,0.01-0.16v-38.5c0-0.02,0-0.05,0-0.07c0-0.12-0.01-0.23-0.02-0.35
	c-0.01-0.09-0.01-0.17-0.02-0.26c-0.01-0.09-0.03-0.19-0.04-0.28c-0.02-0.11-0.03-0.21-0.05-0.31c-0.02-0.07-0.04-0.14-0.05-0.21
	c-0.03-0.12-0.06-0.24-0.1-0.36c-0.02-0.06-0.05-0.12-0.07-0.18c-0.04-0.12-0.08-0.24-0.13-0.36c-0.03-0.08-0.07-0.15-0.11-0.23
	c-0.05-0.1-0.09-0.19-0.14-0.28c-0.06-0.1-0.12-0.2-0.18-0.3c-0.04-0.06-0.07-0.13-0.12-0.19c-0.07-0.11-0.16-0.22-0.24-0.32
	c-0.04-0.05-0.07-0.09-0.11-0.14c-0.08-0.1-0.17-0.19-0.26-0.28c-0.05-0.05-0.09-0.1-0.14-0.15c-0.08-0.08-0.16-0.15-0.24-0.22
	c-0.07-0.06-0.14-0.12-0.21-0.18c-0.07-0.06-0.14-0.11-0.21-0.16c-0.09-0.07-0.18-0.14-0.28-0.2c-0.02-0.01-0.04-0.03-0.06-0.04
	L253.27,84.53c-1.96-1.25-4.47-1.25-6.44,0L60.02,203.3c-0.02,0.01-0.04,0.03-0.05,0.04c-0.1,0.07-0.2,0.14-0.29,0.21
	c-0.07,0.05-0.14,0.1-0.2,0.15c-0.07,0.06-0.15,0.13-0.22,0.19c-0.08,0.07-0.16,0.14-0.23,0.21c-0.05,0.05-0.1,0.11-0.15,0.16
	c-0.08,0.09-0.17,0.18-0.25,0.27c-0.04,0.05-0.08,0.1-0.11,0.15c-0.08,0.1-0.16,0.2-0.23,0.31c-0.04,0.06-0.08,0.13-0.12,0.2
	c-0.06,0.1-0.12,0.19-0.18,0.29c-0.05,0.1-0.1,0.19-0.14,0.29c-0.04,0.07-0.07,0.14-0.11,0.22c-0.05,0.12-0.09,0.24-0.14,0.36
	c-0.02,0.06-0.05,0.12-0.07,0.18c-0.04,0.12-0.07,0.24-0.1,0.35c-0.02,0.07-0.04,0.14-0.05,0.21c-0.02,0.1-0.04,0.21-0.05,0.31
	c-0.02,0.09-0.03,0.19-0.04,0.28c-0.01,0.08-0.01,0.17-0.02,0.26c-0.01,0.12-0.02,0.23-0.02,0.35c0,0.02,0,0.05,0,0.07v38.5
	c0,0.05,0.01,0.11,0.01,0.16c0,0.12,0.01,0.25,0.02,0.37c0.01,0.08,0.02,0.16,0.03,0.24c0.01,0.11,0.03,0.23,0.05,0.34
	c0.02,0.09,0.04,0.18,0.06,0.27c0.02,0.1,0.05,0.2,0.08,0.3c0.03,0.1,0.06,0.2,0.1,0.29c0.03,0.08,0.06,0.17,0.09,0.25
	c0.04,0.11,0.09,0.21,0.14,0.32c0.03,0.07,0.07,0.15,0.1,0.22c0.06,0.11,0.12,0.22,0.18,0.33c0.03,0.05,0.05,0.09,0.08,0.14
	c0.01,0.02,0.03,0.04,0.04,0.05c0.06,0.1,0.13,0.19,0.2,0.29c0.05,0.07,0.1,0.14,0.15,0.21c0.06,0.07,0.12,0.14,0.18,0.21
	c0.07,0.08,0.14,0.16,0.22,0.24c0.05,0.05,0.1,0.1,0.15,0.14c0.09,0.09,0.18,0.17,0.28,0.25c0.05,0.04,0.1,0.08,0.15,0.11
	c0.1,0.08,0.2,0.16,0.31,0.23c0.07,0.05,0.14,0.09,0.21,0.13c0.09,0.06,0.18,0.12,0.28,0.17c0.1,0.06,0.21,0.11,0.32,0.16
	c0.06,0.03,0.12,0.06,0.19,0.09c0.13,0.06,0.27,0.11,0.4,0.15c0.04,0.02,0.09,0.03,0.13,0.05c0.13,0.04,0.27,0.08,0.41,0.11
	c0.05,0.01,0.1,0.03,0.16,0.04c0.12,0.03,0.24,0.04,0.36,0.06c0.08,0.01,0.15,0.03,0.23,0.04c0.1,0.01,0.2,0.02,0.3,0.02
	c0.1,0.01,0.2,0.01,0.3,0.02c0.03,0,0.05,0,0.08,0c0.07,0,0.13-0.01,0.19-0.01c0.11,0,0.22-0.01,0.32-0.02
	c0.1-0.01,0.19-0.02,0.28-0.03c0.1-0.01,0.2-0.03,0.3-0.05c0.1-0.02,0.2-0.04,0.3-0.07c0.09-0.02,0.18-0.04,0.27-0.07
	c0.11-0.03,0.21-0.07,0.32-0.1c0.08-0.03,0.16-0.06,0.24-0.09c0.11-0.04,0.22-0.09,0.32-0.14c0.07-0.03,0.14-0.07,0.22-0.1
	c0.11-0.06,0.21-0.12,0.32-0.18c0.05-0.03,0.1-0.05,0.15-0.08L250.05,135.2l183.59,116.73c0.03,0.02,0.06,0.03,0.09,0.05
	c0.19,0.12,0.39,0.22,0.59,0.32c0.04,0.02,0.09,0.04,0.13,0.06c0.23,0.1,0.46,0.19,0.7,0.26c0.06,0.02,0.12,0.03,0.18,0.05
	c0.18,0.05,0.37,0.09,0.56,0.12c0.08,0.01,0.15,0.03,0.23,0.04c0.22,0.03,0.44,0.04,0.66,0.05c0.02,0,0.05,0,0.07,0
	c0.02,0,0.04,0,0.06,0c0.21,0,0.42-0.02,0.63-0.04c0.06-0.01,0.13-0.02,0.19-0.03c0.17-0.02,0.34-0.05,0.5-0.09
	c0.06-0.02,0.13-0.03,0.19-0.05c0.17-0.04,0.33-0.1,0.49-0.16c0.06-0.02,0.12-0.04,0.17-0.06c0.19-0.08,0.38-0.16,0.57-0.26
	c0.02-0.01,0.04-0.02,0.06-0.03c0.19-0.11,0.38-0.22,0.56-0.35c0.07-0.05,0.13-0.1,0.2-0.15c0.12-0.09,0.23-0.18,0.34-0.28
	c0.07-0.06,0.13-0.12,0.2-0.18c0.13-0.12,0.25-0.25,0.36-0.38c0.03-0.04,0.07-0.07,0.1-0.11c0.15-0.18,0.29-0.37,0.41-0.56
	c0.01-0.02,0.02-0.03,0.04-0.05c0.03-0.05,0.06-0.1,0.08-0.15c0.06-0.1,0.12-0.2,0.18-0.31
	C442.22,249.55,442.25,249.48,442.29,249.4z M246.83,123.03L69.24,235.94v-24.28L250.05,96.7l180.81,114.96v24.28L253.27,123.03
	C251.3,121.78,248.79,121.78,246.83,123.03z"/>
</svg>
