<?xml version="1.0" encoding="utf-8"?>
<!-- Generator: Adobe Illustrator 24.1.2, SVG Export Plug-In . SVG Version: 6.00 Build 0)  -->
<svg version="1.1" id="Warstwa_1" xmlns="http://www.w3.org/2000/svg" xmlns:xlink="http://www.w3.org/1999/xlink" x="0px" y="0px"
	 viewBox="0 0 430 430" style="enable-background:new 0 0 430 430;" xml:space="preserve">
<style type="text/css">
	.st0{fill:#121331;}
	.st1{fill:#08a88a;}
	.st2{fill:#08a88a;}
</style>
<g>
	<g>
		<path class="st1" d="M220.06,161.9c-3.33-0.87-6.73-1.03-10.14-0.47c-3.41,0.56-7.17-0.25-10.58-2.28
			c-2.87-1.71-6.02-2.86-9.37-3.4c-8.16-1.31-16.58,1.33-22.54,7.06c-2.39,2.3-2.46,6.1-0.17,8.48c2.3,2.39,6.09,2.46,8.48,0.17
			c3.31-3.18,7.79-4.59,12.31-3.86c1.85,0.3,3.58,0.93,5.14,1.86c5.84,3.49,12.48,4.84,18.67,3.82c1.73-0.28,3.46-0.2,5.17,0.25
			c5.56,1.44,9.52,6.84,9.19,12.56c-0.27,4.61-2.89,8.54-7.01,10.51c-5.46,2.61-9.12,7.94-9.77,14.28
			c-0.02,0.17-0.04,0.33-0.07,0.54c-0.42,2.65-1.87,4.95-4.07,6.48c-2.19,1.53-4.86,2.09-7.49,1.57c-4.73-0.93-8.19-5.41-7.87-10.19
			c0.03-0.38,0.07-0.75,0.14-1.12c0.94-5.43-2.41-10.7-7.64-12.14c-0.19-0.06-0.36-0.1-0.5-0.14c-4.21-1.13-7.63-4.01-9.39-7.92
			c-1.36-3.02-4.92-4.37-7.94-3c-3.02,1.36-4.37,4.92-3,7.94c3.15,6.97,9.12,12.17,16.48,14.37c-0.05,0.4-0.09,0.81-0.11,1.22
			c-0.72,10.88,6.81,20.66,17.53,22.77c1.42,0.28,2.85,0.42,4.27,0.42c4.41,0,8.7-1.34,12.4-3.92c4.89-3.41,8.11-8.53,9.04-14.38
			c0.07-0.43,0.13-0.87,0.17-1.28c0.22-2.12,1.35-3.87,3.02-4.67c8-3.83,13.29-11.74,13.81-20.65
			C238.87,175.25,231.22,164.79,220.06,161.9z"/>
		<path class="st1" d="M260.35,146.19c-1.26-3.06-4.77-4.52-7.83-3.26c-1.49,0.62-3.08,0.93-4.72,0.93
			c-6.92,0-12.55-5.63-12.55-12.55c0-6.91,5.63-12.54,12.55-12.54h0.1c3.31,0,6-2.69,6-6s-2.69-6-6-6h-0.1
			c-13.54,0-24.55,11.01-24.55,24.54c0,13.54,11.01,24.55,24.55,24.55c3.22,0,6.35-0.62,9.3-1.83
			C260.15,152.76,261.61,149.25,260.35,146.19z"/>
	</g>
	<path class="st0" d="M260.13,309.62l16.05-54.08c2.16-7.27,2.54-15.06,1.1-22.51L249.89,91.52c0-0.01,0-0.01,0-0.02l-7.31-37.76
		c-0.55-2.82-3.02-4.86-5.89-4.86h-43.38c-2.87,0-5.34,2.04-5.89,4.86l-7.31,37.76c0,0.01,0,0.01,0,0.02l-27.39,141.51
		c-1.44,7.45-1.06,15.23,1.1,22.51l16.05,54.08L154.03,363c-1.28,4.31-0.47,8.85,2.22,12.45c2.69,3.6,6.81,5.67,11.31,5.67h94.89
		c4.5,0,8.62-2.07,11.31-5.67c2.69-3.6,3.5-8.14,2.22-12.45L260.13,309.62z M198.26,60.88h33.48l5,25.83h-43.48L198.26,60.88z
		 M190.94,98.71h48.12l26.44,136.59c0.18,0.93,0.31,1.87,0.41,2.81H164.09c0.1-0.94,0.23-1.88,0.41-2.81L190.94,98.71z
		 M164.79,250.12h100.41c-0.16,0.67-0.33,1.34-0.53,2l-15.28,51.5H180.6l-15.28-51.5C165.13,251.46,164.95,250.79,164.79,250.12z
		 M264.14,368.27c-0.24,0.32-0.77,0.85-1.69,0.85h-94.89c-0.92,0-1.45-0.53-1.69-0.85c-0.24-0.32-0.59-0.98-0.33-1.86l15.07-50.79
		h68.79l15.07,50.79C264.73,367.29,264.37,367.95,264.14,368.27z"/>
</g>
</svg>
