<?xml version="1.0" encoding="utf-8"?>
<!-- Generator: Adobe Illustrator 24.1.2, SVG Export Plug-In . SVG Version: 6.00 Build 0)  -->
<svg version="1.1" id="Warstwa_3" xmlns="http://www.w3.org/2000/svg" xmlns:xlink="http://www.w3.org/1999/xlink" x="0px" y="0px"
	 viewBox="0 0 430 430" style="enable-background:new 0 0 430 430;" xml:space="preserve">
<style type="text/css">
	.st0{fill:#121331;}
	.st1{fill:#08a88a;}
	.st2{fill:none;stroke:#08a88a;stroke-width:12.95;stroke-linecap:round;stroke-linejoin:round;stroke-miterlimit:14.8;}
	.st3{fill:none;}
</style>
<g>
	<path class="st0" d="M305.99,396.95h-181c-8.89,0-17.25-3.47-23.54-9.76s-9.75-14.65-9.74-23.54c0-2.51,0.16-251.08,0.16-251.87
		v-0.27c0-7.21,0.01-13.78,0.02-18.66c0.01-3.48,2.83-6.29,6.3-6.29c0,0,0.01,0,0.01,0c3.48,0.01,6.29,2.83,6.29,6.31
		c-0.01,4.88-0.01,11.45-0.02,18.65l0,0.26c0,0,0,0.01,0,0.01l-0.02,39.35l-0.14,212.52c0,5.52,2.15,10.72,6.06,14.63
		s9.1,6.07,14.63,6.07h181c5.52,0,10.71-2.15,14.61-6.06s6.04-9.1,6.03-14.63l-0.51-250.19c-0.02-9.2-0.04-17.49-0.05-22.59
		c-0.01-3.48,2.8-6.31,6.28-6.32c0.01,0,0.02,0,0.02,0c3.47,0,6.29,2.81,6.3,6.28c0.02,5.11,0.04,13.4,0.05,22.61l0.51,250.19
		c0.02,8.89-3.43,17.26-9.71,23.55S314.88,396.95,305.99,396.95z"/>
	<path class="st1" d="M273.94,319.4c-3.48,0-6.3-2.82-6.3-6.3V157.19c0-3.48,2.82-6.3,6.3-6.3s6.3,2.82,6.3,6.3V313.1
		C280.24,316.58,277.42,319.4,273.94,319.4z M215.53,319.4c-3.48,0-6.3-2.82-6.3-6.3V157.19c0-3.48,2.82-6.3,6.3-6.3
		s6.3,2.82,6.3,6.3V313.1C221.83,316.58,219.01,319.4,215.53,319.4z M156.86,319.4c-3.48,0-6.3-2.82-6.3-6.3V157.19
		c0-3.48,2.82-6.3,6.3-6.3s6.3,2.82,6.3,6.3V313.1C163.16,316.58,160.34,319.4,156.86,319.4z"/>
	<path class="st1" d="M354.41,90.99c-0.01,0-0.01,0-0.02,0L75.58,90.23c-3.48-0.01-6.29-2.84-6.28-6.32
		c0.01-3.47,2.83-6.28,6.3-6.28c0.01,0,0.01,0,0.02,0l278.82,0.76c3.48,0.01,6.29,2.84,6.28,6.32
		C360.7,88.18,357.88,90.99,354.41,90.99z"/>
	<path class="st1" d="M259.34,87.5c-3.48,0-6.3-2.82-6.3-6.3c0-20.95-19.73-35.55-37.44-35.55c-19.2,0-35.68,14.32-38.33,33.31
		c-0.48,3.45-3.67,5.86-7.11,5.37c-3.45-0.48-5.85-3.66-5.37-7.11c3.51-25.18,25.35-44.17,50.81-44.17
		c23.67,0,50.04,19.77,50.04,48.15C265.64,84.68,262.82,87.5,259.34,87.5z"/>
</g>
</svg>
