<?xml version="1.0" encoding="utf-8"?>
<!-- Generator: Adobe Illustrator 24.1.2, SVG Export Plug-In . SVG Version: 6.00 Build 0)  -->
<svg version="1.1" id="Warstwa_1" xmlns="http://www.w3.org/2000/svg" xmlns:xlink="http://www.w3.org/1999/xlink" x="0px" y="0px"
	 viewBox="0 0 430 430" style="enable-background:new 0 0 430 430;" xml:space="preserve">
<style type="text/css">
	.st0{fill:#08a88a;}
	.st1{fill:#121331;}
	.st2{fill:#08a88a;}
	.st3{fill:none;}
	.st4{fill:#08A385;}
	.st5{fill:none;stroke:#121331;stroke-width:12;stroke-linecap:round;stroke-linejoin:round;stroke-miterlimit:10;}
</style>
<g>
	<path class="st0" d="M215,230.43c-34.58,0-62.71-28.13-62.71-62.71s28.13-62.71,62.71-62.71c34.58,0,62.71,28.13,62.71,62.71
		S249.58,230.43,215,230.43z M215,117.02c-27.96,0-50.71,22.75-50.71,50.71s22.75,50.71,50.71,50.71s50.71-22.75,50.71-50.71
		S242.96,117.02,215,117.02z"/>
	<path class="st0" d="M243.36,183.18c-3.31,0-6-2.69-6-6s2.68-6,6-6h0.01c3.31,0,6,2.69,6,6S246.67,183.18,243.36,183.18z"/>
	<path class="st0" d="M233.91,202.08c-3.31,0-6-2.69-6-6s2.68-6,6-6h0.01c3.31,0,6,2.69,6,6S237.23,202.08,233.91,202.08z"/>
	<path class="st0" d="M265.49,198.93c-3.31,0-6-2.69-6-6s2.68-6,6-6h0.01c3.31,0,6,2.69,6,6S268.8,198.93,265.49,198.93z"/>
	<path class="st0" d="M233.92,164.27c-3.31,0-6-2.69-6-6s2.68-6,6-6h0.01c3.31,0,6,2.69,6,6S237.23,164.27,233.92,164.27z"/>
	<path class="st0" d="M224.46,183.18c-3.31,0-6-2.69-6-6s2.68-6,6-6h0.01c3.31,0,6,2.69,6,6S227.77,183.18,224.46,183.18z"/>
	<path class="st0" d="M215,164.27c-3.31,0-6-2.69-6-6s2.68-6,6-6H215c3.31,0,6,2.69,6,6S218.32,164.27,215,164.27z"/>
	<path class="st0" d="M215.01,135.92c-3.31,0-6-2.69-6-6s2.68-6,6-6h0.01c3.31,0,6,2.69,6,6S218.32,135.92,215.01,135.92z"/>
	<path class="st0" d="M205.56,183.18c-3.31,0-6-2.69-6-6s2.68-6,6-6h0.01c3.31,0,6,2.69,6,6S208.87,183.18,205.56,183.18z"/>
	<path class="st0" d="M196.1,202.08c-3.31,0-6-2.69-6-6s2.68-6,6-6h0.01c3.31,0,6,2.69,6,6S199.42,202.08,196.1,202.08z"/>
	<path class="st0" d="M189.8,148.52c-3.31,0-6-2.69-6-6s2.68-6,6-6h0.01c3.31,0,6,2.69,6,6S193.12,148.52,189.8,148.52z"/>
	<path class="st0" d="M177.2,173.73c-3.31,0-6-2.69-6-6s2.68-6,6-6h0.01c3.31,0,6,2.69,6,6S180.52,173.73,177.2,173.73z"/>
	<path class="st0" d="M314.54,303.03c-16.8-4.2-41.46,2.73-64.35,18.1c-11.98,8.04-22,17.4-29.19,26.95v-66.93c0-3.31-2.69-6-6-6
		s-6,2.69-6,6v66.93c-7.19-9.55-17.21-18.91-29.19-26.95c-22.9-15.37-47.55-22.3-64.35-18.1c-2.99,0.75-4.92,3.63-4.48,6.68
		c2.47,17.14,18.23,37.33,41.13,52.7c18.47,12.4,38.09,19.31,53.8,19.31c3.21,0,6.25-0.31,9.09-0.9c2.84,0.59,5.88,0.9,9.09,0.9
		c15.71,0,35.33-6.91,53.8-19.31c0,0,0,0,0,0c22.89-15.37,38.65-35.56,41.13-52.7C319.46,306.66,317.53,303.77,314.54,303.03z
		 M158.8,352.44c-16.83-11.29-29.87-26.1-34.42-38.58c13.27-0.55,31.92,5.94,48.75,17.23c16.83,11.29,29.87,26.1,34.42,38.58
		C194.27,370.21,175.63,363.73,158.8,352.44z M271.21,352.44c-16.83,11.29-35.46,17.78-48.75,17.23
		c4.55-12.49,17.59-27.29,34.42-38.58c16.83-11.29,35.46-17.78,48.75-17.23C301.08,326.34,288.04,341.14,271.21,352.44z"/>
	<path class="st1" d="M215.01,287.14c-1.12,0-2.24-0.31-3.22-0.94c-12.28-7.83-20.88-19.88-24.36-33.61
		c-10.89,9.07-24.92,13.76-39.45,12.88c-2.33-0.14-4.36-1.62-5.22-3.79c-5.34-13.55-5.21-28.35,0.05-41.5
		c-14.13,0.94-28.25-3.51-39.49-12.77c-1.8-1.48-2.58-3.88-1.99-6.14c3.65-14.1,12.46-26,24.44-33.55
		c-11.98-7.55-20.78-19.44-24.44-33.53c-0.59-2.26,0.19-4.65,1.99-6.14c11.24-9.26,25.36-13.71,39.5-12.78
		c-5.26-13.16-5.39-27.95-0.06-41.5c0.85-2.17,2.89-3.65,5.21-3.79c14.53-0.89,28.57,3.8,39.46,12.87
		c3.48-13.73,12.07-25.78,24.34-33.61c1.97-1.25,4.48-1.26,6.45,0c12.28,7.83,20.88,19.88,24.36,33.61
		c10.89-9.07,24.91-13.77,39.45-12.88c2.33,0.14,4.36,1.62,5.22,3.79c5.34,13.55,5.21,28.35-0.05,41.5
		c14.15-0.93,28.25,3.51,39.49,12.77c1.8,1.48,2.58,3.88,1.99,6.14c-3.65,14.1-12.46,26-24.44,33.55
		c11.98,7.55,20.79,19.44,24.44,33.53c0.58,2.26-0.19,4.65-1.99,6.13c-11.23,9.26-25.34,13.72-39.49,12.78
		c5.26,13.16,5.39,27.95,0.06,41.5c-0.85,2.17-2.89,3.65-5.21,3.79c-14.53,0.9-28.57-3.8-39.46-12.87
		c-3.48,13.73-12.07,25.78-24.34,33.61C217.25,286.83,216.13,287.14,215.01,287.14z M191.71,233.43c0.62,0,1.24,0.1,1.85,0.29
		c2.44,0.79,4.11,3.05,4.14,5.62c0.19,13.63,6.59,26.25,17.3,34.48c10.71-8.23,17.1-20.85,17.29-34.48c0.04-2.57,1.7-4.83,4.14-5.62
		c2.44-0.79,5.12,0.05,6.66,2.11c8.17,10.92,20.77,17.37,34.26,17.72c3.83-12.95,1.58-26.91-6.27-38.05
		c-1.48-2.1-1.46-4.91,0.05-6.98c1.51-2.08,4.17-2.97,6.63-2.21c13.03,4.02,27.01,1.84,38.14-5.81
		c-4.52-12.73-14.54-22.71-27.44-27.1c-2.43-0.83-4.06-3.11-4.06-5.68c0-2.57,1.63-4.85,4.07-5.68
		c12.9-4.39,22.92-14.38,27.44-27.11c-11.13-7.64-25.11-9.82-38.14-5.8c-2.45,0.76-5.12-0.13-6.63-2.21
		c-1.51-2.08-1.53-4.89-0.05-6.98c7.86-11.14,10.1-25.11,6.27-38.06c-13.49,0.36-26.09,6.81-34.26,17.73
		c-1.54,2.06-4.21,2.9-6.66,2.11c-2.44-0.79-4.11-3.05-4.14-5.62c-0.19-13.63-6.59-26.25-17.3-34.48
		c-10.71,8.23-17.1,20.85-17.29,34.48c-0.04,2.57-1.7,4.83-4.15,5.62c-2.44,0.8-5.12-0.06-6.66-2.11
		c-8.17-10.92-20.76-17.37-34.26-17.72c-3.83,12.95-1.58,26.91,6.27,38.05c1.48,2.1,1.46,4.91-0.05,6.98
		c-1.51,2.08-4.17,2.97-6.63,2.21c-13.03-4.02-27.01-1.84-38.14,5.81c4.52,12.73,14.55,22.71,27.45,27.1
		c2.43,0.83,4.07,3.11,4.07,5.68s-1.63,4.85-4.07,5.68c-12.9,4.39-22.92,14.38-27.44,27.11c11.13,7.64,25.11,9.82,38.14,5.8
		c2.45-0.76,5.12,0.13,6.63,2.21c1.51,2.08,1.53,4.89,0.05,6.98c-7.86,11.14-10.1,25.11-6.27,38.06
		c13.5-0.36,26.09-6.81,34.26-17.73C188.06,234.29,189.85,233.43,191.71,233.43z"/>
</g>
</svg>
