<?xml version="1.0" encoding="utf-8"?>
<!-- Generator: Adobe Illustrator 24.1.2, SVG Export Plug-In . SVG Version: 6.00 Build 0)  -->
<svg version="1.1" id="Warstwa_3" xmlns="http://www.w3.org/2000/svg" xmlns:xlink="http://www.w3.org/1999/xlink" x="0px" y="0px"
	 viewBox="0 0 430 430" style="enable-background:new 0 0 430 430;" xml:space="preserve">
<style type="text/css">
	.st0{fill:#08a88a;}
	.st1{fill:#121331;}
	.st2{fill:none;}
	.st3{fill-opacity:0;}
</style>
<g>
	<path class="st1" d="M215,401.72c-102.96,0-186.72-83.76-186.72-186.72S112.04,28.28,215,28.28S401.72,112.04,401.72,215
		S317.96,401.72,215,401.72z M215,354.6c3.71,0,6.72,3.01,6.72,6.72v26.83c90.21-3.46,162.97-76.22,166.43-166.43h-26.83
		c-3.71,0-6.72-3.01-6.72-6.72s3.01-6.72,6.72-6.72h26.83c-3.46-90.21-76.22-162.97-166.43-166.43v26.82c0,3.71-3.01,6.72-6.72,6.72
		s-6.72-3.01-6.72-6.72V41.85c-90.21,3.46-162.97,76.22-166.43,166.43h26.83c3.71,0,6.72,3.01,6.72,6.72s-3.01,6.72-6.72,6.72H41.85
		c3.46,90.21,76.22,162.97,166.43,166.43v-26.83C208.28,357.61,211.29,354.6,215,354.6z"/>
	<path class="st0" d="M215,269.24c-3.71,0-6.72-3.01-6.72-6.72v-40.8h-40.76c-3.71,0-6.72-3.01-6.72-6.72s3.01-6.72,6.72-6.72h40.76
		V167.5c0-3.71,3.01-6.72,6.72-6.72s6.72,3.01,6.72,6.72v40.78h40.8c3.71,0,6.72,3.01,6.72,6.72s-3.01,6.72-6.72,6.72h-40.8v40.8
		C221.72,266.23,218.71,269.24,215,269.24z"/>
</g>
</svg>
