<?xml version="1.0" encoding="utf-8"?>
<!-- Generator: Adobe Illustrator 24.1.2, SVG Export Plug-In . SVG Version: 6.00 Build 0)  -->
<svg version="1.1" id="Warstwa_1" xmlns="http://www.w3.org/2000/svg" xmlns:xlink="http://www.w3.org/1999/xlink" x="0px" y="0px"
	 viewBox="0 0 430 430" style="enable-background:new 0 0 430 430;" xml:space="preserve">
<style type="text/css">
	.st0{fill:#08a88a;}
	.st1{fill:#121331;}
	.st2{fill:none;stroke:#121331;stroke-width:12;stroke-linecap:round;stroke-linejoin:round;stroke-miterlimit:10;}
	.st3{fill:#08a88a;}
	.st4{fill:#08A284;}
</style>
<g>
	<path class="st1" d="M237.35,153.52c-2.44,0-4.74-1.5-5.63-3.93c-2.13-5.81-19.42-54.97-1.38-76.31l-4.2-10.73l-71.42,14.67
		c-29.38,6.03-50.7,35.6-50.7,70.3c0,3.31-2.69,6-6,6s-6-2.69-6-6c0-40.37,25.35-74.88,60.28-82.06l76.37-15.69
		c2.85-0.59,5.73,0.97,6.79,3.69l7.46,19.09c0.94,2.41,0.23,5.15-1.76,6.8c-14.04,11.64-3.13,52.65,1.8,66.1
		c1.14,3.11-0.46,6.56-3.57,7.7C238.73,153.4,238.04,153.52,237.35,153.52z"/>
	<path class="st0" d="M243.15,193.54c-3.31,0-6-2.69-6-6v-34.03H98.22v34.03c0,3.31-2.69,6-6,6s-6-2.69-6-6v-40.03
		c0-3.31,2.69-6,6-6h150.93c3.31,0,6,2.69,6,6v40.03C249.15,190.86,246.47,193.54,243.15,193.54z"/>
	<path class="st1" d="M262.63,246.75c0-0.03,0-0.05,0-0.08v-59.12c0-3.31-2.69-6-6-6H78.74c-3.31,0-6,2.69-6,6V357.8
		c0,12.44,10.12,22.56,22.56,22.56h144.78c3.31,0,6-2.69,6-6c0-3.31-2.69-6-6-6H95.3c-5.82,0-10.56-4.74-10.56-10.56v-36.65h144.41
		c3.31,0,6-2.69,6-6s-2.69-6-6-6H84.74v-56.4h165.89v26.4c0,3.31,2.69,6,6,6s6-2.69,6-6v-32.32
		C262.63,246.8,262.63,246.77,262.63,246.75z M84.74,240.75v-47.2h165.89v47.2H84.74z"/>
	<path class="st0" d="M334.09,317.12c3.55-4.61,5.67-10.38,5.67-16.63c0-14.15-10.82-25.83-24.63-27.18
		c2-14.1-5.33-35.38-10.01-38.81c-2.12-1.55-4.89-1.69-7.07-0.35c-3.91,2.4-3.14,7.1-2.81,9.11c0.56,3.39-2.99,11.14-14.59,22.7
		c-4.63,4.62-10.83,7.17-17.47,7.18l-18.58,0.04c-15.06,0-27.31,12.25-27.31,27.31c0,6.25,2.12,12.02,5.67,16.63
		c-13.37,3.94-23.17,16.32-23.17,30.96c0,17.8,14.48,32.28,32.28,32.28h92.91c17.8,0,32.27-14.48,32.27-32.28
		C357.26,333.44,347.47,321.06,334.09,317.12z M324.98,368.35h-92.91c-11.18,0-20.28-9.1-20.28-20.28s9.1-20.27,20.28-20.27h12.54
		c3.31,0,6-2.69,6-6s-2.69-6-6-6c-8.44,0-15.31-6.87-15.31-15.31c0-8.44,6.87-15.31,15.32-15.31l18.59-0.04
		c9.82-0.02,19.02-3.81,25.91-10.68c5.85-5.82,10.26-11.15,13.28-16.04c1.08,5.1,1.6,10.53,0.59,14.62
		c-0.73,2.95-0.08,6.01,1.79,8.4c1.86,2.38,4.66,3.74,7.68,3.74c8.44,0,15.31,6.87,15.31,15.31c0,8.44-6.87,15.31-15.31,15.31
		c-3.31,0-6,2.69-6,6s2.69,6,6,6h12.54c11.18,0,20.27,9.1,20.27,20.27S336.16,368.35,324.98,368.35z"/>
</g>
</svg>
