<?xml version="1.0" encoding="utf-8"?>
<!-- Generator: Adobe Illustrator 24.1.2, SVG Export Plug-In . SVG Version: 6.00 Build 0)  -->
<svg version="1.1" id="Warstwa_1" xmlns="http://www.w3.org/2000/svg" xmlns:xlink="http://www.w3.org/1999/xlink" x="0px" y="0px"
	 viewBox="0 0 430 430" style="enable-background:new 0 0 430 430;" xml:space="preserve">
<style type="text/css">
	.st0{fill:#08a88a;}
	.st1{fill:#121331;}
	.st2{fill:none;stroke:#121331;stroke-width:12;stroke-linecap:round;stroke-linejoin:round;stroke-miterlimit:10;}
	.st3{fill:#08a88a;}
	.st4{fill:#08A284;}
</style>
<g>
	<path class="st1" d="M181.73,274.04h-0.01c-3.31,0-6-2.69-6-6s2.69-6,6-6s6.01,2.69,6.01,6S185.04,274.04,181.73,274.04z"/>
	<path class="st1" d="M400.38,302.85c-13.84-22.97-36.18-40.21-62.9-48.56c-3.16-0.99-6.53,0.77-7.52,3.94
		c-0.99,3.16,0.77,6.53,3.94,7.52c22.53,7.04,41.56,21.1,53.99,39.81c-20.11,24.21-51.53,37.51-84.92,35.72
		c-34.13-1.83-64.79-19.3-82.01-46.73c-1.31-2.08-3.68-3.08-5.96-2.74c-2.28-0.34-4.65,0.66-5.96,2.74
		c-17.22,27.43-47.88,44.9-82.01,46.73c-33.41,1.79-64.81-11.51-84.92-35.72c12.4-18.65,31.34-32.69,53.78-39.75
		c2.55-0.69,4.42-3.02,4.42-5.79c0-3.31-2.69-6-6-6c-0.61,0-1.21,0.09-1.79,0.27c-26.71,8.35-49.05,25.59-62.89,48.56
		c-1.27,2.1-1.13,4.77,0.36,6.73c21.08,27.76,54.76,43.86,91.09,43.86c2.19,0,4.39-0.06,6.6-0.18c35.4-1.9,67.5-18.99,87.33-46.15
		c19.83,27.15,51.92,44.25,87.33,46.15c2.21,0.12,4.4,0.18,6.59,0.18c36.33,0,70.02-16.11,91.09-43.86
		C401.5,307.62,401.65,304.95,400.38,302.85z"/>
	<path class="st1" d="M248.26,274.04c-1.54,0-3.07-0.58-4.24-1.75c-2.34-2.34-2.35-6.14,0-8.48l0.01-0.01
		c1.13-1.13,2.65-1.76,4.24-1.76c3.31,0,6,2.69,6,6c0,3.07-2.3,5.6-5.28,5.96C248.75,274.02,248.51,274.04,248.26,274.04z"/>
	<path class="st0" d="M367.23,165.77c-0.38-2.27-2.02-4.13-4.23-4.78c-30.59-8.97-64.12-5.44-92.01,9.7
		c-2.91,1.58-3.99,5.22-2.41,8.14c1.58,2.91,5.22,3.99,8.14,2.41c24.01-13.03,52.68-16.52,79.24-9.74
		c3.98,30.51-4.97,61.16-24.84,84.65c-3.38,4.01-7.12,7.83-11.1,11.36c-27.67,24.51-65.54,33.34-101.28,23.61
		c-1.28-0.35-2.57-0.25-3.73,0.19c-1.15-0.44-2.45-0.54-3.73-0.19c-35.73,9.73-73.6,0.9-101.29-23.61
		c-3.96-3.5-7.69-7.32-11.09-11.35c-0.06-0.08-0.13-0.15-0.2-0.22c-19.73-23.45-28.61-54.01-24.65-84.42
		c26.56-6.78,55.23-3.3,79.24,9.73c2.92,1.58,6.55,0.5,8.14-2.41c1.58-2.91,0.5-6.55-2.41-8.14C131.13,155.56,97.59,152.03,67,161
		c-2.21,0.65-3.85,2.5-4.23,4.78c-5.83,35.21,3.99,70.97,26.95,98.11c0.06,0.08,0.13,0.15,0.2,0.22c3.73,4.4,7.8,8.56,12.12,12.38
		c22.5,19.92,51.06,30.51,80.31,30.51c10.69,0,21.47-1.41,32.09-4.3c0.2-0.05,0.39-0.12,0.57-0.19c0.19,0.07,0.38,0.13,0.57,0.19
		c10.62,2.89,21.4,4.3,32.09,4.3c29.25,0,57.8-10.59,80.29-30.51c4.42-3.91,8.56-8.15,12.31-12.6
		C363.23,236.75,373.06,200.99,367.23,165.77z"/>
	<path class="st1" d="M215,304.3c-1.12,0-2.23-0.31-3.21-0.93l-0.23-0.14c-0.23-0.14-0.45-0.29-0.68-0.43
		c-0.46-0.29-0.91-0.59-1.36-0.89c-12.39-8.14-23.29-18.23-32.36-29.96c-0.07-0.08-0.13-0.16-0.19-0.24
		c-18.08-23.47-27.64-51.57-27.64-81.26c0-5.04,0.29-10.13,0.86-15.15c4.57-40.42,27.03-76.07,61.62-97.8
		c1.95-1.23,4.43-1.23,6.38,0c34.59,21.73,57.05,57.38,61.62,97.81c0.57,5.01,0.86,10.11,0.86,15.14c0,29.7-9.56,57.8-27.64,81.26
		c-0.07,0.09-0.13,0.17-0.2,0.25c-9.07,11.73-19.96,21.81-32.39,29.97c-0.41,0.28-0.86,0.58-1.32,0.87
		c-0.22,0.15-0.45,0.29-0.68,0.43l-0.23,0.14C217.23,303.99,216.12,304.3,215,304.3z M186.3,264.14c0.06,0.08,0.13,0.15,0.19,0.23
		c8.01,10.41,17.6,19.41,28.51,26.75c10.94-7.36,20.51-16.35,28.51-26.75c0.06-0.08,0.13-0.17,0.2-0.25
		c16.33-21.3,24.96-46.78,24.96-73.7c0-4.59-0.26-9.23-0.78-13.79c0,0,0,0,0,0c-4.01-35.52-23.21-66.99-52.89-86.92
		c-29.67,19.93-48.88,51.4-52.89,86.92c-0.52,4.57-0.78,9.21-0.78,13.8C161.33,217.36,169.96,242.84,186.3,264.14z M248.28,268.04
		L248.28,268.04L248.28,268.04z"/>
</g>
</svg>
