<?xml version="1.0" encoding="utf-8"?>
<!-- Generator: Adobe Illustrator 25.0.1, SVG Export Plug-In . SVG Version: 6.00 Build 0)  -->
<svg version="1.1" id="Layer_1" xmlns="http://www.w3.org/2000/svg" xmlns:xlink="http://www.w3.org/1999/xlink" x="0px" y="0px"
	 viewBox="0 0 430 430" style="enable-background:new 0 0 430 430;" xml:space="preserve">
<style type="text/css">
	.st0{fill:#08a88a;}
	.st1{fill:#121331;}
</style>
<path class="st0" d="M333.9,358.7c-1.5,0-3.1-0.6-4.2-1.8l-33.8-33.8c-2.3-2.3-2.3-6.1,0-8.5c2.3-2.3,6.1-2.3,8.5,0l33.8,33.8
	c2.3,2.3,2.3,6.1,0,8.5C337,358.1,335.5,358.7,333.9,358.7z"/>
<path class="st0" d="M97.9,358.7c-1.5,0-3.1-0.6-4.2-1.8c-2.3-2.3-2.3-6.1,0-8.5l33.8-33.8c2.3-2.3,6.1-2.3,8.5,0
	c2.3,2.3,2.3,6.1,0,8.5l-33.8,33.8C101,358.1,99.5,358.7,97.9,358.7z"/>
<path class="st1" d="M216.1,358.8c-70.5,0-127.9-57.4-127.9-127.9c0-70.5,57.4-127.9,127.9-127.9S344,160.3,344,230.9
	C344,301.4,286.6,358.8,216.1,358.8z M216.1,115c-63.9,0-115.9,52-115.9,115.9c0,63.9,52,115.9,115.9,115.9S332,294.8,332,230.9
	C332,167,280,115,216.1,115z"/>
<path class="st0" d="M214.2,241.6c-0.8,0-1.6-0.1-2.3-0.5c-2.2-0.9-3.7-3.1-3.7-5.5v-97.9c0-3.3,2.7-6,6-6c3.3,0,6,2.7,6,6v83.4
	l28.2-28.2c2.3-2.3,6.1-2.3,8.5,0c2.3,2.3,2.3,6.1,0,8.5l-38.4,38.4C217.3,241,215.8,241.6,214.2,241.6z"/>
<path class="st0" d="M79,168.4c-1.5,0-3.1-0.6-4.2-1.8c-10.4-10.4-16.4-24.8-16.4-39.5c0-30.8,25.1-55.9,55.9-55.9
	c14.7,0,29.1,6,39.5,16.3c1.1,1.1,1.8,2.7,1.8,4.2s-0.6,3.1-1.8,4.2l-35.3,35.3c0,0,0,0,0,0l-35.3,35.3
	C82.1,167.8,80.5,168.4,79,168.4z M114.3,83.2c-24.2,0-43.9,19.7-43.9,43.9c0,9.5,3.2,18.9,8.9,26.5l30.7-30.7l30.7-30.7
	C133.2,86.4,123.8,83.2,114.3,83.2z M114.3,127.1L114.3,127.1L114.3,127.1z"/>
<path class="st0" d="M353,168.4c-1.6,0-3.1-0.6-4.2-1.8l-35.3-35.3c0,0,0,0,0,0l-35.3-35.3c-1.1-1.1-1.8-2.7-1.8-4.2
	s0.6-3.1,1.8-4.2c10.4-10.4,24.8-16.3,39.5-16.3c30.8,0,55.9,25.1,55.9,55.9c0,14.7-6,29.1-16.4,39.5
	C356.1,167.7,354.6,168.4,353,168.4C353,168.4,353,168.4,353,168.4z M322,122.9l30.7,30.7c5.7-7.6,8.9-16.9,8.9-26.5
	c0-24.2-19.7-43.9-43.9-43.9c-9.5,0-18.9,3.2-26.5,8.9L322,122.9z"/>
</svg>
