<?xml version="1.0" encoding="utf-8"?>
<!-- Generator: Adobe Illustrator 24.1.2, SVG Export Plug-In . SVG Version: 6.00 Build 0)  -->
<svg version="1.1" id="Warstwa_1" xmlns="http://www.w3.org/2000/svg" xmlns:xlink="http://www.w3.org/1999/xlink" x="0px" y="0px"
	 viewBox="0 0 430 430" style="enable-background:new 0 0 430 430;" xml:space="preserve">
<style type="text/css">
	.st0{fill:#121331;}
	.st1{fill:#08a88a;}
	.st2{fill:#08a88a;}
	.st3{fill:none;}
	.st4{fill:#08A385;}
	.st5{fill:none;stroke:#08A385;stroke-width:12;stroke-linecap:round;stroke-linejoin:round;stroke-miterlimit:10;}
	.st6{fill:none;stroke:#121331;stroke-width:12;stroke-linecap:round;stroke-linejoin:round;stroke-miterlimit:10;}
</style>
<g>
	<g>
		<path class="st1" d="M364.32,214.49h-35.35l-38.77-31.61c-2.57-2.1-6.35-1.71-8.44,0.86c-2.09,2.57-1.71,6.35,0.86,8.44l3.33,2.71
			l-35.96,44.24c-2.09,2.57-1.7,6.35,0.87,8.44c1.11,0.9,2.45,1.34,3.78,1.34c1.74,0,3.47-0.76,4.66-2.22l35.95-44.23l27.8,22.67
			c1.07,0.87,2.41,1.35,3.79,1.35h37.49c3.31,0,6-2.69,6-6S367.63,214.49,364.32,214.49z"/>
		<path class="st1" d="M335.22,196.15c1.04,0.8,2.32,1.23,3.64,1.23h25.46c3.31,0,6-2.69,6-6s-2.69-6-6-6h-23.44l-61.03-46.49
			c-1.09-1.12-2.61-1.82-4.3-1.82h-74.98c-1.75,0-3.41,0.76-4.55,2.09l-57.04,66.49c-1.04,1.21-1.55,2.78-1.43,4.37
			c0.12,1.59,0.88,3.06,2.09,4.1l2.82,2.41c5.56,4.74,12.44,7.06,19.29,7.06c8.27,0,16.51-3.39,22.35-9.99l27.14-30.65h19.64
			l-24.65,26.99c-2.23,2.45-2.06,6.24,0.38,8.48c1.15,1.05,2.6,1.57,4.04,1.57c1.63,0,3.25-0.66,4.43-1.95l61.08-66.87
			L335.22,196.15z M208.54,170.95c-1.72,0-3.35,0.74-4.49,2.02l-28.93,32.67c-5.86,6.63-15.76,7.83-23.01,3.13l51.23-59.71h58.5
			l-19.99,21.88H208.54z"/>
	</g>
	<path class="st0" d="M316.57,151.29c-1.19,0-2.39-0.35-3.43-1.08l-16.15-11.29c-4.92-3.44-8.2-8.58-9.25-14.49
		c-1.05-5.91,0.27-11.87,3.71-16.78l14.48-20.71c7.1-10.15,21.13-12.63,31.27-5.54l2.66,1.86c4.92,3.44,8.2,8.58,9.25,14.49
		c1.05,5.91-0.27,11.87-3.71,16.78l-23.91,34.2C320.32,150.4,318.46,151.29,316.57,151.29z M324.35,89.34
		c-3.3,0-6.55,1.56-8.58,4.46l-14.48,20.71c-1.6,2.29-2.21,5.07-1.73,7.82c0.49,2.75,2.02,5.15,4.31,6.75l11.23,7.85l20.48-29.28
		c3.3-4.73,2.15-11.26-2.58-14.56l-2.66-1.86C328.51,89.95,326.42,89.34,324.35,89.34z"/>
	<path class="st0" d="M364.32,48.88H123.58c-3.31,0-6,2.69-6,6v222.77h-13.52c-24.47,0-44.37,19.91-44.37,44.37c0,3.31,2.69,6,6,6
		h51.89v46.88c0,3.31,2.69,6,6,6h145.58c0.51,0.14,1.04,0.22,1.59,0.22h53.28c0.55,0,1.09-0.08,1.6-0.22h38.69c3.31,0,6-2.69,6-6
		V54.88C370.32,51.57,367.63,48.88,364.32,48.88z M103.14,289.67v26.35h-30.9C75.01,301.32,87.75,290.1,103.14,289.67z
		 M123.58,316.02c-0.01,0-0.01,0-0.02,0h-8.42v-26.37h8.42c0.01,0,0.01,0,0.02,0s0.01,0,0.02,0h36.56c1.92,0,3.73-0.92,4.86-2.48
		l47.13-65.02l32.89,21.64l-26.66,25.48c-0.02,0.02-0.03,0.03-0.05,0.05l-40.41,38.62c-5.45,5.21-12.61,8.08-20.15,8.08H123.6
		C123.59,316.02,123.58,316.02,123.58,316.02z M264.74,368.9H129.58v-40.88h28.19c10.64,0,20.74-4.05,28.44-11.4l37.15-35.51
		l41.38,23.61V368.9z M273.72,296.03l-41.31-23.57l22.51-21.52l32.88,25.53c7.17,5.56,11.27,13.96,11.27,23.03v42.71h-22.33v-40.97
		C276.74,299.08,275.59,297.09,273.72,296.03z M276.74,368.9v-14.7h25.22l10.35,14.7H276.74z M358.32,368.9h-31.33l-15.91-22.6
		v-46.8c0-12.8-5.8-24.65-15.92-32.51l-35.9-27.87c-0.38-0.46-0.82-0.87-1.33-1.21l-43.98-28.93c-2.68-1.76-6.27-1.11-8.16,1.49
		l-48.7,67.18h-27.52V60.88h228.74V368.9z"/>
</g>
</svg>
