<?xml version="1.0" encoding="utf-8"?>
<!-- Generator: Adobe Illustrator 26.0.1, SVG Export Plug-In . SVG Version: 6.00 Build 0)  -->
<svg version="1.1" id="Warstwa_1" xmlns="http://www.w3.org/2000/svg" xmlns:xlink="http://www.w3.org/1999/xlink" x="0px" y="0px"
	 viewBox="0 0 500 500" style="enable-background:new 0 0 500 500;" xml:space="preserve">
<style type="text/css">
	.st0{fill:#121331;}
	.st1{fill:#08a88a;}
	.st2{fill:#1D1D1B;}
	.st3{fill:#08a88a;}
	.st4{fill:none;stroke:#08a88a;stroke-width:12;stroke-linecap:round;stroke-linejoin:round;stroke-miterlimit:10;}
</style>
<path class="st1" d="M236.66,162.26h-40.03c-3.31,0-6-2.69-6-6v-30.76c0-8.23,6.73-14.92,15-14.92h22.03c8.27,0,15,6.69,15,14.92
	v30.76C242.66,159.57,239.97,162.26,236.66,162.26z M202.63,150.26h28.03v-24.76c0-1.61-1.35-2.92-3-2.92h-22.03
	c-1.65,0-3,1.31-3,2.92V150.26z"/>
<g>
	<path class="st2" d="M344.79,250.16H114.43c-1.9,0-3.69-0.9-4.82-2.43c-1.13-1.53-1.47-3.5-0.92-5.32l23.03-75.54
		c2.58-9.79,12.96-16.61,25.3-16.61h114.52c9.5,0,18.19,4.18,22.7,10.91l55.48,79.56c1.28,1.83,1.43,4.23,0.4,6.21
		C349.07,248.92,347.02,250.16,344.79,250.16z M122.53,238.16h210.76l-48.94-70.18c-0.02-0.04-0.05-0.07-0.07-0.11
		c-2.27-3.41-7.27-5.62-12.75-5.62H157.02c-6.69,0-12.59,3.32-13.71,7.72c-0.02,0.09-0.05,0.18-0.08,0.27L122.53,238.16z"/>
	<path class="st3" d="M429.16,308.81h-32.21c-12.64,0-22.92-10.28-22.92-22.92c0-6.13,2.38-11.89,6.71-16.21
		c4.33-4.33,10.09-6.72,16.21-6.72h14.85c3.31,0,6,2.69,6,6s-2.69,6-6,6h-14.85c-2.92,0-5.66,1.14-7.73,3.21
		c-2.06,2.06-3.19,4.8-3.19,7.73c0,6.02,4.9,10.92,10.92,10.92h32.21c3.31,0,6,2.69,6,6S432.48,308.81,429.16,308.81z"/>
	<path class="st3" d="M90.61,306.87H64.03c-3.31,0-6-2.69-6-6s2.69-6,6-6h26.57c3.31,0,6,2.69,6,6S93.92,306.87,90.61,306.87z"/>
	<path class="st2" d="M231.61,250.16c-3.31,0-6-2.69-6-6v-59.88c0-3.31,2.69-6,6-6s6,2.69,6,6v59.88
		C237.61,247.47,234.92,250.16,231.61,250.16z"/>
	<path class="st0" d="M311.36,344.54H182.17c-3.31,0-6-2.69-6-6s2.69-6,6-6h129.19c3.31,0,6,2.69,6,6S314.67,344.54,311.36,344.54z"
		/>
	<path class="st0" d="M430.97,344.53h-55.72c-3.31,0-6-2.69-6-6s2.69-6,6-6h49.72v-13.61c0-37.91-30.85-68.75-68.76-68.75H116.45
		c-25.59,0-46.42,20.82-46.42,46.42v35.95h48.27c3.31,0,6,2.69,6,6s-2.69,6-6,6H64.03c-3.31,0-6-2.69-6-6v-41.95
		c0-32.21,26.21-58.42,58.42-58.42H356.2c44.53,0,80.76,36.23,80.76,80.75v19.61C436.97,341.84,434.28,344.53,430.97,344.53z"/>
	<path class="st0" d="M150.24,376.48c-20.92,0-37.95-17.02-37.95-37.95c0-20.92,17.02-37.95,37.95-37.95
		c20.92,0,37.95,17.02,37.95,37.95C188.18,359.46,171.16,376.48,150.24,376.48z M150.24,312.58c-14.31,0-25.95,11.64-25.95,25.95
		s11.64,25.95,25.95,25.95s25.95-11.64,25.95-25.95S164.54,312.58,150.24,312.58z"/>
	<path class="st0" d="M343.3,376.48c-20.92,0-37.95-17.02-37.95-37.95c0-20.92,17.02-37.95,37.95-37.95s37.95,17.02,37.95,37.95
		C381.25,359.46,364.22,376.48,343.3,376.48z M343.3,312.58c-14.31,0-25.95,11.64-25.95,25.95s11.64,25.95,25.95,25.95
		s25.95-11.64,25.95-25.95S357.61,312.58,343.3,312.58z"/>
	<path class="st0" d="M150.24,344.53h-0.01c-3.31,0-6-2.69-6-6s2.69-6,6-6s6.01,2.69,6.01,6S153.56,344.53,150.24,344.53z"/>
	<path class="st0" d="M343.31,344.53h-0.01c-3.31,0-6-2.69-6-6s2.69-6,6-6s6.01,2.69,6.01,6S346.62,344.53,343.31,344.53z"/>
	<path class="st2" d="M148.6,250.17c-0.49,0-0.99-0.06-1.49-0.19c-3.21-0.82-5.15-4.09-4.32-7.3l15.34-59.88
		c0.68-2.65,3.07-4.51,5.81-4.51h139.43c3.31,0,6,2.69,6,6s-2.69,6-6,6H168.6l-14.19,55.37
		C153.72,248.36,151.28,250.17,148.6,250.17z"/>
</g>
<path class="st1" d="M143.72,141.71c-2.07,0-4.09-1.08-5.2-3c-1.66-2.87-0.67-6.54,2.2-8.2l18.37-10.61c2.87-1.65,6.54-0.67,8.2,2.2
	c1.66,2.87,0.67,6.54-2.2,8.2l-18.37,10.61C145.77,141.45,144.74,141.71,143.72,141.71z"/>
<path class="st1" d="M162.08,107c-1.02,0-2.05-0.26-2.99-0.8l-18.37-10.61c-2.87-1.66-3.85-5.33-2.2-8.2
	c1.66-2.87,5.33-3.85,8.2-2.2l18.37,10.61c2.87,1.66,3.85,5.33,2.2,8.2C166.17,105.92,164.15,107,162.08,107z"/>
<path class="st3" d="M252.98,320.58c-0.96,0-1.91-0.23-2.79-0.69l-13.53-7.11l-13.53,7.11c-2.02,1.06-4.47,0.88-6.32-0.46
	c-1.85-1.34-2.77-3.62-2.39-5.87L217,298.5l-10.95-10.67c-1.64-1.59-2.22-3.98-1.52-6.15c0.71-2.17,2.58-3.76,4.84-4.08l15.13-2.2
	l6.76-13.71c1.01-2.05,3.1-3.34,5.38-3.34s4.37,1.3,5.38,3.34l6.76,13.71l15.13,2.2c2.26,0.33,4.14,1.91,4.84,4.08
	c0.71,2.17,0.12,4.56-1.52,6.15l-10.95,10.67l2.58,15.07c0.39,2.25-0.54,4.53-2.39,5.87C255.46,320.19,254.22,320.58,252.98,320.58z
	 M236.66,300c0.96,0,1.92,0.23,2.79,0.69l5.56,2.92l-1.06-6.19c-0.33-1.95,0.31-3.93,1.73-5.31l4.5-4.39l-6.22-0.9
	c-1.95-0.28-3.64-1.51-4.52-3.28l-2.78-5.63l-2.78,5.63c-0.87,1.77-2.56,3-4.52,3.28l-6.22,0.9l4.5,4.39
	c1.42,1.38,2.06,3.37,1.73,5.31l-1.06,6.19l5.56-2.92C234.74,300.23,235.7,300,236.66,300z"/>
<path class="st1" d="M290.13,141.09c-1.02,0-2.05-0.26-2.99-0.8l-18.37-10.61c-2.87-1.66-3.85-5.33-2.2-8.2
	c1.66-2.87,5.33-3.85,8.2-2.2l18.37,10.61c2.87,1.66,3.85,5.33,2.2,8.2C294.22,140.02,292.21,141.09,290.13,141.09z"/>
<path class="st1" d="M271.78,106.38c-2.07,0-4.09-1.08-5.2-3c-1.66-2.87-0.67-6.54,2.2-8.2l18.37-10.61c2.87-1.66,6.54-0.67,8.2,2.2
	c1.66,2.87,0.67,6.54-2.2,8.2l-18.37,10.61C273.83,106.12,272.79,106.38,271.78,106.38z"/>
</svg>
