<?xml version="1.0" encoding="utf-8"?>
<!-- Generator: Adobe Illustrator 24.1.2, SVG Export Plug-In . SVG Version: 6.00 Build 0)  -->
<svg version="1.1" id="Warstwa_3" xmlns="http://www.w3.org/2000/svg" xmlns:xlink="http://www.w3.org/1999/xlink" x="0px" y="0px"
	 viewBox="0 0 430 430" style="enable-background:new 0 0 430 430;" xml:space="preserve">
<style type="text/css">
	.st0{fill:#08a88a;}
	.st1{fill:#121331;}
	.st2{fill:#08a88a;fill-opacity:0;}
	.st3{fill:none;}
</style>
<g>
	<path class="st1" d="M393.5,390.8h-357c-3.48,0-6.3-2.82-6.3-6.3v-31c0-3.48,2.82-6.3,6.3-6.3h357c3.48,0,6.3,2.82,6.3,6.3v31
		C399.8,387.98,396.98,390.8,393.5,390.8z M42.8,378.2h344.4v-18.4H42.8V378.2z"/>
	<path class="st0" d="M347.9,304.3H321c-3.48,0-6.3-2.82-6.3-6.3V145.5c0-3.48,2.82-6.3,6.3-6.3h27.1c1.67,0,3.28,0.66,4.46,1.85
		c1.18,1.18,1.84,2.79,1.84,4.46l-0.2,152.5C354.2,301.48,351.38,304.3,347.9,304.3z M327.3,291.7h14.31l0.18-139.9H327.3V291.7z
		 M288.4,304.3h-26.9c-3.48,0-6.3-2.82-6.3-6.3V145.5c0-3.48,2.82-6.3,6.3-6.3h27.1c1.67,0,3.28,0.66,4.46,1.85
		c1.18,1.18,1.84,2.79,1.84,4.46l-0.2,152.5C294.7,301.48,291.88,304.3,288.4,304.3z M267.8,291.7h14.31l0.18-139.9H267.8V291.7z
		 M228.9,304.3H202c-3.48,0-6.3-2.82-6.3-6.3V145.5c0-3.48,2.82-6.3,6.3-6.3h27.1c1.67,0,3.28,0.66,4.46,1.85
		c1.18,1.18,1.84,2.79,1.84,4.46l-0.2,152.5C235.2,301.48,232.38,304.3,228.9,304.3z M208.3,291.7h14.31l0.18-139.9H208.3V291.7z
		 M170.4,304.3h-26.9c-3.48,0-6.3-2.82-6.3-6.3V145.5c0-3.48,2.82-6.3,6.3-6.3h27.1c1.67,0,3.28,0.66,4.46,1.85
		c1.18,1.18,1.84,2.79,1.84,4.46l-0.2,152.5C176.7,301.48,173.88,304.3,170.4,304.3z M149.8,291.7h14.31l0.18-139.9H149.8V291.7z
		 M110.9,304.3H84c-3.48,0-6.3-2.82-6.3-6.3V145.5c0-3.48,2.82-6.3,6.3-6.3h27.1c1.67,0,3.28,0.66,4.46,1.85
		c1.18,1.18,1.84,2.79,1.84,4.46l-0.2,152.5C117.2,301.48,114.38,304.3,110.9,304.3z M90.3,291.7h14.31l0.18-139.9H90.3V291.7z"/>
	<path class="st1" d="M363.5,331.85c0,0-0.01,0-0.01,0l-295.5-0.6c-3.48-0.01-6.29-2.83-6.29-6.31c0.01-3.48,2.83-6.29,6.3-6.29
		c0,0,0.01,0,0.01,0l295.5,0.6c3.48,0.01,6.29,2.83,6.29,6.31C369.79,329.04,366.97,331.85,363.5,331.85z"/>
	<path class="st1" d="M362.5,120.8h-295c-2.96,0-5.52-2.06-6.15-4.94s0.82-5.83,3.5-7.07l149-69c1.69-0.78,3.65-0.78,5.34,0.02
		l146,69c2.67,1.26,4.1,4.2,3.46,7.08S365.45,120.8,362.5,120.8z M96.1,108.2h238.33L216.47,52.46L96.1,108.2z"/>
</g>
</svg>
