<?xml version="1.0" encoding="utf-8"?>
<!-- Generator: Adobe Illustrator 24.1.2, SVG Export Plug-In . SVG Version: 6.00 Build 0)  -->
<svg version="1.1" id="outline" xmlns="http://www.w3.org/2000/svg" xmlns:xlink="http://www.w3.org/1999/xlink" x="0px" y="0px"
	 viewBox="0 0 430 430" style="enable-background:new 0 0 430 430;" xml:space="preserve">
<style type="text/css">
	.st0{fill:#121331;}
	.st1{fill:#08a88a;}
	.st2{fill:none;stroke:#121331;stroke-width:12;stroke-linecap:round;stroke-linejoin:round;stroke-miterlimit:10;}
	.st3{fill-opacity:0;}
	.st4{fill:#08a88a;}
</style>
<g>
	<path class="st0" d="M162.92,254.35c-2.39,0-4.65-1.44-5.58-3.8l-29.93-75.83c-1.22-3.08,0.3-6.57,3.38-7.78
		c3.08-1.22,6.57,0.3,7.78,3.38l29.93,75.83c1.22,3.08-0.3,6.57-3.38,7.78C164.4,254.22,163.65,254.35,162.92,254.35z"/>
	<path class="st0" d="M191.37,326.41c-2.39,0-4.65-1.44-5.58-3.8l-7.96-20.17c-1.22-3.08,0.3-6.57,3.38-7.78
		c3.08-1.22,6.57,0.3,7.78,3.38l7.96,20.17c1.22,3.08-0.3,6.57-3.38,7.78C192.85,326.28,192.1,326.41,191.37,326.41z"/>
	<path class="st0" d="M191.37,326.41h-90.85c-2.12,0-4.08-1.12-5.16-2.94c-1.08-1.83-1.12-4.08-0.09-5.94l53.51-97.43
		c0.92-1.67,2.58-2.8,4.47-3.05l26.41-3.51c3.29-0.44,6.3,1.87,6.74,5.16c0.44,3.28-1.87,6.3-5.16,6.74l-23.4,3.11l-47.16,85.87
		h77.92l85.54-101.33l-49.66,6.6c-3.29,0.44-6.3-1.87-6.74-5.16c-0.44-3.29,1.87-6.3,5.16-6.74l65.05-8.65
		c2.46-0.33,4.86,0.89,6.05,3.07c1.19,2.17,0.92,4.86-0.68,6.75l-97.35,115.32C194.81,325.63,193.14,326.41,191.37,326.41z"/>
	<path class="st0" d="M289.29,99.94c-0.91,0-1.83-0.11-2.74-0.32c-3.11-0.73-5.76-2.61-7.44-5.32l-8.68-13.95l0,0
		c-3.64-5.85-4.78-12.8-3.21-19.55s5.66-12.48,11.52-16.12l11.41-7.1c12.13-7.54,28.13-3.81,35.67,8.31l1.31,2.11
		c7.54,12.12,3.81,28.13-8.31,35.67l-23.25,14.46C293.66,99.33,291.49,99.94,289.29,99.94z M280.62,74.01l8.68,13.95l23.18-14.48
		c6.51-4.05,8.51-12.63,4.46-19.14l-1.31-2.11c-4.05-6.51-12.63-8.51-19.14-4.46l-11.41,7.1c-3.13,1.95-5.32,5.02-6.17,8.65
		C278.06,67.16,278.67,70.88,280.62,74.01L280.62,74.01z"/>
	<path class="st0" d="M100.51,396.3c-41.77,0-75.75-33.98-75.75-75.75s33.98-75.75,75.75-75.75s75.75,33.98,75.75,75.75
		S142.28,396.3,100.51,396.3z M100.51,256.8c-35.15,0-63.75,28.6-63.75,63.75c0,35.15,28.6,63.75,63.75,63.75
		s63.75-28.6,63.75-63.75C164.26,285.4,135.67,256.8,100.51,256.8z"/>
	<path class="st0" d="M100.52,370.14c-27.34,0-49.59-22.25-49.59-49.59c0-3.31,2.69-6,6-6s6,2.69,6,6
		c0,20.73,16.86,37.59,37.59,37.59c3.31,0,6,2.69,6,6S103.83,370.14,100.52,370.14z"/>
	<path class="st0" d="M329.52,370.14c-27.34,0-49.59-22.25-49.59-49.59c0-3.31,2.69-6,6-6s6,2.69,6,6
		c0,20.73,16.86,37.59,37.59,37.59c3.31,0,6,2.69,6,6S332.83,370.14,329.52,370.14z"/>
	<path class="st0" d="M329.49,396.3c-41.77,0-75.75-33.98-75.75-75.75s33.98-75.75,75.75-75.75s75.75,33.98,75.75,75.75
		S371.25,396.3,329.49,396.3z M329.49,256.8c-35.15,0-63.75,28.6-63.75,63.75c0,35.15,28.6,63.75,63.75,63.75
		s63.75-28.6,63.75-63.75C393.23,285.4,364.64,256.8,329.49,256.8z"/>
	<path class="st0" d="M316.34,217.33c-1.18,0-2.37-0.35-3.41-1.07c-2.72-1.89-3.4-5.63-1.51-8.35c0.23-0.34,5.43-8.15,2.42-14.63
		c-6.29-0.02-21.02,0.01-31.38,0.03c0,0-0.01,0-0.01,0c-3.31,0-5.99-2.68-6-5.99c-0.01-3.31,2.67-6.01,5.99-6.01
		c0,0,8.65-0.02,17.31-0.03c4.33-0.01,8.67-0.01,11.92,0c1.64,0,3,0.01,3.96,0.01c2.21,0.01,4.29,0.02,6.09,2.19
		c11.45,13.78,0.06,30.57-0.43,31.27C320.11,216.42,318.24,217.33,316.34,217.33z"/>
	<path class="st0" d="M329.49,326.55c-2.47,0-4.79-1.54-5.66-4L276.78,189.3c-1.1-3.12,0.54-6.55,3.66-7.66
		c3.13-1.1,6.55,0.54,7.66,3.66l47.04,133.25c1.1,3.12-0.54,6.55-3.66,7.66C330.82,326.44,330.15,326.55,329.49,326.55z"/>
	<path class="st0" d="M147.63,178.52h-38.67c-3.31,0-6-2.69-6-6s2.69-6,6-6h38.67c3.31,0,6,2.69,6,6S150.95,178.52,147.63,178.52z"
		/>
	<path class="st0" d="M187.76,309.99c-1.41,0-2.81-0.5-3.92-1.45l-38.49-33.14c-2.22-1.91-2.74-5.15-1.21-7.66l31.43-51.8
		l-31.76-45.87c-0.16-0.23-0.31-0.48-0.43-0.73c-1.31-2.63-12.47-26.28,0.02-47.77c3.92-6.75,9.78-12.49,16.93-16.6
		c2.87-1.65,6.54-0.66,8.19,2.22c1.65,2.87,0.66,6.54-2.22,8.19c-5.33,3.06-9.66,7.28-12.53,12.22c-8.92,15.35-1.4,32.75,0.16,36.02
		l33.72,48.7c1.35,1.95,1.42,4.5,0.2,6.53l-30.81,50.78l30.34,26.12c1.41-4.97-0.87-14.93-3.18-20.68
		c-0.73-1.81-0.53-3.86,0.53-5.49l29-44.84c0.15-0.23,0.32-0.46,0.5-0.67c4.89-5.65,4.55-14.19-0.78-19.43
		c-0.24-0.24-0.46-0.5-0.66-0.77l-27.97-38.84c-1.94-2.69-1.33-6.44,1.36-8.38s6.44-1.33,8.38,1.36l27.69,38.45
		c9.36,9.59,9.96,24.83,1.35,35.12l-27.16,42c2.78,8.22,8.33,29.51-6.25,35.91C189.4,309.83,188.58,309.99,187.76,309.99z"/>
	<path class="st1" d="M189.53,167.53c-2.19,0-4.29-1.2-5.35-3.27l-26.25-51.35c-0.43-0.85-0.66-1.78-0.66-2.73
		c0-2.36,1.38-4.48,3.48-5.46l60.54-30.96c0.09-0.05,0.19-0.09,0.28-0.13c9.09-4.07,16.28-3.74,17.85-3.61
		c12.18,0.8,23.19,8.04,28.75,18.91c1.05,2.05,1.9,4.21,2.52,6.43c0.9,3.19-0.96,6.5-4.15,7.4c-3.19,0.9-6.5-0.96-7.4-4.15
		c-0.41-1.46-0.97-2.88-1.66-4.23c-3.65-7.15-10.89-11.9-18.9-12.4c-0.06,0-0.11-0.01-0.17-0.01c-0.22-0.02-5.09-0.43-11.81,2.54
		l-55.27,28.26l20.79,40.67l49.06-25.08c2.95-1.51,6.56-0.34,8.07,2.61c1.51,2.95,0.34,6.56-2.61,8.07l-54.28,27.75
		c-0.07,0.04-0.14,0.07-0.21,0.1l-0.13,0.06C191.23,167.35,190.38,167.53,189.53,167.53z"/>
	<path class="st1" d="M291.41,204.29c-5.01,0-10.01-1.6-14.95-4.79c-0.59-0.38-1.1-0.86-1.52-1.42l-30.01-39.6
		c-0.46-0.61-0.8-1.3-1.01-2.04l-15.25-55.85c-0.87-3.2,1.01-6.5,4.21-7.37c3.2-0.87,6.5,1.01,7.37,4.21l14.94,54.73l28.63,37.79
		c8.54,5,14.96,0.79,18.39-2.73l-31.04-40.89c-0.5-0.66-0.86-1.42-1.05-2.22l-11-45.68c-0.78-3.22,1.21-6.46,4.43-7.24
		c3.23-0.77,6.46,1.21,7.24,4.43l10.71,44.46l33.1,43.6c1.52,2,1.63,4.73,0.28,6.85c-0.7,1.09-7.14,10.77-18.37,13.22
		C294.8,204.1,293.1,204.29,291.41,204.29z"/>
</g>
</svg>
