<?xml version="1.0" encoding="utf-8"?>
<!-- Generator: Adobe Illustrator 24.1.2, SVG Export Plug-In . SVG Version: 6.00 Build 0)  -->
<svg version="1.1" id="Warstwa_3" xmlns="http://www.w3.org/2000/svg" xmlns:xlink="http://www.w3.org/1999/xlink" x="0px" y="0px"
	 viewBox="0 0 430 430" style="enable-background:new 0 0 430 430;" xml:space="preserve">
<style type="text/css">
	.st0{fill:#121331;}
	.st1{fill:#08a88a;}
	.st2{fill:none;stroke:#08a88a;stroke-width:12.25;stroke-miterlimit:14;}
	.st3{fill-opacity:0;}
	.st4{fill:#131432;}
	.st5{fill:none;}
</style>
<g>
	<path class="st0" d="M136.19,297.21c-14.24,0-39.96-2.78-60.15-20.4c-18.46-16.11-27.83-40.67-27.83-73
		c0-34.35,15.9-74.54,42.53-107.5c29.47-36.48,67.81-59.57,107.96-65.03c13.03-1.77,26.87-0.95,35.47,0.42
		c39.52,6.27,77.15,29.61,105.96,65.74c26.09,32.71,41.67,72.48,41.67,106.38c0,30.69-8.99,54.45-26.72,70.61
		c-28.28,25.77-68.16,22.39-69.84,22.24c-3.44-0.32-5.96-3.36-5.64-6.8c0.32-3.43,3.35-5.97,6.8-5.64
		c0.73,0.06,36.35,2.85,60.35-19.1c14.97-13.69,22.57-34.32,22.57-61.31c0-31.16-14.56-68.01-38.94-98.58
		c-26.86-33.68-61.72-55.41-98.15-61.19c-2.67-0.42-16.74-2.43-31.83-0.38c-36.98,5.03-72.46,26.51-99.92,60.5
		C75.56,134.96,60.7,172.22,60.7,203.8c0,28.51,7.9,49.89,23.47,63.52c24.53,21.48,60.61,16.96,60.97,16.91
		c3.42-0.45,6.56,1.94,7.02,5.36c0.46,3.42-1.93,6.56-5.34,7.02C146.32,296.69,142.32,297.21,136.19,297.21z"/>
	<path class="st0" d="M340.04,399.75H92.7c-3.45,0-6.25-2.8-6.25-6.25c0-44.04,22.04-84.74,58.97-108.85
		c16.19-10.57,33.86-9.39,52.57-8.14c6,0.4,12.2,0.81,18.38,0.81s12.39-0.41,18.38-0.81c18.71-1.25,36.38-2.43,52.57,8.14
		c36.92,24.11,58.97,64.81,58.97,108.85C346.29,396.95,343.49,399.75,340.04,399.75z M99.11,387.25h234.52
		c-1.97-37.38-21.52-71.49-53.14-92.14c-12.69-8.29-27.62-7.29-44.91-6.14c-6.2,0.41-12.62,0.84-19.22,0.84
		c-6.6,0-13.01-0.43-19.22-0.84c-17.28-1.15-32.21-2.15-44.9,6.14C120.62,315.76,101.07,349.87,99.11,387.25z"/>
	<path class="st1" d="M216.34,286.57c-45.67,0-83.4-34.69-88.25-79.11h-4.57c-15.62,0-28.33-12.71-28.33-28.33
		c0-15.62,12.71-28.32,28.33-28.32h9.78c3.87-0.39,63.2-7.22,103.48-63.5c1.42-1.99,3.87-2.96,6.27-2.5
		c0.25,0.05,0.5,0.11,0.74,0.19c13.24,4.27,25.47,11.76,35.37,21.66c16.77,16.77,26,39.08,26,62.83v28.26
		C305.17,246.72,265.32,286.57,216.34,286.57z M140.38,162.46c-0.21,2.32-0.32,4.67-0.32,7.02v28.26
		c0,42.09,34.22,76.33,76.28,76.33c42.09,0,76.33-34.24,76.33-76.33v-28.26c0-20.41-7.94-39.58-22.34-53.99
		c-7.45-7.45-16.44-13.32-26.19-17.11C207.05,147.42,157.78,159.6,140.38,162.46z M123.53,163.3c-8.73,0-15.83,7.1-15.83,15.83
		c0,8.73,7.1,15.83,15.83,15.83h4.04v-25.48c0-2.07,0.07-4.13,0.21-6.18H123.53z"/>
	<path class="st1" d="M309,207.46h-10.06c-3.45,0-6.25-2.8-6.25-6.25s2.8-6.25,6.25-6.25H309c8.73,0,15.83-7.1,15.83-15.83
		c0-8.73-7.1-15.83-15.83-15.83h-10.06c-3.45,0-6.25-2.8-6.25-6.25s2.8-6.25,6.25-6.25H309c15.62,0,28.33,12.71,28.33,28.32
		C337.33,194.75,324.62,207.46,309,207.46z"/>
</g>
</svg>
