<?xml version="1.0" encoding="utf-8"?>
<!-- Generator: Adobe Illustrator 24.1.2, SVG Export Plug-In . SVG Version: 6.00 Build 0)  -->
<svg version="1.1" id="Warstwa_1" xmlns="http://www.w3.org/2000/svg" xmlns:xlink="http://www.w3.org/1999/xlink" x="0px" y="0px"
	 viewBox="0 0 430 430" style="enable-background:new 0 0 430 430;" xml:space="preserve">
<style type="text/css">
	.st0{fill:#121331;}
	.st1{fill:#08a88a;}
	.st2{fill:none;stroke:#121331;stroke-width:12;stroke-linecap:round;stroke-linejoin:round;stroke-miterlimit:10;}
	.st3{fill:#00A689;}
</style>
<g>
	<g>
		<path class="st1" d="M260.85,154.43c1.88-2.73,1.2-6.46-1.53-8.35l-27.94-19.31l-0.31-45.26c-0.02-3.3-2.7-5.96-6-5.96
			c-0.01,0-0.03,0-0.04,0c-3.31,0.02-5.98,2.73-5.96,6.04l0.33,48.38c0.01,1.96,0.98,3.78,2.59,4.9l30.51,21.08
			c1.04,0.72,2.23,1.06,3.41,1.06C257.81,157.03,259.68,156.12,260.85,154.43z"/>
		<path class="st1" d="M295.72,300.89c-1.73-2.83-5.43-3.71-8.25-1.98l-29.61,18.14c-2.42,1.49-3.47,4.47-2.51,7.14l9.42,26.27
			c0.88,2.45,3.19,3.98,5.65,3.98c0.67,0,1.36-0.11,2.03-0.35c3.12-1.12,4.74-4.55,3.62-7.67l-7.77-21.68l25.45-15.59
			C296.57,307.41,297.46,303.71,295.72,300.89z"/>
	</g>
	<path class="st0" d="M380.31,270.27c0.05-0.1,0.09-0.19,0.13-0.29c0.04-0.1,0.08-0.21,0.12-0.31c0.03-0.07,0.06-0.14,0.08-0.21
		c0-0.01,0.01-0.02,0.01-0.04c0.03-0.11,0.06-0.22,0.09-0.33c0.02-0.08,0.05-0.17,0.06-0.25c0.02-0.08,0.02-0.16,0.04-0.24
		c0.02-0.12,0.04-0.23,0.05-0.35c0-0.02,0-0.05,0-0.07c0.05-0.57,0.01-1.14-0.1-1.68c0,0,0-0.01,0-0.01l-13.16-64.04
		c-2.14-10.4-10.24-18.49-20.65-20.61l-43.65-8.88v-34.7c0-13.71-7.54-26.2-19.67-32.6l-55.8-29.4c-2.22-1.17-4.94-0.83-6.8,0.84
		l-35.39,31.74c-0.17,0.15-0.33,0.31-0.48,0.48l-37.08,41.71l-52.81-18c-1.93-0.66-4.06-0.29-5.66,0.97
		c-1.6,1.26-2.45,3.25-2.25,5.28l6.94,72.63l-43.82,51.9c-0.02,0.02-0.03,0.04-0.04,0.06c-0.2,0.25-0.39,0.51-0.55,0.79
		c-0.02,0.03-0.03,0.06-0.05,0.08c-0.31,0.56-0.54,1.17-0.66,1.82c-0.01,0.04-0.02,0.07-0.02,0.11c-0.05,0.29-0.08,0.59-0.08,0.9
		c0,0.06,0,0.12,0,0.17c0,0.08,0,0.17,0,0.25c0.01,0.22,0.04,0.44,0.07,0.66c0,0.02,0.01,0.05,0.01,0.07
		c0.06,0.31,0.14,0.62,0.24,0.91c0.01,0.02,0.01,0.03,0.02,0.05c0.11,0.31,0.25,0.61,0.41,0.9c0.01,0.02,0.03,0.05,0.04,0.07
		c0.17,0.29,0.36,0.56,0.57,0.82c0.01,0.01,0.01,0.02,0.02,0.03l67.29,80.75c0.06,0.07,0.12,0.13,0.18,0.19
		c0.07,0.08,0.14,0.15,0.21,0.22c0.12,0.12,0.25,0.23,0.37,0.33c0.06,0.05,0.12,0.11,0.18,0.16c0.19,0.15,0.38,0.28,0.59,0.4
		c0.07,0.04,0.15,0.08,0.22,0.12c0.15,0.08,0.29,0.15,0.44,0.22c0.08,0.04,0.17,0.07,0.25,0.1c0.15,0.06,0.3,0.11,0.45,0.16
		c0.08,0.03,0.17,0.05,0.26,0.07c0.16,0.04,0.33,0.07,0.49,0.1c0.08,0.01,0.16,0.03,0.23,0.04c0.22,0.03,0.45,0.04,0.68,0.05
		c0.02,0,0.04,0,0.06,0c0.01,0,0.01,0,0.02,0h148.02c0.44,0,0.88-0.05,1.31-0.15l60.08-13.46c1.52-0.34,2.84-1.25,3.7-2.55
		l44.41-67.29c0.03-0.05,0.06-0.11,0.1-0.16c0.06-0.1,0.13-0.2,0.18-0.31C380.24,270.44,380.27,270.36,380.31,270.27z
		 M326.83,329.65l-57.07,12.78H146.15l71.7-38.67c2.92-1.57,4.01-5.21,2.43-8.13c-1.57-2.92-5.21-4.01-8.13-2.43l-88.3,47.62
		l-56.5-67.79l63.97-3.47l-7.21,33.18c-0.7,3.24,1.35,6.43,4.59,7.14c0.43,0.09,0.86,0.14,1.28,0.14c2.76,0,5.25-1.92,5.86-4.73
		l8.88-40.88c0.4-1.83-0.08-3.74-1.3-5.16c-1.21-1.42-3.02-2.19-4.89-2.1l-69.9,3.79l36.49-43.22c1.04-1.23,1.54-2.83,1.39-4.44
		l-6.3-65.89L148,163.68c2.29,0.78,4.82,0.11,6.42-1.69l39.51-44.44l32.03-28.73l52.11,27.46c8.18,4.31,13.26,12.73,13.26,21.98
		v35.73l-68.21,30.78c-1.51,0.68-2.67,1.96-3.21,3.53l-13.46,39.34c-1.07,3.14,0.6,6.55,3.74,7.62c0.64,0.22,1.3,0.33,1.94,0.33
		c2.49,0,4.82-1.57,5.68-4.06l12.62-36.89l67.61-30.5l46.55,9.47c5.69,1.16,10.11,5.58,11.28,11.26l11.11,54.09l-38.3-11.87
		c-1.78-0.55-3.72-0.24-5.24,0.83l-24.52,17.34c-2.71,1.91-3.35,5.66-1.43,8.36c1.17,1.65,3.02,2.54,4.9,2.54
		c1.2,0,2.41-0.36,3.46-1.1l22.1-15.63l37.53,11.64L326.83,329.65z"/>
</g>
</svg>
