<?xml version="1.0" encoding="utf-8"?>
<!-- Generator: Adobe Illustrator 26.3.1, SVG Export Plug-In . SVG Version: 6.00 Build 0)  -->
<svg version="1.1" id="Warstwa_1" xmlns="http://www.w3.org/2000/svg" xmlns:xlink="http://www.w3.org/1999/xlink" x="0px" y="0px"
	 viewBox="0 0 500 500" style="enable-background:new 0 0 500 500;" xml:space="preserve">
<style type="text/css">
	.st0{fill:#08a88a;}
	.st1{fill:#121331;}
	.st2{fill:#FFFFFF;}
</style>
<g>
	<g>
		<polyline class="st2" points="312.36,406.9 312.36,436.81 265.71,369.27 312.36,301.73 312.36,331.64 		"/>
		<path class="st0" d="M312.36,442.81c-1.93,0-3.8-0.94-4.94-2.59l-46.65-67.54c-1.42-2.05-1.42-4.77,0-6.82l46.65-67.54
			c1.49-2.16,4.21-3.1,6.72-2.32c2.51,0.78,4.21,3.1,4.21,5.73v29.91c0,3.31-2.69,6-6,6s-6-2.69-6-6v-10.67L273,369.27l33.36,48.3
			V406.9c0-3.31,2.69-6,6-6s6,2.69,6,6v29.91c0,2.63-1.71,4.95-4.21,5.73C313.56,442.72,312.95,442.81,312.36,442.81z"/>
	</g>
	<path class="st0" d="M354.55,412.9h-42.19c-3.31,0-6-2.69-6-6s2.69-6,6-6h42.19c12.3,0,23.69-6.65,29.73-17.36l25.89-45.9h-97.82
		c-3.31,0-6-2.69-6-6s2.69-6,6-6h108.09c2.13,0,4.11,1.13,5.18,2.97c1.08,1.84,1.09,4.12,0.04,5.97l-30.94,54.84
		C386.57,403.9,371.18,412.9,354.55,412.9z"/>
	<path class="st0" d="M354.09,313.32c-2.14,0-4.12-1.14-5.2-3l-32.82-56.85c-1.66-2.87-0.67-6.54,2.2-8.2l65.18-37.63
		c1.38-0.8,3.02-1.01,4.55-0.6c1.54,0.41,2.85,1.42,3.64,2.8l35.88,62.14c4.89,8.48,4.92,18.61,0.07,27.11
		c-4.85,8.5-13.59,13.63-23.38,13.73l-50.06,0.5C354.13,313.32,354.11,313.32,354.09,313.32z M329.46,252.67l28.07,48.61l46.56-0.46
		c5.47-0.05,10.36-2.93,13.07-7.68s2.7-10.42-0.04-15.16l-32.88-56.94L329.46,252.67z"/>
	<g>
		<polyline class="st2" points="166.45,285 192.36,299.94 157.15,225.79 75.34,232.46 101.26,247.4 		"/>
		<path class="st1" d="M192.36,305.94c-1.03,0-2.06-0.26-3-0.8l-25.91-14.94c-2.87-1.65-3.86-5.32-2.2-8.19
			c1.66-2.87,5.32-3.86,8.2-2.2l9.24,5.32l-25.18-53.02l-58.5,4.77l9.24,5.33c2.87,1.66,3.86,5.32,2.2,8.2
			c-1.65,2.87-5.32,3.86-8.19,2.2l-25.92-14.95c-2.28-1.31-3.43-3.95-2.86-6.51s2.75-4.45,5.37-4.67l81.81-6.67
			c2.48-0.21,4.84,1.15,5.91,3.41l35.21,74.15c1.13,2.37,0.58,5.2-1.35,6.98C195.29,305.4,193.83,305.94,192.36,305.94z"/>
	</g>
	<path class="st1" d="M112.45,384.64c-2.12,0-4.08-1.12-5.17-2.95l-32.05-54.21c-8.46-14.31-8.56-32.13-0.25-46.53l21.08-36.56
		c1.65-2.87,5.32-3.86,8.19-2.2c2.87,1.66,3.86,5.32,2.2,8.2l-21.08,36.56c-6.14,10.65-6.07,23.84,0.19,34.42l26.82,45.36
		l48.87-84.74c1.65-2.87,5.32-3.86,8.19-2.2c2.87,1.66,3.86,5.32,2.2,8.2l-54,93.64c-1.07,1.85-3.03,2.99-5.17,3
		C112.47,384.64,112.46,384.64,112.45,384.64z"/>
	<path class="st1" d="M160.98,413.06c-9.78,0-18.57-5.04-23.5-13.48c-4.94-8.45-5.02-18.58-0.22-27.11l24.58-43.61
		c1.06-1.89,3.06-3.05,5.22-3.05l65.64-0.03c0,0,0,0,0,0c3.31,0,6,2.68,6,6l0.04,75.26c0,1.59-0.63,3.12-1.75,4.24
		c-1.12,1.13-2.65,1.76-4.24,1.76L161,413.06C160.99,413.06,160.99,413.06,160.98,413.06z M170.58,337.8l-22.86,40.56
		c-2.69,4.77-2.64,10.44,0.12,15.16c2.76,4.72,7.67,7.54,13.14,7.54c0,0,0,0,0.01,0l65.75-0.03l-0.03-63.26L170.58,337.8z"/>
	<g>
		<polyline class="st2" points="345.23,147.16 371.29,132.5 335.32,206.27 253.58,198.76 279.65,184.08 		"/>
		<path class="st1" d="M335.33,212.27c-0.18,0-0.37-0.01-0.55-0.03l-81.74-7.52c-2.61-0.24-4.77-2.15-5.32-4.72
			c-0.55-2.57,0.64-5.19,2.92-6.48l26.07-14.68c2.89-1.63,6.55-0.6,8.17,2.29c1.63,2.89,0.6,6.55-2.29,8.17l-9.3,5.23l58.45,5.38
			l25.72-52.75l-9.29,5.23c-2.89,1.63-6.55,0.6-8.17-2.29c-1.63-2.89-0.6-6.55,2.29-8.17l26.06-14.67c2.29-1.29,5.15-0.94,7.06,0.86
			c1.91,1.8,2.43,4.64,1.28,7l-35.97,73.77C339.7,210.98,337.6,212.27,335.33,212.27z"/>
	</g>
	<path class="st1" d="M279.66,190.08c-2.1,0-4.13-1.1-5.23-3.06l-53.03-94.2c-1.05-1.86-1.03-4.13,0.05-5.97
		c1.08-1.84,3.05-2.97,5.18-2.97c0,0,0,0,0.01,0l62.98,0.07c16.61,0.01,32,9.02,40.16,23.5l20.7,36.77c1.63,2.89,0.6,6.55-2.29,8.17
		c-2.89,1.63-6.55,0.6-8.17-2.29l-20.7-36.77c-6.04-10.72-17.42-17.38-29.71-17.39l-52.7-0.06l47.99,85.25
		c1.63,2.89,0.6,6.55-2.29,8.17C281.66,189.83,280.65,190.08,279.66,190.08z"/>
	<path class="st1" d="M204.16,223.66c-1.04,0-2.09-0.27-3.05-0.84l-64.76-38.34c-1.37-0.81-2.36-2.13-2.76-3.67
		c-0.39-1.54-0.16-3.18,0.65-4.55l36.55-61.74c4.96-8.37,13.7-13.36,23.42-13.36c0.06,0,0.11,0,0.17,0
		c9.79,0.06,18.55,5.16,23.43,13.64l24.99,43.38c1.08,1.88,1.07,4.19-0.04,6.05l-33.44,56.48
		C208.21,222.61,206.21,223.66,204.16,223.66z M147.62,177.22l54.44,32.23l28.6-48.31l-23.24-40.34c-2.73-4.74-7.63-7.59-13.1-7.63
		c-0.03,0-0.06,0-0.09,0c-5.44,0-10.33,2.79-13.1,7.47L147.62,177.22z"/>
</g>
</svg>
