<?xml version="1.0" encoding="utf-8"?>
<!-- Generator: Adobe Illustrator 26.0.1, SVG Export Plug-In . SVG Version: 6.00 Build 0)  -->
<svg version="1.1" id="Warstwa_1" xmlns="http://www.w3.org/2000/svg" xmlns:xlink="http://www.w3.org/1999/xlink" x="0px" y="0px"
	 viewBox="0 0 500 500" style="enable-background:new 0 0 500 500;" xml:space="preserve">
<style type="text/css">
	.st0{fill:#121331;}
	.st1{fill:#08a88a;}
	.st2{fill:#1D1D1B;}
	.st3{fill:#08a88a;}
	.st4{fill:none;stroke:#08a88a;stroke-width:12;stroke-linecap:round;stroke-linejoin:round;stroke-miterlimit:10;}
</style>
<path class="st0" d="M89.88,402.06c-3.31,0-6-2.69-6-6V140.41c0-3.31,2.69-6,6-6h30.81l26.35-22.1c1.07-0.89,2.41-1.39,3.8-1.4
	l37.44-0.35H250c1.85,0,3.59,0.85,4.73,2.31c1.14,1.46,1.54,3.36,1.09,5.15l-13.17,52.66v39.29c0,0.8-0.16,1.59-0.47,2.32
	l-11.2,26.68c-0.37,0.87-0.93,1.65-1.66,2.26l-32.58,27.54l5.81,39.69c0.04,0.29,0.06,0.58,0.06,0.87v35.51l21.11,37.75
	c1.58,2.92,0.49,6.56-2.42,8.13c-2.91,1.58-6.55,0.49-8.13-2.42l-0.2-0.37l-21.59-38.6c-0.5-0.89-0.76-1.9-0.76-2.93v-36.63
	l-6.23-42.56c-0.3-2.05,0.48-4.11,2.06-5.45L220.48,233l10.17-24.24v-38.82c0-0.49,0.06-0.98,0.18-1.46l11.49-45.92h-53.98
	l-35.23,0.33l-26.37,22.12c-1.08,0.91-2.45,1.4-3.86,1.4H95.88v249.65C95.88,399.38,93.2,402.06,89.88,402.06z"/>
<path class="st0" d="M161.67,218.97c-0.4,0-0.8-0.04-1.2-0.12c-3.25-0.66-5.34-3.83-4.68-7.08l4-19.64c0.28-1.38,1.04-2.62,2.15-3.5
	l20.4-16.2v-55.87c0-3.31,2.69-6,6-6s6,2.69,6,6v58.77c0,1.83-0.83,3.56-2.27,4.7l-20.96,16.64l-3.56,17.49
	C166.97,217.01,164.47,218.97,161.67,218.97z"/>
<path class="st0" d="M196.63,315.33c-1.61,0-3.22-0.65-4.4-1.92l-32.71-35.31l-29.87-6.91c-2.23-0.52-3.98-2.26-4.49-4.5
	l-7.09-30.68c-0.75-3.23,1.27-6.45,4.5-7.2c3.22-0.75,6.45,1.27,7.2,4.5l6.25,27.03l28.02,6.48c1.17,0.27,2.23,0.89,3.05,1.77
	l33.96,36.67c2.25,2.43,2.11,6.23-0.33,8.48C199.55,314.8,198.09,315.33,196.63,315.33z"/>
<path class="st0" d="M145.59,402.02c-3.31,0-6-2.69-6-6v-21.08l-19.22-28.23c-1.06-1.56-1.33-3.53-0.72-5.32l12.67-36.96
	c1.07-3.13,4.48-4.81,7.62-3.73c3.13,1.07,4.8,4.49,3.73,7.62l-11.7,34.12l18.57,27.28c0.68,1,1.04,2.17,1.04,3.38v22.93
	C151.59,399.34,148.91,402.02,145.59,402.02z"/>
<path class="st0" d="M369.09,397.18c-2.5,0-4.83-1.58-5.68-4.07l-10.52-30.99l-60.11-11.86l-13.85,35.2
	c-1.21,3.08-4.69,4.6-7.78,3.39c-3.08-1.21-4.6-4.7-3.39-7.78l15.69-39.86c1.06-2.7,3.89-4.25,6.75-3.69l68.43,13.5
	c2.11,0.42,3.83,1.93,4.52,3.96l11.63,34.27c1.07,3.14-0.62,6.54-3.75,7.61C370.38,397.08,369.73,397.18,369.09,397.18z"/>
<g>
	<path class="st1" d="M196.63,402.13c-18.02,0-32.69-14.66-32.69-32.69c0-3.31,2.69-6,6-6s6,2.69,6,6
		c0,11.41,9.28,20.69,20.69,20.69s20.69-9.28,20.69-20.69c0-3.31,2.69-6,6-6s6,2.69,6,6C229.32,387.47,214.66,402.13,196.63,402.13z
		"/>
	<path class="st1" d="M143.25,402.13c-18.02,0-32.69-14.66-32.69-32.69c0-3.31,2.69-6,6-6s6,2.69,6,6
		c0,11.41,9.28,20.69,20.69,20.69s20.69-9.28,20.69-20.69c0-3.31,2.69-6,6-6s6,2.69,6,6C175.94,387.47,161.27,402.13,143.25,402.13z
		"/>
	<path class="st1" d="M250,402.07c-18.02,0-32.69-14.66-32.69-32.69c0-3.31,2.69-6,6-6s6,2.69,6,6c0,11.41,9.28,20.69,20.69,20.69
		c11.41,0,20.69-9.28,20.69-20.69c0-3.31,2.69-6,6-6s6,2.69,6,6C282.69,387.4,268.03,402.07,250,402.07z"/>
	<path class="st1" d="M303.38,402.07c-18.02,0-32.69-14.66-32.69-32.69c0-3.31,2.69-6,6-6s6,2.69,6,6
		c0,11.41,9.28,20.69,20.69,20.69s20.69-9.28,20.69-20.69c0-3.31,2.69-6,6-6s6,2.69,6,6C336.06,387.4,321.4,402.07,303.38,402.07z"
		/>
	<path class="st1" d="M356.75,402.07c-18.02,0-32.69-14.66-32.69-32.69c0-3.31,2.69-6,6-6s6,2.69,6,6
		c0,11.41,9.28,20.69,20.69,20.69s20.69-9.28,20.69-20.69c0-3.31,2.69-6,6-6s6,2.69,6,6C389.43,387.4,374.77,402.07,356.75,402.07z"
		/>
	<path class="st1" d="M410.12,402.13c-18.02,0-32.69-14.66-32.69-32.69c0-3.31,2.69-6,6-6s6,2.69,6,6
		c0,11.41,9.28,20.69,20.69,20.69c3.31,0,6,2.69,6,6S413.43,402.13,410.12,402.13z"/>
	<path class="st1" d="M89.88,402.07c-3.31,0-6-2.69-6-6s2.69-6,6-6c11.41,0,20.69-9.28,20.69-20.69c0-3.31,2.69-6,6-6s6,2.69,6,6
		C122.57,387.4,107.9,402.07,89.88,402.07z"/>
</g>
<path class="st0" d="M303.37,282.34c-0.34,0-0.68-0.03-1.02-0.09c-1.92-0.33-3.56-1.57-4.4-3.33l-12.4-25.98l-24.69-11.16
	c-1.61-0.73-2.81-2.12-3.3-3.81c-0.49-1.69-0.2-3.51,0.78-4.98l26.69-40.03c1.08-1.62,2.88-2.62,4.83-2.67
	c1.96-0.03,3.8,0.84,4.97,2.4l40.03,53.37c1.79,2.39,1.55,5.73-0.56,7.84l-26.69,26.69C306.48,281.72,304.95,282.34,303.37,282.34z
	 M272.26,233.76l20.24,9.15c1.29,0.58,2.33,1.6,2.94,2.88l9.69,20.3l17-17l-31.82-42.43L272.26,233.76z"/>
<path class="st0" d="M263.34,335.72c-1.58,0-3.11-0.62-4.24-1.76l-26.69-26.69c-1.83-1.83-2.28-4.62-1.12-6.93l13.35-26.69
	c0.86-1.73,2.5-2.93,4.41-3.24c1.91-0.31,3.84,0.32,5.2,1.68l26.69,26.69c1.83,1.83,2.28,4.62,1.12,6.93l-13.35,26.69
	c-0.86,1.73-2.5,2.93-4.41,3.24C263.98,335.69,263.66,335.72,263.34,335.72z M243.96,301.84l17.74,17.74l7.69-15.37l-17.74-17.74
	L243.96,301.84z"/>
<path class="st0" d="M122.88,189.28c-3.31,0-6-2.69-6-6v-42.87c0-3.31,2.69-6,6-6s6,2.69,6,6v42.87
	C128.88,186.6,126.19,189.28,122.88,189.28z"/>
</svg>
