<?xml version="1.0" encoding="utf-8"?>
<!-- Generator: Adobe Illustrator 25.0.1, SVG Export Plug-In . SVG Version: 6.00 Build 0)  -->
<svg version="1.1" id="Layer_1" xmlns="http://www.w3.org/2000/svg" xmlns:xlink="http://www.w3.org/1999/xlink" x="0px" y="0px"
	 viewBox="0 0 430 430" style="enable-background:new 0 0 430 430;" xml:space="preserve">
<style type="text/css">
	.st0{fill:#121331;}
	.st1{fill:#08a88a;}
</style>
<path class="st0" d="M215,395.96c-99.78,0-180.96-81.18-180.96-180.96c0-99.78,81.18-180.96,180.96-180.96
	c99.78,0,180.96,81.18,180.96,180.96C395.96,314.78,314.78,395.96,215,395.96z M215,46.04c-93.17,0-168.96,75.79-168.96,168.96
	S121.83,383.96,215,383.96S383.96,308.17,383.96,215S308.17,46.04,215,46.04z"/>
<path class="st1" d="M113.44,159.76c-1.48,0-2.96-0.54-4.12-1.64c-2.41-2.28-2.51-6.08-0.23-8.48c1.11-1.17,27.6-28.67,60.68-22.37
	c3.26,0.62,5.39,3.76,4.77,7.02c-0.62,3.26-3.77,5.39-7.02,4.77c-26.71-5.09-49.49,18.59-49.72,18.83
	C116.62,159.13,115.03,159.76,113.44,159.76z"/>
<path class="st1" d="M318.08,159.76c-1.59,0-3.17-0.63-4.35-1.87c-0.31-0.32-23.21-23.89-49.73-18.84c-3.26,0.62-6.4-1.52-7.02-4.77
	c-0.62-3.25,1.52-6.4,4.77-7.02c33.08-6.3,59.57,21.19,60.68,22.37c2.28,2.41,2.17,6.2-0.23,8.48
	C321.04,159.22,319.56,159.76,318.08,159.76z"/>
<path class="st0" d="M213.9,327.34c-8.57,0-16.17-1.18-22.54-2.78c-19.98-5.01-32.26-14.99-32.77-15.41
	c-2.56-2.11-2.93-5.89-0.82-8.45c2.1-2.55,5.87-2.93,8.43-0.83l0,0c0.11,0.09,11.07,8.89,28.59,13.17
	c23.25,5.67,46.63,1.11,69.49-13.58c2.79-1.79,6.5-0.98,8.29,1.81c1.79,2.79,0.98,6.5-1.81,8.29
	C249.65,323.13,230.07,327.34,213.9,327.34z"/>
<path class="st0" d="M150.76,174.8c-9.15,0-16.56,7.41-16.56,16.56c0,9.15,7.41,16.56,16.56,16.56c9.15,0,16.56-7.41,16.56-16.56
	C167.32,182.21,159.91,174.8,150.76,174.8L150.76,174.8z"/>
<path class="st0" d="M280.44,174.8c-9.15,0-16.56,7.41-16.56,16.56c0,9.15,7.41,16.56,16.56,16.56c9.15,0,16.56-7.41,16.56-16.56
	C297,182.21,289.58,174.8,280.44,174.8L280.44,174.8z"/>
</svg>
