<?xml version="1.0" encoding="utf-8"?>
<!-- Generator: Adobe Illustrator 24.1.2, SVG Export Plug-In . SVG Version: 6.00 Build 0)  -->
<svg version="1.1" id="Warstwa_1" xmlns="http://www.w3.org/2000/svg" xmlns:xlink="http://www.w3.org/1999/xlink" x="0px" y="0px"
	 viewBox="0 0 430 430" style="enable-background:new 0 0 430 430;" xml:space="preserve">
<style type="text/css">
	.st0{fill:#08a88a;}
	.st1{fill:#121331;}
	.st2{fill:none;}
	.st3{fill:none;stroke:#121331;stroke-width:12;stroke-linecap:round;stroke-linejoin:round;stroke-miterlimit:10;}
	.st4{fill:#08a88a;}
</style>
<g>
	<g>
		<path class="st0" d="M126.03,269.97l-43.74,29.57c-2.75,1.86-3.47,5.59-1.61,8.33c1.16,1.72,3.05,2.64,4.98,2.64
			c1.16,0,2.32-0.33,3.35-1.03l43.74-29.57c2.75-1.86,3.47-5.59,1.61-8.33C132.5,268.83,128.78,268.11,126.03,269.97z"/>
		<path class="st0" d="M354.38,299.53l-43.74-29.57c-2.75-1.85-6.48-1.13-8.33,1.61s-1.13,6.48,1.61,8.33l43.74,29.57
			c1.03,0.7,2.2,1.03,3.35,1.03c1.93,0,3.82-0.93,4.98-2.64C357.85,305.12,357.13,301.39,354.38,299.53z"/>
		<path class="st0" d="M368.68,190.8l-0.19,0.48c-0.53,1.19-1.46,2.22-2.71,2.87c-0.85,0.45-1.78,0.67-2.68,0.68
			c-2.19,0.03-4.33-1.16-5.41-3.24l-1.27-2.45l-9.45-18.21c-0.39-0.75-1.02-1.05-1.37-1.15c-0.34-0.11-1.02-0.24-1.77,0.15
			l-40.8,21.17c-0.74,0.39-1.04,1.02-1.15,1.37c-0.11,0.34-0.23,1.03,0.15,1.77l14.99,28.89l1.38,2.66
			c1.48,2.85,0.45,6.33-2.28,7.93c-0.09,0.06-0.19,0.11-0.28,0.16c-0.88,0.46-1.83,0.68-2.76,0.68c-0.27,0-0.54-0.02-0.81-0.06
			c-0.05,0-0.09-0.01-0.14-0.02c-0.08-0.01-0.16-0.03-0.25-0.04c-0.5-0.11-0.98-0.27-1.43-0.5c-1.12-0.53-2.08-1.43-2.7-2.62
			L302.39,221l-11.01-21.23c-3.64-7.01-0.89-15.67,6.12-19.32l24.9-12.92l1.62-0.84l14.28-7.41c3.4-1.76,7.28-2.1,10.93-0.94
			c3.65,1.15,6.63,3.66,8.39,7.06l4.71,9.08l5.23,10.07l0.78,1.51C369.13,187.59,369.21,189.3,368.68,190.8z"/>
		<path class="st0" d="M141.87,180.45l-40.8-21.17c-7.02-3.64-15.68-0.89-19.32,6.12l-16,30.82c-0.44,0.85-0.67,1.81-0.67,2.77
			c0,3.31,2.69,6,6,6c2.37,0,4.42-1.38,5.39-3.37l15.93-30.69c0.39-0.75,1.02-1.04,1.36-1.15c0.34-0.11,1.03-0.23,1.78,0.15
			l40.8,21.17c0.74,0.39,1.04,1.02,1.15,1.36s0.23,1.03-0.15,1.78l-16.15,31.12c-1.53,2.94-0.38,6.56,2.56,8.09
			c0.88,0.46,1.83,0.68,2.76,0.68c2.17,0,4.26-1.18,5.33-3.24l16.15-31.12c1.76-3.4,2.1-7.28,0.95-10.92
			C147.77,185.2,145.27,182.21,141.87,180.45z"/>
	</g>
	<g>
		<path class="st1" d="M399.26,178.71c-5.88-7.16-14.07-11.82-23.05-13.26v-4.11c0-23.07-18.78-41.84-41.85-41.84H95.63
			c-23.07,0-41.84,18.76-41.84,41.83v4.12c-8.98,1.44-17.17,6.1-23.05,13.26c-7.16,8.73-10.02,20.09-7.82,31.17l8.21,41.38
			c3.43,17.19,18.63,29.68,36.16,29.68h295.42c17.53,0,32.73-12.49,36.16-29.69l8.21-41.37
			C409.28,198.8,406.42,187.44,399.26,178.71z M65.79,161.33c0-16.45,13.39-29.83,29.84-29.83h238.73
			c16.46,0,29.85,13.38,29.85,29.84v8.47l-1.88,4.67l-5.91,14.66l-11.35,28.18c-1.41,3.48-4.21,6.29-7.72,7.7
			c-1.71,0.69-3.5,1.02-5.37,0.98c-1-0.03-1.99-0.16-2.93-0.39c-3.58-0.88-7.62-1.72-12.03-2.48c-0.98-0.17-1.98-0.34-2.99-0.5
			c-3.66-0.59-7.55-1.13-11.64-1.63c-45.39-5.55-115.21-5.66-165.32-0.2c-3.92,0.43-7.71,0.89-11.37,1.38
			c-1.05,0.14-2.08,0.29-3.1,0.44c-8.11,1.16-15.3,2.47-21.46,3.92c-0.09,0.02-0.17,0.04-0.26,0.06c-0.06,0.01-0.13,0.02-0.19,0.03
			c-2.15,0.43-4.41,0.32-6.54-0.32c-0.06-0.02-0.11-0.03-0.17-0.05c-1.08-0.34-2.11-0.81-3.05-1.4c-0.2-0.13-0.41-0.23-0.62-0.33
			c-0.01,0-0.01,0-0.02-0.01c-0.02-0.02-0.04-0.03-0.06-0.05c-0.09-0.08-0.18-0.16-0.27-0.23c-0.06-0.05-0.12-0.09-0.18-0.14
			c-0.04-0.03-0.07-0.06-0.11-0.09c-0.02-0.01-0.04-0.03-0.05-0.04c-1.93-1.5-3.42-3.48-4.34-5.76l-7.62-18.91l-0.95-2.36
			c-0.03-0.07-0.05-0.13-0.08-0.2l-4.88-12.1l-5.97-14.83V161.33z M395.31,207.55l-8.21,41.36c-2.31,11.61-12.57,20.03-24.39,20.03
			H67.29c-11.82,0-22.08-8.42-24.39-20.02l-8.21-41.37c-1.49-7.55,0.45-15.28,5.33-21.22c4.03-4.92,9.67-8.1,15.85-9.05l9.56,23.76
			c0.03,0.06,0.05,0.13,0.08,0.2l0.04,0.09l8.61,21.36c1.7,4.23,4.48,7.93,8.07,10.72c0.09,0.08,0.19,0.15,0.28,0.22l0.06,0.04
			c0.33,0.24,0.67,0.45,1.04,0.62c0,0,0,0,0,0c0.34,0.33,0.73,0.61,1.14,0.86c1.7,1.04,3.54,1.89,5.47,2.5
			c0.04,0.02,0.08,0.03,0.12,0.04c0.03,0.01,0.05,0.02,0.08,0.03c0,0,0,0,0,0c2.49,0.78,5.08,1.17,7.66,1.17
			c1.63,0,3.27-0.16,4.87-0.47c0.36-0.07,0.72-0.14,1.01-0.21c6.44-1.52,14.2-2.89,23.1-4.11c0.08-0.01,0.17-0.02,0.25-0.03
			l0.21-0.03c40.83-5.5,99.5-6.7,145.69-3.67c3.61,0.24,7.14,0.5,10.57,0.79c9.04,0.75,17.45,1.69,24.97,2.8
			c1.06,0.16,2.11,0.32,3.13,0.48c0.09,0.01,0.17,0.03,0.25,0.04c0.05,0.01,0.09,0.02,0.14,0.02c5.2,0.84,9.89,1.77,13.89,2.76
			c1.8,0.44,3.67,0.69,5.53,0.73c3.51,0.1,6.94-0.53,10.17-1.85c6.49-2.61,11.71-7.83,14.34-14.33l12.29-30.53l0.19-0.48l1.27-3.14
			l4.18-10.38c6.18,0.95,11.82,4.13,15.85,9.05C394.86,192.27,396.8,200,395.31,207.55z"/>
		<path class="st1" d="M153.98,174.66c0.15,0.36,0.34,0.71,0.55,1.03c0.22,0.33,0.47,0.64,0.75,0.91c0.28,0.28,0.58,0.53,0.91,0.75
			c0.33,0.21,0.68,0.4,1.04,0.55c0.36,0.15,0.74,0.26,1.12,0.34c0.39,0.08,0.78,0.12,1.17,0.12c0.39,0,0.79-0.04,1.18-0.12
			c0.38-0.08,0.76-0.19,1.12-0.34c0.36-0.15,0.71-0.34,1.04-0.55c0.32-0.22,0.63-0.47,0.91-0.75c1.11-1.11,1.75-2.66,1.75-4.24
			s-0.64-3.13-1.75-4.24c-0.28-0.28-0.59-0.53-0.91-0.75c-0.33-0.22-0.68-0.4-1.04-0.55c-0.36-0.15-0.74-0.27-1.12-0.34
			c-0.78-0.16-1.57-0.16-2.35,0c-0.38,0.07-0.76,0.19-1.12,0.34c-0.36,0.15-0.71,0.33-1.04,0.55c-0.33,0.22-0.63,0.47-0.91,0.75
			c-0.28,0.27-0.53,0.58-0.75,0.91c-0.21,0.32-0.4,0.67-0.55,1.03c-0.15,0.37-0.26,0.74-0.34,1.13c-0.08,0.38-0.12,0.78-0.12,1.17
			s0.04,0.78,0.12,1.17S153.83,174.29,153.98,174.66z"/>
		<path class="st1" d="M209.46,174.65c0.15,0.37,0.33,0.71,0.55,1.04s0.47,0.64,0.75,0.91c0.27,0.28,0.58,0.53,0.91,0.75
			c0.32,0.21,0.67,0.4,1.03,0.55c0.37,0.15,0.74,0.27,1.13,0.34c0.38,0.08,0.78,0.12,1.17,0.12c0.39,0,0.78-0.04,1.17-0.12
			c0.39-0.07,0.76-0.19,1.12-0.34c0.37-0.15,0.72-0.34,1.04-0.55c0.33-0.22,0.64-0.47,0.91-0.75c0.28-0.27,0.53-0.58,0.75-0.91
			c0.21-0.33,0.4-0.67,0.55-1.04c0.15-0.36,0.26-0.74,0.34-1.12c0.08-0.39,0.12-0.78,0.12-1.17s-0.04-0.79-0.12-1.17
			c-0.08-0.39-0.19-0.76-0.34-1.13c-0.15-0.36-0.34-0.71-0.55-1.03c-0.22-0.33-0.47-0.64-0.75-0.91c-0.27-0.28-0.58-0.53-0.91-0.75
			c-0.32-0.22-0.67-0.4-1.04-0.55c-0.36-0.15-0.74-0.27-1.12-0.34c-0.77-0.16-1.57-0.16-2.34,0c-0.39,0.07-0.76,0.19-1.13,0.34
			c-0.36,0.15-0.71,0.33-1.03,0.55c-0.33,0.22-0.64,0.47-0.91,0.75c-0.28,0.27-0.53,0.58-0.75,0.91c-0.22,0.32-0.4,0.67-0.55,1.03
			c-0.15,0.37-0.27,0.74-0.34,1.13c-0.08,0.38-0.12,0.78-0.12,1.17s0.04,0.78,0.12,1.17C209.19,173.91,209.31,174.29,209.46,174.65z
			"/>
		<path class="st1" d="M267.15,177.35c0.32,0.21,0.67,0.4,1.03,0.55s0.74,0.27,1.12,0.34c0.39,0.08,0.78,0.12,1.18,0.12
			c0.39,0,0.78-0.04,1.17-0.12c0.38-0.07,0.76-0.19,1.12-0.34c0.36-0.15,0.71-0.34,1.04-0.55c0.32-0.22,0.63-0.47,0.91-0.75
			c1.11-1.11,1.75-2.66,1.75-4.24c0-0.39-0.04-0.79-0.11-1.17c-0.08-0.39-0.2-0.76-0.35-1.13c-0.15-0.36-0.33-0.71-0.55-1.03
			c-0.22-0.33-0.47-0.64-0.74-0.91c-1.12-1.12-2.66-1.76-4.24-1.76s-3.13,0.64-4.25,1.76c-0.27,0.27-0.53,0.58-0.74,0.91
			c-0.22,0.32-0.41,0.67-0.56,1.03c-0.15,0.37-0.26,0.74-0.34,1.13c-0.08,0.38-0.12,0.78-0.12,1.17c0,1.58,0.64,3.12,1.76,4.24
			C266.51,176.88,266.82,177.13,267.15,177.35z"/>
	</g>
</g>
</svg>
