<?xml version="1.0" encoding="utf-8"?>
<!-- Generator: Adobe Illustrator 24.1.2, SVG Export Plug-In . SVG Version: 6.00 Build 0)  -->
<svg version="1.1" id="Warstwa_1" xmlns="http://www.w3.org/2000/svg" xmlns:xlink="http://www.w3.org/1999/xlink" x="0px" y="0px"
	 viewBox="0 0 430 430" style="enable-background:new 0 0 430 430;" xml:space="preserve">
<style type="text/css">
	.st0{fill:#121331;}
	.st1{fill:#08a88a;}
	.st2{fill:#08a88a;}
	.st3{fill:none;}
	.st4{fill:none;stroke:#121331;stroke-width:12;stroke-linecap:round;stroke-linejoin:round;stroke-miterlimit:10;}
	.st5{fill:#08A385;}
	.st6{fill:none;stroke:#08a88a;stroke-width:12;stroke-linecap:round;stroke-linejoin:round;stroke-miterlimit:10;}
</style>
<g>
	<g>
		<path class="st1" d="M215,347.35c-40.35,0-73.18-24.88-73.18-55.46c0-30.58,32.83-55.46,73.18-55.46s73.18,24.88,73.18,55.46
			C288.18,322.47,255.35,347.35,215,347.35z M215,248.43c-33.73,0-61.18,19.5-61.18,43.46c0,23.96,27.44,43.46,61.18,43.46
			s61.18-19.5,61.18-43.46C276.18,267.93,248.73,248.43,215,248.43z"/>
		<path class="st1" d="M215,312.13c-12.81,0-23.24-8.65-23.24-19.28c0-10.63,10.42-19.28,23.24-19.28s23.24,8.65,23.24,19.28
			C238.24,303.48,227.81,312.13,215,312.13z M215,285.56c-5.99,0-11.24,3.4-11.24,7.28c0,3.88,5.25,7.28,11.24,7.28
			s11.24-3.4,11.24-7.28C226.24,288.96,220.99,285.56,215,285.56z"/>
	</g>
	<path class="st0" d="M303.13,232.63l-36.73-49.08c8.09-1.91,14.13-9.17,14.13-17.83v-2.28c0-10.11-8.22-18.33-18.33-18.33h-38.2
		l21.22-47.74c0.52-0.12,1.03-0.28,1.52-0.48c0.6-0.25,1.18-0.56,1.73-0.92c0.54-0.36,1.06-0.78,1.52-1.24s0.88-0.98,1.24-1.52
		s0.67-1.13,0.92-1.73s0.44-1.23,0.57-1.87c0.11-0.52,0.16-1.05,0.18-1.58l39.53-27.9c2.71-1.91,3.35-5.65,1.44-8.36
		c-1.91-2.71-5.66-3.35-8.36-1.44l-39.47,27.85c-0.39-0.13-0.78-0.24-1.18-0.32c-1.29-0.26-2.62-0.26-3.91,0
		c-0.64,0.13-1.26,0.32-1.87,0.57c-0.6,0.25-1.18,0.56-1.73,0.92c-0.54,0.37-1.05,0.78-1.51,1.24c-0.47,0.47-0.88,0.98-1.25,1.53
		c-0.36,0.54-0.67,1.12-0.92,1.72c-0.25,0.61-0.44,1.23-0.57,1.87c-0.13,0.65-0.2,1.3-0.2,1.96c0,0.65,0.07,1.31,0.2,1.95
		c0.13,0.64,0.32,1.27,0.57,1.87c0.16,0.37,0.34,0.74,0.54,1.1l-23.35,52.53h-43.06c-10.11,0-18.33,8.22-18.33,18.33v2.28
		c0,8.66,6.04,15.92,14.13,17.83l-36.73,49.08c-14.04,16.07-21.46,35.16-21.46,55.24c0,51.22,49.16,92.89,109.58,92.89
		s109.58-41.67,109.58-92.89C324.58,267.8,317.17,248.7,303.13,232.63z M161.47,165.73v-2.28c0-3.49,2.84-6.33,6.33-6.33h46.92
		c0.01,0,0.02,0,0.03,0c0.01,0,0.01,0,0.02,0h47.41c3.49,0,6.33,2.84,6.33,6.33v2.28c0,3.49-2.84,6.33-6.33,6.33h-94.38
		C164.32,172.06,161.47,169.22,161.47,165.73z M215,368.77c-53.81,0-97.58-36.29-97.58-80.89c0-17.19,6.44-33.62,18.63-47.5
		c0.1-0.12,0.2-0.24,0.29-0.36l41.87-55.95h73.58l41.87,55.95c0.09,0.13,0.19,0.25,0.29,0.36c12.19,13.88,18.63,30.31,18.63,47.5
		C312.58,332.48,268.81,368.77,215,368.77z"/>
</g>
</svg>
