<?xml version="1.0" encoding="utf-8"?>
<!-- Generator: Adobe Illustrator 26.0.1, SVG Export Plug-In . SVG Version: 6.00 Build 0)  -->
<svg version="1.1" id="Warstwa_1" xmlns="http://www.w3.org/2000/svg" xmlns:xlink="http://www.w3.org/1999/xlink" x="0px" y="0px"
	 viewBox="0 0 500 500" style="enable-background:new 0 0 500 500;" xml:space="preserve">
<style type="text/css">
	.st0{fill:#08a88a;}
	.st1{fill:#121331;}
	.st2{fill:none;}
	.st3{fill:none;stroke:#08a88a;stroke-width:12;stroke-linecap:round;stroke-linejoin:round;stroke-miterlimit:10;}
</style>
<path class="st0" d="M385.97,382.8c-2.53,0-4.83-1.6-5.67-4.05c-12.74-36.98-43.3-68.99-90.82-95.16
	c-24.35-13.4-52.58-20.59-83.92-21.37c-3.31-0.08-5.93-2.83-5.85-6.15s2.85-5.92,6.15-5.85c33.27,0.82,63.35,8.51,89.41,22.85
	c39.26,21.61,67.64,47.25,84.72,76.47c-1.28-20.14-5.78-48.57-19.58-74.01c-1.07-1.97-0.95-4.37,0.31-6.23
	c1.26-1.86,3.44-2.85,5.67-2.59c43.91,5.18,69.96,23.34,74.73,26.92c2.68,1.94,3.29,5.7,1.35,8.38c-1.94,2.68-5.69,3.29-8.38,1.35
	l-0.18-0.13c-2.42-1.81-22.85-16.54-57.78-22.93c20.51,45.93,16.03,94.86,15.82,97.07c-0.27,2.81-2.47,5.04-5.27,5.38
	C386.44,382.79,386.2,382.8,385.97,382.8z"/>
<path class="st0" d="M437.61,304.53c-1.73,0-3.29-0.73-4.39-1.91c-0.5-0.54-0.91-1.17-1.19-1.88
	c-16.12-40.41-46.04-74.25-84.25-95.29c-45.72-25.16-98.29-30.34-148.03-14.58c-3.16,1-6.53-0.75-7.53-3.91
	c-1-3.16,0.75-6.53,3.91-7.53c25.65-8.13,52.19-11.02,78.88-8.6c27.63,2.51,54.06,10.62,78.57,24.1
	c40.56,22.33,72.34,58.23,89.52,101.12c0.34,0.75,0.53,1.59,0.53,2.47C443.61,301.84,440.93,304.53,437.61,304.53z"/>
<path class="st1" d="M213.35,306.77c-0.96,0-1.91-0.23-2.79-0.69l-54.12-28.46l-54.12,28.46c-2.02,1.06-4.47,0.88-6.32-0.46
	c-1.85-1.34-2.77-3.62-2.39-5.87l10.34-60.27L60.15,196.8c-1.63-1.59-2.22-3.98-1.52-6.15c0.71-2.17,2.58-3.75,4.84-4.08l60.51-8.79
	l27.06-54.83c1.01-2.05,3.1-3.34,5.38-3.34s4.37,1.3,5.38,3.34l27.06,54.83l60.51,8.79c2.26,0.33,4.14,1.91,4.84,4.08
	c0.71,2.17,0.12,4.56-1.52,6.15l-43.79,42.68l10.34,60.27c0.39,2.25-0.54,4.53-2.39,5.87C215.83,306.38,214.6,306.77,213.35,306.77z
	 M156.44,264.84c0.96,0,1.92,0.23,2.79,0.69l46.16,24.27l-8.82-51.4c-0.33-1.95,0.31-3.93,1.73-5.31l37.34-36.4l-51.61-7.5
	c-1.95-0.28-3.64-1.51-4.52-3.28l-23.08-46.76l-23.08,46.76c-0.87,1.77-2.56,3-4.52,3.28l-51.6,7.5l37.34,36.4
	c1.41,1.38,2.06,3.37,1.73,5.31l-8.82,51.4l46.16-24.27C154.52,265.07,155.48,264.84,156.44,264.84z"/>
</svg>
