<?xml version="1.0" encoding="utf-8"?>
<!-- Generator: Adobe Illustrator 25.0.1, SVG Export Plug-In . SVG Version: 6.00 Build 0)  -->
<svg version="1.1" id="Layer_1" xmlns="http://www.w3.org/2000/svg" xmlns:xlink="http://www.w3.org/1999/xlink" x="0px" y="0px"
	 viewBox="0 0 430 430" style="enable-background:new 0 0 430 430;" xml:space="preserve">
<style type="text/css">
	.st0{fill:#121331;}
	.st1{fill:#08a88a;}
</style>
<path class="st0" d="M215,377.2c-3.3,0-6-2.7-6-6V233c0-3.3,2.7-6,6-6s6,2.7,6,6v138.2C221,374.6,218.3,377.2,215,377.2z"/>
<path class="st0" d="M254.4,377.2h-78.8c-3.3,0-6-2.7-6-6s2.7-6,6-6h78.8c3.3,0,6,2.7,6,6S257.7,377.2,254.4,377.2z"/>
<path class="st1" d="M293.4,171H136.7c-3.3,0-6-2.7-6-6s2.7-6,6-6h156.7c3.3,0,6,2.7,6,6S296.7,171,293.4,171z"/>
<path class="st0" d="M223.8,239h-17.7c-22.7,0-44-10.1-58.4-27.7c-14.4-17.6-20.1-40.5-15.6-62.8l18.4-90.9c0.6-2.8,3-4.8,5.9-4.8
	h113.8c2.8,0,5.2,1.9,5.8,4.6l21.2,88.5c5.4,22.6,0.3,46.1-14.1,64.4C268.7,228.5,247.1,239,223.8,239z M161.3,64.8l-17.4,86.1
	c-3.8,18.8,1,38,13.1,52.8c12.1,14.8,30,23.3,49.2,23.3h17.7c19.6,0,37.7-8.8,49.9-24.2c12.1-15.4,16.5-35.1,11.9-54.1l-20.1-83.9
	H161.3z"/>
</svg>
