<?xml version="1.0" encoding="utf-8"?>
<!-- Generator: Adobe Illustrator 25.0.1, SVG Export Plug-In . SVG Version: 6.00 Build 0)  -->
<svg version="1.1" id="Layer_1" xmlns="http://www.w3.org/2000/svg" xmlns:xlink="http://www.w3.org/1999/xlink" x="0px" y="0px"
	 viewBox="0 0 430 430" style="enable-background:new 0 0 430 430;" xml:space="preserve">
<style type="text/css">
	.st0{fill:#08a88a;}
	.st1{fill:#121331;}
</style>
<g>
	<path class="st0" d="M305.2,168H124.8c-3.3,0-6-2.7-6-6s2.7-6,6-6h180.4c3.3,0,6,2.7,6,6S308.5,168,305.2,168z"/>
	<path class="st1" d="M274.3,354.6H155.7c-10.6,0-20-8.4-21.4-19.2l-29-224.8c-1.4-10.9,1.2-21.5,7.1-28.1c4-4.6,9.4-7.1,15.2-7.1
		h174.8c5.7,0,11.1,2.5,15.2,7.1c5.9,6.7,8.5,17.2,7.1,28.1l-29,224.8C294.3,346.2,284.9,354.6,274.3,354.6z M127.6,87.4
		c-2.3,0-4.4,1-6.2,3.1c-3.6,4.1-5.2,11.2-4.2,18.7l29,224.8c0.6,4.7,4.9,8.7,9.4,8.7h118.6c4.5,0,8.8-4,9.5-8.7l29-224.8
		c1-7.5-0.7-14.6-4.2-18.7c-1.8-2-3.9-3.1-6.2-3.1H127.6z"/>
</g>
</svg>
