<?xml version="1.0" encoding="utf-8"?>
<!-- Generator: Adobe Illustrator 25.0.1, SVG Export Plug-In . SVG Version: 6.00 Build 0)  -->
<svg version="1.1" id="Layer_1" xmlns="http://www.w3.org/2000/svg" xmlns:xlink="http://www.w3.org/1999/xlink" x="0px" y="0px"
	 viewBox="0 0 430 430" style="enable-background:new 0 0 430 430;" xml:space="preserve">
<style type="text/css">
	.st0{fill:#121331;}
	.st1{fill:#08a88a;}
</style>
<path class="st0" d="M277.9,358.5h-182c-3.1,0-5.7-2.4-6-5.4L71.5,153.6c-0.3-3.3,2.1-6.2,5.4-6.5c3.3-0.3,6.2,2.1,6.5,5.4l18,194
	h171.1l10.4-112.7c0.3-3.3,3.2-5.7,6.5-5.4c3.3,0.3,5.7,3.2,5.4,6.5L283.9,353C283.6,356.1,281,358.5,277.9,358.5z"/>
<path class="st0" d="M291.4,213.7c-0.2,0-0.4,0-0.6,0c-3.3-0.3-5.7-3.2-5.4-6.5l5.2-56.1c0.3-3.1,2.8-5.5,6-5.5c3.3,0,6,2.7,6,6
	c0,0.2,0,0.4,0,0.6l-5.2,56.2C297,211.4,294.4,213.7,291.4,213.7z"/>
<path class="st0" d="M254.3,175.5H118.1c-41.7,0-66.9-37.9-72.6-73.1c-3.1-19.2,1.6-38,13.3-52.8c11.8-15,29-24,48.6-25.5
	c52.3-4,105.3-4,157.6,0c27.4,2.1,52.4,20.3,60.7,44.4c7.9,23,2.8,51.5-13.5,74.3C297.3,163.5,276.2,175.5,254.3,175.5z M186.2,33.1
	c-26,0-52,1-77.9,2.9c-16.2,1.2-30.4,8.7-40,20.9c-9.6,12.2-13.5,27.6-10.9,43.5c4.9,30.4,26,63,60.7,63h136.2
	c18,0,35.5-10.1,48.1-27.7c14.1-19.7,18.6-44,11.9-63.4C307.6,53,286.5,37.7,264,36C238.2,34,212.2,33.1,186.2,33.1z"/>
<path class="st0" d="M313.7,409H60.2c-3.3,0-6-2.7-6-6v-14.5c0-23.2,18.8-42,42-42h181.5c23.2,0,42,18.8,42,42V403
	C319.7,406.3,317,409,313.7,409z M66.2,397h241.5v-8.5c0-16.5-13.5-30-30-30H96.2c-16.5,0-30,13.5-30,30V397z"/>
<path class="st0" d="M228.9,206.2h-84c-3.3,0-6-2.7-6-6v-30.7c0-3.3,2.7-6,6-6h84c3.3,0,6,2.7,6,6v30.7
	C234.9,203.5,232.3,206.2,228.9,206.2z M150.9,194.2h72v-18.7h-72V194.2z"/>
<path class="st0" d="M220.3,239.5h-66.7c-3.3,0-6-2.7-6-6v-33.3c0-3.3,2.7-6,6-6h66.7c3.3,0,6,2.7,6,6v33.3
	C226.3,236.8,223.6,239.5,220.3,239.5z M159.6,227.5h54.7v-21.3h-54.7V227.5z"/>
<path class="st0" d="M264.4,227h-44.1c-3.3,0-6-2.7-6-6s2.7-6,6-6h44.1c3.3,0,6,2.7,6,6S267.8,227,264.4,227z"/>
<path class="st0" d="M366.1,240.4h-88.3c-10.7,0-19.3-8.7-19.3-19.3c0-10.7,8.7-19.3,19.3-19.3h88.3c10.7,0,19.3,8.7,19.3,19.3
	C385.4,231.7,376.8,240.4,366.1,240.4z M277.8,213.7c-4,0-7.3,3.3-7.3,7.3c0,4,3.3,7.3,7.3,7.3h88.3c4,0,7.3-3.3,7.3-7.3
	c0-4-3.3-7.3-7.3-7.3H277.8z"/>
<g>
	<path class="st0" d="M186.9,142.2c-24.7,0-44.8-20.1-44.8-44.8s20.1-44.8,44.8-44.8s44.8,20.1,44.8,44.8S211.6,142.2,186.9,142.2z
		 M186.9,64.7c-18.1,0-32.8,14.7-32.8,32.8s14.7,32.8,32.8,32.8s32.8-14.7,32.8-32.8S205,64.7,186.9,64.7z"/>
	<path class="st1" d="M186.9,105.3c-4.4,0-8-3.6-8-8s3.6-8,8-8s8,3.6,8,8S191.3,105.3,186.9,105.3z M186.9,93.3c-2.2,0-4,1.8-4,4
		s1.8,4,4,4s4-1.8,4-4S189.1,93.3,186.9,93.3z"/>
	<path class="st1" d="M186.9,103.4c-3.3,0-6-2.7-6-6V81c0-3.3,2.7-6,6-6s6,2.7,6,6v16.4C192.9,100.7,190.3,103.4,186.9,103.4z"/>
</g>
<path class="st0" d="M125.3,132.7h-0.2c-3.3,0-6-2.7-6-6s2.7-6,6-6h0.2c3.3,0,6,2.7,6,6S128.6,132.7,125.3,132.7z"/>
<path class="st0" d="M95.8,132.7h-0.2c-3.3,0-6-2.7-6-6s2.7-6,6-6h0.2c3.3,0,6,2.7,6,6S99.1,132.7,95.8,132.7z"/>
<g>
	<path class="st0" d="M108.5,222.4c-3.3,0-6-2.7-6-6v-47.3c0-3.3,2.7-6,6-6s6,2.7,6,6v47.3C114.5,219.7,111.8,222.4,108.5,222.4z"/>
	<path class="st0" d="M70.8,260.6c-1.5,0-3-0.6-4.2-1.7c-2.4-2.3-2.4-6.1-0.1-8.5l37.7-38.2c2.3-2.4,6.1-2.4,8.5-0.1
		c2.4,2.3,2.4,6.1,0.1,8.5l-37.7,38.2C73.9,260,72.4,260.6,70.8,260.6z"/>
</g>
<g>
	<path class="st1" d="M191.6,358.5h-11.4c-23.1,0-41.9-18.8-41.9-41.9v-46c0-3.3,2.7-6,6-6h83.2c3.3,0,6,2.7,6,6v46
		C233.5,339.7,214.7,358.5,191.6,358.5z M150.3,276.7v40c0,16.5,13.4,29.9,29.9,29.9h11.4c16.5,0,29.9-13.4,29.9-29.9v-40H150.3z"/>
	<path class="st1" d="M235.9,323.6c-3.3,0-6.5-0.4-9.3-0.8c-3.3-0.5-5.5-3.6-5-6.8s3.6-5.5,6.8-5c4.4,0.7,10.7,1.3,14.8-0.6
		c2.8-1.3,5.8-4.7,6.1-8.9c0.3-4.8-3.1-8.9-6.6-10.5c-3.3-1.5-8.4-1.1-12.7,0.9c-3,1.4-6.6,0.1-8-2.9c-1.4-3-0.1-6.6,2.9-8
		c5.9-2.7,14.9-4.4,22.6-0.9c7,3.1,14.3,11.4,13.7,22.2c-0.6,9.8-7.3,16.4-12.9,19.1C244.4,323,240.1,323.6,235.9,323.6z"/>
</g>
</svg>
