<?xml version="1.0" encoding="utf-8"?>
<!-- Generator: Adobe Illustrator 24.0.2, SVG Export Plug-In . SVG Version: 6.00 Build 0)  -->
<svg version="1.1" xmlns="http://www.w3.org/2000/svg" xmlns:xlink="http://www.w3.org/1999/xlink" x="0px" y="0px"
	 viewBox="0 0 24 24" style="enable-background:new 0 0 24 24;" xml:space="preserve">
<style type="text/css">
	.st0{fill:none;}
	.st1{fill:#121331;}
</style>
<g id="bounding_box">
	<rect class="st0" width="24" height="24"/>
</g>
<g id="design">
	<g>
		<path class="st1" d="M12,14.5c-0.41,0-0.75-0.33-0.75-0.75c0-1.15,0.62-2.23,1.66-2.88c0.56-0.35,1.02-1.12,0.78-2.06
			c-0.15-0.6-0.64-1.1-1.21-1.25c-0.54-0.14-1.08-0.04-1.51,0.29c-0.45,0.35-0.71,0.88-0.71,1.46c0,0.41-0.34,0.75-0.75,0.75
			S8.75,9.73,8.75,9.32c0-1.05,0.47-2.02,1.29-2.65c0.8-0.61,1.82-0.82,2.81-0.55c1.1,0.29,2,1.21,2.28,2.34
			c0.36,1.44-0.22,2.92-1.44,3.69c-0.6,0.37-0.95,0.97-0.95,1.61C12.75,14.16,12.41,14.5,12,14.5z"/>
		<path class="st1" d="M12,18c-0.13,0-0.26-0.03-0.38-0.08s-0.23-0.12-0.33-0.21C11.1,17.52,11,17.27,11,17
			c0-0.06,0.01-0.13,0.02-0.19c0.01-0.07,0.03-0.13,0.06-0.19c0.02-0.06,0.05-0.12,0.09-0.18c0.03-0.05,0.08-0.1,0.12-0.15
			c0.24-0.23,0.58-0.34,0.9-0.27c0.07,0.01,0.13,0.03,0.19,0.06c0.06,0.02,0.12,0.05,0.17,0.09c0.06,0.03,0.11,0.08,0.16,0.12
			c0.04,0.05,0.08,0.1,0.12,0.15c0.04,0.06,0.07,0.12,0.09,0.18c0.03,0.06,0.05,0.12,0.06,0.19C12.99,16.87,13,16.94,13,17
			c0,0.27-0.1,0.52-0.29,0.71C12.52,17.9,12.27,18,12,18z"/>
		<path class="st1" d="M12,22C6.49,22,2,17.51,2,12C2,6.49,6.49,2,12,2s10,4.49,10,10C22,17.51,17.51,22,12,22z M12,3.5
			c-4.69,0-8.5,3.81-8.5,8.5c0,4.69,3.81,8.5,8.5,8.5s8.5-3.81,8.5-8.5C20.5,7.31,16.69,3.5,12,3.5z"/>
	</g>
</g>
</svg>
