<?xml version="1.0" encoding="utf-8"?>
<!-- Generator: Adobe Illustrator 24.0.2, SVG Export Plug-In . SVG Version: 6.00 Build 0)  -->
<svg version="1.1" xmlns="http://www.w3.org/2000/svg" xmlns:xlink="http://www.w3.org/1999/xlink" x="0px" y="0px"
	 viewBox="0 0 24 24" style="enable-background:new 0 0 24 24;" xml:space="preserve">
<style type="text/css">
	.st0{fill:none;}
	.st1{fill:#121331;}
</style>
<g id="bounding_box">
	<rect y="0" class="st0" width="24" height="24"/>
</g>
<g id="design">
	<g>
		<g>
			<path class="st1" d="M12,5L12,5c-0.66,0-1.19,0.53-1.19,1.19v0.63C10.81,7.47,11.34,8,12,8h0.59c0.33,0,0.59-0.27,0.59-0.59V6.19
				C13.19,5.53,12.66,5,12,5z"/>
			<path class="st1" d="M12,5c-0.66,0-1.19,0.53-1.19,1.19v0.63C10.81,7.47,11.34,8,12,8h0.59c0.33,0,0.59-0.27,0.59-0.59V6.19
				C13.19,5.53,12.66,5,12,5L12,5z"/>
		</g>
		<path class="st1" d="M17.45,13.26c-0.15,0.14-0.34,0.22-0.53,0.22c-0.2,0-0.38-0.08-0.53-0.22l-1.8-1.8
			c-0.13-0.13-0.34-0.04-0.34,0.14v6.69c0,0.41-0.34,0.75-0.75,0.75h-0.01c-0.41,0-0.75-0.34-0.75-0.75v-4.04
			c0-0.41-0.33-0.75-0.74-0.75s-0.74,0.34-0.74,0.75v4.04c0,0.41-0.34,0.75-0.75,0.75H10.5c-0.41,0-0.75-0.34-0.75-0.75V11.6
			c0-0.18-0.22-0.27-0.34-0.14l-1.8,1.8c-0.15,0.14-0.33,0.22-0.53,0.22c-0.19,0-0.38-0.08-0.53-0.22c-0.29-0.29-0.29-0.77,0-1.06
			l2.61-2.61C9.54,9.21,10.05,9,10.58,9h2.84c0.53,0,1.04,0.21,1.41,0.59l2.61,2.61C17.74,12.49,17.74,12.97,17.45,13.26z"/>
		<path class="st1" d="M12,22C6.49,22,2,17.51,2,12C2,6.49,6.49,2,12,2s10,4.49,10,10C22,17.51,17.51,22,12,22z M12,3.5
			c-4.69,0-8.5,3.81-8.5,8.5c0,4.69,3.81,8.5,8.5,8.5s8.5-3.81,8.5-8.5C20.5,7.31,16.69,3.5,12,3.5z"/>
	</g>
</g>
</svg>
