<?xml version="1.0" encoding="utf-8"?>
<!-- Generator: Adobe Illustrator 24.0.2, SVG Export Plug-In . SVG Version: 6.00 Build 0)  -->
<svg version="1.1" xmlns="http://www.w3.org/2000/svg" xmlns:xlink="http://www.w3.org/1999/xlink" x="0px" y="0px"
	 viewBox="0 0 24 24" style="enable-background:new 0 0 24 24;" xml:space="preserve">
<style type="text/css">
	.st0{fill:none;}
	.st1{fill:#121331;}
</style>
<g id="bounding_area">
	<rect class="st0" width="24" height="24"/>
</g>
<g id="design">
	<path class="st1" d="M20.59,14.48c-0.38-0.19-0.83-0.03-1.01,0.33c-1.33,2.65-3.91,4.4-6.83,4.66V13.5h2.5
		c0.41,0,0.75-0.34,0.75-0.75c0-0.41-0.34-0.75-0.75-0.75h-2.5V9.92c1.57-0.35,2.75-1.75,2.75-3.42C15.5,4.57,13.93,3,12,3
		S8.5,4.57,8.5,6.5c0,1.67,1.18,3.07,2.75,3.42V12h-2.5C8.34,12,8,12.34,8,12.75c0,0.41,0.34,0.75,0.75,0.75h2.5v5.96
		c-2.89-0.26-5.51-2.01-6.83-4.63c-0.19-0.37-0.64-0.52-1.01-0.33c-0.37,0.19-0.52,0.64-0.33,1.01C4.77,18.86,8.27,21,12.02,21h0.22
		c3.7-0.09,7.03-2.21,8.68-5.51C21.11,15.12,20.96,14.67,20.59,14.48z M10,6.5c0-1.1,0.9-2,2-2s2,0.9,2,2c0,1.1-0.9,2-2,2
		S10,7.6,10,6.5z"/>
</g>
</svg>
