<?xml version="1.0" encoding="utf-8"?>
<!-- Generator: Adobe Illustrator 24.1.2, SVG Export Plug-In . SVG Version: 6.00 Build 0)  -->
<svg version="1.1" id="Warstwa_1" xmlns="http://www.w3.org/2000/svg" xmlns:xlink="http://www.w3.org/1999/xlink" x="0px" y="0px"
	 viewBox="0 0 430 430" style="enable-background:new 0 0 430 430;" xml:space="preserve">
<style type="text/css">
	.st0{fill:#121331;}
	.st1{fill:#08a88a;}
	.st2{fill:#08a88a;}
	.st3{fill:none;}
	.st4{fill:none;stroke:#121331;stroke-width:12;stroke-linecap:round;stroke-linejoin:round;stroke-miterlimit:10;}
	.st5{fill:none;stroke:#08a88a;stroke-width:12;stroke-linecap:round;stroke-linejoin:round;stroke-miterlimit:10;}
	.st6{fill:#08A385;}
</style>
<g>
	<g>
		<path class="st2" d="M220.14,113.87h-8.99c-7.86,0-14.25,6.39-14.25,14.25v3.5c0,3.31,2.69,6,6,6s6-2.69,6-6v-3.5
			c0-1.22,1.03-2.25,2.25-2.25h8.99c1.22,0,2.25,1.03,2.25,2.25v3.1c0,3.31,2.69,6,6,6s6-2.69,6-6v-3.1
			C234.39,120.26,228,113.87,220.14,113.87z"/>
		<path class="st2" d="M150.68,206.41h-10.38c-3.31,0-6,2.69-6,6s2.69,6,6,6h10.38c3.48,0,6.31,2.83,6.31,6.31v59.61
			c0,3.48-2.83,6.31-6.31,6.31h-10.38c-3.31,0-6,2.69-6,6s2.69,6,6,6h10.38c10.1,0,18.31-8.21,18.31-18.31v-59.61
			C168.99,214.62,160.77,206.41,150.68,206.41z"/>
		<path class="st2" d="M281.22,218.41H291c3.31,0,6-2.69,6-6s-2.69-6-6-6h-9.78c-10.1,0-18.31,8.21-18.31,18.31v59.61
			c0,10.1,8.21,18.31,18.31,18.31H291c3.31,0,6-2.69,6-6s-2.69-6-6-6h-9.78c-3.48,0-6.31-2.83-6.31-6.31v-59.61
			C274.91,221.24,277.74,218.41,281.22,218.41z"/>
		<path class="st2" d="M321.69,171.06c-2.61,2.04-3.07,5.81-1.03,8.42c8.52,10.88,13.02,23.96,13.02,37.82s-4.5,26.94-13.02,37.82
			c-2.04,2.61-1.58,6.38,1.03,8.42c1.1,0.86,2.4,1.28,3.69,1.28c1.78,0,3.54-0.79,4.73-2.3c10.19-13.01,15.57-28.65,15.57-45.22
			s-5.38-32.2-15.57-45.22C328.07,169.48,324.3,169.02,321.69,171.06z"/>
		<path class="st2" d="M358.06,151.33c-2.04-2.61-5.81-3.07-8.42-1.03c-2.61,2.04-3.07,5.81-1.03,8.42
			c13.19,16.86,20.16,37.11,20.16,58.58s-6.97,41.72-20.16,58.58c-2.04,2.61-1.58,6.38,1.03,8.42c1.1,0.86,2.4,1.27,3.69,1.27
			c1.78,0,3.55-0.79,4.73-2.3c14.85-18.99,22.7-41.8,22.7-65.97S372.91,170.32,358.06,151.33z"/>
		<path class="st2" d="M108.31,171.06c-2.61-2.04-6.38-1.58-8.42,1.03C89.7,185.1,84.31,200.74,84.31,217.3s5.38,32.2,15.57,45.22
			c1.18,1.51,2.95,2.3,4.73,2.3c1.29,0,2.6-0.42,3.69-1.28c2.61-2.04,3.07-5.81,1.03-8.42c-8.52-10.88-13.02-23.96-13.02-37.82
			s4.5-26.94,13.02-37.82C111.38,176.87,110.92,173.1,108.31,171.06z"/>
		<path class="st2" d="M80.36,150.3c-2.61-2.04-6.38-1.58-8.42,1.03c-14.85,18.99-22.7,41.8-22.7,65.97s7.85,46.98,22.7,65.97
			c1.18,1.51,2.95,2.3,4.73,2.3c1.29,0,2.6-0.42,3.69-1.27c2.61-2.04,3.07-5.81,1.03-8.42c-13.19-16.86-20.16-37.11-20.16-58.58
			s6.97-41.72,20.16-58.58C83.43,156.11,82.97,152.34,80.36,150.3z"/>
	</g>
	<g>
		<path class="st0" d="M277.18,135.04c-24.1-10.65-63.53-12.8-95.94-6.69v-54.8c0-12.94-10.53-23.47-23.47-23.47
			s-23.47,10.53-23.47,23.47v93.14c0,0.02,0,0.04,0,0.05v172.67c0,13.2,7.78,25.17,19.82,30.48c15.25,6.73,36.62,10.08,58.48,10.08
			c23.13,0,46.79-3.74,64.28-11.17C289.1,363.62,297,351.6,297,338.19V165.52C297,152.32,289.22,140.36,277.18,135.04z
			 M146.29,73.54c0-6.32,5.15-11.47,11.47-11.47s11.47,5.15,11.47,11.47v57.54c-5.28,1.43-10.27,3.11-14.82,5.05
			c-2.98,1.27-5.7,2.94-8.12,4.94V73.54z M285,338.19c0,8.58-5.03,16.26-12.81,19.57c-30.92,13.12-84.88,13.68-113.22,1.16
			c-7.7-3.4-12.67-11.06-12.67-19.51V170.68c0-0.01,0-0.03,0-0.04v-3.96c0.02-8.56,5.04-16.21,12.81-19.51
			c15.98-6.78,38.1-10.21,59.67-10.21c20.17,0,39.86,3,53.55,9.05c7.7,3.4,12.67,11.06,12.67,19.5V338.19z"/>
		<path class="st0" d="M250.27,158.89h-69.25c-3.31,0-6,2.69-6,6v41.07c0,3.31,2.69,6,6,6h69.25c3.31,0,6-2.69,6-6v-41.07
			C256.27,161.58,253.58,158.89,250.27,158.89z M244.27,199.96h-57.25v-29.07h57.25V199.96z"/>
		<path class="st0" d="M215.65,232.78c-10.86,0-19.69,8.83-19.69,19.69s8.83,19.69,19.69,19.69s19.69-8.83,19.69-19.69
			S226.5,232.78,215.65,232.78z M215.65,260.16c-4.24,0-7.69-3.45-7.69-7.69s3.45-7.69,7.69-7.69s7.69,3.45,7.69,7.69
			S219.88,260.16,215.65,260.16z"/>
		<path class="st0" d="M195.31,288.46c-3.31,0-6,2.69-6,6s2.69,6,6,6s6-2.69,6-6S198.64,288.46,195.31,288.46L195.31,288.46z"/>
		<path class="st0" d="M215.97,288.46c-3.31,0-6,2.69-6,6s2.69,6,6,6s6-2.69,6-6S219.3,288.46,215.97,288.46L215.97,288.46z"/>
		<path class="st0" d="M236.64,300.46c3.31,0,6-2.69,6-6s-2.69-6-6-6h-0.01c-3.31,0-6,2.69-6,6S233.33,300.46,236.64,300.46z"/>
		<path class="st0" d="M184.66,311.88L184.66,311.88c-3.32,0-6,2.69-6,6s2.69,6,6,6s6-2.69,6-6S187.97,311.88,184.66,311.88z"/>
		<path class="st0" d="M205.32,311.88L205.32,311.88c-3.32,0-6,2.69-6,6s2.69,6,6,6s6-2.69,6-6S208.63,311.88,205.32,311.88z"/>
		<path class="st0" d="M225.98,311.88L225.98,311.88c-3.32,0-6,2.69-6,6s2.69,6,6,6s6-2.69,6-6S229.29,311.88,225.98,311.88z"/>
		<path class="st0" d="M246.64,311.88L246.64,311.88c-3.32,0-6,2.69-6,6s2.69,6,6,6s6-2.69,6-6S249.95,311.88,246.64,311.88z"/>
		<path class="st0" d="M195.19,335.15L195.19,335.15c-3.32,0-6,2.69-6,6s2.69,6,6,6s6-2.69,6-6S198.5,335.15,195.19,335.15z"/>
		<path class="st0" d="M215.85,335.15L215.85,335.15c-3.32,0-6,2.69-6,6s2.69,6,6,6s6-2.69,6-6S219.16,335.15,215.85,335.15z"/>
		<path class="st0" d="M236.51,335.15L236.51,335.15c-3.32,0-6,2.69-6,6s2.69,6,6,6s6-2.69,6-6S239.82,335.15,236.51,335.15z"/>
	</g>
</g>
</svg>
