<?xml version="1.0" encoding="utf-8"?>
<!-- Generator: Adobe Illustrator 24.1.2, SVG Export Plug-In . SVG Version: 6.00 Build 0)  -->
<svg version="1.1" id="Warstwa_1" xmlns="http://www.w3.org/2000/svg" xmlns:xlink="http://www.w3.org/1999/xlink" x="0px" y="0px"
	 viewBox="0 0 430 430" style="enable-background:new 0 0 430 430;" xml:space="preserve">
<style type="text/css">
	.st0{fill:#121331;}
	.st1{fill:#08a88a;}
	.st2{fill:#08a88a;}
	.st3{fill:none;}
	.st4{fill:none;stroke:#121331;stroke-width:12;stroke-linecap:round;stroke-linejoin:round;stroke-miterlimit:10;}
	.st5{fill:none;stroke:#08a88a;stroke-width:12;stroke-linecap:round;stroke-linejoin:round;stroke-miterlimit:10;}
	.st6{fill:#08A385;}
</style>
<g>
	<g>
		<path class="st0" d="M367.07,158.66l-34.24-27.65v-36.1c0-1.69-0.71-3.3-1.97-4.44c-1.25-1.14-2.92-1.69-4.61-1.53
			c-10.76,1.04-20.59,7.5-29.2,19.23c-21.3,28.97-56.77,44.6-92.57,40.79c-16.73-1.78-32.47-6.12-45.68-12.57
			c-4.94-13.9-17.28-23.68-32.16-25.21c-19.56-2-37.38,11.44-41.46,31.28c-10.09,49.05-24.65,64.15-32.43,68.79
			c-5.82,3.47-9.99,2.58-10.62,2.42c-2.44-1-5.1-0.24-6.77,1.81c-1.69,2.06-1.67,5.05-0.16,7.25c0.16,0.24,12.32,17.48,35.61,17.48
			c8.42,0,18.29-2.25,29.58-8.38c11.97-6.5,19.77-19.05,26.66-30.14c2.34-3.76,4.62-7.42,6.88-10.56c0.54,3.06,1.27,6.1,2.23,9.1
			c1.68,5.26,2.5,10.97,2.44,16.98c-0.16,13.42-4.16,22-7.16,27.28l0.03,0.02c-1.53,2.32-5.96,9.28-20.23,31.72l-12.08,19
			c-1.78,2.8-0.95,6.5,1.84,8.28c1,0.63,2.11,0.94,3.21,0.94c1.98,0,3.92-0.98,5.07-2.78l12.08-19
			c8.81-13.85,19.75-31.06,20.31-31.92c0.07-0.11,0.14-0.22,0.21-0.34c3.65-6.44,8.53-16.88,8.72-33.07
			c0.08-7.3-0.93-14.28-3.01-20.76c-1.95-6.08-2.84-12.35-2.65-18.63c0-0.02,0-0.04,0-0.06c0.33-10.89,3.96-21.37,10.29-29.9
			c14.09,6.61,30.58,11.05,47.98,12.9c3.99,0.43,7.97,0.63,11.94,0.63c35.83,0,70.11-17.08,91.56-46.24
			c4.51-6.13,9.23-10.34,14.11-12.58v31.18c0,1.81,0.82,3.53,2.23,4.67L359.53,168c4.13,3.33,6.5,8.29,6.5,13.6
			c0,4.02-1.34,7.8-3.88,10.94c-2.93,3.63-7.1,5.91-11.73,6.4c-4.63,0.5-9.19-0.84-12.82-3.77l-22.39-18.08
			c-1.29-1.04-2.95-1.5-4.58-1.28c-1.64,0.22-3.11,1.12-4.07,2.46c-7.32,10.28-11.04,23.4-11.04,38.99c0,11.22,4.82,18.63,9.49,25.8
			c1.02,1.56,2.07,3.18,3.05,4.79l31.51,53.18c1.69,2.85,5.37,3.79,8.22,2.1c2.85-1.69,3.79-5.37,2.1-8.22l-31.55-53.23
			c-1.11-1.83-2.21-3.52-3.28-5.16c-4.38-6.73-7.54-11.6-7.54-19.25c0-10.31,1.85-19.2,5.51-26.52l17.04,13.76
			c6.13,4.94,13.81,7.2,21.63,6.36c7.82-0.84,14.85-4.67,19.79-10.8c4.21-5.22,6.54-11.78,6.54-18.48
			C378.03,172.63,374.04,164.27,367.07,158.66z M116.86,195.35c-6.4,10.3-13.01,20.94-22.19,25.92c-18.97,10.3-32.36,7.2-40.41,2.58
			c1.22-0.49,2.49-1.09,3.79-1.82c17.25-9.65,30.34-35.61,38.89-77.17c2.79-13.55,15.3-23.11,28.49-21.76
			c9.72,1,17.86,7.14,21.55,15.96c-8,10.02-12.84,22.4-13.85,35.38C126.89,179.21,122,187.07,116.86,195.35z"/>
		<path class="st0" d="M291.46,278.63c-0.08-0.14-0.17-0.27-0.27-0.4c-16.15-22.48-33.71-37.44-66.86-37.44
			c-34.25,0-52.05,18.16-66.18,37.78c-0.13,0.17-0.24,0.35-0.35,0.54l-21.08,37.03c-1.64,2.88-0.63,6.54,2.25,8.18
			c0.94,0.53,1.96,0.79,2.96,0.79c2.09,0,4.11-1.09,5.22-3.03l20.93-36.75c14.52-20.09,29.04-32.53,56.26-32.53
			c24.57,0,40.03,8.75,56.98,32.25l21.91,36.33c1.71,2.84,5.4,3.75,8.24,2.04c2.84-1.71,3.75-5.4,2.04-8.24L291.46,278.63z"/>
	</g>
	<path class="st2" d="M224.16,341.09c-72.22,0-137.67-33.58-170.81-87.65c-1.73-2.83-0.85-6.52,1.98-8.25
		c2.83-1.73,6.52-0.84,8.25,1.98c30.97,50.53,92.5,81.92,160.58,81.92s129.61-31.39,160.58-81.92c1.73-2.82,5.43-3.71,8.25-1.98
		c2.83,1.73,3.71,5.43,1.98,8.25C361.83,307.5,296.38,341.09,224.16,341.09z"/>
</g>
</svg>
