<?xml version="1.0" encoding="utf-8"?>
<!-- Generator: Adobe Illustrator 26.0.1, SVG Export Plug-In . SVG Version: 6.00 Build 0)  -->
<svg version="1.1" id="Warstwa_1" xmlns="http://www.w3.org/2000/svg" xmlns:xlink="http://www.w3.org/1999/xlink" x="0px" y="0px"
	 viewBox="0 0 500 500" style="enable-background:new 0 0 500 500;" xml:space="preserve">
<style type="text/css">
	.st0{fill:#08a88a;}
	.st1{fill:#121331;}
	.st2{fill:none;}
	.st3{fill:none;stroke:#08a88a;stroke-width:12;stroke-linecap:round;stroke-linejoin:round;stroke-miterlimit:10;}
</style>
<g>
	<path class="st0" d="M328.38,376.58c-1.02,0-2.05-0.26-2.99-0.8c-2.87-1.66-3.85-5.33-2.2-8.2l26.44-45.79
		c1.66-2.87,5.33-3.85,8.2-2.2c2.87,1.66,3.85,5.33,2.2,8.2l-26.44,45.79C332.48,375.51,330.46,376.58,328.38,376.58z"/>
	<path class="st0" d="M309.15,304.79c-1.02,0-2.05-0.26-2.99-0.8c-2.87-1.66-3.85-5.33-2.2-8.2L330.39,250
		c1.66-2.87,5.33-3.85,8.2-2.2c2.87,1.66,3.85,5.33,2.2,8.2l-26.44,45.79C313.24,303.72,311.22,304.79,309.15,304.79z"/>
	<path class="st0" d="M289.91,233c-1.02,0-2.05-0.26-2.99-0.8c-2.87-1.66-3.85-5.33-2.2-8.2l26.44-45.79
		c1.66-2.87,5.33-3.85,8.2-2.2c2.87,1.66,3.85,5.33,2.2,8.2L295.11,230C294,231.93,291.99,233,289.91,233z"/>
	<path class="st0" d="M269.71,162.89c-1.02,0-2.05-0.26-2.99-0.8c-2.87-1.66-3.85-5.33-2.2-8.2l20.56-35.6
		c1.66-2.87,5.33-3.85,8.2-2.2c2.87,1.66,3.85,5.33,2.2,8.2l-20.56,35.6C273.8,161.82,271.78,162.89,269.71,162.89z"/>
	<path class="st0" d="M226.17,133.19c-1.02,0-2.05-0.26-2.99-0.8c-2.87-1.66-3.85-5.33-2.2-8.2l19.66-34.06
		c1.66-2.87,5.33-3.85,8.2-2.2c2.87,1.66,3.85,5.33,2.2,8.2l-19.66,34.06C230.26,132.11,228.25,133.19,226.17,133.19z"/>
	<path class="st0" d="M186.97,143.62c-1.02,0-2.05-0.26-3-0.81l-34.08-19.69c-2.87-1.66-3.85-5.33-2.19-8.2
		c1.66-2.87,5.33-3.85,8.2-2.19l34.08,19.69c2.87,1.66,3.85,5.33,2.19,8.2C191.06,142.54,189.04,143.62,186.97,143.62z"/>
	<path class="st0" d="M164.46,181.04c-1.02,0-2.05-0.26-2.99-0.8l-33.79-19.51c-2.87-1.66-3.85-5.33-2.2-8.2
		c1.66-2.87,5.33-3.85,8.2-2.2l33.79,19.51c2.87,1.66,3.85,5.33,2.2,8.2C168.55,179.97,166.53,181.04,164.46,181.04z"/>
	<path class="st1" d="M338.84,415.59c-2.65,0-5.07-1.77-5.79-4.45l-64.62-241.15c-0.96-3.59-2.32-7.06-4.03-10.3
		c-7.74-14.78-22.27-24.69-38.89-26.54c-6.2-0.69-12.41-0.22-18.46,1.4c-6.01,1.61-11.57,4.27-16.54,7.9
		c-10.86,7.93-18.19,20.12-20.11,33.44c-0.96,6.71-0.55,13.45,1.21,20.04l6.45,24.06c0.41,1.54,0.2,3.17-0.6,4.55
		s-2.11,2.38-3.64,2.8l-36.11,9.68c-3.2,0.86-6.49-1.04-7.35-4.24l-6.45-24.06c-4.85-18.09-4.49-37.1,1.03-54.96
		c4.6-14.92,12.77-28.75,23.63-40c12.47-12.93,28.28-22.23,45.7-26.9c17.49-4.69,35.9-4.51,53.24,0.51
		c18.34,5.29,34.69,15.65,47.27,29.95c10.17,11.52,17.36,24.94,21.36,39.89c0,0,0,0,0,0l64.62,241.15c0.41,1.54,0.2,3.17-0.6,4.55
		s-2.11,2.38-3.64,2.8l-36.11,9.68C339.88,415.53,339.35,415.59,338.84,415.59z M219.97,120.84c2.29,0,4.58,0.13,6.87,0.38
		c20.58,2.28,38.6,14.58,48.18,32.88c2.12,4.02,3.8,8.32,5,12.78l63.06,235.36l24.52-6.57l-63.06-235.36
		c-3.52-13.14-9.84-24.93-18.77-35.06c-11.07-12.59-25.45-21.7-41.59-26.36c-15.24-4.41-31.42-4.57-46.8-0.45
		c-15.32,4.1-29.21,12.28-40.17,23.64c-9.56,9.9-16.76,22.08-20.8,35.2c-4.85,15.7-5.16,32.4-0.9,48.31l4.89,18.27l24.52-6.57
		l-4.9-18.27c-2.18-8.16-2.69-16.52-1.5-24.85c2.38-16.51,11.46-31.6,24.91-41.42c6.16-4.51,13.07-7.81,20.51-9.81
		C209.21,121.55,214.58,120.84,219.97,120.84z"/>
	<path class="st1" d="M171.58,227.74c-1.02,0-2.05-0.26-2.99-0.8c-2.87-1.66-3.85-5.33-2.2-8.2l0.5-0.87
		c1.66-2.87,5.33-3.85,8.2-2.2c2.87,1.66,3.85,5.33,2.2,8.2l-0.5,0.87C175.67,226.66,173.65,227.74,171.58,227.74z"/>
</g>
</svg>
