<?xml version="1.0" encoding="utf-8"?>
<!-- Generator: Adobe Illustrator 26.0.1, SVG Export Plug-In . SVG Version: 6.00 Build 0)  -->
<svg version="1.1" id="Warstwa_1" xmlns="http://www.w3.org/2000/svg" xmlns:xlink="http://www.w3.org/1999/xlink" x="0px" y="0px"
	 viewBox="0 0 500 500" style="enable-background:new 0 0 500 500;" xml:space="preserve">
<style type="text/css">
	.st0{fill:#08a88a;}
	.st1{fill:#121331;}
	.st2{fill:none;}
	.st3{fill:none;stroke:#08a88a;stroke-width:12;stroke-linecap:round;stroke-linejoin:round;stroke-miterlimit:10;}
</style>
<path class="st0" d="M198.15,182.63c-3.31,0-6-2.69-6-6c0-7.67,2.31-11.81,4.16-15.14c1.54-2.76,2.64-4.75,2.64-9.3
	c0-4.55-1.11-6.54-2.64-9.3c-1.85-3.33-4.16-7.47-4.16-15.14c0-7.67,2.31-11.81,4.16-15.14c1.54-2.76,2.64-4.75,2.64-9.3
	c0-3.31,2.69-6,6-6s6,2.69,6,6c0,7.67-2.31,11.81-4.16,15.14c-1.54,2.76-2.64,4.75-2.64,9.3c0,4.55,1.11,6.54,2.64,9.3
	c1.85,3.33,4.16,7.47,4.16,15.14s-2.31,11.81-4.16,15.14c-1.54,2.76-2.64,4.75-2.64,9.3C204.15,179.94,201.46,182.63,198.15,182.63z
	"/>
<path class="st0" d="M247.6,168.63c-3.31,0-6-2.69-6-6c0-7.67,2.31-11.81,4.16-15.14c1.54-2.76,2.64-4.75,2.64-9.3
	c0-4.55-1.11-6.54-2.64-9.3c-1.85-3.33-4.16-7.47-4.16-15.14c0-7.67,2.31-11.81,4.16-15.14c1.54-2.76,2.64-4.75,2.64-9.3
	c0-3.31,2.69-6,6-6c3.31,0,6,2.69,6,6c0,7.67-2.31,11.81-4.16,15.14c-1.54,2.76-2.64,4.75-2.64,9.3c0,4.55,1.11,6.54,2.64,9.3
	c1.85,3.33,4.16,7.47,4.16,15.14s-2.31,11.81-4.16,15.14c-1.54,2.76-2.64,4.75-2.64,9.3C253.6,165.94,250.91,168.63,247.6,168.63z"
	/>
<path class="st0" d="M297.05,182.63c-3.31,0-6-2.69-6-6c0-7.67,2.31-11.81,4.16-15.14c1.53-2.76,2.64-4.75,2.64-9.3
	c0-4.55-1.11-6.54-2.64-9.3c-1.85-3.33-4.16-7.47-4.16-15.14c0-7.67,2.31-11.81,4.16-15.14c1.54-2.76,2.64-4.75,2.64-9.3
	c0-3.31,2.69-6,6-6s6,2.69,6,6c0,7.67-2.31,11.81-4.16,15.14c-1.54,2.76-2.64,4.75-2.64,9.3c0,4.55,1.11,6.54,2.64,9.3
	c1.85,3.33,4.16,7.47,4.16,15.14c0,7.67-2.31,11.81-4.16,15.14c-1.54,2.76-2.64,4.75-2.64,9.3
	C303.05,179.94,300.36,182.63,297.05,182.63z"/>
<g>
	<path class="st1" d="M130.25,336.06c-1.41,0-2.83-0.5-3.97-1.5c-2.48-2.19-2.72-5.98-0.53-8.47c4.32-4.89,7.33-6.32,10.53-7.84
		c2.57-1.22,5.48-2.6,10.62-6.86c2.01-1.66,4.08-3.98,6.27-6.44c3.94-4.42,8.4-9.44,14.58-13.1c5.06-3,10.87-4.4,16.49-5.75
		c3.62-0.87,7.37-1.77,10.76-3.08c2.75-1.06,5.58-2.63,8.59-4.3c5.13-2.85,10.96-6.07,17.68-7.34c6.06-1.14,12.15-0.36,18.04,0.39
		c3.71,0.48,7.21,0.92,10.68,0.92c3.47,0,6.97-0.45,10.68-0.92c5.89-0.75,11.98-1.54,18.04-0.39c6.72,1.26,12.53,4.49,17.66,7.33
		c3.01,1.67,5.85,3.24,8.6,4.31c3.4,1.31,7.15,2.21,10.78,3.08c5.61,1.35,11.41,2.74,16.47,5.73c6.19,3.67,10.65,8.69,14.58,13.11
		c2.19,2.46,4.26,4.79,6.27,6.45c5.15,4.26,8.06,5.64,10.63,6.86c3.19,1.52,6.21,2.96,10.53,7.84c2.19,2.48,1.96,6.28-0.53,8.47
		c-2.48,2.19-6.28,1.96-8.47-0.53c-2.69-3.05-4.03-3.68-6.69-4.95c-2.88-1.37-6.82-3.24-13.12-8.44c-2.72-2.24-5.09-4.91-7.59-7.73
		c-3.52-3.95-7.16-8.04-11.74-10.76c-3.5-2.07-8.19-3.19-13.15-4.39c-4.01-0.96-8.15-1.96-12.29-3.55
		c-3.53-1.36-6.87-3.21-10.11-5.01c-4.75-2.64-9.25-5.13-14.06-6.03c-4.2-0.79-9.1-0.16-14.29,0.5c-3.92,0.5-7.97,1.02-12.21,1.02
		s-8.29-0.52-12.21-1.02c-5.19-0.67-10.1-1.29-14.29-0.5c-4.83,0.91-9.32,3.4-14.09,6.04c-3.23,1.79-6.57,3.64-10.09,5
		c-4.14,1.6-8.28,2.59-12.28,3.55c-4.97,1.2-9.67,2.32-13.17,4.4c-4.59,2.72-8.22,6.8-11.74,10.76c-2.51,2.82-4.87,5.48-7.59,7.72
		c-6.29,5.2-10.24,7.08-13.11,8.45c-2.66,1.27-4,1.9-6.69,4.95C133.56,335.37,131.91,336.06,130.25,336.06z"/>
	<g>
		<path class="st1" d="M356.75,376.09H143.25c-0.93,0-1.85-0.22-2.68-0.63l-80.06-40.03c-2.49-1.24-3.79-4.04-3.16-6.75
			c0.64-2.71,3.06-4.62,5.84-4.62h373.61c2.78,0,5.2,1.91,5.84,4.62c0.64,2.71-0.67,5.5-3.16,6.75l-80.06,40.03
			C358.6,375.87,357.68,376.09,356.75,376.09z M144.67,364.09h210.66l56.06-28.03H88.61L144.67,364.09z"/>
		<path class="st1" d="M335.69,416H164.31c-2.23,0-4.27-1.23-5.31-3.2l-21.06-39.91c-1.55-2.93-0.42-6.56,2.51-8.11
			c2.93-1.54,6.56-0.42,8.11,2.51L167.93,404h164.14l19.37-36.71c1.55-2.93,5.18-4.05,8.11-2.51c2.93,1.55,4.05,5.18,2.51,8.11
			l-21.06,39.91C339.96,414.77,337.91,416,335.69,416z"/>
	</g>
	<path class="st1" d="M223.1,317.91c-1.54,0-3.07-0.59-4.24-1.76c-2.34-2.34-2.34-6.14,0-8.49l13.34-13.34
		c2.34-2.34,6.14-2.34,8.49,0c2.34,2.34,2.34,6.14,0,8.49l-13.34,13.34C226.17,317.33,224.64,317.91,223.1,317.91z"/>
	<path class="st1" d="M278.03,317.91c-1.54,0-3.07-0.59-4.24-1.76l-13.34-13.34c-2.34-2.34-2.34-6.14,0-8.48
		c2.34-2.34,6.14-2.34,8.48,0l13.34,13.34c2.34,2.34,2.34,6.14,0,8.48C281.1,317.33,279.57,317.91,278.03,317.91z"/>
	<path class="st1" d="M309.5,314.05c-1.54,0-3.07-0.59-4.24-1.76c-2.34-2.34-2.34-6.14,0-8.48l13.34-13.34
		c2.34-2.34,6.14-2.34,8.48,0c2.34,2.34,2.34,6.14,0,8.48l-13.34,13.34C312.57,313.46,311.04,314.05,309.5,314.05z"/>
	<path class="st1" d="M189.97,314.05c-1.54,0-3.07-0.59-4.24-1.76l-13.34-13.34c-2.34-2.34-2.34-6.14,0-8.48
		c2.34-2.34,6.14-2.34,8.48,0l13.34,13.34c2.34,2.34,2.34,6.14,0,8.48C193.04,313.46,191.51,314.05,189.97,314.05z"/>
</g>
<path class="st0" d="M271.69,256.12c-3.78,0-7.59-0.56-11.32-1.71c-1.89-0.58-3.37-2.07-3.96-3.96c-4.2-13.58-0.58-28.25,9.47-38.29
	c10.04-10.04,24.72-13.67,38.29-9.47c1.89,0.59,3.37,2.07,3.96,3.96c4.19,13.57,0.56,28.24-9.48,38.28
	C291.37,252.21,281.65,256.12,271.69,256.12z M267.1,243.72c8.37,1.49,16.96-1.17,23.07-7.27c6.1-6.11,8.75-14.71,7.27-23.07
	c-8.37-1.49-16.97,1.16-23.07,7.26C268.25,226.75,265.61,235.35,267.1,243.72z"/>
<path class="st0" d="M230.51,256.12c-7.93,0-15.65-3.11-21.44-8.9c-7.99-7.98-10.87-19.65-7.54-30.44c0.58-1.89,2.07-3.37,3.96-3.96
	c10.8-3.34,22.46-0.46,30.45,7.53c7.99,7.99,10.87,19.66,7.53,30.45c-0.59,1.89-2.07,3.37-3.96,3.96
	C236.54,255.68,233.51,256.12,230.51,256.12z M212.29,223.58c-0.66,5.53,1.22,11.12,5.25,15.15l0,0c4.03,4.03,9.62,5.92,15.15,5.25
	c0.67-5.54-1.22-11.12-5.25-15.16C223.42,224.8,217.83,222.92,212.29,223.58z"/>
</svg>
