<?xml version="1.0" encoding="utf-8"?>
<!-- Generator: Adobe Illustrator 26.0.1, SVG Export Plug-In . SVG Version: 6.00 Build 0)  -->
<svg version="1.1" id="Warstwa_1" xmlns="http://www.w3.org/2000/svg" xmlns:xlink="http://www.w3.org/1999/xlink" x="0px" y="0px"
	 viewBox="0 0 500 500" style="enable-background:new 0 0 500 500;" xml:space="preserve">
<style type="text/css">
	.st0{fill:#08a88a;}
	.st1{fill:#121331;}
	.st2{fill:none;}
	.st3{fill:none;stroke:#08a88a;stroke-width:12;stroke-linecap:round;stroke-linejoin:round;stroke-miterlimit:10;}
</style>
<g>
	<path class="st0" d="M204.82,250.06c-0.51,0-1.04-0.07-1.56-0.21c-8.27-2.22-12.15-5.15-15.57-7.74c-2.92-2.2-5.43-4.11-11.44-5.72
		c-6.01-1.61-9.14-1.22-12.77-0.77c-4.26,0.53-9.08,1.13-17.35-1.09c-8.27-2.22-12.15-5.15-15.57-7.73
		c-2.91-2.2-5.43-4.11-11.44-5.72c-3.2-0.86-5.1-4.15-4.24-7.35c0.86-3.2,4.15-5.1,7.35-4.24c8.27,2.22,12.15,5.15,15.57,7.73
		c2.91,2.2,5.43,4.11,11.44,5.72c6.01,1.61,9.14,1.22,12.77,0.77c4.26-0.53,9.08-1.13,17.35,1.09c8.27,2.22,12.15,5.15,15.57,7.73
		c2.92,2.2,5.43,4.11,11.44,5.72c3.2,0.86,5.1,4.15,4.24,7.35C209.89,248.29,207.47,250.05,204.82,250.06z"/>
	<path class="st1" d="M141.01,316.74c-0.52,0-1.04-0.07-1.55-0.2c-1.54-0.41-2.86-1.43-3.65-2.81l-11.53-20.13
		c-15.05-26.26-17.8-57.65-7.55-86.12l33.44-92.94c1.05-2.94,4.19-4.57,7.2-3.76l69.49,18.62c3.01,0.81,4.91,3.79,4.35,6.86
		l-17.51,97.21c-5.37,29.78-23.45,55.59-49.6,70.81l0,0l-20.05,11.66C143.11,316.47,142.06,316.74,141.01,316.74z M159.58,123.79
		l-31.57,87.75c-9.05,25.16-6.62,52.89,6.68,76.09l8.53,14.89l14.83-8.63c23.11-13.44,39.09-36.25,43.83-62.56l16.53-91.78
		L159.58,123.79z M161.07,299.08L161.07,299.08L161.07,299.08z"/>
	<path class="st1" d="M116.17,409.46c-0.51,0-1.04-0.07-1.56-0.21c-3.2-0.86-5.1-4.15-4.24-7.35l24.86-92.79
		c0.86-3.2,4.15-5.09,7.35-4.24c3.2,0.86,5.1,4.15,4.24,7.35l-24.86,92.79C121.25,407.69,118.82,409.46,116.17,409.46z"/>
	<path class="st1" d="M142.83,416.53c-0.51,0-1.04-0.07-1.56-0.21L88,402.05c-3.2-0.86-5.1-4.15-4.24-7.35
		c0.86-3.2,4.15-5.1,7.35-4.24l53.27,14.27c3.2,0.86,5.1,4.15,4.24,7.35C147.9,414.76,145.48,416.53,142.83,416.53z"/>
</g>
<g>
	<path class="st0" d="M293.11,244.26c-2.65,0-5.07-1.77-5.79-4.45c-0.86-3.2,1.04-6.49,4.24-7.35c8.27-2.22,13.1-1.62,17.35-1.09
		c3.63,0.45,6.76,0.84,12.77-0.77c6.01-1.61,8.53-3.51,11.44-5.72c3.42-2.59,7.3-5.52,15.57-7.74c8.27-2.22,13.09-1.62,17.35-1.09
		c3.62,0.45,6.76,0.84,12.77-0.77c3.2-0.86,6.49,1.04,7.35,4.24c0.86,3.2-1.04,6.49-4.24,7.35c-8.27,2.22-13.1,1.62-17.35,1.09
		c-3.62-0.45-6.76-0.84-12.77,0.77c-6.01,1.61-8.53,3.51-11.44,5.72c-3.42,2.59-7.3,5.52-15.57,7.74
		c-8.27,2.22-13.1,1.62-17.35,1.09c-3.62-0.45-6.75-0.84-12.77,0.77C294.15,244.19,293.63,244.26,293.11,244.26z"/>
	<path class="st1" d="M358.47,316.75c-1.05,0-2.09-0.28-3.02-0.81l-20.06-11.67c-26.16-15.21-44.24-41.02-49.6-70.8l-10.65-59.12
		c-0.59-3.26,1.58-6.38,4.84-6.97c3.26-0.58,6.38,1.58,6.97,4.84l10.65,59.12c4.74,26.32,20.71,49.12,43.82,62.56l14.84,8.63
		l8.53-14.89c13.3-23.19,15.73-50.93,6.68-76.1l-31.57-87.75l-30.32,8.12c-3.21,0.85-6.49-1.04-7.35-4.24
		c-0.86-3.2,1.04-6.49,4.24-7.35l35.65-9.55c3.02-0.81,6.14,0.83,7.2,3.76l33.44,92.94c10.24,28.49,7.49,59.88-7.56,86.13
		l-11.53,20.13c-0.79,1.39-2.11,2.4-3.65,2.81C359.52,316.68,358.99,316.75,358.47,316.75z"/>
	<path class="st1" d="M383.31,409.46c-2.65,0-5.07-1.77-5.79-4.45l-24.86-92.79c-0.86-3.2,1.04-6.49,4.24-7.35
		c3.2-0.86,6.49,1.04,7.35,4.24l24.86,92.79c0.86,3.2-1.04,6.49-4.24,7.35C384.35,409.39,383.82,409.46,383.31,409.46z"/>
	<path class="st1" d="M356.66,416.53c-2.65,0-5.07-1.77-5.79-4.45c-0.86-3.2,1.04-6.49,4.24-7.35l53.27-14.27
		c3.2-0.86,6.49,1.04,7.35,4.24c0.86,3.2-1.04,6.49-4.24,7.35l-53.27,14.27C357.69,416.46,357.17,416.53,356.66,416.53z"/>
</g>
<path class="st0" d="M281.05,179.28c-2.39,0-4.56-1.42-5.51-3.62l-8.31-19.23c-2.33-5.38-6.44-9.9-11.59-12.71l-13.5-7.39
	c-1.92-1.05-3.12-3.07-3.12-5.26s1.2-4.21,3.12-5.26l13.71-7.5c5.04-2.75,9.1-7.16,11.45-12.4l8.28-18.48
	c0.97-2.16,3.11-3.55,5.48-3.55s4.51,1.39,5.48,3.55l8.28,18.48c2.35,5.24,6.41,9.64,11.45,12.4l13.71,7.5
	c1.92,1.05,3.12,3.07,3.12,5.26s-1.2,4.21-3.12,5.26l-13.5,7.39c-5.15,2.82-9.26,7.33-11.59,12.71l-8.31,19.23
	C285.61,177.85,283.45,179.28,281.05,179.28z M257.52,131.06l3.88,2.12c7.48,4.09,13.46,10.66,16.85,18.48l2.8,6.49l2.8-6.49
	c3.38-7.83,9.37-14.39,16.85-18.48l3.88-2.12l-4.09-2.23c0,0,0,0,0,0c-7.32-4-13.23-10.4-16.64-18.02l-2.8-6.25l-2.8,6.25
	c-3.41,7.61-9.32,14.01-16.64,18.02L257.52,131.06z"/>
<path class="st0" d="M223.29,109.32L223.29,109.32c-2.39,0-4.56-1.42-5.51-3.62l-5.34-12.36c-1.31-3.03-3.62-5.56-6.51-7.14
	l-8.68-4.75c-1.92-1.05-3.12-3.07-3.12-5.26s1.2-4.21,3.12-5.26l8.82-4.82c2.83-1.55,5.12-4.02,6.43-6.97l5.32-11.88
	c0.97-2.16,3.11-3.55,5.48-3.55c2.36,0,4.51,1.39,5.48,3.55l5.32,11.88c1.32,2.94,3.6,5.42,6.44,6.97l8.82,4.82
	c1.92,1.05,3.12,3.07,3.12,5.26s-1.2,4.21-3.12,5.26l-8.68,4.75c-2.89,1.58-5.21,4.12-6.51,7.14l-5.34,12.36
	C227.85,107.9,225.69,109.32,223.29,109.32z M212.59,76.19c4.69,2.81,8.45,7.03,10.7,12.02c2.25-4.99,6.01-9.21,10.7-12.02
	c-4.65-2.75-8.42-6.91-10.7-11.81C221.01,69.28,217.24,73.44,212.59,76.19z"/>
</svg>
