<?xml version="1.0" encoding="utf-8"?>
<!-- Generator: Adobe Illustrator 24.1.2, SVG Export Plug-In . SVG Version: 6.00 Build 0)  -->
<svg version="1.1" id="Warstwa_1" xmlns="http://www.w3.org/2000/svg" xmlns:xlink="http://www.w3.org/1999/xlink" x="0px" y="0px"
	 viewBox="0 0 430 430" style="enable-background:new 0 0 430 430;" xml:space="preserve">
<style type="text/css">
	.st0{fill:#121331;}
	.st1{fill:#08A284;}
	.st2{fill:none;stroke:#08A284;stroke-width:12;stroke-linecap:round;stroke-linejoin:round;stroke-miterlimit:10;}
	.st3{fill:none;stroke:#121331;stroke-width:12;stroke-linecap:round;stroke-linejoin:round;stroke-miterlimit:10;}
	.st4{fill:#08A688;}
	.st5{fill:#08a88a;}
	.st6{fill:#08a88a;}
</style>
<g>
	<g>
		<path class="st0" d="M334.06,257.8V133.89c0-31.49-25.62-57.1-57.1-57.1H153.04c-31.49,0-57.1,25.62-57.1,57.1v123.84
			c0,0.03,0,0.05,0,0.08v38.31c0,31.49,25.62,57.1,57.11,57.1h123.92c31.49,0,57.1-25.62,57.1-57.1L334.06,257.8
			C334.06,257.8,334.06,257.8,334.06,257.8z M107.94,133.89c0-24.87,20.23-45.1,45.1-45.1h123.92c24.87,0,45.1,20.23,45.1,45.1
			V257.8c0,24.87-20.23,45.1-45.1,45.1H153.04c-24.87,0-45.1-20.23-45.1-45.1V133.89z M322.06,296.12c0,24.87-20.23,45.1-45.1,45.1
			H153.04c-24.87,0-45.11-20.23-45.11-45.1v-3.36c10.46,13.46,26.78,22.15,45.11,22.15h123.92c18.32,0,34.65-8.69,45.1-22.15V296.12
			z"/>
		<path class="st0" d="M131.94,157.84c3.31,0,6-2.69,6-6v-14.97c0-9.97,8.11-18.08,18.08-18.08H171c3.31,0,6-2.69,6-6s-2.69-6-6-6
			h-14.97c-16.59,0-30.08,13.5-30.08,30.08v14.97C125.94,155.16,128.63,157.84,131.94,157.84z"/>
	</g>
	<path class="st6" d="M243.29,255.95h-56.57c-2.33,0-4.44-1.35-5.43-3.45s-0.67-4.59,0.82-6.38l46.85-56.35
		c2.31-3.06,3.54-6.71,3.54-10.54c0-9.64-7.85-17.49-17.49-17.49c-9.64,0-17.48,7.85-17.48,17.49c0,3.31-2.69,6-6,6s-6-2.69-6-6
		c0-16.26,13.22-29.49,29.48-29.49c16.26,0,29.49,13.23,29.49,29.49c0,6.53-2.1,12.73-6.07,17.92c-0.05,0.06-0.1,0.13-0.15,0.19
		l-38.75,46.62h43.78c3.31,0,6,2.69,6,6S246.6,255.95,243.29,255.95z"/>
</g>
</svg>
