<?xml version="1.0" encoding="utf-8"?>
<!-- Generator: Adobe Illustrator 24.1.2, SVG Export Plug-In . SVG Version: 6.00 Build 0)  -->
<svg version="1.1" id="Warstwa_3" xmlns="http://www.w3.org/2000/svg" xmlns:xlink="http://www.w3.org/1999/xlink" x="0px" y="0px"
	 viewBox="0 0 430 430" style="enable-background:new 0 0 430 430;" xml:space="preserve">
<style type="text/css">
	.st0{fill:#121331;}
	.st1{fill:#08A385;}
	.st2{fill:none;stroke:#121331;stroke-width:14;stroke-linecap:round;stroke-linejoin:round;stroke-miterlimit:10;}
	.st3{fill:none;stroke:#08A385;stroke-width:12;stroke-linecap:round;stroke-linejoin:round;stroke-miterlimit:10;}
	.st4{fill:#06A385;}
	.st5{fill:none;stroke:#121331;stroke-width:12;stroke-linecap:round;stroke-linejoin:round;stroke-miterlimit:10;}
	.st6{fill:#08a88a;}
	.st7{fill:#08A284;}
	.st8{fill:#08A688;}
	.st9{fill:#08a88a;}
</style>
<g>
	<path class="st0" d="M140.51,332.97c-34.63,0-62.8-28.17-62.8-62.8c0-34.63,28.17-62.8,62.8-62.8s62.8,28.17,62.8,62.8
		C203.31,304.8,175.14,332.97,140.51,332.97z M140.51,219.38c-28.01,0-50.8,22.79-50.8,50.8c0,28.01,22.79,50.8,50.8,50.8
		s50.8-22.79,50.8-50.8C191.31,242.17,168.52,219.38,140.51,219.38z"/>
	<path class="st0" d="M385.35,304.04c-0.27-3.3-3.17-5.76-6.46-5.5l-31.35,2.54l-6.04-45.11c-1.95-14.58-14.52-25.58-29.23-25.58
		h-19.69v-33.36c0-0.12-0.01-0.23-0.02-0.34c0.01-0.11,0.02-0.21,0.02-0.32v-5c0-25.18-20.49-45.67-45.67-45.67H127.54V89.23
		c0-13.94-11.34-25.29-25.28-25.29H73.71c-3.31,0-6,2.69-6,6s2.69,6,6,6h28.55c7.32,0,13.28,5.96,13.28,13.29v88.37
		c-40.8,11.02-70.92,48.34-70.92,92.58c0,52.87,43.01,95.88,95.88,95.88c52.87,0,95.88-43.01,95.88-95.88
		c0-9.66-1.44-18.98-4.11-27.78h48.51l2.2,58.2c0.12,3.23,2.78,5.77,5.99,5.77c0.08,0,0.15,0,0.23,0c3.31-0.13,5.89-2.91,5.77-6.22
		l-2.18-57.75h19.46c8.73,0,16.18,6.52,17.34,15.17l6.8,50.76c0.4,3,2.96,5.2,5.94,5.2c0.16,0,0.33-0.01,0.49-0.02l37.03-3
		C383.16,310.24,385.62,307.35,385.35,304.04z M127.54,157.7H246.9c18.45,0,33.48,14.92,33.66,33.34h-85.97
		c-15.41-10.56-34.03-16.75-54.08-16.75c-4.4,0-8.73,0.3-12.97,0.88V157.7z M140.51,354.06c-46.25,0-83.88-37.63-83.88-83.88
		s37.63-83.88,83.88-83.88s83.88,37.63,83.88,83.88S186.76,354.06,140.51,354.06z M280.57,230.4h-52.82
		c-4.67-10.2-11.08-19.45-18.85-27.36h71.67V230.4z"/>
	<path class="st7" d="M289.99,336.21c-0.39,0-0.79-0.04-1.17-0.12c-0.39-0.07-0.77-0.19-1.13-0.34s-0.71-0.33-1.03-0.55
		c-0.33-0.22-0.64-0.47-0.92-0.75c-0.27-0.27-0.52-0.58-0.74-0.91c-0.22-0.32-0.4-0.67-0.55-1.03c-0.15-0.37-0.27-0.74-0.34-1.13
		c-0.08-0.38-0.12-0.78-0.12-1.17c0-0.39,0.04-0.78,0.12-1.17c0.07-0.38,0.19-0.76,0.34-1.12c0.15-0.37,0.33-0.71,0.55-1.04
		c0.22-0.33,0.47-0.63,0.74-0.91c0.28-0.28,0.59-0.53,0.92-0.75c0.32-0.21,0.67-0.4,1.03-0.55c0.36-0.15,0.74-0.26,1.13-0.34
		c0.77-0.16,1.57-0.16,2.34,0c0.38,0.08,0.76,0.19,1.12,0.34c0.37,0.15,0.71,0.34,1.04,0.55c0.33,0.22,0.64,0.47,0.91,0.75
		c0.28,0.28,0.53,0.58,0.75,0.91c0.21,0.33,0.4,0.67,0.55,1.04c0.15,0.36,0.26,0.74,0.34,1.12c0.08,0.39,0.12,0.78,0.12,1.17
		c0,1.58-0.64,3.13-1.76,4.24c-0.27,0.28-0.58,0.53-0.91,0.75c-0.33,0.22-0.67,0.4-1.04,0.55c-0.36,0.15-0.74,0.27-1.12,0.34
		C290.77,336.17,290.38,336.21,289.99,336.21z"/>
	<path class="st7" d="M289.98,366.06c-19.76,0-35.84-16.08-35.84-35.84c0-19.76,16.08-35.84,35.84-35.84s35.84,16.08,35.84,35.84
		C325.83,349.98,309.75,366.06,289.98,366.06z M289.98,306.37c-13.15,0-23.84,10.7-23.84,23.84c0,13.15,10.7,23.84,23.84,23.84
		c13.15,0,23.84-10.7,23.84-23.84C313.83,317.07,303.13,306.37,289.98,306.37z"/>
</g>
</svg>
