<?xml version="1.0" encoding="utf-8"?>
<!-- Generator: Adobe Illustrator 24.1.2, SVG Export Plug-In . SVG Version: 6.00 Build 0)  -->
<svg version="1.1" id="Warstwa_1" xmlns="http://www.w3.org/2000/svg" xmlns:xlink="http://www.w3.org/1999/xlink" x="0px" y="0px"
	 viewBox="0 0 430 430" style="enable-background:new 0 0 430 430;" xml:space="preserve">
<style type="text/css">
	.st0{fill:#121331;}
	.st1{fill:#08a88a;}
	.st2{fill:none;stroke:#121331;stroke-width:12;stroke-linecap:round;stroke-linejoin:round;stroke-miterlimit:10;}
	.st3{fill:#00A689;}
</style>
<g>
	<path class="st0" d="M353.98,350.71c0.01-0.02,0.02-0.05,0.03-0.08c0.13-0.33,0.24-0.68,0.31-1.04c0-0.02,0.01-0.04,0.01-0.06
		c0.07-0.36,0.11-0.73,0.11-1.1V81.57c0-0.38-0.04-0.75-0.11-1.1c0-0.02,0-0.04-0.01-0.06c-0.07-0.36-0.18-0.71-0.31-1.04
		c-0.01-0.02-0.02-0.05-0.03-0.08c-0.14-0.34-0.31-0.67-0.51-0.98c-0.01-0.02-0.02-0.04-0.04-0.06c-0.44-0.66-1.01-1.24-1.68-1.68
		c-0.02-0.01-0.04-0.03-0.06-0.04c-0.31-0.2-0.63-0.37-0.98-0.51c-0.02-0.01-0.05-0.02-0.07-0.03c-0.33-0.13-0.68-0.24-1.04-0.31
		c-0.02,0-0.04,0-0.05-0.01c-0.36-0.07-0.73-0.11-1.11-0.11H81.57c-0.38,0-0.75,0.04-1.11,0.11c-0.02,0-0.04,0-0.05,0.01
		c-0.36,0.07-0.71,0.18-1.04,0.31c-0.02,0.01-0.05,0.02-0.07,0.03c-0.34,0.14-0.67,0.31-0.98,0.51c-0.02,0.01-0.04,0.02-0.06,0.04
		c-0.66,0.44-1.24,1.01-1.68,1.68c-0.01,0.02-0.02,0.04-0.04,0.06c-0.2,0.31-0.37,0.63-0.51,0.98c-0.01,0.02-0.02,0.05-0.03,0.08
		c-0.13,0.33-0.24,0.68-0.31,1.04c0,0.02-0.01,0.04-0.01,0.06c-0.07,0.36-0.11,0.73-0.11,1.1v266.87c0,0.38,0.04,0.75,0.11,1.1
		c0,0.02,0,0.04,0.01,0.06c0.07,0.36,0.18,0.71,0.31,1.04c0.01,0.02,0.02,0.05,0.03,0.08c0.14,0.34,0.31,0.67,0.51,0.98
		c0.01,0.02,0.02,0.04,0.04,0.06c0.44,0.66,1.01,1.24,1.68,1.68c0.02,0.01,0.04,0.02,0.06,0.04c0.31,0.2,0.63,0.37,0.98,0.51
		c0.02,0.01,0.05,0.02,0.08,0.03c0.33,0.13,0.68,0.24,1.04,0.31c0.02,0,0.04,0.01,0.06,0.01c0.36,0.07,0.73,0.11,1.1,0.11h266.87
		c0.38,0,0.75-0.04,1.1-0.11c0.02,0,0.04-0.01,0.06-0.01c0.36-0.07,0.71-0.18,1.04-0.31c0.03-0.01,0.05-0.02,0.08-0.03
		c0.34-0.14,0.67-0.31,0.98-0.51c0.02-0.01,0.04-0.02,0.06-0.04c0.67-0.44,1.24-1.01,1.68-1.68c0.01-0.02,0.02-0.04,0.04-0.06
		C353.67,351.38,353.84,351.06,353.98,350.71z M221,303.7v-52.61l35.35-35.35v87.96H221z M173.65,303.7v-5.26L209,263.09v40.61
		H173.65z M126.3,126.3h35.35v101.57l-35.35,35.35V126.3z M209,126.3v54.22l-35.35,35.35V126.3H209z M256.35,126.3v6.87L221,168.52
		V126.3H256.35z M126.3,280.19l45.58-45.58c0.01-0.01,0.02-0.02,0.03-0.03l47.32-47.32c0.01-0.01,0.03-0.03,0.04-0.04l47.31-47.31
		c0.02-0.01,0.03-0.03,0.05-0.05l13.57-13.57h23.51v25.12l-45.58,45.58c-0.01,0.01-0.02,0.02-0.04,0.04l-47.32,47.32
		c-0.01,0.01-0.02,0.02-0.03,0.03l-47.32,47.32c-0.01,0.01-0.02,0.02-0.04,0.04l-11.97,11.97H126.3V280.19z M268.35,203.74
		l35.35-35.35V303.7h-35.35V203.74z M307.22,114.3H277.7h-15.34c0,0-0.01,0-0.01,0c0,0-0.01,0-0.01,0h-47.33c0,0-0.01,0-0.01,0
		c0,0-0.01,0-0.01,0h-47.33c0,0-0.01,0-0.01,0c0,0-0.01,0-0.01,0h-44.86L96.05,87.57h237.9L307.22,114.3z M114.3,122.78V277.7v29.51
		l-26.73,26.73V96.05L114.3,122.78z M122.78,315.7h31.12h13.71c0.01,0,0.03,0,0.04,0s0.03,0,0.04,0h47.27c0.01,0,0.03,0,0.04,0
		s0.03,0,0.04,0h47.27c0.01,0,0.03,0,0.04,0s0.03,0,0.04,0h44.83l26.73,26.73H96.05L122.78,315.7z M315.7,307.22V153.9v-31.12
		l26.73-26.73v237.9L315.7,307.22z"/>
	<g>
		<circle class="st3" cx="143.97" cy="137.51" r="6.02"/>
		<circle class="st3" cx="191.32" cy="137.51" r="6.02"/>
		<circle class="st3" cx="238.67" cy="137.51" r="6.02"/>
		
			<ellipse transform="matrix(0.3827 -0.9239 0.9239 0.3827 41.2468 351.6805)" class="st3" cx="283.79" cy="144.98" rx="6.02" ry="6.02"/>
		<circle class="st3" cx="286.03" cy="292.46" r="6.02"/>
		<circle class="st3" cx="238.68" cy="292.46" r="6.02"/>
		<circle class="st3" cx="191.32" cy="292.46" r="6.02"/>
		<circle class="st3" cx="145.79" cy="284.27" r="6.02"/>
	</g>
</g>
</svg>
