<?xml version="1.0" encoding="utf-8"?>
<!-- Generator: Adobe Illustrator 24.1.2, SVG Export Plug-In . SVG Version: 6.00 Build 0)  -->
<svg version="1.1" id="Warstwa_1" xmlns="http://www.w3.org/2000/svg" xmlns:xlink="http://www.w3.org/1999/xlink" x="0px" y="0px"
	 viewBox="0 0 430 430" style="enable-background:new 0 0 430 430;" xml:space="preserve">
<style type="text/css">
	.st0{fill:#121331;}
	.st1{fill:#08a88a;}
	.st2{fill:none;stroke:#121331;stroke-width:12;stroke-linecap:round;stroke-linejoin:round;stroke-miterlimit:10;}
	.st3{fill:#00A689;}
</style>
<g>
	<g>
		<path class="st0" d="M108.82,60.77c-0.56-1.54-1.73-2.78-3.23-3.44c-1.5-0.66-3.2-0.67-4.71-0.05L53.54,76.96
			c-3.06,1.27-4.51,4.78-3.24,7.84c1.27,3.06,4.79,4.51,7.84,3.24L99.7,70.78l82.43,225.51c0.89,2.43,3.19,3.94,5.64,3.94
			c0.68,0,1.38-0.12,2.06-0.37c3.11-1.14,4.71-4.58,3.58-7.69L108.82,60.77z"/>
		<path class="st0" d="M379.79,272.28c-1.14-3.11-4.58-4.72-7.7-3.58l-133.27,48.72c-3.11,1.14-4.71,4.58-3.57,7.7
			c0.89,2.43,3.19,3.94,5.64,3.94c0.68,0,1.38-0.12,2.06-0.37l133.27-48.72C379.33,278.84,380.93,275.4,379.79,272.28z"/>
		<circle class="st0" cx="203.24" cy="329.04" r="6.02"/>
	</g>
	<path class="st1" d="M203.29,373.16c-18,0-34.94-11.1-41.47-28.96c-4.04-11.06-3.54-23.04,1.43-33.72s13.79-18.79,24.86-22.84
		c11.06-4.04,23.04-3.54,33.72,1.43c10.68,4.96,18.79,13.79,22.84,24.85c8.35,22.84-3.44,48.21-26.28,56.56
		C213.41,372.29,208.31,373.16,203.29,373.16z M203.27,296.93c-3.72,0-7.44,0.65-11.04,1.97c-8.05,2.94-14.48,8.85-18.09,16.62
		s-3.98,16.49-1.04,24.55c6.08,16.62,24.54,25.21,41.17,19.13c16.63-6.08,25.21-24.55,19.13-41.17
		c-2.94-8.05-8.85-14.48-16.62-18.09C212.47,297.94,207.88,296.93,203.27,296.93z"/>
</g>
</svg>
