<?xml version="1.0" encoding="utf-8"?>
<!-- Generator: Adobe Illustrator 24.1.2, SVG Export Plug-In . SVG Version: 6.00 Build 0)  -->
<svg version="1.1" id="Warstwa_3" xmlns="http://www.w3.org/2000/svg" xmlns:xlink="http://www.w3.org/1999/xlink" x="0px" y="0px"
	 viewBox="0 0 430 430" style="enable-background:new 0 0 430 430;" xml:space="preserve">
<style type="text/css">
	.st0{fill:#08a88a;}
	.st1{fill:#121331;}
	.st2{fill:#08a88a;}
	.st3{fill:none;}
	.st4{fill:none;stroke:#121331;stroke-width:12;stroke-linecap:round;stroke-linejoin:round;stroke-miterlimit:10;}
	.st5{fill:none;stroke:#08a88a;stroke-width:12;stroke-linecap:round;stroke-linejoin:round;stroke-miterlimit:10;}
	.st6{fill:none;stroke:#121331;stroke-width:16;stroke-linecap:round;stroke-linejoin:round;stroke-miterlimit:10;}
</style>
<g>
	<path class="st0" d="M147.34,253.76c-2.08-2.58-5.86-2.98-8.44-0.9c-14.32,11.56-29.3,23.06-43.79,34.19
		c-5.53,4.25-11.13,8.55-16.74,12.89l58.36-92.96c1.76-2.81,0.92-6.51-1.89-8.27c-2.81-1.76-6.51-0.91-8.27,1.89L49.8,322.88
		c-0.03,0.04-0.04,0.08-0.07,0.12c-0.07,0.11-0.13,0.23-0.19,0.34c-0.04,0.07-0.07,0.14-0.1,0.22c-0.05,0.1-0.09,0.2-0.13,0.31
		c-0.04,0.09-0.07,0.18-0.1,0.27c-0.03,0.09-0.06,0.18-0.09,0.27c-0.03,0.1-0.06,0.21-0.08,0.31c-0.02,0.08-0.04,0.16-0.05,0.24
		c-0.02,0.11-0.04,0.22-0.05,0.33c-0.01,0.08-0.02,0.16-0.03,0.25c-0.01,0.11-0.02,0.21-0.02,0.32c0,0.09,0,0.18,0,0.27
		c0,0.1,0,0.19,0.01,0.29c0.01,0.1,0.01,0.2,0.02,0.3c0.01,0.09,0.02,0.17,0.03,0.25c0.02,0.11,0.04,0.22,0.06,0.33
		c0.02,0.08,0.03,0.15,0.05,0.23c0.03,0.11,0.06,0.22,0.09,0.33c0.02,0.08,0.05,0.15,0.08,0.22c0.04,0.1,0.08,0.21,0.12,0.31
		c0.04,0.08,0.07,0.17,0.11,0.25c0.04,0.09,0.08,0.18,0.13,0.26c0.05,0.1,0.11,0.19,0.17,0.29c0.04,0.07,0.08,0.14,0.13,0.2
		c0.07,0.11,0.15,0.22,0.23,0.32c0.03,0.04,0.05,0.08,0.08,0.11c0.01,0.01,0.03,0.03,0.04,0.04c0.12,0.14,0.24,0.27,0.37,0.4
		c0.03,0.03,0.05,0.06,0.08,0.09c0.15,0.15,0.32,0.29,0.49,0.43c0.05,0.04,0.11,0.07,0.16,0.11c0.11,0.08,0.22,0.16,0.34,0.24
		c0.01,0,0.01,0.01,0.02,0.01c0.23,0.14,0.46,0.26,0.7,0.37c0.06,0.03,0.13,0.05,0.19,0.08c0.17,0.07,0.34,0.13,0.51,0.19
		c0.09,0.03,0.19,0.06,0.28,0.08c0.15,0.04,0.3,0.07,0.46,0.1c0.1,0.02,0.19,0.04,0.29,0.05c0.21,0.03,0.41,0.04,0.62,0.04
		c0.04,0,0.07,0.01,0.11,0.01c0.3,0,0.6-0.03,0.89-0.07c0.09-0.01,0.18-0.03,0.28-0.05c0.21-0.04,0.42-0.09,0.62-0.16
		c0.09-0.03,0.18-0.05,0.27-0.09c0.28-0.1,0.56-0.22,0.82-0.37c0.03-0.02,0.05-0.03,0.08-0.05c0.25-0.14,0.48-0.3,0.71-0.48
		c0.03-0.02,0.07-0.04,0.1-0.06c14.31-11.55,29.29-23.05,43.77-34.17c14.55-11.17,29.59-22.72,44.02-34.36
		C149.02,260.12,149.43,256.34,147.34,253.76z"/>
	<path class="st0" d="M381.11,326.06c0-0.11,0-0.22-0.01-0.32c0-0.06-0.01-0.12-0.01-0.18c-0.09-1.16-0.51-2.3-1.25-3.24
		l-78.11-121.77c-1.79-2.79-5.5-3.6-8.29-1.81c-2.79,1.79-3.6,5.5-1.81,8.29l59.13,92.19c-5.33-4.12-10.64-8.2-15.89-12.23
		c-14.49-11.12-29.47-22.63-43.78-34.18c-2.58-2.08-6.36-1.68-8.44,0.9c-2.08,2.58-1.68,6.36,0.9,8.44
		c14.43,11.64,29.47,23.19,44.01,34.36c14.33,11.01,29.15,22.38,43.33,33.81c1.14,1.14,2.67,1.75,4.23,1.75
		c1.11,0,2.23-0.31,3.23-0.95c1.63-1.05,2.58-2.76,2.73-4.55c0-0.04,0.01-0.08,0.01-0.12C381.11,326.32,381.11,326.19,381.11,326.06
		z"/>
	<path class="st0" d="M229.57,115.36c-3.31,0-6-2.69-6-6V62.3h-17.14v47.06c0,3.31-2.69,6-6,6s-6-2.69-6-6V56.3c0-3.31,2.69-6,6-6
		h29.14c3.31,0,6,2.69,6,6v53.06C235.57,112.67,232.88,115.36,229.57,115.36z"/>
	<path class="st1" d="M375.12,207.64c-3.31,0-6,2.69-6,6v106.43h-88.5l23.6-115.08c0.58-2.84-0.95-5.69-3.63-6.77l-14.89-6v-41.48
		h5.76c3.31,0,6-2.69,6-6v-35.38c0-3.31-2.69-6-6-6H138.54c-3.31,0-6,2.69-6,6v35.38c0,3.31,2.69,6,6,6h5.76v41.48l-14.89,6
		c-2.69,1.08-4.22,3.93-3.63,6.77l23.6,115.08h-88.5V213.64c0-3.31-2.69-6-6-6s-6,2.69-6,6v112.43c0,0.02,0,0.04,0,0.06
		c0.06,29.55,24.12,53.58,53.69,53.58h224.86c29.57,0,53.62-24.02,53.69-53.58c0-0.02,0-0.04,0-0.06V213.64
		C381.12,210.32,378.43,207.64,375.12,207.64z M144.54,115.36h140.91v23.38h-5.72c-0.01,0-0.03,0-0.04,0H150.3
		c-0.01,0-0.03,0-0.04,0h-5.72V115.36z M156.3,150.74h117.4v36.64l-39.82-16.05c-12.18-4.91-25.59-4.91-37.77,0l-39.82,16.05V150.74
		z M138.53,207.48l13.89-5.6c0.11-0.04,0.21-0.08,0.31-0.13l47.87-19.29c2.73-1.1,5.55-1.87,8.4-2.32v64.62c0,3.31,2.69,6,6,6
		s6-2.69,6-6v-64.62c2.85,0.45,5.67,1.22,8.4,2.32l47.87,19.29c0.1,0.05,0.21,0.09,0.31,0.13l13.89,5.6l-23.09,112.59H161.63
		L138.53,207.48z M327.43,367.7H102.57c-20.93,0-38.3-15.51-41.24-35.63h307.35C365.73,352.19,348.36,367.7,327.43,367.7z"/>
</g>
</svg>
