<?xml version="1.0" encoding="utf-8"?>
<!-- Generator: Adobe Illustrator 24.1.2, SVG Export Plug-In . SVG Version: 6.00 Build 0)  -->
<svg version="1.1" id="Warstwa_3" xmlns="http://www.w3.org/2000/svg" xmlns:xlink="http://www.w3.org/1999/xlink" x="0px" y="0px"
	 viewBox="0 0 430 430" style="enable-background:new 0 0 430 430;" xml:space="preserve">
<style type="text/css">
	.st0{fill:#121331;}
	.st1{fill:#08a88a;}
	.st2{fill:none;stroke:#121331;stroke-width:12;stroke-linecap:round;stroke-linejoin:round;stroke-miterlimit:10;}
	.st3{fill:#08a88a;}
</style>
<g>
	<path class="st1" d="M193.33,125.17H109.1c-3.31,0-6-2.69-6-6v-6.38c0-7.57,3.27-14.77,8.98-19.75s13.28-7.24,20.79-6.21
		l43.45,5.96c13.12,1.8,23.01,13.14,23.01,26.38C199.33,122.48,196.65,125.17,193.33,125.17z M115.1,113.17h70.93
		c-2.03-4.46-6.24-7.79-11.34-8.49l-43.45-5.96c-4.07-0.56-8.18,0.67-11.27,3.37c-3.09,2.7-4.87,6.6-4.87,10.71V113.17z"/>
	<path class="st1" d="M326.28,319.5c-1.34,0-2.68-0.44-3.79-1.35l-35.12-28.72c-2.57-2.1-2.94-5.88-0.85-8.44
		c2.1-2.57,5.88-2.94,8.44-0.85l35.12,28.72c2.57,2.1,2.94,5.88,0.85,8.44C329.74,318.75,328.02,319.5,326.28,319.5z"/>
	<path class="st1" d="M291.16,290.79c-1.34,0-2.68-0.44-3.79-1.35l-35.12-28.72c-2.57-2.1-2.94-5.88-0.85-8.44
		c2.1-2.57,5.88-2.94,8.44-0.85l35.12,28.72c2.57,2.1,2.94,5.88,0.85,8.44C294.62,290.03,292.9,290.79,291.16,290.79z"/>
	<path class="st1" d="M348.28,319.5h-22c-3.31,0-6-2.69-6-6s2.69-6,6-6h22c3.31,0,6,2.69,6,6S351.6,319.5,348.28,319.5z"/>
	<path class="st1" d="M256.04,262.07h-22c-3.31,0-6-2.69-6-6s2.69-6,6-6h22c3.31,0,6,2.69,6,6S259.36,262.07,256.04,262.07z"/>
	<path class="st0" d="M297.16,188.64v-88.53h7c14.13,0,25.62-11.49,25.62-25.62s-11.49-25.62-25.62-25.62h-58.85c-3.31,0-6,2.69-6,6
		s2.69,6,6,6h58.85c7.51,0,13.62,6.11,13.62,13.62s-6.11,13.62-13.62,13.62h-13c-3.31,0-6,2.69-6,6v41.44
		c-52.51,1.43-101.66,21.55-139.01,57.06c3.62-16.05,7.56-37.98,7.56-57.36v-16.08c0-3.31-2.69-6-6-6c-3.31,0-6,2.69-6,6v16.08
		c0,30.17-10.53,68.46-12.6,75.67c-17.63,21.48-30.23,45.99-37.21,72.2c-0.13,0-0.26-0.01-0.39-0.01
		c-27.02,0-49.01,21.98-49.01,49.01c0,27.02,21.98,49.01,49.01,49.01c27.02,0,49.01-21.98,49.01-49.01
		c0-22.71-15.53-41.86-36.53-47.39c21.51-77.16,94.22-134.63,181.18-137.17v41.08c-50.34,3.11-90.34,45.04-90.34,96.15
		c0,53.12,43.22,96.34,96.34,96.34s96.34-43.22,96.34-96.34C387.5,233.68,347.5,191.75,297.16,188.64z M128.51,332.12
		c0,20.41-16.6,37.01-37.01,37.01s-37.01-16.6-37.01-37.01c0-19.6,15.32-35.68,34.61-36.92c-2.38,12.05-3.6,24.39-3.6,36.92
		c0,3.31,2.69,6,6,6s6-2.69,6-6c0-12.22,1.26-24.16,3.65-35.72C116.9,300.65,128.51,315.05,128.51,332.12z M291.16,369.13
		c-46.51,0-84.34-37.84-84.34-84.34c0-44.49,34.63-81.01,78.34-84.1v73.12c-3.88,2.12-6.5,6.24-6.5,10.99
		c0,6.9,5.64,12.5,12.55,12.5c6.9,0,12.5-5.6,12.5-12.5c0-4.75-2.65-8.88-6.55-10.99v-73.11c43.71,3.09,78.34,39.62,78.34,84.1
		C375.5,331.29,337.67,369.13,291.16,369.13z"/>
	<path class="st1" d="M91.55,341.12c-4.97,0-9.05-4.03-9.05-9s3.98-9,8.95-9h0.1c4.97,0,9,4.03,9,9S96.52,341.12,91.55,341.12z"/>
</g>
</svg>
