<?xml version="1.0" encoding="utf-8"?>
<!-- Generator: Adobe Illustrator 24.1.2, SVG Export Plug-In . SVG Version: 6.00 Build 0)  -->
<svg version="1.1" id="Warstwa_3" xmlns="http://www.w3.org/2000/svg" xmlns:xlink="http://www.w3.org/1999/xlink" x="0px" y="0px"
	 viewBox="0 0 430 430" style="enable-background:new 0 0 430 430;" xml:space="preserve">
<style type="text/css">
	.st0{fill:#121331;}
	.st1{fill:#08a88a;}
	.st2{fill:none;stroke:#121331;stroke-width:12;stroke-linecap:round;stroke-linejoin:round;stroke-miterlimit:10;}
	.st3{fill:#08a88a;}
</style>
<g>
	<path class="st1" d="M209.92,254.87l-42.18-81.65c-1.52-2.94-5.14-4.1-8.08-2.58c-2.94,1.52-4.1,5.14-2.58,8.08l19.65,38.03
		l-18.7,35.09c-0.66,1.24-0.87,2.68-0.58,4.06l10.39,49.28c0.6,2.83,3.09,4.76,5.87,4.76c0.41,0,0.83-0.04,1.24-0.13
		c3.24-0.68,5.32-3.87,4.63-7.11l-9.94-47.15l13.78-25.85l15.84,30.67c1.07,2.06,3.16,3.25,5.34,3.25c0.93,0,1.87-0.22,2.75-0.67
		C210.29,261.44,211.44,257.82,209.92,254.87z"/>
	<path class="st1" d="M290.91,254.87L269.8,214c0-0.01-0.01-0.01-0.01-0.02l-21.06-40.76c-1.52-2.94-5.14-4.1-8.08-2.58
		c-2.94,1.52-4.1,5.14-2.58,8.08l19.65,38.03l-18.7,35.09c-0.66,1.24-0.87,2.68-0.58,4.06l10.27,48.71c0.6,2.83,3.09,4.76,5.87,4.76
		c0.41,0,0.83-0.04,1.24-0.13c3.24-0.68,5.32-3.87,4.63-7.11l-9.82-46.58l13.78-25.85l15.84,30.67c1.07,2.06,3.16,3.25,5.34,3.25
		c0.93,0,1.87-0.22,2.75-0.67C291.28,261.44,292.43,257.82,290.91,254.87z"/>
	<path class="st0" d="M407.8,167.54c0-0.1,0-0.19-0.01-0.29c-0.01-0.09-0.02-0.19-0.03-0.28c-0.01-0.1-0.02-0.19-0.04-0.29
		c-0.02-0.09-0.04-0.18-0.06-0.28c-0.02-0.1-0.04-0.19-0.07-0.29c-0.02-0.09-0.05-0.18-0.08-0.27c-0.03-0.09-0.06-0.19-0.09-0.28
		c-0.03-0.09-0.07-0.17-0.11-0.26c-0.04-0.09-0.08-0.18-0.12-0.27c-0.04-0.09-0.09-0.17-0.14-0.25c-0.05-0.09-0.09-0.17-0.14-0.25
		c-0.05-0.08-0.11-0.16-0.16-0.25c-0.05-0.08-0.11-0.16-0.17-0.24c-0.06-0.08-0.13-0.16-0.19-0.23c-0.06-0.07-0.12-0.15-0.19-0.22
		c-0.07-0.08-0.15-0.15-0.22-0.22c-0.07-0.07-0.14-0.14-0.21-0.2c-0.08-0.07-0.16-0.13-0.24-0.2c-0.07-0.05-0.13-0.11-0.2-0.16
		c-0.03-0.02-0.06-0.04-0.09-0.06c0,0,0,0,0,0c0,0,0,0,0,0c-55.52-40.36-121.3-61.69-190.24-61.69
		c-68.98,0-134.79,21.35-190.34,61.76c-0.05,0.04-0.1,0.08-0.15,0.12c-0.09,0.07-0.17,0.13-0.25,0.2c-0.07,0.06-0.14,0.13-0.21,0.19
		c-0.08,0.07-0.15,0.15-0.23,0.23c-0.06,0.07-0.13,0.14-0.19,0.21c-0.07,0.08-0.13,0.16-0.2,0.24c-0.06,0.08-0.11,0.15-0.17,0.23
		c-0.06,0.08-0.11,0.16-0.17,0.25c-0.05,0.08-0.1,0.17-0.15,0.25c-0.05,0.08-0.09,0.17-0.14,0.25c-0.04,0.09-0.08,0.18-0.12,0.27
		c-0.04,0.09-0.08,0.17-0.11,0.26c-0.04,0.09-0.07,0.19-0.1,0.28c-0.03,0.09-0.06,0.18-0.08,0.27c-0.03,0.09-0.05,0.19-0.07,0.29
		c-0.02,0.09-0.04,0.18-0.06,0.28c-0.02,0.1-0.03,0.19-0.04,0.29c-0.01,0.09-0.02,0.19-0.03,0.28c-0.01,0.1-0.01,0.19-0.01,0.29
		c0,0.1-0.01,0.19,0,0.29c0,0.1,0.01,0.19,0.01,0.29c0.01,0.09,0.01,0.19,0.02,0.28c0.01,0.1,0.03,0.2,0.04,0.29
		c0.02,0.09,0.03,0.19,0.05,0.28c0.02,0.1,0.05,0.2,0.07,0.3c0.02,0.09,0.05,0.18,0.08,0.27c0.03,0.1,0.07,0.2,0.11,0.3
		c0.03,0.09,0.06,0.17,0.1,0.26c0.04,0.1,0.09,0.2,0.14,0.29c0.04,0.08,0.08,0.16,0.13,0.25c0.05,0.09,0.11,0.19,0.17,0.28
		c0.03,0.05,0.06,0.11,0.1,0.17L128.32,326.3c0.91,1.35,2.33,2.27,3.93,2.55c0.34,0.06,0.69,0.09,1.04,0.09
		c1.26,0,2.5-0.4,3.53-1.15c19.8-14.41,51.23-24.09,78.19-24.09c26.81,0,55.62,8.85,75.19,23.1c1.3,0.95,2.93,1.33,4.52,1.07
		c1.59-0.26,3-1.16,3.93-2.48l108.08-154.28c0.05-0.07,0.09-0.14,0.13-0.21c0.06-0.09,0.12-0.18,0.17-0.27
		c0.05-0.08,0.09-0.17,0.13-0.26c0.05-0.09,0.1-0.19,0.14-0.28c0.04-0.09,0.07-0.18,0.11-0.27c0.04-0.09,0.08-0.19,0.11-0.28
		c0.03-0.09,0.05-0.18,0.08-0.28c0.03-0.1,0.05-0.19,0.08-0.29c0.02-0.09,0.04-0.19,0.05-0.28c0.02-0.1,0.04-0.19,0.05-0.29
		c0.01-0.1,0.02-0.19,0.02-0.29c0.01-0.1,0.02-0.19,0.02-0.29C407.8,167.73,407.8,167.64,407.8,167.54z M378.02,191.17
		c-16.27-9.49-33.41-17.59-51.06-24.09c-3.11-1.14-6.56,0.45-7.7,3.56c-1.14,3.11,0.45,6.56,3.56,7.7
		c16.68,6.14,32.9,13.77,48.3,22.69l-78.89,112.62c-21.39-13.82-49.77-21.95-77.21-21.95c-27.08,0-58.41,9.06-80.12,22.9
		l-76.62-113.2c15.63-9.09,32.06-16.84,48.93-23.04c3.11-1.14,4.71-4.59,3.56-7.7c-1.14-3.11-4.59-4.71-7.7-3.56
		c-17.78,6.53-35.08,14.72-51.52,24.35l-15.08-22.28c52.47-36.72,114.08-56.1,178.56-56.1c64.45,0,126.03,19.36,178.47,56.04
		L378.02,191.17z"/>
</g>
</svg>
