<?xml version="1.0" encoding="utf-8"?>
<!-- Generator: Adobe Illustrator 24.1.2, SVG Export Plug-In . SVG Version: 6.00 Build 0)  -->
<svg version="1.1" id="Warstwa_3" xmlns="http://www.w3.org/2000/svg" xmlns:xlink="http://www.w3.org/1999/xlink" x="0px" y="0px"
	 viewBox="0 0 430 430" style="enable-background:new 0 0 430 430;" xml:space="preserve">
<style type="text/css">
	.st0{fill:#121331;}
	.st1{fill:#08a88a;}
	.st2{fill:none;stroke:#121331;stroke-width:12;stroke-linecap:round;stroke-linejoin:round;stroke-miterlimit:10;}
	.st3{fill:#08a88a;}
</style>
<g>
	<g>
		<g>
			<path class="st1" d="M201.52,229.64H168c-3.31,0-6-2.69-6-6s2.69-6,6-6h33.52c3.31,0,6,2.69,6,6S204.84,229.64,201.52,229.64z"/>
			<path class="st1" d="M295,229.64h-33.52c-3.31,0-6-2.69-6-6s2.69-6,6-6H295c3.31,0,6,2.69,6,6S298.31,229.64,295,229.64z"/>
		</g>
		<path class="st0" d="M243.34,143.52h-23.69c-3.31,0-6-2.69-6-6s2.69-6,6-6h23.69c3.31,0,6,2.69,6,6S246.66,143.52,243.34,143.52z"
			/>
	</g>
	<path class="st0" d="M374.62,277.79H320.4v-14.07h9.23c1.75,0,3.42-0.77,4.56-2.1c1.14-1.33,1.64-3.1,1.37-4.83l-8.63-54.85
		c-1.58-10.05-9.96-17.34-19.92-17.34h-0.98l-11.6-63.13c-2.08-11.31-11.39-19.53-22.13-19.53h-81.59
		c-10.75,0-20.05,8.21-22.13,19.53l-11.6,63.13H156c-9.96,0-18.34,7.29-19.92,17.34l-8.63,54.85c-0.27,1.73,0.23,3.5,1.37,4.83
		c1.14,1.33,2.81,2.1,4.56,2.1h9.23v14.07H94.17V131.72l29.54-64.87c0.85-1.86,0.69-4.02-0.41-5.73c-1.1-1.72-3.01-2.75-5.05-2.75
		H54.38c-3.31,0-6,2.69-6,6v66.09c0,0,0,0.01,0,0.01v153.33c0,0,0,0.01,0,0.01v36.4c0,3.31,2.69,6,6,6h22.7l11.85,28.23
		c0.96,2.3,3.19,3.68,5.54,3.68c0.77,0,1.56-0.15,2.32-0.47c3.06-1.28,4.49-4.8,3.21-7.85l-9.9-23.59h248.81l-9.69,23.09
		c-1.28,3.06,0.16,6.57,3.21,7.85c0.76,0.32,1.54,0.47,2.32,0.47c2.34,0,4.57-1.38,5.54-3.68l11.64-27.73h22.7c3.31,0,6-2.69,6-6
		v-36.41C380.62,280.48,377.93,277.79,374.62,277.79z M180.38,123.64c1.03-5.62,5.38-9.69,10.33-9.69h81.59
		c4.95,0,9.3,4.08,10.33,9.69l11.2,60.96H169.18L180.38,123.64z M140.39,251.73l7.54-47.92c0.66-4.17,4.05-7.2,8.06-7.2h145.01
		c0,0,0.01,0,0.01,0c0,0,0.01,0,0.01,0h5.98c4.02,0,7.41,3.03,8.06,7.2l7.54,47.92h-8.15c-0.02,0-0.04,0-0.06,0s-0.04,0-0.06,0
		h-42.17c-0.02,0-0.04,0-0.06,0s-0.04,0-0.06,0h-81.12c-0.02,0-0.04,0-0.06,0s-0.04,0-0.06,0h-42.17c-0.02,0-0.04,0-0.06,0
		s-0.04,0-0.06,0H140.39z M308.4,263.73v14.07h-30.28v-14.07H308.4z M266.12,263.73v14.07h-69.23v-14.07H266.12z M184.89,263.73
		v14.07H154.6v-14.07H184.89z M60.38,70.37h48.54l-24.63,54.09H60.38V70.37z M60.38,136.46h21.79v141.33H60.38V136.46z
		 M368.62,314.2h-20.68c-0.02,0-0.03,0-0.05,0H81.13c-0.03,0-0.06,0-0.09,0H60.38v-24.41h27.77c0.01,0,0.01,0,0.02,0s0.01,0,0.02,0
		h60.34c0.03,0,0.05,0,0.08,0h42.28c0.03,0,0.05,0,0.08,0h81.08c0.03,0,0.05,0,0.08,0h42.28c0.03,0,0.05,0,0.08,0h54.14V314.2z"/>
	<path class="st1" d="M375.62,371.63c-0.4,0-0.79,0-1.18-0.01c-14.14-0.21-21.77-4.61-28.5-8.5c-1.82-1.05-3.54-2.05-5.37-2.95
		c-2.48-1.24-4.79-2.11-7.29-2.74c-3.29-0.82-6.9-1.23-11.03-1.23c-11.74,0-17.27,3.2-23.69,6.91c-6.91,3.99-14.73,8.52-29.68,8.52
		c-14.96,0-22.79-4.53-29.69-8.52c-6.41-3.71-11.95-6.91-23.68-6.91c-9.12,0-14.38,2-18.32,3.96c-1.84,0.91-3.56,1.9-5.38,2.96
		c-6.91,3.99-14.73,8.51-29.68,8.51c-14.95,0-22.77-4.52-29.68-8.51c-1.82-1.05-3.54-2.05-5.37-2.95
		c-3.95-1.96-9.21-3.97-18.32-3.97c-4.75,0-8.86,0.54-12.57,1.66c-1.93,0.58-3.76,1.32-5.74,2.31c-1.84,0.91-3.56,1.9-5.38,2.96
		c-6.91,3.99-14.73,8.51-29.68,8.51c-3.31,0-6-2.69-6-6s2.69-6,6-6c11.73,0,17.27-3.2,23.68-6.9c1.91-1.1,3.88-2.24,6.05-3.32
		c2.56-1.27,5.05-2.27,7.61-3.04c4.85-1.46,10.1-2.17,16.04-2.17c11.66,0,18.76,2.79,23.65,5.22c2.16,1.07,4.13,2.21,6.04,3.31
		c6.41,3.7,11.95,6.9,23.68,6.9c11.73,0,17.27-3.2,23.68-6.9c1.91-1.1,3.88-2.24,6.05-3.32c4.88-2.42,11.98-5.21,23.65-5.21
		c14.95,0,22.78,4.53,29.68,8.52c6.41,3.71,11.95,6.91,23.69,6.91c11.73,0,17.27-3.2,23.68-6.91c6.91-3.99,14.74-8.52,29.69-8.52
		c5.13,0,9.69,0.52,13.96,1.59c3.33,0.84,6.5,2.03,9.7,3.63c2.15,1.06,4.12,2.2,6.03,3.3c6.25,3.61,11.66,6.73,22.77,6.89
		c0.36,0.01,0.64,0.01,0.91,0.01c3.31,0,6,2.69,6,6S378.93,371.63,375.62,371.63z"/>
</g>
</svg>
