<?xml version="1.0" encoding="utf-8"?>
<!-- Generator: Adobe Illustrator 24.1.2, SVG Export Plug-In . SVG Version: 6.00 Build 0)  -->
<svg version="1.1" id="Warstwa_1" xmlns="http://www.w3.org/2000/svg" xmlns:xlink="http://www.w3.org/1999/xlink" x="0px" y="0px"
	 viewBox="0 0 430 430" style="enable-background:new 0 0 430 430;" xml:space="preserve">
<style type="text/css">
	.st0{fill:#121331;}
	.st1{fill:#08a88a;}
	.st2{fill:#08a88a;}
	.st3{fill:none;}
	.st4{fill:#08A385;}
	.st5{fill:none;stroke:#08A385;stroke-width:12;stroke-linecap:round;stroke-linejoin:round;stroke-miterlimit:10;}
	.st6{fill:none;stroke:#121331;stroke-width:12;stroke-linecap:round;stroke-linejoin:round;stroke-miterlimit:10;}
</style>
<g>
	<g>
		<path class="st1" d="M156.79,219.58h-40.03c-3.31,0-6,2.69-6,6v42.7c0,3.31,2.69,6,6,6h40.03c3.31,0,6-2.69,6-6v-42.7
			C162.79,222.27,160.11,219.58,156.79,219.58z M150.79,262.28h-28.03v-30.7h28.03V262.28z"/>
		<path class="st1" d="M184.4,145.84c0,3.31,2.69,6,6,6h155.94c3.31,0,6-2.69,6-6s-2.69-6-6-6H195.53c1.62-1.07,2.68-2.91,2.68-5
			c0-3.31-2.69-6-6-6h-84.25l18.69-28.03h91.85c3.31,0,6-2.69,6-6s-2.69-6-6-6h-95.06c-2.01,0-3.88,1-4.99,2.67l-26.66,40
			c0,0.01-0.01,0.01-0.01,0.02l-0.01,0.02c0,0.01-0.01,0.01-0.01,0.02c-0.14,0.21-0.27,0.44-0.38,0.67
			c-0.02,0.05-0.05,0.09-0.07,0.14c-0.11,0.24-0.21,0.49-0.29,0.75c0,0.01,0,0.02-0.01,0.03c-0.07,0.24-0.13,0.49-0.17,0.74
			c-0.01,0.06-0.02,0.12-0.03,0.18c-0.03,0.26-0.06,0.52-0.06,0.79v68.71c0,3.31,2.69,6,6,6s6-2.69,6-6v-62.71h84.34
			C185.47,141.92,184.4,143.76,184.4,145.84z"/>
		<path class="st1" d="M346.6,163.95H190.15c-3.31,0-6,2.69-6,6s2.69,6,6,6H346.6c3.31,0,6-2.69,6-6S349.91,163.95,346.6,163.95z"/>
		<path class="st1" d="M156.79,294.3h-40.03c-3.31,0-6,2.69-6,6V343c0,3.31,2.69,6,6,6h40.03c3.31,0,6-2.69,6-6v-42.7
			C162.79,296.99,160.11,294.3,156.79,294.3z M150.79,337h-28.03v-30.7h28.03V337z"/>
	</g>
	<g>
		<path class="st0" d="M256.66,196.56h-36.39c-3.31,0-6,2.69-6,6v33.15c0,3.31,2.69,6,6,6h36.39c3.31,0,6-2.69,6-6v-33.15
			C262.66,199.25,259.98,196.56,256.66,196.56z M250.66,229.72h-24.39v-21.15h24.39V229.72z"/>
		<path class="st0" d="M316.47,196.56h-36.39c-3.31,0-6,2.69-6,6v33.15c0,3.31,2.69,6,6,6h36.39c3.31,0,6-2.69,6-6v-33.15
			C322.47,199.25,319.78,196.56,316.47,196.56z M310.47,229.72h-24.39v-21.15h24.39V229.72z"/>
		<path class="st0" d="M256.66,252.2h-36.39c-3.31,0-6,2.69-6,6v33.15c0,3.31,2.69,6,6,6h36.39c3.31,0,6-2.69,6-6V258.2
			C262.66,254.89,259.98,252.2,256.66,252.2z M250.66,285.36h-24.39V264.2h24.39V285.36z"/>
		<path class="st0" d="M316.47,252.2h-36.39c-3.31,0-6,2.69-6,6v33.15c0,3.31,2.69,6,6,6h36.39c3.31,0,6-2.69,6-6V258.2
			C322.47,254.89,319.78,252.2,316.47,252.2z M310.47,285.36h-24.39V264.2h24.39V285.36z"/>
		<path class="st0" d="M256.66,307.84h-36.39c-3.31,0-6,2.69-6,6V347c0,3.31,2.69,6,6,6h36.39c3.31,0,6-2.69,6-6v-33.15
			C262.66,310.53,259.98,307.84,256.66,307.84z M250.66,341h-24.39v-21.15h24.39V341z"/>
		<path class="st0" d="M316.47,307.84h-36.39c-3.31,0-6,2.69-6,6V347c0,3.31,2.69,6,6,6h36.39c3.31,0,6-2.69,6-6v-33.15
			C322.47,310.53,319.78,307.84,316.47,307.84z M310.47,341h-24.39v-21.15h24.39V341z"/>
		<path class="st0" d="M243.84,123.72h49.07c3.31,0,6-2.69,6-6s-2.69-6-6-6h-49.07c-3.31,0-6,2.69-6,6S240.52,123.72,243.84,123.72z
			"/>
		<path class="st0" d="M298.16,78.25l-25.39-27.35c-1.13-1.22-2.73-1.92-4.4-1.92s-3.26,0.69-4.4,1.92l-25.39,27.35
			c-32.13,9.82-54.43,39.83-54.43,73.6v50.72l-43.03-45.17c-1.13-1.19-2.7-1.86-4.34-1.86s-3.21,0.67-4.34,1.86l-53.37,56.03
			c-1.06,1.12-1.66,2.6-1.66,4.14v157.46c0,3.31,2.69,6,6,6h106.75c0,0,0,0,0,0s0,0,0,0h156.44c3.31,0,6-2.69,6-6V151.84
			C352.59,118.07,330.29,88.07,298.16,78.25z M184.15,369.02H89.4V219.96l47.37-49.73l47.37,49.73V369.02z M340.59,369.02H196.15
			V151.84c0-29,19.47-54.73,47.35-62.55c0.26-0.07,0.51-0.17,0.76-0.28c0.05-0.02,0.11-0.05,0.16-0.07
			c0.31-0.15,0.61-0.32,0.89-0.51c0.04-0.03,0.07-0.05,0.11-0.08c0.3-0.22,0.57-0.46,0.82-0.72c0.01-0.01,0.03-0.02,0.04-0.04
			l22.09-23.8l22.09,23.8c0.03,0.03,0.06,0.05,0.08,0.08c0.09,0.1,0.19,0.19,0.29,0.28c0.05,0.05,0.11,0.1,0.17,0.15
			c0.1,0.08,0.2,0.16,0.3,0.23c0.07,0.05,0.13,0.1,0.2,0.14c0.09,0.06,0.19,0.12,0.29,0.18c0.08,0.05,0.16,0.1,0.24,0.14
			c0.09,0.05,0.18,0.09,0.27,0.13c0.1,0.05,0.19,0.09,0.29,0.13c0.08,0.03,0.17,0.06,0.25,0.09c0.11,0.04,0.22,0.08,0.33,0.11
			c0.02,0.01,0.05,0.02,0.07,0.02c27.88,7.83,47.35,33.55,47.35,62.55V369.02z"/>
	</g>
</g>
</svg>
