<?xml version="1.0" encoding="utf-8"?>
<!-- Generator: Adobe Illustrator 24.1.2, SVG Export Plug-In . SVG Version: 6.00 Build 0)  -->
<svg version="1.1" id="Warstwa_3" xmlns="http://www.w3.org/2000/svg" xmlns:xlink="http://www.w3.org/1999/xlink" x="0px" y="0px"
	 viewBox="0 0 430 430" style="enable-background:new 0 0 430 430;" xml:space="preserve">
<style type="text/css">
	.st0{fill:#08a88a;}
	.st1{fill:#121331;}
	.st2{fill:#08a88a;}
	.st3{clip-path:url(#SVGID_2_);}
	.st4{fill:none;stroke:#08a88a;stroke-width:12;stroke-linecap:round;stroke-linejoin:round;stroke-miterlimit:10;}
	.st5{fill:none;stroke:#121331;stroke-width:12;stroke-linecap:round;stroke-linejoin:round;stroke-miterlimit:10;}
	.st6{fill:none;}
</style>
<g>
	<path class="st1" d="M325.82,239.07c0-0.01,0-0.01,0-0.02c-0.01-0.03-0.01-0.07-0.02-0.1c-10.2-41.14-42.09-73.02-83.22-83.21
		c-7.02-1.75-14.28-2.8-21.58-3.18v-51.22h69.63c15.97,0,28.97-12.99,28.97-28.97V55.32c0-3.31-2.69-6-6-6H116.4c-3.31,0-6,2.69-6,6
		v17.06c0,15.97,12.99,28.97,28.97,28.97H209v51.21c-2.65,0.14-5.3,0.35-7.93,0.67c-4.61,0.56-9.17,1.39-13.64,2.51c0,0,0,0,0,0
		c0,0-0.01,0-0.01,0c0,0,0,0,0,0c-41.13,10.2-73.01,42.08-83.21,83.21c-0.01,0.03-0.02,0.07-0.02,0.1c0,0.01,0,0.01-0.01,0.02
		c-2.21,8.92-3.33,18.15-3.33,27.45c0,9.3,1.12,18.54,3.33,27.46c0,0.01,0,0.02,0.01,0.03c0.01,0.03,0.01,0.06,0.02,0.09
		c10.2,41.13,42.09,73.01,83.21,83.21c8.92,2.23,18.17,3.36,27.51,3.37c0.03,0,0.05,0,0.08,0c0.03,0,0.05,0,0.08,0
		c9.28-0.01,18.48-1.13,27.35-3.33c0,0,0.01,0,0.01,0c0.05-0.01,0.09-0.02,0.14-0.03c41.13-10.19,73.01-42.08,83.22-83.2
		c0.01-0.03,0.02-0.07,0.02-0.1c0-0.01,0-0.02,0.01-0.02c2.21-8.92,3.33-18.16,3.33-27.46
		C329.15,257.23,328.03,247.99,325.82,239.07z M122.4,72.38V61.32h185.2v11.06c0,9.36-7.61,16.97-16.97,16.97H139.37
		C130.01,89.35,122.4,81.74,122.4,72.38z M316.97,260.53h-42.22c-0.26-12.14-1.32-23.95-3.14-35.28c17.78,4.42,32.76,10.89,43,18.6
		C315.85,249.31,316.64,254.89,316.97,260.53z M308.87,226.14c-11.02-5.76-24.44-10.43-39.69-13.79
		c-3.35-15.26-8.02-28.67-13.79-39.69C279.44,182.96,298.57,202.08,308.87,226.14z M221,218.79c13.15,0.3,25.88,1.56,37.98,3.77
		c2.21,12.09,3.47,24.82,3.77,37.97H221V218.79z M221,272.53h41.75c-0.29,13.15-1.57,25.88-3.77,37.98
		c-12.1,2.21-24.83,3.47-37.98,3.77V272.53z M223.6,164.74c0.82,0.07,1.65,0.15,2.47,0.24c0.19,0.02,0.38,0.04,0.57,0.06
		c0.7,0.08,1.39,0.17,2.08,0.26c0.33,0.04,0.66,0.09,0.99,0.14c0.59,0.08,1.17,0.18,1.75,0.27c0.44,0.07,0.89,0.15,1.33,0.22
		c0.49,0.09,0.99,0.18,1.48,0.27c0.53,0.1,1.05,0.21,1.57,0.32c0.43,0.09,0.86,0.18,1.29,0.28c0.19,0.04,0.37,0.09,0.55,0.13
		c7.71,10.24,14.17,25.23,18.59,43c-11.33-1.82-23.15-2.87-35.28-3.14v-42.21c0.86,0.05,1.72,0.09,2.58,0.16
		C223.59,164.74,223.59,164.74,223.6,164.74z M174.61,172.67c-5.77,11.02-10.44,24.43-13.79,39.69
		c-15.26,3.35-28.67,8.02-39.69,13.79C131.43,202.09,150.55,182.96,174.61,172.67z M115.38,243.85c10.24-7.72,25.22-14.18,43-18.6
		c-1.82,11.33-2.87,23.14-3.14,35.28h-42.22C113.36,254.9,114.15,249.31,115.38,243.85z M113.02,272.53h42.23
		c0.26,12.14,1.32,23.95,3.14,35.28c-17.78-4.42-32.76-10.89-43-18.6C114.15,283.75,113.35,278.17,113.02,272.53z M121.13,306.92
		c11.02,5.76,24.43,10.43,39.69,13.79c3.35,15.25,8.02,28.66,13.79,39.69C150.56,350.1,131.43,330.97,121.13,306.92z M209,368.48
		c-5.63-0.32-11.23-1.1-16.68-2.34c-7.72-10.24-14.18-25.22-18.6-43c11.34,1.82,23.15,2.87,35.28,3.14V368.48z M209,314.28
		c-13.15-0.3-25.88-1.56-37.98-3.77c-2.21-12.09-3.48-24.82-3.77-37.98H209V314.28z M209,260.53h-41.75
		c0.3-13.15,1.56-25.88,3.77-37.97c12.09-2.21,24.83-3.47,37.98-3.77V260.53z M209,206.79c-12.14,0.26-23.95,1.32-35.28,3.14
		c4.42-17.77,10.87-32.76,18.59-43c0.18-0.04,0.37-0.09,0.55-0.13c0.44-0.1,0.87-0.19,1.31-0.28c0.52-0.11,1.03-0.21,1.55-0.31
		c0.5-0.1,1-0.19,1.5-0.28c0.43-0.08,0.87-0.15,1.3-0.22c0.59-0.1,1.18-0.19,1.77-0.27c0.32-0.05,0.65-0.09,0.97-0.13
		c0.7-0.09,1.39-0.18,2.09-0.26c0.19-0.02,0.38-0.04,0.57-0.06c0.82-0.09,1.65-0.17,2.47-0.24c0.01,0,0.01,0,0.02,0
		c0.86-0.07,1.72-0.11,2.58-0.16V206.79z M237.68,366.14c-5.45,1.24-11.05,2.02-16.68,2.34v-42.2c12.14-0.26,23.95-1.32,35.28-3.14
		C251.87,340.91,245.4,355.89,237.68,366.14z M255.39,360.39c5.77-11.02,10.44-24.43,13.79-39.68c15.26-3.35,28.67-8.02,39.69-13.79
		C298.57,330.97,279.45,350.09,255.39,360.39z M314.61,289.21c-10.24,7.72-25.22,14.18-43,18.6c1.82-11.33,2.88-23.14,3.14-35.28
		h42.23C316.65,278.17,315.85,283.75,314.61,289.21z"/>
	<g>
		<path class="st0" d="M375,272.53h-27c-3.31,0-6-2.69-6-6s2.69-6,6-6h27c3.31,0,6,2.69,6,6S378.31,272.53,375,272.53z"/>
		<path class="st0" d="M350.08,235.7c-1.99,0-3.94-0.99-5.08-2.81c-1.76-2.81-0.92-6.51,1.88-8.27l22.85-14.38
			c2.81-1.76,6.51-0.92,8.27,1.88c1.76,2.81,0.92,6.51-1.88,8.27l-22.85,14.38C352.28,235.4,351.17,235.7,350.08,235.7z"/>
		<path class="st0" d="M372.92,323.74c-1.09,0-2.2-0.3-3.19-0.92l-22.85-14.38c-2.8-1.76-3.65-5.47-1.88-8.27
			c1.76-2.8,5.47-3.65,8.27-1.88l22.85,14.38c2.8,1.76,3.65,5.47,1.88,8.27C376.86,322.75,374.91,323.74,372.92,323.74z"/>
	</g>
	<g>
		<path class="st0" d="M82,272.53H55c-3.31,0-6-2.69-6-6s2.69-6,6-6h27c3.31,0,6,2.69,6,6S85.31,272.53,82,272.53z"/>
		<path class="st0" d="M79.92,235.7c-1.09,0-2.2-0.3-3.19-0.92L53.88,220.4c-2.8-1.76-3.65-5.47-1.88-8.27
			c1.76-2.8,5.47-3.65,8.27-1.88l22.85,14.38c2.8,1.76,3.65,5.47,1.88,8.27C83.87,234.7,81.92,235.7,79.92,235.7z"/>
		<path class="st0" d="M57.08,323.74c-1.99,0-3.94-0.99-5.08-2.81c-1.76-2.8-0.92-6.51,1.88-8.27l22.85-14.38
			c2.81-1.77,6.51-0.92,8.27,1.88c1.76,2.8,0.92,6.51-1.88,8.27l-22.85,14.38C59.28,323.44,58.17,323.74,57.08,323.74z"/>
	</g>
</g>
</svg>
