<?xml version="1.0" encoding="utf-8"?>
<!-- Generator: Adobe Illustrator 24.1.2, SVG Export Plug-In . SVG Version: 6.00 Build 0)  -->
<svg version="1.1" id="Warstwa_3" xmlns="http://www.w3.org/2000/svg" xmlns:xlink="http://www.w3.org/1999/xlink" x="0px" y="0px"
	 viewBox="0 0 430 430" style="enable-background:new 0 0 430 430;" xml:space="preserve">
<style type="text/css">
	.st0{fill:#08a789;}
	.st1{fill:#121331;}
	.st2{fill:#08A88A;}
	.st3{clip-path:url(#SVGID_2_);}
	.st4{fill:none;stroke:#08a789;stroke-width:12;stroke-linecap:round;stroke-linejoin:round;stroke-miterlimit:10;}
	.st5{fill:none;stroke:#121331;stroke-width:12;stroke-linecap:round;stroke-linejoin:round;stroke-miterlimit:10;}
	.st6{fill:none;}
</style>
<g>
	<g>
		<g>
			<defs>
				<path id="SVGID_1_" d="M215,374.73c-65.27,0-118.38-53.1-118.38-118.38c0-65.27,53.1-118.38,118.38-118.38
					s118.38,53.1,118.38,118.38C333.38,321.62,280.27,374.73,215,374.73z M215,138.97c-64.72,0-117.38,52.66-117.38,117.38
					c0,64.72,52.66,117.38,117.38,117.38s117.38-52.66,117.38-117.38C332.38,191.63,279.72,138.97,215,138.97z"/>
			</defs>
			<use xlink:href="#SVGID_1_"  style="overflow:visible;fill:#121331;"/>
			<clipPath id="SVGID_2_">
				<use xlink:href="#SVGID_1_"  style="overflow:visible;"/>
			</clipPath>
			<g class="st3">
				<path class="st1" d="M253.47,402.65c-0.45,0-0.9-0.05-1.35-0.15c-7.85-1.81-13.22-7.37-15.13-15.66
					c-0.09-0.39-0.14-0.79-0.15-1.19c-0.2-7.92-1.84-30.78-6.89-41.27c-0.81-1.69-4.31-5.96-11.67-12.89
					c-5.23-4.92-7.86-12.12-7.03-19.25l1.02-8.81c0.17-1.44,0.85-2.77,1.92-3.75l22.13-20.14c2.16-1.97,5.43-2.09,7.73-0.29
					c0.22,0.17,22.11,17.1,49.35,27.44c2.87,1.09,4.46,4.17,3.67,7.14l-6.38,24.14c-0.18,0.69-0.48,1.34-0.89,1.92l-29.52,42
					c-0.17,3.81-0.57,12.61-0.83,15.34c-0.16,1.72-1.06,3.29-2.46,4.3C255.94,402.26,254.71,402.65,253.47,402.65z M223.92,307.03
					l-0.76,6.58c-0.39,3.38,0.86,6.8,3.34,9.13c11.61,10.92,13.6,15.06,14.26,16.43c5.2,10.79,7.08,29.37,7.74,39.37
					c0.17-0.76,0.49-1.48,0.94-2.12l29.92-42.56l4.74-17.96c-19.86-8.24-36.08-19-43.35-24.18L223.92,307.03z"/>
				<path class="st1" d="M205.48,285.06c-0.98,0-1.97-0.24-2.87-0.73l-37.93-20.7c-1.6-0.87-2.72-2.43-3.03-4.23l-8.88-50.47
					c-0.33-1.89,0.26-3.82,1.58-5.2c3.05-3.19,13.46-16.42,8.64-22.77c-3.81-5.02-3.99-4.94-7.04-3.52
					c-0.82,0.38-1.71,0.57-2.62,0.56l-20.79-0.31c-2.72-0.04-5.08-1.91-5.73-4.56l-5.18-20.88c-0.51-2.05,0.1-4.23,1.61-5.71
					l13.13-12.97c1.12-1.11,2.63-1.73,4.2-1.73l114.61-0.27c0,0,0.01,0,0.01,0c2.29,0,4.38,1.31,5.39,3.36l7.62,15.58
					c1.34,2.74,0.41,6.04-2.15,7.68l-19.57,12.56l6.07,4.52l17.72-1.51c2.08-0.17,4.1,0.74,5.34,2.42
					c7.78,10.57,8.13,13.46,8.26,14.55c0.97,8.04-3.63,21.08-4.16,22.54c-0.83,2.3-2.97,3.86-5.42,3.95l-29.26,1.11l-8.58,16.96
					c-0.8,1.58-2.26,2.73-3.98,3.13c-1.73,0.4-3.54,0.03-4.96-1.03l-17.61-13.15c-2.82,0.79-6.92,2.39-8.71,4.93
					c-0.42,0.59-0.68,1.21-0.79,1.89l12.56,9.15c0.79,0.58,1.43,1.34,1.86,2.22l10.46,21.49c1.19,2.44,0.59,5.38-1.47,7.16
					l-14.4,12.47C208.29,284.56,206.89,285.06,205.48,285.06z M172.95,254.47l31.74,17.32l7.77-6.73l-7.79-16l-13.65-9.95
					c-1.24-0.9-2.08-2.24-2.36-3.75c-0.9-4.8,0.06-9.34,2.75-13.13c5.77-8.13,17.63-10.15,18.96-10.35c1.59-0.25,3.21,0.16,4.5,1.12
					l14.09,10.52l6.95-13.75c0.98-1.95,2.95-3.21,5.13-3.29l28.61-1.08c1.33-4.45,2.53-9.83,2.33-12.81
					c-0.51-1.13-2.18-3.78-4.11-6.57l-16.58,1.41c-1.46,0.12-2.92-0.29-4.1-1.17l-14.84-11.06c-1.58-1.18-2.48-3.05-2.41-5.02
					c0.07-1.97,1.1-3.78,2.75-4.84l22.36-14.36l-3.62-7.4l-108.4,0.25l-8.96,8.85l3.24,13.08l14.88,0.22
					c10.21-4.1,15.64,1.54,20.33,7.72c8.71,11.47,0.2,27.07-7.46,36.03L172.95,254.47z M272.09,192.83L272.09,192.83L272.09,192.83z
					"/>
				<path class="st1" d="M396,347.55c-9.44,0-24.15-16.18-27.61-30.38c-0.27-1.1-0.22-2.25,0.14-3.32
					c4.16-12.48,2.72-34.15,1.46-43.5l-14.64,1.51c-1.98,0.21-3.93-0.58-5.21-2.1c-1.7-2.02-3.64-4.07-5.69-6.23
					c-7.34-7.76-14.94-15.78-14.23-25.46c0.39-5.35,3.34-10.23,8.77-14.5c0.27-0.21,0.55-0.4,0.85-0.56
					c8.86-4.81,30.34-15.9,38.46-15.1c4.43,0.44,10.12,3.49,19.01,10.18c2.12,1.6,5.99,1.14,8.73,0.39l5.96-14.03l-30.58-11.03
					l-23.22-0.89c-2.59-0.1-4.83-1.85-5.54-4.35c-0.71-2.49,0.26-5.16,2.41-6.62c0.66-0.44,16.11-10.89,19.72-13.12
					c0.17-0.11,0.35-0.2,0.53-0.29l9.63-4.68l-17.79-9.89c-1.69-0.94-2.82-2.63-3.05-4.55c-0.22-1.92,0.49-3.83,1.92-5.13
					c1.59-1.45,15.7-14.23,21.82-17.58c1-0.55,2.15-0.8,3.29-0.72l30.71,2.09c2.4,0.16,4.46,1.74,5.26,4.01l6.37,18.2l20.91-5.75
					c4.49-7.24,10.8-14.72,17.4-13.96c33.36,3.88,55.98,3.19,74.16,2.64c23.54-0.71,39.1-1.18,57.72,9.3
					c5.87,3.3,2.3,10.31,0.96,12.95c-1.92,3.78-5.07,8.8-8.02,12.8c-2.73,3.7-6.7,9.05-11.53,8.5l-23.74,1.3
					c-4.05,3.33-10.86,24.78-14.97,47.13c5.95,18.74,1.68,23,0.26,24.43c-3.31,3.3-8.84,6.09-9.46,6.4
					c-2.38,1.18-5.25,0.65-7.05-1.29c-8.68-9.33-19.46-20.12-23.4-23.05c-4.89,1.7-8.7,13.11-9.73,19.4
					c-0.51,3.11-3.33,5.31-6.47,5.01l-9.57-0.87c-2.35-0.21-4.36-1.79-5.13-4.03c-4.64-13.52-16.99-23.98-26.32-31.3l-4.06,14.43
					c-0.14,0.5-0.35,0.99-0.61,1.44l-10.65,17.96l11.33,1.73c1.79,0.27,3.35,1.34,4.27,2.89c0.91,1.56,1.08,3.45,0.44,5.14
					c-2.32,6.2-12.59,26.83-22.85,45.15c-6.01,10.72-11.27,19.35-15.65,25.66C404.8,343.85,400.54,347.55,396,347.55z M394.5,335.85
					L394.5,335.85L394.5,335.85z M396.37,335.58C396.37,335.58,396.37,335.58,396.37,335.58
					C396.37,335.58,396.37,335.58,396.37,335.58z M380.47,315.84c2.92,9.35,11.26,17.38,14.91,19.33
					c2.92-2.69,10.19-12.35,23.03-35.55c7.16-12.94,13.73-25.9,17.51-33.89l-12.36-1.89c-1.97-0.3-3.66-1.56-4.52-3.36
					c-0.85-1.8-0.75-3.91,0.26-5.63l14.78-24.93l6.27-22.31c0.55-1.95,2.05-3.5,3.99-4.1c1.94-0.6,4.05-0.19,5.61,1.1
					c1.19,0.98,2.63,2.11,4.31,3.41c9.27,7.21,24.37,18.93,31.45,35.2l0.6,0.06c2.28-8.61,8.14-23.86,21.22-24.19
					c2.56-0.06,5.7-0.15,28.08,23.6c0.66-0.43,1.29-0.88,1.81-1.31c0.15-2.46-1.15-8.85-2.94-14.25c-0.32-0.95-0.39-1.96-0.21-2.95
					c0.1-0.55,2.45-13.67,6.19-27.09c6.08-21.85,11.76-30.93,19.6-31.35l23.93-1.31c2.39-2.46,7.13-9.5,9.57-14.01
					c-14-6.59-26.97-6.19-47.25-5.58c-18.41,0.56-41.27,1.25-75-2.61c-1.78,1.24-5.32,5.77-7.82,10.09
					c-0.79,1.36-2.08,2.36-3.6,2.78l-28.64,7.88c-3.04,0.84-6.21-0.83-7.26-3.8l-6.91-19.76l-24.85-1.69
					c-2.86,1.93-7.54,5.79-11.84,9.51l20.46,11.37c1.96,1.09,3.14,3.17,3.08,5.41c-0.06,2.24-1.36,4.25-3.37,5.23l-19.72,9.59
					c-0.82,0.52-2.15,1.38-3.74,2.44l5.71,0.22c0.62,0.02,1.23,0.14,1.81,0.35l37.43,13.5c1.55,0.56,2.8,1.73,3.46,3.24
					c0.66,1.51,0.67,3.23,0.02,4.75l-9.48,22.3c-0.6,1.4-1.7,2.53-3.1,3.14c-1.38,0.61-13.77,5.76-22.86-1.08
					c-9.5-7.16-12.48-7.78-12.98-7.83c-3.58-0.02-18.87,6.85-31.08,13.45c-2.42,1.99-3.71,3.88-3.84,5.64
					c-0.32,4.4,5.68,10.74,10.98,16.34c1.34,1.42,2.71,2.86,4.03,4.33l16.89-1.74c1.91-0.2,3.8,0.53,5.08,1.96
					c2.05,2.29,3.39,10.22,3.97,23.58C383.55,292.74,383.38,305.71,380.47,315.84z M537.35,241.94L537.35,241.94L537.35,241.94z
					 M505.79,230.69L505.79,230.69C505.79,230.69,505.79,230.69,505.79,230.69z"/>
				<path class="st1" d="M300.23,155.46c-1.2,0-2.37-0.24-3.48-0.72c-4.13-1.78-4.55-5.97-4.96-10.03
					c-0.46-4.57-1.09-10.84-5.49-14.97c-6.48-6.08-22.24-9.67-27.77-10.54c-1.78-0.28-3.34-1.35-4.25-2.9
					c-0.91-1.56-1.07-3.44-0.44-5.13c2.64-7.05,11.67-16.34,59.28-16.06c24.5,0.16,47.66,2.75,48.63,2.86
					c2.68,0.3,4.83,2.36,5.25,5.03c0.42,2.67-0.99,5.29-3.45,6.4l-42.39,19.21c-3.17,8.22-9.72,22.84-17.16,26.04
					C302.78,155.2,301.5,155.46,300.23,155.46z M274.06,110.56c7.04,2.15,15.18,5.5,20.45,10.45c5.77,5.41,7.74,12.17,8.62,17.62
					c2.51-4.22,5.45-10.43,7.66-16.5c0.55-1.51,1.69-2.74,3.16-3.41l23.62-10.71c-7.42-0.46-15.99-0.83-24.62-0.89
					C292.53,107,280.8,108.67,274.06,110.56z"/>
			</g>
		</g>
		<path class="st1" d="M215,381.17c-68.31,0-123.88-55.57-123.88-123.88S146.69,133.41,215,133.41s123.88,55.57,123.88,123.88
			S283.31,381.17,215,381.17z M215,145.41c-61.69,0-111.88,50.19-111.88,111.88S153.31,369.17,215,369.17
			s111.88-50.19,111.88-111.88S276.69,145.41,215,145.41z"/>
	</g>
	<path class="st0" d="M335.48,96.36C305.05,65.71,262.27,48.83,215,48.83c-46.45,0-88.91,16.76-119.56,47.2
		c-30.03,29.83-46.57,70.31-46.57,114v1.29v67.42v22.09c0,8.95,7.28,16.24,16.24,16.24h6.73c17.25,0,31.28-14.03,31.28-31.28v-59.42
		c0-17.25-14.03-31.28-31.28-31.28h-6.73c-1.23,0-2.42,0.15-3.57,0.41C68.62,117.77,132.22,60.83,215,60.83
		c84.22,0,146.65,55.8,153.5,134.66c-1.16-0.26-2.36-0.42-3.6-0.42h-6.73c-17.25,0-31.28,14.03-31.28,31.28v59.42
		c0,17.25,14.03,31.28,31.28,31.28h6.73c8.95,0,16.24-7.28,16.24-16.24v-22.09v-67.42v-1.29
		C381.13,166.39,364.92,126.02,335.48,96.36z M65.11,207.08h6.73c10.63,0,19.28,8.65,19.28,19.28v59.42
		c0,10.63-8.65,19.28-19.28,19.28h-6.73c-2.34,0-4.24-1.9-4.24-4.24v-22.09v-67.42C60.87,208.98,62.77,207.08,65.11,207.08z
		 M369.13,300.82c0,2.34-1.9,4.24-4.24,4.24h-6.73c-10.63,0-19.28-8.65-19.28-19.28v-59.42c0-10.63,8.65-19.28,19.28-19.28h6.73
		c2.34,0,4.24,1.9,4.24,4.24v67.42V300.82z"/>
</g>
</svg>
