<?xml version="1.0" encoding="utf-8"?>
<!-- Generator: Adobe Illustrator 24.1.2, SVG Export Plug-In . SVG Version: 6.00 Build 0)  -->
<svg version="1.1" id="Warstwa_3" xmlns="http://www.w3.org/2000/svg" xmlns:xlink="http://www.w3.org/1999/xlink" x="0px" y="0px"
	 viewBox="0 0 430 430" style="enable-background:new 0 0 430 430;" xml:space="preserve">
<style type="text/css">
	.st0{fill:#08a88a;}
	.st1{fill:#121331;}
	.st2{fill:#08a88a;}
	.st3{clip-path:url(#SVGID_2_);}
	.st4{fill:none;stroke:#08a88a;stroke-width:12;stroke-linecap:round;stroke-linejoin:round;stroke-miterlimit:10;}
	.st5{fill:none;stroke:#121331;stroke-width:12;stroke-linecap:round;stroke-linejoin:round;stroke-miterlimit:10;}
	.st6{fill:none;}
</style>
<g>
	<path class="st1" d="M132.82,240.38c-3.31,0-6-2.69-6-6c0-63.2,23.5-108.54,24.5-110.44c1.54-2.93,5.17-4.06,8.11-2.51
		c2.93,1.54,4.05,5.17,2.51,8.1l0,0c-0.23,0.44-23.12,44.76-23.12,104.85C138.82,237.7,136.13,240.38,132.82,240.38z"/>
	<path class="st1" d="M102.79,228.95c-0.38,0-0.76-0.04-1.15-0.11c-3.25-0.63-5.38-3.78-4.75-7.03
		c17.38-89.61,56.6-100.46,58.26-100.88c3.21-0.81,6.47,1.14,7.28,4.35c0.8,3.19-1.11,6.42-4.28,7.26
		c-0.69,0.21-33.85,10.93-49.49,91.55C108.12,226.96,105.61,228.95,102.79,228.95z"/>
	<path class="st1" d="M296.71,95.95c-1.36,0-2.73-0.46-3.86-1.41c-26.19-21.99-129.51-21.99-155.7,0c-2.54,2.13-6.32,1.8-8.45-0.74
		c-2.13-2.54-1.8-6.32,0.74-8.45c16.9-14.19,55.28-19.25,85.57-19.25s68.66,5.06,85.57,19.25c2.54,2.13,2.87,5.92,0.74,8.45
		C300.12,95.22,298.42,95.95,296.71,95.95z"/>
	<g>
		<path class="st1" d="M241.51,195.5c-0.33,0-0.66-0.03-1-0.08c-1.83-0.31-18.07-3.09-25.45-6.79c-0.05-0.03-0.08-0.03-0.13,0
			c-7.38,3.7-23.62,6.49-25.45,6.79c-3.28,0.54-6.36-1.66-6.91-4.93c-0.55-3.27,1.66-6.36,4.93-6.91
			c4.47-0.75,17.16-3.23,22.05-5.68c3.46-1.74,7.43-1.74,10.89,0c4.89,2.45,17.58,4.94,22.05,5.68c3.27,0.55,5.47,3.64,4.93,6.91
			C246.93,193.42,244.39,195.5,241.51,195.5z"/>
	</g>
	<path class="st1" d="M294.28,251.04c-0.37-0.24-0.76-0.44-1.18-0.6c-11.61-5.98-24.76-9.38-38.7-9.38h-1.23v-9.14
		c14.31-10.98,23.71-28.03,24.39-47.53l0.99-28.44c6.11,18.81,12.63,46.38,12.63,78.44c0,3.31,2.69,6,6,6s6-2.69,6-6
		c0-39.03-8.96-71.25-16.05-90.63c11,11.66,25.38,34.89,34.19,80.33c0.56,2.87,3.07,4.86,5.88,4.86c0.38,0,0.76-0.04,1.15-0.11
		c3.25-0.63,5.38-3.78,4.75-7.03c-15.07-77.69-46.55-96.18-55.74-99.99c-1.16-1.03-2.71-1.61-4.37-1.5
		c-3.01,0.2-5.34,2.57-5.58,5.49c-0.11,0.68-0.1,1.35,0.01,1.99c0.03,1.04,0.03,2.12-0.01,3.22l-1.84,52.96
		c-0.57,16.4-8.77,30.67-21.14,39.48c-0.45,0.23-0.87,0.52-1.24,0.85c-1.45,0.97-2.95,1.86-4.5,2.68v-4.32
		c0-9.13-7.43-16.56-16.56-16.56h-14.24c-9.13,0-16.56,7.43-16.56,16.56v4.28c-4.15-2.2-8.01-4.99-11.47-8.33
		c-9.48-9.17-14.96-21.47-15.41-34.63l-1.84-52.95c-0.05-1.39-0.04-2.75,0.01-4.03c0-0.08,0-0.09,0-0.18l0.01-0.13
		c0.22-3.31-2.29-6.16-5.6-6.38c-3.31-0.22-6.16,2.29-6.38,5.6c-0.01,0.23-0.03,0.46-0.03,0.69c-0.06,1.55-0.06,3.17-0.01,4.83
		l1.84,52.96c0.57,16.29,7.34,31.51,19.07,42.85c1.7,1.64,3.48,3.16,5.33,4.59v9.24h-1.24c-14.21,0-27.61,3.53-39.39,9.74
		c-0.34,0.14-0.67,0.31-0.98,0.5c-26.45,14.37-44.44,42.41-44.44,74.56v26.36c0,10.29,7.71,18.93,17.92,20.11l26.13,3.01
		c7.33,0.85,14.47,2.71,21.31,5.55l0.12,0.05c18.61,7.74,38.27,11.66,58.44,11.66c20.28,0,40.04-3.96,58.72-11.78
		c6.49-2.71,13.31-4.49,20.28-5.3l27.57-3.19c10.22-1.17,17.92-9.82,17.92-20.11v-26.36C339.21,293.51,320.99,265.34,294.28,251.04z
		 M132.44,362.98l-22.35-2.57c-4.16-0.48-7.29-4-7.29-8.19v-26.36c0-24,11.68-45.31,29.64-58.59V362.98z M203.32,222.66
		c0-2.51,2.04-4.56,4.56-4.56h14.24c2.51,0,4.56,2.05,4.56,4.56v8.8c-3.75,0.88-7.66,1.35-11.68,1.35c-3.98,0-7.89-0.47-11.68-1.36
		V222.66z M176.74,253.06h6.1c3.31,0,6-2.69,6-6v-7.95c2.12,0.97,4.29,1.81,6.5,2.54c0.11,0.04,0.21,0.07,0.32,0.1
		c6.17,2,12.68,3.06,19.34,3.06c9.35,0,18.21-2.03,26.17-5.67v7.92c0,3.31,2.69,6,6,6h6.09c0.15,1.77,0.27,3.58,0.27,4.81
		c0,27.19-17.28,49.3-38.53,49.3s-38.53-22.12-38.53-49.3C176.47,256.63,176.59,254.83,176.74,253.06z M284.96,364.78
		c-5.52,1.13-10.93,2.78-16.15,4.96c-17.21,7.2-35.41,10.85-54.09,10.85c-18.58,0-36.69-3.61-53.89-10.77l-0.12-0.05
		c-5.25-2.18-10.69-3.85-16.26-5.02V260.08c6.29-2.99,13.08-5.11,20.2-6.19c-0.1,1.42-0.17,2.83-0.17,3.98
		c0,33.8,22.67,61.3,50.53,61.3s50.53-27.5,50.53-61.3c0-1.15-0.07-2.56-0.17-3.98c6.89,1.05,13.47,3.07,19.6,5.91V364.78z
		 M327.21,352.22c0,4.19-3.14,7.71-7.3,8.19l-22.95,2.66v-96.22c18.31,13.24,30.25,34.75,30.25,59.02V352.22z"/>
	<path class="st2" d="M156.62,132.74c-1.36,0-2.7-0.46-3.8-1.35c-2.61-2.13-25.53-21.4-25.53-40.48c0-15.13,8.25-28.74,23.24-38.31
		c15.56-9.94,37.85-15.19,64.47-15.19c60.59,0,87.71,26.39,87.71,52.55c0,20.01-22.92,39.3-25.53,41.44
		c-1.79,1.47-4.27,1.77-6.37,0.77c-1.97-0.94-3.27-2.87-3.42-5.03c-2.31-3.12-19.56-8.68-52.4-8.68c-32.84,0-50.09,5.56-52.4,8.68
		c-0.14,2.16-1.44,4.09-3.42,5.03C158.37,132.55,157.49,132.74,156.62,132.74z M279.39,126.74L279.39,126.74L279.39,126.74z
		 M215,49.41c-52.3,0-75.71,20.84-75.71,41.5c0,8.86,9.21,19.88,16.08,26.62c5.55-4.6,14.44-6.54,18.22-7.36
		c11-2.39,25.7-3.71,41.42-3.71c15.71,0,30.42,1.32,41.41,3.71c3.77,0.82,12.65,2.75,18.2,7.34c6.86-6.81,16.09-18.09,16.09-27.56
		c0-10.45-6.28-20.16-17.67-27.34C259.33,53.97,239.26,49.41,215,49.41z"/>
</g>
</svg>
