<?xml version="1.0" encoding="utf-8"?>
<!-- Generator: Adobe Illustrator 24.1.2, SVG Export Plug-In . SVG Version: 6.00 Build 0)  -->
<svg version="1.1" id="Warstwa_3" xmlns="http://www.w3.org/2000/svg" xmlns:xlink="http://www.w3.org/1999/xlink" x="0px" y="0px"
	 viewBox="0 0 430 430" style="enable-background:new 0 0 430 430;" xml:space="preserve">
<style type="text/css">
	.st0{fill:#08a88a;}
	.st1{fill:#121331;}
	.st2{fill:#08a88a;}
	.st3{clip-path:url(#SVGID_2_);}
	.st4{fill:none;stroke:#08a88a;stroke-width:12;stroke-linecap:round;stroke-linejoin:round;stroke-miterlimit:10;}
	.st5{fill:none;stroke:#121331;stroke-width:12;stroke-linecap:round;stroke-linejoin:round;stroke-miterlimit:10;}
	.st6{fill:none;}
</style>
<g>
	<g>
		<g>
			<path class="st0" d="M202.77,170.16c-3.31,0-6-2.68-6-6v-0.01c0-3.31,2.69-6,6-6s6,2.69,6,6S206.08,170.16,202.77,170.16z"/>
			<path class="st0" d="M216.68,174.74c-0.62,0-1.25-0.1-1.87-0.3l-13.91-4.57c-0.11-0.03-0.21-0.07-0.31-0.11l-10.96-3.6
				c-0.85-0.28-1.62-0.74-2.27-1.36c-2.4-2.29-2.5-6.09-0.21-8.49c1.72-1.81,4.3-2.31,6.49-1.47l11.01,3.61
				c0.11,0.04,0.21,0.07,0.32,0.11l13.6,4.47c3.15,1.03,4.86,4.42,3.83,7.57C221.55,173.14,219.2,174.74,216.68,174.74z"/>
			<path class="st0" d="M149.57,152.67c-0.62,0-1.25-0.1-1.88-0.3l-6.96-2.29c-3.15-1.04-4.86-4.43-3.82-7.57s4.43-4.86,7.57-3.82
				l6.96,2.29c3.15,1.04,4.86,4.43,3.82,7.57C154.44,151.07,152.09,152.67,149.57,152.67z"/>
			<path class="st0" d="M152.95,218.47h-0.01c-3.31,0-6-2.69-6-6s2.69-6,6-6s6,2.69,6,6S156.26,218.47,152.95,218.47z"/>
			<path class="st0" d="M123.34,176.39c-0.62,0-1.25-0.1-1.87-0.3l-0.4-0.13c-3.15-1.03-4.87-4.42-3.84-7.57
				c1.03-3.15,4.42-4.87,7.57-3.84l0.4,0.13c3.15,1.03,4.87,4.42,3.84,7.57C128.21,174.79,125.87,176.39,123.34,176.39z"/>
			<path class="st0" d="M102.35,199.98c-1.58,0-3.15-0.62-4.33-1.85c-3.81-3.88-6.06-8.99-6.34-14.41
				c-0.02-0.26-0.03-0.49-0.03-0.74c0-3.31,2.69-6,6-6c3.26,0,5.91,2.6,6,5.84c0.01,0.08,0.01,0.19,0.02,0.22
				c0.12,2.52,1.17,4.9,2.95,6.7c0.06,0.06,0.12,0.12,0.18,0.18c2.23,2.45,2.05,6.25-0.4,8.48
				C105.24,199.46,103.79,199.98,102.35,199.98z M103.65,182.97C103.65,182.97,103.65,182.98,103.65,182.97
				C103.65,182.98,103.65,182.97,103.65,182.97z"/>
			<path class="st0" d="M172.23,192.47c-1.54,0-3.03-0.59-4.15-1.66c-2.4-2.29-2.5-6.09-0.21-8.49c2.18-2.28,5.72-2.48,8.12-0.52
				c1.36,1.1,2.23,2.78,2.23,4.67C178.23,189.78,175.54,192.47,172.23,192.47z"/>
			<path class="st0" d="M152.95,218.47h-0.01c-3.31,0-6-2.69-6-6s2.69-6,6-6s6,2.69,6,6S156.26,218.47,152.95,218.47z"/>
			<path class="st0" d="M172.23,192.47L172.23,192.47c-1.55,0-3.03-0.59-4.15-1.66c-2.4-2.29-2.5-6.09-0.21-8.49
				c2.18-2.28,5.72-2.48,8.12-0.52c1.36,1.1,2.23,2.78,2.23,4.67C178.23,189.78,175.54,192.47,172.23,192.47z"/>
			<path class="st0" d="M216.68,174.74c-0.62,0-1.25-0.1-1.87-0.3l-13.91-4.57c-0.11-0.03-0.21-0.07-0.31-0.11l-10.96-3.6
				c-0.85-0.28-1.62-0.74-2.27-1.36c-2.4-2.29-2.5-6.09-0.21-8.49c1.72-1.81,4.3-2.31,6.49-1.47l11.01,3.61
				c0.11,0.04,0.21,0.07,0.32,0.11l13.6,4.47c3.15,1.03,4.86,4.42,3.83,7.57C221.55,173.14,219.2,174.74,216.68,174.74z"/>
			<path class="st0" d="M123.34,176.39c-0.62,0-1.25-0.1-1.87-0.3l-0.4-0.13c-3.15-1.03-4.87-4.42-3.84-7.57
				c1.03-3.15,4.42-4.87,7.57-3.84l0.4,0.13c3.15,1.03,4.87,4.42,3.84,7.57C128.21,174.79,125.87,176.39,123.34,176.39z"/>
			<path class="st0" d="M344.77,176.9l-24.19-7.96c-6.72-22.2-20.96-41.34-40.39-54.16l-39.8-26.28c-2.78-1.83-6-2.8-9.3-2.8
				c-5.36,0-10.46,2.58-13.64,6.89c-5.4,7.34-7.56,16.33-6.07,25.33c0.7,4.26,2.18,8.25,4.33,11.83l-1.46-0.48
				c-0.03-0.01-0.06-0.02-0.09-0.02l-73.83-24.29c-5.2-1.71-10.75-1.29-15.64,1.18c-4.88,2.47-8.51,6.69-10.22,11.88
				c-0.75,2.25-1.12,4.59-1.12,6.97c0,1.26,0.11,2.5,0.32,3.72c-4.72-0.98-9.59-0.36-13.95,1.84c-5.1,2.57-8.89,6.97-10.67,12.4
				c-0.71,2.17-1.07,4.41-1.07,6.67c0,9.25,5.9,17.41,14.69,20.3l6.38,2.1c0.62,0.21,1.26,0.3,1.88,0.3c2.52,0,4.87-1.6,5.7-4.13
				c1.04-3.15-0.68-6.54-3.82-7.58l-6.38-2.1c-3.86-1.27-6.45-4.85-6.45-8.9c0-0.99,0.16-1.98,0.47-2.93
				c0.78-2.37,2.44-4.3,4.67-5.43c2.23-1.13,4.77-1.32,7.16-0.53l10.6,3.48c0.6,0.2,1.24,0.3,1.87,0.3h0.01
				c0.85,0,1.66-0.18,2.39-0.5c1.45-0.27,2.8-1.07,3.74-2.36c1.95-2.68,1.36-6.43-1.32-8.38c-2.64-1.92-4.22-5.02-4.22-8.28
				c0-1.09,0.17-2.16,0.52-3.21c0.71-2.16,2.21-3.91,4.24-4.93c2.02-1.02,4.32-1.19,6.47-0.49l87.83,28.89c0,0,0,0,0.01,0
				l16.91,5.57c2.83,0.93,5.91-0.35,7.24-3.02c1.33-2.66,0.51-5.9-1.94-7.6l-14.5-10.1c-4.8-3.34-7.97-8.36-8.92-14.14
				c-0.95-5.77,0.43-11.54,3.89-16.25c0.94-1.28,2.4-2.01,3.98-2.01c0.95,0,1.88,0.28,2.69,0.82l39.8,26.28
				c17.89,11.81,30.78,29.71,36.31,50.4c0.52,1.96,2,3.52,3.92,4.15l21.51,7.08l-27.1,82.4l-18.97-6.24
				c-3.15-1.03-6.54,0.68-7.57,3.83c-1.04,3.15,0.68,6.54,3.83,7.57l24.67,8.11c0.62,0.2,1.25,0.3,1.88,0.3
				c2.52,0,4.87-1.6,5.7-4.13l30.85-93.8C349.63,181.33,347.91,177.94,344.77,176.9z"/>
			<path class="st0" d="M149.57,152.67c-0.62,0-1.25-0.1-1.88-0.3l-6.96-2.29c-3.15-1.04-4.86-4.43-3.82-7.57s4.43-4.86,7.57-3.82
				l6.96,2.29c3.15,1.04,4.86,4.43,3.82,7.57C154.44,151.07,152.09,152.67,149.57,152.67z"/>
		</g>
		<g>
			<path class="st1" d="M171,244.13L171,244.13c-3.32,0-6.01-2.69-6.01-6s2.69-6,6-6s6,2.69,6,6S174.31,244.13,171,244.13z"/>
			<path class="st1" d="M302.43,315.47l-14.65-20.83c3-8.34,4.88-17.03,5.57-25.88c1.12-14.24-0.77-28.27-5.64-41.68l-16.23-44.85
				c-2.42-6.67-8.81-11.16-15.9-11.16c-1.65,0-3.3,0.25-4.94,0.74c-8.72,2.66-15.82,8.58-20,16.69c-1.98,3.84-3.18,7.92-3.59,12.08
				L196.4,157c-0.03-0.05-0.07-0.09-0.1-0.14l-14.9-21.19c-3.15-4.48-7.86-7.46-13.25-8.4c-5.39-0.93-10.82,0.28-15.28,3.43
				c-3,2.1-5.39,4.91-7.03,8.1c-5.26-5.91-13.52-8.51-21.28-6.51c-0.54,0.14-1.07,0.3-1.6,0.48c-0.08,0.02-0.15,0.05-0.23,0.08
				c-1.82,0.65-3.54,1.54-5.15,2.67c-5.67,4-9.06,10.54-9.06,17.48c0,2.56,0.47,5.05,1.34,7.41c-3.16,0.47-6.11,1.64-8.79,3.5
				c-5.92,4.16-9.45,10.96-9.45,18.21c0,0.38,0.01,0.75,0.03,1.12c0.01,0.18,0.02,0.36,0.03,0.54c0.3,3.99,1.67,7.84,3.98,11.12
				l1.77,2.52c0.03,0.04,0.06,0.08,0.08,0.12l1.58,2.25c-3.12,0.49-6.17,1.66-8.92,3.6c-5.68,4.01-9.07,10.55-9.07,17.49
				c0,4.4,1.35,8.65,3.89,12.27l39.22,55.77l0.02,0.03c4.31,6.11,9.96,14.14,16.24,23.08l8.93,12.69
				c16.13,22.93,39.63,30.85,47.25,32.89l15.18,21.59c0.92,1.3,2.31,2.19,3.88,2.46c0.34,0.06,0.69,0.09,1.03,0.09
				c1.23,0,2.43-0.38,3.45-1.09l80.77-56.81c1.3-0.92,2.19-2.31,2.46-3.88S303.34,316.77,302.43,315.47z M218.21,367.37
				l-13.03-18.52c-0.88-1.25-2.22-2.12-3.72-2.43c-0.26-0.05-26.01-5.56-42.23-28.62l-8.93-12.69
				c-6.29-8.94-11.94-16.97-16.24-23.08l-8.41-11.97c-0.02-0.03-0.04-0.05-0.06-0.08l-30.76-43.73c-1.12-1.59-1.71-3.45-1.71-5.37
				c0-3.05,1.49-5.92,3.98-7.68c4.22-2.97,10.07-1.95,13.04,2.27l39.25,55.79c0.13,0.19,0.28,0.37,0.43,0.54
				c0.05,0.06,0.1,0.11,0.15,0.16c0.11,0.11,0.21,0.22,0.33,0.32c0.06,0.06,0.13,0.11,0.19,0.16c0.11,0.09,0.22,0.18,0.34,0.26
				c0.07,0.05,0.13,0.1,0.2,0.14c0.13,0.09,0.27,0.16,0.41,0.24c0.05,0.03,0.11,0.06,0.16,0.09c0.19,0.09,0.38,0.18,0.58,0.25
				c0.07,0.02,0.13,0.04,0.2,0.07c0.14,0.05,0.28,0.09,0.42,0.13c0.08,0.02,0.17,0.04,0.25,0.06c0.13,0.03,0.26,0.05,0.39,0.07
				c0.09,0.01,0.17,0.02,0.26,0.03c0.14,0.01,0.28,0.02,0.42,0.02c0.06,0,0.12,0.01,0.17,0.01c0.02,0,0.03,0,0.05,0
				c0.26,0,0.51-0.02,0.77-0.06c0.06-0.01,0.12-0.02,0.18-0.03c0.24-0.04,0.47-0.09,0.71-0.16c0.03-0.01,0.06-0.01,0.09-0.02
				c0.25-0.08,0.5-0.18,0.75-0.3c0.06-0.03,0.12-0.06,0.17-0.09c0.24-0.13,0.49-0.26,0.72-0.42c0,0,0.01,0,0.01,0
				c1.52-1.07,2.4-2.73,2.53-4.45c0.1-1.34-0.24-2.72-1.08-3.91l-51.93-73.82c-0.03-0.04-0.05-0.08-0.08-0.11l-1.7-2.42
				c-1.06-1.51-1.7-3.28-1.84-5.12c0,0,0-0.04-0.01-0.07c0-0.08-0.01-0.16-0.01-0.25c-0.01-0.15-0.02-0.3-0.02-0.45
				c0-3.34,1.63-6.48,4.33-8.38c1.15-0.81,2.43-1.3,3.78-1.49c2.56-0.34,5.19,0.52,7.04,2.31c0.37,0.36,0.71,0.76,1.03,1.21
				l45.86,65.19l0.43,0.61c0.06,0.08,0.12,0.17,0.18,0.25l8.25,11.73c0.13,0.19,0.28,0.37,0.43,0.54c0.05,0.05,0.1,0.1,0.15,0.16
				c0.11,0.11,0.22,0.22,0.33,0.32c0.06,0.05,0.12,0.11,0.19,0.16c0.11,0.09,0.23,0.18,0.35,0.27c0.06,0.04,0.12,0.09,0.19,0.13
				c0.14,0.09,0.29,0.18,0.44,0.26c0.04,0.02,0.09,0.05,0.13,0.07c0.19,0.1,0.39,0.18,0.6,0.26c0.05,0.02,0.11,0.03,0.16,0.05
				c0.15,0.05,0.31,0.1,0.46,0.14c0.07,0.02,0.15,0.03,0.22,0.05c0.14,0.03,0.29,0.06,0.43,0.08c0.08,0.01,0.15,0.02,0.23,0.03
				c0.15,0.02,0.31,0.02,0.46,0.03c0.05,0,0.1,0.01,0.14,0.01c0.01,0,0.03,0,0.04,0c0.26,0,0.52-0.02,0.79-0.06
				c0.05-0.01,0.11-0.02,0.16-0.03c0.25-0.04,0.49-0.1,0.74-0.17c0.02-0.01,0.05-0.01,0.07-0.02c0.26-0.08,0.51-0.18,0.76-0.3
				c0.06-0.03,0.11-0.05,0.17-0.08c0.25-0.13,0.49-0.27,0.73-0.43c2.71-1.91,3.36-5.65,1.46-8.36l-8.42-11.98
				c-0.06-0.08-0.12-0.17-0.19-0.25l-0.29-0.42l-17.57-24.99c-0.06-0.09-0.12-0.17-0.19-0.25l-35.44-50.38
				c-1.12-1.59-1.71-3.45-1.71-5.38c0-3.05,1.49-5.92,3.96-7.67c0.67-0.47,1.39-0.85,2.14-1.13c0.05-0.02,0.1-0.03,0.14-0.05
				c0.25-0.09,0.5-0.16,0.77-0.23c3.76-0.97,7.78,0.51,9.99,3.66l29.78,42.33c0.03,0.05,0.07,0.1,0.1,0.14l32.25,45.83
				c0.13,0.19,0.28,0.37,0.43,0.54c0.05,0.05,0.1,0.1,0.15,0.15c0.11,0.11,0.22,0.22,0.34,0.33c0.06,0.05,0.12,0.1,0.18,0.16
				c0.12,0.1,0.23,0.19,0.36,0.27c0.06,0.04,0.12,0.09,0.19,0.13c0.14,0.09,0.29,0.18,0.44,0.26c0.04,0.02,0.09,0.05,0.13,0.07
				c0.19,0.1,0.39,0.18,0.6,0.26c0.05,0.02,0.11,0.03,0.16,0.05c0.15,0.05,0.3,0.1,0.46,0.14c0.08,0.02,0.15,0.03,0.23,0.05
				c0.14,0.03,0.28,0.05,0.42,0.07c0.08,0.01,0.16,0.02,0.24,0.03c0.15,0.01,0.29,0.02,0.44,0.03c0.05,0,0.1,0.01,0.16,0.01
				c0.02,0,0.03,0,0.05,0c0.26,0,0.52-0.02,0.77-0.06c0.06-0.01,0.12-0.02,0.18-0.03c0.24-0.04,0.47-0.09,0.7-0.16
				c0.03-0.01,0.06-0.02,0.09-0.03c0.25-0.08,0.5-0.18,0.75-0.3c0.06-0.03,0.12-0.06,0.17-0.09c0.25-0.13,0.49-0.27,0.73-0.43
				c2.71-1.91,3.36-5.65,1.45-8.36l-32.33-45.96c-0.07-0.1-0.14-0.19-0.21-0.28l-19.65-27.94c-1.22-1.73-1.87-3.76-1.87-5.88
				c0-0.49,0.03-0.95,0.1-1.43c0.39-2.84,1.9-5.31,4.25-6.96c1.85-1.3,4.09-1.81,6.33-1.42c2.24,0.39,4.18,1.62,5.49,3.48
				l14.99,21.32c0.03,0.05,0.07,0.1,0.11,0.15l29.67,42.16c0,0,0.01,0.01,0.01,0.02l18.68,26.55c1.71,2.44,4.95,3.25,7.61,1.9
				c2.66-1.34,3.93-4.43,2.99-7.26l-5.6-16.76c-1.86-5.55-1.4-11.46,1.28-16.66c2.68-5.2,7.24-9,12.81-10.7
				c2.65-0.8,5.21,0.63,6.08,3.02l16.23,44.85c4.28,11.8,5.95,24.13,4.96,36.65c-0.69,8.74-2.68,17.31-5.92,25.45
				c-0.75,1.88-0.5,4.01,0.67,5.67l13.03,18.52L218.21,367.37z"/>
		</g>
	</g>
	<path class="st1" d="M179.79,88.09c-0.39,0-0.78-0.04-1.18-0.12c-3.25-0.65-5.36-3.81-4.71-7.06l5.56-27.82
		c0.65-3.25,3.81-5.35,7.06-4.71c3.25,0.65,5.36,3.81,4.71,7.06l-5.56,27.82C185.1,86.12,182.6,88.09,179.79,88.09z"/>
	<path class="st1" d="M153.92,94.29c-1.64,0-3.27-0.67-4.45-1.98l-18.83-20.83c-2.22-2.46-2.03-6.25,0.43-8.47
		c2.46-2.22,6.25-2.03,8.47,0.43l18.83,20.83c2.22,2.46,2.03,6.25-0.43,8.47C156.8,93.78,155.36,94.29,153.92,94.29z"/>
</g>
</svg>
