<?xml version="1.0" encoding="utf-8"?>
<!-- Generator: Adobe Illustrator 24.1.2, SVG Export Plug-In . SVG Version: 6.00 Build 0)  -->
<svg version="1.1" id="Warstwa_3" xmlns="http://www.w3.org/2000/svg" xmlns:xlink="http://www.w3.org/1999/xlink" x="0px" y="0px"
	 viewBox="0 0 430 430" style="enable-background:new 0 0 430 430;" xml:space="preserve">
<style type="text/css">
	.st0{fill:#08a88a;}
	.st1{fill:#121331;}
	.st2{fill:#08a88a;}
	.st3{clip-path:url(#SVGID_2_);}
	.st4{fill:none;stroke:#08a88a;stroke-width:12;stroke-linecap:round;stroke-linejoin:round;stroke-miterlimit:10;}
	.st5{fill:none;stroke:#121331;stroke-width:12;stroke-linecap:round;stroke-linejoin:round;stroke-miterlimit:10;}
	.st6{fill:none;}
</style>
<g>
	<path class="st1" d="M246.55,340.48H96.13c-21.98,0-39.87-17.89-39.87-39.88V101.92c0-21.98,17.89-39.87,39.87-39.87h198.68
		c21.99,0,39.88,17.89,39.88,39.87v132.02c0,3.31-2.69,6-6,6c-3.31,0-6-2.69-6-6V101.92c0-15.37-12.51-27.87-27.88-27.87H96.13
		c-15.37,0-27.87,12.5-27.87,27.87V300.6c0,15.37,12.5,27.88,27.87,27.88h150.42c3.31,0,6,2.69,6,6S249.86,340.48,246.55,340.48z"/>
	<g>
		<path class="st0" d="M300.67,367.95c-40.29,0-73.07-32.78-73.07-73.07s32.78-73.07,73.07-73.07s73.07,32.78,73.07,73.07
			S340.96,367.95,300.67,367.95z M300.67,233.81c-33.67,0-61.07,27.4-61.07,61.07s27.4,61.07,61.07,61.07
			c33.67,0,61.07-27.4,61.07-61.07S334.34,233.81,300.67,233.81z"/>
		<path class="st2" d="M337.39,288.88h-30.72v-30.72c0-3.31-2.69-6-6-6s-6,2.69-6,6v30.72h-30.72c-3.31,0-6,2.69-6,6s2.69,6,6,6
			h30.72v30.72c0,3.31,2.69,6,6,6s6-2.69,6-6v-30.72h30.72c3.31,0,6-2.69,6-6S340.71,288.88,337.39,288.88z"/>
	</g>
	<path class="st1" d="M247.97,153.62c-5.07-18.61-21.26-34.16-48.12-46.2c-1.86-0.83-4.01-0.67-5.72,0.44
		c-1.71,1.11-2.74,3-2.74,5.04v113.65c-4.97-3.72-11.14-5.92-17.82-5.92c-16.44,0-29.82,13.38-29.82,29.82v15.38
		c0,16.44,13.38,29.82,29.82,29.82h0c16.44,0,29.82-13.38,29.82-29.82v-15.38c0-0.04,0-0.08,0-0.12c0-0.02,0-0.04,0-0.07V122.48
		c18.28,9.67,29.35,21.13,32.96,34.15c4.62,16.67-4.92,30.76-5.13,31.06c-1.9,2.7-1.27,6.43,1.43,8.35c2.7,1.92,6.45,1.28,8.37-1.42
		C241.55,193.86,254.04,175.92,247.97,153.62z M191.39,265.81c0,9.83-7.99,17.82-17.82,17.82c-9.83,0-17.82-7.99-17.82-17.82v-15.38
		c0-9.83,7.99-17.82,17.82-17.82c9.83,0,17.82,7.99,17.82,17.82V265.81z"/>
</g>
</svg>
