<?xml version="1.0" encoding="utf-8"?>
<!-- Generator: Adobe Illustrator 24.1.2, SVG Export Plug-In . SVG Version: 6.00 Build 0)  -->
<svg version="1.1" id="Warstwa_3" xmlns="http://www.w3.org/2000/svg" xmlns:xlink="http://www.w3.org/1999/xlink" x="0px" y="0px"
	 viewBox="0 0 430 430" style="enable-background:new 0 0 430 430;" xml:space="preserve">
<style type="text/css">
	.st0{fill:#121331;}
	.st1{fill:#08a88a;}
	.st2{fill:none;stroke:#121331;stroke-width:12;stroke-linecap:round;stroke-linejoin:round;stroke-miterlimit:10;}
	.st3{fill:none;stroke:#08a88a;stroke-width:12;stroke-linecap:round;stroke-linejoin:round;stroke-miterlimit:10;}
	.st4{fill:#08a88a;}
</style>
<g>
	<g>
		<path class="st1" d="M150.83,178.2c-3.31,0-6-2.69-6-6v-24.92h-7.69v24.92c0,3.31-2.69,6-6,6s-6-2.69-6-6v-30.92
			c0-3.31,2.69-6,6-6h19.69c3.31,0,6,2.69,6,6v30.92C156.83,175.51,154.14,178.2,150.83,178.2z"/>
		<path class="st1" d="M150.83,308.15h-19.69c-3.31,0-6-2.69-6-6v-97.43c0-3.31,2.69-6,6-6s6,2.69,6,6v91.43h7.69v-91.43
			c0-3.31,2.69-6.01,6-6.01s6,2.68,6,5.99v97.45C156.83,305.46,154.14,308.15,150.83,308.15z"/>
		<path class="st1" d="M158.09,147.28h-34.21c-3.31,0-6-2.69-6-6s2.69-6,6-6h34.21c3.31,0,6,2.69,6,6S161.41,147.28,158.09,147.28z"
			/>
	</g>
	<g>
		<path class="st1" d="M205.34,178.2c-3.31,0-6-2.69-6-6v-24.92h-7.7v24.92c0,3.31-2.69,6-6,6s-6-2.69-6-6v-30.92c0-3.31,2.69-6,6-6
			h19.7c3.31,0,6,2.69,6,6v30.92C211.34,175.51,208.65,178.2,205.34,178.2z"/>
		<path class="st1" d="M205.34,308.15h-19.7c-3.31,0-6-2.69-6-6v-97.43c0-3.31,2.69-6.01,6-6.01s6,2.68,6,5.99v91.45h7.7v-91.43
			c0-3.31,2.69-6.01,6-6.01s6,2.68,6,5.99v97.45C211.34,305.46,208.65,308.15,205.34,308.15z"/>
		<path class="st1" d="M212.14,147.28h-34.21c-3.31,0-6-2.69-6-6s2.69-6,6-6h34.21c3.31,0,6,2.69,6,6S215.46,147.28,212.14,147.28z"
			/>
	</g>
	<g>
		<path class="st1" d="M258.93,178.2c-3.31,0-6-2.69-6-6v-24.92h-7.69v24.92c0,3.31-2.69,6-6,6s-6-2.69-6-6v-30.92
			c0-3.31,2.69-6,6-6h19.69c3.31,0,6,2.69,6,6v30.92C264.93,175.51,262.24,178.2,258.93,178.2z"/>
		<path class="st1" d="M258.93,308.15h-19.69c-3.31,0-6-2.69-6-6v-97.43c0-3.31,2.69-6.01,6-6.01c3.31,0,6,2.68,6,5.99v91.45h7.69
			v-91.43c0-3.31,2.69-6,6-6s6,2.69,6,6v97.43C264.93,305.46,262.24,308.15,258.93,308.15z"/>
		<path class="st1" d="M266.19,147.28h-34.21c-3.31,0-6-2.69-6-6s2.69-6,6-6h34.21c3.31,0,6,2.69,6,6S269.51,147.28,266.19,147.28z"
			/>
	</g>
	<path class="st0" d="M251.06,274.81H139.01c-20.98,0-38.05-17.07-38.05-38.05s17.07-38.05,38.05-38.05h112.04
		c20.98,0,38.06,17.07,38.06,38.05S272.04,274.81,251.06,274.81z M139.01,210.7c-14.37,0-26.05,11.69-26.05,26.05
		s11.69,26.05,26.05,26.05h112.04c14.37,0,26.06-11.69,26.06-26.05s-11.69-26.05-26.06-26.05H139.01z"/>
	<path class="st0" d="M375.95,255.06c-1.38,0-2.75-0.48-3.85-1.39l-13.97-11.67c-21.72-18.15-50.42-29.25-80.85-31.28H78.02
		c-3.31,0-6-2.69-6-6V172.2c0-3.31,2.69-6,6-6h199.25c30.43-2.03,59.13-13.13,80.85-31.28l13.98-11.67
		c1.79-1.49,4.28-1.82,6.39-0.83c2.11,0.99,3.46,3.11,3.46,5.43v121.2c0,2.33-1.35,4.45-3.46,5.43
		C377.68,254.87,376.81,255.06,375.95,255.06z M84.02,198.72h193.45c0.13,0,0.26,0,0.39,0.01c33.02,2.16,64.26,14.25,87.96,34.06
		l4.13,3.45v-95.55l-4.13,3.45c-23.7,19.8-54.93,31.9-87.95,34.05c-0.13,0.01-0.26,0.01-0.39,0.01H84.02V198.72z"/>
	<path class="st0" d="M78.02,226.04H54.05c-3.31,0-6-2.69-6-6v-63.16c0-3.31,2.69-6,6-6h23.97c3.31,0,6,2.69,6,6v63.16
		C84.02,223.35,81.34,226.04,78.02,226.04z M60.05,214.04h11.97v-51.16H60.05V214.04z"/>
</g>
</svg>
