<?xml version="1.0" encoding="utf-8"?>
<!-- Generator: Adobe Illustrator 24.1.2, SVG Export Plug-In . SVG Version: 6.00 Build 0)  -->
<svg version="1.1" id="Warstwa_3" xmlns="http://www.w3.org/2000/svg" xmlns:xlink="http://www.w3.org/1999/xlink" x="0px" y="0px"
	 viewBox="0 0 430 430" style="enable-background:new 0 0 430 430;" xml:space="preserve">
<style type="text/css">
	.st0{fill:#121331;}
	.st1{fill:#08a88a;}
	.st2{fill:none;stroke:#121331;stroke-width:12;stroke-linecap:round;stroke-linejoin:round;stroke-miterlimit:10;}
	.st3{fill:#08a88a;}
</style>
<g>
	<path class="st0" d="M368.73,301.06H61.27c-20.59,0-37.35-16.75-37.35-37.35v-97.43c0-20.59,16.75-37.35,37.35-37.35h307.45
		c20.59,0,37.35,16.75,37.35,37.35v97.43C406.07,284.31,389.32,301.06,368.73,301.06z M61.27,140.94
		c-13.98,0-25.35,11.37-25.35,25.35v97.43c0,13.98,11.37,25.35,25.35,25.35h307.45c13.98,0,25.35-11.37,25.35-25.35v-97.43
		c0-13.98-11.37-25.35-25.35-25.35H61.27z"/>
	<path class="st1" d="M114.88,215.33l22-24.95c2.19-2.49,1.95-6.28-0.53-8.47c-2.49-2.19-6.28-1.95-8.47,0.53l-21,23.81l-21-23.81
		c-2.19-2.49-5.98-2.72-8.47-0.53c-2.49,2.19-2.72,5.98-0.53,8.47l22,24.95l-22,24.95c-2.19,2.49-1.95,6.28,0.53,8.47
		c1.14,1.01,2.56,1.5,3.97,1.5c1.66,0,3.32-0.69,4.5-2.03l21-23.81l21,23.81c1.19,1.35,2.84,2.03,4.5,2.03
		c1.41,0,2.83-0.49,3.97-1.5c2.49-2.19,2.72-5.98,0.53-8.47L114.88,215.33z"/>
	<path class="st1" d="M181.79,223.56h-29c-3.31,0-6-2.69-6-6s2.69-6,6-6h29c3.31,0,6,2.69,6,6S185.1,223.56,181.79,223.56z"/>
	<path class="st1" d="M288.46,250.24c-3.31,0-6-2.69-6-6v-44l-8.21,8.21c-2.34,2.34-6.14,2.34-8.49,0c-2.34-2.34-2.34-6.14,0-8.49
		l18.46-18.46c1.72-1.72,4.3-2.23,6.54-1.3c2.24,0.93,3.7,3.12,3.7,5.54v58.49C294.46,247.56,291.77,250.24,288.46,250.24z"/>
	<path class="st1" d="M236.09,250.24c-3.31,0-6-2.69-6-6v-44l-8.21,8.21c-2.34,2.34-6.14,2.34-8.49,0c-2.34-2.34-2.34-6.14,0-8.49
		l18.46-18.46c1.72-1.72,4.3-2.23,6.54-1.3s3.7,3.12,3.7,5.54v58.49C242.09,247.56,239.4,250.24,236.09,250.24z"/>
	<path class="st1" d="M332.72,249.87c-0.53,0-1.06-0.07-1.6-0.22c-3.19-0.88-5.07-4.18-4.19-7.38l13.81-50.19h-19.78
		c-3.31,0-6-2.69-6-6s2.69-6,6-6h27.65c1.87,0,3.64,0.87,4.77,2.36c1.13,1.49,1.51,3.42,1.01,5.23l-15.9,57.78
		C337.77,248.12,335.36,249.87,332.72,249.87z"/>
	<g>
		<path class="st0" d="M60.24,271.52c-3.31,0-6.04-2.69-6.04-6s2.64-6,5.96-6h0.09c3.31,0,6,2.69,6,6S63.55,271.52,60.24,271.52z"/>
		<path class="st0" d="M60.28,169.59c-3.31,0-6.04-2.69-6.04-6s2.64-6,5.96-6h0.09c3.31,0,6,2.69,6,6S63.59,169.59,60.28,169.59z"/>
	</g>
	<g>
		<path class="st0" d="M365.8,271.52c-3.31,0-6.04-2.69-6.04-6s2.64-6,5.96-6h0.09c3.31,0,6,2.69,6,6S369.11,271.52,365.8,271.52z"
			/>
		<path class="st0" d="M365.84,169.59c-3.31,0-6.04-2.69-6.04-6s2.64-6,5.96-6h0.09c3.31,0,6,2.69,6,6S369.16,169.59,365.84,169.59z
			"/>
	</g>
</g>
</svg>
