<?xml version="1.0" encoding="utf-8"?>
<!-- Generator: Adobe Illustrator 26.0.1, SVG Export Plug-In . SVG Version: 6.00 Build 0)  -->
<svg version="1.1" id="Warstwa_1" xmlns="http://www.w3.org/2000/svg" xmlns:xlink="http://www.w3.org/1999/xlink" x="0px" y="0px"
	 viewBox="0 0 500 500" style="enable-background:new 0 0 500 500;" xml:space="preserve">
<style type="text/css">
	.st0{fill:#08a88a;}
	.st1{fill:#121331;}
	.st2{fill:none;}
	.st3{fill:none;stroke:#08a88a;stroke-width:12;stroke-linecap:round;stroke-linejoin:round;stroke-miterlimit:10;}
</style>
<g>
	<path class="st0" d="M232.81,125.92c-1.83,0-3.64-0.84-4.82-2.42l-22.74-30.63c-4.09-5.51-5.39-12.46-3.56-19.07
		c1.82-6.61,6.5-11.9,12.82-14.53c2.69-1.12,5.55-1.7,8.47-1.7c10.85,0,20.25,8.1,21.87,18.83l5.93,39.56
		c0.49,3.28-1.77,6.33-5.04,6.82c-3.27,0.49-6.33-1.77-6.82-5.04l-5.93-39.56c-0.74-4.91-5.04-8.61-10-8.61
		c-1.33,0-2.63,0.26-3.86,0.78c-2.9,1.21-5.04,3.62-5.87,6.64c-0.83,3.02-0.24,6.2,1.63,8.72l22.74,30.63
		c1.98,2.66,1.42,6.42-1.24,8.39C235.31,125.53,234.05,125.92,232.81,125.92z"/>
	<g>
		<path class="st0" d="M186.38,384.64c-1.18,0-2.36-0.35-3.41-1.06c-2.68-1.85-3.39-5.5-1.61-8.22
			c9.43-16.37,11.93-35.37,7.05-53.56c-4.88-18.21-16.56-33.43-32.88-42.86l-0.31-0.18c-2.86-1.67-3.82-5.35-2.15-8.21
			c1.67-2.86,5.35-3.82,8.21-2.15l0.24,0.14c19.11,11.03,32.78,28.84,38.49,50.15c5.71,21.31,2.78,43.56-8.25,62.66
			c-0.15,0.25-0.28,0.47-0.44,0.7C190.15,383.74,188.28,384.64,186.38,384.64z M181.44,375.23
			C181.44,375.23,181.44,375.24,181.44,375.23C181.44,375.24,181.44,375.23,181.44,375.23z"/>
		<path class="st1" d="M300.76,442.79c-9.71,0-19.54-2.47-28.54-7.66l-117.37-67.76c-11.55-6.67-19.82-17.44-23.27-30.33
			c-3.45-12.89-1.68-26.35,4.99-37.9l80.39-139.25c1.66-2.87,5.33-3.85,8.2-2.2c2.87,1.66,3.85,5.33,2.2,8.2l-80.39,139.25
			c-5.07,8.78-6.41,19-3.79,28.79c2.62,9.79,8.9,17.97,17.68,23.04l117.37,67.76c10.47,6.05,22.67,7.65,34.35,4.52
			c11.68-3.13,21.45-10.62,27.49-21.09c6.05-10.47,7.65-22.68,4.52-34.36s-10.62-21.45-21.09-27.49l-40.04-23.12
			c-17.51-10.11-23.54-32.59-13.42-50.1l35.75-61.92c1.66-2.87,5.32-3.85,8.2-2.2c2.87,1.66,3.85,5.33,2.2,8.2l-35.75,61.92
			c-3.3,5.71-4.17,12.36-2.47,18.73c1.71,6.37,5.79,11.69,11.5,14.98l40.04,23.12c13.25,7.65,22.72,20,26.68,34.78
			c3.96,14.78,1.93,30.22-5.72,43.47C339.86,432.51,320.56,442.79,300.76,442.79z"/>
		<path class="st0" d="M317.34,221.89c-3.26,0-6.48-0.86-9.38-2.53l-88.8-51.27c-4.36-2.51-7.47-6.57-8.77-11.43
			s-0.63-9.93,1.88-14.29l13-22.52c5.19-8.99,16.73-12.08,25.72-6.89l88.8,51.27c8.99,5.19,12.08,16.73,6.89,25.72l-13,22.52
			c-2.51,4.36-6.57,7.47-11.43,8.77C320.62,221.68,318.98,221.89,317.34,221.89z M241.59,122.44c-2.36,0-4.66,1.22-5.92,3.41
			l-13,22.52c-1.88,3.26-0.76,7.44,2.5,9.33l88.8,51.27l0,0c3.26,1.88,7.44,0.76,9.33-2.5l13-22.52c1.88-3.26,0.76-7.44-2.5-9.33
			l-88.8-51.27C243.92,122.74,242.74,122.44,241.59,122.44z"/>
	</g>
</g>
</svg>
