<?xml version="1.0" encoding="utf-8"?>
<!-- Generator: Adobe Illustrator 24.1.2, SVG Export Plug-In . SVG Version: 6.00 Build 0)  -->
<svg version="1.1" id="Warstwa_1" xmlns="http://www.w3.org/2000/svg" xmlns:xlink="http://www.w3.org/1999/xlink" x="0px" y="0px"
	 viewBox="0 0 430 430" style="enable-background:new 0 0 430 430;" xml:space="preserve">
<style type="text/css">
	.st0{fill:#121331;}
	.st1{fill:#08a88a;}
	.st2{fill:#08a88a;}
	.st3{fill:none;stroke:#121331;stroke-width:12;stroke-linecap:round;stroke-linejoin:round;stroke-miterlimit:10;}
	.st4{fill:#08A183;}
</style>
<g>
	<g>
		<path class="st1" d="M151.04,124.44c-1.93,0-3.82-0.93-4.98-2.64c-1.56-2.32-2.9-4.78-3.97-7.33c-4.4-10.44-4.48-21.97-0.21-32.47
			c4.27-10.5,12.37-18.7,22.81-23.11c6.07-2.56,12.73-3.68,19.26-3.24c2.45,0.16,4.56,1.81,5.31,4.15c0.75,2.34,0,4.91-1.9,6.47
			c-10.29,8.47-13.85,22.98-8.67,35.28c0.12,0.28,0.26,0.59,0.4,0.9c1.37,3.02,0.03,6.57-2.99,7.94s-6.57,0.03-7.94-2.99
			c-0.17-0.37-0.34-0.75-0.51-1.15c-5.01-11.89-4.18-25.23,1.56-36.24c-7.42,3.17-13.18,9.03-16.22,16.51
			c-3.06,7.53-3.01,15.8,0.15,23.29c0.77,1.83,1.73,3.61,2.86,5.28c1.86,2.75,1.13,6.48-1.61,8.33
			C153.36,124.11,152.2,124.44,151.04,124.44z"/>
		<path class="st1" d="M278.96,124.44c-1.16,0-2.32-0.33-3.35-1.03c-2.75-1.85-3.47-5.58-1.61-8.33c1.13-1.67,2.09-3.44,2.86-5.27
			c3.16-7.49,3.22-15.76,0.16-23.29c-3.04-7.48-8.8-13.34-16.22-16.51c5.74,11,6.57,24.34,1.57,36.2c-0.19,0.43-0.35,0.81-0.52,1.19
			c-1.37,3.02-4.92,4.36-7.94,2.99c-3.02-1.37-4.36-4.92-2.99-7.94c0.14-0.3,0.27-0.61,0.41-0.93c5.17-12.27,1.61-26.78-8.68-35.25
			c-1.9-1.56-2.65-4.13-1.9-6.47c0.75-2.34,2.86-3.99,5.31-4.15c6.53-0.44,13.19,0.68,19.26,3.24
			c10.44,4.41,18.55,12.61,22.81,23.11c4.27,10.5,4.19,22.03-0.21,32.47c-1.07,2.54-2.41,5.01-3.97,7.33
			C282.78,123.51,280.89,124.44,278.96,124.44z"/>
	</g>
	<path class="st0" d="M283.91,374.45c-18.41,0-33.52-14.98-33.68-33.39l-0.16-18.6c-0.1-11.85-9.83-21.49-21.68-21.49h-26.42
		c-5.82,0-11.28,2.27-15.38,6.4c-4.1,4.12-6.34,9.6-6.3,15.42l0.1,17.79c0.05,9.04-3.43,17.54-9.81,23.94
		c-6.37,6.4-14.85,9.93-23.88,9.93h-0.6c-17.97,0-32.74-14.06-33.64-32l-4.86-97.11c-8.84,9.55-15.38,21.19-18.81,33.71
		c-3.33,12.15-14.91,20.25-27.51,19.26l-0.36-0.03c-7.94-0.63-15.06-4.69-19.6-11.17c-4.55-6.48-5.95-14.59-3.85-22.23
		c10.15-36.94,35.49-67.64,69.75-84.7c4.42-24.35,17.1-46.62,35.93-63c19.91-17.32,45.43-26.86,71.87-26.86s51.96,9.54,71.87,26.86
		c18.83,16.38,31.5,38.65,35.93,63c34.26,17.06,59.6,47.76,69.75,84.7c2.1,7.64,0.7,15.74-3.85,22.23
		c-4.54,6.47-11.66,10.54-19.54,11.16l-0.46,0.03c-12.55,0.99-24.14-7.11-27.47-19.27c-3.44-12.52-9.97-24.16-18.81-33.71
		l-4.86,97.11C316.65,360.39,301.88,374.45,283.91,374.45z M201.96,288.97h26.42c18.41,0,33.52,14.98,33.68,33.39l0.16,18.6
		c0.1,11.85,9.83,21.49,21.68,21.49c11.57,0,21.08-9.05,21.65-20.6l5.51-109.93c0.11-2.25,1.47-4.24,3.52-5.17
		c2.05-0.93,4.44-0.63,6.2,0.77c15.67,12.43,26.73,29.15,32,48.36c1.81,6.61,8.1,11.01,15,10.47l0.48-0.03
		c4.24-0.33,8.12-2.55,10.6-6.09c2.49-3.54,3.25-7.98,2.1-12.16c-9.5-34.57-33.61-63.14-66.13-78.4c-1.81-0.85-3.08-2.55-3.38-4.53
		c-7.14-47.21-48.61-82.81-96.45-82.81s-89.31,35.6-96.45,82.81c-0.3,1.98-1.57,3.68-3.38,4.53c-32.53,15.25-56.63,43.83-66.13,78.4
		c-1.15,4.18-0.38,8.61,2.1,12.16c2.48,3.53,6.36,5.75,10.66,6.09l0.38,0.03c6.9,0.54,13.22-3.86,15.03-10.47
		c5.27-19.21,16.34-35.93,32-48.36c1.76-1.4,4.16-1.69,6.2-0.77c2.05,0.93,3.41,2.92,3.52,5.17l5.51,109.93
		c0.58,11.55,10.09,20.6,21.65,20.6h0.6c5.81,0,11.27-2.27,15.37-6.39c4.1-4.12,6.35-9.6,6.31-15.41l-0.1-17.79
		c-0.05-9.03,3.42-17.54,9.79-23.95C184.44,292.5,192.92,288.97,201.96,288.97z"/>
	<path class="st0" d="M179.22,209.54c-18.25,0-33.1-14.85-33.1-33.1s14.85-33.1,33.1-33.1s33.1,14.85,33.1,33.1
		S197.47,209.54,179.22,209.54z M179.22,155.33c-11.64,0-21.1,9.47-21.1,21.1s9.47,21.1,21.1,21.1s21.1-9.47,21.1-21.1
		S190.86,155.33,179.22,155.33z"/>
	<path class="st0" d="M253.31,209.54c-14.61,0-26.49-11.89-26.49-26.49s11.88-26.49,26.49-26.49c14.61,0,26.49,11.88,26.49,26.49
		S267.92,209.54,253.31,209.54z M253.31,168.55c-7.99,0-14.49,6.5-14.49,14.49c0,7.99,6.5,14.49,14.49,14.49
		c7.99,0,14.49-6.5,14.49-14.49C267.8,175.05,261.3,168.55,253.31,168.55z"/>
	<path class="st1" d="M215,251.13c-12.73,0-23.08-10.35-23.08-23.08c0-3.31,2.69-6,6-6s6,2.69,6,6c0,6.11,4.97,11.08,11.08,11.08
		s11.08-4.97,11.08-11.08c0-3.31,2.69-6,6-6s6,2.69,6,6C238.08,240.78,227.73,251.13,215,251.13z"/>
	<path class="st1" d="M179.22,182.44c-1.58,0-3.12-0.64-4.24-1.76c-0.28-0.28-0.53-0.58-0.75-0.91c-0.21-0.33-0.4-0.68-0.55-1.04
		c-0.15-0.36-0.26-0.74-0.34-1.12c-0.08-0.39-0.12-0.78-0.12-1.17c0-0.39,0.04-0.79,0.12-1.18c0.08-0.38,0.19-0.76,0.34-1.12
		c0.15-0.36,0.34-0.71,0.55-1.03c0.22-0.33,0.47-0.64,0.75-0.92c0.28-0.27,0.58-0.52,0.91-0.74c0.33-0.22,0.67-0.4,1.04-0.55
		c0.36-0.15,0.74-0.27,1.12-0.35c0.77-0.15,1.57-0.15,2.34,0c0.39,0.08,0.76,0.2,1.13,0.35c0.36,0.15,0.71,0.33,1.03,0.55
		c0.33,0.22,0.64,0.47,0.91,0.74c1.12,1.12,1.76,2.67,1.76,4.25c0,0.39-0.04,0.78-0.12,1.17c-0.07,0.38-0.19,0.76-0.34,1.12
		c-0.15,0.36-0.33,0.71-0.55,1.04c-0.22,0.33-0.47,0.63-0.75,0.91c-0.27,0.28-0.58,0.53-0.91,0.75c-0.32,0.21-0.67,0.4-1.03,0.55
		c-0.37,0.15-0.74,0.26-1.13,0.34C180.01,182.4,179.61,182.44,179.22,182.44z"/>
	<path class="st1" d="M253.31,189.05c-1.58,0-3.13-0.64-4.24-1.76c-0.28-0.28-0.53-0.59-0.75-0.91c-0.22-0.33-0.4-0.68-0.55-1.04
		c-0.15-0.36-0.27-0.74-0.34-1.12c-0.08-0.39-0.12-0.78-0.12-1.17c0-0.4,0.04-0.79,0.12-1.18c0.07-0.38,0.19-0.76,0.34-1.12
		c0.15-0.36,0.33-0.71,0.55-1.04c0.22-0.32,0.47-0.63,0.75-0.91c1.39-1.39,3.46-2.03,5.41-1.64c0.38,0.08,0.76,0.19,1.12,0.34
		c0.36,0.16,0.71,0.34,1.04,0.56c0.33,0.22,0.63,0.47,0.91,0.74c0.28,0.28,0.53,0.59,0.75,0.91c0.21,0.33,0.4,0.68,0.55,1.04
		c0.15,0.36,0.26,0.74,0.34,1.12c0.08,0.39,0.12,0.78,0.12,1.18c0,0.39-0.04,0.78-0.12,1.17c-0.08,0.38-0.19,0.76-0.34,1.12
		c-0.15,0.36-0.34,0.71-0.55,1.04c-0.22,0.32-0.47,0.63-0.75,0.91c-0.28,0.27-0.58,0.53-0.91,0.74c-0.33,0.22-0.68,0.41-1.04,0.56
		c-0.36,0.15-0.74,0.26-1.12,0.34C254.09,189.01,253.7,189.05,253.31,189.05z"/>
</g>
</svg>
