<?xml version="1.0" encoding="utf-8"?>
<!-- Generator: Adobe Illustrator 24.1.2, SVG Export Plug-In . SVG Version: 6.00 Build 0)  -->
<svg version="1.1" id="Warstwa_3" xmlns="http://www.w3.org/2000/svg" xmlns:xlink="http://www.w3.org/1999/xlink" x="0px" y="0px"
	 viewBox="0 0 430 430" style="enable-background:new 0 0 430 430;" xml:space="preserve">
<style type="text/css">
	.st0{fill:#121331;}
	.st1{fill:#08a88a;}
	.st2{fill:none;stroke:#121331;stroke-width:12;stroke-linecap:round;stroke-linejoin:round;stroke-miterlimit:10;}
	.st3{fill:#08a88a;}
</style>
<g>
	<g>
		<g>
			<path class="st3" d="M342.75,142.71c-8.25,0-16.28-3.84-21.53-10.47c-2.06-2.6-1.62-6.37,0.97-8.43c2.6-2.06,6.37-1.62,8.43,0.97
				c3.32,4.19,8.79,6.47,13.94,5.81c1.44-0.18,3.49-0.67,5.04-1.95c1.05-0.87,1.74-2.1,1.77-3.15c0.08-3.22-1.81-4.44-10.63-6.88
				c-7.41-2.05-19.81-5.48-18.38-18.95c0.7-6.58,5.68-12.46,12.39-14.63c10.03-3.25,21.83,1.52,27.44,11.11
				c1.67,2.86,0.71,6.54-2.15,8.21c-2.86,1.67-6.54,0.71-8.21-2.15c-2.73-4.68-8.74-7.26-13.38-5.76c-2.17,0.71-3.96,2.63-4.16,4.49
				c-0.27,2.54,0.42,3.57,9.64,6.12c7.86,2.17,19.75,5.46,19.43,18.74c-0.11,4.58-2.34,8.99-6.12,12.11
				c-2.98,2.46-6.84,4.05-11.17,4.6C344.96,142.64,343.85,142.71,342.75,142.71z"/>
			<path class="st3" d="M341.64,154.08c-3.31,0-6-2.69-6-6v-11.41c0-3.31,2.69-6,6-6s6,2.69,6,6v11.41
				C347.64,151.39,344.95,154.08,341.64,154.08z"/>
			<path class="st3" d="M341.64,96.01c-3.31,0-6-2.69-6-6V78.63c0-3.31,2.69-6,6-6s6,2.69,6,6v11.38
				C347.64,93.32,344.95,96.01,341.64,96.01z"/>
		</g>
		<path class="st0" d="M341.64,178.57c-35.96,0-65.22-29.26-65.22-65.22s29.26-65.22,65.22-65.22s65.22,29.26,65.22,65.22
			S377.6,178.57,341.64,178.57z M341.64,60.13c-29.35,0-53.22,23.87-53.22,53.22s23.87,53.22,53.22,53.22
			c29.34,0,53.22-23.87,53.22-53.22S370.98,60.13,341.64,60.13z"/>
	</g>
	<g>
		<path class="st3" d="M343.7,312.35c-9.23-2.55-9.91-3.58-9.64-6.12c0.2-1.85,1.98-3.78,4.16-4.48c4.64-1.5,10.64,1.08,13.38,5.75
			c1.67,2.86,5.35,3.83,8.21,2.15c2.86-1.67,3.82-5.35,2.15-8.21c-3.27-5.59-8.64-9.53-14.54-11.21v-6.31c0-3.31-2.69-6-6-6
			s-6,2.69-6,6v6.16c-0.3,0.08-0.6,0.15-0.9,0.24c-6.71,2.18-11.69,8.06-12.39,14.63c-1.43,13.48,10.97,16.91,18.38,18.96
			c8.82,2.44,10.71,3.66,10.63,6.88c-0.03,1.05-0.72,2.29-1.77,3.15c-1.55,1.28-3.59,1.76-5.04,1.95
			c-5.15,0.65-10.63-1.63-13.94-5.81c-2.06-2.6-5.83-3.04-8.43-0.97c-2.6,2.06-3.03,5.83-0.97,8.43c3.72,4.69,8.83,7.98,14.43,9.51
			v6.34c0,3.31,2.69,6,6,6s6-2.69,6-6v-5.83c3.69-0.7,6.99-2.19,9.6-4.35c3.77-3.12,6-7.54,6.12-12.11
			C363.45,317.81,351.57,314.52,343.7,312.35z"/>
		<path class="st0" d="M341.41,381.87c-35.96,0-65.22-29.26-65.22-65.22s29.26-65.22,65.22-65.22s65.22,29.26,65.22,65.22
			S377.37,381.87,341.41,381.87z M341.41,263.43c-29.34,0-53.22,23.87-53.22,53.22s23.87,53.22,53.22,53.22s53.22-23.87,53.22-53.22
			S370.75,263.43,341.41,263.43z"/>
	</g>
	<path class="st0" d="M115.17,307.25c-50.74,0-92.03-41.28-92.03-92.03s41.28-92.03,92.03-92.03s92.03,41.28,92.03,92.03
		S165.91,307.25,115.17,307.25z M115.17,135.2c-44.13,0-80.03,35.9-80.03,80.03s35.9,80.03,80.03,80.03s80.03-35.9,80.03-80.03
		S159.29,135.2,115.17,135.2z"/>
	<g>
		<path class="st1" d="M83.84,253.38c-1.54,0-3.07-0.59-4.24-1.76c-2.34-2.34-2.34-6.14,0-8.49l63.94-63.94
			c2.34-2.34,6.14-2.34,8.49,0c2.34,2.34,2.34,6.14,0,8.49l-63.94,63.94C86.92,252.79,85.38,253.38,83.84,253.38z"/>
		<path class="st1" d="M140.16,258.6c-10.2,0-18.5-8.3-18.5-18.5c0-10.2,8.3-18.5,18.5-18.5c10.2,0,18.5,8.3,18.5,18.5
			C158.66,250.31,150.36,258.6,140.16,258.6z M140.16,233.61c-3.58,0-6.5,2.91-6.5,6.5c0,3.58,2.91,6.5,6.5,6.5
			c3.58,0,6.5-2.91,6.5-6.5C146.66,236.53,143.74,233.61,140.16,233.61z"/>
		<path class="st1" d="M90.18,208.83c-10.2,0-18.5-8.3-18.5-18.5c0-10.2,8.3-18.5,18.5-18.5c10.2,0,18.5,8.3,18.5,18.5
			C108.67,200.53,100.38,208.83,90.18,208.83z M90.18,183.84c-3.58,0-6.5,2.91-6.5,6.5c0,3.58,2.91,6.5,6.5,6.5
			c3.58,0,6.5-2.91,6.5-6.5C96.67,186.75,93.76,183.84,90.18,183.84z"/>
	</g>
	<g>
		<path class="st0" d="M216.54,155.1c-2.46,0-4.77-1.53-5.65-3.98c-1.11-3.12,0.51-6.55,3.63-7.67l36.67-13.1
			c3.12-1.11,6.55,0.51,7.67,3.63c1.11,3.12-0.51,6.55-3.63,7.67l-36.67,13.1C217.89,154.99,217.21,155.1,216.54,155.1z"/>
		<path class="st0" d="M253.2,300.45c-0.67,0-1.35-0.11-2.02-0.35l-36.67-13.1c-3.12-1.12-4.75-4.55-3.63-7.67
			c1.12-3.12,4.55-4.75,7.67-3.63l36.67,13.1c3.12,1.12,4.75,4.55,3.63,7.67C257.98,298.92,255.67,300.45,253.2,300.45z"/>
	</g>
</g>
</svg>
