<?xml version="1.0" encoding="utf-8"?>
<!-- Generator: Adobe Illustrator 26.2.1, SVG Export Plug-In . SVG Version: 6.00 Build 0)  -->
<svg version="1.1" id="outline" xmlns="http://www.w3.org/2000/svg" xmlns:xlink="http://www.w3.org/1999/xlink" x="0px" y="0px"
	 viewBox="0 0 500 500" style="enable-background:new 0 0 500 500;" xml:space="preserve">
<style type="text/css">
	.st0{fill:#121331;}
	.st1{fill:none;stroke:#121331;stroke-width:12;stroke-linecap:round;stroke-linejoin:round;stroke-miterlimit:10;}
	.st2{fill:#08a88a;}
	.st3{fill:none;stroke:#08a88a;stroke-width:12;stroke-linecap:round;stroke-linejoin:round;stroke-miterlimit:10;}
	.st4{fill:#FFFFFF;}
	.st5{fill:#08a88a;}
</style>
<g>
	<path class="st0" d="M315.4,258.8c-3.3,0-6-2.7-6-6s2.7-6,6-6s6,2.7,6,6v0C321.4,256.1,318.7,258.8,315.4,258.8z"/>
	<path class="st0" d="M315.4,333.7c-3.3,0-6-2.7-6-6v-1.5c0-3.3,2.7-6,6-6s6,2.7,6,6v1.5C321.4,331,318.7,333.7,315.4,333.7z"/>
	<path class="st0" d="M245.6,369c-33.7,0-57.4-8.9-63.1-11.2l-41.5,0c0,0,0,0,0,0c-1.6,0-3.1-0.6-4.2-1.8c-1.1-1.1-1.8-2.7-1.8-4.2
		l0-130.2c0-3.3,2.7-6,6-6l39.5,0c20.3-30.4,41-49.9,63.3-59.7l46.3-43.5c0.7-0.7,1.6-1.2,2.6-1.4c1.1-0.3,2.2-0.4,3.4-0.4
		c9.3,0,21.9,9.8,25.4,17.6c5.4,10.5,2.7,32.4-13.9,43.2c-7.3,4.8-17.9,23.9-25,38.9l20.1-0.1c0,0,0,0,0,0c3.3,0,6,2.7,6,6
		c0,3.3-2.7,6-6,6l-29.4,0.2c0,0,0,0,0,0c-2,0-3.9-1-5-2.7c-1.1-1.7-1.3-3.8-0.5-5.7c1.9-4.4,18.5-43.1,33.2-52.7
		c11.8-7.7,12.2-23.1,9.8-27.7c-0.1-0.1-0.1-0.3-0.2-0.4c-1.8-4.2-9.8-9.9-13.8-10.6l-45.5,42.7c-0.5,0.5-1.1,0.9-1.8,1.2
		c-21.1,8.9-41,28-60.8,58.3c-1.1,1.7-3,2.7-5,2.7l-36.8,0l0,118.2l36.8,0c0,0,0,0,0,0c0.9,0,1.7,0.2,2.5,0.5
		c0.2,0.1,24.1,10.7,59.4,10.7c0,0,0.1,0,0.1,0c20.4,0,39.3,0,52.3,0c3.3,0,6,2.7,6,6s-2.7,6-6,6h0c-13,0-32,0-52.3,0
		C245.7,369,245.6,369,245.6,369z"/>
	<path class="st0" d="M302.1,258.8c-3.3,0-6-2.7-6-6c0-3.3,2.7-6,6-6l29,0c7.4,0,13.4-6,13.4-13.4c0-3-1.2-5.9-3.3-8
		c-2.1-2.1-5-3.3-8-3.3c0,0,0,0,0,0l-35.3,0c0,0,0,0,0,0c-3.3,0-6-2.7-6-6c0-3.3,2.7-6,6-6l35.4,0c0,0,0,0,0,0
		c6.2,0,12.1,2.4,16.5,6.8c4.4,4.4,6.8,10.2,6.8,16.5c0,14-11.4,25.4-25.4,25.4L302.1,258.8C302.1,258.8,302.1,258.8,302.1,258.8z"
		/>
	<path class="st0" d="M301.9,258.8c-12.9,0-23.3-10.4-23.3-23.3c0-14,11.4-25.4,25.4-25.4l17.4,0c0,0,0,0,0,0c3.3,0,6,2.7,6,6
		c0,3.3-2.7,6-6,6l-17.4,0c-7.4,0-13.4,6-13.4,13.4c0,6.2,5.1,11.3,11.3,11.3c0,0,0,0,0,0l19.5,0c0,0,0,0,0,0c3.3,0,6,2.7,6,6
		c0,3.3-2.7,6-6,6L301.9,258.8C301.9,258.8,301.9,258.8,301.9,258.8z"/>
	<path class="st0" d="M301.9,295.5c-6.2,0-12-2.4-16.4-6.8c-4.4-4.4-6.8-10.3-6.8-16.5c0-14,11.4-25.4,25.4-25.4l17.4,0c0,0,0,0,0,0
		c3.3,0,6,2.7,6,6c0,3.3-2.7,6-6,6l-17.5,0c-7.4,0-13.4,6-13.4,13.4c0,3,1.2,5.9,3.3,8c2.1,2.1,5,3.3,8,3.3c0,0,0,0,0,0l19.5,0
		c3.3,0,6,2.7,6,6s-2.7,6-6,6L301.9,295.5C301.9,295.5,301.9,295.5,301.9,295.5z"/>
	<path class="st0" d="M301.9,332.3c-0.5,0-0.9,0-1.4,0c-12.3-0.7-21.9-10.9-21.9-23.3c0-14,11.4-25.4,25.4-25.4l17.5,0
		c3.3,0,6,2.7,6,6s-2.7,6-6,6l-17.4,0c-7.4,0-13.4,6-13.4,13.4c0,6,4.7,10.9,10.6,11.3c0.2,0,0.5,0,0.7,0l19.6,0c3.3,0,6,2.7,6,6
		s-2.7,6-6,6L301.9,332.3z"/>
	<path class="st0" d="M297.9,332.2c-3.3,0-6-2.7-6-6s2.7-6,6-6l22.8,0c7.4,0,13.4-6,13.4-13.4c0-6.2-5-11.2-11.2-11.3l-20.8,0
		c0,0,0,0,0,0c-3.3,0-6-2.7-6-6c0-3.3,2.7-6,6-6l20.9,0c12.8,0.1,23.1,10.6,23.1,23.3c0,14-11.4,25.4-25.4,25.4L297.9,332.2z"/>
	<path class="st0" d="M379,375.5c-1.1,0-2.2-0.1-3.4-0.2l-78.2-6.3c-3.3-0.3-5.8-3.2-5.5-6.5c0.3-3.3,3.2-5.8,6.5-5.5l78.4,6.4
		c0.1,0,0.3,0,0.4,0c3.5,0.5,7-0.5,9.7-2.8c2.7-2.3,4.2-5.7,4.2-9.2c0-6-4.3-11-10.2-12l-83.5-7.2c-3.3-0.3-5.7-3.2-5.5-6.5
		c0.3-3.3,3.2-5.7,6.5-5.5l83.7,7.2c0.1,0,0.2,0,0.4,0c11.9,1.8,20.6,11.8,20.6,23.8c0,7-3,13.7-8.4,18.3
		C390.3,373.4,384.7,375.5,379,375.5z"/>
	<path class="st0" d="M302.1,295.5c-3.3,0-6-2.7-6-6c0-3.3,2.7-6,6-6l26.7,0c6.8,0,12.3-5.5,12.3-12.3c0-3.3-1.3-6.4-3.6-8.8
		c-2.3-2.3-5.4-3.6-8.7-3.6c0,0,0,0,0,0l-26.7,0c0,0,0,0,0,0c-3.3,0-6-2.7-6-6c0-3.3,2.7-6,6-6l26.7,0c0,0,0,0,0,0
		c6.5,0,12.6,2.5,17.2,7.1c4.6,4.6,7.1,10.7,7.1,17.2c0,13.4-10.9,24.3-24.3,24.4L302.1,295.5C302.1,295.5,302.1,295.5,302.1,295.5z
		"/>
	<path class="st2" d="M141,369.9H90.5c-3.3,0-6-2.7-6-6V221c0-2.4,1.4-4.5,3.6-5.5l50.5-22.1c1.9-0.8,4-0.6,5.7,0.5
		c1.7,1.1,2.7,3,2.7,5v165C147,367.2,144.3,369.9,141,369.9z M96.5,357.9H135V208.1l-38.5,16.8V357.9z"/>
	<path class="st0" d="M213.7,269.7c-0.2,0-0.3,0-0.5,0c-3.3,0-6-2.7-6-6c0-3.3,2.7-6,6-6c0.2,0,0.3,0,0.4,0
		c15.7,0,29.5-7.1,40.9-21.1c8.9-10.9,13-22.2,13-22.3c1.1-3.1,4.5-4.7,7.7-3.6c3.1,1.1,4.8,4.5,3.7,7.6c-0.2,0.5-4.7,13-14.8,25.6
		C250.5,260.8,233,269.7,213.7,269.7z"/>
</g>
</svg>
