<?xml version="1.0" encoding="utf-8"?>
<!-- Generator: Adobe Illustrator 25.0.1, SVG Export Plug-In . SVG Version: 6.00 Build 0)  -->
<svg version="1.1" id="Layer_1" xmlns="http://www.w3.org/2000/svg" xmlns:xlink="http://www.w3.org/1999/xlink" x="0px" y="0px"
	 viewBox="0 0 430 430" style="enable-background:new 0 0 430 430;" xml:space="preserve">
<style type="text/css">
	.st0{fill:#08a88a;}
	.st1{fill:#121331;}
</style>
<g>
	<path class="st0" d="M283.1,190.6c-3.3,0-6-2.7-6-6v-20.4c0-3.3,2.7-6,6-6s6,2.7,6,6v20.4C289.1,188,286.4,190.6,283.1,190.6z"/>
	<path class="st1" d="M213,392.1c-6.5,0-13.1-0.7-19.6-2l-51.6-10.5c-29.8-6.1-60.4-9.2-90.9-9.2h-9.6c-3.3,0-6-2.7-6-6v-60.7
		c0-2.6,1.6-4.9,4.1-5.7c51.7-17.5,88.6-21.8,119.5-14c8.8,2.2,18.1,3.4,27.4,3.4H250c8.7,0,16.9,3.4,23.1,9.6
		c4.3,4.3,7.2,9.5,8.6,15.2l63-33.7c15.6-8.4,35.1-2.5,43.5,13.1c1.8,3.3,2.2,7.1,1.3,10.8c-1,3.9-3.7,7.3-7.3,9.2l-121.1,68
		C246.2,387.8,229.7,392.1,213,392.1z M47.4,358.4H51c31.3,0,62.6,3.2,93.3,9.4l51.6,10.5c20.2,4.1,41.2,0.8,59.2-9.3L376.3,301
		c0,0,0.1,0,0.1-0.1c0.9-0.5,1.3-1.3,1.4-1.7c0.1-0.4,0.2-1.2-0.2-2c-5.2-9.8-17.5-13.5-27.2-8.2l-69,37c-0.7,1.5-1.7,2.9-2.9,4.1
		c-2.7,2.7-6.3,4.2-10.1,4.2h-75.6c-3.3,0-6-2.7-6-6s2.7-6,6-6h75.6c0.6,0,1.1-0.3,1.4-0.5c0.1-1,0.4-2,0.9-2.8
		c-0.2-5.1-2.4-9.9-6-13.6c-3.9-3.9-9.1-6-14.6-6h-63.6c-10.3,0-20.5-1.3-30.3-3.7c-27.8-7-61.4-3.2-108.7,12.4V358.4z"/>
	<path class="st1" d="M323.5,170.2h-81.6c-3.3,0-6-2.7-6-6v-27.3c0-3.3,2.7-6,6-6h81.6c3.3,0,6,2.7,6,6v27.3
		C329.5,167.5,326.8,170.2,323.5,170.2z M247.9,158.2h69.6v-15.3h-69.6V158.2z"/>
	<path class="st0" d="M282.6,277c-15.4,0-28-12.6-28-28c0-13.5,19.4-38.9,23.3-43.9c1.1-1.5,2.9-2.3,4.7-2.3s3.6,0.8,4.7,2.3
		c3.9,5,23.3,30.4,23.3,43.9C310.6,264.4,298,277,282.6,277z M282.6,218.9c-7.7,10.8-16,24.4-16,30.2c0,8.8,7.2,16,16,16
		c8.8,0,16-7.2,16-16C298.6,243.3,290.3,229.6,282.6,218.9z"/>
	<path class="st0" d="M362.2,142.9H203.1c-17.9,0-32.4-14.5-32.4-32.4V44.1c0-3.3,2.7-6,6-6s6,2.7,6,6v66.3
		c0,11.2,9.1,20.4,20.4,20.4h159.1c11.2,0,20.4-9.1,20.4-20.4V44.1c0-3.3,2.7-6,6-6s6,2.7,6,6v66.3
		C394.6,128.3,380.1,142.9,362.2,142.9z"/>
	<path class="st0" d="M282.7,102.8c-17.9,0-32.4-14.6-32.4-32.4s14.6-32.4,32.4-32.4s32.4,14.6,32.4,32.4S300.5,102.8,282.7,102.8z
		 M282.7,49.9c-11.3,0-20.4,9.2-20.4,20.4s9.2,20.4,20.4,20.4s20.4-9.2,20.4-20.4S293.9,49.9,282.7,49.9z"/>
</g>
</svg>
