<?xml version="1.0" encoding="utf-8"?>
<!-- Generator: Adobe Illustrator 25.0.1, SVG Export Plug-In . SVG Version: 6.00 Build 0)  -->
<svg version="1.1" id="Layer_1" xmlns="http://www.w3.org/2000/svg" xmlns:xlink="http://www.w3.org/1999/xlink" x="0px" y="0px"
	 viewBox="0 0 430 430" style="enable-background:new 0 0 430 430;" xml:space="preserve">
<style type="text/css">
	.st0{fill:#08a88a;}
	.st1{fill:#121331;}
</style>
<path class="st0" d="M74.9,159.3c-1.6,0-3.3-0.7-4.4-2c-4.5-5-7.2-11.2-7.8-17.9c-0.7-8.1,1.8-16,7.1-22.3
	c5.3-6.2,12.6-10.1,20.8-10.7c0.2,0,0.4,0,0.6,0l0.2,0c3.3-0.2,6.1,2.3,6.3,5.6c0.2,3.3-2.3,6.1-5.6,6.3l-0.5,0
	c-4.9,0.4-9.4,2.7-12.6,6.5c-3.2,3.8-4.7,8.6-4.3,13.5c0.3,4.1,2,7.9,4.7,10.9c2.2,2.5,2,6.2-0.4,8.5
	C77.8,158.7,76.4,159.3,74.9,159.3z"/>
<path class="st0" d="M83.9,303.3c-6.6,0-13.2-2.4-18.3-6.9c-11.4-10.1-12.5-27.6-2.4-39c0.7-0.8,1.4-1.5,2.1-2.2
	C59,248,55.2,238.8,54.6,229c-0.7-11.8,3.2-23.2,11-32c9.3-10.5,22.6-15.9,36.7-14.8c3.3,0.3,5.8,3.1,5.5,6.5
	c-0.3,3.3-3.1,5.8-6.5,5.5c-10.2-0.8-20,3.1-26.7,10.8c-5.7,6.5-8.6,14.8-8,23.4c0.5,8.6,4.4,16.5,10.8,22.2c0.4,0.4,0.8,0.7,1.2,1
	c1.6,1.3,2.4,3.4,2.2,5.4c-0.3,2.1-1.6,3.8-3.5,4.7c-2,0.9-3.7,2.2-5.2,3.8c-5.7,6.4-5.1,16.3,1.3,22c4.9,4.3,12,5.1,17.7,2.1
	c2.9-1.6,6.6-0.5,8.1,2.5s0.5,6.6-2.5,8.1C92.8,302.3,88.3,303.3,83.9,303.3z"/>
<path class="st0" d="M351.6,213.8c-2.7,0-5.2-1.9-5.8-4.7c-0.7-3.2,1.3-6.4,4.5-7.2c0.6-0.1,1.1-0.3,1.5-0.4
	c4.3-1.4,7.8-4.4,9.9-8.5c2.1-4,2.4-8.6,1-13c-1.6-4.9-5.3-8.8-10.2-10.6c-2-0.8-3.5-2.5-3.8-4.7s0.5-4.3,2.2-5.6
	c9.5-7.6,13.4-20.4,9.6-31.9c-5-15.3-21.4-23.7-36.7-18.8l-0.5,0.2c-2.4,1.2-5.3,0.7-7.1-1.3c-1.8-2-2.1-4.9-0.7-7.2
	c3.1-5.1,4.5-13.9,0.9-20.9c-2.8-5.5-8.1-8.6-15.6-9.2c-3.3-0.3-5.8-3.1-5.5-6.4c0.3-3.3,3.2-5.8,6.4-5.5
	c11.7,0.9,20.7,6.5,25.4,15.7c3.2,6.3,4.1,14.1,2.8,21.3c18.4-1.3,36,10,42,28.3c4.4,13.5,1.4,28.3-7.5,39.1
	c4.5,3.5,7.9,8.3,9.7,13.8c2.4,7.4,1.8,15.2-1.7,22.1c-3.5,6.9-9.5,12-16.9,14.4c-0.8,0.3-1.6,0.5-2.6,0.7
	C352.5,213.7,352,213.8,351.6,213.8z"/>
<path class="st0" d="M132,136.7c-1.6,0-3.2-0.6-4.3-1.9l-7.6-7.9c-5.8-6-8.9-14-8.9-22.3c0-8.9,3.6-17.2,10-23.4
	c0.5-0.5,1-0.9,1.5-1.3c2.6-2,6.4-1.5,8.4,1.1c2,2.6,1.5,6.4-1.1,8.4c-0.2,0.2-0.4,0.3-0.6,0.5c-4,3.8-6.2,9.1-6.2,14.7
	c0,5.2,2,10.2,5.6,14l7.6,7.9c2.3,2.4,2.2,6.2-0.2,8.5C135,136.2,133.5,136.7,132,136.7z"/>
<path class="st0" d="M234,191.7c-1.5,0-3-0.5-4.1-1.7c-2.4-2.3-2.5-6.1-0.2-8.5c2.3-2.4,6.1-2.5,8.5-0.2s2.5,6.1,0.2,8.5l0,0
	C237.2,191.1,235.6,191.7,234,191.7z"/>
<path class="st0" d="M235.7,190.1c-1.6,0-3.2-0.6-4.4-1.9c-0.4-0.5-0.8-1-1-1.5l-1.6-1.7c-2.3-2.4-2.2-6.2,0.2-8.5
	c2.4-2.3,6.2-2.2,8.5,0.2l2.8,3c1.1,1.2,1.7,2.7,1.7,4.3c0,1.6-0.7,3.1-1.9,4.2l-0.2,0.2C238.6,189.6,237.2,190.1,235.7,190.1z"/>
<path class="st1" d="M178.2,77.8c-3.3,0-6-2.7-6-6v0c0-3.3,2.7-6,6-6s6,2.7,6,6S181.5,77.8,178.2,77.8z"/>
<path class="st1" d="M124.9,167.1c-0.5,0-0.9-0.1-1.4-0.2c-3.2-0.8-5.2-4-4.5-7.2l13.5-57.7c0.8-3.2,4-5.2,7.2-4.5
	c3.2,0.8,5.2,4,4.5,7.2l-13.5,57.7C130.1,165.2,127.6,167.1,124.9,167.1z"/>
<path class="st0" d="M222.7,142.1c-1.5,0-3.1-0.6-4.2-1.8l-0.2-0.2c-2.3-2.3-2.4-6.1,0-8.5c2.3-2.3,6.1-2.4,8.5,0l0.2,0.2
	c2.3,2.3,2.4,6.1,0,8.5C225.8,141.5,224.3,142.1,222.7,142.1z"/>
<path class="st0" d="M157.3,129.2c-1.6,0-3.2-0.6-4.3-1.9L128.8,102c-4.3-4.5-7.2-10.1-8.4-16.1c-0.4-2-0.6-4.1-0.6-6.2
	c0-8.9,3.6-17.2,10-23.4c7.2-6.9,18.7-6.6,25.6,0.6l4.4,4.6c2.3,2.4,2.2,6.2-0.2,8.5c-2.4,2.3-6.2,2.2-8.5-0.2l-4.3-4.5
	c-2.3-2.4-6.2-2.5-8.6-0.2c-4.1,3.9-6.3,9.1-6.3,14.7c0,1.3,0.1,2.6,0.4,3.9c0.7,3.8,2.6,7.3,5.3,10.1l24.2,25.3
	c2.3,2.4,2.2,6.2-0.2,8.5C160.3,128.6,158.8,129.2,157.3,129.2z"/>
<g>
	<path class="st0" d="M307.5,231C307.5,231,307.5,231,307.5,231c-3.3,0-6-2.7-6-6l0.3-30L273,143c-1.6-2.9-0.6-6.6,2.3-8.2
		c2.9-1.6,6.6-0.6,8.2,2.3l29.6,53.5c0.5,0.9,0.8,1.9,0.8,3l-0.3,31.5C313.4,228.4,310.8,231,307.5,231z"/>
	<path class="st0" d="M219.1,383.2c-1.1,0-2.1-0.3-3.1-0.9c-1.4-0.8-2.4-2.2-2.8-3.8l-8.4-36.3c-0.1-0.4-0.2-0.9-0.2-1.3
		c0-3.3,2.7-6,6-6c2.9,0,5.4,2.1,5.9,4.8l6.9,30.1l98.7-26.9l-14.5-53.2c-0.1-0.5-0.2-1-0.2-1.6c0-3.3,2.7-6,6-6
		c2.8,0,5.2,2,5.8,4.6l16,58.8c0.4,1.5,0.2,3.2-0.6,4.6c-0.8,1.4-2.1,2.4-3.6,2.8L220.7,383C220.1,383.1,219.6,383.2,219.1,383.2z"
		/>
	<path class="st0" d="M228.6,245.2c-1.1,0-2.2-0.3-3.2-0.9c-2.8-1.8-3.7-5.5-1.9-8.3c10.8-17.4,24.5-28.2,25.1-28.6
		c2.6-2,6.4-1.6,8.4,1c2,2.6,1.6,6.4-1,8.4c-0.1,0.1-12.6,10-22.3,25.5C232.6,244.2,230.6,245.2,228.6,245.2z"/>
</g>
<g>
	<path class="st1" d="M264.1,268.5c-0.4,0-0.9,0-1.3-0.2c-18.1-4.1-31.3-12.9-39.3-26.1c-10.5-17.2-7.9-35.7-7.8-36.4
		c0.5-3.3,3.5-5.5,6.8-5.1c3.3,0.5,5.5,3.5,5.1,6.8c0,0.1-2,15,6.2,28.4c6.3,10.3,16.9,17.2,31.7,20.6c3.2,0.7,5.3,3.9,4.5,7.2
		C269.3,266.7,266.9,268.5,264.1,268.5z"/>
	<path class="st1" d="M179.1,384.8c-1.3,0-2.5-0.4-3.6-1.2l-81-60.7c-2.6-2-3.2-5.7-1.2-8.4l29.3-39.8c-11.8-40.1-12.3-88.2-1-126.4
		c0.9-3.2,4.3-5,7.5-4c3.2,0.9,5,4.3,4,7.5c-10.8,36.4-10.1,84.4,1.8,122.3c0.6,1.8,0.2,3.8-0.9,5.3l-27.6,37.4l71.6,53.7l33-39.7
		c2.1-2.5,5.9-2.9,8.4-0.8s2.9,5.9,0.8,8.5l-36.6,44C182.6,384.1,180.9,384.8,179.1,384.8z"/>
</g>
<path class="st1" d="M143.7,188.8c-0.4,0-0.8,0-1.2-0.1c-3.2-0.7-5.3-3.9-4.7-7.1l9.6-46.1c0-0.2,0.1-0.3,0.1-0.5l11.8-38.8
	c1-3.2,4.3-5,7.5-4c3.2,1,5,4.3,4,7.5l-11.7,38.6l-9.5,45.8C148.9,186.8,146.5,188.8,143.7,188.8z"/>
<path class="st1" d="M202,114.2c-3.3,0-6-2.7-6-6v0c0-3.3,2.7-6,6-6s6,2.7,6,6S205.3,114.2,202,114.2z"/>
<path class="st0" d="M187.1,127c-1.6,0-3.2-0.6-4.3-1.9l-26.4-27.6c-5.7-6-8.9-13.9-8.9-22.1c0-4.1,0.8-8.2,2.3-12
	c0.8-2.1,1.9-4.2,3.3-6.1c1.2-1.8,2.7-3.5,4.3-5.1c7.1-6.8,18.3-6.8,25.4,0.1c0,0,0.1,0.1,0.1,0.1c0.2,0.2,0.3,0.3,0.5,0.5l2.8,2.9
	c2.3,2.4,2.2,6.2-0.2,8.5c-2.4,2.3-6.2,2.2-8.5-0.2l-2.8-3c0,0-0.1-0.1-0.1-0.1l-0.1-0.1l0,0c-2.4-2.4-6.3-2.4-8.8,0
	c-1,1-1.9,2-2.7,3.2c-0.8,1.2-1.5,2.5-2,3.8c-1,2.4-1.5,4.9-1.5,7.5c0,5.2,2,10.1,5.5,13.9l26.4,27.6c2.3,2.4,2.2,6.2-0.2,8.5
	C190.1,126.4,188.6,127,187.1,127z"/>
<path class="st0" d="M232.2,152.1c-1,0-2.1-0.3-3-0.8c-2.9-1.7-3.8-5.3-2.2-8.2c0.9-1.5,1.9-3,2.9-4.3c3.1-4,7-7.4,11.5-9.9
	c3-1.7,6.5-2.5,10-2.4c3.3,0.2,5.9,3,5.7,6.3c-0.2,3.3-3,5.9-6.3,5.7c-0.1,0-0.2,0-0.3,0c-1.1,0-2.3,0.3-3.3,0.9
	c-3.1,1.7-5.8,4-7.9,6.8c-0.7,0.9-1.4,1.9-2,2.9C236.3,151,234.3,152.1,232.2,152.1z"/>
<path class="st1" d="M222.7,142.1c-1,0-2-0.2-2.9-0.8c-2.9-1.6-3.9-5.3-2.3-8.2l0.4-0.7c0.1-0.1,0.2-0.3,0.2-0.4l1.6-2.7
	c1-1.9,3-3.1,5.3-3.1c3.3,0,6,2.7,6,6v0c0,1.1-0.3,2.1-0.8,3l-1.8,3.1c0,0.1-0.1,0.2-0.1,0.2L228,139
	C226.9,141,224.8,142.1,222.7,142.1z"/>
<path class="st1" d="M166.2,194.7c-0.4,0-0.8,0-1.3-0.1c-3.2-0.7-5.3-3.9-4.6-7.1l10.6-49.8c0.1-0.6,0.4-1.2,0.7-1.8l20.6-35.6
	c1.7-2.9,5.3-3.8,8.2-2.2c2.9,1.7,3.8,5.3,2.2,8.2l-20.2,34.7L172,189.9C171.4,192.8,168.9,194.7,166.2,194.7z"/>
<path class="st1" d="M250.9,109.9c-1.3,0-2.6-0.4-3.7-1.3c-2.6-2-3.1-5.8-1-8.4c5.8-7.4,5.7-17.7-0.1-25.1c-1.2-1.4-2.9-2.3-4.8-2.3
	c-1,0-2.4,0.2-3.8,1.3l-9,7.1c-2.6,2.1-6.4,1.6-8.4-1c-2.1-2.6-1.6-6.4,1-8.4l9-7.1c3.2-2.5,7.2-3.9,11.2-3.9
	c5.5,0,10.7,2.5,14.2,6.8c9.3,11.8,9.4,28.2,0.2,40C254.5,109.1,252.7,109.9,250.9,109.9z"/>
<path class="st0" d="M225.6,139c-1.6,0-3.1-0.6-4.3-1.8l-0.6-0.7c-0.1-0.1-0.2-0.2-0.2-0.2l-22.8-23.9c-0.1-0.1-0.1-0.1-0.2-0.2
	l-16.6-17.4c-1.7-1.8-3.1-3.7-4.3-5.7c-2.8-4.8-4.4-10.3-4.4-15.9c0-0.5,0-1,0-1.5c0-0.1,0-0.1,0-0.2c0.3-5.2,1.9-10.3,4.6-14.7
	c1.4-2.3,3.1-4.4,5.1-6.3c1.2-1.1,2.5-2.1,3.9-2.9c7.6-4.2,17.1-2.8,23.1,3.5l50.3,52.7c2.3,2.4,2.2,6.2-0.2,8.5s-6.2,2.2-8.5-0.2
	l-50.3-52.7c-2.2-2.3-5.8-2.9-8.6-1.3c-0.5,0.3-1,0.6-1.5,1.1c-1.2,1.2-2.3,2.5-3.1,3.9c-1.6,2.7-2.6,5.8-2.8,9c0,0,0,0.1,0,0.1
	c0,0.3,0,0.7,0,1c0,3.5,0.9,6.9,2.7,9.8c0.7,1.3,1.6,2.4,2.7,3.5l16.8,17.6c0.1,0.1,0.1,0.1,0.2,0.2l22.8,23.9
	c0.1,0.1,0.1,0.1,0.2,0.2l0.5,0.5c2.3,2.4,2.2,6.2-0.1,8.5C228.6,138.4,227.1,139,225.6,139z"/>
<path class="st1" d="M189.8,197.3c-0.9,0-1.9-0.2-2.7-0.7c-2.9-1.5-4.1-5.1-2.6-8.1l23.7-46.3c0.3-0.6,0.7-1.1,1.1-1.5l35-34.5
	c0.6-0.6,1.3-1,2-1.3l34.6-13.4c2.1-0.8,4.3-1.2,6.5-1.2c7.5,0,14.1,4.5,16.9,11.5c6.4,16.6-1.9,35.4-18.5,41.8l-12.7,4.9l-2.4,2.4
	c-2.4,2.3-6.2,2.3-8.5-0.1c-2.3-2.4-2.3-6.2,0.1-8.5l3.3-3.2c0.6-0.6,1.3-1,2.1-1.3l13.9-5.4c10.4-4,15.7-15.8,11.6-26.3
	c-0.9-2.4-3.1-3.9-5.7-3.9c-0.7,0-1.5,0.1-2.2,0.4l-33.4,12.9l-33.4,33L195.1,194C194,196.1,191.9,197.3,189.8,197.3z"/>
<path class="st1" d="M221.6,212.8c-1,0-2.1-0.3-3-0.8c-2.9-1.7-3.8-5.4-2.1-8.2l12.4-21c0-0.1,0.1-0.1,0.1-0.2l1.3-2.2
	c1.7-2.8,5.4-3.7,8.2-2c2.8,1.7,3.7,5.4,2,8.2l-1.3,2.2c0,0.1-0.1,0.1-0.1,0.2l-12.3,20.9C225.7,211.7,223.6,212.8,221.6,212.8z"/>
<path class="st0" d="M306.3,231.6c-2.9,0-5.4-2.1-5.9-5c-2.3-13.4-7.1-26.1-14.4-37.7l-29.7-47.3c-1.2-1.9-3.2-3.1-5.4-3.2
	c0,0-0.1,0-0.1,0c-0.1,0-0.2,0-0.3,0c-1.1,0-2.3,0.3-3.3,0.9c-3.1,1.7-5.8,4-7.9,6.8c-0.7,0.9-1.4,1.9-2,2.9
	c-2.5,4.4-3.7,9.4-3.5,14.4c0.2,3.6,1.1,7.1,2.7,10.3c0.3,0.6,0.6,1.2,1,1.8l19.8,33.4c1.7,2.9,0.8,6.5-2.1,8.2
	c-2.8,1.7-6.5,0.8-8.2-2.1l-19.8-33.4c-0.6-1-1-1.8-1.5-2.7c-2.3-4.6-3.6-9.7-3.9-15c-0.4-7.3,1.4-14.6,5.1-20.9
	c0.9-1.5,1.9-3,2.9-4.3c3.1-4,7-7.4,11.5-9.9c3-1.7,6.4-2.5,9.9-2.4c0,0,0,0,0.1,0c6.2,0.3,11.8,3.6,15.1,8.8l29.7,47.3
	c8.1,12.9,13.5,27,16,42c0.6,3.3-1.6,6.4-4.9,6.9C307,231.6,306.6,231.6,306.3,231.6z"/>
<path class="st1" d="M226.8,342.5c-4,0-8.3-0.3-12.7-1c-3.3-0.5-5.5-3.6-5-6.8s3.6-5.5,6.8-5c15.9,2.5,30.3-1.5,30.4-1.6
	c0.1,0,0.2,0,0.2-0.1c24.6-6,46.2-20.7,60.6-41.5l1.3-1.8c0-0.1,0.1-0.1,0.1-0.2l30.5-43.8c2.1-3,1.4-7-1.4-9.2
	c-4.4-3.4-8.9-5.1-13.9-5.1c-4.2,0-8.6,1.2-13.3,3.6c-0.1,0.1-0.2,0.1-0.3,0.2c-0.3,0.2-0.6,0.3-0.9,0.5c-3.1,1.8-6.4,4.1-9.6,6.9
	l-31.5,29.2c-2.4,2.3-6.2,2.1-8.5-0.3c-2.3-2.4-2.1-6.2,0.3-8.5l31.5-29.3c0.1,0,0.1-0.1,0.2-0.1c3.9-3.3,7.8-6.1,11.6-8.3
	c0.4-0.2,0.7-0.4,1.1-0.6c0.1,0,0.2-0.1,0.3-0.1c6.5-3.4,12.9-5.2,19.1-5.2c7.6,0,14.7,2.5,21.2,7.6c7.9,6.1,9.6,17.3,3.9,25.6
	l-30.4,43.6c0,0.1-0.1,0.1-0.1,0.2l-1.4,2c-16.1,23.2-40.1,39.6-67.5,46.2C248.2,340.1,239,342.5,226.8,342.5z"/>
</svg>
