<?xml version="1.0" encoding="utf-8"?>
<!-- Generator: Adobe Illustrator 25.0.1, SVG Export Plug-In . SVG Version: 6.00 Build 0)  -->
<svg version="1.1" id="Layer_1" xmlns="http://www.w3.org/2000/svg" xmlns:xlink="http://www.w3.org/1999/xlink" x="0px" y="0px"
	 viewBox="0 0 430 430" style="enable-background:new 0 0 430 430;" xml:space="preserve">
<style type="text/css">
	.st0{fill:#08a88a;}
	.st1{fill:#121331;}
</style>
<g>
	<g>
		<path class="st0" d="M269.2,186c-0.9,0-1.9-0.2-2.8-0.7c-2.9-1.5-4.1-5.2-2.5-8.1l1.4-2.6c1.5-2.8,2.9-5.4,4.1-7.8l6.6-12.5
			c1.5-2.9,5.2-4,8.1-2.5c2.9,1.5,4,5.2,2.5,8.1l-6.6,12.5c-1.2,2.3-2.6,4.9-4.1,7.8l-1.4,2.7C273.5,184.8,271.4,186,269.2,186z"/>
		<path class="st0" d="M157.1,289.3c-0.9,0-1.9-0.2-2.8-0.7L99,259.4c-2.9-1.5-4-5.1-2.5-8.1l29.2-56.5c1.5-2.9,5.1-4.1,8.1-2.6
			c2.9,1.5,4.1,5.1,2.6,8.1l-26.5,51.2l50.1,26.5c2.9,1.5,4,5.2,2.5,8.1C161.4,288.2,159.3,289.3,157.1,289.3z"/>
		<path class="st0" d="M157.1,146.4c-0.8,0-1.7-0.2-2.5-0.5c-3-1.4-4.3-4.9-3-8l5-11c0-0.1,0.1-0.2,0.2-0.3L171.5,99
			c1.5-2.9,5.2-4,8.1-2.5c2.9,1.5,4,5.2,2.5,8.1l-14.5,27.4l-5,10.9C161.6,145.1,159.4,146.4,157.1,146.4z"/>
		<path class="st0" d="M202.6,293.5c-0.9,0-1.9-0.2-2.8-0.7c-2.9-1.5-4.1-5.1-2.6-8.1l6.1-11.7c1.5-2.9,5.1-4.1,8.1-2.6
			c2.9,1.5,4.1,5.1,2.6,8.1l-6.1,11.7C206.9,292.3,204.8,293.5,202.6,293.5z"/>
		<path class="st0" d="M196.3,134.1c-0.9,0-1.9-0.2-2.8-0.7c-2.9-1.5-4-5.2-2.5-8.1l40.8-77.1c1.2-2.3,1.4-4.9,0.7-7.3
			s-2.4-4.5-4.7-5.7c-3.9-2-8.7-0.6-10.7,3.3l-41.6,78.6c-1.5,2.9-5.2,4-8.1,2.5c-2.9-1.5-4-5.2-2.5-8.1l41.6-78.6
			c2.5-4.7,6.7-8.2,11.8-9.7c5.1-1.6,10.5-1.1,15.2,1.4c5.1,2.7,8.9,7.2,10.6,12.8c1.7,5.5,1.2,11.4-1.6,16.5l-40.8,77.1
			C200.6,132.9,198.5,134.1,196.3,134.1z"/>
		<path class="st0" d="M248.6,161.7c-0.9,0-1.9-0.2-2.8-0.7c-2.9-1.5-4-5.2-2.5-8.1l42-79.4c2.5-4.7,0.7-10.5-4-13
			c-3.9-2-8.7-0.6-10.7,3.3l-42.8,80.9c-1.5,2.9-5.2,4-8.1,2.5c-2.9-1.5-4-5.2-2.5-8.1l42.8-80.9c2.5-4.7,6.7-8.2,11.8-9.7
			c5.1-1.6,10.5-1.1,15.2,1.4c10.5,5.6,14.6,18.7,9,29.2l-42,79.4C252.8,160.6,250.7,161.7,248.6,161.7z"/>
		<path class="st0" d="M274.7,175.6c-0.9,0-1.9-0.2-2.8-0.7c-2.9-1.5-4-5.2-2.5-8.1l30.7-58c2.3-4.3,0.6-9.6-3.7-11.9
			c-4.3-2.3-9.6-0.6-11.9,3.7l-30.7,58c-1.5,2.9-5.2,4-8.1,2.5c-2.9-1.5-4-5.2-2.5-8.1l30.7-58c5.4-10.1,18-14,28.1-8.7
			c10.1,5.4,14,18,8.7,28.1l-30.7,58C279,174.4,276.9,175.6,274.7,175.6z"/>
		<path class="st0" d="M222.5,147.9c-0.9,0-1.9-0.2-2.8-0.7c-2.9-1.5-4-5.2-2.5-8.1l48.6-91.8c1.1-2.1,1.3-4.5,0.6-6.7
			c-0.7-2.2-2.2-4.1-4.3-5.2c-4.3-2.3-9.6-0.6-11.9,3.7l-48.6,91.8c-1.5,2.9-5.2,4-8.1,2.5c-2.9-1.5-4-5.2-2.5-8.1l48.6-91.8
			c5.4-10.1,18-14,28.1-8.7c10.1,5.4,14,18,8.7,28.1l-48.6,91.8C226.7,146.8,224.6,147.9,222.5,147.9z"/>
		<path class="st0" d="M131,203.6c-1.5,0-3.1-0.6-4.2-1.7c-16.7-16.6-26.6-38.6-28.1-62.1l-2.8-45.8c0-0.4,0-0.7,0-1
			c0-8.4,6.3-15.4,14.6-16.4c8.8-1,17.4,1.5,24.2,7.1c6.8,5.6,11,13.5,11.8,22.3l2.3,26.9c2.6,0.3,5.9,0.9,9.7,1.7
			c9,2,17.1,5.1,24.3,9c2.9,1.6,4,5.3,2.4,8.2c-1.6,2.9-5.3,4-8.2,2.4c-6.2-3.4-13.3-6-21.1-7.8c-7.4-1.7-12.8-1.9-12.9-1.9
			c-3-0.1-5.4-2.5-5.7-5.5l-2.8-31.9c-0.5-5.5-3.1-10.5-7.4-14.1c-4.3-3.5-9.7-5.1-15.3-4.5c-2.3,0.3-4,2.2-4,4.5c0,0.1,0,0.3,0,0.4
			l2.8,45.7c1.3,20.5,10,39.8,24.6,54.3c2.3,2.3,2.4,6.1,0,8.5C134.1,203,132.5,203.6,131,203.6z"/>
	</g>
	<g>
		<path class="st1" d="M301.9,245c-2.1,0-4.2-1.1-5.3-3.1l-39.4-71.2c-0.5-1-1.6-1.6-2.7-1.4c-3.3,0.4-6.3-2-6.6-5.3
			c-0.4-3.3,2-6.3,5.3-6.6c5.9-0.7,11.7,2.3,14.6,7.5l39.4,71.1c1.6,2.9,0.6,6.6-2.3,8.2C303.9,244.8,302.9,245,301.9,245z"/>
		<g>
			<path class="st1" d="M204.6,296.1c-0.7,0-1.4-0.1-2.1-0.4c-3.1-1.2-4.6-4.7-3.5-7.7c1.5-4,2.8-8.5,3.8-13.3
				c3-15.3,1.9-29,1.9-29.1c-0.3-3.3,2.1-6.2,5.4-6.5c3.3-0.3,6.2,2.1,6.5,5.4c0.1,0.6,1.3,15.5-2.1,32.5
				c-1.1,5.5-2.5,10.6-4.3,15.3C209.3,294.6,207,296.1,204.6,296.1z"/>
			<path class="st1" d="M275.5,407.8c-1.4,0-2.8-0.5-3.9-1.5l-36.9-32.2l-19.3-17.3c-2.5-2.2-2.7-6-0.5-8.5c2.2-2.5,6-2.7,8.5-0.5
				l19.3,17.2l32.6,28.4l52-53.9l-27.8-27.3c-1.3-1.2-1.9-3-1.8-4.7l0.1-1.1c2.2-29.1,3.7-50.1-0.8-63.7c-1-3.1,0.7-6.5,3.8-7.6
				c3.1-1,6.5,0.7,7.6,3.8c5.1,15.6,3.6,37.1,1.5,66.7l30,29.5c2.4,2.3,2.4,6.1,0.1,8.4L279.8,406
				C278.7,407.2,277.1,407.8,275.5,407.8z"/>
		</g>
		<path class="st1" d="M241.8,214.6c-3.3,0-6-2.7-6-6v0c0-3.3,2.7-6,6-6s6,2.7,6,6S245.1,214.6,241.8,214.6z"/>
		<path class="st1" d="M225.2,173.5c-3.3,0-6-2.7-6-6v0c0-3.3,2.7-6,6-6s6,2.7,6,6S228.6,173.5,225.2,173.5z"/>
		<path class="st1" d="M292.4,241.3c-2.5,0-4.8-1.6-5.7-4l-8.1-23.4l-19.1-28.5c-0.1-0.1-0.2-0.2-0.2-0.4L245,159.9
			c-0.1-0.3-0.3-0.5-0.5-0.7c-1.3-1.4-3.3-1.7-4.9-0.8l-1.1,0.6c-0.4,0.3-0.9,0.5-1.2,0.8c-2.7,1.9-6.4,1.3-8.4-1.4
			c-1.9-2.7-1.3-6.4,1.4-8.4c0.7-0.5,1.5-1,2.3-1.5l1.1-0.6c6.5-3.7,14.6-2.4,19.6,3.1c0.8,0.8,1.5,1.8,2.1,2.9l14.2,24.9l19.4,29
			c0.3,0.4,0.5,0.9,0.7,1.4l8.4,24.1c1.1,3.1-0.6,6.5-3.7,7.6C293.7,241.2,293.1,241.3,292.4,241.3z"/>
		<path class="st1" d="M271.1,247c-2.8,0-5.3-2-5.9-4.9l-6.5-33.4L242,170.5l-24.3-21.9c-0.8-0.7-1.8-1.1-2.9-1.1
			c-1.2,0-2.4,0.5-3.2,1.4c-0.2,0.2-0.4,0.5-0.6,0.7c-2,2.6-5.8,3.1-8.4,1.1c-2.6-2-3.1-5.8-1.1-8.4c0.4-0.5,0.7-0.9,1.1-1.4
			c3.1-3.5,7.6-5.4,12.2-5.4c4,0,7.9,1.5,10.9,4.2l25.3,22.8c0.6,0.6,1.1,1.3,1.5,2l17.6,40.1c0.2,0.4,0.3,0.8,0.4,1.3l6.6,34
			c0.6,3.3-1.5,6.4-4.7,7C271.9,247,271.5,247,271.1,247z"/>
		<path class="st1" d="M244.3,251.3c-3.1,0-5.8-2.4-6-5.6l-2.9-43.3l-17.8-37l-21.9-21.5c-1.7-1.7-4.5-1.6-6.1,0.1
			c-6.4,6.5-6.3,17,0.2,23.4l9.1,8.9c0.6,0.6,1.1,1.3,1.4,2l11.7,28.7c0.2,0.5,0.3,1,0.4,1.5l4.3,35.7c0.4,3.3-1.9,6.3-5.2,6.7
			c-3.3,0.4-6.3-1.9-6.7-5.2l-4.2-34.9L189.6,184l-8.2-8c-11.2-11-11.4-29.1-0.4-40.3c3.1-3.1,7.1-4.9,11.5-4.9
			c4.3,0,8.5,1.6,11.6,4.7l22.7,22.2c0.5,0.5,0.9,1.1,1.2,1.7l18.8,39c0.3,0.7,0.5,1.4,0.6,2.2l3,44.4c0.2,3.3-2.3,6.2-5.6,6.4
			C244.5,251.3,244.4,251.3,244.3,251.3z"/>
		<path class="st1" d="M229.7,359.3c-13.6,0-24.8-4.9-26.2-5.5c-21-8.8-32.7-28.4-40.5-44.5l-17.8-36.8c-3.6-7.4-0.7-16.2,6.4-20.2
			c13.4-7.4,27.5-3.4,39.8,11.3c0,0.1,0.1,0.1,0.1,0.2l19.5,24.8c2,2.6,1.6,6.4-1,8.4c-2.6,2-6.4,1.6-8.4-1l-19.4-24.7
			c-8.4-10-16.8-12.8-24.8-8.4c-1.6,0.9-2.2,2.8-1.4,4.4l17.8,36.8c7.3,15.1,17.1,31.5,34.4,38.7c0.1,0,0.2,0.1,0.2,0.1
			c0.2,0.1,17.4,7.8,33,2.7c3.1-1,6.5,0.7,7.6,3.8c1,3.1-0.7,6.5-3.8,7.6C240,358.7,234.7,359.3,229.7,359.3z"/>
	</g>
</g>
<path class="st0" d="M59.3,244.2c-0.9,0-1.9-0.1-2.9-0.2c-7.2-0.9-13.5-4.8-18.8-11.6c-11.8-15.5-5.2-31.9,1.7-41
	c-11.2-19.5-14.1-37.1-8.6-52.2c8.1-22.3,31.4-30.3,32.4-30.6c3.1-1.1,6.5,0.7,7.6,3.8c1,3.1-0.6,6.5-3.8,7.6
	c-0.3,0.1-18.9,6.7-25,23.5c-4.5,12.4-1.2,27.7,9.8,45.5c1.5,2.4,1.1,5.4-0.9,7.4c-0.6,0.6-14.4,14.9-3.8,28.8
	c3.2,4.2,6.7,6.5,10.6,7c6.4,0.8,12.2-3.7,12.2-3.7c2.6-2,6.4-1.6,8.4,0.9c2.1,2.6,1.7,6.3-0.9,8.4C77.2,238,69.4,244.2,59.3,244.2z
	"/>
<path class="st0" d="M151,364.7c-8.4,0-15.5-2.4-21.1-7.2c-14-12-12.5-34.2-12.5-35.2c0.2-3.3,3.1-5.8,6.4-5.5
	c3.3,0.2,5.8,3.1,5.5,6.4c0,0.2-1,17.2,8.3,25.2c5.1,4.4,13,5.4,23.2,3.1c3.2-0.7,6.5,1.3,7.2,4.5c0.7,3.2-1.3,6.5-4.5,7.2
	C159.1,364.2,154.9,364.7,151,364.7z"/>
<path class="st0" d="M371.8,339.5c-2.7,0-5.1-1.8-5.8-4.5c-0.9-3.2,1-6.5,4.3-7.3c11.2-3,17.7-7.5,19.2-13.4
	c2.6-10.1-8.7-23.9-13.3-28.4c-2.1-2.1-2.4-5.3-0.7-7.8c10.2-14.4,13.3-26.2,9.4-35.1c-5.7-13-26-18.3-33.4-19.2
	c-1.9-0.2-3.6-1.4-4.5-3.1c-0.9-1.7-1-3.7-0.1-5.5c4.4-9.1,5.1-16.9,2.1-23.2c-5.6-11.7-22.7-15.8-22.8-15.9
	c-3.2-0.7-5.3-3.9-4.5-7.2c0.7-3.2,3.9-5.3,7.2-4.5c0.9,0.2,22.8,5.3,31,22.4c3.8,7.9,4.1,16.8,0.8,26.5
	c10.4,2.6,28.5,9.3,35.3,24.8c5.3,12,2.6,26.4-7.9,42.8c6,6.9,16.8,21.8,13,36.3c-2.7,10.4-12,17.7-27.8,21.9
	C372.8,339.5,372.3,339.5,371.8,339.5z"/>
</svg>
