<?xml version="1.0" encoding="utf-8"?>
<!-- Generator: Adobe Illustrator 25.0.1, SVG Export Plug-In . SVG Version: 6.00 Build 0)  -->
<svg version="1.1" id="Layer_1" xmlns="http://www.w3.org/2000/svg" xmlns:xlink="http://www.w3.org/1999/xlink" x="0px" y="0px"
	 viewBox="0 0 430 430" style="enable-background:new 0 0 430 430;" xml:space="preserve">
<style type="text/css">
	.st0{fill:#121331;}
	.st1{fill:#08a88a;}
</style>
<g>
	<path class="st0" d="M188.5,390.2c-1,0-1.9-0.2-2.8-0.7L73.1,329.9c-2.9-1.5-4-5.1-2.5-8.1l26.3-50.9c1.5-2.9,5.1-4.1,8.1-2.6
		c2.9,1.5,4.1,5.1,2.6,8.1L83.9,322L186,376l12.2-23.7c1.5-2.9,5.1-4.1,8.1-2.6c2.9,1.5,4.1,5.1,2.6,8.1l-15,29
		c-0.7,1.4-2,2.5-3.5,3C189.8,390.1,189.2,390.2,188.5,390.2z"/>
	<path class="st0" d="M248.1,146.8c-3.3,0-6-2.7-6-6v0c0-3.3,2.7-6,6-6s6,2.7,6,6S251.4,146.8,248.1,146.8z"/>
	<path class="st0" d="M263.9,118.6c-3.3,0-6-2.7-6-6v0c0-3.3,2.7-6,6-6s6,2.7,6,6S267.2,118.6,263.9,118.6z"/>
	<path class="st0" d="M260.9,198.7c-3.3,0-6-2.7-6-6v0c0-3.3,2.7-6,6-6s6,2.7,6,6S264.3,198.7,260.9,198.7z"/>
	<path class="st0" d="M238.4,89.4c-1.3,0-2.6-0.4-3.8-1.3c-2.6-2.1-3-5.9-0.9-8.4c7.2-8.9,19.7-11.5,29.9-6.2c1.7,0.9,3.2,2,4.6,3.2
		c2.5,2.2,2.7,6,0.5,8.5c-2.2,2.5-6,2.7-8.5,0.5c-0.7-0.6-1.4-1.1-2.3-1.6c-5-2.7-11.3-1.4-14.9,3.1
		C241.9,88.6,240.1,89.4,238.4,89.4z"/>
	<path class="st0" d="M81.4,206.6L81.4,206.6c-2.9,0-5.3-2-5.9-4.8c-1.1-5.3-1.8-10.8-2.2-16.2L69.9,130c0-0.3,0-0.8,0-1.2
		c0-9.5,7.2-17.6,16.6-18.6c10.3-1.2,20.4,1.8,28.4,8.4c8,6.6,13,15.9,13.9,26.2l0.3,3c0.3,3.3-2.2,6.2-5.5,6.5
		c-3.3,0.3-6.2-2.2-6.5-5.5l-0.3-3c-0.6-7.1-4-13.5-9.5-18c-5.5-4.5-12.4-6.5-19.5-5.7c-3.4,0.4-6,3.3-6,6.7c0,0.1,0,0.2,0,0.4
		l3.5,55.7c0.3,4.8,0.9,9.6,1.9,14.3c0.1,0.5,0.2,1,0.2,1.5C87.4,203.9,84.7,206.6,81.4,206.6z"/>
</g>
<path class="st1" d="M310.4,203.5c-3.3,0-6-2.7-6-6v0c0-3.3,2.7-6,6-6s6,2.7,6,6S313.7,203.5,310.4,203.5z"/>
<path class="st1" d="M270,387.2c-20.1,0-33.9-8.2-46.3-15.5c-6.6-3.9-12.8-7.6-19.7-10.1c-0.8-0.3-1.5-0.5-2.3-0.8
	c-8.4-2.7-15.3-2.7-22.6-2.8c-13.5-0.2-28.7-0.4-53.9-17.1c-15.3-10.1-17.2-25.4-18.9-38.9c-1.2-9.9-2.3-18.5-8.2-23.9
	c-2.3-2.2-5.3-3.8-9.1-5c-37.1-11.9-41.3-51.9-41.5-53.6c-0.3-2.6,1.3-5.1,3.7-6.1c8.5-3.4,17.3-9.2,26.2-17.1
	c0.1-0.1,0.1-0.1,0.2-0.2c13.6-12.3,27.2-29.4,40.4-50.8c11.2-18.3,18-33.2,18.4-34.1c26.1-61.5,58.4-72.2,64.5-73.7
	c2.9-1.4,13.5-5.8,28.8-5.9c0.2,0,0.3,0,0.5,0c16,0,40.3,5,66,28.2C323,84,324.1,121,322,150.6c-0.2,3.1-2.8,5.6-6,5.6
	c-3.3,0-6-2.7-6-6c0-0.1,0-0.3,0-0.4c2.8-39.9-4-65-22-81.2c-43.5-39.5-80.9-21-82.4-20.2c-0.5,0.3-1.1,0.5-1.7,0.6
	c-0.2,0-31.1,6.7-56.5,66.8c0,0,0,0.1,0,0.1c-0.3,0.6-7.2,16.1-19.1,35.6c-13.8,22.6-28.2,40.6-42.8,53.7c-0.1,0.1-0.1,0.1-0.2,0.2
	c-8.4,7.4-16.8,13.2-25.1,17.1c2,9.4,9,31.6,32.5,39.2c5.6,1.8,10,4.3,13.7,7.7c9,8.4,10.5,20,11.9,31.2
	c1.6,12.5,2.9,23.3,13.6,30.4c22.2,14.8,34.5,14.9,47.4,15.1c7.9,0.1,16,0.2,26.1,3.4c0.9,0.3,1.8,0.6,2.7,0.9c8,2.9,15,7,21.8,11
	c15.5,9.2,30.2,17.9,56.9,11.9c3.2-0.7,6.4,1.3,7.2,4.5c0.7,3.2-1.3,6.4-4.5,7.2C282.3,386.5,275.9,387.2,270,387.2z"/>
<path class="st1" d="M175.2,192c-1.5,0-3.1-0.6-4.2-1.8c-2.3-2.3-2.3-6.1,0-8.5c6.8-6.8,12.1-16.9,15.9-30.2
	c3.8-13.5,4.5-25.3,4.5-25.4c0.2-3.3,3-5.8,6.3-5.7c3.3,0.2,5.8,3,5.7,6.3c0,0.5-0.8,13.2-5,28c-4.3,15.2-10.7,27.1-18.9,35.4
	C178.2,191.4,176.7,192,175.2,192z"/>
<g>
	<path class="st0" d="M336.5,203.2c-2.3,0-4.5-1.3-5.5-3.6l-20.4-47c0-0.1-0.1-0.1-0.1-0.2L291.6,109c-1-2.4-3.8-3.5-6.2-2.4
		l-5.7,2.5c-3,1.3-6.6,0-7.9-3.1c-1.3-3,0-6.6,3.1-7.9l0.5-0.2l5.3-2.3c8.5-3.7,18.3,0.2,22,8.7l18.9,43.6c0,0.1,0.1,0.1,0.1,0.2
		l20.3,46.8c1.3,3-0.1,6.6-3.1,7.9C338.1,203.1,337.3,203.2,336.5,203.2z"/>
	<g>
		<path class="st0" d="M211.2,275.6c-1.1,0-2.1-0.3-3.1-0.9c-2.8-1.7-3.7-5.4-2-8.2c15.8-26,12.7-63.5,12.6-63.9
			c-0.3-3.3,2.1-6.2,5.4-6.5c3.3-0.3,6.2,2.1,6.5,5.4c0.2,1.7,3.5,41.8-14.3,71.2C215.2,274.6,213.2,275.6,211.2,275.6z"/>
		<path class="st0" d="M303.5,398.6c-1.4,0-2.8-0.5-3.9-1.5l-46.3-40.4c-2.5-2.2-2.7-6-0.5-8.5c2.2-2.5,6-2.7,8.5-0.5l1.4,1.2
			l40.5,35.3l64.9-67.2l-34.7-34c-1.3-1.2-1.9-3-1.8-4.7l0.1-1.3c2.6-35.5,4.5-61.1-1-77.9c-1-3.1,0.7-6.5,3.8-7.6
			c3.2-1,6.5,0.7,7.6,3.8c6.2,18.8,4.3,45,1.7,81.1l36.9,36.3c2.4,2.3,2.4,6.1,0.1,8.5l-73,75.6
			C306.7,397.9,305.1,398.6,303.5,398.6z"/>
	</g>
	<path class="st0" d="M315,216.5c-2.5,0-4.8-1.5-5.7-4l-4.6-13c0-0.1,0-0.1-0.1-0.2L266.4,91.1c-0.4-0.7-2.1-3.3-5.2-5
		c-2.9-1.6-3.9-5.3-2.3-8.2c1.6-2.9,5.3-3.9,8.2-2.3c6.9,3.8,9.9,9.8,10.3,10.5c0.1,0.2,0.2,0.4,0.3,0.6l38.5,108.9
		c0,0.1,0,0.1,0.1,0.2l4.5,12.8c1.1,3.1-0.5,6.6-3.7,7.7C316.4,216.4,315.7,216.5,315,216.5z"/>
	<path class="st0" d="M257.7,174c-2.5,0-4.8-1.5-5.7-4l-9.6-27.2c0-0.1,0-0.1-0.1-0.2l-6.8-19.4c-1.1-3.1,0.5-6.6,3.7-7.7
		c3.1-1.1,6.6,0.5,7.7,3.7l6.9,19.5c0,0.1,0,0.1,0.1,0.2l9.6,27.1c1.1,3.1-0.5,6.6-3.7,7.7C259,173.9,258.3,174,257.7,174z"/>
	<path class="st0" d="M285.8,186.8c-2.9,0-5.5-2.1-5.9-5.1l-3.2-22.1l-1-2.4l-17.3-42.3c0-0.1,0-0.1-0.1-0.2l-1.3-3.2l-27.8-29
		c-1.2-1.3-2.9-2-4.7-2c-1.1,0-2.7,0.3-4.1,1.5c-2.6,2.1-6.3,1.7-8.4-0.8c-2.1-2.6-1.7-6.3,0.8-8.4c3.3-2.7,7.5-4.2,11.7-4.2
		c5,0,9.9,2.1,13.4,5.7l28.5,29.9c0.5,0.5,0.9,1.2,1.2,1.9l1.8,4.4c0,0.1,0.1,0.2,0.1,0.2l1.3,3.3l17.2,41.9
		c0.2,0.5,0.3,0.9,0.4,1.4l3.3,22.8c0.5,3.3-1.8,6.3-5.1,6.8C286.4,186.8,286.1,186.8,285.8,186.8z"/>
	<path class="st0" d="M224.7,208c-2.8,0-5.3-2-5.9-4.9l-7.3-38l-10.1-20.8c0-0.1-0.1-0.1-0.1-0.2l-5.3-11l-10.8-9.3
		c-3.3-2.9-6-6.3-8-10.2c-6.1-12.1-4.4-26.5,4.5-36.8c3.5-4.1,8.7-6.4,14.1-6.4c3.8,0,7.5,1.1,10.6,3.3c0.5,0.4,1,0.7,1.6,1.2
		l29.2,25.1c0.6,0.5,1.1,1.2,1.5,1.9l8,16.6c1.4,3,0.2,6.6-2.8,8c-3,1.4-6.6,0.2-8-2.8l-7.5-15.5L200,84c-0.2-0.2-0.4-0.3-0.6-0.5
		c-1-0.7-2.3-1.1-3.7-1.1c-1.9,0-3.7,0.8-5,2.3c-5.7,6.6-6.8,15.8-2.9,23.6c1.3,2.5,3,4.7,5.1,6.5l11.7,10.1
		c0.6,0.5,1.1,1.2,1.5,1.9l5.9,12.2c0,0.1,0.1,0.1,0.1,0.2l10.4,21.4c0.2,0.5,0.4,1,0.5,1.5l0.6,3.2l6.9,35.5c0.6,3.3-1.5,6.4-4.8,7
		C225.4,208,225.1,208,224.7,208z"/>
	<path class="st0" d="M262.5,210.2c-3,0-5.5-2.2-5.9-5.2l-1.5-11.5c0-0.1,0-0.1,0-0.2l0,0l-3.3-24.5c-0.4-3.3,1.9-6.3,5.2-6.7
		s6.3,1.9,6.7,5.2l3.3,24.7c0,0.1,0,0.2,0,0.2l1.5,11.3c0.4,3.3-1.9,6.3-5.2,6.7C263,210.2,262.7,210.2,262.5,210.2z"/>
	<path class="st0" d="M249.9,358.6c-18.9,0-34.4-6.8-36.1-7.6c-2.2-0.9-4.4-1.9-6.5-2.9c-24-11.7-43.6-31.3-55.2-55.4l-25.3-52.2
		c-4.5-9.2-0.9-20.4,8.1-25.3c5.7-3.1,11.6-4.7,17.6-4.7c12.3,0,24.7,7,35.7,20.1c0,0,0.1,0.1,0.1,0.2l27.6,35.1
		c2,2.6,1.6,6.4-1,8.4c-2.6,2-6.4,1.6-8.4-1l-27.6-35.1c-6.1-7.2-15.6-15.8-26.5-15.8c-3.9,0-7.9,1.1-11.8,3.2
		c-3.4,1.9-4.7,6.1-3.1,9.5l25.3,52.2c10.5,21.6,28.1,39.3,49.7,49.8c1.9,0.9,3.8,1.8,5.9,2.7c0.1,0,0.2,0.1,0.2,0.1
		c0.2,0.1,18.3,8.3,37.9,6.2c3.7-0.4,7.3-1.2,10.7-2.3c3.1-1,6.5,0.7,7.6,3.8c1,3.1-0.7,6.5-3.8,7.6c-4.1,1.4-8.6,2.3-13.1,2.8
		C255.2,358.5,252.5,358.6,249.9,358.6z"/>
</g>
</svg>
