<?xml version="1.0" encoding="utf-8"?>
<!-- Generator: Adobe Illustrator 25.0.1, SVG Export Plug-In . SVG Version: 6.00 Build 0)  -->
<svg version="1.1" id="Layer_1" xmlns="http://www.w3.org/2000/svg" xmlns:xlink="http://www.w3.org/1999/xlink" x="0px" y="0px"
	 viewBox="0 0 430 430" style="enable-background:new 0 0 430 430;" xml:space="preserve">
<style type="text/css">
	.st0{fill:#08a88a;}
	.st1{fill:#121331;}
</style>
<g>
	<path class="st0" d="M232.5,173.3L232.5,173.3c-2.2,0-4.2-1.2-5.2-3.1c-8.7-15.5-15.3-22.1-30.8-30.8c-1.9-1.1-3.1-3.1-3.1-5.2
		c0-2.2,1.2-4.2,3.1-5.2c15.5-8.7,22.1-15.3,30.8-30.8c1.1-1.9,3.1-3.1,5.2-3.1s4.2,1.2,5.2,3.1c8.7,15.5,15.3,22.1,30.8,30.8
		c1.9,1.1,3.1,3.1,3.1,5.2c0,2.2-1.2,4.2-3.1,5.2c-15.5,8.7-22.1,15.3-30.8,30.8C236.6,172.1,234.6,173.3,232.5,173.3z M210.9,134.2
		c9.2,6.1,15.5,12.4,21.5,21.5c6.1-9.2,12.4-15.5,21.5-21.5c-9.2-6.1-15.5-12.4-21.5-21.5C226.4,121.8,220.1,128.1,210.9,134.2z"/>
	<path class="st0" d="M165,84.6c-2.2,0-4.2-1.2-5.2-3.1c-5.1-9.1-8.8-12.8-17.9-17.9c-1.9-1.1-3.1-3.1-3.1-5.2s1.2-4.2,3.1-5.2
		c9.1-5.1,12.8-8.8,17.9-17.9c1.1-1.9,3.1-3.1,5.2-3.1s4.2,1.2,5.2,3.1c5.1,9.1,8.8,12.8,17.9,17.9c1.9,1.1,3.1,3.1,3.1,5.2
		s-1.2,4.2-3.1,5.2c-9.1,5.1-12.8,8.8-17.9,17.9C169.2,83.4,167.2,84.6,165,84.6z M155.9,58.4c3.6,2.7,6.4,5.5,9.1,9.1
		c2.7-3.6,5.5-6.4,9.1-9.1c-3.6-2.7-6.4-5.5-9.1-9.1C162.3,52.9,159.5,55.7,155.9,58.4z"/>
	<path class="st0" d="M287.8,100.4c-2.2,0-4.2-1.2-5.2-3.1c-4.3-7.6-7.3-10.7-15-15c-1.9-1.1-3.1-3.1-3.1-5.2c0-2.2,1.2-4.2,3.1-5.2
		c7.6-4.3,10.7-7.3,15-15c1.1-1.9,3.1-3.1,5.2-3.1l0,0c2.2,0,4.2,1.2,5.2,3.1c4.3,7.6,7.3,10.7,15,15c1.9,1.1,3.1,3.1,3.1,5.2
		c0,2.2-1.2,4.2-3.1,5.2c-7.6,4.3-10.7,7.4-15,15C292,99.2,290,100.4,287.8,100.4z M281.5,77.1c2.4,1.9,4.4,3.9,6.3,6.3
		c1.9-2.4,3.9-4.4,6.3-6.3c-2.4-1.9-4.4-3.9-6.3-6.3C285.9,73.2,283.9,75.2,281.5,77.1z"/>
	<g>
		<path class="st1" d="M153.9,392.8c-0.3,0-0.5,0-0.8-0.1L50.6,379.3c-3.3-0.4-5.6-3.4-5.2-6.7l4.6-35.1l0.5-7.2
			c0.2-3.3,3.1-5.8,6.4-5.5c3.3,0.2,5.8,3.1,5.5,6.4l-0.5,7.4c0,0.1,0,0.2,0,0.3l-3.8,29.4l90.6,11.9l3.9-29.4
			c0.1-0.8,0.4-1.7,0.9-2.4c0.1-0.2,10.8-17.7,14.4-45.2c1.4-10.5,2.7-20.5,3.8-29c0.4-3.3,3.4-5.6,6.7-5.2c3.3,0.4,5.6,3.4,5.2,6.7
			c-1.1,8.5-2.4,18.6-3.8,29c-3.4,26.3-12.7,44.1-15.4,48.8l-4.5,34.1C159.4,390.6,156.9,392.8,153.9,392.8z"/>
		<path class="st1" d="M125.8,247.8c-0.3,0-0.5,0-0.8-0.1l-1.7-0.2c-3.3-0.4-5.6-3.5-5.2-6.7c0.4-3.3,3.4-5.6,6.7-5.2l1.7,0.2
			c3.3,0.4,5.6,3.5,5.2,6.7C131.3,245.6,128.8,247.8,125.8,247.8z"/>
		<path class="st1" d="M153,251.4c-0.2,0-0.5,0-0.7,0l-0.2,0c-3.3-0.4-5.6-3.4-5.2-6.7c0.4-3.3,3.4-5.6,6.7-5.2l0.2,0
			c3.3,0.4,5.6,3.4,5.2,6.7C158.6,249.2,156,251.4,153,251.4z"/>
		<path class="st1" d="M62.4,237.7c-3.1,0-5.8-2.4-6-5.6l-5-71.4c-0.8-10.9,7.4-20.3,18.3-21.1c0.5,0,1-0.1,1.5-0.1
			c11.2,0,20.6,8.7,21.3,19.9l4.7,66.3c0.2,3.3-2.3,6.2-5.6,6.4c-3.3,0.2-6.2-2.3-6.4-5.6l-4.7-66.3c-0.3-4.9-4.5-8.7-9.4-8.7
			c-0.2,0-0.4,0-0.6,0c-2.1,0.1-4,1.1-5.3,2.6c-1.4,1.6-2,3.6-1.9,5.6l5,71.4c0.2,3.3-2.3,6.2-5.6,6.4
			C62.7,237.6,62.6,237.7,62.4,237.7z"/>
		<path class="st1" d="M123.1,260.5c-0.4,0-0.8,0-1.2-0.1c-3.2-0.7-5.3-3.9-4.6-7.1l20.2-96.2c0,0,0-0.1,0-0.1
			c0.1-0.6,0.2-1.3,0.2-1.9c0-4-2.7-7.4-6.6-8.3c-2.2-0.5-4.5-0.1-6.5,1.1c-1.9,1.2-3.3,3.1-3.8,5.3l-17.4,73.2
			c-0.8,3.2-4,5.2-7.2,4.5c-3.2-0.8-5.2-4-4.5-7.2l17.4-73.2c2.5-11,13.6-17.9,24.7-15.4c9.4,2.2,15.9,10.4,15.9,20
			c0,1.5-0.2,3.1-0.5,4.6L129,255.7C128.4,258.6,125.9,260.5,123.1,260.5z"/>
		<path class="st1" d="M135.8,285.5c-1,0-1.9-0.1-2.9-0.2c-11.1-1.6-19-11.9-17.5-23v0l4.9-37.2c1.4-10.8,11.3-18.4,22.1-17
			c11.7,1.5,20,12.3,18.4,24l-4.7,35.5c-0.7,5.5-3.5,10.4-7.9,13.7C144.6,284.1,140.3,285.5,135.8,285.5z M139.8,219.9
			c-3.8,0-7.2,2.8-7.7,6.7l-4.9,37.2v0c-0.6,4.6,2.7,8.9,7.3,9.6c2.3,0.3,4.5-0.3,6.4-1.7c1.8-1.4,3-3.4,3.3-5.7l4.7-35.5
			c0.7-5.1-3-9.9-8.1-10.5C140.5,220,140.1,219.9,139.8,219.9z M121.3,263.1L121.3,263.1L121.3,263.1z"/>
		<path class="st1" d="M164.4,289.2c-0.8,0-1.5,0-2.3-0.1c-5.5-0.6-10.4-3.3-13.8-7.7c-3.4-4.3-4.9-9.7-4.2-15.2l3.8-30.7
			c1.5-11.3,11.8-19.2,23.1-17.8c5.4,0.7,10.3,3.5,13.6,7.9c3.3,4.4,4.8,9.8,4.1,15.2l-4,30.6C183.4,281.6,174.5,289.2,164.4,289.2z
			 M168.3,229.6c-4.2,0-7.9,3.1-8.5,7.5l-3.8,30.7c-0.3,2.3,0.3,4.5,1.7,6.3c1.4,1.8,3.4,2.9,5.7,3.2h0c4.6,0.5,8.8-2.8,9.3-7.3
			l4-30.6c0.3-2.3-0.3-4.5-1.7-6.3c-1.4-1.8-3.4-3-5.7-3.3C169.1,229.6,168.7,229.6,168.3,229.6z"/>
		<path class="st1" d="M56.5,336.7c-2.1,0-4.1-1.1-5.2-3l-23.7-41.3c-7.6-13.3-7.8-30-0.5-43.5c6.4-11.8,17.6-19.9,30.8-22.5
			l38.8-7.4c7.7-1.5,15.3,3.6,16.8,11.3c3,14.9-5.3,29.9-19.4,35.4c1.1,0.7,2.2,1.4,3.3,2.2c9,6.5,20.6,19,24.2,42.3
			c0.5,3.3-1.7,6.3-5,6.9c-3.3,0.5-6.3-1.7-6.9-5c-5.6-36-32.5-40.7-33.7-40.9c-2.7-0.4-4.8-2.7-5-5.4c-0.2-2.7,1.4-5.3,4-6.2
			l14-4.8c9.1-3.1,14.6-12.6,12.7-22.1c-0.3-1.3-1.5-2.1-2.8-1.9l-38.8,7.4c-9.6,1.8-17.8,7.8-22.5,16.4c-5.4,9.9-5.3,22.1,0.3,31.8
			l23.7,41.3c1.6,2.9,0.7,6.5-2.2,8.2C58.6,336.4,57.6,336.7,56.5,336.7z"/>
	</g>
	<g>
		<path class="st1" d="M252,251.2c-3,0-5.6-2.3-6-5.4c-0.3-3.3,2.1-6.2,5.3-6.6l2.2-0.2c3.3-0.3,6.2,2.1,6.6,5.3
			c0.3,3.3-2.1,6.2-5.3,6.6l-2.2,0.2C252.4,251.2,252.2,251.2,252,251.2z"/>
		<path class="st1" d="M312.1,245c-3,0-5.6-2.3-6-5.4c-0.3-3.3,2.1-6.2,5.4-6.6l0.4,0c3.3-0.3,6.2,2.1,6.6,5.4s-2.1,6.2-5.4,6.6
			l-0.4,0C312.5,244.9,312.3,245,312.1,245z"/>
		<path class="st1" d="M250.4,392.2c-1.4,0-2.7-0.5-3.7-1.3c-1.2-1-2-2.4-2.2-4l-3.8-34.2c-2.6-4.7-11.5-22.7-14.5-49.1
			c-1.5-13.7-3-26.6-4.1-36.4l-0.5-4.8c0-0.2,0-0.4,0-0.7c0-3.3,2.7-6,6-6c3.1,0,5.7,2.4,6,5.5l0.5,4.7c1.1,9.9,2.6,22.7,4.1,36.4
			c3.1,27.5,13.4,45.3,13.5,45.5c0.4,0.7,0.7,1.6,0.8,2.4l3.3,29.4l90.8-10.2l-3.3-29.4c0-0.1,0-0.2,0-0.4l-0.1-2.1
			c-0.2-3.3,2.4-6.1,5.7-6.3c3.3-0.2,6.1,2.4,6.3,5.7l0.1,1.9l3.9,35.2c0.4,3.3-2,6.3-5.3,6.6L251,392.1
			C250.8,392.2,250.6,392.2,250.4,392.2z"/>
		<path class="st1" d="M346.1,289.5c-3.2,0-5.8-2.5-6-5.7l-1-17.7l-4-29.4c-0.4-3.3,1.9-6.3,5.2-6.7c3.3-0.4,6.3,1.9,6.7,5.2l0,0.3
			l4,29.3c0,0.2,0,0.3,0,0.5l1,18c0.2,3.3-2.4,6.1-5.7,6.3C346.3,289.5,346.2,289.5,346.1,289.5z"/>
		<path class="st1" d="M283.2,248c-3,0-5.6-2.2-6-5.3c-0.4-3.3,2-6.3,5.3-6.7l0.3,0c3.3-0.4,6.3,2,6.7,5.3s-2,6.3-5.3,6.7l-0.3,0
			C283.6,248,283.4,248,283.2,248z"/>
		<path class="st1" d="M227.5,267.7c-2.2,0-4.2-1.2-5.3-3.2l-30.1-57.2c-5.3-10-1.4-22.5,8.6-27.8c4.9-2.6,10.4-3.1,15.7-1.4
			c5.2,1.6,9.5,5.2,12.1,10.1l31.8,59.8c1.6,2.9,0.4,6.6-2.5,8.1c-2.9,1.6-6.6,0.4-8.1-2.5l-31.8-59.9c-2.2-4.2-7.4-5.8-11.6-3.6
			c-4.2,2.2-5.8,7.4-3.6,11.6l30.1,57.2c1.5,2.9,0.4,6.6-2.5,8.1C229.4,267.5,228.4,267.7,227.5,267.7z"/>
		<g>
			<path class="st1" d="M329,276.1c-10.2,0-19.1-7.6-20.4-17.9l-3.7-28c0,0,0-0.1,0-0.1c-1.3-11.7,7.2-22.3,18.9-23.6
				c5.2-0.6,10.4,0.9,14.5,4.2c4.1,3.3,6.7,8,7.3,13.2l3.8,29c0.7,5.5-0.8,11-4.2,15.3c-3.4,4.4-8.4,7.1-13.9,7.7
				C330.5,276,329.7,276.1,329,276.1z M316.8,228.7l3.6,27.9c0.6,4.6,4.8,7.9,9.4,7.4c0,0,0,0,0,0c2.3-0.3,4.4-1.4,5.8-3.2
				c1.4-1.8,2.1-4.1,1.8-6.4l-3.8-29.1c0,0,0-0.1,0-0.1c-0.2-2.1-1.2-3.9-2.9-5.2s-3.6-1.9-5.7-1.6c-2.5,0.3-4.7,1.5-6.3,3.5
				C317.3,223.8,316.5,226.2,316.8,228.7z"/>
			<path class="st1" d="M271.1,282.5c-10.2,0-19.1-7.6-20.4-17.9l-3.9-30.4c0,0,0-0.1,0-0.1c-0.6-5.7,1-11.3,4.5-15.7
				c3.6-4.5,8.7-7.3,14.3-7.9c10.8-1.2,20.6,6.6,21.8,17.4l4.1,31.5c0.7,5.5-0.8,11-4.2,15.3s-8.4,7.1-13.9,7.7c0,0,0,0,0,0
				C272.6,282.5,271.8,282.5,271.1,282.5z M272.7,276.5L272.7,276.5L272.7,276.5z M258.6,232.7l3.9,30.4c0.6,4.6,4.8,7.9,9.5,7.4
				c2.3-0.3,4.4-1.4,5.8-3.2s2.1-4.1,1.8-6.4l-4.1-31.6c0,0,0-0.1,0-0.1c-0.5-4.2-4.3-7.3-8.5-6.8c-2.5,0.3-4.7,1.5-6.3,3.5
				C259.1,227.8,258.4,230.2,258.6,232.7z"/>
			<path class="st1" d="M300.1,279.3c-10.2,0-19.1-7.7-20.4-18l-4.4-38.7c-1.3-11.3,6.9-21.5,18.1-22.7c11.3-1.3,21.5,6.9,22.7,18.1
				l4.3,38.2c0.7,5.4-0.8,10.9-4.3,15.2c-3.4,4.4-8.4,7.1-13.9,7.7C301.6,279.3,300.8,279.3,300.1,279.3z M295.7,211.8
				c-0.3,0-0.6,0-1,0.1c-4.7,0.5-8.1,4.8-7.6,9.5l4.4,38.6c0.6,4.5,4.8,7.9,9.4,7.4l0,0c2.3-0.3,4.3-1.4,5.8-3.2s2.1-4.1,1.8-6.4
				l-4.3-38.3C303.8,215,300,211.8,295.7,211.8z"/>
		</g>
		<path class="st1" d="M348.3,343.6c-2.2,0-4.4-1.2-5.4-3.4c-1.5-3-0.2-6.6,2.8-8c15.9-7.8,28.4-21.1,35.1-37.5l15.2-37
			c0.6-1.5-0.1-3.3-1.6-4c-4.2-2-8.9-2.2-13.2-0.6c-4.3,1.6-7.8,4.9-9.6,9.1l-11.2,25.5c-1.2,2.8-4.3,4.2-7.2,3.3
			c-0.1,0-16.1-4.6-32.1-1.1c-14.5,3.1-22.4,20.7-22.4,20.9c-1.3,3-4.8,4.4-7.9,3.1c-3-1.3-4.4-4.8-3.1-7.9c0.4-1,10.3-23.5,31-27.9
			c13.2-2.8,26-1.2,32.8,0.2l9.2-20.9c3.2-7.2,9-12.7,16.4-15.5c7.4-2.8,15.4-2.4,22.6,1c7.3,3.4,10.6,12,7.5,19.5l-15.2,37
			c-7.9,19.1-22.4,34.6-41,43.7C350.1,343.4,349.2,343.6,348.3,343.6z"/>
	</g>
</g>
</svg>
