<?xml version="1.0" encoding="utf-8"?>
<!-- Generator: Adobe Illustrator 24.1.2, SVG Export Plug-In . SVG Version: 6.00 Build 0)  -->
<svg version="1.1" id="Warstwa_1" xmlns="http://www.w3.org/2000/svg" xmlns:xlink="http://www.w3.org/1999/xlink" x="0px" y="0px"
	 viewBox="0 0 430 430" style="enable-background:new 0 0 430 430;" xml:space="preserve">
<style type="text/css">
	.st0{fill:#08a88a;}
	.st1{fill:#121331;}
	.st2{fill:none;}
	.st3{fill:none;stroke:#08a88a;stroke-width:12;stroke-linecap:round;stroke-linejoin:round;stroke-miterlimit:10;}
	.st4{fill:#08a88a;}
	.st5{fill:none;stroke:#121331;stroke-width:12;stroke-linecap:round;stroke-linejoin:round;stroke-miterlimit:10;}
</style>
<g>
	<g>
		<path class="st0" d="M304.34,277.72c-3.31,0-6-2.69-6-6v-26.7c0-3.31,2.69-6,6-6s6,2.69,6,6v26.7
			C310.34,275.03,307.65,277.72,304.34,277.72z"/>
		<path class="st0" d="M323.62,277.72c-3.31,0-6-2.69-6-6v-26.7c0-3.31,2.69-6,6-6s6,2.69,6,6v26.7
			C329.62,275.03,326.93,277.72,323.62,277.72z"/>
	</g>
	<path class="st0" d="M313.98,179.83c-3.31,0-6-2.69-6-6v-19.78c0-3.31,2.69-6,6-6s6,2.69,6,6v19.78
		C319.98,177.14,317.29,179.83,313.98,179.83z"/>
	<path class="st0" d="M362.85,360.18c-3.29,0-5.98-2.66-6-5.96l-0.06-8.4c-0.02-3.31,2.65-6.02,5.96-6.04
		c3.32-0.07,6.02,2.65,6.04,5.96l0.06,8.4c0.02,3.31-2.65,6.02-5.96,6.04C362.88,360.18,362.87,360.18,362.85,360.18z"/>
	<path class="st0" d="M73.9,306.41c-1.32,0-2.66-0.44-3.77-1.33l-17.81-14.4c-2.58-2.08-2.98-5.86-0.89-8.44
		c2.08-2.58,5.86-2.98,8.44-0.89l17.81,14.4c2.58,2.08,2.98,5.86,0.89,8.44C77.38,305.65,75.65,306.41,73.9,306.41z"/>
	<path class="st0" d="M120.41,296.21c-2.64,0-5.06-1.75-5.79-4.42l-6.3-23.11c-0.87-3.2,1.01-6.5,4.21-7.37
		c3.19-0.87,6.5,1.01,7.37,4.21l6.3,23.11c0.87,3.2-1.01,6.5-4.21,7.37C121.46,296.14,120.93,296.21,120.41,296.21z"/>
	<path class="st0" d="M179.22,296.88c-0.2,0-0.39-0.01-0.59-0.03c-3.3-0.32-5.71-3.26-5.39-6.56l2.34-23.9
		c0.32-3.3,3.25-5.71,6.56-5.39c3.3,0.32,5.71,3.26,5.39,6.56l-2.34,23.9C184.88,294.56,182.27,296.88,179.22,296.88z"/>
	<path class="st0" d="M233.92,307.43c-1.3,0-2.62-0.42-3.72-1.3c-2.6-2.06-3.04-5.83-0.98-8.43l15.53-19.62
		c2.06-2.6,5.83-3.04,8.43-0.98c2.6,2.06,3.04,5.83,0.98,8.43l-15.53,19.62C237.45,306.65,235.69,307.43,233.92,307.43z"/>
	<path class="st0" d="M268.86,320.01c-2.07,0-4.09-1.07-5.2-2.99c-1.66-2.87-0.68-6.54,2.19-8.2l21.8-12.62
		c2.87-1.66,6.54-0.68,8.2,2.19c1.66,2.87,0.68,6.54-2.19,8.2l-21.8,12.62C270.92,319.75,269.88,320.01,268.86,320.01z"/>
	<path class="st1" d="M303.4,342.02h-7.64c3.88-3.46,7.93-7.58,11.34-12.1c3.22-4.28,4.58-9.56,3.82-14.85
		c-0.77-5.31-3.57-10.01-7.9-13.23c-29.73-22.11-80.84-38.19-133.39-41.96c-57.51-4.12-104.82,7.27-129.81,31.27
		c-7.76,7.45-8.53,19.79-1.76,28.09c0.03,0.03,0.06,0.07,0.08,0.1c0.6,0.7,10.79,12.64,20.32,22.68H56.1c-3.31,0-6,2.69-6,6v19.6
		c0,0.02,0,0.04,0,0.07s0,0.04,0,0.07v20.46c0,3.31,2.69,6,6,6h247.3c3.31,0,6-2.69,6-6v-40.19
		C309.4,344.7,306.71,342.02,303.4,342.02z M48.12,299.79c22.55-21.64,66.52-31.83,120.65-27.95c50.4,3.61,99.09,18.79,127.09,39.62
		c1.74,1.3,2.87,3.18,3.18,5.31c0.3,2.11-0.24,4.21-1.53,5.93c-0.05,0.07-0.1,0.13-0.15,0.19c-3.56-2.43-7.39-4.8-11.45-7.06
		c-0.06-0.03-0.11-0.05-0.17-0.08c-0.03-0.02-0.05-0.04-0.08-0.05c-1.32-0.74-2.56-1.4-3.77-2.03c-0.02-0.01-0.05-0.02-0.08-0.03
		c-0.03-0.02-0.05-0.04-0.08-0.05c-3.28-1.71-6.78-3.41-10.41-5.04c-10.87-4.89-22.9-9.23-35.75-12.88
		c-34.71-9.87-72.64-14.17-106.83-12.12c-35.19,2.12-63.67,10.81-82.95,25.24C44.8,305.69,45.61,302.21,48.12,299.79z M53.11,318.28
		c39.5-29.52,118.78-28.26,179.18-11.08c12.3,3.49,23.77,7.63,34.11,12.28c3.42,1.54,6.7,3.13,9.77,4.73
		c0.02,0.01,0.04,0.02,0.06,0.03c0.05,0.03,0.1,0.06,0.15,0.09c1.1,0.57,2.22,1.17,3.43,1.85c0.06,0.04,0.13,0.06,0.19,0.09
		c0.03,0.02,0.05,0.04,0.08,0.05c3.19,1.78,6.2,3.62,9.05,5.51c-5.25,4.87-10.45,8.57-12.85,10.19H75.4
		C68.97,336.08,59.28,325.3,53.11,318.28z M200.64,382h-80.53v-7.89h80.53V382z M297.4,362.11h-46.37c-3.31,0-6,2.69-6,6s2.69,6,6,6
		h46.37v8.1h-84.76v-14.1c0-3.31-2.69-6-6-6h-92.53c-3.31,0-6,2.69-6,6v14.1H62.1v-8.52h14.52c3.31,0,6-2.69,6-6s-2.69-6-6-6H62.1
		v-7.67h235.3V362.11z"/>
	<path class="st0" d="M230.62,92.97h-22.26V81.31c0-3.31-2.69-6-6-6h-28.19c-3.31,0-6,2.69-6,6v8.48h-16.18v-8.48c0-3.31-2.69-6-6-6
		h-28.19c-3.31,0-6,2.69-6,6v11.67H89.33c-3.31,0-6,2.69-6,6v38.56c0,3.31,2.69,6,6,6h28.19c0.05,0,0.1-0.01,0.15-0.01
		c0.05,0,0.1,0.01,0.15,0.01h28.19h28.18c0,0,0,0,0,0s0,0,0,0h28.18c0.01,0,0.03,0,0.04,0s0.03,0,0.04,0h28.19c3.31,0,6-2.69,6-6
		V98.97C236.62,95.66,233.93,92.97,230.62,92.97z M111.51,131.53H95.33v-26.56h16.19V131.53z M123.81,87.31h16.19v8.48v35.75h-16.19
		V87.31z M168.17,131.53h-16.18v-29.75h16.18V131.53z M196.36,131.53h-16.18V95.78c0-0.12,0-0.23-0.01-0.34v-8.13h16.19V131.53z
		 M224.62,131.53h-16.19v-26.56h16.19V131.53z"/>
	<path class="st1" d="M230.62,131.53h-28.19c-0.01,0-0.03,0-0.04,0s-0.03,0-0.04,0h-28.18c0,0,0,0,0,0s0,0,0,0h-28.18h-28.19
		c-0.05,0-0.1,0.01-0.15,0.01c-0.05,0-0.1-0.01-0.15-0.01H89.33c-3.31,0-6,2.69-6,6v42.63c0,3.31,2.69,6,6,6h22.48v21.05
		c0,3.31,2.69,6,6,6h22.19v14.3c0,3.31,2.69,6,6,6h28.19c3.31,0,6-2.69,6-6v-14.3h22.18c3.31,0,6-2.69,6-6v-21.05h22.26
		c3.31,0,6-2.69,6-6v-42.63C236.62,134.22,233.93,131.53,230.62,131.53z M111.51,174.17H95.33v-30.63h16.19V174.17z M123.81,201.21
		v-57.68h16.19v57.68H123.81z M168.18,221.51h-16.19v-14.3v-63.68h16.18v63.68c0,0.12,0,0.23,0.01,0.35V221.51z M196.36,201.21
		h-16.18v-57.68h16.18V201.21z M224.62,174.17h-16.19v-30.63h16.19V174.17z"/>
	<path class="st0" d="M396.08,274.59l-10.11-22.56v-14.54c0-3.31-2.69-6-6-6s-6,2.69-6,6v14.54l-10.1,22.56
		c-0.35,0.77-0.52,1.61-0.52,2.45v25.27l-12.77-18.76c-0.43-0.64-0.97-1.16-1.57-1.57v-59.18c0,0,0,0,0,0s0,0,0,0v-24.86
		c0-1.06-0.28-2.11-0.82-3.03l-8.43-14.42v-50.11c0-0.03,0-0.06,0-0.09c0-0.12-0.01-0.23-0.02-0.35c-0.01-0.09-0.01-0.19-0.02-0.28
		c-0.01-0.09-0.03-0.18-0.04-0.28c-0.02-0.12-0.04-0.23-0.07-0.34c-0.01-0.03-0.01-0.06-0.02-0.09l-19.6-80.38V36.28
		c0-3.31-2.69-6-6-6s-6,2.69-6,6v12.31l-19.6,80.38c-0.01,0.03-0.01,0.06-0.02,0.09c-0.03,0.11-0.05,0.23-0.07,0.34
		c-0.02,0.09-0.03,0.18-0.04,0.28c-0.01,0.09-0.02,0.18-0.02,0.28c-0.01,0.12-0.02,0.23-0.02,0.35c0,0.03,0,0.06,0,0.09v50.11
		l-8.43,14.42c-0.54,0.92-0.82,1.96-0.82,3.03v24.85c0,0,0,0.01,0,0.01v51.36c4.17,1.9,8.17,3.89,12,5.95v-51.31h46.06v97.97
		l-18.18-25.04c-0.11-0.15-0.22-0.28-0.34-0.42c2.2,3.63,3.67,7.7,4.29,12.03c0.64,4.46,0.34,8.9-0.83,13.11l15.06,20.74v34.52
		H321.4v6.48c0,1.93-0.31,3.78-0.87,5.52H343c0,0,0,0,0,0c0.02,0,0.03,0,0.05,0l47.6-0.38c3.29-0.03,5.95-2.71,5.95-6v-58.38v-0.33
		v-51.58C396.61,276.2,396.43,275.36,396.08,274.59z M375.35,278.33l4.63-10.34l4.63,10.34v44.3h-7.42l-1.84-2.7V278.33z
		 M313.98,74.63l12.14,49.76h-24.27L313.98,74.63z M290.95,216.81v-17.24l8.43-14.42c0.54-0.92,0.82-1.96,0.82-3.03v-45.73h27.55
		v45.73c0,1.06,0.28,2.11,0.82,3.03l8.43,14.42v17.24H290.95z M384.61,381.39l-35.6,0.29v-79.1l14.78,21.7
		c0.32,0.81,0.82,1.53,1.44,2.11l3.83,5.62c1.12,1.64,2.97,2.62,4.96,2.62h10.6V381.39z"/>
</g>
</svg>
