<?xml version="1.0" encoding="utf-8"?>
<!-- Generator: Adobe Illustrator 24.1.2, SVG Export Plug-In . SVG Version: 6.00 Build 0)  -->
<svg version="1.1" id="Warstwa_1" xmlns="http://www.w3.org/2000/svg" xmlns:xlink="http://www.w3.org/1999/xlink" x="0px" y="0px"
	 viewBox="0 0 430 430" style="enable-background:new 0 0 430 430;" xml:space="preserve">
<style type="text/css">
	.st0{fill:#08a88a;}
	.st1{fill:#121331;}
	.st2{fill:none;}
	.st3{fill:none;stroke:#08a88a;stroke-width:12;stroke-linecap:round;stroke-linejoin:round;stroke-miterlimit:10;}
	.st4{fill:#08a88a;}
	.st5{fill:none;stroke:#121331;stroke-width:12;stroke-linecap:round;stroke-linejoin:round;stroke-miterlimit:10;}
</style>
<g>
	<g>
		<path class="st0" d="M375.12,357.45H54.88c-3.31,0-6-2.69-6-6s2.69-6,6-6h320.24c3.31,0,6,2.69,6,6S378.43,357.45,375.12,357.45z"
			/>
		<path class="st1" d="M381.12,284.25c0-3.31-2.69-6-6-6s-6,2.69-6,6v7.85h-28.69v-7.85c0-3.31-2.69-6-6-6s-6,2.69-6,6v7.85h-28.69
			v-7.85c0-3.31-2.69-6-6-6s-6,2.69-6,6v7.85h-29.89v-15.7c0-3.31-2.69-6-6-6s-6,2.69-6,6v15.7h-10.26v-34.03v-22.03
			c0-3.31-2.69-6-6-6s-6,2.69-6,6v16.03h-17.18v-16.03c0-3.31-2.69-6-6-6s-6,2.69-6,6v22.03v34.03h-10.26v-15.7c0-3.31-2.69-6-6-6
			s-6,2.69-6,6v15.7h-29.89v-7.34c0-3.31-2.69-6-6-6s-6,2.69-6,6v7.34h-28.69v-7.34c0-3.31-2.69-6-6-6s-6,2.69-6,6v7.34H60.88v-7.34
			c0-3.31-2.69-6-6-6s-6,2.69-6,6v13.34v93.4c0,3.31,2.69,6,6,6H78h25.23h24.18h25.23h25.51h24.23h25.23h24.23h25.53h25.23h24.18
			h25.23h23.11c3.31,0,6-2.69,6-6v-93.4c0-0.09-0.01-0.17-0.01-0.25c0-0.08,0.01-0.17,0.01-0.25V284.25z M206.41,264.07h17.18v28.03
			h-17.18V264.07z M60.88,304.1h111.27v81.4h-13.51v-21.42c0-10.26-8.35-18.61-18.61-18.61s-18.61,8.35-18.61,18.61v21.42h-12.18
			v-21.42c0-10.26-8.35-18.61-18.61-18.61S72,353.82,72,364.08v21.42H60.88V304.1z M84,385.5v-21.42c0-3.65,2.97-6.61,6.61-6.61
			s6.61,2.97,6.61,6.61v21.42H84z M133.41,385.5v-21.42c0-3.65,2.97-6.61,6.61-6.61s6.61,2.97,6.61,6.61v21.42H133.41z
			 M208.39,385.5v-21.42c0-3.65,2.97-6.61,6.61-6.61s6.61,2.97,6.61,6.61v21.42H208.39z M233.61,385.5v-21.42
			c0-10.26-8.35-18.61-18.61-18.61s-18.61,8.35-18.61,18.61v21.42h-12.23v-81.4h61.7v81.4H233.61z M283.37,385.5v-21.42
			c0-3.65,2.97-6.61,6.61-6.61s6.61,2.97,6.61,6.61v21.42H283.37z M332.78,385.5v-21.42c0-3.65,2.97-6.61,6.61-6.61
			c3.65,0,6.61,2.97,6.61,6.61v21.42H332.78z M369.12,385.5h-11.11v-21.42c0-10.26-8.35-18.61-18.61-18.61s-18.61,8.35-18.61,18.61
			v21.42H308.6v-21.42c0-10.26-8.35-18.61-18.61-18.61s-18.61,8.35-18.61,18.61v21.42h-13.53v-81.4h111.27V385.5z"/>
		<g>
			<path class="st0" d="M79.97,336.78c-3.31,0-6-2.69-6-6v-12c0-3.31,2.69-6,6-6s6,2.69,6,6v12
				C85.97,334.1,83.28,336.78,79.97,336.78z"/>
			<path class="st0" d="M116.52,336.78c-3.31,0-6-2.69-6-6v-12c0-3.31,2.69-6,6-6s6,2.69,6,6v12
				C122.52,334.1,119.83,336.78,116.52,336.78z"/>
			<path class="st0" d="M153.07,336.78c-3.31,0-6-2.69-6-6v-12c0-3.31,2.69-6,6-6s6,2.69,6,6v12
				C159.07,334.1,156.38,336.78,153.07,336.78z"/>
		</g>
		<g>
			<path class="st0" d="M276.33,336.78c-3.31,0-6-2.69-6-6v-12c0-3.31,2.69-6,6-6s6,2.69,6,6v12
				C282.33,334.1,279.64,336.78,276.33,336.78z"/>
			<path class="st0" d="M312.88,336.78c-3.31,0-6-2.69-6-6v-12c0-3.31,2.69-6,6-6s6,2.69,6,6v12
				C318.88,334.1,316.19,336.78,312.88,336.78z"/>
			<path class="st0" d="M349.43,336.78c-3.31,0-6-2.69-6-6v-12c0-3.31,2.69-6,6-6s6,2.69,6,6v12
				C355.43,334.1,352.74,336.78,349.43,336.78z"/>
		</g>
		<g>
			<path class="st0" d="M204.38,340.42c-3.31,0-6-2.69-6-6v-19.27c0-3.31,2.69-6,6-6s6,2.69,6,6v19.27
				C210.38,337.73,207.69,340.42,204.38,340.42z"/>
			<path class="st0" d="M225.62,340.42c-3.31,0-6-2.69-6-6v-19.27c0-3.31,2.69-6,6-6s6,2.69,6,6v19.27
				C231.62,337.73,228.94,340.42,225.62,340.42z"/>
		</g>
	</g>
	<g>
		<path class="st1" d="M370.85,120.51c-0.18-0.45-0.42-0.88-0.7-1.28c-9.09-15.66-23.81-28.12-42.39-34
			c-19.19-6.07-39.59-4.3-57.45,4.97c-17.86,9.28-31.04,24.95-37.11,44.14c-4.75,15.01-4.68,30.77,0.01,45.47
			c0.01,0.04,0.02,0.07,0.03,0.11c1.3,4.05,2.93,8.03,4.93,11.88c9.28,17.86,24.95,31.04,44.14,37.11
			c7.53,2.38,15.16,3.52,22.68,3.52c8.51,0,16.86-1.47,24.73-4.21c0.37-0.09,0.74-0.22,1.09-0.38c21.21-7.75,38.74-24.9,46.06-48.04
			C383.36,159.26,380.56,137.99,370.85,120.51z M324.14,96.67c10.63,3.36,19.75,9.3,26.9,16.89c-5.79,0.63-11.39,2.71-16.38,4.56
			c-5.61,2.08-10.95,4.03-15.57,3.98c-1.27-0.52-2.57-0.98-3.91-1.37c-8.75-2.54-17.92-1.88-26.14,1.84c-0.03-2.4-0.16-4.81-0.3-7.2
			c-0.47-8.26-0.87-15.47,3.04-20.26C302.41,92.82,313.49,93.3,324.14,96.67z M279.69,149.92c1.11-3.82,3.04-7.26,5.63-10.13
			c0.03-0.03,0.07-0.06,0.1-0.1c0.02-0.02,0.04-0.05,0.06-0.07c1.89-2.05,4.11-3.81,6.63-5.2c6.07-3.34,13.08-4.11,19.73-2.18
			c1.24,0.36,2.45,0.81,3.61,1.34c0.05,0.02,0.09,0.05,0.13,0.06c4.97,2.31,9.06,6.12,11.75,11.01c3.34,6.07,4.11,13.08,2.17,19.73
			c-1.93,6.65-6.34,12.15-12.41,15.49c-6.07,3.34-13.08,4.11-19.73,2.18C283.62,178.07,275.7,163.65,279.69,149.92z M244.63,137.96
			c5.1-16.13,16.18-29.31,31.2-37.11c0.39-0.2,0.78-0.38,1.17-0.57c-0.83,5.23-0.53,10.66-0.24,15.76
			c0.35,6.14,0.65,11.95-0.95,16.39c-3.49,4.06-6.1,8.84-7.64,14.14c-2.99,10.3-1.4,20.86,3.57,29.49c-2.11,0.23-4.22,0.53-6.3,0.83
			c-9.95,1.44-16.49,2.11-21.27-2.23C240.69,162.74,240.81,150.07,244.63,137.96z M285.93,217.47
			c-14.85-4.7-27.18-14.46-35.13-27.69c1.27,0.12,2.54,0.18,3.82,0.18c4.32,0,8.61-0.62,12.54-1.19c5.78-0.84,11.25-1.6,15.65-0.58
			c3.33,2.34,7.09,4.19,11.21,5.39c3.52,1.02,7.08,1.51,10.57,1.51c7.24,0,14.24-2.1,20.22-5.86c0.29,2.39,0.69,4.78,1.08,7.14
			c1.61,9.62,2.35,16.04-1.12,20.84C312.58,221.24,299.07,221.62,285.93,217.47z M365.43,176.17
			c-4.65,14.69-14.18,26.49-26.25,34.21c0.31-5.37-0.61-10.84-1.47-15.98c-1.18-7.04-2.29-13.69-0.12-18.55
			c1.42-2.51,2.58-5.22,3.42-8.11c2.83-9.73,1.7-19.98-3.18-28.86c-1.47-2.67-3.22-5.11-5.22-7.3c2.09-0.69,4.17-1.45,6.21-2.21
			c9.69-3.6,16.19-5.61,21.86-2.44C368.59,141.51,370.82,159.15,365.43,176.17z"/>
		<path class="st0" d="M273.09,205.24c-1.58,0-3.13-0.64-4.24-1.76c-0.28-0.27-0.53-0.58-0.75-0.91c-0.22-0.32-0.4-0.67-0.55-1.03
			c-0.15-0.37-0.27-0.74-0.35-1.13c-0.07-0.38-0.11-0.78-0.11-1.17s0.04-0.78,0.11-1.17c0.08-0.38,0.2-0.76,0.35-1.12
			c0.15-0.37,0.33-0.71,0.55-1.04s0.47-0.64,0.75-0.91c1.11-1.12,2.66-1.76,4.24-1.76c1.57,0,3.12,0.64,4.24,1.76
			c0.28,0.27,0.53,0.58,0.75,0.91c0.21,0.33,0.4,0.67,0.55,1.04c0.15,0.36,0.26,0.74,0.34,1.12c0.08,0.39,0.12,0.78,0.12,1.17
			s-0.04,0.79-0.12,1.17c-0.08,0.39-0.19,0.76-0.34,1.13c-0.15,0.36-0.34,0.71-0.55,1.03c-0.22,0.33-0.47,0.64-0.75,0.91
			C276.21,204.6,274.66,205.24,273.09,205.24z"/>
		<path class="st0" d="M291.78,209.44c-0.39,0-0.78-0.04-1.17-0.12c-0.38-0.08-0.76-0.19-1.12-0.34c-0.36-0.15-0.71-0.34-1.04-0.55
			c-0.33-0.22-0.63-0.47-0.91-0.75c-0.28-0.28-0.53-0.58-0.75-0.91c-0.21-0.33-0.4-0.68-0.55-1.04c-0.15-0.36-0.26-0.74-0.34-1.12
			c-0.08-0.39-0.12-0.78-0.12-1.17c0-0.39,0.04-0.79,0.12-1.17c0.08-0.39,0.19-0.77,0.34-1.13c0.15-0.36,0.34-0.71,0.55-1.03
			c0.22-0.33,0.47-0.64,0.75-0.91c0.28-0.28,0.58-0.53,0.91-0.75c0.33-0.22,0.68-0.4,1.04-0.55c0.36-0.15,0.74-0.27,1.12-0.34
			c0.78-0.16,1.57-0.16,2.35,0c0.38,0.07,0.76,0.19,1.12,0.34c0.36,0.15,0.71,0.33,1.03,0.55c0.33,0.22,0.64,0.47,0.91,0.75
			c0.28,0.27,0.53,0.58,0.75,0.91c0.22,0.32,0.4,0.67,0.55,1.03c0.15,0.36,0.27,0.74,0.35,1.13c0.07,0.38,0.11,0.78,0.11,1.17
			c0,0.39-0.04,0.78-0.11,1.17c-0.08,0.38-0.2,0.76-0.35,1.12c-0.15,0.36-0.33,0.71-0.55,1.04c-0.22,0.33-0.47,0.63-0.75,0.91
			C294.91,208.8,293.36,209.44,291.78,209.44z"/>
		<path class="st0" d="M263.75,135.17c-0.39,0-0.79-0.04-1.17-0.12c-0.39-0.08-0.77-0.19-1.13-0.34c-0.36-0.15-0.71-0.34-1.03-0.55
			c-0.33-0.22-0.64-0.47-0.91-0.75c-1.12-1.12-1.76-2.66-1.76-4.24c0-0.39,0.04-0.79,0.12-1.18c0.07-0.38,0.19-0.76,0.34-1.12
			c0.15-0.36,0.33-0.71,0.55-1.03c0.22-0.33,0.47-0.64,0.75-0.92c0.27-0.27,0.58-0.52,0.91-0.74c0.32-0.22,0.67-0.4,1.03-0.55
			c0.36-0.15,0.74-0.27,1.13-0.35c1.94-0.39,4.02,0.25,5.41,1.64c0.28,0.28,0.53,0.59,0.75,0.92c0.21,0.32,0.4,0.67,0.55,1.03
			c0.15,0.36,0.26,0.74,0.34,1.12c0.08,0.39,0.12,0.79,0.12,1.18c0,1.58-0.64,3.12-1.76,4.24
			C266.87,134.53,265.33,135.17,263.75,135.17z"/>
		<path class="st0" d="M311.73,114.64c-0.39,0-0.78-0.04-1.17-0.12c-0.38-0.08-0.76-0.19-1.12-0.34c-0.37-0.15-0.71-0.34-1.04-0.56
			c-0.33-0.21-0.64-0.46-0.91-0.74c-1.12-1.12-1.76-2.66-1.76-4.24c0-0.39,0.04-0.79,0.12-1.18c0.08-0.38,0.19-0.76,0.34-1.12
			c0.15-0.36,0.34-0.71,0.55-1.03c0.22-0.33,0.47-0.64,0.75-0.92c0.27-0.27,0.58-0.52,0.91-0.74c0.33-0.22,0.67-0.4,1.04-0.55
			c0.36-0.15,0.74-0.27,1.12-0.35c1.96-0.39,4.02,0.25,5.41,1.64c0.28,0.28,0.53,0.59,0.75,0.92c0.22,0.32,0.4,0.67,0.55,1.03
			c0.15,0.36,0.27,0.74,0.34,1.12c0.08,0.39,0.12,0.79,0.12,1.18c0,1.58-0.64,3.12-1.76,4.24
			C314.86,114,313.31,114.64,311.73,114.64z"/>
		<path class="st0" d="M257.39,167.52c-1.58,0-3.12-0.64-4.24-1.75c-1.12-1.12-1.76-2.67-1.76-4.25c0-1.58,0.64-3.12,1.76-4.24
			c1.12-1.12,2.66-1.76,4.24-1.76s3.13,0.64,4.24,1.76c1.12,1.12,1.76,2.66,1.76,4.24c0,1.58-0.64,3.13-1.76,4.25
			C260.52,166.88,258.97,167.52,257.39,167.52z"/>
		<path class="st0" d="M351.9,146.58c-0.4,0-0.79-0.04-1.18-0.12c-0.38-0.07-0.76-0.19-1.12-0.34c-0.36-0.15-0.71-0.33-1.04-0.55
			c-0.32-0.22-0.63-0.47-0.91-0.74c-0.27-0.28-0.52-0.59-0.74-0.92c-0.22-0.32-0.4-0.67-0.55-1.03c-0.15-0.36-0.27-0.74-0.35-1.13
			c-0.07-0.38-0.11-0.78-0.11-1.17c0-0.39,0.04-0.78,0.11-1.17c0.08-0.38,0.2-0.76,0.35-1.12c0.15-0.36,0.33-0.71,0.55-1.04
			c0.22-0.33,0.47-0.63,0.74-0.91c0.28-0.28,0.59-0.53,0.91-0.75c0.33-0.21,0.68-0.4,1.04-0.55c0.36-0.15,0.74-0.26,1.12-0.34
			c0.78-0.16,1.57-0.16,2.35,0c0.38,0.08,0.76,0.19,1.12,0.34c0.36,0.15,0.71,0.34,1.04,0.55c0.33,0.22,0.63,0.47,0.91,0.75
			c1.12,1.12,1.76,2.66,1.76,4.24c0,1.58-0.64,3.13-1.76,4.25c-0.28,0.27-0.58,0.52-0.91,0.74s-0.68,0.4-1.04,0.55
			c-0.36,0.15-0.74,0.27-1.12,0.34C352.68,146.54,352.29,146.58,351.9,146.58z"/>
	</g>
	<path class="st0" d="M183.15,149.64v-7.66c0.37-0.28,0.74-0.58,1.07-0.91c0.47-0.46,0.88-0.97,1.25-1.52
		c0.36-0.54,0.67-1.12,0.92-1.73c0.25-0.6,0.44-1.23,0.57-1.87c0.13-0.64,0.19-1.3,0.19-1.95s-0.06-1.31-0.19-1.95
		c-0.13-0.64-0.32-1.27-0.57-1.87c-0.25-0.61-0.56-1.19-0.92-1.73c-0.37-0.55-0.78-1.06-1.25-1.52c-0.33-0.33-0.69-0.63-1.07-0.91
		v-5.83c0-3.31-2.69-6-6-6s-6,2.69-6,6v5.82c-0.38,0.28-0.74,0.58-1.07,0.91c-0.46,0.46-0.88,0.97-1.24,1.52
		c-0.36,0.54-0.67,1.12-0.92,1.73c-0.25,0.6-0.44,1.23-0.57,1.87c-0.13,0.64-0.2,1.3-0.2,1.95s0.07,1.31,0.2,1.95
		c0.13,0.64,0.32,1.27,0.57,1.87c0.25,0.61,0.56,1.19,0.92,1.73c0.36,0.55,0.78,1.06,1.24,1.52c0.33,0.33,0.7,0.63,1.07,0.91v7.66
		c-13.27,2.81-23.26,14.72-23.26,28.95v3.54v53.3H124.5v-99.75c0,0,0,0,0,0v-34.45c0-3.31-2.69-6-6-6s-6,2.69-6,6v18.59l-9.66-37.25
		c1.53-1.8,2.4-4.12,2.4-6.49c0-0.65-0.07-1.31-0.2-1.95c-0.13-0.64-0.32-1.27-0.57-1.87c-0.25-0.61-0.56-1.19-0.92-1.73
		c-0.36-0.55-0.78-1.06-1.24-1.52c-0.33-0.33-0.69-0.63-1.07-0.91V44.5c0-3.31-2.69-6-6-6s-6,2.69-6,6V68.1
		c-0.38,0.28-0.74,0.58-1.07,0.91c-0.46,0.46-0.88,0.97-1.25,1.52c-0.36,0.54-0.67,1.12-0.92,1.73c-0.25,0.6-0.44,1.23-0.57,1.87
		c-0.13,0.64-0.19,1.3-0.19,1.95s0.06,1.31,0.19,1.95c0.13,0.64,0.32,1.27,0.57,1.88c0.25,0.6,0.56,1.18,0.92,1.72
		c0.22,0.33,0.47,0.64,0.72,0.94l-9.66,37.26v-18.37c0-3.31-2.69-6-6-6s-6,2.69-6,6v34.49c0,0,0,0,0,0v43.17c0,0,0,0,0,0s0,0,0,0
		v39.65c0,0,0,0,0,0s0,0,0,0v38.68c-0.05,0.32-0.09,0.64-0.09,0.98s0.03,0.66,0.09,0.98v20.69h12v-15.66h34.52v14.26
		c0.16,0.46,0.31,0.92,0.44,1.4h5.95c0.95-3.53,2.93-6.63,5.62-8.96v-23.71h23.39v23.6c2.75,2.33,4.78,5.48,5.74,9.07h6.26v-15.66
		h4.84c3.3-3.7,8.08-6.04,13.42-6.04c1.47,0,2.89,0.2,4.26,0.53v-21.58c-1.01-1.9-3-3.2-5.3-3.2c-3.31,0-6,2.69-6,6v12.29h-11.22
		v-11.01v-16.65h16.64c0.22,0.02,0.44,0.04,0.66,0.04s0.44-0.01,0.66-0.04h8.52c3.3-4.11,8.35-6.74,14.03-6.74
		c2.11,0,4.12,0.38,6,1.05v-36.96v-3.54C206.41,164.36,196.41,152.44,183.15,149.64z M95.24,101.07l7.42,28.61H87.82L95.24,101.07z
		 M112.5,241.43v11.01h-11.35v-12.33c0-3.31-2.69-6-6-6s-6,2.69-6,6v12.33H77.98v-27.66h34.52V241.43z M112.5,212.78h-11.26v-12.33
		c0-3.31-2.69-6-6-6s-6,2.69-6,6v12.33H77.98v-27.66h34.52V212.78z M112.5,173.12h-11.26v-12.33c0-3.31-2.69-6-6-6s-6,2.69-6,6
		v12.33H77.98v-31.44h32.41c0.01,0,0.01,0,0.02,0c0.01,0,0.02,0,0.02,0h2.06V173.12z M177.15,161.01c8.69,0,15.89,6.59,17.07,15.11
		h-34.14C161.26,167.6,168.46,161.01,177.15,161.01z M194.41,212.78h-11.22v-12.29c0-3.31-2.69-6-6-6s-6,2.69-6,6v12.29h-11.3
		v-24.65h34.52V212.78z"/>
</g>
</svg>
