<?xml version="1.0" encoding="utf-8"?>
<!-- Generator: Adobe Illustrator 24.1.2, SVG Export Plug-In . SVG Version: 6.00 Build 0)  -->
<svg version="1.1" id="Warstwa_1" xmlns="http://www.w3.org/2000/svg" xmlns:xlink="http://www.w3.org/1999/xlink" x="0px" y="0px"
	 viewBox="0 0 430 430" style="enable-background:new 0 0 430 430;" xml:space="preserve">
<style type="text/css">
	.st0{fill:#08a88a;}
	.st1{fill:#121331;}
	.st2{fill:none;}
	.st3{fill:none;stroke:#08a88a;stroke-width:12;stroke-linecap:round;stroke-linejoin:round;stroke-miterlimit:10;}
	.st4{fill:#08a88a;}
	.st5{fill:none;stroke:#121331;stroke-width:12;stroke-linecap:round;stroke-linejoin:round;stroke-miterlimit:10;}
</style>
<g>
	<g>
		<path class="st0" d="M377.68,94.65c-1.71-1.11-3.86-1.27-5.72-0.43l-29.15,13.14c-0.94-3.65-2.98-6.86-5.77-9.23
			c5.44-5.14,8.85-12.41,8.85-20.47c0-15.54-12.64-28.18-28.18-28.18c-9,0-17.02,4.24-22.18,10.83
			c-5.16-6.58-13.18-10.83-22.18-10.83c-15.54,0-28.18,12.64-28.18,28.18c0,7.49,2.94,14.3,7.72,19.35
			c-1.95,1.34-3.61,3.05-4.9,5.04h-12.67c-1.06-1.68-2.93-2.79-5.06-2.79c-3.31,0-6,2.69-6,6v26.38c0,3.31,2.69,6,6,6
			c2.25,0,4.21-1.24,5.23-3.07h9.59v10.73c0,9.93,8.07,18,18,18h4.67v12.02c0,3.31,2.69,6,6,6h40.98c3.31,0,6-2.69,6-6v-12.02h4.67
			c8.38,0,15.42-5.76,17.41-13.52l29.15,13.14c0.79,0.35,1.63,0.53,2.46,0.53c1.14,0,2.27-0.32,3.26-0.96
			c1.71-1.11,2.74-3,2.74-5.04V99.69C380.43,97.65,379.39,95.76,377.68,94.65z M317.71,61.48c8.92,0,16.18,7.26,16.18,16.18
			c0,8.92-7.26,16.18-16.18,16.18s-16.18-7.26-16.18-16.18C301.53,68.73,308.79,61.48,317.71,61.48z M273.36,61.48
			c8.92,0,16.18,7.26,16.18,16.18c0,8.92-7.26,16.18-16.18,16.18c-8.92,0-16.18-7.26-16.18-16.18
			C257.18,68.73,264.44,61.48,273.36,61.48z M236.27,122.56v-8.52h8.82v8.52H236.27z M308.73,169.31h-28.98v-6.02h28.98V169.31z
			 M331.4,145.29c0,3.31-2.69,6-6,6h-62.31c-3.31,0-6-2.69-6-6v-33.46c0-3.31,2.69-6,6-6h62.31c3.31,0,6,2.69,6,6V145.29z
			 M368.43,148.15l-25.03-11.28v-16.62l25.03-11.28V148.15z"/>
		<path class="st0" d="M272.34,130.92h-0.06c-3.31,0-5.97,2.69-5.97,6s2.72,6,6.03,6s6-2.69,6-6S275.65,130.92,272.34,130.92z"/>
		<path class="st0" d="M265.05,81.1c0.22,0.54,0.5,1.06,0.82,1.55c0.33,0.49,0.71,0.95,1.12,1.37c0.42,0.41,0.88,0.79,1.37,1.12
			c0.49,0.32,1.01,0.6,1.55,0.83c0.55,0.22,1.11,0.39,1.69,0.51c0.58,0.12,1.17,0.17,1.76,0.17c0.58,0,1.17-0.05,1.75-0.17
			c0.58-0.12,1.15-0.29,1.69-0.51c0.54-0.23,1.06-0.51,1.55-0.83c0.5-0.33,0.96-0.71,1.37-1.12c0.41-0.42,0.79-0.88,1.12-1.37
			c0.32-0.49,0.6-1.01,0.83-1.55c0.22-0.55,0.39-1.11,0.51-1.69c0.12-0.58,0.18-1.17,0.18-1.75c0-0.59-0.06-1.18-0.18-1.76
			c-0.12-0.58-0.29-1.14-0.51-1.69c-0.23-0.54-0.51-1.06-0.83-1.55c-0.33-0.49-0.71-0.95-1.12-1.37c-0.41-0.41-0.87-0.79-1.37-1.12
			c-0.49-0.32-1.01-0.6-1.55-0.83c-0.54-0.22-1.11-0.39-1.69-0.51c-1.16-0.23-2.35-0.23-3.51,0c-0.58,0.12-1.14,0.29-1.69,0.51
			c-0.54,0.23-1.06,0.51-1.55,0.83c-0.49,0.33-0.95,0.71-1.37,1.12c-0.41,0.42-0.79,0.88-1.12,1.37c-0.32,0.49-0.6,1.01-0.82,1.55
			c-0.23,0.55-0.4,1.11-0.52,1.69c-0.11,0.58-0.17,1.17-0.17,1.76c0,0.58,0.06,1.17,0.17,1.75
			C264.65,79.99,264.82,80.55,265.05,81.1z"/>
		<path class="st0" d="M309.4,81.1c0.23,0.54,0.51,1.06,0.83,1.55c0.33,0.49,0.7,0.95,1.12,1.37c0.41,0.41,0.87,0.79,1.37,1.12
			c0.48,0.32,1.01,0.6,1.55,0.83c0.54,0.22,1.11,0.39,1.68,0.51c0.58,0.12,1.18,0.17,1.76,0.17c0.59,0,1.18-0.05,1.76-0.17
			c0.57-0.12,1.14-0.29,1.68-0.51c0.55-0.23,1.07-0.51,1.56-0.83c0.49-0.33,0.95-0.71,1.37-1.12c0.41-0.42,0.79-0.88,1.12-1.37
			c0.32-0.49,0.6-1.01,0.82-1.55c0.23-0.55,0.4-1.11,0.52-1.69c0.11-0.58,0.17-1.17,0.17-1.75c0-0.59-0.06-1.18-0.17-1.76
			c-0.12-0.58-0.29-1.14-0.52-1.69c-0.22-0.54-0.5-1.06-0.82-1.55c-0.33-0.49-0.71-0.95-1.12-1.37c-0.42-0.41-0.88-0.79-1.37-1.12
			c-0.49-0.32-1.01-0.6-1.56-0.83c-0.54-0.22-1.11-0.39-1.68-0.51c-1.16-0.23-2.36-0.23-3.52,0c-0.57,0.12-1.14,0.29-1.68,0.51
			c-0.54,0.23-1.07,0.51-1.55,0.83c-0.5,0.33-0.96,0.71-1.37,1.12c-0.42,0.42-0.79,0.88-1.12,1.37c-0.32,0.49-0.6,1.01-0.83,1.55
			c-0.22,0.55-0.4,1.11-0.51,1.69c-0.12,0.58-0.18,1.17-0.18,1.76c0,0.58,0.06,1.17,0.18,1.75C309,79.99,309.18,80.55,309.4,81.1z"
			/>
	</g>
	<path class="st1" d="M361.38,210.45c0-0.02,0.01-0.04,0.01-0.06c0.03-0.16,0.05-0.32,0.06-0.48c0.01-0.07,0.01-0.13,0.01-0.2
		c0.01-0.11,0.01-0.23,0.01-0.34c0-0.14-0.01-0.28-0.02-0.43c0-0.04,0-0.08-0.01-0.12c-0.1-0.99-0.44-1.98-1.05-2.85
		c-1.51-2.15-4.17-3.01-6.56-2.33l-27.42,5.58l-110.22-16.5c-0.59-0.09-1.19-0.09-1.78,0l-110.08,16.5l-27.78-5.65
		c-2.31-0.51-4.81,0.37-6.24,2.43c-1.79,2.58-1.29,6.06,1.09,8.03c0.05,0.04,0.11,0.08,0.16,0.12c0.08,0.06,0.16,0.13,0.24,0.18
		c0.25,0.18,23.56,17.68,23.2,71.29c-1.93,26.22-1.93,56.65-1.93,88.96c0,3.31,2.69,6,6,6s6-2.69,6-6c0-26.79,0-53.01,1.2-76.39
		c0.21-0.56,0.35-1.16,0.39-1.79c0.2-3.44,0.31-6.75,0.35-9.96c2.06-28.04,6.33-50.99,15.19-64.32
		c12.07,18.17,15.63,54.18,16.68,96.62c-0.26,9.08-0.08,18.78,0.12,29.54c0.16,8.18,0.32,16.63,0.32,26.04c0,0.08,0,0.16,0,0.25
		c0,3.31,2.69,6,6,6c0,0,0,0,0,0s0,0,0,0c3.31,0,6-2.69,6-6c0-0.08,0-0.16,0-0.24c0-19.54,0-38.39-0.43-56.04
		c1.21-38.49,11.02-62.58,64.42-111.54c55.86,51.12,64.12,75.14,64.66,116.75c-0.18,9.11-0.26,18.53-0.29,28.18
		c-0.13,7.19-0.25,14.66-0.25,22.89c0,3.31,2.69,6,6,6c0.04,0,0.08-0.01,0.11-0.01c0.04,0,0.07,0.01,0.11,0.01c3.31,0,6-2.69,6-6
		c0-7.7,0-15.36,0.03-22.91c0.02-1.12,0.04-2.24,0.06-3.34c0.16-8.66,0.31-16.63,0.23-24.14c0.89-44.77,4.22-83.09,16.8-102.02
		c8.85,13.32,13.12,36.25,15.19,64.26c0.04,3.21,0.15,6.52,0.35,9.96c0.04,0.63,0.17,1.23,0.38,1.79c1.2,23.38,1.2,49.61,1.2,76.41
		c0,3.31,2.69,6,6,6s6-2.69,6-6c0-32.33,0-62.76-1.94-88.99c-0.35-51.07,20.6-69.37,22.81-71.15
		C360.15,213.53,361.09,212.08,361.38,210.45z M91.14,218.78l11.83,2.41c0.69,0.14,1.39,0.16,2.08,0.05l4.14-0.62
		c-3.19,6.07-5.76,13.2-7.81,21.25C98.44,232.03,94.72,224.45,91.14,218.78z M148.06,271.2c-2.52-22.61-6.99-41.27-14.92-54.17
		l63.91-9.58C170.67,232.88,156.05,252.45,148.06,271.2z M233.57,207.45l64.24,9.62c-7.98,12.98-12.46,31.8-14.96,54.6
		C274.88,252.77,260.21,233.09,233.57,207.45z M329.54,241.77c-2.05-7.99-4.6-15.08-7.78-21.11l3.92,0.59
		c0.29,0.04,0.59,0.07,0.89,0.07c0.4,0,0.8-0.04,1.2-0.12l11.91-2.42C336.13,224.42,332.45,231.97,329.54,241.77z"/>
	<path class="st1" d="M191.77,78.99l-19.73-18.72c-3.54-3.36-8.35-4.95-13.18-4.37c-4.84,0.58-9.13,3.25-11.77,7.34
		c-1.87,2.9-3.2,6.07-3.99,9.39c-5.48-1.65-11.16-2.5-17-2.5c-5.84,0-11.52,0.85-17,2.5c-3.15-13.29-15.11-23.22-29.36-23.22
		c-16.63,0-30.17,13.53-30.17,30.17c0,13.47,8.96,24.97,21.23,28.8c-2.49,6.63-3.79,13.7-3.79,20.83
		c0,32.58,26.51,59.09,59.09,59.09c32.58,0,59.09-26.51,59.09-59.09c0-7.12-1.3-14.19-3.79-20.82c3.19-0.99,6.22-2.49,8.96-4.52
		c3.83-2.83,6.2-7.19,6.49-11.97C197.15,87.05,195.29,82.34,191.77,78.99z M61.57,79.59c0-10.02,8.15-18.17,18.17-18.17
		c9.27,0,16.93,6.98,18.03,15.96c-8.68,4.76-16.12,11.7-21.46,20.04C67.94,95.8,61.57,88.4,61.57,79.59z M126.1,176.31
		c-13.88,0-25.17-11.29-25.17-25.17s11.29-25.17,25.17-25.17s25.17,11.29,25.17,25.17S139.98,176.31,126.1,176.31z M162.37,159.21
		c0.58-2.6,0.89-5.3,0.89-8.07c0-20.5-16.67-37.17-37.17-37.17s-37.17,16.67-37.17,37.17c0,2.77,0.31,5.47,0.89,8.07
		c-6.75-8.15-10.82-18.61-10.82-30c0-7.88,1.99-15.69,5.75-22.57c0-0.01,0.01-0.01,0.01-0.02c4.82-8.8,12.5-15.97,21.61-20.18
		c0.02-0.01,0.05-0.02,0.07-0.03c6.17-2.84,12.78-4.29,19.65-4.29c6.85,0,13.44,1.44,19.61,4.27c0.05,0.03,0.11,0.05,0.17,0.07
		c9.08,4.2,16.73,11.35,21.55,20.15c0,0.01,0.01,0.02,0.01,0.03c3.76,6.88,5.75,14.69,5.75,22.57
		C173.19,140.61,169.12,151.06,162.37,159.21z M183.23,94.23c-2.2,1.62-4.69,2.7-7.34,3.2c-5.35-8.35-12.8-15.3-21.48-20.05
		c0.33-2.71,1.26-5.31,2.74-7.61c0.96-1.48,2.36-1.85,3.11-1.94c0.76-0.09,2.21-0.06,3.5,1.16l19.73,18.72
		c0.95,0.9,1.44,2.16,1.36,3.47C184.82,91.89,184.55,93.25,183.23,94.23z"/>
	<path class="st1" d="M100.01,119.16c-0.39,0-0.79-0.04-1.17-0.12c-0.39-0.08-0.76-0.19-1.13-0.34c-0.36-0.15-0.71-0.34-1.03-0.55
		c-0.33-0.22-0.64-0.47-0.91-0.75c-1.12-1.12-1.76-2.66-1.76-4.24s0.64-3.13,1.76-4.24c0.27-0.28,0.58-0.53,0.91-0.75
		c0.32-0.22,0.67-0.4,1.03-0.55c0.37-0.15,0.74-0.27,1.13-0.34c0.77-0.16,1.57-0.16,2.34,0c0.38,0.07,0.76,0.19,1.12,0.34
		c0.37,0.15,0.72,0.33,1.04,0.55c0.33,0.22,0.64,0.47,0.91,0.75c1.12,1.11,1.76,2.66,1.76,4.24s-0.64,3.12-1.76,4.24
		c-0.27,0.28-0.58,0.53-0.91,0.75c-0.32,0.21-0.67,0.4-1.04,0.55c-0.36,0.15-0.74,0.26-1.12,0.34
		C100.8,119.12,100.4,119.16,100.01,119.16z"/>
	<path class="st1" d="M152.62,117.96c-0.39,0-0.78-0.04-1.17-0.12c-0.38-0.07-0.76-0.19-1.12-0.34c-0.37-0.15-0.71-0.33-1.04-0.55
		c-0.33-0.22-0.63-0.47-0.91-0.75c-0.28-0.27-0.53-0.58-0.75-0.91c-0.21-0.32-0.4-0.67-0.55-1.04c-0.15-0.36-0.26-0.73-0.34-1.12
		c-0.08-0.38-0.12-0.78-0.12-1.17c0-0.39,0.04-0.79,0.12-1.17c0.08-0.39,0.19-0.76,0.34-1.13c0.15-0.36,0.34-0.71,0.55-1.03
		c0.22-0.33,0.47-0.64,0.75-0.91c0.28-0.28,0.58-0.53,0.91-0.75c0.33-0.21,0.67-0.4,1.04-0.55c0.36-0.15,0.74-0.27,1.12-0.34
		c1.95-0.39,4.02,0.24,5.41,1.64c0.28,0.27,0.53,0.58,0.75,0.91c0.22,0.32,0.4,0.67,0.55,1.03c0.15,0.37,0.27,0.74,0.34,1.13
		c0.08,0.38,0.12,0.78,0.12,1.17c0,0.39-0.04,0.79-0.12,1.17c-0.07,0.39-0.19,0.76-0.34,1.12c-0.15,0.37-0.33,0.72-0.55,1.04
		c-0.22,0.33-0.47,0.64-0.75,0.91C155.75,117.32,154.2,117.96,152.62,117.96z"/>
	<path class="st0" d="M125.92,146.26c-0.49,0-0.98-0.05-1.46-0.14c-0.48-0.1-0.95-0.24-1.41-0.43c-0.45-0.19-0.88-0.42-1.29-0.69
		c-0.41-0.27-0.8-0.59-1.14-0.93c-0.35-0.35-0.66-0.73-0.93-1.14c-0.27-0.41-0.51-0.85-0.69-1.3c-0.19-0.45-0.33-0.92-0.43-1.4
		c-0.1-0.49-0.15-0.98-0.15-1.47c0-0.49,0.05-0.98,0.15-1.46s0.24-0.95,0.43-1.4c0.18-0.46,0.42-0.89,0.69-1.3
		c0.27-0.41,0.58-0.79,0.93-1.14c1.74-1.74,4.33-2.54,6.77-2.05c0.48,0.1,0.95,0.24,1.4,0.43c0.45,0.19,0.89,0.42,1.3,0.69
		s0.79,0.58,1.14,0.93c0.34,0.35,0.66,0.73,0.93,1.14c0.27,0.41,0.5,0.84,0.69,1.3c0.19,0.45,0.33,0.92,0.43,1.4
		c0.09,0.48,0.14,0.97,0.14,1.46c0,0.49-0.05,0.98-0.14,1.47c-0.1,0.48-0.24,0.95-0.43,1.4c-0.19,0.45-0.42,0.89-0.69,1.3
		c-0.27,0.41-0.59,0.79-0.93,1.14c-0.35,0.34-0.73,0.66-1.14,0.93s-0.85,0.5-1.3,0.69c-0.45,0.19-0.92,0.33-1.4,0.43
		C126.9,146.21,126.41,146.26,125.92,146.26z"/>
	<path class="st1" d="M133.99,168.36c-1.03,0-2.06-0.26-3.02-0.82l-4.87-2.84l-4.87,2.84c-2.86,1.67-6.54,0.7-8.21-2.16
		c-1.67-2.86-0.7-6.54,2.16-8.21l7.9-4.6c1.87-1.09,4.17-1.09,6.04,0l7.9,4.6c2.86,1.67,3.83,5.34,2.16,8.21
		C138.06,167.29,136.05,168.36,133.99,168.36z"/>
</g>
</svg>
