<?xml version="1.0" encoding="utf-8"?>
<!-- Generator: Adobe Illustrator 24.1.2, SVG Export Plug-In . SVG Version: 6.00 Build 0)  -->
<svg version="1.1" id="Warstwa_1" xmlns="http://www.w3.org/2000/svg" xmlns:xlink="http://www.w3.org/1999/xlink" x="0px" y="0px"
	 viewBox="0 0 430 430" style="enable-background:new 0 0 430 430;" xml:space="preserve">
<style type="text/css">
	.st0{fill:#121331;}
	.st1{fill:#08A284;}
	.st2{fill:none;stroke:#08A284;stroke-width:12;stroke-linecap:round;stroke-linejoin:round;stroke-miterlimit:10;}
	.st3{fill:none;stroke:#121331;stroke-width:12;stroke-linecap:round;stroke-linejoin:round;stroke-miterlimit:10;}
	.st4{fill:#08A688;}
	.st5{fill:#08a88a;}
	.st6{fill:#08a88a;}
</style>
<g>
	<g>
		<path class="st0" d="M334.06,257.8V133.89c0-31.49-25.62-57.1-57.1-57.1H153.04c-31.49,0-57.1,25.62-57.1,57.1v123.84
			c0,0.03,0,0.05,0,0.08v38.31c0,31.49,25.62,57.1,57.11,57.1h123.92c31.49,0,57.1-25.62,57.1-57.1L334.06,257.8
			C334.06,257.8,334.06,257.8,334.06,257.8z M107.94,133.89c0-24.87,20.23-45.1,45.1-45.1h123.92c24.87,0,45.1,20.23,45.1,45.1
			V257.8c0,24.87-20.23,45.1-45.1,45.1H153.04c-24.87,0-45.1-20.23-45.1-45.1V133.89z M322.06,296.12c0,24.87-20.23,45.1-45.1,45.1
			H153.04c-24.87,0-45.11-20.23-45.11-45.1v-3.36c10.46,13.46,26.78,22.15,45.11,22.15h123.92c18.32,0,34.65-8.69,45.1-22.15V296.12
			z"/>
		<path class="st0" d="M131.94,157.84c3.31,0,6-2.69,6-6v-14.97c0-9.97,8.11-18.08,18.08-18.08H171c3.31,0,6-2.69,6-6s-2.69-6-6-6
			h-14.97c-16.59,0-30.08,13.5-30.08,30.08v14.97C125.94,155.16,128.63,157.84,131.94,157.84z"/>
	</g>
	<path class="st6" d="M233.61,203.1c6.84-5.31,11.2-13.27,11.2-22.16c0-15.94-14.03-28.91-31.27-28.91
		c-12.97,0-24.4,7.2-29.12,18.35c-1.29,3.05,0.14,6.57,3.19,7.86c3.05,1.29,6.57-0.14,7.86-3.19c2.79-6.59,10.05-11.02,18.06-11.02
		c10.63,0,19.27,7.59,19.27,16.91c0,9.33-8.65,16.93-19.27,16.93h-5.67c-3.31,0-6,2.69-6,6s2.69,6,6,6h5.67
		c0.18,0,0.36-0.01,0.54-0.01c0.03,0,0.06,0,0.1,0c12.4,0,22.49,8.09,22.49,18.04c0,9.91-10.08,17.97-22.48,17.97
		c-9.65,0-18.21-4.93-21.31-12.27c-1.29-3.05-4.81-4.48-7.86-3.19c-3.05,1.29-4.48,4.81-3.19,7.86c4.95,11.72,17.96,19.6,32.36,19.6
		c19.01,0,34.48-13.45,34.48-29.97C248.66,217.61,242.69,208.52,233.61,203.1z"/>
</g>
</svg>
