<?xml version="1.0" encoding="utf-8"?>
<!-- Generator: Adobe Illustrator 24.1.2, SVG Export Plug-In . SVG Version: 6.00 Build 0)  -->
<svg version="1.1" id="Warstwa_3" xmlns="http://www.w3.org/2000/svg" xmlns:xlink="http://www.w3.org/1999/xlink" x="0px" y="0px"
	 viewBox="0 0 430 430" style="enable-background:new 0 0 430 430;" xml:space="preserve">
<style type="text/css">
	.st0{fill:#08a88a;}
	.st1{fill:#121331;}
	.st2{fill:none;stroke:#08a88a;stroke-width:12;stroke-linecap:round;stroke-linejoin:round;stroke-miterlimit:10;}
	.st3{fill:none;stroke:#121331;stroke-width:12;stroke-linecap:round;stroke-linejoin:round;stroke-miterlimit:10;}
	.st4{fill:#08a88a;}
	.st5{fill:#FFFFFF;stroke:#08a88a;stroke-width:12;stroke-linecap:round;stroke-linejoin:round;stroke-miterlimit:10;}
</style>
<g>
	<path class="st1" d="M270.27,98.61c-0.03,0-0.07-0.01-0.1-0.01H49.38c-3.31,0-6,2.69-6,6v220.8c0,3.31,2.69,6,6,6h220.79
		c0.01,0,0.02,0,0.03,0c0,0,0.01,0,0.01,0c64.18,0,116.4-52.22,116.4-116.4C386.62,150.84,334.43,98.64,270.27,98.61z M55.38,110.6
		h22.13v208.8H55.38V110.6z M264.17,319.4H89.51V110.6h174.67V319.4z M276.17,181.5c15.94,2.82,28.08,16.76,28.08,33.5
		c0,16.73-12.14,30.67-28.08,33.5V181.5z M276.17,319.22v-58.59c22.58-2.93,40.08-22.27,40.08-45.63
		c0-23.35-17.48-42.68-40.08-45.63v-58.59c54.81,3.1,98.45,48.65,98.45,104.22C374.62,270.55,331,316.1,276.17,319.22z"/>
	<g>
		<path class="st1" d="M170.99,301.06h-39.25c-3.31,0-6-2.69-6-6s2.69-6,6-6h39.25c3.31,0,6,2.69,6,6S174.31,301.06,170.99,301.06z"
			/>
		<path class="st1" d="M211.81,301.06h-16.81c-3.31,0-6-2.69-6-6s2.69-6,6-6h16.81c3.31,0,6,2.69,6,6S215.12,301.06,211.81,301.06z"
			/>
	</g>
	<path class="st0" d="M217.61,140c0-0.03,0-0.07-0.01-0.1c0-0.12-0.01-0.24-0.02-0.37c-0.01-0.08-0.01-0.16-0.02-0.24
		c-0.01-0.11-0.03-0.22-0.05-0.32c-0.02-0.1-0.03-0.19-0.06-0.29c-0.02-0.09-0.04-0.17-0.07-0.26c-0.03-0.11-0.06-0.22-0.1-0.33
		c-0.02-0.07-0.05-0.14-0.08-0.21c-0.05-0.12-0.09-0.24-0.15-0.35c-0.01-0.03-0.02-0.06-0.04-0.09c-0.02-0.04-0.04-0.07-0.06-0.11
		c-0.05-0.11-0.11-0.22-0.17-0.32c-0.04-0.08-0.09-0.15-0.14-0.22c-0.05-0.09-0.11-0.17-0.17-0.25c-0.06-0.08-0.12-0.17-0.19-0.25
		c-0.05-0.07-0.11-0.13-0.16-0.19c-0.08-0.09-0.15-0.17-0.23-0.25c-0.05-0.05-0.11-0.11-0.16-0.16c-0.08-0.08-0.17-0.16-0.26-0.24
		c-0.06-0.05-0.12-0.1-0.18-0.15c-0.09-0.07-0.17-0.14-0.27-0.2c-0.07-0.05-0.15-0.1-0.22-0.15c-0.08-0.05-0.17-0.1-0.25-0.15
		c-0.09-0.05-0.18-0.1-0.27-0.14c-0.08-0.04-0.15-0.08-0.23-0.11c-0.1-0.05-0.2-0.09-0.31-0.13c-0.08-0.03-0.15-0.06-0.23-0.08
		c-0.1-0.04-0.21-0.07-0.32-0.1c-0.08-0.02-0.17-0.05-0.25-0.07c-0.1-0.02-0.2-0.04-0.3-0.06c-0.1-0.02-0.2-0.03-0.31-0.05
		c-0.08-0.01-0.17-0.02-0.26-0.03c-0.12-0.01-0.24-0.02-0.36-0.02c-0.04,0-0.08-0.01-0.13-0.01c-0.03,0-0.07,0-0.1,0.01
		c-0.12,0-0.25,0.01-0.37,0.02c-0.08,0.01-0.16,0.01-0.24,0.02c-0.11,0.01-0.22,0.03-0.33,0.05c-0.09,0.02-0.19,0.03-0.28,0.05
		c-0.09,0.02-0.18,0.04-0.27,0.07c-0.11,0.03-0.22,0.06-0.33,0.1c-0.07,0.02-0.14,0.05-0.22,0.08c-0.12,0.05-0.24,0.09-0.35,0.15
		c-0.03,0.01-0.06,0.02-0.09,0.04l-57.13,27.1c-0.04,0.02-0.07,0.04-0.11,0.06c-0.11,0.05-0.22,0.11-0.32,0.17
		c-0.08,0.04-0.15,0.09-0.22,0.13c-0.09,0.06-0.17,0.11-0.25,0.17c-0.08,0.06-0.17,0.12-0.25,0.18c-0.07,0.05-0.13,0.11-0.19,0.16
		c-0.09,0.07-0.17,0.15-0.25,0.23c-0.06,0.05-0.11,0.11-0.16,0.16c-0.08,0.08-0.16,0.17-0.23,0.26c-0.05,0.06-0.1,0.12-0.15,0.19
		c-0.07,0.09-0.13,0.17-0.19,0.26c-0.05,0.08-0.1,0.15-0.15,0.23c-0.05,0.08-0.1,0.16-0.15,0.24c-0.05,0.09-0.1,0.19-0.15,0.28
		c-0.04,0.07-0.07,0.15-0.11,0.22c-0.05,0.1-0.09,0.21-0.13,0.32c-0.03,0.07-0.05,0.14-0.08,0.22c-0.04,0.11-0.07,0.22-0.1,0.33
		c-0.02,0.08-0.04,0.16-0.06,0.24c-0.02,0.1-0.04,0.2-0.06,0.31c-0.02,0.1-0.03,0.2-0.05,0.3c-0.01,0.09-0.02,0.18-0.03,0.27
		c-0.01,0.12-0.02,0.24-0.02,0.35c0,0.04-0.01,0.09-0.01,0.13v62.52c-1.66-0.54-3.43-0.83-5.27-0.83c-9.53,0-17.27,7.75-17.27,17.27
		v7.1c0,9.53,7.75,17.27,17.27,17.27s17.27-7.75,17.27-17.27v-5.71v-1.39v-42.54l45.13-21.4v21.15c-1.66-0.54-3.43-0.83-5.27-0.83
		c-9.53,0-17.27,7.75-17.27,17.27v7.1c0,9.53,7.75,17.27,17.27,17.27s17.27-7.75,17.27-17.27v-7.1c0-0.03,0-0.05,0-0.08
		c0-0.03,0-0.05,0-0.08V140z M148.49,253.16c0,2.91-2.37,5.27-5.27,5.27s-5.27-2.37-5.27-5.27v-7.1c0-2.91,2.37-5.27,5.27-5.27
		s5.27,2.37,5.27,5.27v1.39V253.16z M160.49,190.24v-19.35l45.13-21.4v19.35L160.49,190.24z M205.61,226.82
		c0,2.91-2.37,5.27-5.27,5.27s-5.27-2.37-5.27-5.27v-7.1c0-2.91,2.37-5.27,5.27-5.27s5.27,2.37,5.27,5.27V226.82z"/>
</g>
</svg>
