<?xml version="1.0" encoding="utf-8"?>
<!-- Generator: Adobe Illustrator 24.1.2, SVG Export Plug-In . SVG Version: 6.00 Build 0)  -->
<svg version="1.1" id="Warstwa_1" xmlns="http://www.w3.org/2000/svg" xmlns:xlink="http://www.w3.org/1999/xlink" x="0px" y="0px"
	 viewBox="0 0 430 430" style="enable-background:new 0 0 430 430;" xml:space="preserve">
<style type="text/css">
	.st0{fill:#08a88a;}
	.st1{fill:#121331;}
	.st2{fill:none;}
	.st3{fill:#00A689;}
</style>
<path class="st1" d="M215,381c-30.58,0-59.16-17.59-80.47-49.53c-20.81-31.19-32.27-72.56-32.27-116.46s11.46-85.27,32.27-116.46
	C155.84,66.59,184.42,49,215,49s59.16,17.59,80.47,49.53c20.81,31.19,32.27,72.56,32.27,116.46s-11.46,85.27-32.27,116.46
	C274.16,363.41,245.58,381,215,381z M215,61c-55.55,0-100.75,69.08-100.75,154S159.45,369,215,369s100.75-69.08,100.75-154
	S270.55,61,215,61z"/>
</svg>
