<?xml version="1.0" encoding="utf-8"?>
<!-- Generator: Adobe Illustrator 24.1.2, SVG Export Plug-In . SVG Version: 6.00 Build 0)  -->
<svg version="1.1" id="Warstwa_1" xmlns="http://www.w3.org/2000/svg" xmlns:xlink="http://www.w3.org/1999/xlink" x="0px" y="0px"
	 viewBox="0 0 430 430" style="enable-background:new 0 0 430 430;" xml:space="preserve">
<style type="text/css">
	.st0{fill:#121331;}
	.st1{fill:#08a88a;}
	.st2{fill:#08a88a;}
	.st3{fill:none;}
	.st4{fill:none;stroke:#121331;stroke-width:12;stroke-linecap:round;stroke-linejoin:round;stroke-miterlimit:10;}
	.st5{fill:#08A385;}
	.st6{fill:none;stroke:#08a88a;stroke-width:12;stroke-linecap:round;stroke-linejoin:round;stroke-miterlimit:10;}
</style>
<g>
	<path class="st1" d="M133.18,149.25c-0.92,0-1.86-0.21-2.74-0.67l-27.72-14.26c-0.09-0.04-0.17-0.09-0.25-0.14
		c-7.37-4.25-11.92-10-13.51-17.08c-2.8-12.42,5.06-24.01,5.4-24.5c1.72-2.5,5.05-3.32,7.73-1.9l89.7,47.23
		c2.93,1.54,4.06,5.17,2.51,8.1c-1.54,2.93-5.17,4.06-8.1,2.51l-84.34-44.41c-1.12,2.88-2.03,6.69-1.19,10.37
		c0.84,3.67,3.35,6.68,7.67,9.2l27.58,14.19c2.95,1.52,4.11,5.13,2.59,8.08C137.45,148.06,135.35,149.25,133.18,149.25z"/>
	<path class="st1" d="M182.73,174.74L182.73,174.74c-3.32,0-6.01-2.69-6.01-6s2.69-6,6-6s6,2.69,6,6S186.04,174.74,182.73,174.74z"
		/>
	<path class="st1" d="M297.69,149.25c-2.18,0-4.28-1.19-5.34-3.26c-1.52-2.95-0.36-6.56,2.59-8.08l27.58-14.19
		c4.32-2.52,6.83-5.53,7.67-9.2c0.85-3.68-0.07-7.49-1.19-10.37l-84.34,44.41c-2.93,1.54-6.56,0.42-8.1-2.51
		c-1.54-2.93-0.42-6.56,2.51-8.1l89.7-47.23c2.69-1.42,6.01-0.6,7.73,1.9c0.34,0.49,8.21,12.07,5.41,24.5
		c-1.59,7.08-6.14,12.83-13.51,17.08c-0.08,0.05-0.17,0.09-0.25,0.14l-27.71,14.26C299.55,149.04,298.61,149.25,297.69,149.25z"/>
	<path class="st1" d="M368.43,155.49c-3.31,0-6-2.69-6-6V80.93H67.57v68.56c0,3.31-2.69,6-6,6s-6-2.69-6-6V74.93c0-3.31,2.69-6,6-6
		h306.86c3.31,0,6,2.69,6,6v74.56C374.43,152.81,371.74,155.49,368.43,155.49z"/>
	<path class="st1" d="M368.43,387.79H61.57c-3.31,0-6-2.69-6-6V280.5c0-3.31,2.69-6,6-6s6,2.69,6,6v95.29h294.86V280.5
		c0-3.31,2.69-6,6-6s6,2.69,6,6v101.29C374.43,385.11,371.74,387.79,368.43,387.79z"/>
	<path class="st0" d="M229.28,130.5h-14.53c-13.41,0-24.32-10.91-24.32-24.32V94.55c0-13.41,10.91-24.32,24.32-24.32h1.69
		c13.41,0,24.32,10.91,24.32,24.32v24.46C240.76,125.35,235.61,130.5,229.28,130.5z M214.75,82.23c-6.8,0-12.32,5.53-12.32,12.32
		v11.62c0,6.8,5.53,12.32,12.32,12.32h14.01V94.55c0-6.8-5.53-12.32-12.32-12.32H214.75z"/>
	<g>
		<path class="st1" d="M215.54,268.33c-1.61,0-3.21-0.64-4.39-1.91l-0.13-0.14c-2.26-2.43-2.12-6.22,0.31-8.48
			c2.43-2.26,6.22-2.12,8.48,0.31l0.13,0.14c2.26,2.43,2.12,6.22-0.31,8.48C218.47,267.8,217,268.33,215.54,268.33z"/>
		<path class="st1" d="M302.48,356.69c-6.27,0-12.49-2.58-17.02-7.62l-43.2-48.05c-2.22-2.46-2.01-6.26,0.45-8.47
			c2.46-2.21,6.26-2.01,8.47,0.45l43.2,48.05c3.95,4.39,10.58,4.86,15.11,1.08l0.36-0.31c4.54-3.79,5.22-10.59,1.55-15.18
			c-21.31-26.65-68.06-85.21-68.06-85.21l9.38-7.49c0,0,46.75,58.55,68.06,85.2c7.72,9.64,6.29,23.94-3.2,31.86l-0.35,0.3
			C312.9,354.92,307.68,356.69,302.48,356.69z"/>
		<path class="st1" d="M127.92,356.26c-5.31,0-10.48-1.88-14.55-5.29c-9.45-7.93-10.85-21.73-3.17-31.4l67.9-85.6
			c0.11-0.14,0.23-0.28,0.36-0.41c2.29-2.4,6.09-2.5,8.49-0.21c2.3,2.19,2.49,5.77,0.48,8.17l-67.83,85.51
			c-3.61,4.55-2.96,11.03,1.49,14.75c1.91,1.6,4.34,2.49,6.83,2.49c3,0,5.86-1.27,7.87-3.47l43.95-48.31
			c2.23-2.45,6.02-2.63,8.48-0.4c2.45,2.23,2.63,6.02,0.4,8.48l-43.95,48.31C140.4,353.56,134.29,356.26,127.92,356.26z"/>
	</g>
	<path class="st0" d="M215,42.21c-95.28,0-172.79,77.51-172.79,172.79c0,95.28,77.51,172.79,172.79,172.79S387.79,310.28,387.79,215
		C387.79,119.72,310.28,42.21,215,42.21z M219.8,149.25c0.02,0,0.04,0,0.06,0h111.59c-0.42,3.02-1.45,6.71-3.92,9.41
		c-2.5,2.74-6.17,4.08-11.2,4.08h-68.29c-3.31,0-6,2.69-6,6c0,0.01,0,0.01,0,0.02v64.71c0,0.01,0,0.03,0,0.04l-2.74,132.8
		c-0.09,4.62-3.78,8.43-8.4,8.67c-2.46,0.12-4.78-0.73-6.56-2.42c-1.78-1.69-2.76-3.97-2.76-6.43l-0.01-101.52
		c0-0.08-0.01-0.16-0.01-0.24l0-2.63c0-3.31-2.69-6-6-6c0,0,0,0,0,0c-3.31,0-6,2.69-6,6l-0.01,104.51c0,2.44-0.97,4.71-2.74,6.4
		c-1.77,1.69-4.08,2.56-6.52,2.44c-4.63-0.21-8.34-4-8.45-8.64l-3.1-132.57c0-0.08,0.01-0.16,0.01-0.25l-0.01-64.9
		c0-3.31-2.69-6-6-6c-0.02,0-0.03,0-0.05,0h-69.2c-5.04,0-8.7-1.33-11.2-4.08c-2.47-2.71-3.5-6.4-3.92-9.41H219.8z M250.47,371.84
		c0.49-1.69,0.78-3.45,0.82-5.28l2.74-132.8c0-0.01,0-0.01,0-0.02c0-0.04,0.01-0.07,0.01-0.11v-58.9h62.29
		c8.52,0,15.3-2.71,20.14-8.07c8.51-9.41,7.2-23.43,7.14-24.03c-0.31-3.06-2.89-5.4-5.97-5.4H210.95c-0.02,0-0.04,0-0.06,0H92.17
		c-3.08,0-5.66,2.33-5.97,5.4c-0.06,0.59-1.37,14.62,7.14,24.03c4.84,5.35,11.62,8.07,20.14,8.07h63.25l0.01,58.41
		c-0.02,0.2-0.02,0.41-0.02,0.62l3.11,132.96c0.04,1.86,0.35,3.65,0.85,5.36C108.46,356.32,54.21,291.88,54.21,215
		c0-88.66,72.13-160.79,160.79-160.79S375.79,126.34,375.79,215C375.79,291.47,322.12,355.64,250.47,371.84z"/>
</g>
</svg>
