<?xml version="1.0" encoding="utf-8"?>
<!-- Generator: Adobe Illustrator 24.1.2, SVG Export Plug-In . SVG Version: 6.00 Build 0)  -->
<svg version="1.1" id="Warstwa_1" xmlns="http://www.w3.org/2000/svg" xmlns:xlink="http://www.w3.org/1999/xlink" x="0px" y="0px"
	 viewBox="0 0 430 430" style="enable-background:new 0 0 430 430;" xml:space="preserve">
<style type="text/css">
	.st0{fill:#121331;}
	.st1{fill:#08a88a;}
	.st2{fill-opacity:0;}
	.st3{fill:none;}
</style>
<g>
	<g>
		<path class="st1" d="M286.21,319.71H148.73c-3.58,0-6.47-2.9-6.47-6.48s2.9-6.48,6.47-6.48h137.49c3.58,0,6.47,2.9,6.47,6.48
			S289.79,319.71,286.21,319.71z"/>
	</g>
	<g>
		<path class="st1" d="M286.21,267.91H148.73c-3.58,0-6.47-2.9-6.47-6.48s2.9-6.48,6.47-6.48h137.49c3.58,0,6.47,2.9,6.47,6.48
			S289.79,267.91,286.21,267.91z"/>
	</g>
	<g>
		<path class="st1" d="M286.21,216.11H148.73c-3.58,0-6.47-2.9-6.47-6.48s2.9-6.48,6.47-6.48h137.49c3.58,0,6.47,2.9,6.47,6.48
			S289.79,216.11,286.21,216.11z"/>
	</g>
	<g>
		<path class="st1" d="M286.21,164.31H148.73c-3.58,0-6.47-2.9-6.47-6.48s2.9-6.48,6.47-6.48h137.49c3.58,0,6.47,2.9,6.47,6.48
			S289.79,164.31,286.21,164.31z"/>
	</g>
	<g>
		<path class="st2" d="M322.17,375.88H168.82h-60.99v-38.06V54.12h155l29.67,29.67l29.67,29.67V375.88z"/>
		<path class="st0" d="M322.17,382.36H107.83c-3.58,0-6.47-2.9-6.47-6.48V54.12c0-3.58,2.9-6.48,6.47-6.48h155
			c1.72,0,3.36,0.68,4.58,1.9l59.34,59.34c1.21,1.21,1.9,2.86,1.9,4.58v262.42C328.65,379.46,325.75,382.36,322.17,382.36z
			 M114.3,369.41h201.4V116.15l-55.55-55.55H114.3V369.41z"/>
	</g>
	<g>
		<path class="st2" d="M311.58,111.33c-28.08,0-48.35,0-48.35,0s0-22.4,0-55.39"/>
		<path class="st0" d="M311.58,117.81h-48.35c-3.58,0-6.47-2.9-6.47-6.48V55.95c0-3.58,2.9-6.48,6.47-6.48s6.47,2.9,6.47,6.48v48.91
			h41.88c3.58,0,6.47,2.9,6.47,6.48S315.15,117.81,311.58,117.81z"/>
	</g>
</g>
</svg>
