<?xml version="1.0" encoding="utf-8"?>
<!-- Generator: Adobe Illustrator 24.1.2, SVG Export Plug-In . SVG Version: 6.00 Build 0)  -->
<svg version="1.1" id="Warstwa_1" xmlns="http://www.w3.org/2000/svg" xmlns:xlink="http://www.w3.org/1999/xlink" x="0px" y="0px"
	 viewBox="0 0 430 430" style="enable-background:new 0 0 430 430;" xml:space="preserve">
<style type="text/css">
	.st0{fill:#121331;}
	.st1{fill:#08A284;}
	.st2{fill:none;stroke:#08A284;stroke-width:12;stroke-linecap:round;stroke-linejoin:round;stroke-miterlimit:10;}
	.st3{fill:none;stroke:#121331;stroke-width:12;stroke-linecap:round;stroke-linejoin:round;stroke-miterlimit:10;}
	.st4{fill:#08A688;}
	.st5{fill:#08a88a;}
	.st6{fill:#08a88a;}
</style>
<g>
	<path class="st1" d="M252.77,272.12c-2.48,0-4.8-1.55-5.66-4.02c-1.1-3.13,0.55-6.55,3.68-7.65c1.7-0.6,41.63-15.08,44.29-57.69
		c3.8-61.07,49.67-79.53,51.62-80.28c3.09-1.2,6.57,0.34,7.76,3.43c1.2,3.09-0.34,6.57-3.43,7.76
		c-1.64,0.65-40.67,16.67-43.98,69.84c-3.15,50.46-50.29,67.57-52.29,68.27C254.1,272.01,253.43,272.12,252.77,272.12z"/>
	<g>
		<path class="st0" d="M215,49.01c-91.52,0-165.99,74.46-165.99,165.99S123.48,380.99,215,380.99S380.99,306.52,380.99,215
			S306.52,49.01,215,49.01z M215,368.99c-84.91,0-153.99-69.08-153.99-153.99S130.09,61.01,215,61.01S368.99,130.09,368.99,215
			S299.91,368.99,215,368.99z"/>
		<path class="st0" d="M302.17,271.09l-19.95-2.36c-6.76-0.8-13.4,0.03-19.53,2.41c-3.6-7.03-8.02-13.22-13.17-18.5l1.07-2.13
			c2.48-4.94,2.89-10.55,1.16-15.79s-5.42-9.5-10.36-11.98c-4.94-2.48-10.54-2.88-15.78-1.14c-4.19,1.39-7.74,4.04-10.26,7.57
			l-7.39-4.56c1.76-1.61,3.42-3.3,4.98-5.08c6.56-7.42,11.47-16.35,14.18-25.85c1.44-5.09-0.65-9.41-2.17-12.57
			c-0.85-1.76-1.65-3.42-1.65-4.66c0-0.47,0.08-1.22,0.24-2.17c3.25-19.22-3.78-38.57-18.33-50.49
			c-11.57-9.48-26.2-14.83-41.19-15.06c-36.59-0.55-66.94,28.75-67.66,65.3c-0.45,22.42,10.29,43.44,28.75,56.21
			c0.03,0.02,0.06,0.04,0.08,0.06l0.28,0.19c0.07,0.05,0.15,0.1,0.22,0.14c0.1,0.06,0.24,0.15,0.4,0.27
			c0.04,0.03,0.09,0.06,0.14,0.1c0.05,0.04,0.11,0.08,0.16,0.11c4.39,3.04,26.54,19.5,31.1,44.64c0.06,0.32,0.11,0.64,0.16,0.97
			c0.01,0.06,0.02,0.12,0.03,0.17c4.1,22.23,19.96,41.77,42.42,52.28c13.58,6.35,29.24,9.83,43.46,9.83c3.09,0,6.11-0.17,9.03-0.5
			c13.77-1.6,24.56-12.49,26.24-26.49l0.36-2.99c0.06-0.52,0.34-0.83,0.56-1.01c0.23-0.18,0.61-0.38,1.14-0.31l16.74,2
			c0.76,0.08,1.52,0.13,2.27,0.13c9.82,0,18.12-7.36,19.29-17.13c0.62-5.17-0.82-10.27-4.04-14.35
			C311.92,274.27,307.31,271.69,302.17,271.09z M133.3,221.3c-0.08-0.06-0.16-0.11-0.25-0.17c-0.05-0.04-0.11-0.08-0.16-0.12
			c-0.3-0.2-0.56-0.37-0.76-0.5l-0.22-0.15c-15.13-10.48-23.95-27.71-23.57-46.1c0.59-29.96,25.46-54.02,55.48-53.54
			c12.47,0.19,24.15,4.46,33.77,12.34c11.23,9.2,16.64,24.22,14.1,39.25c-0.27,1.67-0.4,2.98-0.4,4.13c0,3.99,1.58,7.26,2.85,9.88
			c0.76,1.58,1.63,3.38,1.44,4.07c-2.22,7.77-6.24,15.1-11.64,21.2c-2.86,3.26-6.16,6.19-9.8,8.73c-1.66,1.16-2.62,3.07-2.56,5.09
			c0.06,2.02,1.13,3.88,2.84,4.94l15.29,9.44l-4.3,8.57c-0.36,0.72-0.97,1.02-1.29,1.12c-0.33,0.11-0.98,0.24-1.7-0.12l-17.88-8.97
			c-2.96-1.49-6.57-0.29-8.05,2.67s-0.29,6.57,2.67,8.05l17.88,8.97c3.4,1.71,7.26,1.98,10.86,0.79c3.61-1.2,6.53-3.73,8.24-7.13
			l6.76-13.48c0.02-0.04,0.04-0.08,0.06-0.12l1.41-2.81c1.04-2.07,2.82-3.61,5.02-4.34c2.2-0.73,4.55-0.56,6.62,0.48
			c2.07,1.04,3.62,2.83,4.35,5.03s0.56,4.56-0.48,6.63l-9.85,19.58c-8.22,16.32-28.21,22.97-44.57,14.82l-16.64-8.29
			C162.75,243.67,140.32,226.19,133.3,221.3z M307.26,291.28c-0.45,3.74-3.62,6.55-7.37,6.55c-0.31,0-0.63-0.02-0.9-0.05
			l-16.68-1.99c-3.6-0.44-7.15,0.56-10,2.8c-2.84,2.24-4.64,5.46-5.05,9.02l-0.36,2.97c-1.01,8.47-7.47,15.05-15.7,16
			c-14.23,1.63-31.43-1.46-46.03-8.28c-14.65-6.85-25.95-18.15-31.9-31.43l6.82,3.4c6.45,3.21,13.31,4.73,20.09,4.73
			c16.59,0,32.61-9.13,40.55-24.9l3.01-5.98c3.7,4.4,6.48,8.98,8.52,13.01c-8.58,6.77-14.16,16.77-15.56,28.19
			c-0.4,3.29,1.94,6.28,5.23,6.68c0.25,0.03,0.49,0.04,0.73,0.04c2.99,0,5.58-2.23,5.95-5.27c1.17-9.59,6.37-17.77,14.27-22.43
			c0,0,0,0,0,0c0,0,0,0,0.01,0c5.35-3.17,11.55-4.45,17.92-3.7l19.96,2.36c1.96,0.23,3.72,1.21,4.95,2.77
			C306.95,287.35,307.5,289.3,307.26,291.28z"/>
	</g>
</g>
</svg>
