<?xml version="1.0" encoding="utf-8"?>
<!-- Generator: Adobe Illustrator 24.1.2, SVG Export Plug-In . SVG Version: 6.00 Build 0)  -->
<svg version="1.1" id="Warstwa_1" xmlns="http://www.w3.org/2000/svg" xmlns:xlink="http://www.w3.org/1999/xlink" x="0px" y="0px"
	 viewBox="0 0 430 430" style="enable-background:new 0 0 430 430;" xml:space="preserve">
<style type="text/css">
	.st0{fill:#121331;}
	.st1{fill:#08A284;}
	.st2{fill:none;stroke:#08A284;stroke-width:12;stroke-linecap:round;stroke-linejoin:round;stroke-miterlimit:10;}
	.st3{fill:none;stroke:#121331;stroke-width:12;stroke-linecap:round;stroke-linejoin:round;stroke-miterlimit:10;}
	.st4{fill:#08A688;}
	.st5{fill:#08a88a;}
	.st6{fill:#08a88a;}
</style>
<g>
	<path class="st0" d="M98.45,353.31c-3.14,0-5.77-2.44-5.98-5.61c-0.22-3.31,2.29-6.16,5.6-6.38l101.22-6.6
		c1.98-0.13,3.78-1.03,5.07-2.53c1.29-1.5,1.91-3.41,1.75-5.38l-2.07-25.04l-42.36-9.74c-2.49-0.57-4.34-2.66-4.62-5.19
		c-0.28-2.54,1.08-4.97,3.39-6.07l40.2-19.12l-2.31-27.2c-0.12-1.35,0.23-2.71,0.99-3.84c0.58-0.87,1.38-1.57,2.31-2.04
		c0.71-0.35,1.48-0.56,2.27-0.62l17.56-1.2c0.93-0.06,1.39-0.67,1.58-1.02s0.44-1.07-0.02-1.88l-25.77-45.69
		c-0.44-0.78-0.7-1.66-0.76-2.56l-1.2-18.47c-1.29-19.8-10.28-37.97-25.31-51.16c-15.03-13.19-34.21-19.74-54.01-18.45l-34.31,2.24
		c-3.32,0.23-6.16-2.29-6.38-5.6s2.29-6.16,5.6-6.38l34.31-2.24c23-1.5,45.27,6.1,62.71,21.4s27.87,36.4,29.37,59.4l1.11,17.1
		l25.1,44.49c2.37,4.19,2.42,9.23,0.13,13.47c-2.29,4.24-6.52,6.97-11.33,7.3l-11.48,0.79l2.15,25.27c0.21,2.49-1.14,4.85-3.4,5.93
		l-28.39,13.51l29.84,6.86c2.55,0.59,4.42,2.75,4.64,5.35l2.42,29.4c0.44,5.2-1.2,10.25-4.61,14.21c-3.41,3.96-8.16,6.33-13.38,6.67
		l-101.22,6.6C98.72,353.3,98.58,353.31,98.45,353.31z M204.3,233.93L204.3,233.93L204.3,233.93z"/>
	<g>
		<path class="st1" d="M348.73,260.26h-68.02c-3.31,0-6,2.69-6,6s2.69,6,6,6h68.02c3.31,0,6-2.69,6-6S352.05,260.26,348.73,260.26z"
			/>
		<path class="st1" d="M264.95,221.77c1.18,1.59,2.99,2.42,4.82,2.42c1.24,0,2.5-0.38,3.57-1.18l44.28-32.86
			c2.66-1.98,3.22-5.73,1.24-8.39c-1.97-2.66-5.73-3.22-8.39-1.24l-44.28,32.86C263.54,215.35,262.98,219.11,264.95,221.77z"/>
		<path class="st1" d="M317.63,343.82l-44.28-32.86c-2.66-1.97-6.42-1.42-8.39,1.24c-1.97,2.66-1.42,6.42,1.24,8.39l44.28,32.86
			c1.07,0.8,2.33,1.18,3.57,1.18c1.83,0,3.65-0.84,4.82-2.42C320.85,349.55,320.29,345.8,317.63,343.82z"/>
		<path class="st1" d="M267.82,175.86c0-3.31-2.72-6-6.03-6s-6,2.69-6,6s2.69,6,6,6h0.07C265.17,181.86,267.82,179.17,267.82,175.86
			z"/>
		<path class="st1" d="M316.5,226.86c0,3.31,2.69,6,6,6h0.07c3.31,0,5.97-2.69,5.97-6s-2.72-6-6.03-6S316.5,223.55,316.5,226.86z"/>
		<path class="st1" d="M249.03,247.67c-3.31,0-6,2.69-6,6s2.69,6,6,6h0.07c3.31,0,5.97-2.69,5.97-6S252.35,247.67,249.03,247.67z"/>
		<path class="st1" d="M338.16,306.67c-3.31,0-6,2.69-6,6s2.69,6,6,6h0.07c3.31,0,5.97-2.69,5.97-6S341.47,306.67,338.16,306.67z"/>
		<path class="st1" d="M247.03,337.98c-3.31,0-6,2.69-6,6s2.69,6,6,6h0.07c3.31,0,5.97-2.69,5.97-6S250.35,337.98,247.03,337.98z"/>
	</g>
</g>
</svg>
