<?xml version="1.0" encoding="utf-8"?>
<!-- Generator: Adobe Illustrator 24.1.2, SVG Export Plug-In . SVG Version: 6.00 Build 0)  -->
<svg version="1.1" id="Warstwa_1" xmlns="http://www.w3.org/2000/svg" xmlns:xlink="http://www.w3.org/1999/xlink" x="0px" y="0px"
	 viewBox="0 0 430 430" style="enable-background:new 0 0 430 430;" xml:space="preserve">
<style type="text/css">
	.st0{fill:#121331;}
	.st1{fill:#08a88a;}
	.st2{fill:#08a88a;}
	.st3{fill:#08A688;}
	.st4{fill:#08A284;}
	.st5{fill:none;stroke:#121331;stroke-width:12;stroke-linecap:round;stroke-linejoin:round;stroke-miterlimit:10;}
	.st6{fill:none;stroke:#08a88a;stroke-width:12;stroke-linecap:round;stroke-linejoin:round;stroke-miterlimit:10;}
	.st7{fill:none;}
	.st8{fill:none;stroke:#08A385;stroke-width:12;stroke-linecap:round;stroke-linejoin:round;stroke-miterlimit:10;}
	.st9{fill:#08A385;}
	.st10{fill:none;stroke:#08a88a;stroke-width:12;stroke-linecap:round;stroke-linejoin:round;stroke-miterlimit:10;}
</style>
<g>
	<path class="st0" d="M51.74,312.9c-1.53,0-3.08-0.26-4.64-0.77c-1.95-0.64-3.44-2.24-3.94-4.24l-14.61-58.18
		c-0.71-2.82,0.71-5.74,3.36-6.93l170.61-76.82c3.02-1.36,6.57-0.01,7.93,3.01s0.01,6.57-3.01,7.93L41.41,251.66l12.13,48.29
		c4.21-3.84,7.51-16.43,8.49-24.27c0.28-2.24,1.79-4.14,3.92-4.91l151.86-54.85c3.11-1.13,6.56,0.49,7.68,3.6
		c1.13,3.12-0.49,6.56-3.61,7.68L73.39,280.84c-1.34,7.9-5.12,24.08-14.2,29.84C56.86,312.15,54.34,312.9,51.74,312.9z"/>
	<path class="st0" d="M346.41,182.72c-2.2,0-4.36-0.6-6.3-1.76c-2.82-1.69-4.82-4.37-5.61-7.55l-4.76-18.97
		c-1.75-6.99-0.67-14.26,3.05-20.47c3.72-6.21,9.62-10.6,16.6-12.36l16.44-4.13c6.99-1.76,14.26-0.67,20.47,3.05
		s10.6,9.62,12.36,16.6l1.17,4.66c1.75,6.99,0.67,14.26-3.05,20.47s-9.62,10.6-16.6,12.36l-30.75,7.72
		C348.42,182.6,347.41,182.72,346.41,182.72z M372.4,128.68c-1.22,0-2.44,0.15-3.65,0.45l-16.44,4.13
		c-3.88,0.97-7.15,3.42-9.23,6.88c-2.07,3.46-2.68,7.51-1.71,11.38l4.76,18.97c0.01,0.03,0.03,0.11,0.14,0.18
		c0.11,0.07,0.2,0.05,0.22,0.04l30.75-7.72c3.88-0.97,7.15-3.42,9.23-6.88c2.07-3.46,2.68-7.51,1.71-11.38l-1.17-4.66
		c-0.97-3.88-3.42-7.15-6.88-9.23C377.74,129.41,375.09,128.68,372.4,128.68z"/>
	<path class="st2" d="M318.2,182.15c-0.01,0-0.02,0-0.03,0c-3.31-0.01-5.99-2.71-5.98-6.02c0.01-2.16-0.26-4.31-0.79-6.42
		c-0.81-3.21,1.13-6.48,4.35-7.29c3.21-0.81,6.48,1.13,7.29,4.35c0.78,3.08,1.17,6.24,1.15,9.41
		C324.19,179.48,321.5,182.15,318.2,182.15z"/>
	<path class="st2" d="M322.17,171.64c0.95-1.37,1.33-3.13,0.89-4.87c-5.1-20.32-25.79-32.7-46.11-27.6
		c-0.19,0.05-0.38,0.11-0.57,0.17l-73.42,26.44c-2.99,1.08-4.62,4.3-3.72,7.35l14.85,50.11c0.77,2.6,3.15,4.3,5.75,4.3
		c0.5,0,1.01-0.06,1.51-0.19l64.18-16.67v70.12c0,10.93,3.25,19.36,9.67,25.06c7.19,6.39,16.32,7.29,20.88,7.29
		c1.64,0,2.7-0.12,2.84-0.13c3.02-0.36,5.29-2.92,5.29-5.96V176.14C324.21,174.35,323.41,172.74,322.17,171.64z M312.21,300.86
		c-2.85-0.45-6.33-1.52-9.11-4.02c-3.7-3.33-5.58-8.72-5.58-16.04v-96.15c0-3.31-2.69-6-6-6s-6,2.69-6,6v13.63l-61.58,15.99
		l-11.59-39.12l67.8-24.42c13.82-3.31,27.8,5.14,31.27,18.95c0.31,1.23,0.97,2.26,1.85,3.04c-0.67,0.97-1.07,2.14-1.07,3.41V300.86z
		"/>
	<path class="st0" d="M401.81,313.32H28.19c-3.31,0-6-2.69-6-6s2.69-6,6-6h373.61c3.31,0,6,2.69,6,6S405.12,313.32,401.81,313.32z"
		/>
</g>
</svg>
