<?xml version="1.0" encoding="utf-8"?>
<!-- Generator: Adobe Illustrator 24.1.2, SVG Export Plug-In . SVG Version: 6.00 Build 0)  -->
<svg version="1.1" id="Warstwa_1" xmlns="http://www.w3.org/2000/svg" xmlns:xlink="http://www.w3.org/1999/xlink" x="0px" y="0px"
	 viewBox="0 0 430 430" style="enable-background:new 0 0 430 430;" xml:space="preserve">
<style type="text/css">
	.st0{fill:#08a88a;}
	.st1{fill:#121331;}
	.st2{fill:#08a88a;}
	.st3{fill:none;}
	.st4{fill:#08A385;}
	.st5{fill:none;stroke:#121331;stroke-width:12;stroke-linecap:round;stroke-linejoin:round;stroke-miterlimit:10;}
</style>
<g>
	<path class="st1" d="M351.09,206.79c-2.88,0-5.64-1-7.88-2.88c-2.52-2.11-4.07-5.08-4.35-8.34l-1.71-19.48
		c-0.63-7.17,1.59-14.18,6.24-19.73c4.65-5.55,11.17-8.95,18.34-9.58l16.89-1.48c7.18-0.63,14.18,1.59,19.73,6.24
		c5.55,4.65,8.95,11.17,9.58,18.34l0.42,4.78c0.63,7.18-1.59,14.18-6.24,19.73c-4.65,5.55-11.17,8.95-18.34,9.58l-31.59,2.77
		C351.82,206.78,351.45,206.79,351.09,206.79z M380.99,157.19c-0.44,0-0.88,0.02-1.32,0.06l-16.89,1.48
		c-3.98,0.35-7.6,2.25-10.2,5.34s-3.83,6.99-3.48,10.97l0,0l1.71,19.48c0,0.03,0.01,0.11,0.11,0.2c0.1,0.08,0.18,0.08,0.21,0.07
		l31.59-2.77c3.98-0.35,7.6-2.25,10.2-5.34s3.83-6.99,3.48-10.97l-0.42-4.78c-0.35-3.98-2.25-7.6-5.34-10.2
		C387.89,158.42,384.51,157.19,380.99,157.19z"/>
	<path class="st1" d="M401.15,272.8H55.5c3.54-5.41,6.07-11.46,7.53-15.39l155.81-25.41c3.27-0.53,5.49-3.62,4.96-6.89
		s-3.62-5.49-6.89-4.96L57.56,246.14c-2.23,0.36-4.07,1.95-4.75,4.11c-2.36,7.42-7.87,19.04-12.67,21.96l-3.15-49.37l176.94-42.94
		c3.22-0.78,5.2-4.03,4.42-7.25c-0.78-3.22-4.03-5.2-7.25-4.42L29.25,212.36c-2.83,0.69-4.76,3.31-4.57,6.21l3.46,54.22h-0.6
		c-3.31,0-6,2.69-6,6s2.69,6,6,6h373.61c3.31,0,6-2.69,6-6S404.47,272.8,401.15,272.8z"/>
	<path class="st2" d="M362.29,261.78c-2.63-6.3-8.07-10.91-16.17-13.7c-0.6-0.21-1.24-0.32-1.87-0.33l-23.33-0.3
		c2.56-13.67,7.92-43.32,8.5-55.61c0.44-9.27-3.14-18.15-10.09-25.01c-7.83-7.72-19.11-11.93-30.17-11.25
		c-0.2,0.01-0.4,0.03-0.59,0.07l-77.04,12.49c-3.14,0.51-5.34,3.38-5.01,6.54l5.38,51.99c0.32,3.08,2.91,5.38,5.96,5.38
		c0.14,0,0.28,0,0.42-0.01l65.47-4.53l-3.22,20.3c-1.47,9.26,1.18,18.66,7.27,25.79c6.09,7.13,14.96,11.22,24.33,11.22
		c0,0,0.01,0,0.01,0l43.99-0.01c2.3,0,4.4-1.32,5.4-3.39C362.03,280.39,366.22,271.22,362.29,261.78z M351.72,272.8l-39.57,0.01
		c0,0,0,0,0,0c-5.86,0-11.4-2.55-15.21-7.01c-3.81-4.46-5.46-10.33-4.55-16.12l8.31-52.47c0.52-3.27-1.71-6.35-4.99-6.87
		c-3.27-0.52-6.35,1.71-6.87,4.99l-3.17,20l-62.44,4.33l-4.2-40.59l71.13-11.53c7.62-0.38,15.35,2.53,20.72,7.83
		c4.49,4.43,6.8,10.07,6.53,15.89c-0.72,15.01-9.55,60.48-9.64,60.94c-0.34,1.75,0.11,3.55,1.23,4.93s2.8,2.19,4.58,2.21l29.48,0.38
		c4.19,1.59,6.91,3.81,8.1,6.58C352.13,268.55,352.05,270.93,351.72,272.8z"/>
</g>
</svg>
