<?xml version="1.0" encoding="utf-8"?>
<!-- Generator: Adobe Illustrator 26.0.1, SVG Export Plug-In . SVG Version: 6.00 Build 0)  -->
<svg version="1.1" id="Warstwa_1" xmlns="http://www.w3.org/2000/svg" xmlns:xlink="http://www.w3.org/1999/xlink" x="0px" y="0px"
	 viewBox="0 0 500 500" style="enable-background:new 0 0 500 500;" xml:space="preserve">
<style type="text/css">
	.st0{fill:#08a88a;}
	.st1{fill:#121331;}
	.st2{fill:none;}
	.st3{fill:none;stroke:#08a88a;stroke-width:12;stroke-linecap:round;stroke-linejoin:round;stroke-miterlimit:10;}
</style>
<g>
	<path class="st0" d="M250,388.99L250,388.99c-1.78,0-3.46-0.79-4.6-2.15l-16.86-20.15l-25.49,6.39c-1.73,0.43-3.55,0.08-4.99-0.97
		c-1.44-1.04-2.34-2.67-2.46-4.45l-1.78-26.21l-15.28-6.14c-3.08-1.24-4.57-4.73-3.33-7.8c1.23-3.08,4.73-4.57,7.8-3.33l18.78,7.54
		c2.14,0.86,3.6,2.86,3.75,5.16l1.54,22.81l22.18-5.56c2.23-0.56,4.59,0.21,6.06,1.97L250,373.64l14.67-17.54
		c1.48-1.76,3.83-2.53,6.06-1.97l22.18,5.56l1.54-22.81c0.16-2.3,1.61-4.3,3.75-5.16l18.78-7.54c3.07-1.23,6.57,0.26,7.8,3.33
		c1.23,3.08-0.26,6.57-3.33,7.8l-15.28,6.14l-1.78,26.21c-0.12,1.77-1.02,3.4-2.46,4.45s-3.26,1.4-4.99,0.97l-25.49-6.39
		l-16.86,20.15C253.46,388.21,251.78,388.99,250,388.99z"/>
</g>
<g>
	<path class="st1" d="M301.57,269.43c-0.47,0-0.94-0.02-1.39-0.07c-3.3-0.35-5.69-3.3-5.34-6.6c0.35-3.3,3.29-5.68,6.6-5.34
		c0.07,0.01,0.14,0.01,0.22,0c8.99-0.49,17.48-4.28,23.87-10.67c6.85-6.86,10.63-15.93,10.72-25.45
		c-9.39,0.1-18.36,3.79-25.18,10.47c-2.37,2.32-6.17,2.28-8.49-0.08c-2.32-2.37-2.28-6.17,0.08-8.49
		c10.63-10.42,25.2-15.35,39.98-13.53c2.73,0.34,4.88,2.49,5.22,5.22c1.86,14.97-3.19,29.67-13.86,40.35
		c-8.49,8.49-19.76,13.52-31.73,14.17C302.04,269.43,301.8,269.43,301.57,269.43z"/>
	<path class="st1" d="M198.42,269.43c-0.23,0-0.45-0.01-0.68-0.02c-11.99-0.65-23.26-5.68-31.75-14.17
		c-10.67-10.68-15.72-25.39-13.86-40.35c0.34-2.73,2.49-4.88,5.22-5.22c14.78-1.82,29.35,3.11,39.98,13.53
		c2.37,2.32,2.4,6.12,0.08,8.49c-2.32,2.37-6.12,2.4-8.49,0.08c-6.81-6.68-15.79-10.37-25.18-10.47
		c0.09,9.52,3.87,18.59,10.72,25.45c6.39,6.39,14.88,10.18,23.89,10.67c0.06,0,0.1,0,0.12,0c3.3-0.37,6.26,2,6.63,5.3
		c0.37,3.29-2,6.26-5.3,6.63C199.36,269.41,198.9,269.43,198.42,269.43z"/>
</g>
<path class="st1" d="M249.76,442.66c-17.11,0-33.79-3.33-49.58-9.9l-0.11-0.04c-5.67-2.36-11.61-3.9-17.69-4.61l-22.01-2.53
	c-9.08-1.04-15.93-8.73-15.93-17.88v-22.2c0-39.91,32.47-72.38,72.38-72.38h6.1c3.31,0,6,2.69,6,6s-2.69,6-6,6h-6.1
	c-33.29,0-60.38,27.08-60.38,60.38v22.2c0,3.05,2.28,5.61,5.31,5.96l22.02,2.54c7.2,0.83,14.22,2.66,20.87,5.43l0.11,0.04
	c14.37,5.98,29.51,9,45.03,9c15.61,0,30.82-3.05,45.19-9.07c6.42-2.68,13.17-4.45,20.07-5.25l23.22-2.69
	c3.03-0.35,5.31-2.91,5.31-5.96v-22.2c0-33.29-27.08-60.38-60.38-60.38h-6.09c-3.31,0-6-2.69-6-6s2.69-6,6-6h6.09
	c39.91,0,72.38,32.47,72.38,72.38v22.2c0,9.15-6.85,16.83-15.93,17.88l-23.22,2.69c-5.79,0.67-11.45,2.15-16.83,4.4
	C283.73,439.3,266.97,442.66,249.76,442.66z"/>
<path class="st1" d="M222.91,325.13c-3.31,0-6-2.69-6-6v-15.44c0-3.31,2.69-6,6-6s6,2.69,6,6v15.44
	C228.91,322.44,226.23,325.13,222.91,325.13z"/>
<path class="st1" d="M277.09,325.13c-3.31,0-6-2.69-6-6v-15.5c0-3.31,2.69-6,6-6s6,2.69,6,6v15.5
	C283.09,322.44,280.41,325.13,277.09,325.13z"/>
<path class="st1" d="M250,327.51c-3.9,0-7.8-1.07-11.2-3.21c-7.45-4.68-14.25-10.22-20.22-16.48
	c-11.24-11.76-19.68-26.08-25.11-42.55c-5.68-17.2-6.07-30.93-6.1-33.17c-0.14-1.57-0.21-3.06-0.23-4.53
	c-0.08-4.11,0.27-8.28,1.02-12.36c0.6-3.26,3.73-5.42,6.99-4.81c3.26,0.6,5.41,3.73,4.81,6.99c-0.61,3.29-0.88,6.65-0.82,9.99
	c0.02,1.28,0.08,2.55,0.21,3.91c0.02,0.19,0.02,0.37,0.02,0.56c0,0.12,0.06,13.21,5.5,29.68c4.86,14.77,12.39,27.56,22.39,38.03
	c5.29,5.54,11.31,10.46,17.92,14.6c2.93,1.84,6.71,1.84,9.63,0c6.61-4.17,12.65-9.1,17.94-14.66c27.5-28.9,27.88-67.29,27.89-67.68
	c0-0.18,0.01-0.36,0.02-0.53c0.12-1.34,0.19-2.64,0.21-3.87c0.06-3.38-0.21-6.74-0.82-10.03c-0.6-3.26,1.55-6.39,4.81-6.99
	c3.26-0.59,6.39,1.55,6.99,4.81c0.75,4.08,1.09,8.25,1.02,12.4c-0.02,1.42-0.1,2.94-0.23,4.5c-0.05,4.11-1.33,44.29-31.19,75.66
	c-5.97,6.27-12.78,11.84-20.24,16.54C257.8,326.44,253.9,327.51,250,327.51z"/>
<path class="st1" d="M196.45,188.83c-3.21,0-5.86-2.53-5.99-5.76c-0.04-1.1-0.05-2.2-0.05-3.31c0-22.32,6.73-43.73,19.45-61.91
	c20.25-28.99,53.43-46.3,88.75-46.3c0.47,0,0.96,0,1.44,0.01c3.31,0.08,5.94,2.82,5.86,6.13c-0.08,3.31-2.86,5.92-6.13,5.86
	c-0.38-0.01-0.78,0-1.16-0.01c-31.4,0-60.9,15.39-78.91,41.18c-11.31,16.16-17.29,35.19-17.29,55.03c0,0.95,0.01,1.89,0.04,2.83
	c0.13,3.31-2.45,6.1-5.76,6.23C196.61,188.83,196.52,188.83,196.45,188.83z"/>
<path class="st1" d="M302.14,190c-3.1,0-5.73-2.39-5.98-5.54c-0.78-10.14-3.99-20.04-9.29-28.62c-1.68-2.74-3.57-5.36-5.64-7.81
	c-0.06-0.07-0.12-0.14-0.17-0.22c-5.21-6.13-11.42-11.16-18.46-14.97c-2.92-1.58-4-5.22-2.43-8.13s5.22-4,8.13-2.43
	c8.45,4.56,15.88,10.62,22.1,17.99c0.06,0.08,0.13,0.15,0.19,0.23c2.38,2.84,4.57,5.88,6.5,9.04c6.28,10.19,10.1,21.95,11.03,33.99
	c0.25,3.3-2.22,6.19-5.52,6.44C302.45,190,302.3,190,302.14,190z"/>
<path class="st1" d="M285.83,150.17c-2.12,0-4.18-1.13-5.27-3.12c-3.8-6.95-5.8-14.85-5.8-22.84c0-17.16,9.27-33.07,24.2-41.54
	c2.88-1.64,6.54-0.62,8.18,2.26c1.63,2.88,0.62,6.54-2.26,8.18c-11.18,6.34-18.12,18.26-18.12,31.1c0,5.98,1.5,11.89,4.33,17.08
	c1.59,2.91,0.52,6.55-2.39,8.14C287.79,149.93,286.81,150.17,285.83,150.17z"/>
<path class="st0" d="M307.92,222.3H192.06c-1.59,0-3.12-0.63-4.25-1.76c-1.13-1.12-1.76-2.65-1.76-4.24v-37.22
	c0-2.34,1.36-4.47,3.49-5.45c2.13-0.98,4.63-0.63,6.41,0.89l15.41,13.17l15.41-13.17c2.25-1.92,5.55-1.92,7.8,0l15.41,13.17
	l15.41-13.17c2.25-1.92,5.55-1.92,7.8,0l15.42,13.17l15.42-13.17c1.78-1.52,4.28-1.87,6.41-0.89c2.13,0.98,3.49,3.11,3.49,5.45
	v37.22c0,0.93-0.22,1.85-0.63,2.68C312.27,221.01,310.19,222.3,307.92,222.3z M192.05,216.29L192.05,216.29L192.05,216.29z
	 M198.05,210.3h103.87v-18.2l-9.42,8.05c-2.24,1.92-5.55,1.92-7.79,0l-15.42-13.17l-15.41,13.17c-2.25,1.92-5.55,1.92-7.8,0
	l-15.41-13.17l-15.41,13.17c-2.25,1.92-5.55,1.92-7.8,0l-9.41-8.04V210.3z"/>
<g>
	<path class="st0" d="M316.27,102.22c-12.41,0-22.51-10.1-22.51-22.51s10.1-22.51,22.51-22.51c12.41,0,22.51,10.1,22.51,22.51
		S328.68,102.22,316.27,102.22z M316.27,69.19c-5.8,0-10.51,4.72-10.51,10.51s4.72,10.51,10.51,10.51s10.51-4.72,10.51-10.51
		S322.06,69.19,316.27,69.19z"/>
</g>
</svg>
