<?xml version="1.0" encoding="utf-8"?>
<!-- Generator: Adobe Illustrator 25.0.1, SVG Export Plug-In . SVG Version: 6.00 Build 0)  -->
<svg version="1.1" id="Layer_1" xmlns="http://www.w3.org/2000/svg" xmlns:xlink="http://www.w3.org/1999/xlink" x="0px" y="0px"
	 viewBox="0 0 430 430" style="enable-background:new 0 0 430 430;" xml:space="preserve">
<style type="text/css">
	.st0{fill:#121331;}
	.st1{fill:none;stroke:#121331;stroke-width:12;stroke-linecap:round;stroke-linejoin:round;stroke-miterlimit:10;}
	.st2{fill:none;stroke:#08a88a;stroke-width:12;stroke-linecap:round;stroke-linejoin:round;stroke-miterlimit:10;}
	.st3{fill:#08a88a;}
	.st4{fill:none;}
</style>
<g>
	<path class="st0" d="M215.18,232.41h-1.44c-35.83,0-64.98-29.15-64.98-64.98V138.5c0-3.31,2.69-6,6-6s6,2.69,6,6v28.93
		c0,29.21,23.77,52.98,52.98,52.98h1.44c29.21,0,52.98-23.77,52.98-52.98v-32.36c0-3.31,2.69-6,6-6s6,2.69,6,6v32.36
		C280.16,203.26,251.01,232.41,215.18,232.41z"/>
	<path class="st1" d="M182.12,217.23"/>
	<path class="st1" d="M245.47,236.73"/>
	<path class="st2" d="M141.31,140.65"/>
	<path class="st3" d="M151,145.32c-1.38,0-2.74-0.48-3.82-1.38c-1.4-1.16-2.2-2.88-2.18-4.7c0.01-1.17,0.41-28.82,4.36-43.28
		c0.84-3.07,1.81-5.45,2.95-7.25c1.77-2.8,5.48-3.63,8.28-1.85c2.8,1.77,3.63,5.48,1.85,8.28c-0.22,0.35-0.81,1.44-1.51,3.99
		c-2.37,8.67-3.33,23.57-3.71,32.61c32.47-8.05,50.88-21.88,60.69-32.26c10.95-11.58,13.83-21.46,13.86-21.56
		c0.49-1.74,1.74-3.18,3.4-3.89c1.66-0.72,3.55-0.67,5.16,0.17c17.27,9.01,27.08,21.31,32.64,32.68c-0.04-0.5-0.07-1.01-0.11-1.51
		c-0.38-5.34-0.81-11.39-1-17.66c-0.1-3.31,2.5-6.08,5.81-6.18c3.27-0.12,6.08,2.5,6.18,5.81c0.18,6.03,0.59,11.69,0.98,17.17
		c1.29,18.14,2.3,32.46-7.47,38.63c-1.91,1.2-4.33,1.24-6.27,0.09s-3.07-3.29-2.92-5.54v0c0,0,0.05-0.89-0.01-2.42
		c-0.27-7.36-3.11-31.29-27.64-47.11c-6.67,13.66-27.31,43.24-84.44,56.17c-1.27,0.29-2.57,0.58-3.88,0.85
		C151.8,145.28,151.4,145.32,151,145.32z"/>
	<path class="st2" d="M154.76,138.51"/>
	<path class="st2" d="M274.16,138.09"/>
	<path class="st0" d="M245.47,242.64c-0.08,0-0.17,0-0.25,0c-3.22-0.13-5.75-2.78-5.75-6l0.01-18.6c0-3.31,2.69-6,6-6c0,0,0,0,0,0
		c3.31,0,6,2.69,6,6v18.21c0,0.29-0.01,0.59-0.03,0.88C251.19,240.26,248.58,242.64,245.47,242.64z"/>
	<path class="st0" d="M159.3,244.07h-0.03c-3.31,0-6-2.69-6-6s2.69-6,6-6s6.01,2.69,6.01,6S162.61,244.07,159.3,244.07z"/>
	<path class="st0" d="M182.13,242.64c-3.12,0-5.74-2.41-5.98-5.55c-0.02-0.28-0.03-0.56-0.03-0.84v-19.02c0-3.31,2.69-6,6-6
		c0,0,0,0,0,0c3.31,0,6,2.68,6,6l0.01,19.41c0,3.23-2.55,5.88-5.77,6C182.28,242.64,182.2,242.64,182.13,242.64z M188.12,236.34
		h0.01H188.12z"/>
	<path class="st0" d="M245.47,242.74c-0.77,0-1.55-0.15-2.29-0.46c-2.24-0.93-3.7-3.12-3.7-5.54c0-2.76,1.88-5.21,4.57-5.87
		c2.68-0.66,5.47,0.55,6.75,3c0.45,0.86,0.7,1.85,0.7,2.82c0,1.59-0.64,3.17-1.77,4.29C248.56,242.13,247.03,242.74,245.47,242.74z
		 M241.23,232.49l4.18,4.18L241.23,232.49z"/>
	<path class="st0" d="M238.88,379.89h-50.16c-9.26,0-15.18-3-21.45-6.18c-7.81-3.96-16.66-8.45-36.39-10.01H112.4
		c-5.53,0-10.75-2.16-14.67-6.07c-3.93-3.93-6.09-9.14-6.09-14.69v-30.36c0-39.29,27.97-73.1,66.51-80.41
		c1.59-0.3,3.23,0.05,4.56,0.98s2.22,2.35,2.48,3.95c3.49,21.29,21.71,36.75,43.33,36.75h12c19.59,0,36.36-12.66,41.95-30.86
		c-1.98-0.17-3.97-0.25-5.95-0.25h-11.05c-3.31,0-6-2.69-6-6s2.69-6,6-6h11.05c4.8,0,9.62,0.42,14.32,1.25
		c3.23,0.57,5.4,3.62,4.88,6.86c-4.36,27.23-27.58,47-55.21,47h-12c-25.37,0-47.06-16.72-53.79-40.57
		c-29.93,8.29-51.09,35.72-51.09,67.3v30.36c0,2.34,0.91,4.54,2.56,6.2c1.66,1.65,3.86,2.56,6.2,2.56h18.72
		c0.16,0,0.31,0.01,0.46,0.02c22.26,1.73,33.16,7.26,41.12,11.3c5.8,2.94,9.63,4.89,16.02,4.89h50.13c0.11-0.01,0.23-0.01,0.34-0.01
		c6.41,0,10.25-1.95,16.07-4.9c7.94-4.03,18.81-9.54,40.94-11.28c3.28-0.26,6.19,2.21,6.45,5.51s-2.21,6.19-5.51,6.45
		c-19.76,1.55-28.63,6.05-36.46,10.02c-6.24,3.16-12.14,6.15-21.31,6.19C239.22,379.89,239.05,379.89,238.88,379.89z M238.62,367.91
		C238.62,367.91,238.61,367.91,238.62,367.91C238.61,367.91,238.62,367.91,238.62,367.91z M238.63,367.91
		C238.62,367.91,238.62,367.91,238.63,367.91C238.62,367.91,238.62,367.91,238.63,367.91z M238.75,367.9
		c-0.04,0-0.08,0.01-0.12,0.01C238.67,367.91,238.71,367.9,238.75,367.9z"/>
	<path class="st3" d="M301.13,257.22c-0.13,0-0.26,0-0.39-0.01c-3.31-0.21-5.81-3.07-5.6-6.37c2.07-32-1.32-71.67-10.36-121.3
		c-4.37-24.61-11-40.89-20.85-51.23c-10.38-10.9-25.12-16.05-46.37-16.2c-22.68,0-39.85,9.8-52.47,29.95
		c-12.74,20.35-20.19,50.76-22.13,90.37c-0.01,0.12-0.02,0.24-0.03,0.37c-2.92,26.39-3.77,45.14-2.91,64.75
		c0.15,3.31-2.42,6.11-5.73,6.26c-3.33,0.14-6.11-2.42-6.26-5.73c-0.89-20.22-0.03-39.47,2.95-66.41
		C136.36,72.93,181.05,50.1,217.6,50.1c24.43,0.18,42.41,6.7,55.01,19.93c11.56,12.13,19.18,30.37,23.98,57.38
		c9.21,50.57,12.65,91.21,10.52,124.2C306.9,254.79,304.26,257.22,301.13,257.22z"/>
	<path class="st0" d="M238.88,379.89h-50.16c-9.26,0-15.18-3-21.45-6.18c-7.81-3.96-16.66-8.45-36.39-10.01H112.4
		c-5.53,0-10.75-2.16-14.67-6.07c-3.93-3.93-6.09-9.14-6.09-14.69v-30.36c0-39.29,27.97-73.1,66.51-80.41
		c0.08-0.02,0.17-0.03,0.25-0.04c4.9-0.92,9.97-1.39,15.08-1.39h7.61c0.77-0.14,1.57-0.12,2.37,0.06c2.74,0.62,4.68,3.05,4.68,5.85
		c0,0.01,0,0.03,0,0.04c0.01,1.65-0.65,3.29-1.96,4.49c-1.15,1.04-2.59,1.56-4.03,1.56c-0.01,0-0.02,0-0.02,0h-8.63
		c-4.43,0-8.82,0.41-13.05,1.22c-0.09,0.02-0.17,0.03-0.26,0.04c-32.77,6.31-56.53,35.12-56.53,68.57v30.36
		c0,2.34,0.91,4.54,2.56,6.2c1.66,1.65,3.86,2.56,6.2,2.56h18.72c0.15,0,0.31,0.01,0.46,0.02c22.26,1.73,33.16,7.26,41.12,11.3
		c5.8,2.94,9.63,4.89,16.02,4.89h50.13c0.11-0.01,0.23-0.01,0.34-0.01c6.41,0,10.25-1.95,16.07-4.9
		c7.93-4.02,18.79-9.53,40.87-11.27c0.01,0,0.02,0,0.02,0c0.33-0.04,0.67-0.04,1-0.02h20.45c4.83,0,8.76-3.93,8.76-8.76v-30.36
		c0-33.95-24.23-62.88-57.6-68.77c-3.26-0.58-5.44-3.69-4.86-6.95c0.58-3.26,3.69-5.44,6.95-4.86c39.12,6.91,67.52,40.8,67.52,80.59
		v30.36c0,11.45-9.31,20.76-20.76,20.76h-20.69c-19.6,1.57-28.43,6.05-36.22,10c-6.24,3.16-12.14,6.15-21.31,6.19
		C239.22,379.89,239.05,379.89,238.88,379.89z M238.62,367.91C238.62,367.91,238.61,367.91,238.62,367.91
		C238.61,367.91,238.62,367.91,238.62,367.91z M238.63,367.91C238.62,367.91,238.62,367.91,238.63,367.91
		C238.62,367.91,238.62,367.91,238.63,367.91z M238.64,367.91C238.63,367.91,238.63,367.91,238.64,367.91
		C238.63,367.91,238.63,367.91,238.64,367.91z M238.75,367.9c-0.03,0-0.07,0.01-0.11,0.01C238.67,367.91,238.71,367.9,238.75,367.9z
		"/>
	<circle class="st3" cx="213.33" cy="305.31" r="8.33"/>
	<circle class="st3" cx="213.33" cy="329.43" r="8.33"/>
	<circle class="st3" cx="213.33" cy="353.55" r="8.33"/>
</g>
<path class="st4" d="M277.85,87.54"/>
</svg>
