<?xml version="1.0" encoding="utf-8"?>
<!-- Generator: Adobe Illustrator 24.1.2, SVG Export Plug-In . SVG Version: 6.00 Build 0)  -->
<svg version="1.1" id="outline" xmlns="http://www.w3.org/2000/svg" xmlns:xlink="http://www.w3.org/1999/xlink" x="0px" y="0px"
	 viewBox="0 0 430 430" style="enable-background:new 0 0 430 430;" xml:space="preserve">
<style type="text/css">
	.st0{fill:#121331;}
	.st1{fill:none;stroke:#121331;stroke-width:12;stroke-miterlimit:10;}
	.st2{fill:#08a88a;}
	.st3{fill:none;stroke:#121331;stroke-width:12;stroke-linecap:round;stroke-linejoin:round;stroke-miterlimit:10;}
	.st4{fill:none;stroke:#08a88a;stroke-width:12;stroke-linecap:round;stroke-linejoin:round;stroke-miterlimit:10;}
</style>
<g>
	<path class="st2" d="M278.71,232.36c-1.15,0-2.32-0.05-3.52-0.16c-0.7-0.06-1.38-0.25-2.01-0.54l-49.94-23.38
		c-0.99-0.46-1.83-1.19-2.44-2.1l-9.19-13.73c-1.84-2.75-1.1-6.48,1.65-8.32c2.76-1.84,6.48-1.1,8.32,1.65l8.26,12.34l47.43,22.2
		c4.9,0.27,8.69-0.8,11.54-3.26c2.93-2.53,4.4-6.14,5.12-8.87l-52.16-24.36c-1.05-0.49-1.94-1.28-2.56-2.27l-32-51.47
		c-1.75-2.82-0.88-6.51,1.94-8.26c2.81-1.75,6.51-0.88,8.26,1.94l1.62,2.61l29.44,47.34l54.68,25.54c2.2,1.03,3.57,3.28,3.45,5.71
		c-0.02,0.53-0.7,13.11-9.84,21.08C291.96,230.25,285.9,232.36,278.71,232.36z"/>
	<path class="st0" d="M204.54,92.9h-19.56c-14.92,0-27.05-12.14-27.05-27.05V48.89c0-14.92,12.14-27.05,27.05-27.05h4.8
		c14.92,0,27.05,12.14,27.05,27.05V80.6C216.84,87.38,211.32,92.9,204.54,92.9z M184.98,33.84c-8.3,0-15.05,6.75-15.05,15.05v16.95
		c0,8.3,6.75,15.05,15.05,15.05h19.56c0.15,0,0.3-0.15,0.3-0.3V48.89c0-8.3-6.75-15.05-15.05-15.05H184.98z"/>
	<path class="st0" d="M117.33,398.06c-1.57,0-3.1-0.62-4.24-1.76L74.2,357.39c-2.34-2.34-2.34-6.13-0.01-8.48l64.07-64.33l8.4-67.27
		c0.41-3.29,3.41-5.63,6.7-5.21c3.29,0.41,5.62,3.41,5.21,6.7l-8.65,69.31c-0.17,1.32-0.76,2.55-1.7,3.49l-61.29,61.54l31.01,31.02
		c2-4.79,0.56-15.08-1.22-21.24c-0.63-2.17,0.02-4.51,1.67-6.05l54.35-50.69l11.87-28.01c1.29-3.05,4.81-4.48,7.87-3.18
		c3.05,1.29,4.48,4.82,3.18,7.87l-12.37,29.18c-0.33,0.77-0.82,1.47-1.43,2.05l-52.69,49.14c1.45,6.45,3.5,19.56-1.21,27.71
		c-2.08,3.59-5.26,6-9.19,6.95C118.28,398,117.8,398.06,117.33,398.06z"/>
	<path class="st0" d="M261.67,408.16H207.8c-3.29,0-5.96-2.65-6-5.94l-0.97-92.24l-53.37-88.84c-1.71-2.84-0.79-6.53,2.05-8.23
		c2.84-1.71,6.53-0.79,8.23,2.05l54.21,90.24c0.55,0.92,0.84,1.96,0.86,3.03l0.93,87.93h43.57c-0.02-0.11-0.05-0.23-0.08-0.35
		c-1.3-4.96-10.21-11.42-16.13-14.42c-2.12-1.07-3.41-3.3-3.29-5.67l3.89-73.93l-30.72-81.62c-1.17-3.1,0.4-6.56,3.5-7.73
		c3.1-1.17,6.56,0.4,7.73,3.5l31.17,82.8c0.29,0.77,0.42,1.6,0.38,2.43L250,372.62c5.73,3.41,16.39,10.85,18.84,20.14
		c1.17,4.45,0.41,8.85-2.19,12.74C265.54,407.16,263.67,408.16,261.67,408.16z"/>
	<path class="st2" d="M216.6,224.06h-63.99c-3.31,0-6-2.69-6-6v-50.91c0-3.31,2.69-6,6-6s6,2.69,6,6v44.91h51.99v-69.7
		c0-3.54-0.7-6.97-2.07-10.2c-0.03-0.07-0.07-0.14-0.1-0.21c-1.3-2.98-3.13-5.67-5.44-7.98c-4.91-4.91-11.44-7.61-18.38-7.61
		c-6.2,0-12.19,2.21-16.88,6.22l-0.12,0.1c-2.5,2.18-6.29,1.92-8.47-0.58c-2.18-2.5-1.92-6.29,0.58-8.47l0.16-0.14
		c6.91-5.91,15.67-9.14,24.72-9.14c10.15,0,19.69,3.95,26.86,11.13c3.31,3.31,5.95,7.15,7.85,11.41c0.06,0.12,0.11,0.23,0.16,0.35
		c2.07,4.78,3.12,9.86,3.12,15.11v75.7C222.6,221.37,219.91,224.06,216.6,224.06z"/>
	<path class="st2" d="M109.45,239.05c-0.27,0-0.54-0.02-0.81-0.05c-0.56-0.08-13.77-1.97-21.43-12.11
		c-4.47-5.91-6.13-13.2-4.92-21.66c0.1-0.69,0.32-1.36,0.65-1.98l25.94-48.66c0.39-0.73,0.92-1.37,1.57-1.88l50.46-40.03
		c2.59-2.06,6.37-1.62,8.43,0.97s1.63,6.37-0.97,8.43l-49.48,39.26l-24.83,46.58c-0.51,4.78,0.39,8.63,2.74,11.73
		c2.63,3.48,6.62,5.41,9.57,6.43l26.97-50.71c0.39-0.73,0.93-1.38,1.58-1.89l40.9-32.33c2.6-2.06,6.37-1.61,8.43,0.99
		s1.61,6.37-0.99,8.43l-39.91,31.55l-28.59,53.75C113.69,237.85,111.64,239.05,109.45,239.05z"/>
</g>
</svg>
