<?xml version="1.0" encoding="utf-8"?>
<!-- Generator: Adobe Illustrator 24.1.2, SVG Export Plug-In . SVG Version: 6.00 Build 0)  -->
<svg version="1.1" id="outline" xmlns="http://www.w3.org/2000/svg" xmlns:xlink="http://www.w3.org/1999/xlink" x="0px" y="0px"
	 viewBox="0 0 430 430" style="enable-background:new 0 0 430 430;" xml:space="preserve">
<style type="text/css">
	.st0{fill:#121331;}
	.st1{fill:none;stroke:#121331;stroke-width:12;stroke-miterlimit:10;}
	.st2{fill:#08a88a;}
	.st3{fill:none;stroke:#121331;stroke-width:12;stroke-linecap:round;stroke-linejoin:round;stroke-miterlimit:10;}
	.st4{fill:none;stroke:#08a88a;stroke-width:12;stroke-linecap:round;stroke-linejoin:round;stroke-miterlimit:10;}
</style>
<g>
	<path class="st0" d="M193.72,414.69h-51.96c-2.06,0-3.97-1.05-5.07-2.79c-2.49-3.92-3.14-8.32-1.9-12.71
		c2.49-8.8,12.32-15.62,17.73-18.79l-2.99-146.04c-0.07-3.31,2.56-6.05,5.88-6.12c0.04,0,0.08,0,0.13,0c3.26,0,5.93,2.61,6,5.88
		l3.06,149.68c0.05,2.33-1.26,4.48-3.36,5.51c-5.4,2.66-13.59,8.51-14.9,13.15c-0.02,0.08-0.04,0.16-0.06,0.23h41.45l0.02-131.98
		c0-3.31,2.69-6,6-6c0,0,0,0,0,0c3.31,0,6,2.69,6,6l-0.02,137.98C199.72,412,197.03,414.69,193.72,414.69z"/>
	<path class="st0" d="M245.73,414.69h-51.96c-3.31,0-6-2.69-6-6l-0.02-137.98c0-3.31,2.69-6,6-6s6,2.69,6,6l0.02,131.98h41.45
		c-0.02-0.08-0.04-0.15-0.06-0.23c-1.3-4.64-9.5-10.49-14.9-13.16c-2.09-1.03-3.4-3.18-3.35-5.51l3.08-149.68
		c0.07-3.27,2.74-5.88,6-5.88c0.04,0,0.08,0,0.13,0c3.31,0.07,5.94,2.81,5.88,6.12l-3.01,146.04c5.4,3.17,15.24,9.99,17.73,18.79
		c1.24,4.39,0.58,8.79-1.91,12.71C249.7,413.63,247.79,414.69,245.73,414.69z"/>
	<path class="st0" d="M208.16,119.39h-17.8c-14.92,0-27.05-12.14-27.05-27.05V77.61c0-14.92,12.14-27.05,27.05-27.05h3.04
		c14.92,0,27.05,12.14,27.05,27.05v29.49C220.45,113.88,214.94,119.39,208.16,119.39z M190.36,62.55c-8.3,0-15.05,6.75-15.05,15.05
		v14.73c0,8.3,6.75,15.05,15.05,15.05h17.8c0.15,0,0.3-0.15,0.3-0.3V77.61c0-8.3-6.75-15.05-15.05-15.05H190.36z"/>
	<path class="st2" d="M231.99,240.23h-76.46c-3.31,0-6-2.68-6-6l-0.04-70.7c0-3.31,2.68-6,6-6c0,0,0,0,0,0c3.31,0,6,2.68,6,6
		l0.04,64.7h64.47v-61.14c0-3.31,2.69-6,6-6s6,2.69,6,6v67.14C237.99,237.54,235.3,240.23,231.99,240.23z"/>
	<path class="st2" d="M155.49,169.53c-1.87,0-3.72-0.87-4.89-2.51L71.26,55.97c-1.66-2.32-1.45-5.49,0.49-7.58
		c0.46-0.5,11.45-12.1,25-10.57c8.15,0.92,15.08,6.14,20.6,15.52l60.92,81.09c1.99,2.65,1.46,6.41-1.19,8.4
		c-2.65,1.99-6.41,1.46-8.4-1.19l-61.13-81.37c-0.14-0.19-0.27-0.39-0.39-0.6c-3.53-6.09-7.47-9.43-11.71-9.93
		c-4.02-0.46-8.21,1.61-11.23,3.72l76.15,106.57c1.93,2.7,1.3,6.44-1.39,8.37C157.92,169.17,156.7,169.53,155.49,169.53z"/>
	<path class="st0" d="M321.35,133.74c-2.43,0-4.71-1.48-5.62-3.89l-14.48-38.44c-1.17-3.1,0.4-6.56,3.5-7.73
		c3.1-1.17,6.56,0.4,7.73,3.5l14.48,38.44c1.17,3.1-0.4,6.56-3.5,7.73C322.77,133.62,322.05,133.74,321.35,133.74z"/>
	<path class="st0" d="M347.15,202.21c-2.43,0-4.71-1.48-5.62-3.89l-15.85-42.06c-1.17-3.1,0.4-6.56,3.5-7.73
		c3.1-1.17,6.56,0.4,7.73,3.5l15.85,42.06c1.17,3.1-0.4,6.56-3.5,7.73C348.57,202.09,347.85,202.21,347.15,202.21z"/>
	<path class="st2" d="M232.17,144.04h-58.69c-3.31,0-6-2.69-6-6s2.69-6,6-6h58.69c3.31,0,6,2.69,6,6S235.48,144.04,232.17,144.04z"
		/>
	<path class="st2" d="M295.71,178.03c-0.15,0-0.31-0.01-0.46-0.02l-63.72-4.94c-3.3-0.26-5.77-3.14-5.52-6.45s3.14-5.77,6.45-5.52
		l62.06,4.81l43.55-21.88c2.93-3.34,4.28-6.62,4.13-10.01c-0.15-3.38-1.78-6.36-3.28-8.42l-47.75,24.05
		c-1.04,0.52-2.21,0.73-3.36,0.6l-56.31-6.27c-3.29-0.37-5.67-3.33-5.3-6.63c0.37-3.29,3.35-5.67,6.63-5.3l54.54,6.08l50.26-25.31
		c2.17-1.09,4.78-0.77,6.62,0.82c0.96,0.83,9.36,8.4,9.94,19.7c0.36,7.01-2.35,13.62-8.06,19.67c-0.48,0.51-1.04,0.93-1.67,1.24
		l-46.03,23.13C297.57,177.82,296.65,178.03,295.71,178.03z"/>
	<path class="st0" d="M259.9,115.1c-2.34,0-4.56-1.38-5.53-3.67l-20.31-48.16c-0.62-1.47-0.63-3.12-0.03-4.59s1.76-2.65,3.23-3.27
		l93.96-39.63c1.47-0.62,3.12-0.63,4.59-0.03c1.47,0.6,2.65,1.76,3.27,3.23l20.31,48.16c0.62,1.47,0.63,3.12,0.03,4.59
		s-1.76,2.65-3.23,3.27l-93.96,39.63C261.47,114.95,260.68,115.1,259.9,115.1z M247.45,64.14l15.65,37.1L346,66.28l-15.65-37.1
		L247.45,64.14z"/>
</g>
</svg>
