<?xml version="1.0" encoding="utf-8"?>
<!-- Generator: Adobe Illustrator 24.1.2, SVG Export Plug-In . SVG Version: 6.00 Build 0)  -->
<svg version="1.1" id="outline" xmlns="http://www.w3.org/2000/svg" xmlns:xlink="http://www.w3.org/1999/xlink" x="0px" y="0px"
	 viewBox="0 0 430 430" style="enable-background:new 0 0 430 430;" xml:space="preserve">
<style type="text/css">
	.st0{fill:#121331;}
	.st1{fill:#08a88a;}
	.st2{fill:none;stroke:#121331;stroke-width:12;stroke-linecap:round;stroke-linejoin:round;stroke-miterlimit:10;}
	.st3{fill-opacity:0;}
	.st4{fill:#08a88a;}
</style>
<g>
	<path class="st1" d="M339.37,333.96H90.63c-3.31,0-6-2.69-6-6s2.69-6,6-6h248.74c3.31,0,6,2.69,6,6S342.68,333.96,339.37,333.96z"
		/>
	<path class="st1" d="M339.48,366.93H90.52c-3.31,0-6-2.69-6-6s2.69-6,6-6h248.96c3.31,0,6,2.69,6,6S342.79,366.93,339.48,366.93z"
		/>
	<path class="st0" d="M215,402.5c-3.31,0-6-2.69-6-6V283.09c0-3.31,2.69-6,6-6s6,2.69,6,6V396.5C221,399.81,218.31,402.5,215,402.5z
		"/>
	<path class="st0" d="M215.01,402.5h-0.31c-21.2,0-41.87-4.13-61.42-12.26l-0.12-0.05c-7.23-3.01-14.78-4.97-22.53-5.87l-27.53-3.17
		c-10.29-1.19-18.08-9.53-18.56-19.85c-0.02-0.33-0.03-0.68-0.03-1.01v-27.76c0-1.7,0.05-3.36,0.14-4.93
		c1.8-33.46,22.92-63.65,53.8-76.9c11.08-4.76,22.87-7.18,35.05-7.18h7.63c3.31,0,6,2.69,6,6s-2.69,6-6,6h-7.63
		c-10.54,0-20.74,2.09-30.32,6.2c-26.72,11.46-45,37.58-46.56,66.55c-0.08,1.36-0.12,2.78-0.12,4.25l0,27.92
		c0.01,0.08,0.01,0.16,0.01,0.23c0.18,4.44,3.53,8.03,7.95,8.54L132,372.4c8.86,1.03,17.5,3.28,25.69,6.68l0.12,0.05
		c18.16,7.56,37.28,11.37,56.89,11.37h0.3c19.6-0.04,38.72-3.89,56.79-11.46c7.89-3.3,16.2-5.47,24.69-6.45l29.04-3.36
		c4.43-0.51,7.77-4.11,7.96-8.55c0-0.08,0.01-0.15,0.01-0.23l0-0.17v-27.76c0-1.46-0.04-2.88-0.12-4.21
		c-1.53-28.29-18.41-53.36-44.06-65.46c-10.29-4.86-21.33-7.33-32.82-7.33h-7.62c-3.31,0-6-2.69-6-6s2.69-6,6-6h7.62
		c13.28,0,26.04,2.85,37.94,8.48c29.64,13.99,49.15,42.97,50.92,75.63c0.09,1.54,0.14,3.19,0.14,4.89v27.76
		c0,0.33-0.01,0.67-0.03,1.01c-0.48,10.33-8.27,18.67-18.56,19.85l-29.04,3.36c-7.38,0.85-14.59,2.74-21.45,5.61
		C256.88,398.29,236.22,402.45,215.01,402.5z"/>
	<path class="st0" d="M215,289.09c-21.98,0-39.87-17.89-39.87-39.87v-18.93c0-3.31,2.69-6,6-6s6,2.69,6,6v18.93
		c0,15.37,12.5,27.87,27.87,27.87c15.37,0,27.88-12.5,27.88-27.87v-18.94c0-3.31,2.69-6,6-6s6,2.69,6,6v18.94
		C254.88,271.2,236.99,289.09,215,289.09z"/>
	<path class="st0" d="M215,246.84c-13.4,0-26.3-4.02-37.28-11.62c-2.96-2.05-5.75-4.34-8.29-6.8c-12.3-11.88-19.4-27.83-19.99-44.92
		l-1.2-34.47c-0.12-3.31,2.48-6.09,5.79-6.21c3.32-0.14,6.09,2.48,6.21,5.79l1.2,34.47c0.48,13.96,6.28,27,16.33,36.7
		c2.08,2.01,4.37,3.88,6.79,5.57c8.96,6.2,19.5,9.48,30.45,9.48c10.95,0,21.49-3.28,30.47-9.5c14.09-9.75,22.51-25.15,23.11-42.25
		l1.2-34.47c0.12-3.31,2.89-5.9,6.21-5.79c3.31,0.12,5.9,2.89,5.79,6.21l-1.2,34.47c-0.72,20.63-11.29,39.95-28.27,51.71
		C241.3,242.82,228.4,246.84,215,246.84z"/>
	<path class="st1" d="M312.38,154.83H117.63c-3.31,0-6-2.69-6-6v-28.74c0-3.31,2.69-6,6-6h194.75c3.31,0,6,2.69,6,6v28.74
		C318.38,152.14,315.69,154.83,312.38,154.83z M123.63,142.83h182.75v-16.74H123.63V142.83z"/>
	<path class="st1" d="M285.26,126.09H144.74c-3.31,0-6-2.69-6-6v-8.24c0-33.55,23.97-61.94,57-67.52c3.27-0.56,6.36,1.65,6.91,4.92
		c0.55,3.27-1.65,6.36-4.92,6.91c-27.23,4.59-47,28.01-47,55.68v2.24h128.52v-2.24c0-27.67-19.77-51.09-47-55.68
		c-3.27-0.55-5.47-3.65-4.92-6.91c0.55-3.27,3.64-5.48,6.91-4.92c33.03,5.57,57,33.97,57,67.52v8.24
		C291.26,123.4,288.57,126.09,285.26,126.09z"/>
	<path class="st1" d="M226,126.09h-22c-3.07,0-5.65-2.32-5.97-5.38l-9-86.59c-0.18-1.69,0.37-3.38,1.51-4.64
		c1.14-1.26,2.76-1.98,4.46-1.98h40c1.7,0,3.32,0.72,4.46,1.98c1.14,1.26,1.69,2.95,1.51,4.64l-9,86.59
		C231.65,123.77,229.07,126.09,226,126.09z M209.41,114.09h11.18l7.75-74.59h-26.69L209.41,114.09z"/>
	<path class="st0" d="M188.31,322.24c-0.01,0-0.02,0-0.03,0c-1.83-0.01-3.55-0.85-4.68-2.28l-47.5-60.02
		c-2.06-2.6-1.62-6.37,0.98-8.43c2.6-2.05,6.37-1.62,8.43,0.98l42.84,54.13l21.97-27.29c2.08-2.58,5.85-2.99,8.44-0.91
		c2.58,2.08,2.99,5.86,0.91,8.44L192.98,320C191.84,321.41,190.13,322.24,188.31,322.24z"/>
	<path class="st0" d="M241.69,322.24c-0.03,0-0.06,0-0.09,0c-1.79-0.03-3.47-0.84-4.59-2.23l-26.69-33.15
		c-2.08-2.58-1.67-6.36,0.91-8.44c2.58-2.08,6.36-1.67,8.44,0.91l22.15,27.51l45.49-53.31c2.15-2.52,5.94-2.82,8.46-0.67
		c2.52,2.15,2.82,5.94,0.67,8.46l-50.19,58.81C245.11,321.47,243.44,322.24,241.69,322.24z"/>
</g>
</svg>
