<?xml version="1.0" encoding="utf-8"?>
<!-- Generator: Adobe Illustrator 24.1.2, SVG Export Plug-In . SVG Version: 6.00 Build 0)  -->
<svg version="1.1" id="Warstwa_1" xmlns="http://www.w3.org/2000/svg" xmlns:xlink="http://www.w3.org/1999/xlink" x="0px" y="0px"
	 viewBox="0 0 430 430" style="enable-background:new 0 0 430 430;" xml:space="preserve">
<style type="text/css">
	.st0{fill:#08a88a;}
	.st1{fill:#121331;}
	.st2{fill:none;}
	.st3{fill:none;stroke:#08a88a;stroke-width:12;stroke-linecap:round;stroke-linejoin:round;stroke-miterlimit:10;}
	.st4{fill:#08a88a;}
	.st5{fill:none;stroke:#121331;stroke-width:12;stroke-linecap:round;stroke-linejoin:round;stroke-miterlimit:10;}
</style>
<g>
	<path class="st0" d="M350.19,330.88h-19.12c-3.31,0-6-2.69-6-6v-20.11c0-8.5,6.91-15.41,15.41-15.41h0.3
		c8.5,0,15.41,6.91,15.41,15.41v20.11C356.19,328.19,353.51,330.88,350.19,330.88z M337.07,318.88h7.12v-14.11
		c0-1.88-1.53-3.41-3.41-3.41h-0.3c-1.88,0-3.41,1.53-3.41,3.41V318.88z"/>
	<path class="st1" d="M392.67,262.49l-5.36-9.32v-68.05c0-0.15-0.02-0.29-0.03-0.44c0.02-0.18,0.03-0.37,0.03-0.56
		c0-1.94-0.92-3.66-2.35-4.76l-25.86-46.01c-1.06-1.89-3.06-3.06-5.23-3.06h-92.95v-18.37c0-3.31-2.69-6-6-6s-6,2.69-6,6v21.88
		l-18.38,18.39c-1.12,1.13-1.76,2.65-1.76,4.24v27.67c0,0,0,0.01,0,0.01s0,0.01,0,0.01v0.99c0,1.55,0.6,3.04,1.68,4.16l18.83,19.56
		v30.1c0,1.45,0.53,2.86,1.49,3.95l5.57,6.36c0.02,0.02,0.04,0.05,0.06,0.07v59.73c0,1.59,0.63,3.12,1.76,4.24l9.41,9.41v61.55
		c0,3.31,2.69,6,6,6h26.42h0h81.23c3.31,0,6-2.69,6-6V271.48h0.22c2.14,0,4.12-1.14,5.19-3
		C393.74,266.63,393.74,264.35,392.67,262.49z M294.02,253.27l-5.3,9.22c-1.07,1.86-1.06,4.14,0.01,6c1.07,1.85,3.05,3,5.19,3h0.1
		v106.79h-14.42v-58.04c0-1.59-0.63-3.12-1.76-4.24l-9.41-9.41v-59.5c0-1.46-0.53-2.86-1.49-3.96l-1.35-1.54
		c-0.04-0.05-0.08-0.09-0.12-0.13l-4.16-4.75v-30.26c0-1.55-0.6-3.04-1.68-4.16l-11.69-12.14h46.08V253.27z M294.02,178.12h-53.23
		v-19.2l16.62-16.62h36.61V178.12z M306.02,142.3h44.34l20.14,35.82h-64.48V142.3z M375.31,190.12v42.17l-24.25-42.17H375.31z
		 M306.02,190.12h24.31l-24.31,42.28V190.12z M340.7,196.16l36.4,63.32h-72.81L340.7,196.16z M375.25,378.27h-69.23V271.48h69.23
		V378.27z"/>
	<path class="st1" d="M147.05,226.84c-3.31,0-6,2.69-6,6v16.15h-25.61V199.7c0.14-0.5,0.21-1.02,0.21-1.57s-0.08-1.07-0.21-1.57
		v-34.98c0-3.31-2.69-6-6-6s-6,2.69-6,6v30.55H82.91v-30.55c0-3.31-2.69-6-6-6s-6,2.69-6,6v2.6c-0.18,0.57-0.27,1.17-0.27,1.79
		s0.1,1.23,0.27,1.79v87.21v99.04c-0.18,0.57-0.27,1.17-0.27,1.79s0.1,1.23,0.27,1.79v25.85c0,3.31,2.69,6,6,6h70.15
		c3.31,0,6-2.69,6-6V254.99v-22.15C153.05,229.52,150.37,226.84,147.05,226.84z M82.91,204.13h20.54v44.85H93.32
		c-0.04,0-0.08-0.01-0.12-0.01s-0.08,0.01-0.12,0.01H82.91V204.13z M141.05,377.46h-6.09v-15.09c0-3.31-2.69-6-6-6s-6,2.69-6,6
		v15.09h-4.98v-15.09c0-3.31-2.69-6-6-6s-6,2.69-6,6v15.09h-4.98v-15.09c0-3.31-2.69-6-6-6s-6,2.69-6,6v15.09h-6.09v-34.52h11.36
		c0.24,0.03,0.48,0.05,0.72,0.05s0.49-0.02,0.72-0.05h15.54c0.24,0.03,0.48,0.05,0.72,0.05s0.49-0.02,0.72-0.05h15.54
		c0.24,0.03,0.48,0.05,0.72,0.05s0.49-0.02,0.72-0.05h11.37V377.46z M141.05,330.95h-6.09v-5.9c0-3.31-2.69-6-6-6s-6,2.69-6,6v5.9
		h-4.98v-5.9c0-3.31-2.69-6-6-6s-6,2.69-6,6v5.9h-4.98v-5.9c0-3.31-2.69-6-6-6s-6,2.69-6,6v5.9h-6.09v-27.13h58.15V330.95z
		 M141.05,291.81h-6.09v-6.05c0-3.31-2.69-6-6-6s-6,2.69-6,6v6.05h-4.98v-6.05c0-3.31-2.69-6-6-6s-6,2.69-6,6v6.05h-4.98v-6.05
		c0-3.31-2.69-6-6-6s-6,2.69-6,6v6.05h-6.09v-30.83h58.15V291.81z"/>
	<path class="st0" d="M117.8,160.12L99.39,87V45.73c0-3.31-2.69-6-6-6s-6,2.69-6,6V87l-18.41,73.12c-0.45,1.79-0.05,3.69,1.09,5.15
		c1.14,1.46,2.88,2.31,4.73,2.31h37.18c1.85,0,3.6-0.85,4.73-2.31C117.85,163.81,118.25,161.91,117.8,160.12z M82.5,155.58
		l10.89-43.26l10.89,43.26H82.5z"/>
	<path class="st1" d="M209.67,115.07c-4.5-5.8-17.53-13.42-35.86-3.31c-18.35-10.13-31.39-2.51-35.89,3.3l9.48,7.36l-0.07,0.08
		c0.76-0.91,7.83-8.53,22.98,1.14c1.02,0.73,2.25,1.12,3.49,1.12c0.72,0,1.43-0.14,2.13-0.41c0.01,0,0.02-0.01,0.04-0.01
		c0.21-0.08,0.41-0.17,0.6-0.28c0.04-0.02,0.08-0.05,0.12-0.07c0.12-0.07,0.24-0.12,0.36-0.2c15.3-9.9,22.44-2.19,23.2-1.28
		l-0.06-0.08L209.67,115.07z"/>
	<path class="st0" d="M58.64,306.83c-2.69,2.4-6.23,3.88-10.11,3.88c-3.31,0-6,2.69-6,6s2.69,6,6,6c3.57,0,6.98-0.7,10.11-1.96
		V306.83z"/>
	<path class="st0" d="M255.59,344.89c-1.52,6.77-7.57,11.85-14.79,11.85c-8.36,0-15.17-6.8-15.17-15.17c0-3.31-2.69-6-6-6
		s-6,2.69-6,6c0,8.36-6.8,15.17-15.17,15.17c-8.34,0-15.13-6.77-15.16-15.1c0-0.01,0-0.01,0-0.02c0-0.21-0.01-0.42-0.03-0.63
		c-0.29-3.04-2.85-5.41-5.97-5.41c-3.31,0-6,2.69-6,6c0,0.03,0,0.05,0,0.08c-0.01,5.13-2.59,9.67-6.52,12.41v13.3
		c4.98-1.68,9.31-4.75,12.54-8.76c4.98,6.18,12.61,10.14,21.15,10.14c8.55,0,16.18-3.97,21.17-10.17
		c4.98,6.19,12.62,10.17,21.17,10.17c5.45,0,10.53-1.62,14.79-4.4V344.89z"/>
	<path class="st0" d="M244.42,307.97v-18.91c-1.07-1.66-2.93-2.77-5.05-2.77c-2.49,0-4.62,1.51-5.53,3.67
		c-0.3,0.72-0.47,1.51-0.47,2.34c0,8.38-6.82,15.21-15.21,15.21c-8.38,0-15.21-6.82-15.21-15.21c0-3.31-2.69-6-6-6s-6,2.69-6,6
		c0,8.38-6.82,15.21-15.21,15.21c-4.31,0-8.2-1.81-10.97-4.71v14.39c3.36,1.49,7.07,2.32,10.97,2.32c8.57,0,16.21-3.98,21.21-10.19
		c4.99,6.21,12.64,10.19,21.21,10.19c8.57,0,16.22-3.98,21.21-10.19c1.86,2.31,4.09,4.32,6.6,5.92
		C244.97,312.96,244.42,310.5,244.42,307.97z"/>
	<path class="st0" d="M244.42,259.04c-1.47,0.47-3.03,0.73-4.65,0.73c-8.38,0-15.21-6.82-15.21-15.21c0-3.31-2.69-6-6-6s-6,2.69-6,6
		c0,8.38-6.82,15.21-15.21,15.21c-8.38,0-15.21-6.82-15.21-15.21c0-3.31-2.69-6-6-6s-6,2.69-6,6c0,4.64-2.09,8.79-5.37,11.58v13.78
		c4.49-1.75,8.4-4.64,11.37-8.34c4.99,6.21,12.64,10.19,21.21,10.19c8.57,0,16.22-3.98,21.21-10.19
		c4.99,6.21,12.64,10.19,21.21,10.19c1.59,0,3.14-0.15,4.65-0.41V259.04z"/>
</g>
</svg>
