<?xml version="1.0" encoding="utf-8"?>
<!-- Generator: Adobe Illustrator 24.0.2, SVG Export Plug-In . SVG Version: 6.00 Build 0)  -->
<svg version="1.1" xmlns="http://www.w3.org/2000/svg" xmlns:xlink="http://www.w3.org/1999/xlink" x="0px" y="0px"
	 viewBox="0 0 24 24" style="enable-background:new 0 0 24 24;" xml:space="preserve">
<style type="text/css">
	.st0{fill:none;}
	.st1{fill:#121331;}
</style>
<g id="bounding_area">
	<rect class="st0" width="24" height="24"/>
</g>
<g id="design">
	<g>
		<g>
			<path class="st1" d="M13.2,3.6v1.6c0,0.44-0.36,0.8-0.8,0.8h-0.8C10.72,6,10,5.28,10,4.4V3.6C10,2.72,10.72,2,11.6,2
				S13.2,2.72,13.2,3.6z"/>
		</g>
		<path class="st1" d="M21,19.4c0,0.41-0.34,0.75-0.75,0.75l-2.37-0.02c-0.34,0-0.63-0.22-0.72-0.54l-1.27-4.46
			c-0.04-0.11-0.13-0.18-0.24-0.18H10.7c-0.96,0-1.75-0.78-1.75-1.75v-1.7C6.49,11.53,4.5,13.54,4.5,16c0,2.48,2.02,4.5,4.5,4.5
			c2.08,0,3.87-1.4,4.35-3.41c0.1-0.4,0.51-0.64,0.9-0.55c0.41,0.1,0.66,0.5,0.56,0.9C14.17,20.13,11.78,22,9,22c-3.31,0-6-2.69-6-6
			c0-3.29,2.66-5.97,5.95-6V9.5c0-1.41,1.14-2.55,2.55-2.55s2.55,1.14,2.55,2.55v1h2.2c0.41,0,0.75,0.34,0.75,0.75
			c0,0.41-0.34,0.75-0.75,0.75H13.3c-0.41,0-0.75-0.34-0.75-0.75V9.5c0-0.58-0.47-1.05-1.05-1.05s-1.05,0.47-1.05,1.05v3.7
			c0,0.14,0.11,0.25,0.25,0.25h4.95c0.77,0,1.47,0.52,1.68,1.27l1.12,3.92l1.8,0.01C20.67,18.65,21,18.99,21,19.4z"/>
	</g>
</g>
</svg>
