<?xml version="1.0" encoding="utf-8"?>
<!-- Generator: Adobe Illustrator 24.0.2, SVG Export Plug-In . SVG Version: 6.00 Build 0)  -->
<svg version="1.1" xmlns="http://www.w3.org/2000/svg" xmlns:xlink="http://www.w3.org/1999/xlink" x="0px" y="0px"
	 viewBox="0 0 24 24" style="enable-background:new 0 0 24 24;" xml:space="preserve">
<style type="text/css">
	.st0{fill:none;}
	.st1{display:none;}
	.st2{display:inline;}
	.st3{fill:none;stroke:#CECECE;stroke-width:0.1;stroke-miterlimit:10;}
	.st4{fill:#121331;}
</style>
<g id="bounding_box">
	<rect x="0" y="0" class="st0" width="24" height="24"/>
</g>
<g id="design">
	<path class="st4" d="M20,10.5h1.25c0.41,0,0.75-0.34,0.75-0.75v-4C22,4.79,21.21,4,20.25,4H3.75C2.79,4,2,4.79,2,5.75v4
		c0,0.41,0.34,0.75,0.75,0.75H4c0.83,0,1.5,0.67,1.5,1.5c0,0.4-0.16,0.78-0.44,1.06C4.78,13.34,4.4,13.5,4,13.5H2.75
		C2.34,13.5,2,13.84,2,14.25v4C2,19.21,2.79,20,3.75,20h16.5c0.96,0,1.75-0.79,1.75-1.75v-4c0-0.41-0.34-0.75-0.75-0.75H20
		c-0.83,0-1.5-0.67-1.5-1.5c0-0.4,0.16-0.78,0.44-1.06C19.22,10.66,19.6,10.5,20,10.5z M20,15h0.5v3.25c0,0.14-0.11,0.25-0.25,0.25
		H11.5v-2.05c0-0.41-0.34-0.75-0.75-0.75S10,16.04,10,16.45v2.05H3.75c-0.14,0-0.25-0.11-0.25-0.25V15H4c0.8,0,1.55-0.31,2.12-0.88
		S7,12.8,7,12c0-1.65-1.35-3-3-3H3.5V5.75c0-0.14,0.11-0.25,0.25-0.25H10v2.05c0,0.41,0.34,0.75,0.75,0.75s0.75-0.34,0.75-0.75V5.5
		h8.75c0.14,0,0.25,0.11,0.25,0.25V9H20c-0.8,0-1.55,0.31-2.12,0.88S17,11.2,17,12C17,13.65,18.35,15,20,15z"/>
	<path class="st4" d="M10.75,14.02c-0.41,0-0.75-0.34-0.75-0.75v-2.54c0-0.41,0.34-0.75,0.75-0.75s0.75,0.34,0.75,0.75v2.54
		C11.5,13.68,11.16,14.02,10.75,14.02z"/>
</g>
</svg>
