<?xml version="1.0" encoding="utf-8"?>
<!-- Generator: Adobe Illustrator 24.1.2, SVG Export Plug-In . SVG Version: 6.00 Build 0)  -->
<svg version="1.1" id="Warstwa_1" xmlns="http://www.w3.org/2000/svg" xmlns:xlink="http://www.w3.org/1999/xlink" x="0px" y="0px"
	 viewBox="0 0 430 430" style="enable-background:new 0 0 430 430;" xml:space="preserve">
<style type="text/css">
	.st0{fill:#121331;}
	.st1{fill:#08a88a;}
	.st2{fill:none;stroke:#121331;stroke-width:12;stroke-linecap:round;stroke-linejoin:round;stroke-miterlimit:10;}
	.st3{fill:#00A689;}
</style>
<g>
	<path class="st0" d="M322.6,334.06H107.4c-31.48,0-57.1-25.62-57.1-57.1V153.04c0-31.48,25.62-57.1,57.1-57.1h215.2
		c31.48,0,57.1,25.61,57.1,57.1v123.93C379.7,308.45,354.08,334.06,322.6,334.06z M107.4,107.94c-24.87,0-45.1,20.23-45.1,45.1
		v123.93c0,24.87,20.23,45.1,45.1,45.1h215.2c24.87,0,45.1-20.23,45.1-45.1V153.04c0-24.87-20.23-45.1-45.1-45.1H107.4z"/>
	<g>
		<path class="st1" d="M198.83,215.77c4.25-4.03,6.87-9.55,6.87-15.63c0-12.32-10.78-22.35-24.03-22.35
			c-9.95,0-18.72,5.55-22.36,14.14c-1.29,3.05,0.14,6.57,3.19,7.86c3.05,1.29,6.57-0.14,7.86-3.19c1.72-4.08,6.27-6.81,11.31-6.81
			c6.64,0,12.03,4.64,12.03,10.35c0,5.71-5.4,10.36-12.03,10.36h-4.04c-3.31,0-6,2.69-6,6s2.69,6,6,6h4.04
			c0.13,0,0.26-0.01,0.39-0.01c0.02,0,0.04,0,0.07,0c7.77,0,14.33,5.11,14.33,11.16c0,6.12-6.43,11.1-14.32,11.1
			c-6.2,0-11.68-3.1-13.62-7.7c-1.29-3.05-4.81-4.48-7.86-3.19c-3.05,1.29-4.48,4.81-3.19,7.86c3.8,8.99,13.72,15.03,24.68,15.03
			c14.51,0,26.32-10.36,26.32-23.1C208.44,226.46,204.7,220.02,198.83,215.77z"/>
		<path class="st1" d="M244.57,177.83h-17.59c-3.31,0-6,2.69-6,6v64.92c0,3.31,2.69,6,6,6h17.59c21.21,0,38.46-17.25,38.46-38.46
			C283.03,195.09,265.78,177.83,244.57,177.83z M244.57,242.75h-11.59v-52.92h11.59c14.59,0,26.46,11.87,26.46,26.46
			S259.16,242.75,244.57,242.75z"/>
	</g>
</g>
</svg>
