<?xml version="1.0" encoding="utf-8"?>
<!-- Generator: Adobe Illustrator 24.1.2, SVG Export Plug-In . SVG Version: 6.00 Build 0)  -->
<svg version="1.1" id="Warstwa_1" xmlns="http://www.w3.org/2000/svg" xmlns:xlink="http://www.w3.org/1999/xlink" x="0px" y="0px"
	 viewBox="0 0 430 430" style="enable-background:new 0 0 430 430;" xml:space="preserve">
<style type="text/css">
	.st0{fill:#121331;}
	.st1{fill:#08a88a;}
	.st2{fill:none;stroke:#121331;stroke-width:12;stroke-linecap:round;stroke-linejoin:round;stroke-miterlimit:10;}
	.st3{fill:#00A689;}
</style>
<g>
	<g>
		<path class="st1" d="M121.66,77.12c-3.31,0-6,2.69-6,6v263.77c0,3.31,2.69,6,6,6s6-2.69,6-6V83.12
			C127.66,79.8,124.97,77.12,121.66,77.12z"/>
		<path class="st1" d="M308.46,77.12c-3.31,0-6,2.69-6,6v263.77c0,3.31,2.69,6,6,6s6-2.69,6-6V83.12
			C314.46,79.8,311.78,77.12,308.46,77.12z"/>
	</g>
	<path class="st0" d="M376.51,352.88h-68.05c-3.31,0-6-2.69-6-6s2.69-6,6-6h62.05V89.12h-62.05c-3.31,0-6-2.69-6-6s2.69-6,6-6h68.05
		c3.31,0,6,2.69,6,6v263.77C382.51,350.2,379.83,352.88,376.51,352.88z"/>
	<path class="st0" d="M121.66,352.88H53.49c-3.31,0-6-2.69-6-6V83.12c0-3.31,2.69-6,6-6h68.17c3.31,0,6,2.69,6,6s-2.69,6-6,6H59.49
		v251.77h62.17c3.31,0,6,2.69,6,6S124.97,352.88,121.66,352.88z"/>
	<path class="st0" d="M308.46,352.88H121.66c-3.31,0-6-2.69-6-6s2.69-6,6-6h186.81c3.31,0,6,2.69,6,6S311.78,352.88,308.46,352.88z"
		/>
	<path class="st0" d="M308.46,89.12H121.66c-3.31,0-6-2.69-6-6s2.69-6,6-6h186.81c3.31,0,6,2.69,6,6S311.78,89.12,308.46,89.12z"/>
</g>
</svg>
