<?xml version="1.0" encoding="utf-8"?>
<!-- Generator: Adobe Illustrator 24.1.2, SVG Export Plug-In . SVG Version: 6.00 Build 0)  -->
<svg version="1.1" id="Warstwa_1" xmlns="http://www.w3.org/2000/svg" xmlns:xlink="http://www.w3.org/1999/xlink" x="0px" y="0px"
	 viewBox="0 0 430 430" style="enable-background:new 0 0 430 430;" xml:space="preserve">
<style type="text/css">
	.st0{fill:#08a88a;}
	.st1{fill:#121331;}
	.st2{fill:none;}
	.st3{fill:#00A689;}
</style>
<g>
	<path class="st1" d="M215,381.12c-1.54,0-3.07-0.59-4.24-1.76L50.64,219.24c-2.34-2.34-2.34-6.14,0-8.49L210.76,50.64
		c2.34-2.34,6.14-2.34,8.49,0l160.12,160.12c2.34,2.34,2.34,6.14,0,8.49L219.24,379.36C218.07,380.53,216.54,381.12,215,381.12z
		 M63.37,215L215,366.63L366.63,215L215,63.37L63.37,215z"/>
	<g>
		<path class="st0" d="M390.04,213.53c-0.04-0.49-0.12-0.98-0.21-1.46c-0.1-0.48-0.22-0.96-0.36-1.43c-0.15-0.46-0.31-0.93-0.5-1.38
			c-0.19-0.45-0.4-0.89-0.63-1.32c-0.23-0.44-0.48-0.86-0.75-1.27c-0.27-0.4-0.57-0.8-0.87-1.18c-0.32-0.38-0.65-0.75-0.99-1.1
			c-0.35-0.34-0.72-0.68-1.1-0.99s-0.78-0.6-1.18-0.87c-0.41-0.27-0.84-0.52-1.27-0.75c-0.43-0.23-0.87-0.44-1.32-0.63
			s-0.92-0.35-1.39-0.5c-0.46-0.14-0.94-0.26-1.42-0.36c-0.48-0.09-0.97-0.17-1.46-0.21c-0.97-0.1-1.97-0.1-2.95,0
			c-0.48,0.04-0.97,0.12-1.45,0.21c-0.48,0.1-0.96,0.22-1.43,0.36c-0.46,0.15-0.93,0.31-1.38,0.5s-0.9,0.4-1.33,0.63
			s-0.85,0.48-1.26,0.75c-0.41,0.27-0.8,0.56-1.18,0.87s-0.75,0.65-1.1,0.99c-0.34,0.35-0.68,0.72-0.99,1.1s-0.6,0.78-0.87,1.18
			c-0.27,0.41-0.53,0.83-0.76,1.27c-0.22,0.43-0.44,0.87-0.62,1.32c-0.19,0.45-0.36,0.92-0.5,1.38c-0.14,0.47-0.26,0.95-0.36,1.43
			c-0.09,0.48-0.17,0.97-0.22,1.46c-0.05,0.48-0.07,0.98-0.07,1.47c0,0.49,0.02,0.99,0.07,1.48c0.05,0.48,0.13,0.97,0.22,1.45
			c0.1,0.48,0.22,0.96,0.36,1.43c0.14,0.46,0.31,0.93,0.5,1.38c0.18,0.45,0.4,0.89,0.62,1.32c0.23,0.44,0.49,0.86,0.76,1.27
			c0.27,0.4,0.56,0.8,0.87,1.18s0.65,0.75,0.99,1.1c0.35,0.34,0.72,0.68,1.1,0.99c0.38,0.31,0.77,0.6,1.18,0.87
			c0.41,0.27,0.83,0.52,1.26,0.75s0.88,0.44,1.33,0.63c0.45,0.19,0.92,0.35,1.38,0.5c0.47,0.14,0.95,0.26,1.43,0.36
			c0.48,0.09,0.97,0.17,1.45,0.22c0.49,0.04,0.99,0.07,1.48,0.07c0.49,0,0.98-0.03,1.47-0.07c0.49-0.05,0.98-0.13,1.46-0.22
			c0.48-0.1,0.96-0.22,1.42-0.36c0.47-0.15,0.94-0.31,1.39-0.5c0.45-0.19,0.89-0.4,1.32-0.63c0.43-0.23,0.86-0.48,1.27-0.75
			c0.4-0.27,0.8-0.56,1.18-0.87c0.38-0.31,0.75-0.65,1.1-0.99c0.34-0.35,0.67-0.72,0.99-1.1c0.3-0.38,0.6-0.78,0.87-1.18
			c0.27-0.41,0.52-0.83,0.75-1.27c0.23-0.43,0.44-0.87,0.63-1.32c0.19-0.45,0.35-0.92,0.5-1.38c0.14-0.47,0.26-0.95,0.36-1.43
			c0.09-0.48,0.17-0.97,0.21-1.45c0.05-0.49,0.08-0.99,0.08-1.48C390.12,214.51,390.09,214.01,390.04,213.53z"/>
		<path class="st0" d="M69.59,212.07c-0.1-0.48-0.22-0.96-0.36-1.43c-0.15-0.46-0.31-0.93-0.5-1.38c-0.19-0.45-0.4-0.89-0.63-1.32
			c-0.22-0.44-0.48-0.86-0.75-1.27c-0.27-0.4-0.56-0.8-0.87-1.18s-0.65-0.75-0.99-1.1c-0.35-0.34-0.72-0.68-1.1-0.99
			c-0.38-0.31-0.77-0.6-1.18-0.87c-0.41-0.27-0.83-0.52-1.26-0.75c-0.43-0.23-0.88-0.44-1.33-0.63c-0.45-0.19-0.92-0.35-1.38-0.5
			c-0.47-0.14-0.95-0.26-1.43-0.36c-0.48-0.09-0.97-0.17-1.45-0.21c-0.98-0.1-1.98-0.1-2.95,0c-0.49,0.04-0.98,0.12-1.46,0.21
			c-0.48,0.1-0.96,0.22-1.42,0.36c-0.47,0.15-0.94,0.31-1.39,0.5c-0.45,0.19-0.89,0.4-1.32,0.63c-0.44,0.23-0.86,0.48-1.27,0.75
			c-0.4,0.27-0.8,0.56-1.18,0.87c-0.38,0.31-0.75,0.65-1.1,0.99c-0.34,0.35-0.68,0.72-0.99,1.1s-0.6,0.78-0.87,1.18
			c-0.27,0.41-0.52,0.83-0.75,1.27c-0.23,0.43-0.44,0.87-0.63,1.32c-0.19,0.45-0.35,0.92-0.5,1.38c-0.14,0.47-0.26,0.95-0.36,1.43
			c-0.09,0.48-0.17,0.97-0.22,1.46c-0.04,0.48-0.07,0.98-0.07,1.47c0,0.49,0.03,0.99,0.07,1.48c0.05,0.48,0.13,0.97,0.22,1.45
			c0.1,0.48,0.22,0.96,0.36,1.43c0.15,0.46,0.31,0.93,0.5,1.38c0.19,0.45,0.4,0.89,0.63,1.32c0.23,0.44,0.48,0.86,0.75,1.27
			c0.27,0.4,0.56,0.8,0.87,1.18s0.65,0.75,0.99,1.1c0.35,0.34,0.72,0.68,1.1,0.99c0.38,0.31,0.78,0.6,1.18,0.87
			c0.41,0.27,0.83,0.52,1.27,0.75c0.43,0.23,0.87,0.44,1.32,0.63c0.45,0.19,0.92,0.35,1.39,0.5c0.46,0.14,0.94,0.26,1.42,0.36
			c0.48,0.09,0.97,0.17,1.46,0.22c0.48,0.04,0.98,0.07,1.47,0.07c0.49,0,0.99-0.03,1.48-0.07c0.48-0.05,0.97-0.13,1.45-0.22
			c0.48-0.1,0.96-0.22,1.43-0.36c0.46-0.15,0.93-0.31,1.38-0.5c0.45-0.19,0.9-0.4,1.33-0.63c0.43-0.23,0.85-0.48,1.26-0.75
			c0.41-0.27,0.8-0.56,1.18-0.87c0.38-0.31,0.75-0.65,1.1-0.99c0.34-0.35,0.68-0.72,0.99-1.1s0.6-0.78,0.87-1.18
			c0.27-0.41,0.53-0.83,0.75-1.27c0.23-0.43,0.44-0.87,0.63-1.32c0.19-0.45,0.35-0.92,0.5-1.38c0.14-0.47,0.26-0.95,0.36-1.43
			c0.09-0.48,0.17-0.97,0.22-1.45c0.05-0.49,0.07-0.99,0.07-1.48c0-0.49-0.02-0.99-0.07-1.47
			C69.76,213.04,69.68,212.55,69.59,212.07z"/>
		<path class="st0" d="M229.71,51.95c-0.1-0.48-0.22-0.96-0.36-1.42c-0.14-0.47-0.31-0.94-0.5-1.39c-0.19-0.45-0.4-0.89-0.63-1.32
			s-0.48-0.86-0.75-1.26c-0.27-0.41-0.56-0.81-0.87-1.19c-0.31-0.38-0.65-0.75-0.99-1.1c-0.35-0.34-0.72-0.67-1.1-0.99
			c-0.38-0.3-0.78-0.6-1.18-0.87c-0.41-0.27-0.83-0.52-1.27-0.75c-0.43-0.23-0.87-0.44-1.32-0.63c-0.45-0.19-0.92-0.35-1.38-0.5
			c-0.47-0.14-0.95-0.26-1.43-0.36c-0.48-0.09-0.97-0.17-1.45-0.21c-0.98-0.1-1.98-0.1-2.96,0c-0.48,0.04-0.97,0.12-1.45,0.21
			c-0.48,0.1-0.96,0.22-1.43,0.36c-0.46,0.15-0.93,0.31-1.38,0.5c-0.45,0.19-0.9,0.4-1.33,0.63c-0.43,0.23-0.85,0.48-1.26,0.75
			s-0.8,0.57-1.18,0.87c-0.38,0.32-0.75,0.65-1.1,0.99c-0.34,0.35-0.68,0.72-0.99,1.1c-0.31,0.38-0.6,0.78-0.87,1.19
			c-0.27,0.4-0.52,0.83-0.75,1.26s-0.44,0.87-0.63,1.32c-0.19,0.45-0.35,0.92-0.5,1.39c-0.14,0.46-0.26,0.94-0.36,1.42
			c-0.09,0.48-0.17,0.97-0.22,1.46c-0.04,0.48-0.07,0.98-0.07,1.47c0,0.49,0.03,0.99,0.07,1.48c0.05,0.48,0.13,0.97,0.22,1.45
			c0.1,0.48,0.22,0.96,0.36,1.43c0.15,0.46,0.31,0.93,0.5,1.38c0.19,0.45,0.4,0.9,0.63,1.33c0.23,0.43,0.48,0.85,0.75,1.26
			c0.27,0.41,0.56,0.8,0.87,1.18c0.31,0.38,0.65,0.75,0.99,1.1c0.35,0.34,0.72,0.68,1.1,0.99s0.77,0.6,1.18,0.87
			s0.83,0.53,1.26,0.75c0.43,0.23,0.88,0.45,1.33,0.63c0.45,0.19,0.92,0.36,1.38,0.5c0.47,0.14,0.95,0.26,1.43,0.36
			c0.48,0.09,0.97,0.17,1.45,0.22c0.49,0.05,0.99,0.07,1.48,0.07c0.49,0,0.99-0.02,1.48-0.07c0.48-0.05,0.97-0.13,1.45-0.22
			c0.48-0.1,0.96-0.22,1.43-0.36c0.46-0.14,0.93-0.31,1.38-0.5c0.45-0.18,0.89-0.4,1.32-0.63c0.44-0.22,0.86-0.48,1.27-0.75
			c0.4-0.27,0.8-0.56,1.18-0.87s0.75-0.65,1.1-0.99c0.34-0.35,0.68-0.72,0.99-1.1c0.31-0.38,0.6-0.77,0.87-1.18
			c0.27-0.41,0.52-0.83,0.75-1.26c0.23-0.43,0.44-0.88,0.63-1.33c0.19-0.45,0.36-0.92,0.5-1.38c0.14-0.47,0.26-0.95,0.36-1.43
			c0.09-0.48,0.17-0.97,0.22-1.45c0.05-0.49,0.07-0.99,0.07-1.48c0-0.49-0.02-0.99-0.07-1.47C229.88,52.92,229.8,52.43,229.71,51.95
			z"/>
		<path class="st0" d="M229.71,372.19c-0.1-0.48-0.22-0.96-0.36-1.43c-0.15-0.46-0.31-0.93-0.5-1.38c-0.19-0.45-0.4-0.9-0.63-1.33
			s-0.48-0.85-0.75-1.26c-0.27-0.41-0.56-0.8-0.87-1.18c-0.31-0.38-0.65-0.75-0.99-1.1c-0.35-0.34-0.72-0.68-1.1-0.99
			c-0.38-0.31-0.78-0.6-1.18-0.87c-0.41-0.27-0.83-0.52-1.27-0.75c-0.43-0.23-0.87-0.44-1.32-0.63c-0.45-0.19-0.92-0.35-1.38-0.5
			c-0.47-0.14-0.95-0.26-1.43-0.36c-0.48-0.09-0.97-0.17-1.45-0.22c-0.98-0.1-1.98-0.1-2.96,0c-0.48,0.05-0.97,0.13-1.45,0.22
			c-0.48,0.1-0.96,0.22-1.43,0.36c-0.46,0.15-0.93,0.31-1.38,0.5c-0.45,0.19-0.89,0.4-1.32,0.63c-0.44,0.23-0.86,0.48-1.27,0.75
			c-0.4,0.27-0.8,0.56-1.18,0.87c-0.38,0.31-0.75,0.65-1.1,0.99c-0.34,0.35-0.68,0.72-0.99,1.1s-0.6,0.77-0.87,1.18
			c-0.27,0.41-0.52,0.83-0.75,1.26s-0.44,0.88-0.63,1.33c-0.19,0.45-0.35,0.92-0.5,1.38c-0.14,0.47-0.26,0.95-0.36,1.43
			c-0.09,0.48-0.17,0.97-0.22,1.45c-0.05,0.49-0.07,0.99-0.07,1.48c0,0.49,0.02,0.98,0.07,1.47c0.05,0.49,0.13,0.98,0.22,1.46
			c0.1,0.48,0.22,0.96,0.36,1.42c0.15,0.47,0.31,0.94,0.5,1.39s0.4,0.89,0.63,1.32c0.23,0.44,0.48,0.86,0.75,1.27
			c0.27,0.4,0.56,0.8,0.87,1.18s0.65,0.75,0.99,1.1c0.35,0.34,0.72,0.68,1.1,0.99s0.78,0.6,1.18,0.87c0.41,0.27,0.83,0.52,1.27,0.75
			c0.43,0.23,0.87,0.44,1.32,0.63c0.45,0.19,0.92,0.35,1.38,0.5c0.47,0.14,0.95,0.26,1.43,0.36c0.48,0.09,0.97,0.17,1.45,0.21
			c0.49,0.05,0.99,0.08,1.48,0.08c0.49,0,0.99-0.03,1.48-0.08c0.48-0.04,0.97-0.12,1.45-0.21c0.48-0.1,0.96-0.22,1.43-0.36
			c0.46-0.15,0.93-0.31,1.38-0.5c0.45-0.19,0.89-0.4,1.32-0.63c0.44-0.23,0.86-0.48,1.27-0.75c0.4-0.27,0.8-0.56,1.18-0.87
			s0.75-0.65,1.1-0.99c0.34-0.35,0.68-0.72,0.99-1.1c0.31-0.38,0.6-0.78,0.87-1.18c0.27-0.41,0.52-0.83,0.75-1.27
			c0.23-0.43,0.44-0.87,0.63-1.32c0.19-0.45,0.35-0.92,0.5-1.39c0.14-0.46,0.26-0.94,0.36-1.42c0.09-0.48,0.17-0.97,0.22-1.46
			c0.05-0.49,0.07-0.98,0.07-1.47c0-0.49-0.02-0.99-0.07-1.48C229.88,373.16,229.8,372.67,229.71,372.19z"/>
	</g>
</g>
</svg>
