<?xml version="1.0" encoding="utf-8"?>
<!-- Generator: Adobe Illustrator 24.1.2, SVG Export Plug-In . SVG Version: 6.00 Build 0)  -->
<svg version="1.1" id="Warstwa_1" xmlns="http://www.w3.org/2000/svg" xmlns:xlink="http://www.w3.org/1999/xlink" x="0px" y="0px"
	 viewBox="0 0 430 430" style="enable-background:new 0 0 430 430;" xml:space="preserve">
<style type="text/css">
	.st0{fill:#08a88a;}
	.st1{fill:#121331;}
	.st2{fill:none;}
	.st3{fill:#00A689;}
</style>
<g>
	<path class="st1" d="M348.43,354.43H134.94c-3.31,0-6-2.69-6-6c0-3.31,2.69-6,6-6h204.63L291,221H134.94
		c-2.45,0-4.66-1.49-5.57-3.77L76,83.8c-1.23-3.08,0.27-6.57,3.34-7.8c3.08-1.23,6.57,0.27,7.8,3.34L139,209h156.06
		c2.45,0,4.66,1.49,5.57,3.77L354,346.2c0.74,1.85,0.51,3.94-0.6,5.59S350.42,354.43,348.43,354.43z"/>
	<g>
		<path class="st0" d="M96.27,78.64c-0.09-0.48-0.21-0.96-0.36-1.43c-0.14-0.46-0.3-0.93-0.49-1.38c-0.19-0.45-0.4-0.9-0.63-1.33
			c-0.23-0.43-0.48-0.85-0.75-1.26s-0.57-0.81-0.87-1.18c-0.32-0.38-0.65-0.75-1-1.1c-0.34-0.35-0.71-0.68-1.09-0.99
			c-0.38-0.31-0.78-0.6-1.19-0.87c-0.4-0.27-0.83-0.53-1.26-0.76s-0.87-0.44-1.33-0.62c-0.45-0.19-0.91-0.36-1.38-0.5
			c-0.46-0.14-0.94-0.26-1.42-0.36s-0.97-0.17-1.46-0.22c-0.98-0.1-1.97-0.1-2.95,0c-0.48,0.05-0.97,0.12-1.45,0.22
			s-0.96,0.22-1.43,0.36c-0.46,0.14-0.93,0.31-1.38,0.5c-0.45,0.18-0.9,0.39-1.33,0.62c-0.43,0.23-0.85,0.49-1.26,0.76
			c-0.41,0.27-0.81,0.56-1.18,0.87c-0.39,0.31-0.75,0.64-1.1,0.99s-0.68,0.72-0.99,1.1c-0.31,0.37-0.6,0.77-0.87,1.18
			c-0.27,0.41-0.53,0.83-0.76,1.26c-0.23,0.43-0.44,0.88-0.62,1.33c-0.19,0.45-0.36,0.92-0.5,1.38c-0.14,0.47-0.26,0.95-0.36,1.43
			s-0.17,0.97-0.22,1.45c-0.05,0.49-0.07,0.99-0.07,1.48s0.02,0.98,0.07,1.47c0.05,0.49,0.12,0.98,0.22,1.46s0.22,0.96,0.36,1.42
			c0.14,0.47,0.31,0.93,0.5,1.38c0.18,0.45,0.39,0.9,0.62,1.33s0.49,0.86,0.76,1.26c0.27,0.41,0.56,0.81,0.87,1.19
			c0.31,0.38,0.64,0.75,0.99,1.09c0.35,0.35,0.71,0.68,1.1,0.99c0.37,0.31,0.77,0.61,1.18,0.88c0.41,0.27,0.83,0.52,1.26,0.75
			c0.43,0.23,0.88,0.44,1.33,0.63c0.45,0.18,0.92,0.35,1.38,0.49c0.47,0.15,0.95,0.27,1.43,0.36c0.48,0.1,0.97,0.17,1.45,0.22
			c0.49,0.05,0.99,0.08,1.48,0.08c0.49,0,0.98-0.03,1.47-0.08c0.49-0.05,0.98-0.12,1.46-0.22c0.48-0.09,0.96-0.21,1.42-0.36
			c0.47-0.14,0.93-0.31,1.38-0.49c0.46-0.19,0.9-0.4,1.33-0.63s0.86-0.48,1.26-0.75c0.41-0.27,0.81-0.57,1.19-0.88
			c0.38-0.31,0.75-0.64,1.09-0.99c0.35-0.34,0.68-0.71,1-1.09c0.3-0.38,0.6-0.78,0.87-1.19c0.27-0.4,0.52-0.83,0.75-1.26
			s0.44-0.88,0.63-1.33s0.35-0.91,0.49-1.38c0.15-0.46,0.27-0.94,0.36-1.42c0.1-0.48,0.18-0.97,0.22-1.46
			c0.05-0.49,0.08-0.98,0.08-1.47s-0.03-0.99-0.08-1.48C96.45,79.61,96.37,79.12,96.27,78.64z"/>
		<path class="st0" d="M149.71,212.07c-0.1-0.48-0.22-0.96-0.36-1.43c-0.14-0.46-0.31-0.93-0.5-1.38c-0.18-0.45-0.39-0.89-0.62-1.32
			c-0.23-0.44-0.49-0.86-0.76-1.27c-0.27-0.4-0.56-0.8-0.87-1.18c-0.31-0.38-0.64-0.75-0.99-1.1c-0.35-0.34-0.72-0.68-1.1-0.99
			c-0.37-0.31-0.77-0.6-1.18-0.87c-0.41-0.27-0.83-0.52-1.26-0.75s-0.88-0.44-1.33-0.63c-0.45-0.19-0.92-0.35-1.38-0.5
			c-0.47-0.14-0.95-0.26-1.43-0.36c-0.48-0.09-0.97-0.17-1.45-0.21c-0.98-0.1-1.97-0.1-2.95,0c-0.49,0.04-0.98,0.12-1.46,0.21
			c-0.48,0.1-0.96,0.22-1.42,0.36c-0.47,0.15-0.93,0.31-1.38,0.5c-0.46,0.19-0.9,0.4-1.33,0.63c-0.43,0.23-0.86,0.48-1.26,0.75
			c-0.41,0.27-0.81,0.56-1.19,0.87s-0.75,0.65-1.09,0.99c-0.35,0.35-0.68,0.72-1,1.1c-0.3,0.38-0.6,0.78-0.87,1.18
			c-0.27,0.41-0.52,0.83-0.75,1.27c-0.23,0.43-0.44,0.87-0.63,1.32c-0.19,0.45-0.35,0.92-0.49,1.38c-0.15,0.47-0.27,0.95-0.36,1.43
			c-0.1,0.48-0.18,0.97-0.22,1.46c-0.05,0.48-0.08,0.98-0.08,1.47c0,0.49,0.03,0.99,0.08,1.48c0.04,0.48,0.12,0.97,0.22,1.45
			c0.09,0.48,0.21,0.96,0.36,1.43c0.14,0.46,0.3,0.93,0.49,1.38c0.19,0.45,0.4,0.89,0.63,1.32c0.23,0.44,0.48,0.86,0.75,1.27
			c0.27,0.4,0.57,0.8,0.87,1.18c0.32,0.38,0.65,0.75,1,1.1c0.34,0.34,0.71,0.68,1.09,0.99c0.38,0.31,0.78,0.6,1.19,0.87
			c0.4,0.27,0.83,0.52,1.26,0.75c0.43,0.23,0.87,0.44,1.33,0.63c0.45,0.19,0.91,0.35,1.38,0.5c0.46,0.14,0.94,0.26,1.42,0.36
			c0.48,0.09,0.97,0.17,1.46,0.22c0.49,0.04,0.98,0.07,1.47,0.07c0.49,0,0.99-0.03,1.48-0.07c0.48-0.05,0.97-0.13,1.45-0.22
			c0.48-0.1,0.96-0.22,1.43-0.36c0.46-0.15,0.93-0.31,1.38-0.5c0.45-0.19,0.9-0.4,1.33-0.63s0.85-0.48,1.26-0.75
			c0.41-0.27,0.81-0.56,1.18-0.87c0.38-0.31,0.75-0.65,1.1-0.99c0.35-0.35,0.68-0.72,0.99-1.1c0.31-0.38,0.6-0.78,0.87-1.18
			c0.27-0.41,0.53-0.83,0.76-1.27c0.23-0.43,0.44-0.87,0.62-1.32c0.19-0.45,0.36-0.92,0.5-1.38c0.14-0.47,0.26-0.95,0.36-1.43
			s0.17-0.97,0.22-1.45c0.05-0.49,0.07-0.99,0.07-1.48c0-0.49-0.02-0.99-0.07-1.47C149.88,213.04,149.81,212.55,149.71,212.07z"/>
		<path class="st0" d="M309.77,212.07c-0.1-0.48-0.22-0.96-0.36-1.43c-0.15-0.46-0.31-0.93-0.5-1.38c-0.19-0.45-0.4-0.89-0.63-1.32
			c-0.23-0.44-0.48-0.86-0.75-1.27c-0.27-0.4-0.56-0.8-0.87-1.18s-0.65-0.75-0.99-1.1c-0.35-0.34-0.72-0.68-1.1-0.99
			s-0.78-0.6-1.18-0.87c-0.41-0.27-0.83-0.52-1.27-0.75c-0.43-0.23-0.87-0.44-1.32-0.63s-0.92-0.35-1.38-0.5
			c-0.47-0.14-0.95-0.26-1.43-0.36c-0.48-0.09-0.97-0.17-1.45-0.21c-0.98-0.1-1.98-0.1-2.96,0c-0.48,0.04-0.97,0.12-1.45,0.21
			c-0.48,0.1-0.96,0.22-1.43,0.36c-0.46,0.15-0.93,0.31-1.38,0.5s-0.9,0.4-1.33,0.63c-0.43,0.23-0.85,0.48-1.26,0.75
			c-0.4,0.27-0.8,0.56-1.18,0.87s-0.75,0.65-1.1,0.99c-0.34,0.35-0.68,0.72-0.99,1.1s-0.6,0.78-0.87,1.18
			c-0.27,0.41-0.52,0.83-0.75,1.27c-0.23,0.43-0.44,0.87-0.63,1.32c-0.19,0.45-0.35,0.92-0.5,1.38c-0.14,0.47-0.26,0.95-0.36,1.43
			c-0.09,0.48-0.17,0.97-0.22,1.46c-0.04,0.48-0.07,0.98-0.07,1.47c0,0.49,0.03,0.99,0.07,1.48c0.05,0.48,0.13,0.97,0.22,1.45
			c0.1,0.48,0.22,0.96,0.36,1.43c0.15,0.46,0.31,0.93,0.5,1.38c0.19,0.45,0.4,0.89,0.63,1.32c0.23,0.44,0.48,0.86,0.75,1.27
			c0.27,0.4,0.56,0.8,0.87,1.18s0.65,0.75,0.99,1.1c0.35,0.34,0.72,0.68,1.1,0.99c0.38,0.31,0.78,0.6,1.18,0.87
			c0.41,0.27,0.83,0.52,1.26,0.75c0.43,0.23,0.88,0.44,1.33,0.63c0.45,0.19,0.92,0.35,1.38,0.5c0.47,0.14,0.95,0.26,1.43,0.36
			c0.48,0.09,0.97,0.17,1.45,0.22c0.49,0.04,0.99,0.07,1.48,0.07c0.49,0,0.99-0.03,1.48-0.07c0.48-0.05,0.97-0.13,1.45-0.22
			c0.48-0.1,0.96-0.22,1.43-0.36c0.46-0.15,0.93-0.31,1.38-0.5c0.45-0.19,0.89-0.4,1.32-0.63c0.44-0.23,0.86-0.48,1.27-0.75
			c0.4-0.27,0.8-0.56,1.18-0.87c0.38-0.31,0.75-0.65,1.1-0.99c0.34-0.35,0.68-0.72,0.99-1.1s0.6-0.78,0.87-1.18
			c0.27-0.41,0.52-0.83,0.75-1.27c0.23-0.43,0.44-0.87,0.63-1.32c0.19-0.45,0.35-0.92,0.5-1.38c0.14-0.47,0.26-0.95,0.36-1.43
			c0.09-0.48,0.17-0.97,0.21-1.45c0.05-0.49,0.08-0.99,0.08-1.48c0-0.49-0.03-0.99-0.08-1.47
			C309.94,213.04,309.86,212.55,309.77,212.07z"/>
		<path class="st0" d="M363.36,346.96c-0.05-0.49-0.12-0.98-0.22-1.46c-0.1-0.48-0.22-0.96-0.36-1.42c-0.14-0.47-0.31-0.93-0.5-1.38
			c-0.18-0.45-0.39-0.9-0.62-1.33c-0.23-0.43-0.49-0.86-0.76-1.26c-0.27-0.41-0.56-0.81-0.87-1.19s-0.65-0.75-0.99-1.09
			c-0.35-0.35-0.72-0.68-1.1-1c-0.37-0.3-0.77-0.6-1.18-0.87s-0.83-0.52-1.26-0.75c-0.43-0.23-0.88-0.44-1.33-0.63
			c-0.45-0.19-0.92-0.35-1.38-0.49c-0.47-0.15-0.95-0.27-1.43-0.36c-0.48-0.1-0.97-0.17-1.45-0.22c-0.98-0.1-1.97-0.1-2.95,0
			c-0.49,0.05-0.98,0.12-1.46,0.22c-0.48,0.09-0.95,0.21-1.42,0.36c-0.47,0.14-0.93,0.3-1.38,0.49c-0.45,0.19-0.9,0.4-1.33,0.63
			c-0.43,0.23-0.86,0.48-1.26,0.75c-0.41,0.27-0.81,0.57-1.19,0.87c-0.38,0.32-0.75,0.65-1.09,1c-0.35,0.34-0.68,0.71-0.99,1.09
			s-0.61,0.78-0.88,1.19c-0.27,0.4-0.52,0.83-0.75,1.26c-0.23,0.43-0.44,0.88-0.63,1.33c-0.18,0.45-0.35,0.91-0.49,1.38
			c-0.15,0.46-0.27,0.94-0.36,1.42c-0.1,0.48-0.17,0.97-0.22,1.46c-0.05,0.49-0.08,0.98-0.08,1.47c0,0.49,0.03,0.99,0.08,1.48
			c0.05,0.48,0.12,0.97,0.22,1.45c0.09,0.48,0.21,0.96,0.36,1.43c0.14,0.46,0.31,0.93,0.49,1.38c0.19,0.45,0.4,0.9,0.63,1.33
			c0.23,0.43,0.48,0.85,0.75,1.26s0.57,0.81,0.88,1.18c0.31,0.38,0.64,0.75,0.99,1.1c0.34,0.34,0.71,0.68,1.09,0.99
			s0.78,0.6,1.19,0.87c0.4,0.27,0.83,0.53,1.26,0.76c0.43,0.23,0.88,0.44,1.33,0.62c0.45,0.19,0.91,0.36,1.38,0.5
			c0.47,0.14,0.94,0.26,1.42,0.36c0.48,0.1,0.97,0.17,1.46,0.22c0.49,0.05,0.98,0.07,1.47,0.07c0.49,0,0.99-0.02,1.48-0.07
			c0.48-0.05,0.97-0.12,1.45-0.22c0.48-0.1,0.96-0.22,1.43-0.36c0.46-0.14,0.93-0.31,1.38-0.5c0.45-0.18,0.9-0.39,1.33-0.62
			c0.43-0.23,0.85-0.49,1.26-0.76s0.81-0.56,1.18-0.87c0.38-0.31,0.75-0.65,1.1-0.99c0.34-0.35,0.68-0.72,0.99-1.1
			c0.31-0.37,0.6-0.77,0.87-1.18s0.53-0.83,0.76-1.26c0.23-0.43,0.44-0.88,0.62-1.33c0.19-0.45,0.36-0.92,0.5-1.38
			c0.14-0.47,0.26-0.95,0.36-1.43c0.1-0.48,0.17-0.97,0.22-1.45c0.05-0.49,0.07-0.99,0.07-1.48
			C363.43,347.94,363.41,347.45,363.36,346.96z"/>
		<path class="st0" d="M149.65,345.5c-0.1-0.48-0.22-0.96-0.36-1.42c-0.15-0.47-0.31-0.93-0.5-1.38c-0.19-0.45-0.4-0.9-0.63-1.33
			c-0.23-0.43-0.48-0.86-0.75-1.26c-0.27-0.41-0.56-0.81-0.87-1.19c-0.31-0.38-0.65-0.75-0.99-1.09c-0.35-0.35-0.72-0.68-1.1-1
			c-0.38-0.3-0.78-0.6-1.18-0.87c-0.41-0.27-0.83-0.52-1.26-0.75s-0.88-0.44-1.33-0.63c-0.45-0.19-0.92-0.35-1.38-0.49
			c-0.47-0.15-0.95-0.27-1.43-0.36c-0.48-0.1-0.97-0.17-1.45-0.22c-0.98-0.1-1.98-0.1-2.95,0c-0.49,0.05-0.98,0.12-1.46,0.22
			c-0.48,0.09-0.96,0.21-1.42,0.36c-0.47,0.14-0.94,0.3-1.39,0.49c-0.45,0.19-0.89,0.4-1.32,0.63c-0.44,0.23-0.86,0.48-1.27,0.75
			c-0.4,0.27-0.8,0.57-1.18,0.87c-0.38,0.32-0.75,0.65-1.1,1c-0.34,0.34-0.68,0.71-0.99,1.09s-0.6,0.78-0.87,1.19
			c-0.27,0.4-0.52,0.83-0.75,1.26c-0.23,0.43-0.44,0.88-0.63,1.33c-0.19,0.45-0.35,0.91-0.5,1.38c-0.14,0.46-0.26,0.94-0.36,1.42
			c-0.09,0.48-0.17,0.97-0.22,1.46c-0.04,0.49-0.07,0.98-0.07,1.47c0,0.49,0.03,0.99,0.07,1.48c0.05,0.48,0.13,0.97,0.22,1.45
			c0.1,0.48,0.22,0.96,0.36,1.43c0.15,0.46,0.31,0.93,0.5,1.38c0.19,0.45,0.4,0.9,0.63,1.33c0.23,0.43,0.48,0.85,0.75,1.26
			s0.56,0.81,0.87,1.18c0.31,0.38,0.65,0.75,0.99,1.1c0.35,0.34,0.72,0.68,1.1,0.99c0.38,0.31,0.78,0.6,1.18,0.87
			c0.41,0.27,0.83,0.53,1.27,0.76c0.43,0.23,0.87,0.44,1.32,0.62c0.45,0.19,0.92,0.36,1.39,0.5c0.46,0.14,0.94,0.26,1.42,0.36
			c0.48,0.1,0.97,0.17,1.46,0.22c0.49,0.05,0.98,0.07,1.47,0.07c0.49,0,0.99-0.02,1.48-0.07c0.48-0.05,0.97-0.12,1.45-0.22
			c0.48-0.1,0.96-0.22,1.43-0.36c0.46-0.14,0.93-0.31,1.38-0.5c0.45-0.18,0.9-0.39,1.33-0.62s0.85-0.49,1.26-0.76
			c0.4-0.27,0.8-0.56,1.18-0.87s0.75-0.65,1.1-0.99c0.34-0.35,0.68-0.72,0.99-1.1c0.31-0.37,0.6-0.77,0.87-1.18s0.52-0.83,0.75-1.26
			c0.23-0.43,0.44-0.88,0.63-1.33c0.19-0.45,0.35-0.92,0.5-1.38c0.14-0.47,0.26-0.95,0.36-1.43c0.09-0.48,0.17-0.97,0.22-1.45
			c0.05-0.49,0.07-0.99,0.07-1.48c0-0.49-0.02-0.98-0.07-1.47C149.82,346.47,149.74,345.98,149.65,345.5z"/>
	</g>
</g>
</svg>
