<?xml version="1.0" encoding="utf-8"?>
<!-- Generator: Adobe Illustrator 24.1.2, SVG Export Plug-In . SVG Version: 6.00 Build 0)  -->
<svg version="1.1" id="Warstwa_1" xmlns="http://www.w3.org/2000/svg" xmlns:xlink="http://www.w3.org/1999/xlink" x="0px" y="0px"
	 viewBox="0 0 430 430" style="enable-background:new 0 0 430 430;" xml:space="preserve">
<style type="text/css">
	.st0{fill:#121331;}
	.st1{fill:#08a88a;}
	.st2{fill-opacity:0;}
	.st3{fill:none;}
</style>
<g>
	<g>
		<path class="st2" d="M310.23,151.82c0,17.02-13.79,30.81-30.81,30.81c-17.02,0-30.81-13.79-30.81-30.81s13.79-30.81,30.81-30.81
			C296.44,121.01,310.23,134.81,310.23,151.82z"/>
		<path class="st1" d="M279.43,189.07c-20.54,0-37.25-16.71-37.25-37.25s16.71-37.25,37.25-37.25s37.25,16.71,37.25,37.25
			S299.96,189.07,279.43,189.07z M279.43,127.45c-13.44,0-24.37,10.93-24.37,24.37s10.93,24.37,24.37,24.37s24.37-10.93,24.37-24.37
			S292.86,127.45,279.43,127.45z"/>
	</g>
	<g>
		<path class="st2" d="M243.32,348.06l51.81-89.57l52.37,89.65"/>
		<path class="st1" d="M347.52,354.58c-2.21,0-4.37-1.14-5.57-3.19l-46.79-80.08l-46.27,79.99c-1.78,3.08-5.72,4.13-8.8,2.35
			c-3.08-1.78-4.13-5.72-2.35-8.8l51.81-89.58c1.15-1.99,3.27-3.21,5.56-3.22c0,0,0.01,0,0.01,0c2.29,0,4.41,1.21,5.56,3.19
			l52.37,89.65c1.79,3.07,0.76,7.02-2.31,8.81C349.74,354.29,348.62,354.58,347.52,354.58z"/>
	</g>
	<g>
		<path class="st2" d="M83.89,347.76l106.18-182.58l79.43,136.46"/>
		<path class="st1" d="M83.89,354.2c-1.1,0-2.21-0.28-3.23-0.87c-3.07-1.79-4.12-5.73-2.33-8.8l106.18-182.58
			c1.15-1.98,3.27-3.2,5.57-3.2c2.29,0,4.41,1.22,5.57,3.2l79.43,136.46c1.79,3.07,0.75,7.02-2.33,8.81
			c-3.07,1.79-7.02,0.75-8.81-2.33l-73.86-126.89L89.46,350.99C88.26,353.05,86.1,354.2,83.89,354.2z"/>
	</g>
	<g>
		<path class="st2" d="M375.94,349.25H54.06V80.75h321.87V349.25z"/>
		<path class="st0" d="M375.94,355.69H54.06c-3.56,0-6.44-2.88-6.44-6.44V80.75c0-3.56,2.88-6.44,6.44-6.44h321.88
			c3.56,0,6.44,2.88,6.44,6.44v268.5C382.38,352.81,379.49,355.69,375.94,355.69z M60.5,342.81h309V87.19h-309V342.81z"/>
	</g>
</g>
</svg>
