<?xml version="1.0" encoding="utf-8"?>
<!-- Generator: Adobe Illustrator 24.1.2, SVG Export Plug-In . SVG Version: 6.00 Build 0)  -->
<svg version="1.1" id="Warstwa_3" xmlns="http://www.w3.org/2000/svg" xmlns:xlink="http://www.w3.org/1999/xlink" x="0px" y="0px"
	 viewBox="0 0 430 430" style="enable-background:new 0 0 430 430;" xml:space="preserve">
<style type="text/css">
	.st0{fill:#121331;}
	.st1{fill:#08a88a;}
	.st2{fill:none;stroke:#08a88a;stroke-width:12.25;stroke-miterlimit:14;}
	.st3{fill-opacity:0;}
	.st4{fill:#131432;}
	.st5{fill:none;}
</style>
<g>
	<path class="st0" d="M139.71,379.77c-17.97,0-32.6-14.62-32.6-32.6v-16.16c0-17.97,14.62-32.6,32.6-32.6
		c7.92,0,15.18,2.84,20.84,7.55V156.7c0-3.25,2.63-5.88,5.88-5.88s5.88,2.63,5.88,5.88v190.47
		C172.31,365.15,157.69,379.77,139.71,379.77z M139.71,310.18c-11.49,0-20.84,9.35-20.84,20.84v16.16
		c0,11.49,9.35,20.84,20.84,20.84s20.84-9.35,20.84-20.84v-16.16C160.55,319.53,151.2,310.18,139.71,310.18z"/>
	<path class="st0" d="M290.29,309.77c-17.97,0-32.6-14.62-32.6-32.6v-16.16c0-17.97,14.62-32.6,32.6-32.6
		c7.92,0,15.18,2.84,20.84,7.55V86.7c0-3.25,2.63-5.88,5.88-5.88s5.88,2.63,5.88,5.88v190.47
		C322.88,295.15,308.26,309.77,290.29,309.77z M290.29,240.18c-11.49,0-20.84,9.35-20.84,20.84v16.16
		c0,11.49,9.35,20.84,20.84,20.84s20.84-9.35,20.84-20.84v-16.16C311.12,249.53,301.78,240.18,290.29,240.18z"/>
	<path class="st1" d="M166.29,216.53c-1.14,0-2.28-0.32-3.27-0.95c-1.78-1.12-2.85-3.08-2.85-5.18v-82.64
		c0-2.36,1.36-4.52,3.49-5.53l150.59-71.65c1.9-0.9,4.13-0.77,5.9,0.35c1.78,1.12,2.85,3.08,2.85,5.18v82.64
		c0,2.36-1.36,4.52-3.49,5.53l-150.59,71.65C168.08,216.33,167.18,216.53,166.29,216.53z M172.41,131.63v69.08l138.34-65.82V65.81
		L172.41,131.63z M316.87,138.75L316.87,138.75L316.87,138.75z"/>
</g>
</svg>
