<?xml version="1.0" encoding="utf-8"?>
<!-- Generator: Adobe Illustrator 24.1.2, SVG Export Plug-In . SVG Version: 6.00 Build 0)  -->
<svg version="1.1" id="Warstwa_1" xmlns="http://www.w3.org/2000/svg" xmlns:xlink="http://www.w3.org/1999/xlink" x="0px" y="0px"
	 viewBox="0 0 430 430" style="enable-background:new 0 0 430 430;" xml:space="preserve">
<style type="text/css">
	.st0{fill:#121331;}
	.st1{fill:#08A284;}
	.st2{fill:none;stroke:#08A284;stroke-width:12;stroke-linecap:round;stroke-linejoin:round;stroke-miterlimit:10;}
	.st3{fill:none;stroke:#121331;stroke-width:12;stroke-linecap:round;stroke-linejoin:round;stroke-miterlimit:10;}
	.st4{fill:#08A688;}
	.st5{fill:#08a88a;}
	.st6{fill:#08a88a;}
</style>
<g>
	<g>
		<path class="st0" d="M237.82,163.09c12.51,0,22.69-10.18,22.69-22.69c0-10.18-13.49-32.12-17.63-38.61
			c-1.1-1.73-3.01-2.77-5.06-2.77s-3.96,1.05-5.06,2.77c-4.14,6.48-17.63,28.43-17.63,38.61
			C215.13,152.91,225.31,163.09,237.82,163.09z M237.82,116.59c5.75,9.97,10.69,20.23,10.69,23.81c0,5.89-4.79,10.69-10.69,10.69
			c-5.89,0-10.69-4.79-10.69-10.69C227.13,136.82,232.06,126.56,237.82,116.59z"/>
		<path class="st0" d="M123.95,203.68c0-14.77-21.55-49.32-25.87-56.09c-1.1-1.73-3.01-2.77-5.06-2.77s-3.96,1.05-5.06,2.77
			c-4.32,6.77-25.87,41.32-25.87,56.09c0,17.06,13.88,30.93,30.93,30.93S123.95,220.74,123.95,203.68z M74.08,203.68
			c0-7.27,10.17-26.71,18.93-41.41c8.76,14.71,18.93,34.14,18.93,41.41c0,10.44-8.49,18.93-18.93,18.93S74.08,214.12,74.08,203.68z"
			/>
		<path class="st0" d="M367.92,340.2c0-14.7-6.86-28.33-18.5-37.1v-113.7c0-15.42-12.55-27.97-27.97-27.97
			c-15.42,0-27.97,12.55-27.97,27.97v56.57c-11.78-5.03-24.55-7.66-37.45-7.66h-2.2v-11.66c16.64-12.68,26.91-32.41,27.64-53.39
			l1.36-39.06c0.12-3.31-2.48-6.09-5.79-6.21c-3.31-0.1-6.09,2.48-6.21,5.79l-1.36,39.06c-0.63,18.28-10,35.41-25.06,45.83
			c-9.74,6.74-21.16,10.3-33.04,10.3c-11.88,0-23.31-3.56-33.05-10.3c-2.57-1.77-5.05-3.8-7.35-6.02
			c-10.9-10.53-17.19-24.66-17.71-39.8l-1.5-43.01c-0.12-3.31-2.93-5.91-6.21-5.79c-3.31,0.12-5.9,2.89-5.79,6.21l1.5,43.01
			c0.63,18.26,8.22,35.32,21.37,48.02c2,1.93,4.11,3.73,6.28,5.38v11.65h-2.21c-52.56,0-95.32,42.76-95.32,95.32v29.88
			c0,11.25,8.43,20.7,19.6,21.99l29.63,3.42c8.33,0.96,16.5,3.08,24.22,6.29l0.27,0.11c21.01,8.73,43.2,13.16,65.93,13.16
			c22.85,0,45.13-4.47,66.24-13.3c7.39-3.1,15.2-5.14,23.2-6.06l21.4-2.47c3.34-0.03,6.6-0.42,9.75-1.13l0.14-0.02
			c3.07-0.37,5.97-1.34,8.6-2.89C356.58,375.37,367.92,359.09,367.92,340.2z M180.91,234.04c9.44,4.56,19.79,6.94,30.45,6.94
			c10.66,0,21.01-2.38,30.46-6.95V244c0,16.79-13.66,30.45-30.46,30.45c-16.79,0-30.45-13.66-30.45-30.45V234.04z M272.65,384.13
			c-19.63,8.21-40.35,12.37-61.61,12.37c-21.15,0-41.78-4.12-61.27-12.22l-0.27-0.11c-8.81-3.66-18.07-6.07-27.51-7.15l-29.63-3.42
			c-5.12-0.59-8.98-4.92-8.98-10.07v-29.88c0-45.94,37.38-83.32,83.32-83.32h2.68c3.06,20.42,20.72,36.12,41.98,36.12
			c21.26,0,38.92-15.71,41.99-36.12h2.68c13.03,0,25.9,3.07,37.45,8.89v43.89c-11.64,8.77-18.5,22.39-18.5,37.1
			c0,15.51,7.64,29.25,19.35,37.7C286.87,379.14,279.6,381.22,272.65,384.13z M329.6,373.69l-8.44,0.98
			c-18.87-0.16-34.18-15.55-34.18-34.46c0-11.74,5.89-22.56,15.76-28.95c0.01-0.01,0.02-0.02,0.04-0.03c0.1-0.07,0.2-0.14,0.3-0.22
			c0.06-0.05,0.13-0.09,0.19-0.14c0.07-0.06,0.14-0.12,0.21-0.19c0.08-0.07,0.16-0.14,0.24-0.21c0.03-0.03,0.06-0.07,0.1-0.1
			c0.37-0.39,0.69-0.82,0.94-1.28c0.09-0.16,0.17-0.33,0.24-0.5c0,0,0-0.01,0.01-0.01c0.13-0.31,0.23-0.63,0.31-0.96
			c0.01-0.05,0.03-0.1,0.04-0.14c0.02-0.1,0.03-0.21,0.05-0.31c0.01-0.09,0.03-0.19,0.04-0.28c0.01-0.08,0.01-0.16,0.02-0.23
			c0.01-0.12,0.02-0.25,0.02-0.37c0-0.02,0-0.03,0-0.05v-116.8c0-8.81,7.17-15.97,15.97-15.97c8.81,0,15.97,7.17,15.97,15.97v116.8
			c0,0.02,0,0.03,0,0.05c0,0.12,0.01,0.25,0.02,0.37c0.01,0.08,0.01,0.16,0.02,0.23c0.01,0.09,0.03,0.19,0.04,0.28
			c0.02,0.1,0.03,0.21,0.05,0.31c0.01,0.05,0.03,0.1,0.04,0.14c0.08,0.33,0.18,0.66,0.31,0.96c0,0,0,0.01,0.01,0.01
			c0.07,0.17,0.15,0.34,0.24,0.5c0.25,0.46,0.57,0.89,0.94,1.28c0.03,0.03,0.06,0.07,0.1,0.1c0.07,0.07,0.16,0.14,0.24,0.21
			c0.07,0.06,0.14,0.13,0.21,0.19c0.06,0.05,0.13,0.09,0.19,0.14c0.1,0.07,0.2,0.15,0.3,0.22c0.01,0.01,0.02,0.02,0.04,0.03
			c9.87,6.39,15.76,17.21,15.76,28.95C355.92,356.4,344.68,370.02,329.6,373.69z"/>
	</g>
	<g>
		<path class="st5" d="M328.95,326.27V220.62c0-4.14-3.36-7.5-7.5-7.5s-7.5,3.36-7.5,7.5v105.61c-4.51,2.59-7.55,7.44-7.55,13.01
			c0,8.28,6.72,15,15,15h0.09c8.28,0,14.95-6.72,14.95-15C336.45,333.7,333.42,328.87,328.95,326.27z"/>
		<path class="st5" d="M254.55,30.11c-0.05-0.02-0.11-0.03-0.16-0.04c-25.09-6.08-50.37,2.68-63.2,8.43c-3,1.34-6.5,1-9.15-0.89
			L165,25.46c-4.39-3.26-9.78-4.57-15.17-3.69c-5.43,0.88-10.14,3.86-13.27,8.38c-4.3,6.22-11.95,19.48-14.79,38.48
			c-5.08,33.82,13.92,58.81,18.7,64.48c1.05,1.98,3.16,3.32,5.56,3.2c39.9-1.66,75.04-24.97,93.35-61.41
			c21.55,17.23,24.97,32.38,28.57,48.34c0.92,4.08,1.87,8.29,3.13,12.49c0.66,2.18,2.49,3.8,4.73,4.19
			c0.34,0.06,0.68,0.09,1.02,0.09c1.89,0,3.7-0.9,4.84-2.46c17.6-24.03,13.22-69.12,1.8-86.63
			C273.32,35.36,255.31,30.31,254.55,30.11z M278.64,116.2c-3.94-16.76-10.08-35.47-38.11-55.44c-1.48-1.06-3.36-1.38-5.11-0.89
			c-1.75,0.49-3.18,1.75-3.89,3.42c-14.93,35.08-46.5,58.15-82.89,60.85c-4.89-6.24-19.03-26.98-15.01-53.73
			c1.82-12.13,6.48-24.31,12.79-33.43c1.26-1.82,3.16-3.02,5.34-3.37c0.44-0.07,0.88-0.11,1.32-0.11c1.72,0,3.39,0.55,4.8,1.61
			c0.04,0.03,0.07,0.05,0.11,0.08l17.09,12.19c6.09,4.35,14.15,5.15,21.02,2.07c11.42-5.12,33.77-12.93,55.35-7.75
			c1.06,0.31,14.63,4.52,21.97,15.77C280.89,68.94,284.44,95.91,278.64,116.2z"/>
	</g>
</g>
</svg>
