<?xml version="1.0" encoding="utf-8"?>
<!-- Generator: Adobe Illustrator 24.1.2, SVG Export Plug-In . SVG Version: 6.00 Build 0)  -->
<svg version="1.1" id="Warstwa_1" xmlns="http://www.w3.org/2000/svg" xmlns:xlink="http://www.w3.org/1999/xlink" x="0px" y="0px"
	 viewBox="0 0 430 430" style="enable-background:new 0 0 430 430;" xml:space="preserve">
<style type="text/css">
	.st0{fill:#121331;}
	.st1{fill:#08a88a;}
	.st2{fill:none;stroke:#121331;stroke-width:12;stroke-linecap:round;stroke-linejoin:round;stroke-miterlimit:10;}
	.st3{fill:#00A689;}
</style>
<g>
	<path class="st1" d="M268.37,75.57c-3.31,0-6,2.69-6,6V209H54.88c-3.31,0-6,2.69-6,6s2.69,6,6,6h100.75v127.43c0,3.31,2.69,6,6,6
		s6-2.69,6-6V221h94.75v127.43c0,3.31,2.69,6,6,6s6-2.69,6-6V81.57C274.37,78.25,271.69,75.57,268.37,75.57z"/>
	<path class="st0" d="M375.12,354.43H54.88c-3.31,0-6-2.69-6-6V81.57c0-3.31,2.69-6,6-6h320.24c3.31,0,6,2.69,6,6v266.87
		C381.12,351.75,378.43,354.43,375.12,354.43z M60.88,342.43h308.24V87.57H60.88V342.43z"/>
</g>
</svg>
