<?xml version="1.0" encoding="utf-8"?>
<!-- Generator: Adobe Illustrator 24.1.2, SVG Export Plug-In . SVG Version: 6.00 Build 0)  -->
<svg version="1.1" id="Warstwa_3" xmlns="http://www.w3.org/2000/svg" xmlns:xlink="http://www.w3.org/1999/xlink" x="0px" y="0px"
	 viewBox="0 0 430 430" style="enable-background:new 0 0 430 430;" xml:space="preserve">
<style type="text/css">
	.st0{fill:#121331;}
	.st1{fill:#08a88a;}
	.st2{fill:none;stroke:#08a88a;stroke-width:12.25;stroke-miterlimit:14;}
	.st3{fill-opacity:0;}
	.st4{fill:#131432;}
	.st5{fill:none;}
</style>
<g>
	<path class="st0" d="M129.51,161.65c-3.59,0-6.49-2.91-6.49-6.49v-35.78c0-48.67,39.59-88.26,88.26-88.26h6.76
		c48.67,0,88.26,39.59,88.26,88.26v34.96c0,3.59-2.91,6.49-6.49,6.49c-3.59,0-6.49-2.91-6.49-6.49v-34.96
		c0-41.51-33.77-75.28-75.28-75.28h-6.76c-41.51,0-75.28,33.77-75.28,75.28v35.78C136,158.75,133.09,161.65,129.51,161.65z"/>
	<path class="st0" d="M336.25,398.89H93.75c-3.59,0-6.49-2.91-6.49-6.49c0-43.31,21.67-83.31,57.98-107.02
		c15.97-10.43,34.17-9.21,51.76-8.04c5.87,0.39,11.95,0.8,18,0.8s12.13-0.41,18-0.8c17.59-1.17,35.79-2.39,51.76,8.04
		c36.3,23.71,57.98,63.72,57.98,107.02C342.74,395.98,339.83,398.89,336.25,398.89z M100.43,385.9h229.15
		c-2.04-36.38-21.12-69.55-51.91-89.66c-12.34-8.06-26.92-7.08-43.8-5.96c-6.09,0.41-12.38,0.83-18.86,0.83s-12.78-0.42-18.86-0.83
		c-16.88-1.13-31.46-2.1-43.79,5.96C121.54,316.35,102.46,349.52,100.43,385.9z"/>
	<path class="st1" d="M214.98,287.92c-44.85,0-81.92-33.98-86.85-77.56h-4.15c-15.52,0-28.14-12.62-28.14-28.14
		c0-15.51,12.62-28.14,28.14-28.14h9.57c3.88-0.39,61.82-7.13,101.17-62.1c1.48-2.07,4.03-3.08,6.52-2.59
		c0.25,0.05,0.52,0.12,0.77,0.2c13.03,4.2,25.08,11.57,34.83,21.33c16.51,16.51,25.6,38.48,25.6,61.85v27.71
		C302.43,248.69,263.2,287.92,214.98,287.92z M140.85,166.2c-0.19,2.17-0.28,4.37-0.28,6.57v27.71c0,41.06,33.38,74.47,74.42,74.47
		c41.06,0,74.47-33.41,74.47-74.47v-27.71c0-19.91-7.74-38.62-21.8-52.67c-7.21-7.21-15.88-12.89-25.29-16.6
		C206.14,151.23,158.17,163.3,140.85,166.2z M123.98,167.07c-8.36,0-15.15,6.8-15.15,15.15c0,8.36,6.8,15.15,15.15,15.15h3.6v-24.61
		c0-1.9,0.06-3.8,0.18-5.69H123.98z"/>
	<path class="st1" d="M305.82,210.36h-9.86c-3.59,0-6.49-2.91-6.49-6.49s2.91-6.49,6.49-6.49h9.86c8.36,0,15.15-6.8,15.15-15.15
		c0-8.35-6.8-15.15-15.15-15.15h-9.86c-3.59,0-6.49-2.91-6.49-6.49s2.91-6.49,6.49-6.49h9.86c15.52,0,28.14,12.62,28.14,28.14
		C333.96,197.74,321.33,210.36,305.82,210.36z"/>
</g>
</svg>
