<?xml version="1.0" encoding="utf-8"?>
<!-- Generator: Adobe Illustrator 25.0.1, SVG Export Plug-In . SVG Version: 6.00 Build 0)  -->
<svg version="1.1" id="Layer_1" xmlns="http://www.w3.org/2000/svg" xmlns:xlink="http://www.w3.org/1999/xlink" x="0px" y="0px"
	 viewBox="0 0 430 430" style="enable-background:new 0 0 430 430;" xml:space="preserve">
<style type="text/css">
	.st0{fill:#121331;}
	.st1{fill:#08a88a;}
</style>
<g>
	<path class="st0" d="M314,374.66H116c-3.31,0-6-2.69-6-6V145.94c0-3.31,2.69-6,6-6h77.88c3.31,0,6,2.69,6,6s-2.69,6-6,6H122v210.72
		h186V151.94h-71.4c-3.31,0-6-2.69-6-6s2.69-6,6-6H314c3.31,0,6,2.69,6,6v222.72C320,371.97,317.31,374.66,314,374.66z"/>
	<path class="st1" d="M268.76,119.66c-1.51,0-3.02-0.56-4.18-1.7l-49.54-48.21l-48.61,48.17c-2.35,2.33-6.15,2.32-8.48-0.04
		c-2.33-2.35-2.32-6.15,0.04-8.48l52.8-52.32c2.32-2.3,6.06-2.32,8.41-0.04l53.76,52.32c2.38,2.31,2.43,6.11,0.12,8.48
		C271.88,119.05,270.32,119.66,268.76,119.66z"/>
	<path class="st1" d="M215,270.38c-3.31,0-6-2.69-6-6V61.34c0-3.31,2.69-6,6-6s6,2.69,6,6v203.04
		C221,267.69,218.31,270.38,215,270.38z"/>
</g>
</svg>
