<?xml version="1.0" encoding="utf-8"?>
<!-- Generator: Adobe Illustrator 25.0.1, SVG Export Plug-In . SVG Version: 6.00 Build 0)  -->
<svg version="1.1" id="Layer_1" xmlns="http://www.w3.org/2000/svg" xmlns:xlink="http://www.w3.org/1999/xlink" x="0px" y="0px"
	 viewBox="0 0 430 430" style="enable-background:new 0 0 430 430;" xml:space="preserve">
<style type="text/css">
	.st0{fill:#121331;}
	.st1{fill:#08a88a;}
</style>
<path class="st0" d="M183,373.4c-1.5,0-3-0.6-4.1-1.7l-79.2-75.8c-1.2-1.1-1.9-2.7-1.9-4.3v-229c0-3.3,2.7-6,6-6H263
	c3.3,0,6,2.7,6,6v69.7c0,3.3-2.7,6-6,6s-6-2.7-6-6V68.6H109.8V289l73.2,70L257,289V258c0-3.3,2.7-6,6-6s6,2.7,6,6v33.6
	c0,1.6-0.7,3.2-1.9,4.4l-79.9,75.8C186,372.8,184.5,373.4,183,373.4z"/>
<path class="st0" d="M262.2,109H106c-3.3,0-6-2.7-6-6s2.7-6,6-6h156.2c3.3,0,6,2.7,6,6S265.6,109,262.2,109z"/>
<path class="st1" d="M263.3,264.4c-37.9,0-68.8-30.9-68.8-68.8c0-37.9,30.9-68.8,68.8-68.8s68.8,30.9,68.8,68.8
	C332.2,233.5,301.3,264.4,263.3,264.4z M263.3,138.7c-31.3,0-56.8,25.5-56.8,56.8s25.5,56.8,56.8,56.8c31.3,0,56.8-25.5,56.8-56.8
	S294.7,138.7,263.3,138.7z"/>
<g>
	<path class="st1" d="M263.3,237.5c-3.3,0-6-2.7-6-6v-72c0-3.3,2.7-6,6-6s6,2.7,6,6v72C269.3,234.8,266.6,237.5,263.3,237.5z"/>
	<path class="st1" d="M299.3,201.5h-72c-3.3,0-6-2.7-6-6s2.7-6,6-6h72c3.3,0,6,2.7,6,6S302.6,201.5,299.3,201.5z"/>
</g>
</svg>
