<?xml version="1.0" encoding="utf-8"?>
<!-- Generator: Adobe Illustrator 24.1.2, SVG Export Plug-In . SVG Version: 6.00 Build 0)  -->
<svg version="1.1" id="Warstwa_3" xmlns="http://www.w3.org/2000/svg" xmlns:xlink="http://www.w3.org/1999/xlink" x="0px" y="0px"
	 viewBox="0 0 430 430" style="enable-background:new 0 0 430 430;" xml:space="preserve">
<style type="text/css">
	.st0{fill:#08a88a;}
	.st1{fill:#121331;}
	.st2{fill:none;}
	.st3{fill:#08a88a;fill-opacity:0;}
</style>
<g>
	<path class="st1" d="M215,391.41c-97.27,0-176.41-79.14-176.41-176.41S117.73,38.59,215,38.59S391.41,117.73,391.41,215
		S312.27,391.41,215,391.41z M215,50.49c-90.71,0-164.51,73.8-164.51,164.51S124.29,379.51,215,379.51S379.51,305.71,379.51,215
		S305.71,50.49,215,50.49z M215,333.35c-65.26,0-118.35-53.09-118.35-118.35c0-65.26,53.09-118.35,118.35-118.35
		S333.35,149.74,333.35,215C333.35,280.26,280.26,333.35,215,333.35z M215,108.55c-58.7,0-106.45,47.75-106.45,106.45
		c0,58.7,47.75,106.45,106.45,106.45S321.45,273.7,321.45,215C321.45,156.3,273.7,108.55,215,108.55z"/>
	<path class="st0" d="M214.87,391.82c-22.94,0-45.33-4.38-66.58-13.03c-3.22-1.31-4.77-4.99-3.46-8.21l21.88-53.79
		c0.63-1.55,1.85-2.78,3.39-3.43s3.27-0.66,4.82-0.03c12.96,5.27,26.65,7.88,40.65,7.82c14-0.08,27.64-2.89,40.55-8.33
		c3.21-1.35,6.9,0.15,8.25,3.36l22.56,53.5c0.65,1.54,0.66,3.27,0.03,4.82c-0.63,1.55-1.85,2.78-3.39,3.43
		c-21.5,9.06-44.23,13.74-67.56,13.88C215.64,391.82,215.25,391.82,214.87,391.82z M158.92,369.39c18.3,6.65,37.45,9.93,57.02,9.83
		c19.57-0.12,38.67-3.67,56.9-10.55l-17.69-41.93c-12.68,4.58-25.94,6.94-39.5,7.02c-13.57,0.12-26.85-2.11-39.58-6.52
		L158.92,369.39z M57.87,287.43c-0.81,0-1.61-0.15-2.37-0.46c-1.55-0.63-2.78-1.85-3.43-3.39c-9.06-21.5-13.73-44.23-13.88-67.56
		c-0.15-23.34,4.23-46.13,13.02-67.73c1.31-3.22,4.99-4.77,8.21-3.46l53.79,21.88c1.55,0.63,2.78,1.85,3.43,3.39
		c0.65,1.54,0.66,3.27,0.03,4.82c-5.27,12.96-7.9,26.63-7.82,40.65c0.09,14,2.89,27.64,8.33,40.55c1.35,3.21-0.15,6.9-3.36,8.25
		l-53.5,22.56C59.53,287.27,58.7,287.43,57.87,287.43z M60.61,158.92c-6.65,18.3-9.95,37.45-9.83,57.02
		c0.12,19.57,3.67,38.68,10.56,56.9l41.93-17.69c-4.58-12.68-6.94-25.94-7.02-39.5c-0.08-13.57,2.11-26.85,6.52-39.58L60.61,158.92z
		 M372.96,285.64c-0.79,0-1.59-0.15-2.37-0.47l-53.79-21.88c-1.55-0.63-2.78-1.85-3.43-3.39c-0.65-1.54-0.66-3.27-0.03-4.82
		c5.27-12.96,7.9-26.63,7.82-40.65c-0.09-14-2.89-27.64-8.33-40.55c-1.35-3.21,0.15-6.9,3.36-8.25l53.5-22.56
		c1.54-0.65,3.27-0.66,4.82-0.03c1.55,0.63,2.78,1.85,3.43,3.39c9.06,21.5,13.73,44.23,13.88,67.56
		c0.15,23.34-4.23,46.13-13.02,67.73C377.8,284.16,375.45,285.64,372.96,285.64z M327.23,253.93l42.16,17.15
		c6.65-18.3,9.95-37.45,9.83-57.02c-0.12-19.57-3.67-38.67-10.56-56.9l-41.93,17.69c4.58,12.68,6.94,25.94,7.02,39.5
		C333.84,227.92,331.65,241.2,327.23,253.93z M171.43,117.67c-2.46,0-4.79-1.45-5.81-3.85l-22.56-53.5
		c-0.65-1.54-0.66-3.27-0.03-4.82c0.63-1.55,1.85-2.78,3.39-3.43c21.5-9.06,44.23-13.73,67.56-13.88
		c23.37-0.15,46.13,4.23,67.73,13.02c3.22,1.31,4.77,4.99,3.46,8.21l-21.88,53.79c-0.63,1.55-1.85,2.78-3.39,3.43
		c-1.54,0.65-3.27,0.66-4.82,0.03c-12.96-5.27-26.66-7.92-40.65-7.82c-14,0.09-27.64,2.89-40.55,8.33
		C173.08,117.51,172.25,117.67,171.43,117.67z M157.17,61.33l17.69,41.93c12.68-4.58,25.94-6.94,39.5-7.02
		c13.58-0.1,26.85,2.11,39.58,6.52l17.15-42.16c-18.3-6.65-37.45-9.94-57.02-9.83C194.5,50.9,175.39,54.45,157.17,61.33z"/>
</g>
</svg>
