<?xml version="1.0" encoding="utf-8"?>
<!-- Generator: Adobe Illustrator 24.0.2, SVG Export Plug-In . SVG Version: 6.00 Build 0)  -->
<svg version="1.1" xmlns="http://www.w3.org/2000/svg" xmlns:xlink="http://www.w3.org/1999/xlink" x="0px" y="0px"
	 viewBox="0 0 24 24" style="enable-background:new 0 0 24 24;" xml:space="preserve">
<style type="text/css">
	.st0{fill:none;}
	.st1{fill:#121331;}
</style>
<g id="bounding_area">
	<rect class="st0" width="24" height="24"/>
</g>
<g id="design">
	<g>
		<path class="st1" d="M20.25,20H3.75C2.79,20,2,19.21,2,18.25V5.75C2,4.79,2.79,4,3.75,4h16.5C21.21,4,22,4.79,22,5.75v12.5
			C22,19.21,21.21,20,20.25,20z M3.75,5.5C3.61,5.5,3.5,5.61,3.5,5.75v12.5c0,0.14,0.11,0.25,0.25,0.25h16.5
			c0.14,0,0.25-0.11,0.25-0.25V5.75c0-0.14-0.11-0.25-0.25-0.25H3.75z"/>
		<path class="st1" d="M5.75,12C5.34,12,5,11.66,5,11.25v-3.5C5,7.34,5.34,7,5.75,7h3.5C9.67,7,10,7.34,10,7.75S9.67,8.5,9.25,8.5
			H6.5v2.75C6.5,11.66,6.17,12,5.75,12z"/>
		<path class="st1" d="M18.25,17h-3.5C14.33,17,14,16.67,14,16.25s0.34-0.75,0.75-0.75h2.75v-2.75c0-0.41,0.34-0.75,0.75-0.75
			S19,12.34,19,12.75v3.5C19,16.67,18.66,17,18.25,17z"/>
	</g>
</g>
</svg>
