<?xml version="1.0" encoding="utf-8"?>
<!-- Generator: Adobe Illustrator 24.0.2, SVG Export Plug-In . SVG Version: 6.00 Build 0)  -->
<svg version="1.1" xmlns="http://www.w3.org/2000/svg" xmlns:xlink="http://www.w3.org/1999/xlink" x="0px" y="0px"
	 viewBox="0 0 24 24" style="enable-background:new 0 0 24 24;" xml:space="preserve">
<style type="text/css">
	.st0{fill:none;}
	.st1{fill:#121331;}
</style>
<g id="bounding_area">
	<rect class="st0" width="24" height="24"/>
</g>
<g id="design">
	<g>
		<path class="st1" d="M19.25,16H4.75C3.79,16,3,15.21,3,14.25v-4.5C3,8.78,3.79,8,4.75,8h14.5C20.22,8,21,8.78,21,9.75v4.5
			C21,15.21,20.22,16,19.25,16z M4.75,9.5C4.62,9.5,4.5,9.61,4.5,9.75v4.5c0,0.14,0.11,0.25,0.25,0.25h14.5
			c0.14,0,0.25-0.11,0.25-0.25v-4.5c0-0.14-0.11-0.25-0.25-0.25H4.75z"/>
		<path class="st1" d="M20.25,20H3.75C3.34,20,3,19.66,3,19.25s0.34-0.75,0.75-0.75h16.5c0.41,0,0.75,0.34,0.75,0.75
			S20.66,20,20.25,20z"/>
		<path class="st1" d="M20.25,5.51H3.75C3.34,5.51,3,5.17,3,4.76s0.34-0.75,0.75-0.75h16.5c0.41,0,0.75,0.34,0.75,0.75
			S20.66,5.51,20.25,5.51z"/>
	</g>
</g>
</svg>
