<?xml version="1.0" encoding="utf-8"?>
<!-- Generator: Adobe Illustrator 24.1.2, SVG Export Plug-In . SVG Version: 6.00 Build 0)  -->
<svg version="1.1" id="Warstwa_3" xmlns="http://www.w3.org/2000/svg" xmlns:xlink="http://www.w3.org/1999/xlink" x="0px" y="0px"
	 viewBox="0 0 430 430" style="enable-background:new 0 0 430 430;" xml:space="preserve">
<style type="text/css">
	.st0{fill:#121331;}
	.st1{fill:#08a88a;}
	.st2{fill:none;stroke:#08a88a;stroke-width:12.25;stroke-miterlimit:14;}
	.st3{fill-opacity:0;}
	.st4{fill:#131432;}
	.st5{fill:none;}
</style>
<g>
	<path class="st0" d="M310.97,354.62H250.3c-1.95,0-3.79-0.88-5.02-2.39c-1.23-1.51-1.71-3.5-1.32-5.41l27.62-132.7h-38.15
		c-3.58,0-6.48-2.9-6.48-6.47V81.85c0-3.58,2.9-6.47,6.48-6.47h125.74c3.58,0,6.48,2.9,6.48,6.47v125.8c0,0.71-0.12,1.42-0.35,2.1
		L317.1,350.25C316.2,352.86,313.74,354.62,310.97,354.62z M258.27,341.67h48.08l46.36-135.1V88.33H239.91v112.85h39.63
		c1.95,0,3.79,0.88,5.02,2.39c1.23,1.51,1.71,3.5,1.32,5.41L258.27,341.67z M359.18,207.65L359.18,207.65L359.18,207.65z"/>
	<path class="st0" d="M148.36,354.62H87.69c-1.95,0-3.79-0.88-5.02-2.39c-1.23-1.51-1.71-3.5-1.32-5.41l27.62-132.7H70.82
		c-3.58,0-6.48-2.9-6.48-6.47V81.85c0-3.58,2.9-6.47,6.48-6.47h125.74c3.58,0,6.48,2.9,6.48,6.47v125.8c0,0.71-0.12,1.42-0.35,2.1
		l-48.21,140.49C153.58,352.86,151.12,354.62,148.36,354.62z M95.65,341.67h48.08l46.36-135.1V88.33H77.3v112.85h39.63
		c1.95,0,3.79,0.88,5.02,2.39c1.23,1.51,1.71,3.5,1.32,5.41L95.65,341.67z M196.56,207.65L196.56,207.65L196.56,207.65z"/>
</g>
</svg>
