<?xml version="1.0" encoding="utf-8"?>
<!-- Generator: Adobe Illustrator 24.1.2, SVG Export Plug-In . SVG Version: 6.00 Build 0)  -->
<svg version="1.1" id="Warstwa_3" xmlns="http://www.w3.org/2000/svg" xmlns:xlink="http://www.w3.org/1999/xlink" x="0px" y="0px"
	 viewBox="0 0 430 430" style="enable-background:new 0 0 430 430;" xml:space="preserve">
<style type="text/css">
	.st0{fill:#121331;}
	.st1{fill:#08a88a;}
	.st2{fill:none;stroke:#08a88a;stroke-width:12.25;stroke-miterlimit:14;}
	.st3{fill-opacity:0;}
	.st4{fill:#131432;}
	.st5{fill:none;}
</style>
<g>
	<path class="st0" d="M215,389.16c-46.52,0-90.25-18.12-123.15-51.01C58.96,305.25,40.84,261.52,40.84,215s18.12-90.25,51.01-123.15
		C124.75,58.96,168.48,40.84,215,40.84s90.25,18.12,123.15,51.01c32.89,32.89,51.01,76.63,51.01,123.15s-18.12,90.25-51.01,123.15
		l0,0l0,0C305.25,371.04,261.52,389.16,215,389.16z M215,52.17c-43.49,0-84.39,16.94-115.14,47.69S52.17,171.51,52.17,215
		s16.94,84.39,47.69,115.14s71.65,47.69,115.14,47.69s84.39-16.94,115.14-47.69l0,0c30.76-30.76,47.69-71.65,47.69-115.14
		s-16.94-84.39-47.69-115.14S258.49,52.17,215,52.17z"/>
	<path class="st1" d="M215,217.43c-3.13,0-5.66-2.53-5.66-5.66V95.97c0-3.13,2.53-5.66,5.66-5.66s5.66,2.53,5.66,5.66v115.79
		C220.66,214.89,218.13,217.43,215,217.43z"/>
	<path class="st1" d="M215,220.66c-1.45,0-2.9-0.55-4-1.66c-2.21-2.21-2.21-5.79,0-8.01l60.22-60.22c2.21-2.21,5.79-2.21,8.01,0
		s2.21,5.79,0,8.01L219,219C217.9,220.11,216.45,220.66,215,220.66z"/>
</g>
</svg>
