<?xml version="1.0" encoding="utf-8"?>
<!-- Generator: Adobe Illustrator 24.1.2, SVG Export Plug-In . SVG Version: 6.00 Build 0)  -->
<svg version="1.1" id="Warstwa_1" xmlns="http://www.w3.org/2000/svg" xmlns:xlink="http://www.w3.org/1999/xlink" x="0px" y="0px"
	 viewBox="0 0 430 430" style="enable-background:new 0 0 430 430;" xml:space="preserve">
<style type="text/css">
	.st0{fill:#121331;}
	.st1{fill:#08a88a;}
	.st2{fill:#08a88a;}
	.st3{fill:#08A688;}
	.st4{fill:#08A284;}
	.st5{fill:none;stroke:#121331;stroke-width:12;stroke-linecap:round;stroke-linejoin:round;stroke-miterlimit:10;}
	.st6{fill:none;stroke:#08a88a;stroke-width:12;stroke-linecap:round;stroke-linejoin:round;stroke-miterlimit:10;}
	.st7{fill:none;}
	.st8{fill:none;stroke:#08A385;stroke-width:12;stroke-linecap:round;stroke-linejoin:round;stroke-miterlimit:10;}
	.st9{fill:#08A385;}
	.st10{fill:none;stroke:#08a88a;stroke-width:12;stroke-linecap:round;stroke-linejoin:round;stroke-miterlimit:10;}
</style>
<g>
	<path class="st0" d="M215.2,245.51c-3.3,0-5.98-2.67-6-5.97c-0.02-3.31,2.66-6.01,5.97-6.03c13.92-0.06,27.19-6.08,36.43-16.51
		c2.2-2.48,5.99-2.71,8.47-0.51c2.48,2.2,2.71,5.99,0.51,8.47c-11.5,12.98-28.03,20.47-45.35,20.55
		C215.22,245.51,215.21,245.51,215.2,245.51z"/>
	<path class="st0" d="M82.7,245.54c-33.61,0-60.95-27.34-60.95-60.95c0-13.75,4.71-27.23,13.27-37.96c2.06-2.59,5.84-3.02,8.43-0.95
		s3.02,5.84,0.95,8.43c-6.97,8.74-10.65,19.28-10.65,30.49c0,26.99,21.96,48.95,48.95,48.95c15.49,0,30.23-7.46,39.43-19.94
		c1.97-2.67,5.72-3.24,8.39-1.27c2.67,1.97,3.24,5.72,1.27,8.39C120.34,236.26,101.99,245.54,82.7,245.54z"/>
	<path class="st0" d="M164.42,212.18c-2.33,0-4.54-1.36-5.52-3.64c-3.21-7.5-4.86-15.48-4.9-23.7c-0.06-13.12,3.99-25.64,11.7-36.21
		c1.96-2.68,5.71-3.26,8.38-1.31c2.68,1.95,3.26,5.71,1.31,8.38c-6.19,8.48-9.44,18.53-9.39,29.07c0.03,6.61,1.35,13.02,3.93,19.03
		c1.31,3.05-0.11,6.57-3.15,7.88C166.01,212.03,165.21,212.18,164.42,212.18z"/>
	<path class="st1" d="M148.85,306.1c-33.61,0-60.95-27.34-60.95-60.95s27.34-60.95,60.95-60.95s60.95,27.34,60.95,60.95
		S182.46,306.1,148.85,306.1z M148.85,196.2c-26.99,0-48.95,21.96-48.95,48.95s21.96,48.95,48.95,48.95s48.95-21.96,48.95-48.95
		S175.84,196.2,148.85,196.2z"/>
	<path class="st0" d="M309.25,230.5c-1.49,0-2.99-0.55-4.15-1.67c-12.09-11.6-18.75-27.22-18.75-43.98
		c0-33.61,27.34-60.95,60.95-60.95s60.95,27.34,60.95,60.95c0,3.31-2.69,6-6,6s-6-2.69-6-6c0-26.99-21.96-48.95-48.95-48.95
		s-48.95,21.96-48.95,48.95c0,13.46,5.35,26,15.06,35.32c2.39,2.29,2.47,6.09,0.17,8.48C312.4,229.88,310.83,230.5,309.25,230.5z"/>
	<path class="st0" d="M214.94,245.51c-24.44,0-46.41-14.48-56.04-36.96c-1.31-3.05,0.11-6.57,3.15-7.88
		c3.05-1.3,6.57,0.11,7.88,3.15c7.74,18.05,25.39,29.69,45.01,29.69c0.09,0,0.17,0,0.26,0c3.3,0,5.98,2.67,6,5.97
		c0.02,3.31-2.66,6.01-5.97,6.03C215.14,245.51,215.04,245.51,214.94,245.51z"/>
	<path class="st1" d="M281.15,306.36c-33.61,0-60.95-27.34-60.95-60.95s27.34-60.95,60.95-60.95s60.95,27.34,60.95,60.95
		S314.76,306.36,281.15,306.36z M281.15,196.46c-26.99,0-48.95,21.96-48.95,48.95s21.96,48.95,48.95,48.95s48.95-21.96,48.95-48.95
		S308.14,196.46,281.15,196.46z"/>
	<path class="st0" d="M255.98,227.2c-1.42,0-2.85-0.5-4-1.53c-2.47-2.21-2.68-6-0.47-8.47c8.03-8.98,12.45-20.56,12.45-32.61
		c0-26.99-21.96-48.95-48.95-48.95c-15.48,0-30.22,7.45-39.42,19.92c-1.97,2.67-5.72,3.23-8.39,1.27c-2.67-1.97-3.23-5.72-1.27-8.39
		c11.46-15.53,29.8-24.8,49.08-24.8c33.61,0,60.95,27.34,60.95,60.95c0,15.01-5.5,29.43-15.5,40.61
		C259.26,226.53,257.62,227.2,255.98,227.2z"/>
	<path class="st0" d="M126.96,223.16c-1.24,0-2.48-0.38-3.55-1.17c-2.67-1.97-3.24-5.72-1.27-8.39c6.23-8.45,9.52-18.48,9.52-29.01
		c0-26.99-21.96-48.95-48.95-48.95c-14.99,0-28.95,6.73-38.3,18.47c-2.07,2.59-5.84,3.02-8.43,0.95c-2.59-2.07-3.02-5.84-0.95-8.43
		c11.64-14.61,29.02-22.99,47.69-22.99c33.61,0,60.95,27.34,60.95,60.95c0,13.11-4.1,25.6-11.86,36.13
		C130.62,222.31,128.8,223.16,126.96,223.16z"/>
	<path class="st0" d="M347.3,245.8c-15.81,0-30.8-6.03-42.2-16.97c-2.39-2.29-2.47-6.09-0.17-8.48c2.29-2.39,6.09-2.47,8.48-0.17
		c9.16,8.79,21.19,13.63,33.89,13.63c26.99,0,48.95-21.96,48.95-48.95c0-3.31,2.69-6,6-6s6,2.69,6,6
		C408.25,218.46,380.91,245.8,347.3,245.8z"/>
</g>
</svg>
