<?xml version="1.0" encoding="utf-8"?>
<!-- Generator: Adobe Illustrator 24.1.2, SVG Export Plug-In . SVG Version: 6.00 Build 0)  -->
<svg version="1.1" id="Warstwa_1" xmlns="http://www.w3.org/2000/svg" xmlns:xlink="http://www.w3.org/1999/xlink" x="0px" y="0px"
	 viewBox="0 0 430 430" style="enable-background:new 0 0 430 430;" xml:space="preserve">
<style type="text/css">
	.st0{fill:#121331;}
	.st1{fill:#08a88a;}
	.st2{fill:#08a88a;}
	.st3{fill:#08A688;}
	.st4{fill:#08A284;}
	.st5{fill:none;stroke:#121331;stroke-width:12;stroke-linecap:round;stroke-linejoin:round;stroke-miterlimit:10;}
	.st6{fill:none;stroke:#08a88a;stroke-width:12;stroke-linecap:round;stroke-linejoin:round;stroke-miterlimit:10;}
	.st7{fill:none;}
	.st8{fill:none;stroke:#08A385;stroke-width:12;stroke-linecap:round;stroke-linejoin:round;stroke-miterlimit:10;}
	.st9{fill:#08A385;}
	.st10{fill:none;stroke:#08a88a;stroke-width:12;stroke-linecap:round;stroke-linejoin:round;stroke-miterlimit:10;}
</style>
<g>
	<path class="st0" d="M239.45,92.85c-1.29,0-2.59-0.2-3.88-0.63l-14.02-4.67l0,0c-14.15-4.71-21.83-20.06-17.12-34.22l3.46-10.37
		c4.72-14.15,20.06-21.83,34.22-17.12c6.85,2.28,12.4,7.1,15.64,13.58c3.24,6.48,3.77,13.81,1.49,20.64l-8.12,24.37
		C249.41,89.59,244.6,92.85,239.45,92.85z M225.35,76.17l14.02,4.67c0.14,0.04,0.33-0.05,0.38-0.19l8.12-24.37
		c1.26-3.79,0.96-7.87-0.84-11.48c-1.81-3.61-4.89-6.29-8.68-7.56c-7.89-2.63-16.43,1.64-19.06,9.52l-3.46,10.37
		C213.2,65,217.47,73.55,225.35,76.17L225.35,76.17z"/>
	<path class="st0" d="M379.85,403.38c0.01-0.01,0.02-0.03,0.03-0.04c0.11-0.13,0.2-0.26,0.3-0.4c0.02-0.02,0.03-0.05,0.05-0.07
		c0.09-0.13,0.17-0.26,0.24-0.4c0.02-0.04,0.04-0.07,0.06-0.11c0.07-0.13,0.13-0.26,0.19-0.39c0.02-0.05,0.04-0.09,0.06-0.14
		c0.06-0.14,0.11-0.27,0.15-0.41c0.01-0.04,0.03-0.09,0.04-0.13c0.05-0.16,0.09-0.32,0.12-0.48c0.01-0.03,0.01-0.05,0.02-0.08
		c0.23-1.11,0.14-2.3-0.32-3.43c-0.02-0.04-0.03-0.08-0.04-0.11c-0.01-0.02-0.01-0.04-0.02-0.05l-79.58-182.08
		c-1.33-3.04-4.87-4.42-7.9-3.1c-3.04,1.33-4.42,4.86-3.09,7.9l71.84,164.36c-17.21-10.1-47.09-25.16-85.27-34.53
		c-15.79-3.87-31.53-6.39-47.13-7.56c0.03-0.33,0.06-0.65,0.07-0.98c0.17-8.37-6.35-16.92-10.39-21.41l22.78-52.65
		c0.1-0.22,0.18-0.45,0.25-0.68c0.2-0.68,1.9-6.86-0.52-13.53l-16.45-47.79c-1.08-3.13-4.49-4.8-7.63-3.72
		c-3.13,1.08-4.8,4.49-3.72,7.63l16.46,47.84c0.01,0.04,0.03,0.07,0.04,0.11c0.92,2.51,0.51,5.08,0.35,5.84l-24.18,55.87
		c-1,2.32-0.44,5.03,1.4,6.76c3.95,3.71,9.43,10.78,9.59,15.18c-9.05-2.76-26.42-8.06-35.68-10.88l25.87-67.58
		c0.65-1.69,0.5-3.59-0.42-5.16l-22.21-38.23c-0.03-0.04-0.06-0.08-0.08-0.13c-0.06-0.09-0.12-0.19-0.18-0.28
		c-0.05-0.07-0.1-0.15-0.16-0.22c-0.06-0.08-0.13-0.16-0.2-0.24c-0.06-0.07-0.12-0.14-0.19-0.21c-0.07-0.07-0.14-0.14-0.21-0.21
		c-0.07-0.07-0.15-0.14-0.22-0.21c-0.07-0.06-0.14-0.12-0.21-0.18c-0.08-0.07-0.17-0.13-0.26-0.19c-0.07-0.05-0.14-0.1-0.22-0.15
		c-0.1-0.06-0.19-0.12-0.29-0.18c-0.07-0.04-0.14-0.08-0.21-0.12c-0.11-0.06-0.22-0.11-0.33-0.16c-0.04-0.02-0.08-0.04-0.12-0.06
		c-0.03-0.01-0.07-0.02-0.1-0.04c-0.11-0.04-0.22-0.08-0.33-0.12c-0.08-0.03-0.17-0.06-0.25-0.08c-0.1-0.03-0.19-0.05-0.29-0.07
		c-0.1-0.02-0.2-0.05-0.3-0.06c-0.09-0.02-0.17-0.03-0.26-0.04c-0.11-0.01-0.21-0.03-0.32-0.04c-0.09-0.01-0.18-0.01-0.26-0.01
		c-0.1,0-0.21-0.01-0.31-0.01c-0.1,0-0.2,0.01-0.29,0.02c-0.09,0.01-0.18,0.01-0.28,0.02c-0.11,0.01-0.21,0.03-0.32,0.05
		c-0.08,0.01-0.16,0.03-0.24,0.04c-0.11,0.02-0.22,0.05-0.33,0.08c-0.08,0.02-0.16,0.04-0.24,0.07c-0.1,0.03-0.2,0.07-0.3,0.11
		c-0.09,0.03-0.17,0.06-0.26,0.1c-0.09,0.04-0.18,0.08-0.26,0.12c-0.1,0.05-0.19,0.09-0.28,0.15c-0.03,0.02-0.07,0.03-0.11,0.05
		c-0.04,0.02-0.08,0.05-0.12,0.08c-0.1,0.06-0.19,0.12-0.28,0.18c-0.07,0.05-0.15,0.1-0.22,0.16c-0.08,0.06-0.17,0.13-0.25,0.2
		c-0.07,0.06-0.14,0.12-0.21,0.19c-0.07,0.07-0.14,0.14-0.21,0.21c-0.07,0.07-0.14,0.15-0.21,0.22c-0.06,0.07-0.12,0.14-0.18,0.21
		c-0.07,0.08-0.13,0.17-0.19,0.25c-0.05,0.07-0.1,0.15-0.15,0.22c-0.06,0.09-0.12,0.19-0.17,0.28c-0.04,0.07-0.08,0.15-0.12,0.22
		c-0.05,0.1-0.1,0.21-0.15,0.31c-0.02,0.04-0.04,0.08-0.06,0.13l-45.39,108.24c-0.94,2.24-0.43,4.83,1.28,6.56
		c3.65,3.66,8.89,10.93,8.95,15.29l-35.25-12.13l53.24-150.99c1.1-3.13-0.54-6.55-3.66-7.65c-3.13-1.1-6.55,0.54-7.65,3.66
		L90.8,339.09c-0.53,1.51-0.44,3.17,0.26,4.61c0.7,1.44,1.94,2.54,3.45,3.06l28.16,9.69c-19.92,7.15-39.28,16.82-57.96,28.95
		l50.97-191.96c0.85-3.2-1.06-6.49-4.26-7.34c-3.21-0.85-6.49,1.06-7.34,4.26L48.97,397.94c-0.47,1.7-0.19,3.59,0.93,5.12
		c0.05,0.06,0.1,0.12,0.15,0.18c0.08,0.1,0.16,0.2,0.25,0.3c0.07,0.08,0.15,0.15,0.22,0.23c0.08,0.08,0.16,0.16,0.25,0.23
		c0.08,0.07,0.16,0.14,0.25,0.21c0.09,0.07,0.18,0.14,0.27,0.2c0.09,0.06,0.17,0.12,0.26,0.18c0.11,0.07,0.22,0.13,0.33,0.19
		c0.14,0.08,0.28,0.15,0.43,0.21c0.12,0.05,0.24,0.11,0.37,0.16c0.1,0.04,0.2,0.07,0.3,0.1c0.09,0.03,0.17,0.06,0.26,0.08
		c0.02,0.01,0.04,0.01,0.06,0.01c0.18,0.05,0.36,0.08,0.54,0.11c0.07,0.01,0.14,0.03,0.2,0.04c0.21,0.03,0.41,0.04,0.62,0.04
		c0.04,0,0.08,0.01,0.11,0.01c0.06,0,0.13-0.01,0.19-0.02c0,0,0.01,0,0.01,0c0.1,0,0.19,0.01,0.29,0.01h319.98c0.01,0,0.02,0,0.03,0
		c0.53,0,1.07-0.08,1.59-0.22c0.06-0.02,0.13-0.03,0.19-0.05c0.09-0.03,0.17-0.06,0.26-0.09c0.1-0.04,0.21-0.07,0.31-0.12
		c0.01-0.01,0.03-0.01,0.04-0.02c0.09-0.04,0.18-0.09,0.27-0.14c0.07-0.03,0.14-0.07,0.21-0.1c0.13-0.07,0.25-0.15,0.38-0.23
		c0.04-0.02,0.07-0.04,0.11-0.07c0.14-0.1,0.27-0.2,0.4-0.3c0.02-0.01,0.03-0.03,0.05-0.04c0.14-0.11,0.27-0.23,0.39-0.36
		c0.01-0.01,0.02-0.02,0.03-0.03C379.62,403.64,379.74,403.51,379.85,403.38z M354.04,393.53H74.28
		c21.78-13.81,44.29-24.1,67.47-30.81c0.06,0,0.13,0.02,0.19,0.02c1.13,0,2.24-0.34,3.21-0.96c23.84-6.53,48.38-9.31,73.54-8.34
		c0.01,0,0.02,0.01,0.03,0.01c0.57,0.17,1.16,0.26,1.75,0.26c0.41,0,0.82-0.06,1.23-0.14c16.98,0.86,34.23,3.4,51.75,7.67
		C308.77,369.85,337.14,383.83,354.04,393.53z M141.68,328.79l39.25-93.6l14.71,25.32l-27.15,70.91c-0.59,1.55-0.52,3.29,0.21,4.78
		c0.73,1.5,2.05,2.62,3.64,3.1c0,0,4.66,1.42,11.06,3.37c-3.81,0.38-7.61,0.84-11.39,1.39c-6.96,1.02-13.87,2.33-20.73,3.93
		C150.56,340.43,145.15,332.9,141.68,328.79z"/>
	<path class="st2" d="M308.43,197.49l-35.74-14.05l-0.78-32.28c-0.19-16.42-3.16-34.51-23.8-44.17
		c-9.38-4.39-19.15-8.28-29.02-11.57c-0.01,0-0.03-0.01-0.04-0.01c-0.01,0-0.01,0-0.02-0.01c-9.83-3.28-19.98-6.02-30.16-8.14
		c-21.06-4.39-34.64,6.6-48.58,24.49l-53.38,69.47c-1.92,2.49-1.58,6.04,0.76,8.13c0.42,0.37,9.73,8.55,21.72,8.55
		c0.81,0,1.63-0.04,2.47-0.12c7.85-0.75,14.73-4.94,20.44-12.43l22.39-28.96l-8.68,26.09c-1.04,3.14,0.65,6.54,3.8,7.59l67.96,22.64
		c0.62,0.21,1.26,0.31,1.9,0.31c0.92,0,1.84-0.21,2.68-0.63c1.42-0.71,2.5-1.96,3.01-3.47l8.4-25.21l0.11,12.8
		c-0.02,0.22-0.04,0.44-0.04,0.67c0,0.27,0.02,0.54,0.05,0.81l0.04,0.34c0,0,0,0.01,0,0.01c0,0,0,0,0,0c0,0,0,0.01,0,0.01
		c0,0,0,0,0,0c0,0,0,0.01,0,0.01c0,0,0,0,0,0c0,0,0,0.01,0,0.01c0,0,0,0,0,0c0,0.02,0.01,0.04,0.01,0.06
		c1.39,9.09,9.14,14.22,13.55,15.84l24.9,9.6c4.46,1.72,8.72,2.58,12.74,2.58c4.07,0,7.91-0.89,11.47-2.65
		c11.44-5.69,15.25-18.54,15.4-19.08C312.86,201.76,311.31,198.62,308.43,197.49z M291.26,213.07c-3.93,1.95-8.82,1.83-14.54-0.38
		l-25.01-9.64c-0.05-0.02-4.95-1.95-5.83-6.07l-0.41-49.24c0-0.02,0-0.03,0-0.05l0-0.13c0-0.03,0-0.06-0.01-0.09
		c0-0.16-0.01-0.31-0.03-0.46c-0.01-0.06-0.01-0.11-0.02-0.17c-0.02-0.14-0.04-0.27-0.06-0.4c-0.01-0.07-0.03-0.14-0.05-0.21
		c-0.03-0.11-0.06-0.23-0.09-0.34c-0.02-0.08-0.05-0.16-0.08-0.24c-0.04-0.1-0.07-0.2-0.11-0.3c-0.03-0.08-0.07-0.16-0.11-0.24
		c-0.04-0.1-0.09-0.19-0.14-0.29c-0.04-0.07-0.08-0.14-0.12-0.21c-0.06-0.1-0.12-0.2-0.18-0.3c-0.04-0.06-0.08-0.11-0.12-0.17
		c-0.07-0.1-0.15-0.21-0.23-0.31c-0.04-0.04-0.07-0.09-0.11-0.13c-0.09-0.11-0.18-0.21-0.28-0.31c-0.03-0.03-0.07-0.07-0.1-0.1
		c-0.1-0.1-0.21-0.2-0.32-0.29c-0.04-0.03-0.07-0.06-0.11-0.09c-0.11-0.09-0.23-0.18-0.35-0.26c-0.05-0.03-0.09-0.06-0.14-0.09
		c-0.11-0.07-0.22-0.14-0.34-0.2c-0.07-0.04-0.14-0.07-0.21-0.11c-0.1-0.05-0.2-0.1-0.31-0.15c-0.09-0.04-0.18-0.07-0.28-0.11
		c-0.07-0.03-0.14-0.06-0.21-0.08c-0.02-0.01-0.04-0.01-0.06-0.02c-0.09-0.03-0.19-0.05-0.29-0.08c-0.1-0.03-0.2-0.06-0.3-0.08
		c-0.07-0.01-0.14-0.02-0.21-0.04c-0.13-0.02-0.27-0.05-0.4-0.06c-0.04,0-0.07,0-0.11-0.01c-0.17-0.01-0.34-0.02-0.5-0.03
		c-0.01,0-0.01,0-0.02,0c-0.02,0-0.03,0-0.05,0c-0.03,0-0.06,0-0.1,0.01c-0.15,0-0.31,0.01-0.46,0.03
		c-0.06,0.01-0.12,0.01-0.17,0.02c-0.13,0.02-0.27,0.04-0.4,0.06c-0.08,0.02-0.15,0.03-0.22,0.05c-0.11,0.03-0.22,0.05-0.33,0.09
		c-0.09,0.03-0.17,0.06-0.26,0.08c-0.1,0.03-0.19,0.07-0.28,0.11c-0.09,0.04-0.17,0.07-0.26,0.11c-0.09,0.04-0.18,0.08-0.26,0.13
		c-0.08,0.04-0.16,0.09-0.24,0.14c-0.09,0.05-0.18,0.11-0.26,0.16c-0.07,0.05-0.14,0.1-0.21,0.15c-0.09,0.06-0.18,0.13-0.26,0.2
		c-0.06,0.05-0.12,0.1-0.18,0.15c-0.09,0.08-0.17,0.15-0.26,0.24c-0.05,0.05-0.11,0.11-0.16,0.16c-0.08,0.08-0.16,0.17-0.23,0.26
		c-0.05,0.06-0.1,0.13-0.16,0.2c-0.06,0.08-0.13,0.17-0.19,0.26c-0.06,0.08-0.11,0.17-0.16,0.25c-0.05,0.07-0.09,0.15-0.13,0.22
		c-0.06,0.11-0.12,0.22-0.17,0.34c-0.03,0.06-0.06,0.11-0.08,0.17c-0.06,0.14-0.12,0.28-0.17,0.43c-0.01,0.03-0.02,0.06-0.03,0.09
		l-0.04,0.12c-0.01,0.02-0.01,0.03-0.02,0.05l-17.84,53.56l-56.58-18.85l17.87-53.75c0.96-2.88-0.4-5.97-3.05-7.27
		c-0.02-0.01-0.04-0.02-0.07-0.03c-0.11-0.05-0.22-0.1-0.33-0.14c-0.1-0.04-0.2-0.08-0.3-0.12c-0.02-0.01-0.03-0.01-0.05-0.02
		c-0.03-0.01-0.06-0.02-0.1-0.03c-0.16-0.05-0.32-0.1-0.48-0.13c-0.01,0-0.02,0-0.03-0.01c-2.2-0.5-4.6,0.27-6.07,2.18l-43.9,56.79
		c-3.65,4.79-7.58,7.34-12,7.78c-3.92,0.4-7.68-0.94-10.46-2.38l49.46-64.37c13.72-17.61,23.31-22.86,36.64-20.09
		c9.73,2.03,19.42,4.64,28.81,7.78c0.02,0.01,0.03,0.01,0.05,0.01c0.01,0,0.01,0,0.02,0.01c9.43,3.14,18.76,6.86,27.72,11.05
		c12.1,5.66,16.67,14.73,16.89,33.51l0.88,36.34c0.06,2.41,1.56,4.56,3.8,5.44l33.57,13.19
		C296.69,208.76,294.44,211.48,291.26,213.07z"/>
</g>
</svg>
