<?xml version="1.0" encoding="utf-8"?>
<!-- Generator: Adobe Illustrator 24.1.2, SVG Export Plug-In . SVG Version: 6.00 Build 0)  -->
<svg version="1.1" id="Warstwa_1" xmlns="http://www.w3.org/2000/svg" xmlns:xlink="http://www.w3.org/1999/xlink" x="0px" y="0px"
	 viewBox="0 0 430 430" style="enable-background:new 0 0 430 430;" xml:space="preserve">
<style type="text/css">
	.st0{fill:#121331;}
	.st1{fill:#08a88a;}
	.st2{fill:#08a88a;}
	.st3{fill:#08A688;}
	.st4{fill:#08A284;}
	.st5{fill:none;stroke:#121331;stroke-width:12;stroke-linecap:round;stroke-linejoin:round;stroke-miterlimit:10;}
	.st6{fill:none;stroke:#08a88a;stroke-width:12;stroke-linecap:round;stroke-linejoin:round;stroke-miterlimit:10;}
	.st7{fill:none;}
	.st8{fill:none;stroke:#08A385;stroke-width:12;stroke-linecap:round;stroke-linejoin:round;stroke-miterlimit:10;}
	.st9{fill:#08A385;}
	.st10{fill:none;stroke:#08a88a;stroke-width:12;stroke-linecap:round;stroke-linejoin:round;stroke-miterlimit:10;}
</style>
<g>
	<path class="st3" d="M237.92,205.73c-0.75,0-1.51-0.14-2.25-0.44c-3.07-1.24-4.56-4.74-3.31-7.81L290.9,52.63
		c1.24-3.07,4.74-4.56,7.81-3.31c3.07,1.24,4.56,4.74,3.31,7.81l-58.54,144.85C242.54,204.32,240.29,205.73,237.92,205.73z"/>
	<path class="st3" d="M200.17,226.53c-2.37,0-4.62-1.42-5.56-3.75L127.66,57.13c-1.24-3.07,0.24-6.57,3.31-7.81
		c3.08-1.24,6.57,0.24,7.81,3.31l66.94,165.65c1.24,3.07-0.24,6.57-3.31,7.81C201.67,226.39,200.91,226.53,200.17,226.53z"/>
	<path class="st0" d="M346.12,49.32c-3.07-1.24-6.57,0.24-7.81,3.31l-72.05,178c-3.95-3.05-8.18-5.76-12.64-8.08l-32.15-79.43
		l34.81-85.99c1.24-3.07-0.24-6.57-3.31-7.81c-3.07-1.24-6.57,0.24-7.81,3.31L215,127.13l-30.15-74.5
		c-1.24-3.07-4.74-4.56-7.81-3.31c-3.07,1.24-4.55,4.74-3.31,7.81l64.46,159.26c-7.37-2.12-15.14-3.28-23.18-3.28
		c-19.29,0-37.07,6.55-51.26,17.52l-72.05-178c-1.24-3.07-4.74-4.56-7.81-3.31c-3.07,1.24-4.55,4.74-3.31,7.81l73.69,182.05
		c-14.39,15.08-23.26,35.49-23.26,57.93c0,46.32,37.68,84.01,84.01,84.01s84.01-37.68,84.01-84.01c0-22.45-8.87-42.85-23.26-57.93
		l73.69-182.05C350.67,54.06,349.19,50.56,346.12,49.32z M215,369.12c-39.7,0-72.01-32.3-72.01-72.01s32.3-72,72.01-72
		s72.01,32.3,72.01,72S254.7,369.12,215,369.12z"/>
	<path class="st0" d="M215.17,356.4h-0.1c-3.31,0-6-2.69-6-6s2.69-6,6-6s6.05,2.69,6.05,6S218.48,356.4,215.17,356.4z
		 M188.51,349.36c-1.03,0-2.08-0.27-3.03-0.83l3.03-5.18l-3.06,5.16c-2.86-1.66-3.86-5.32-2.21-8.19c1.64-2.86,5.27-3.88,8.14-2.25
		c0.03,0.01,0.14,0.08,0.16,0.09c2.86,1.68,3.82,5.35,2.14,8.21C192.58,348.3,190.57,349.36,188.51,349.36z M241.69,349.24
		c-2.09,0-4.12-1.09-5.23-3.04c-1.63-2.88-0.62-6.54,2.26-8.18c2.87-1.63,6.55-0.66,8.2,2.2c1.65,2.86,0.72,6.48-2.12,8.15
		c-0.03,0.02-0.14,0.08-0.16,0.09C243.71,348.99,242.69,349.24,241.69,349.24z M168.9,329.9c-2.04,0-4.02-1.04-5.13-2.93
		c-0.02-0.03-0.08-0.14-0.09-0.16c-1.63-2.88-0.62-6.54,2.26-8.18c2.88-1.63,6.55-0.62,8.18,2.26c1.63,2.87,0.66,6.55-2.2,8.2
		C170.97,329.64,169.93,329.9,168.9,329.9z M261.16,329.71c-1.01,0-2.03-0.25-2.97-0.79c-2.86-1.64-3.87-5.27-2.25-8.14
		c0.01-0.03,0.08-0.14,0.09-0.16c1.67-2.86,5.35-3.82,8.21-2.14c2.86,1.68,3.82,5.35,2.14,8.21l-5.18-3.03l5.16,3.06
		C265.26,328.63,263.24,329.71,261.16,329.71z M161.72,303.29c-3.31,0-6-2.64-6-5.95v-0.1c0-0.02,0-0.04,0-0.06s0-0.04,0-0.06v-0.1
		c0-3.31,2.69-6,6-6s6,2.69,6,6c0,0.04,0,0.08,0,0.11c0,0.04,0,0.08,0,0.11C167.72,300.55,165.03,303.29,161.72,303.29z
		 M268.28,303.1c-3.31,0-6-2.69-6-6s2.69-6.05,6-6.05s6,2.64,6,5.95v0.1C274.28,300.42,271.59,303.1,268.28,303.1z M168.83,276.49
		c-1.03,0-2.08-0.27-3.03-0.83c-2.86-1.68-3.82-5.35-2.14-8.21l5.18,3.03l-5.16-3.06c1.66-2.86,5.32-3.86,8.19-2.21
		c2.86,1.64,3.87,5.27,2.25,8.14c-0.01,0.03-0.08,0.14-0.09,0.16C172.9,275.42,170.89,276.49,168.83,276.49z M261.16,276.48
		c-2.09,0-4.12-1.09-5.23-3.04c-1.63-2.87-0.66-6.55,2.2-8.2c2.86-1.65,6.48-0.72,8.15,2.12c0.02,0.03,0.08,0.14,0.09,0.16
		c1.63,2.88,0.62,6.54-2.26,8.18C263.18,276.23,262.16,276.48,261.16,276.48z M241.65,256.97c-1,0-2.01-0.25-2.94-0.78
		c-0.03-0.01-0.14-0.08-0.16-0.09c-2.86-1.68-3.82-5.35-2.14-8.21c1.67-2.86,5.35-3.82,8.21-2.14l-3.03,5.18l3.06-5.16
		c2.86,1.66,3.86,5.32,2.21,8.19C245.74,255.88,243.73,256.97,241.65,256.97z M188.38,256.94c-2.08,0-4.11-1.07-5.21-2.99
		c-1.65-2.86-0.72-6.48,2.12-8.15c0.03-0.02,0.14-0.08,0.16-0.09c2.88-1.63,6.54-0.62,8.18,2.26c1.63,2.88,0.62,6.54-2.26,8.18
		C190.43,256.68,189.4,256.94,188.38,256.94z M215.04,249.83c-3.31,0-6.05-2.69-6.05-6s2.64-6,5.95-6H215c3.31,0,6.02,2.69,6.02,6
		S218.36,249.83,215.04,249.83z"/>
	<path class="st2" d="M217.87,326.03c-3.31,0-6-2.69-6-6v-31.34l-4.22,4.22c-2.34,2.34-6.14,2.34-8.48,0
		c-2.34-2.34-2.34-6.14,0-8.48l14.46-14.46c1.71-1.72,4.3-2.23,6.54-1.3c2.24,0.93,3.7,3.12,3.7,5.54v45.83
		C223.87,323.34,221.18,326.03,217.87,326.03z"/>
</g>
</svg>
