<?xml version="1.0" encoding="utf-8"?>
<!-- Generator: Adobe Illustrator 24.1.2, SVG Export Plug-In . SVG Version: 6.00 Build 0)  -->
<svg version="1.1" id="outline" xmlns="http://www.w3.org/2000/svg" xmlns:xlink="http://www.w3.org/1999/xlink" x="0px" y="0px"
	 viewBox="0 0 430 430" style="enable-background:new 0 0 430 430;" xml:space="preserve">
<style type="text/css">
	.st0{fill:#121331;}
	.st1{fill:#08a88a;}
	.st2{fill:none;stroke:#121331;stroke-width:12;stroke-linecap:round;stroke-linejoin:round;stroke-miterlimit:10;}
	.st3{fill-opacity:0;}
	.st4{fill:#08a88a;}
</style>
<g>
	<g>
		<path class="st0" d="M269.34,224.61c-3.95,0-7.84-1.9-10.21-5.41l-11.38-16.86l0,0c-8.35-12.36-5.08-29.21,7.28-37.56l14.87-10.04
			c12.36-8.35,29.21-5.08,37.56,7.28l3.13,4.63c8.35,12.36,5.08,29.21-7.28,37.56l-27.1,18.3
			C274.1,223.93,271.71,224.61,269.34,224.61z M257.69,195.63l11.38,16.86c0.08,0.13,0.29,0.16,0.41,0.08l27.1-18.3
			c6.88-4.65,8.7-14.02,4.05-20.9l-3.13-4.63c-4.64-6.88-14.02-8.69-20.9-4.05l-14.87,10.04
			C254.87,179.37,253.05,188.75,257.69,195.63L257.69,195.63z"/>
		<path class="st1" d="M116.44,265.83c-0.95,0-1.91-0.23-2.81-0.7c-2.93-1.56-4.04-5.19-2.48-8.11l55.49-104.38
			c1.56-2.93,5.19-4.04,8.11-2.48c2.93,1.56,4.04,5.19,2.48,8.11l-55.49,104.38C120.67,264.68,118.59,265.83,116.44,265.83z"/>
		<path class="st1" d="M210.72,194.31c-1.18,0-2.38-0.35-3.43-1.08c-2.72-1.9-3.39-5.63-1.49-8.35l30.14-43.25
			c0.3-0.43,0.66-0.83,1.07-1.17c2.14-1.8,4.59-3.11,7.27-3.9l58.17-20.74c5.6-3.18,8.88-7.06,10.02-11.85
			c1.41-5.92-0.72-12.12-2.56-15.99l-77.16,26.63c-0.09,0.03-0.18,0.06-0.27,0.08c-1.05,0.31-2.01,0.81-2.86,1.5l-53.66,43.66
			c-2.57,2.09-6.35,1.7-8.44-0.87c-2.09-2.57-1.7-6.35,0.87-8.44l53.66-43.65c2.05-1.67,4.37-2.9,6.9-3.66l81.78-28.23
			c2.54-0.87,5.35,0.04,6.89,2.25c0.41,0.59,10,14.63,6.55,29.4c-1.95,8.31-7.44,15.01-16.33,19.91c-0.28,0.16-0.58,0.29-0.88,0.4
			l-58.82,20.97c-0.13,0.04-0.25,0.09-0.38,0.12c-0.9,0.25-1.73,0.65-2.48,1.18l-29.62,42.5
			C214.49,193.41,212.62,194.31,210.72,194.31z"/>
		<path class="st1" d="M266.21,271.5c-1.87,0-3.71-0.87-4.88-2.5l-55.43-77.15c-1.93-2.69-1.32-6.44,1.37-8.37
			c2.69-1.93,6.44-1.32,8.37,1.37L271.08,262c1.93,2.69,1.32,6.44-1.37,8.37C268.65,271.14,267.42,271.5,266.21,271.5z"/>
	</g>
	<g>
		<g>
			<path class="st0" d="M100.91,354.08c-5.42,0-10.69-1.02-15.68-3.04c-3.07-1.24-4.55-4.74-3.31-7.81
				c1.24-3.07,4.74-4.55,7.81-3.31c3.55,1.44,7.31,2.16,11.17,2.16c16.43,0,29.79-13.36,29.79-29.79c0-3.31,2.69-6,6-6s6,2.69,6,6
				C142.7,335.33,123.95,354.08,100.91,354.08z"/>
			<path class="st0" d="M387.24,354.08c-23.04,0-41.79-18.75-41.79-41.79c0-3.31,2.69-6,6-6s6,2.69,6,6
				c0,16.43,13.36,29.79,29.79,29.79c3.87,0,7.63-0.73,11.18-2.17c3.07-1.24,6.57,0.24,7.81,3.31c1.24,3.07-0.24,6.57-3.31,7.81
				C397.93,353.06,392.66,354.08,387.24,354.08z"/>
			<path class="st0" d="M172.49,354.08c-23.04,0-41.79-18.75-41.79-41.79c0-3.31,2.69-6,6-6s6,2.69,6,6
				c0,16.43,13.36,29.79,29.79,29.79s29.79-13.36,29.79-29.79c0-3.31,2.69-6,6-6s6,2.69,6,6
				C214.28,335.33,195.53,354.08,172.49,354.08z"/>
			<path class="st0" d="M244.07,354.08c-23.04,0-41.79-18.75-41.79-41.79c0-3.31,2.69-6,6-6s6,2.69,6,6
				c0,16.43,13.36,29.79,29.79,29.79c16.43,0,29.79-13.36,29.79-29.79c0-3.31,2.69-6,6-6s6,2.69,6,6
				C285.86,335.33,267.12,354.08,244.07,354.08z"/>
			<path class="st0" d="M315.66,354.08c-23.04,0-41.79-18.75-41.79-41.79c0-3.31,2.69-6,6-6s6,2.69,6,6
				c0,16.43,13.36,29.79,29.79,29.79s29.79-13.36,29.79-29.79c0-3.31,2.69-6,6-6s6,2.69,6,6
				C357.45,335.33,338.7,354.08,315.66,354.08z"/>
		</g>
		<g>
			<path class="st0" d="M100.92,354.09c-23.04,0-41.79-18.75-41.79-41.79c0-3.31,2.69-6,6-6s6,2.69,6,6
				c0,16.43,13.36,29.79,29.79,29.79c3.87,0,7.63-0.73,11.17-2.17c3.07-1.24,6.57,0.24,7.81,3.31c1.24,3.07-0.24,6.57-3.31,7.81
				C111.61,353.06,106.34,354.09,100.92,354.09z"/>
			<path class="st0" d="M29.33,354.09c-3.31,0-6-2.69-6-6s2.69-6,6-6c16.43,0,29.79-13.36,29.79-29.79c0-3.31,2.69-6,6-6s6,2.69,6,6
				C71.13,335.34,52.38,354.09,29.33,354.09z"/>
		</g>
	</g>
	<g>
		<path class="st0" d="M143.09,277.73c-23.04,0-41.79-18.75-41.79-41.79c0-3.31,2.69-6,6-6s6,2.69,6,6
			c0,16.43,13.36,29.79,29.79,29.79s29.79-13.36,29.79-29.79c0-3.31,2.69-6,6-6s6,2.69,6,6
			C184.88,258.98,166.13,277.73,143.09,277.73z"/>
		<path class="st0" d="M71.49,277.74c-23.04,0-41.79-18.75-41.79-41.79c0-3.31,2.69-6,6-6s6,2.69,6,6
			c0,16.43,13.36,29.79,29.79,29.79s29.79-13.36,29.79-29.79c0-3.31,2.69-6,6-6s6,2.69,6,6C113.29,258.99,94.54,277.74,71.49,277.74
			z"/>
		<path class="st0" d="M214.67,277.65c-23.04,0-41.79-18.75-41.79-41.79c0-3.31,2.69-6,6-6s6,2.69,6,6
			c0,16.43,13.36,29.79,29.79,29.79c16.43,0,29.79-13.36,29.79-29.79c0-3.31,2.69-6,6-6s6,2.69,6,6
			C256.46,258.9,237.72,277.65,214.67,277.65z"/>
		<path class="st0" d="M286.26,277.65c-23.04,0-41.79-18.75-41.79-41.79c0-3.31,2.69-6,6-6s6,2.69,6,6
			c0,16.43,13.36,29.79,29.79,29.79c16.43,0,29.79-13.36,29.79-29.79c0-3.31,2.69-6,6-6s6,2.69,6,6
			C328.05,258.9,309.3,277.65,286.26,277.65z"/>
		<path class="st0" d="M357.84,277.65c-23.04,0-41.79-18.75-41.79-41.79c0-3.31,2.69-6,6-6s6,2.69,6,6
			c0,16.43,13.36,29.79,29.79,29.79s29.79-13.36,29.79-29.79c0-3.31,2.69-6,6-6s6,2.69,6,6
			C399.63,258.9,380.88,277.65,357.84,277.65z"/>
	</g>
</g>
</svg>
