<?xml version="1.0" encoding="utf-8"?>
<!-- Generator: Adobe Illustrator 26.3.1, SVG Export Plug-In . SVG Version: 6.00 Build 0)  -->
<svg version="1.1" id="Warstwa_1" xmlns="http://www.w3.org/2000/svg" xmlns:xlink="http://www.w3.org/1999/xlink" x="0px" y="0px"
	 viewBox="0 0 500 500" style="enable-background:new 0 0 500 500;" xml:space="preserve">
<style type="text/css">
	.st0{fill:#111339;}
	.st1{fill:#00B194;}
</style>
<path class="st0" d="M237.36,416.33c-84.63,0-153.48-68.85-153.48-153.47c0-84.63,68.85-153.48,153.48-153.48
	c18.88,0,37.33,3.39,54.82,10.07c2.32,0.89,3.86,3.12,3.86,5.6c0,2.49-1.53,4.72-3.86,5.6c-26.47,10.12-49.09,27.8-65.42,51.1
	c-16.7,23.84-25.53,51.88-25.53,81.09c0,29.21,8.83,57.25,25.53,81.09c16.33,23.31,38.95,40.98,65.42,51.1
	c2.32,0.89,3.86,3.12,3.86,5.61c0,2.49-1.53,4.72-3.86,5.6C274.69,412.94,256.24,416.33,237.36,416.33z M237.36,121.39
	c-78.01,0-141.48,63.47-141.48,141.48c0,78.01,63.47,141.47,141.48,141.47c12.21,0,24.22-1.54,35.86-4.58
	c-22.42-11.37-41.68-28.07-56.29-48.92c-18.12-25.86-27.7-56.28-27.7-87.97c0-31.69,9.58-62.11,27.7-87.98
	c14.61-20.86,33.88-37.55,56.29-48.92C261.58,122.92,249.57,121.39,237.36,121.39z"/>
<path class="st1" d="M297.34,281.98c-2.3,0-4.4-1.31-5.4-3.38l-14.52-29.93l-29.9-13.58c-2.14-0.97-3.52-3.11-3.52-5.46
	s1.38-4.49,3.52-5.46l29.9-13.58l14.52-29.93c1-2.07,3.1-3.38,5.4-3.38s4.4,1.31,5.4,3.38l14.52,29.93l29.9,13.58
	c2.14,0.97,3.52,3.11,3.52,5.46s-1.38,4.49-3.52,5.46l-29.9,13.58l-14.52,29.93C301.73,280.67,299.63,281.98,297.34,281.98z
	 M264.51,229.63l19.84,9.01c1.28,0.58,2.31,1.58,2.92,2.84l10.06,20.75l10.06-20.75c0.61-1.26,1.64-2.27,2.92-2.84l19.84-9.01
	l-19.84-9.01c-1.28-0.58-2.31-1.59-2.92-2.84l-10.06-20.75l-10.06,20.75c-0.61,1.26-1.64,2.27-2.92,2.84L264.51,229.63z"/>
<path class="st1" d="M349.75,388.69L349.75,388.69c-2.3,0-4.4-1.31-5.4-3.38l-10.05-20.73l-20.71-9.4
	c-2.14-0.97-3.52-3.11-3.52-5.46s1.38-4.49,3.52-5.46l20.71-9.4l10.05-20.73c1-2.07,3.1-3.38,5.4-3.38s4.4,1.31,5.4,3.38
	l10.06,20.73l20.71,9.4c2.14,0.97,3.52,3.11,3.52,5.46s-1.38,4.49-3.52,5.46l-20.71,9.4l-10.06,20.73
	C354.15,387.38,352.05,388.69,349.75,388.69z M330.58,349.72l10.65,4.84c1.28,0.58,2.31,1.58,2.92,2.84l5.6,11.55l5.6-11.55
	c0.61-1.26,1.64-2.27,2.92-2.84l10.65-4.84l-10.65-4.84c-1.28-0.58-2.31-1.58-2.92-2.84l-5.6-11.55l-5.6,11.55
	c-0.61,1.26-1.64,2.27-2.92,2.84L330.58,349.72z"/>
<path class="st1" d="M389.43,161.87c-2.3,0-4.4-1.31-5.4-3.38l-10.05-20.73l-20.71-9.4c-2.14-0.97-3.52-3.11-3.52-5.46
	s1.38-4.49,3.52-5.46l20.71-9.4l10.05-20.73c1-2.07,3.1-3.38,5.4-3.38s4.4,1.31,5.4,3.38l10.05,20.73l20.71,9.4
	c2.14,0.97,3.52,3.11,3.52,5.46s-1.38,4.49-3.52,5.46l-20.71,9.4l-10.05,20.73C393.83,160.55,391.73,161.87,389.43,161.87z
	 M370.26,122.89l10.65,4.84c1.28,0.58,2.31,1.58,2.92,2.84l5.6,11.55l5.6-11.55c0.61-1.26,1.64-2.27,2.92-2.84l10.65-4.84
	l-10.65-4.84c-1.28-0.58-2.31-1.58-2.92-2.84l-5.6-11.55l-5.6,11.55c-0.61,1.26-1.64,2.27-2.92,2.84L370.26,122.89z"/>
</svg>
