<?xml version="1.0" encoding="utf-8"?>
<!-- Generator: Adobe Illustrator 24.1.2, SVG Export Plug-In . SVG Version: 6.00 Build 0)  -->
<svg version="1.1" id="Warstwa_3" xmlns="http://www.w3.org/2000/svg" xmlns:xlink="http://www.w3.org/1999/xlink" x="0px" y="0px"
	 viewBox="0 0 430 430" style="enable-background:new 0 0 430 430;" xml:space="preserve">
<style type="text/css">
	.st0{fill:#121331;}
	.st1{fill:#08a88a;}
	.st2{fill:#08a88a;}
	.st3{fill:none;stroke:#08a88a;stroke-width:12;stroke-linecap:round;stroke-linejoin:round;stroke-miterlimit:10;}
</style>
<g>
	<path class="st1" d="M215,353.43c-1.31,0-2.61-0.43-3.7-1.28L197.06,341c-7.26-5.78-12.42-13.89-14.57-22.87
		c-0.04-0.15-0.06-0.29-0.09-0.44l-4.53-28.13c-0.51-3.16,1.55-6.16,4.68-6.82c12.74-2.69,25.82-6.94,28-9.09
		c1.14-1.27,2.75-1.98,4.46-1.98c1.7,0,3.32,0.74,4.45,2.01c2.16,2.13,15.24,6.38,27.97,9.07c3.13,0.66,5.19,3.66,4.68,6.82
		l-4.53,28.13c-0.02,0.15-0.05,0.3-0.09,0.44c-2.15,8.98-7.31,17.1-14.54,22.85l-14.27,11.19
		C217.61,353.01,216.31,353.43,215,353.43z M194.21,315.54c1.56,6.31,5.21,11.99,10.29,16.04l10.5,8.23l10.53-8.26
		c5.05-4.02,8.69-9.71,10.25-16.01l3.6-22.32c-7.55-1.8-17.95-4.69-24.38-8.25c-6.43,3.55-16.83,6.45-24.38,8.25L194.21,315.54z"/>
	<path class="st0" d="M334.41,121.39c0-0.07-0.01-0.13-0.01-0.2c-0.02-0.26-0.05-0.51-0.09-0.76c0,0,0,0,0,0
		c-0.05-0.26-0.12-0.5-0.21-0.75c-0.02-0.06-0.04-0.12-0.06-0.18c-0.09-0.24-0.19-0.47-0.3-0.69c0-0.01-0.01-0.02-0.01-0.03
		c-0.12-0.23-0.27-0.45-0.42-0.67c-0.04-0.05-0.07-0.1-0.11-0.15c-0.16-0.21-0.33-0.42-0.52-0.61l-66.72-66.72
		c-0.19-0.19-0.39-0.36-0.6-0.52c-0.05-0.04-0.11-0.08-0.16-0.12c-0.21-0.15-0.43-0.29-0.66-0.41c-0.02-0.01-0.03-0.01-0.05-0.02
		c-0.22-0.11-0.44-0.21-0.67-0.29c-0.06-0.02-0.13-0.05-0.19-0.07c-0.24-0.08-0.49-0.15-0.74-0.2c-0.01,0-0.01,0-0.02,0
		c-0.25-0.05-0.5-0.08-0.75-0.09c-0.07,0-0.14-0.01-0.21-0.01c-0.07,0-0.13-0.01-0.2-0.01H101.58c-3.31,0-6,2.69-6,6v320.24
		c0,3.31,2.69,6,6,6h226.84c3.31,0,6-2.69,6-6V121.6C334.42,121.53,334.41,121.46,334.41,121.39z M313.93,115.6H267.7V69.37
		L313.93,115.6z M107.58,369.12V60.88H255.7v60.72c0,3.31,2.69,6,6,6h60.72v241.52H107.58z"/>
	<g>
		<path class="st0" d="M290.03,164.67H139.97c-3.31,0-6-2.69-6-6s2.69-6,6-6h150.06c3.31,0,6,2.69,6,6S293.34,164.67,290.03,164.67z
			"/>
		<path class="st0" d="M290.03,205.08H139.97c-3.31,0-6-2.69-6-6s2.69-6,6-6h150.06c3.31,0,6,2.69,6,6S293.34,205.08,290.03,205.08z
			"/>
		<path class="st0" d="M217.19,245.5h-77.22c-3.31,0-6-2.69-6-6s2.69-6,6-6h77.22c3.31,0,6,2.69,6,6S220.5,245.5,217.19,245.5z"/>
		<path class="st0" d="M290.03,245.5h-40.98c-3.31,0-6-2.69-6-6s2.69-6,6-6h40.98c3.31,0,6,2.69,6,6S293.34,245.5,290.03,245.5z"/>
	</g>
</g>
</svg>
