<?xml version="1.0" encoding="utf-8"?>
<!-- Generator: Adobe Illustrator 24.1.2, SVG Export Plug-In . SVG Version: 6.00 Build 0)  -->
<svg version="1.1" id="Warstwa_1" xmlns="http://www.w3.org/2000/svg" xmlns:xlink="http://www.w3.org/1999/xlink" x="0px" y="0px"
	 viewBox="0 0 430 430" style="enable-background:new 0 0 430 430;" xml:space="preserve">
<style type="text/css">
	.st0{fill:#08a88a;}
	.st1{fill:#121331;}
	.st2{fill:#08a88a;}
	.st3{fill:#00A689;}
	.st4{fill:none;}
	.st5{fill:none;stroke:#121331;stroke-width:12;stroke-linecap:round;stroke-linejoin:round;stroke-miterlimit:10;}
</style>
<g>
	<path class="st1" d="M347.62,209H307v-60.45c0-7.62-0.78-15.27-2.31-22.73c-5.83-28.42-23.81-53.7-49.32-69.35l-15.8-9.68
		c-6.42-3.94-10.4-11.07-10.4-18.6c0-0.07-0.01-0.13-0.01-0.19c0-0.06-0.01-0.12-0.01-0.18c0,0,0,0,0-0.01c0,0,0,0,0,0
		c-0.02-0.36-0.07-0.71-0.16-1.06c-0.02-0.07-0.04-0.13-0.06-0.19c-0.2-0.72-0.54-1.4-1-2c-0.02-0.02-0.03-0.04-0.05-0.06
		c-0.11-0.14-0.22-0.27-0.34-0.4c-0.01-0.01-0.02-0.03-0.03-0.04c-0.04-0.06-0.1-0.1-0.15-0.15c-0.1-0.1-0.2-0.19-0.31-0.28
		c-0.06-0.05-0.11-0.1-0.17-0.15c-0.02-0.01-0.04-0.03-0.05-0.04c-0.03-0.03-0.07-0.05-0.1-0.07c-0.06-0.05-0.12-0.09-0.19-0.14
		c-0.07-0.04-0.15-0.09-0.22-0.14c-0.01-0.01-0.02-0.02-0.03-0.02c-0.02-0.01-0.04-0.02-0.06-0.03c0,0-0.01,0-0.01,0
		c-0.1-0.06-0.2-0.12-0.3-0.17c-0.03-0.02-0.06-0.03-0.09-0.04c-0.06-0.03-0.12-0.06-0.18-0.08c-0.04-0.02-0.07-0.04-0.11-0.05
		c-0.05-0.02-0.11-0.04-0.16-0.06c-0.26-0.1-0.52-0.19-0.79-0.26c-0.06-0.01-0.12-0.02-0.17-0.03c-0.15-0.03-0.3-0.06-0.45-0.08
		c0,0-0.01,0-0.01,0c-0.13-0.01-0.26-0.03-0.4-0.04c0,0-0.01,0-0.01,0c-0.05,0-0.11-0.01-0.16-0.01c-0.07,0-0.15-0.01-0.23-0.01
		c-0.06,0-0.13,0.01-0.19,0.01c-0.06,0-0.12,0.01-0.19,0.01c0,0,0,0,0,0c-0.01,0-0.01,0-0.02,0c-0.17,0.01-0.33,0.03-0.49,0.05
		c-0.14,0.02-0.27,0.05-0.41,0.08c-0.04,0.01-0.09,0.02-0.13,0.03c-0.14,0.03-0.28,0.08-0.41,0.12c-0.05,0.02-0.1,0.03-0.15,0.05
		c-0.08,0.03-0.17,0.07-0.25,0.1c-0.31,0.13-0.62,0.28-0.91,0.45c0,0,0,0-0.01,0c0,0-0.01,0.01-0.01,0.01
		c-0.16,0.1-0.32,0.21-0.47,0.32c-0.03,0.02-0.05,0.04-0.07,0.06c-0.13,0.1-0.26,0.21-0.39,0.33c-0.01,0.01-0.03,0.03-0.05,0.04
		l-0.17,0.17c-0.08,0.09-0.16,0.18-0.24,0.27c-0.05,0.06-0.11,0.12-0.16,0.18c-0.01,0.02-0.03,0.04-0.04,0.06
		c-0.02,0.03-0.04,0.06-0.06,0.09c-0.05,0.06-0.1,0.13-0.14,0.2c-0.02,0.03-0.03,0.05-0.05,0.08c-0.01,0.01-0.02,0.03-0.02,0.04
		c-0.03,0.04-0.06,0.08-0.09,0.13L105.45,209H82.66v12h22.79l112.6,183.94c0.02,0.03,0.04,0.05,0.05,0.07
		c0.13,0.2,0.26,0.4,0.41,0.58c0,0.01,0.01,0.01,0.02,0.02c0.14,0.17,0.27,0.33,0.43,0.47c0.02,0.02,0.04,0.04,0.06,0.06
		c0.04,0.04,0.09,0.08,0.14,0.12c0.05,0.04,0.09,0.09,0.14,0.12c0.04,0.03,0.08,0.06,0.12,0.09c0.11,0.09,0.22,0.18,0.33,0.25
		c0.02,0.02,0.05,0.04,0.07,0.06c0.14,0.1,0.29,0.19,0.44,0.27c0,0,0.01,0,0.01,0c0.02,0.01,0.05,0.02,0.07,0.04
		c0.1,0.06,0.2,0.11,0.31,0.16c0.09,0.05,0.18,0.09,0.28,0.12c0.01,0,0.02,0,0.02,0.01c0.03,0.01,0.06,0.02,0.09,0.03
		c0.2,0.08,0.4,0.14,0.6,0.2c0.03,0.01,0.05,0.01,0.08,0.02c0.08,0.02,0.16,0.05,0.25,0.06c0.15,0.03,0.3,0.05,0.46,0.07
		c0.07,0.01,0.14,0.02,0.22,0.02c0.17,0.02,0.35,0.03,0.53,0.03c0.2,0,0.4-0.01,0.59-0.03h0.04c0.17-0.02,0.34-0.05,0.51-0.08
		c0.15-0.03,0.29-0.07,0.43-0.11c0.01,0,0.02,0,0.03-0.01c0.18-0.05,0.35-0.11,0.52-0.18c0.06-0.02,0.13-0.05,0.2-0.08
		c0.03-0.01,0.06-0.03,0.09-0.04c0.11-0.05,0.22-0.1,0.34-0.16c0.1-0.05,0.2-0.11,0.3-0.17c0.01-0.01,0.02-0.01,0.04-0.02
		c0.01-0.01,0.02-0.01,0.03-0.02c0.2-0.12,0.39-0.26,0.57-0.4c0.04-0.03,0.07-0.06,0.11-0.09c0.14-0.11,0.27-0.23,0.39-0.35
		c0.05-0.05,0.09-0.09,0.14-0.14c0.11-0.12,0.22-0.23,0.32-0.36c0.04-0.05,0.07-0.09,0.11-0.14c0.47-0.61,0.8-1.29,1.01-2.02
		c0.02-0.06,0.04-0.13,0.06-0.19c0.09-0.35,0.14-0.7,0.16-1.06c0,0,0,0,0,0c0,0,0,0,0-0.01c0-0.06,0.01-0.12,0.01-0.18
		c0-0.06,0.01-0.12,0.01-0.19c0-7.53,3.98-14.66,10.4-18.6l15.79-9.68c25.52-15.65,43.5-40.93,49.33-69.35
		c1.53-7.46,2.31-15.11,2.31-22.73V221h40.62V209z M220.85,43.47C220.85,43.47,220.85,43.47,220.85,43.47
		c0.53,1.05,1.12,2.06,1.75,3.05c0.01,0.02,0.02,0.04,0.04,0.06c0.05,0.11,0.11,0.21,0.17,0.31c21.83,35.66,32.89,62.93,32.89,81.05
		V209H119.52L220.85,43.47z M255.7,221v81.06c0,18.12-11.06,45.39-32.89,81.05c-0.06,0.1-0.12,0.2-0.17,0.31
		c-0.02,0.02-0.03,0.04-0.04,0.06c-0.63,0.99-1.22,2-1.75,3.05c0,0,0,0,0,0L119.52,221H255.7z M295,281.45
		c0,6.81-0.69,13.65-2.06,20.32c-5.17,25.18-21.15,47.61-43.85,61.53l-1.74,1.07c13.67-25.92,20.35-46.44,20.35-62.31V127.94
		c0-15.86-6.68-36.38-20.35-62.31l1.74,1.07c22.7,13.92,38.68,36.35,43.85,61.53c1.37,6.67,2.06,13.51,2.06,20.32V281.45z"/>
	<g>
		<path class="st0" d="M404.42,209.49l-47.75-20.67c-3.33-1.44-7.14-1.12-10.19,0.88c-3.04,2-4.86,5.36-4.86,9v32.6
			c0,3.64,1.82,7,4.86,9c1.79,1.17,3.84,1.77,5.91,1.77c1.45,0,2.91-0.29,4.28-0.89l47.75-20.67c2.19-0.95,3.61-3.12,3.61-5.51
			S406.61,210.44,404.42,209.49z M353.62,229.42v-28.84L386.93,215L353.62,229.42z"/>
		<path class="st0" d="M88.64,214.5c-0.01-0.07-0.01-0.14-0.02-0.21c-0.02-0.13-0.03-0.26-0.06-0.39c0-0.02,0-0.03-0.01-0.05
			c-0.01-0.03-0.02-0.06-0.02-0.09c-0.03-0.15-0.07-0.3-0.11-0.44c-0.01-0.04-0.02-0.08-0.03-0.12c-0.01-0.04-0.03-0.08-0.05-0.13
			c-0.12-0.36-0.28-0.71-0.47-1.04c-0.01-0.02-0.02-0.05-0.04-0.07l-0.03-0.05c-0.01-0.02-0.02-0.03-0.03-0.05L86.1,209
			l-13.09-22.37c-1.08-1.84-3.05-2.97-5.18-2.97H27.97c-3.32,0-6,2.68-6,6v25.3c0,0.01,0,0.03,0,0.04v25.34c0,3.31,2.69,6,6,6h39.86
			c2.13,0,4.1-1.13,5.18-2.97l14.83-25.34c0.13-0.23,0.25-0.47,0.35-0.7c0-0.01,0.01-0.02,0.01-0.03c0.05-0.1,0.09-0.21,0.13-0.32
			c0-0.01,0.01-0.03,0.01-0.04c0.08-0.23,0.14-0.45,0.19-0.68c0.01-0.03,0.02-0.06,0.02-0.08c0.01-0.07,0.02-0.15,0.03-0.22
			c0.01-0.09,0.03-0.17,0.04-0.26c0.01-0.09,0.02-0.19,0.02-0.28c0.01-0.11,0.01-0.21,0.02-0.32c0-0.02,0-0.05,0-0.07
			c0-0.05-0.01-0.1-0.01-0.15C88.65,214.74,88.65,214.62,88.64,214.5z M64.39,234.34H33.97V221H72.2L64.39,234.34z M33.97,209
			v-13.34h30.42L72.2,209H33.97z"/>
	</g>
</g>
</svg>
