<?xml version="1.0" encoding="utf-8"?>
<!-- Generator: Adobe Illustrator 24.1.2, SVG Export Plug-In . SVG Version: 6.00 Build 0)  -->
<svg version="1.1" id="Warstwa_1" xmlns="http://www.w3.org/2000/svg" xmlns:xlink="http://www.w3.org/1999/xlink" x="0px" y="0px"
	 viewBox="0 0 430 430" style="enable-background:new 0 0 430 430;" xml:space="preserve">
<style type="text/css">
	.st0{fill:#121331;}
	.st1{fill:#08a88a;}
	.st2{fill:#08a88a;}
	.st3{fill:none;}
	.st4{fill:none;stroke:#121331;stroke-width:12;stroke-linecap:round;stroke-linejoin:round;stroke-miterlimit:10;}
	.st5{fill:#08A385;}
	.st6{fill:none;stroke:#08a88a;stroke-width:12;stroke-linecap:round;stroke-linejoin:round;stroke-miterlimit:10;}
</style>
<g>
	<g>
		<path class="st1" d="M303.75,139.84c-3.31,0-6-2.69-6-6v-18.73c0-3.31,2.69-6,6-6s6,2.69,6,6v18.73
			C309.75,137.15,307.06,139.84,303.75,139.84z"/>
		<path class="st1" d="M322.27,139.84c-3.31,0-6-2.69-6-6v-18.9c0-3.31,2.69-6,6-6s6,2.69,6,6v18.9
			C328.27,137.15,325.58,139.84,322.27,139.84z"/>
	</g>
	<path class="st1" d="M189.87,295.12c-2.13,0-4.29-0.11-6.44-0.32c-3.3-0.33-5.71-3.27-5.38-6.56s3.25-5.71,6.56-5.38
		c16.03,1.59,31.35-4,42.54-15.18c9.96-9.97,15.44-23.21,15.44-37.29v-40.52c0-3.31,2.69-6,6-6s6,2.69,6,6v40.52
		c0,17.28-6.73,33.54-18.96,45.77C223.41,288.38,207.16,295.12,189.87,295.12z"/>
	<g>
		<path class="st1" d="M107.98,378.87c-3.31,0-6-2.69-6-6v-14.64c0-3.31,2.69-6,6-6s6,2.69,6,6v14.64
			C113.98,376.18,111.29,378.87,107.98,378.87z"/>
		<path class="st1" d="M126.5,378.87c-3.31,0-6-2.69-6-6v-14.64c0-3.31,2.69-6,6-6s6,2.69,6,6v14.64
			C132.5,376.18,129.81,378.87,126.5,378.87z"/>
	</g>
	<path class="st0" d="M132.49,199.18c-1.8,0-3.58-0.8-4.75-2.33c-2.02-2.62-1.55-6.38,1.08-8.4c0.31-0.24,0.69-0.51,1.19-0.78
		c0.88-0.48,1.86-0.72,2.86-0.72c3.31,0,6,2.69,6,6c0,2.17-1.15,4.07-2.87,5.12C134.93,198.81,133.71,199.18,132.49,199.18z"/>
	<g>
		<path class="st1" d="M251.3,381.12c-3.31,0-6-2.69-6-6v-14.64c0-3.31,2.69-6,6-6s6,2.69,6,6v14.64
			C257.3,378.43,254.62,381.12,251.3,381.12z"/>
		<path class="st1" d="M269.82,381.12c-3.31,0-6-2.69-6-6v-14.64c0-3.31,2.69-6,6-6s6,2.69,6,6v14.64
			C275.82,378.43,273.14,381.12,269.82,381.12z"/>
	</g>
	<path class="st0" d="M349.34,146.19c0.64-2.33,0.97-4.72,0.97-7.11c0-17.21-16.58-31.21-36.96-31.21c-3.83,0-7.58,0.49-11.14,1.44
		c-15.43,4.1-25.8,16.06-25.8,29.77c0,2.37,0.32,4.75,0.95,7.11c3.02,11.02,4.49,23.18,4.49,37.18v34.19h-8.25
		c-1.14-2.25-2.2-4.44-3.23-6.59c-3.77-7.8-7.37-15.26-13.27-21.48c12.89-16.05,12.69-37.8,12.53-55.61l-0.02-2.07
		c-0.02-2.5-0.05-4.99-0.05-7.46c0-0.95-0.04-1.93-0.12-2.94c1.58-4.1,6.17-16.56,9.12-30.08c4.63-21.24,2.74-34.23-5.77-39.73
		c-15.42-10-40.52,9.98-51.2,19.65c-10.34-3.4-21.32-5.11-32.69-5.11c-11.35,0-22.33,1.72-32.68,5.12
		c-10.67-9.67-35.76-29.65-51.21-19.65c-8.5,5.5-10.39,18.5-5.77,39.73c2.73,12.55,7.15,25.03,9.13,30.12
		c-0.07,1-0.11,1.96-0.11,2.9c0,2.52-0.03,5.06-0.05,7.62l-0.02,1.93c-0.13,13.92-0.28,30.06,5.67,44.08c-3,0.75-5.76,2.28-8,4.52
		c-13.81,13.81-16.92,34.33-9.34,51.18c-3.81,11.67-5.85,24.58-6.06,38.45c-15.48,17.45-10.59,47.3-7.8,62.04
		c-1.88,4.45-2.92,9.33-2.92,14.45v2.13c0,15.51,12.62,28.12,28.12,28.12h18.75c11.24,0,20.95-6.63,25.45-16.17
		c11.08,3.1,22.7,4.52,36.84,4.52c14.13,0,25.31-1.2,36.13-3.93c4.12,10.43,14.29,17.83,26.16,17.83h18.75
		c15.51,0,28.12-12.62,28.12-28.12v-2.13c0-6.16-1.51-11.98-4.17-17.1c2.63-12.61,6.82-35.85-1.48-53.19h9.46
		c23.71,0,43-19.29,43-43v-14.01c0-0.12,0-0.23-0.01-0.34v-39.76C344.85,169.42,346.32,157.23,349.34,146.19z M114.35,190.99
		c0.99-0.99,2.31-1.54,3.71-1.54c1.4,0,2.72,0.55,3.71,1.54l31.19,31.19c10.67,10.67,21.15,18.87,32.01,25.07
		c1.15,0.66,2.21,1.47,3.15,2.4c7.49,7.49,5.68,21.5-4.05,31.23c-9.73,9.73-23.74,11.55-31.23,4.06c-0.94-0.94-1.75-2-2.4-3.15
		c-6.21-10.89-14.42-21.38-25.12-32.08l-10.98-10.98C101.19,225.57,101.19,204.15,114.35,190.99z M126.61,366.87h-18.75
		c-8.89,0-16.12-7.23-16.12-16.12v-2.13c0-3.7,0.81-7.21,2.24-10.39c0.25-0.39,0.45-0.81,0.6-1.24c4.22-8.1,12.68-13.64,22.43-13.64
		h0.44c13.94,0,25.27,11.34,25.27,25.27v2.13c0,0.99-0.1,1.96-0.28,2.9c-0.07,0.26-0.13,0.52-0.17,0.78
		C140.62,361.55,134.23,366.87,126.61,366.87z M286.06,353c0,8.89-7.23,16.12-16.12,16.12h-18.75c-8.89,0-16.12-7.23-16.12-16.12
		v-2.13c0-13.94,11.34-25.27,25.27-25.27h0.44c8.91,0,16.75,4.64,21.26,11.63c0.21,0.49,0.49,0.94,0.82,1.36
		c2.03,3.64,3.2,7.83,3.2,12.29V353z M337.77,143.02c-3.31,12.09-4.91,25.32-4.91,40.44v40.1c0,0.12,0,0.23,0.01,0.34v13.67
		c0,17.09-13.91,31-31,31H280.9c-0.01,0-0.02,0-0.03,0c-0.06,0-0.12,0.01-0.18,0.01c-0.34,0.01-0.67,0.04-1,0.11
		c-0.03,0.01-0.06,0.01-0.08,0.02c-0.35,0.08-0.69,0.18-1.01,0.32c-0.02,0.01-0.05,0.02-0.07,0.03c-0.35,0.15-0.68,0.33-0.99,0.54
		c-0.02,0.01-0.03,0.03-0.05,0.04c-0.31,0.22-0.61,0.46-0.87,0.74c-0.01,0.01-0.01,0.01-0.02,0.02c-0.01,0.01-0.02,0.03-0.03,0.04
		c-0.26,0.27-0.49,0.56-0.7,0.88c-0.02,0.03-0.04,0.06-0.06,0.09c-0.19,0.3-0.35,0.63-0.49,0.96c-0.01,0.03-0.02,0.05-0.03,0.08
		c-0.13,0.34-0.23,0.69-0.29,1.05c0,0.02-0.01,0.04-0.01,0.05c-0.06,0.34-0.09,0.68-0.09,1.03c0,1.7,0.71,3.23,1.85,4.32
		c10.14,9.88,9.26,28.95,7.15,42.77c-6.36-5.04-14.39-8.07-23.12-8.07h-0.44c-20.55,0-37.27,16.72-37.27,37.27v0.54
		c-10.14,2.65-20.65,3.81-34.17,3.81c-13.43,0-23.95-1.28-34.17-4.23c0-0.08,0.01-0.16,0.01-0.24v-2.13
		c0-20.55-16.72-37.27-37.27-37.27h-0.44c-9.33,0-17.86,3.45-24.4,9.13c-1.71-13.77-1.9-32.02,7.97-41.6c0,0,0,0,0-0.01
		c1.09-1.06,1.77-2.52,1.81-4.15c0-0.03,0-0.06,0-0.09c0-0.02,0-0.04,0-0.06c0-9.89,1.01-19.21,2.96-27.87
		c0.17,0.17,0.32,0.35,0.49,0.52l10.98,10.98c9.93,9.93,17.51,19.59,23.18,29.53c1.19,2.08,2.65,4,4.34,5.7
		c5.42,5.42,12.7,8.06,20.39,8.06c9.59,0,19.82-4.12,27.81-12.12c14.4-14.4,16.22-36.02,4.05-48.2c-1.69-1.69-3.61-3.15-5.69-4.34
		c-9.92-5.66-19.56-13.22-29.47-23.13l-4.22-4.22c5.04,1.05,10.51,1.81,16.43,2.28c0.16,0.01,0.32,0.02,0.48,0.02
		c3.1,0,5.72-2.38,5.97-5.53c0.26-3.3-2.2-6.19-5.51-6.46c-16.79-1.33-29.62-5.25-38.14-11.65c-0.07-0.05-0.13-0.1-0.2-0.14
		c-15.25-11.6-16.29-30.5-16.07-53.98l0.02-1.92c0.03-2.59,0.05-5.18,0.05-7.74c0-0.96,0.06-2.02,0.18-3.16c0,0,0-0.01,0-0.01
		c0.02-0.2,0.03-0.41,0.03-0.62c0-0.19-0.01-0.38-0.03-0.56c0-0.01,0-0.02,0-0.03c-0.02-0.17-0.04-0.34-0.08-0.51
		c0-0.02-0.01-0.05-0.01-0.07c-0.03-0.17-0.08-0.33-0.12-0.5c-0.01-0.02-0.01-0.05-0.02-0.07c-0.05-0.16-0.11-0.31-0.17-0.47
		c-0.01-0.03-0.02-0.06-0.03-0.08c0,0-0.01-0.01-0.01-0.02c0-0.01-0.01-0.02-0.01-0.03c-0.39-0.96-5.79-14.59-9.02-29.43
		c-3.77-17.3-2.05-25.41,0.56-27.1c5.79-3.75,22.97,5.37,39.11,20.77c1.66,1.58,4.07,2.08,6.23,1.29c10.03-3.71,20.81-5.6,32.04-5.6
		c11.08,0,22.15,1.94,32.04,5.6c2.16,0.8,4.57,0.3,6.23-1.28c16.15-15.4,33.32-24.53,39.1-20.77c2.62,1.69,4.33,9.8,0.57,27.1
		c-2.83,12.98-7.6,25.96-9.05,29.49c-0.06,0.16-0.12,0.32-0.17,0.48c0,0.01-0.01,0.01-0.01,0.02c-0.05,0.16-0.09,0.32-0.12,0.48
		c-0.01,0.04-0.02,0.07-0.03,0.11c-0.08,0.4-0.12,0.81-0.12,1.21c0,0.22,0.01,0.45,0.04,0.67c0.12,1.08,0.18,2.13,0.18,3.11
		c0,2.51,0.02,5.04,0.05,7.58l0.02,2.06c0.2,21.99-0.64,39.74-13.13,51.5c-0.01,0.01-0.02,0.02-0.04,0.03
		c-0.01,0.01-0.01,0.01-0.02,0.02c-8.62,8.07-22.1,12.73-41.24,14.25c-3.3,0.26-5.77,3.15-5.51,6.46s3.16,5.77,6.46,5.51
		c19.24-1.53,33.81-6.1,44.31-13.95c4.56,4.83,7.53,10.98,11.1,18.38c1.57,3.25,3.19,6.61,5.11,10.2c1.04,1.95,3.08,3.17,5.29,3.17
		h17.89c3.31,0,6-2.69,6-6v-40.19c0-15.09-1.61-28.29-4.91-40.33c-0.35-1.31-0.53-2.64-0.53-3.96c0-8.19,6.78-15.49,16.89-18.17
		c2.56-0.69,5.27-1.04,8.05-1.04c13.76,0,24.96,8.62,24.96,19.21C338.3,140.4,338.13,141.72,337.77,143.02z"/>
	<path class="st0" d="M188.9,171.33c-0.89,0-1.78-0.2-2.6-0.59c-10.86-5.21-16.37-10.52-16.37-15.78c0-3.31,2.69-6,6-6
		c2.88,0,5.29,2.03,5.87,4.74c1,1.13,3.96,3.15,7.1,4.88c3.16-1.74,6.09-3.74,7.1-4.88c0.58-2.71,2.99-4.74,5.87-4.74
		c3.31,0,6,2.69,6,6c0,5.26-5.51,10.57-16.37,15.78C190.68,171.13,189.79,171.33,188.9,171.33z M195.87,154.95
		C195.87,154.95,195.87,154.95,195.87,154.95C195.87,154.95,195.87,154.95,195.87,154.95z M181.94,154.95
		C181.94,154.95,181.94,154.95,181.94,154.95C181.94,154.95,181.94,154.95,181.94,154.95z"/>
	<path class="st1" d="M188.9,225.91c-11.46,0-20.79-9.33-20.79-20.79s9.33-20.79,20.79-20.79c11.46,0,20.79,9.33,20.79,20.79
		S200.37,225.91,188.9,225.91z M188.9,196.33c-4.85,0-8.79,3.94-8.79,8.79c0,4.85,3.94,8.79,8.79,8.79s8.79-3.94,8.79-8.79
		C197.69,200.27,193.75,196.33,188.9,196.33z"/>
	<g>
		<path class="st5" d="M223.7,145.18c-2.46,0-4.77-1.53-5.65-3.98c-1.12-3.12,0.5-6.55,3.62-7.67c12.22-4.38,26.69-6.25,42.99-5.56
			c3.31,0.14,5.88,2.94,5.74,6.25c-0.14,3.31-2.92,5.9-6.25,5.74c-10.15-0.43-25.05,0.07-38.44,4.87
			C225.06,145.07,224.37,145.18,223.7,145.18z"/>
		<path class="st5" d="M257,169.9c-0.81,0-1.63-0.16-2.41-0.51c-0.15-0.06-15.83-6.81-30.06-4.83c-3.29,0.45-6.31-1.84-6.77-5.12
			s1.84-6.31,5.12-6.77c17.66-2.45,35.77,5.39,36.53,5.73c3.03,1.33,4.41,4.87,3.08,7.91C261.5,168.56,259.3,169.9,257,169.9z"/>
	</g>
	<g>
		<path class="st5" d="M154.5,145.18c-0.67,0-1.36-0.11-2.02-0.35c-13.39-4.8-28.29-5.3-38.44-4.87c-3.3,0.16-6.11-2.43-6.25-5.74
			c-0.14-3.31,2.43-6.11,5.74-6.25c16.31-0.69,30.77,1.18,42.99,5.56c3.12,1.12,4.74,4.55,3.62,7.67
			C159.27,143.66,156.96,145.18,154.5,145.18z"/>
		<path class="st5" d="M121.21,169.9c-2.31,0-4.52-1.34-5.5-3.6c-1.33-3.03,0.05-6.57,3.08-7.9c0.76-0.33,18.88-8.18,36.53-5.73
			c3.28,0.46,5.57,3.49,5.12,6.77c-0.46,3.28-3.49,5.57-6.77,5.12c-14.23-1.97-29.91,4.76-30.07,4.83
			C122.83,169.74,122.02,169.9,121.21,169.9z"/>
	</g>
</g>
</svg>
