<?xml version="1.0" encoding="utf-8"?>
<!-- Generator: Adobe Illustrator 24.1.2, SVG Export Plug-In . SVG Version: 6.00 Build 0)  -->
<svg version="1.1" id="Warstwa_1" xmlns="http://www.w3.org/2000/svg" xmlns:xlink="http://www.w3.org/1999/xlink" x="0px" y="0px"
	 viewBox="0 0 430 430" style="enable-background:new 0 0 430 430;" xml:space="preserve">
<style type="text/css">
	.st0{fill:#121331;}
	.st1{fill:#08a88a;}
	.st2{fill:#08a88a;}
	.st3{fill:none;}
	.st4{fill:none;stroke:#121331;stroke-width:12;stroke-linecap:round;stroke-linejoin:round;stroke-miterlimit:10;}
	.st5{fill:#08A385;}
	.st6{fill:none;stroke:#08a88a;stroke-width:12;stroke-linecap:round;stroke-linejoin:round;stroke-miterlimit:10;}
</style>
<g>
	<path class="st0" d="M387.64,55.55c-6.06,0-11.93,1.81-16.9,5.04c-0.09,0.05-0.18,0.09-0.26,0.14
		c-32.05,19.62-56.53,29.57-72.76,29.57H140.75c-16.23,0-40.71-9.95-72.76-29.57c-0.09-0.05-0.17-0.09-0.26-0.14
		c-4.98-3.22-10.85-5.04-16.91-5.04c-3.31,0-6,2.69-6,6c0,3.31,2.69,6,6,6c6.58,0,12.81,3.49,16.26,9.1l8.73,14.24
		c6.81,11.1,15.64,20.63,25.82,28.13V320.6h-21.9c-3.31,0-6,2.69-6,6v41.85c0,3.31,2.69,6,6,6h279c3.31,0,6-2.69,6-6V326.6
		c0-3.31-2.69-6-6-6h-21.9V119.02c10.18-7.5,19.01-17.02,25.82-28.13l8.73-14.24c3.44-5.61,9.67-9.1,16.26-9.1c3.31,0,6-2.69,6-6
		C393.64,58.24,390.95,55.55,387.64,55.55z M352.73,362.45h-267V332.6h267V362.45z M324.83,320.6h-211.2V126.57
		c7.88,4.18,16.31,7.26,25.08,9.06c6.47,1.33,13.09,2.02,19.7,2.08v48.8c0,3.31,2.69,6,6,6s6-2.69,6-6v-48.79h97.64v48.79
		c0,3.31,2.69,6,6,6s6-2.69,6-6v-48.8c6.61-0.06,13.23-0.75,19.7-2.08c8.77-1.8,17.2-4.88,25.08-9.06V320.6z M297.34,123.88
		c-5.98,1.23-12.1,1.85-18.2,1.85h-5.04c-0.01,0-0.03,0-0.04,0s-0.03,0-0.04,0H164.45c-0.01,0-0.03,0-0.04,0s-0.03,0-0.04,0h-5.04
		c-6.1,0-12.23-0.62-18.2-1.85c-22.44-4.61-42.43-18.81-54.91-38.99c22.56,11.69,40.53,17.41,54.53,17.41h156.97
		c14,0,31.97-5.72,54.53-17.41C339.77,105.06,319.78,119.27,297.34,123.88z"/>
	<path class="st1" d="M219.23,308.7c-42.47,0-77.03-34.55-77.03-77.02c0-42.47,34.55-77.03,77.03-77.03
		c42.47,0,77.02,34.55,77.02,77.03C296.25,274.15,261.7,308.7,219.23,308.7z M219.23,166.65c-35.85,0-65.03,29.17-65.03,65.03
		s29.17,65.02,65.03,65.02s65.02-29.17,65.02-65.02S255.08,166.65,219.23,166.65z"/>
	<path class="st1" d="M219.23,278.38c-25.75,0-46.71-20.95-46.71-46.71c0-25.75,20.95-46.71,46.71-46.71
		c25.75,0,46.71,20.95,46.71,46.71C265.94,257.43,244.98,278.38,219.23,278.38z M219.23,196.97c-19.14,0-34.71,15.57-34.71,34.71
		c0,19.14,15.57,34.71,34.71,34.71c19.14,0,34.71-15.57,34.71-34.71C253.94,212.54,238.37,196.97,219.23,196.97z"/>
	<path class="st0" d="M61.11,257c-3.31,0-6-2.69-6-6V134.93c0-3.31,2.69-6,6-6s6,2.69,6,6V251C67.11,254.32,64.42,257,61.11,257z"/>
	<path class="st1" d="M63.02,306.18H59.2c-12.59,0-22.84-10.24-22.84-22.84v-15.5C36.36,255.25,46.6,245,59.2,245h3.83
		c12.59,0,22.84,10.24,22.84,22.84v15.5C85.86,295.93,75.62,306.18,63.02,306.18z M59.2,257c-5.98,0-10.84,4.86-10.84,10.84v15.5
		c0,5.98,4.86,10.84,10.84,10.84h3.83c5.98,0,10.84-4.86,10.84-10.84v-15.5c0-5.98-4.86-10.84-10.84-10.84H59.2z"/>
</g>
</svg>
