<?xml version="1.0" encoding="utf-8"?>
<!-- Generator: Adobe Illustrator 24.1.2, SVG Export Plug-In . SVG Version: 6.00 Build 0)  -->
<svg version="1.1" id="Warstwa_1" xmlns="http://www.w3.org/2000/svg" xmlns:xlink="http://www.w3.org/1999/xlink" x="0px" y="0px"
	 viewBox="0 0 430 430" style="enable-background:new 0 0 430 430;" xml:space="preserve">
<style type="text/css">
	.st0{fill:#121331;}
	.st1{fill:#08a88a;}
	.st2{fill:#08a88a;}
	.st3{fill:none;}
	.st4{fill:none;stroke:#121331;stroke-width:12;stroke-linecap:round;stroke-linejoin:round;stroke-miterlimit:10;}
	.st5{fill:#08A385;}
	.st6{fill:none;stroke:#08a88a;stroke-width:12;stroke-linecap:round;stroke-linejoin:round;stroke-miterlimit:10;}
</style>
<g>
	<g>
		<path class="st1" d="M215.69,301.19c-3.31,0-6-2.69-6-6v-0.13c0-3.31,2.69-6,6-6s6,2.69,6,6v0.13
			C221.69,298.5,219,301.19,215.69,301.19z"/>
		<path class="st1" d="M215.69,362.19c-3.31,0-6-2.69-6-6v-0.13c0-3.31,2.69-6,6-6s6,2.69,6,6v0.13
			C221.69,359.5,219,362.19,215.69,362.19z"/>
		<path class="st1" d="M215.69,331.69c-3.31,0-6-2.69-6-6v-0.13c0-3.31,2.69-6,6-6s6,2.69,6,6v0.13
			C221.69,329,219,331.69,215.69,331.69z"/>
	</g>
	<path class="st0" d="M345.5,324.37c0-0.02,0-0.04,0-0.06c-0.08-47.53-37.62-86.44-84.62-88.73v-15.52
		c12.13-11.84,19.1-27.57,19.69-44.6l1.41-40.52c0.12-3.31-2.48-6.09-5.79-6.21c-3.29-0.14-6.09,2.48-6.21,5.79l-1.41,40.52
		c-0.51,14.67-6.79,28.16-17.71,37.98c-6.49,5.85-14.38,10.06-22.81,12.16c-8.53,2.13-17.6,2.12-26.09,0
		c-8.5-2.12-16.44-6.37-22.98-12.31c-0.4-0.36-0.8-0.73-1.21-1.13c-10.05-9.71-15.85-22.74-16.33-36.7l-1.41-40.52
		c0-0.08-0.01-0.15-0.01-0.23v-0.01c-0.14-3.19-2.77-5.71-5.99-5.71c-3.31,0-6,2.7-6,6.01c0,0.15,0.01,0.29,0.02,0.44l1.41,40.43
		c0.58,16.88,7.53,32.65,19.54,44.46v15.67c-46.92,2.36-84.38,41.24-84.47,88.72c0,0.02,0,0.04,0,0.06c0,0.03,0,0.07,0,0.1v27.76
		c0,10.67,7.99,19.64,18.59,20.86l27.53,3.17c7.75,0.9,15.3,2.86,22.53,5.87l0.12,0.05c19.56,8.13,40.23,12.26,61.42,12.26
		c21.32,0,42.08-4.17,61.72-12.38c6.86-2.87,14.07-4.75,21.45-5.61l29.04-3.36c10.6-1.22,18.59-10.19,18.59-20.86v-27.76
		C345.5,324.44,345.5,324.41,345.5,324.37z M333.41,320.98c-28.01,15.08-59.08,19.62-70.5,20.84L235.5,259.7V235.5
		c4.67-1.54,9.16-3.6,13.38-6.15v12.12c0,3.31,2.69,6,6,6h1.62C297.79,247.47,331.58,280.14,333.41,320.98z M215,238.78
		c2.84,0,5.68-0.19,8.5-0.56v18.25c-5.58,1.51-11.43,1.48-17-0.07v-18.18C209.31,238.59,212.15,238.78,215,238.78z M173.5,247.47
		h1.47c3.31,0,6-2.69,6-6v-12.21c4.26,2.58,8.8,4.68,13.53,6.24v24.2l-27.42,82.12c-11.42-1.22-42.49-5.76-70.5-20.84
		C98.42,280.14,132.21,247.47,173.5,247.47z M325.53,361.17l-29.04,3.36c-8.49,0.98-16.8,3.16-24.7,6.46
		c-18.17,7.6-37.38,11.46-57.09,11.46c-19.61,0-38.72-3.82-56.89-11.37l-0.12-0.05c-8.19-3.41-16.83-5.66-25.69-6.68l-27.53-3.17
		c-4.54-0.52-7.96-4.36-7.96-8.94v-17.8c35.69,17.47,72.76,19.68,74.45,19.77c0.11,0.01,0.22,0.01,0.33,0.01
		c2.57,0,4.87-1.64,5.69-4.1l27.33-81.87c3.54,0.9,7.16,1.36,10.83,1.36c3.58,0,7.13-0.44,10.6-1.3l27.31,81.8
		c0.82,2.46,3.12,4.1,5.69,4.1c0.11,0,0.22,0,0.33-0.01c1.69-0.09,38.75-2.31,74.45-19.77v17.8
		C333.5,356.81,330.08,360.65,325.53,361.17z"/>
	<path class="st1" d="M275.98,140.72c-1.81,0-3.56-0.82-4.71-2.29l-31.53-40.03c-2.05-2.6-1.6-6.38,1-8.43c2.6-2.05,6.38-1.6,8.43,1
		l22.08,28.03l0.98-11.93c0.36-4.38-0.12-9.14-1.4-13.76c-0.01-0.03-0.02-0.07-0.03-0.1c-0.12-0.48-0.28-1.01-0.48-1.62
		c-0.01-0.04-0.03-0.09-0.04-0.13c-0.07-0.23-0.14-0.45-0.23-0.68c-0.02-0.05-0.04-0.1-0.05-0.16c-0.07-0.2-0.14-0.4-0.21-0.6
		l-0.11-0.3c-0.17-0.48-0.37-0.99-0.63-1.62c-0.02-0.05-0.04-0.09-0.06-0.14c-0.2-0.51-0.43-1.04-0.69-1.58
		c-0.03-0.06-0.05-0.11-0.08-0.17c-0.21-0.48-0.46-1-0.77-1.59c-0.02-0.03-0.03-0.07-0.05-0.1c-0.12-0.24-0.24-0.48-0.37-0.71
		c-0.02-0.04-0.05-0.08-0.07-0.12c-0.11-0.21-0.21-0.41-0.33-0.6c-0.1-0.16-0.19-0.33-0.28-0.5c-0.07-0.14-0.16-0.27-0.24-0.41
		c-0.04-0.07-0.08-0.14-0.12-0.2c-0.17-0.29-0.34-0.57-0.52-0.85l-0.13-0.21c-0.32-0.52-0.62-0.97-0.93-1.42h0
		c-0.04-0.05-0.07-0.11-0.11-0.16c-0.33-0.48-0.68-0.96-1.04-1.43c-0.02-0.03-0.05-0.06-0.07-0.09c-0.39-0.53-0.81-1.06-1.23-1.58
		c-0.21-0.26-0.39-0.48-0.57-0.68c-0.05-0.06-0.1-0.11-0.15-0.17c-0.18-0.21-0.35-0.42-0.54-0.62c-0.03-0.03-0.06-0.06-0.08-0.09
		c-0.5-0.56-0.93-1.02-1.36-1.45c-0.06-0.06-0.13-0.13-0.19-0.19c-0.2-0.21-0.4-0.42-0.62-0.62c-0.03-0.02-0.05-0.05-0.08-0.08
		c-0.2-0.2-0.41-0.41-0.63-0.6c-0.05-0.05-0.11-0.1-0.16-0.15c-0.19-0.18-0.38-0.37-0.58-0.54c-0.08-0.07-0.16-0.14-0.24-0.21
		c-0.19-0.18-0.4-0.36-0.6-0.52c-0.09-0.07-0.17-0.14-0.26-0.22c-0.2-0.18-0.4-0.35-0.61-0.51c-0.04-0.03-0.08-0.07-0.12-0.1
		c-0.56-0.46-1.14-0.91-1.73-1.35c-0.61-0.45-1.21-0.88-1.8-1.27c-0.05-0.03-0.09-0.06-0.14-0.09c-0.25-0.18-0.51-0.35-0.78-0.51
		c-0.84-0.55-1.54-0.97-2.22-1.35c-0.06-0.03-0.12-0.07-0.17-0.1c-0.19-0.11-0.37-0.22-0.57-0.32c-0.07-0.03-0.13-0.07-0.19-0.1
		c-0.32-0.18-0.64-0.35-0.96-0.52c-0.78-0.41-1.5-0.76-2.25-1.11c-0.19-0.09-0.32-0.16-0.46-0.22c-0.11-0.04-0.22-0.09-0.33-0.14
		c-0.5-0.23-1.01-0.44-1.54-0.66c-0.34-0.14-0.65-0.27-0.96-0.38c-0.87-0.34-1.73-0.65-2.59-0.94c-0.7-0.25-1.39-0.46-2.13-0.67
		c-0.65-0.19-1.26-0.36-1.87-0.53c-0.29-0.08-0.55-0.14-0.81-0.21c-0.01,0-0.11-0.03-0.12-0.03c-0.27-0.07-0.54-0.13-0.81-0.19
		c-0.04-0.01-0.08-0.02-0.12-0.03c-0.42-0.1-0.85-0.2-1.28-0.29c-0.05-0.01-0.1-0.02-0.15-0.03l-0.46-0.09
		c-0.38-0.08-0.82-0.17-1.26-0.24c-0.04-0.01-0.07-0.01-0.11-0.02c-0.45-0.08-0.9-0.16-1.36-0.23c-0.12-0.02-0.24-0.04-0.36-0.06
		l-0.12-0.02c-0.46-0.07-0.99-0.15-1.53-0.22l-0.06-0.01c-0.51-0.07-1-0.13-1.52-0.18c-0.05,0-0.11-0.01-0.16-0.02
		c-0.65-0.08-1.31-0.14-1.97-0.19c-0.55-0.05-1-0.08-1.46-0.11c-0.11-0.01-0.22-0.01-0.33-0.03c0,0,0,0,0,0
		c-0.34-0.02-0.7-0.05-1.04-0.06c-0.09,0-0.18-0.01-0.27-0.01c-0.39-0.03-0.79-0.02-1.18-0.04c-0.46-0.03-0.91-0.03-1.38-0.04
		c-1.1-0.02-2.27-0.02-3.37,0c-0.43,0.01-0.86,0.02-1.29,0.04c-0.04,0-0.08,0-0.12,0c-0.35,0.01-0.69,0.02-1.03,0.05
		c-0.09,0.01-0.18,0.01-0.28,0.01c-0.37,0.01-0.74,0.03-1.11,0.06c-0.12,0.01-0.24,0.02-0.36,0.02c-0.48,0.03-0.95,0.06-1.43,0.11
		c-0.03,0-0.06,0.01-0.09,0.01c-0.07,0.01-0.14,0.02-0.21,0.02c-0.54,0.04-1.06,0.1-1.58,0.16c-1.18,0.13-2.29,0.27-3.37,0.45
		c-0.74,0.11-1.4,0.23-2.04,0.35l-1.38,0.28c-0.49,0.1-0.99,0.21-1.48,0.32c-0.01,0-0.02,0-0.03,0.01
		c-0.08,0.02-0.16,0.04-0.23,0.05c-0.46,0.11-0.92,0.23-1.37,0.34c-0.51,0.13-0.99,0.26-1.48,0.4c-2.08,0.59-4.07,1.28-5.95,2.04
		c-0.37,0.15-0.73,0.3-1.09,0.46c-0.36,0.16-0.71,0.31-1.06,0.47c-1.35,0.61-2.6,1.23-3.77,1.89c-0.04,0.02-0.08,0.04-0.12,0.07
		c-0.12,0.06-0.24,0.13-0.36,0.21c-0.05,0.03-0.1,0.05-0.15,0.08c-0.25,0.13-0.49,0.28-0.73,0.42c-0.01,0.01-0.08,0.05-0.1,0.06
		c-0.35,0.21-0.71,0.42-1.05,0.64c-0.03,0.02-0.06,0.04-0.09,0.05c-0.18,0.11-0.35,0.22-0.52,0.33l-0.41,0.27
		c-0.35,0.23-0.76,0.5-1.15,0.79c-0.43,0.3-0.77,0.55-1.12,0.8c-0.7,0.51-1.33,1.01-1.99,1.56c-0.03,0.02-0.06,0.05-0.09,0.07
		c-0.29,0.23-0.56,0.47-0.84,0.71c-0.08,0.07-0.16,0.14-0.24,0.2c-0.23,0.2-0.46,0.41-0.69,0.61c-0.01,0.01-0.08,0.07-0.09,0.08
		c-0.58,0.52-1.14,1.06-1.73,1.67c-0.32,0.32-0.57,0.58-0.81,0.84c-0.03,0.03-0.05,0.06-0.08,0.09c-0.26,0.26-0.51,0.54-0.74,0.81
		c-1.64,1.84-3.08,3.72-4.35,5.67c-0.41,0.63-0.82,1.3-1.23,1.98c-1.29,2.19-2.42,4.54-3.34,6.96l-0.74,2.08
		c-0.18,0.55-0.37,1.19-0.55,1.83c0,0,0,0.01,0,0.01l-0.61,2.5c-0.01,0.03-0.03,0.14-0.03,0.16c-0.82,3.84-1.08,7.59-0.76,11.14
		l0.97,11.92l22.08-28.03c2.05-2.6,5.82-3.05,8.43-1c2.6,2.05,3.05,5.82,1,8.43l-31.53,40.03c-1.53,1.95-4.1,2.75-6.47,2.02
		c-2.37-0.73-4.05-2.83-4.23-5.3l-0.01-0.14l-2.2-26.92c-0.42-4.7-0.09-9.64,0.98-14.66c0.05-0.27,0.11-0.55,0.18-0.82l0.25-1.07
		c0.01-0.04,0.02-0.09,0.03-0.13l0.29-1.12c0.02-0.08,0.04-0.17,0.07-0.25h0c0.23-0.79,0.47-1.6,0.73-2.4l0.42-1.23
		c0.02-0.04,0.03-0.09,0.05-0.13l0.42-1.14c1.19-3.11,2.61-6.06,4.25-8.85c0.49-0.83,0.98-1.62,1.49-2.41
		c1.62-2.48,3.43-4.83,5.39-7.04c0.31-0.36,0.71-0.79,1.12-1.22c0.33-0.35,0.66-0.69,1-1.03c0.71-0.73,1.47-1.46,2.25-2.17
		c0.4-0.36,0.75-0.68,1.12-1l0,0c0.03-0.02,0.05-0.04,0.08-0.07c0.36-0.32,0.73-0.63,1.11-0.94c0.84-0.7,1.69-1.36,2.53-1.98
		c0.39-0.29,0.83-0.61,1.28-0.92c0.47-0.34,1.04-0.72,1.61-1.1l0.4-0.26c0.23-0.15,0.46-0.29,0.69-0.44
		c0.48-0.31,0.97-0.61,1.46-0.89c0.35-0.21,0.69-0.41,1.04-0.6c0.21-0.12,0.43-0.24,0.64-0.36c1.46-0.82,3.02-1.59,4.61-2.31
		c0.37-0.17,0.8-0.36,1.23-0.55c0.45-0.2,0.91-0.39,1.39-0.58c2.27-0.92,4.68-1.75,7.14-2.45c0.58-0.17,1.2-0.34,1.81-0.49
		c0.52-0.14,1.08-0.28,1.63-0.41c0.01,0,0.01,0,0.02,0c0.13-0.03,0.25-0.06,0.37-0.09c0.56-0.13,1.12-0.25,1.69-0.37l1.52-0.31
		c0.87-0.16,1.65-0.3,2.46-0.42c1.23-0.2,2.55-0.37,3.86-0.51c0.53-0.06,1.14-0.13,1.76-0.18c0.12-0.02,0.26-0.03,0.42-0.04
		c0.62-0.06,1.23-0.1,1.86-0.14c0,0,0.01,0,0.01,0c0.07,0,0.15-0.01,0.22-0.01c0.48-0.04,0.97-0.06,1.45-0.08
		c0.46-0.03,0.92-0.05,1.38-0.06c0.49-0.02,1-0.03,1.51-0.04c1.3-0.02,2.56-0.02,3.8,0c0.57,0.01,1.12,0.02,1.67,0.05
		c0.47,0,0.93,0.02,1.39,0.05c0.45,0.01,0.9,0.04,1.33,0.07c0.15,0.01,0.31,0.02,0.46,0.04c0.56,0.03,1.1,0.07,1.65,0.13
		c0.73,0.06,1.53,0.13,2.32,0.23c0.63,0.06,1.23,0.14,1.85,0.22l0.1,0.01c0.66,0.09,1.27,0.18,1.87,0.27
		c0.17,0.03,0.33,0.05,0.48,0.08c0.53,0.08,1.06,0.17,1.59,0.27c0.6,0.1,1.19,0.22,1.76,0.34l0.15,0.03
		c0.14,0.03,0.27,0.05,0.4,0.08c0.49,0.1,0.98,0.22,1.47,0.33c0.39,0.08,0.77,0.18,1.15,0.27c0.45,0.11,0.84,0.21,1.23,0.31
		c0.66,0.18,1.36,0.37,2.04,0.58c0.9,0.26,1.81,0.55,2.65,0.84c0.96,0.32,2.01,0.7,3.01,1.09c0.38,0.14,0.81,0.32,1.23,0.49
		c0.61,0.25,1.25,0.52,1.86,0.8c0.35,0.14,0.69,0.3,1.03,0.47c0.81,0.38,1.72,0.82,2.65,1.31c0.36,0.18,0.78,0.41,1.21,0.65
		c0.36,0.19,0.71,0.39,1.06,0.6c0.89,0.5,1.79,1.05,2.76,1.67c0.34,0.21,0.75,0.48,1.15,0.76c0.75,0.5,1.51,1.04,2.28,1.61
		c0.79,0.59,1.49,1.14,2.13,1.66c0.37,0.29,0.72,0.59,1.08,0.9c0.34,0.28,0.67,0.57,1,0.87c0.35,0.3,0.69,0.61,1.01,0.92
		c0.34,0.31,0.67,0.62,0.98,0.94c0.32,0.31,0.63,0.62,0.93,0.94c0.64,0.63,1.22,1.27,1.75,1.86c0.31,0.33,0.6,0.66,0.88,1.01
		c0.31,0.35,0.61,0.71,0.89,1.06c0.5,0.61,1.03,1.29,1.53,1.96c0.51,0.67,1.01,1.37,1.49,2.07c0.03,0.05,0.06,0.09,0.09,0.14
		c0.4,0.58,0.78,1.16,1.13,1.74l0.08,0.13c0.25,0.4,0.5,0.8,0.74,1.22c0.18,0.3,0.39,0.64,0.59,1.02c0.2,0.34,0.39,0.68,0.57,1.03
		c0.21,0.37,0.4,0.74,0.59,1.11c0.41,0.78,0.76,1.5,1.06,2.19c0.35,0.74,0.67,1.48,0.96,2.2c0.36,0.85,0.64,1.58,0.88,2.27
		l0.09,0.25c0.09,0.25,0.18,0.5,0.26,0.75c0.14,0.38,0.27,0.77,0.38,1.15c0.27,0.81,0.48,1.55,0.67,2.25
		c1.64,5.96,2.26,12.14,1.78,17.89l-2.22,27.15c-0.2,2.46-1.89,4.54-4.25,5.26C277.14,140.64,276.56,140.72,275.98,140.72z
		 M197.31,58.77C197.31,58.77,197.3,58.77,197.31,58.77C197.3,58.77,197.31,58.77,197.31,58.77z M227.75,57.81
		c0.01,0,0.03,0,0.04,0.01L227.75,57.81z M227.28,57.71c0.02,0.01,0.05,0.01,0.07,0.02C227.33,57.72,227.31,57.72,227.28,57.71z
		 M207.03,57.18C207.03,57.18,207.02,57.18,207.03,57.18C207.02,57.18,207.03,57.18,207.03,57.18z M207.04,57.18
		C207.04,57.18,207.03,57.18,207.04,57.18C207.03,57.18,207.04,57.18,207.04,57.18z M207.09,57.18c-0.02,0-0.03,0-0.05,0
		C207.06,57.18,207.07,57.18,207.09,57.18z M207.1,57.18C207.09,57.18,207.09,57.18,207.1,57.18
		C207.09,57.18,207.09,57.18,207.1,57.18z M207.1,57.18C207.1,57.18,207.1,57.18,207.1,57.18C207.1,57.18,207.1,57.18,207.1,57.18z
		 M207.81,57.12C207.81,57.12,207.8,57.12,207.81,57.12C207.8,57.12,207.81,57.12,207.81,57.12z M220.89,57.03c0,0,0.01,0,0.01,0
		C220.9,57.03,220.89,57.03,220.89,57.03z M220.22,56.98C220.22,56.98,220.22,56.98,220.22,56.98
		C220.22,56.98,220.22,56.98,220.22,56.98z"/>
	<path class="st0" d="M283.2,93.46c-4.48-21.34-23.47-46.07-62.23-48.42l0.03-3.44c0.03-3.31-2.63-6.02-5.95-6.05
		c-0.02,0-0.04,0-0.05,0c-3.29,0-5.97,2.65-6,5.95l-0.03,3.54c-38.64,2.32-57.64,27.06-62.16,48.41c-0.38,1.77,0.07,3.62,1.21,5.02
		s2.85,2.22,4.66,2.22h124.65c1.81,0,3.52-0.82,4.66-2.22C283.12,97.08,283.57,95.23,283.2,93.46z M160.76,88.7
		c6.43-15.98,23.35-31.85,54.15-31.85c31.09,0,47.95,15.38,54.38,31.85H160.76z"/>
</g>
</svg>
