<?xml version="1.0" encoding="utf-8"?>
<!-- Generator: Adobe Illustrator 26.0.1, SVG Export Plug-In . SVG Version: 6.00 Build 0)  -->
<svg version="1.1" id="Warstwa_1" xmlns="http://www.w3.org/2000/svg" xmlns:xlink="http://www.w3.org/1999/xlink" x="0px" y="0px"
	 viewBox="0 0 500 500" style="enable-background:new 0 0 500 500;" xml:space="preserve">
<style type="text/css">
	.st0{fill:#08a88a;}
	.st1{fill:#121331;}
	.st2{fill:none;}
	.st3{fill:none;stroke:#08a88a;stroke-width:12;stroke-linecap:round;stroke-linejoin:round;stroke-miterlimit:10;}
</style>
<path class="st0" d="M250,162.6c-14.53,0-26.35-11.82-26.35-26.35c0-22.16,20.74-48.94,21.62-50.06c1.58-2.02,4.26-2.81,6.68-1.98
	c2.42,0.83,4.04,3.11,4.04,5.67c0,6.21,3.87,11.45,8.34,17.52c5.63,7.62,12.01,16.26,12.01,28.85
	C276.35,150.78,264.53,162.6,250,162.6z M247.67,103.93c-5.43,8.81-12.02,21.68-12.02,32.32c0,7.91,6.44,14.35,14.35,14.35
	c7.91,0,14.35-6.44,14.35-14.35c0-8.64-4.69-15-9.66-21.73C252.19,111.14,249.65,107.7,247.67,103.93z"/>
<path class="st1" d="M250,189.28c-3.31,0-6-2.69-6-6v-42.01c0-3.31,2.69-6,6-6s6,2.69,6,6v42.01C256,186.6,253.31,189.28,250,189.28
	z"/>
<path class="st1" d="M303.37,376.09H196.63c-3.31,0-6-2.69-6-6V200.55c0-12.83,10.44-23.27,23.27-23.27h72.21
	c12.83,0,23.27,10.44,23.27,23.27v169.54C309.37,373.4,306.69,376.09,303.37,376.09z M202.63,364.09h94.75V200.55
	c0-6.21-5.05-11.27-11.27-11.27h-72.21c-6.21,0-11.27,5.05-11.27,11.27V364.09z"/>
<path class="st0" d="M316.72,416.12H183.28c-2.01,0-3.88-1-4.99-2.67l-26.69-40.03c-1.23-1.84-1.34-4.21-0.3-6.16
	s3.08-3.17,5.29-3.17H343.4c2.21,0,4.25,1.22,5.29,3.17s0.93,4.32-0.3,6.16l-26.69,40.03C320.6,415.12,318.72,416.12,316.72,416.12z
	 M186.49,404.12h127.01l18.69-28.03H167.81L186.49,404.12z"/>
<path class="st1" d="M244.67,283.45c-12.38,0-22.44-10.07-22.44-22.44V231.9c0-5.02-4.09-9.11-9.11-9.11h-16.48c-3.31,0-6-2.69-6-6
	s2.69-6,6-6h16.48c11.64,0,21.11,9.47,21.11,21.11v29.11c0,5.76,4.69,10.44,10.44,10.44s10.44-4.69,10.44-10.44v-32.94
	c0-13.2,10.74-23.94,23.94-23.94h24.32c3.31,0,6,2.69,6,6s-2.69,6-6,6h-24.32c-6.59,0-11.94,5.36-11.94,11.94v32.94
	C267.11,273.38,257.04,283.45,244.67,283.45z"/>
</svg>
